solid ASCII
  facet normal 0.000000e+00 -1.000000e+00 0.000000e+00
    outer loop
      vertex   -4.751019e+00 -2.540000e-03 -3.647572e-01
      vertex   4.751019e+00 -2.540000e-03 -3.647572e-01
      vertex   -4.765000e+00 -2.540000e-03 5.835442e-16
    endloop
  endfacet
  facet normal 0.000000e+00 -1.000000e+00 0.000000e+00
    outer loop
      vertex   -4.765000e+00 -2.540000e-03 5.835442e-16
      vertex   4.751019e+00 -2.540000e-03 -3.647572e-01
      vertex   4.765000e+00 -2.540000e-03 2.116085e-15
    endloop
  endfacet
  facet normal 0.000000e+00 -1.000000e+00 0.000000e+00
    outer loop
      vertex   -4.765000e+00 -2.540000e-03 5.835442e-16
      vertex   4.765000e+00 -2.540000e-03 2.116085e-15
      vertex   -4.751019e+00 -2.540000e-03 3.647572e-01
    endloop
  endfacet
  facet normal 0.000000e+00 -1.000000e+00 0.000000e+00
    outer loop
      vertex   -4.751019e+00 -2.540000e-03 3.647572e-01
      vertex   4.765000e+00 -2.540000e-03 2.116085e-15
      vertex   4.751019e+00 -2.540000e-03 3.647572e-01
    endloop
  endfacet
  facet normal 0.000000e+00 -1.000000e+00 0.000000e+00
    outer loop
      vertex   -4.751019e+00 -2.540000e-03 3.647572e-01
      vertex   4.751019e+00 -2.540000e-03 3.647572e-01
      vertex   -4.709156e+00 -2.540000e-03 7.273738e-01
    endloop
  endfacet
  facet normal 0.000000e+00 -1.000000e+00 0.000000e+00
    outer loop
      vertex   -4.709156e+00 -2.540000e-03 7.273738e-01
      vertex   4.751019e+00 -2.540000e-03 3.647572e-01
      vertex   4.709156e+00 -2.540000e-03 7.273738e-01
    endloop
  endfacet
  facet normal 0.000000e+00 -1.000000e+00 0.000000e+00
    outer loop
      vertex   -4.709156e+00 -2.540000e-03 7.273738e-01
      vertex   4.709156e+00 -2.540000e-03 7.273738e-01
      vertex   -4.639659e+00 -2.540000e-03 1.085722e+00
    endloop
  endfacet
  facet normal 0.000000e+00 -1.000000e+00 0.000000e+00
    outer loop
      vertex   -4.639659e+00 -2.540000e-03 1.085722e+00
      vertex   4.709156e+00 -2.540000e-03 7.273738e-01
      vertex   4.639659e+00 -2.540000e-03 1.085722e+00
    endloop
  endfacet
  facet normal 0.000000e+00 -1.000000e+00 0.000000e+00
    outer loop
      vertex   -4.639659e+00 -2.540000e-03 1.085722e+00
      vertex   4.639659e+00 -2.540000e-03 1.085722e+00
      vertex   -4.542934e+00 -2.540000e-03 1.437699e+00
    endloop
  endfacet
  facet normal 0.000000e+00 -1.000000e+00 0.000000e+00
    outer loop
      vertex   -4.542934e+00 -2.540000e-03 1.437699e+00
      vertex   4.639659e+00 -2.540000e-03 1.085722e+00
      vertex   4.542934e+00 -2.540000e-03 1.437699e+00
    endloop
  endfacet
  facet normal 0.000000e+00 -1.000000e+00 0.000000e+00
    outer loop
      vertex   -4.542934e+00 -2.540000e-03 1.437699e+00
      vertex   4.542934e+00 -2.540000e-03 1.437699e+00
      vertex   -4.419549e+00 -2.540000e-03 1.781238e+00
    endloop
  endfacet
  facet normal 0.000000e+00 -1.000000e+00 0.000000e+00
    outer loop
      vertex   -4.419549e+00 -2.540000e-03 1.781238e+00
      vertex   4.542934e+00 -2.540000e-03 1.437699e+00
      vertex   4.419549e+00 -2.540000e-03 1.781238e+00
    endloop
  endfacet
  facet normal 0.000000e+00 -1.000000e+00 0.000000e+00
    outer loop
      vertex   -4.419549e+00 -2.540000e-03 1.781238e+00
      vertex   4.419549e+00 -2.540000e-03 1.781238e+00
      vertex   -4.270229e+00 -2.540000e-03 2.114325e+00
    endloop
  endfacet
  facet normal 0.000000e+00 -1.000000e+00 0.000000e+00
    outer loop
      vertex   -4.270229e+00 -2.540000e-03 2.114325e+00
      vertex   4.419549e+00 -2.540000e-03 1.781238e+00
      vertex   4.270229e+00 -2.540000e-03 2.114325e+00
    endloop
  endfacet
  facet normal 0.000000e+00 -1.000000e+00 0.000000e+00
    outer loop
      vertex   -4.270229e+00 -2.540000e-03 2.114325e+00
      vertex   4.270229e+00 -2.540000e-03 2.114325e+00
      vertex   -4.095849e+00 -2.540000e-03 2.435004e+00
    endloop
  endfacet
  facet normal 0.000000e+00 -1.000000e+00 0.000000e+00
    outer loop
      vertex   -4.095849e+00 -2.540000e-03 2.435004e+00
      vertex   4.270229e+00 -2.540000e-03 2.114325e+00
      vertex   4.095849e+00 -2.540000e-03 2.435004e+00
    endloop
  endfacet
  facet normal 0.000000e+00 -1.000000e+00 0.000000e+00
    outer loop
      vertex   -4.095849e+00 -2.540000e-03 2.435004e+00
      vertex   4.095849e+00 -2.540000e-03 2.435004e+00
      vertex   -3.897433e+00 -2.540000e-03 2.741393e+00
    endloop
  endfacet
  facet normal 0.000000e+00 -1.000000e+00 0.000000e+00
    outer loop
      vertex   -3.897433e+00 -2.540000e-03 2.741393e+00
      vertex   4.095849e+00 -2.540000e-03 2.435004e+00
      vertex   3.897433e+00 -2.540000e-03 2.741393e+00
    endloop
  endfacet
  facet normal 0.000000e+00 -1.000000e+00 0.000000e+00
    outer loop
      vertex   -3.897433e+00 -2.540000e-03 2.741393e+00
      vertex   3.897433e+00 -2.540000e-03 2.741393e+00
      vertex   -3.676146e+00 -2.540000e-03 3.031695e+00
    endloop
  endfacet
  facet normal 0.000000e+00 -1.000000e+00 0.000000e+00
    outer loop
      vertex   -3.676146e+00 -2.540000e-03 3.031695e+00
      vertex   3.897433e+00 -2.540000e-03 2.741393e+00
      vertex   3.676146e+00 -2.540000e-03 3.031695e+00
    endloop
  endfacet
  facet normal 0.000000e+00 -1.000000e+00 0.000000e+00
    outer loop
      vertex   -3.676146e+00 -2.540000e-03 3.031695e+00
      vertex   3.676146e+00 -2.540000e-03 3.031695e+00
      vertex   -3.433285e+00 -2.540000e-03 3.304206e+00
    endloop
  endfacet
  facet normal 0.000000e+00 -1.000000e+00 0.000000e+00
    outer loop
      vertex   -3.433285e+00 -2.540000e-03 3.304206e+00
      vertex   3.676146e+00 -2.540000e-03 3.031695e+00
      vertex   3.433285e+00 -2.540000e-03 3.304206e+00
    endloop
  endfacet
  facet normal 0.000000e+00 -1.000000e+00 0.000000e+00
    outer loop
      vertex   -3.433285e+00 -2.540000e-03 3.304206e+00
      vertex   3.433285e+00 -2.540000e-03 3.304206e+00
      vertex   -3.170277e+00 -2.540000e-03 3.557326e+00
    endloop
  endfacet
  facet normal 0.000000e+00 -1.000000e+00 0.000000e+00
    outer loop
      vertex   -3.170277e+00 -2.540000e-03 3.557326e+00
      vertex   3.433285e+00 -2.540000e-03 3.304206e+00
      vertex   3.170277e+00 -2.540000e-03 3.557326e+00
    endloop
  endfacet
  facet normal 0.000000e+00 -1.000000e+00 0.000000e+00
    outer loop
      vertex   -3.170277e+00 -2.540000e-03 3.557326e+00
      vertex   3.170277e+00 -2.540000e-03 3.557326e+00
      vertex   -2.888664e+00 -2.540000e-03 3.789571e+00
    endloop
  endfacet
  facet normal 0.000000e+00 -1.000000e+00 0.000000e+00
    outer loop
      vertex   -2.888664e+00 -2.540000e-03 3.789571e+00
      vertex   3.170277e+00 -2.540000e-03 3.557326e+00
      vertex   2.888664e+00 -2.540000e-03 3.789571e+00
    endloop
  endfacet
  facet normal 0.000000e+00 -1.000000e+00 0.000000e+00
    outer loop
      vertex   -2.888664e+00 -2.540000e-03 3.789571e+00
      vertex   2.888664e+00 -2.540000e-03 3.789571e+00
      vertex   -2.590099e+00 -2.540000e-03 3.999576e+00
    endloop
  endfacet
  facet normal 0.000000e+00 -1.000000e+00 0.000000e+00
    outer loop
      vertex   -2.590099e+00 -2.540000e-03 3.999576e+00
      vertex   2.888664e+00 -2.540000e-03 3.789571e+00
      vertex   2.590099e+00 -2.540000e-03 3.999576e+00
    endloop
  endfacet
  facet normal 0.000000e+00 -1.000000e+00 0.000000e+00
    outer loop
      vertex   -2.590099e+00 -2.540000e-03 3.999576e+00
      vertex   2.590099e+00 -2.540000e-03 3.999576e+00
      vertex   -2.276335e+00 -2.540000e-03 4.186111e+00
    endloop
  endfacet
  facet normal 0.000000e+00 -1.000000e+00 0.000000e+00
    outer loop
      vertex   -2.276335e+00 -2.540000e-03 4.186111e+00
      vertex   2.590099e+00 -2.540000e-03 3.999576e+00
      vertex   2.276335e+00 -2.540000e-03 4.186111e+00
    endloop
  endfacet
  facet normal 0.000000e+00 -1.000000e+00 0.000000e+00
    outer loop
      vertex   -2.276335e+00 -2.540000e-03 4.186111e+00
      vertex   2.276335e+00 -2.540000e-03 4.186111e+00
      vertex   -1.949212e+00 -2.540000e-03 4.348080e+00
    endloop
  endfacet
  facet normal 0.000000e+00 -1.000000e+00 0.000000e+00
    outer loop
      vertex   -1.949212e+00 -2.540000e-03 4.348080e+00
      vertex   2.276335e+00 -2.540000e-03 4.186111e+00
      vertex   1.949212e+00 -2.540000e-03 4.348080e+00
    endloop
  endfacet
  facet normal 0.000000e+00 -1.000000e+00 0.000000e+00
    outer loop
      vertex   -1.949212e+00 -2.540000e-03 4.348080e+00
      vertex   1.949212e+00 -2.540000e-03 4.348080e+00
      vertex   -1.610650e+00 -2.540000e-03 4.484532e+00
    endloop
  endfacet
  facet normal 0.000000e+00 -1.000000e+00 0.000000e+00
    outer loop
      vertex   -1.610650e+00 -2.540000e-03 4.484532e+00
      vertex   1.949212e+00 -2.540000e-03 4.348080e+00
      vertex   1.610650e+00 -2.540000e-03 4.484532e+00
    endloop
  endfacet
  facet normal 0.000000e+00 -1.000000e+00 0.000000e+00
    outer loop
      vertex   -1.610650e+00 -2.540000e-03 4.484532e+00
      vertex   1.610650e+00 -2.540000e-03 4.484532e+00
      vertex   -1.262637e+00 -2.540000e-03 4.594668e+00
    endloop
  endfacet
  facet normal 0.000000e+00 -1.000000e+00 0.000000e+00
    outer loop
      vertex   -1.262637e+00 -2.540000e-03 4.594668e+00
      vertex   1.610650e+00 -2.540000e-03 4.484532e+00
      vertex   1.262637e+00 -2.540000e-03 4.594668e+00
    endloop
  endfacet
  facet normal 0.000000e+00 -1.000000e+00 0.000000e+00
    outer loop
      vertex   -1.262637e+00 -2.540000e-03 4.594668e+00
      vertex   1.262637e+00 -2.540000e-03 4.594668e+00
      vertex   -9.072136e-01 -2.540000e-03 4.677840e+00
    endloop
  endfacet
  facet normal 0.000000e+00 -1.000000e+00 0.000000e+00
    outer loop
      vertex   -9.072136e-01 -2.540000e-03 4.677840e+00
      vertex   1.262637e+00 -2.540000e-03 4.594668e+00
      vertex   9.072136e-01 -2.540000e-03 4.677840e+00
    endloop
  endfacet
  facet normal 0.000000e+00 -1.000000e+00 0.000000e+00
    outer loop
      vertex   -9.072136e-01 -2.540000e-03 4.677840e+00
      vertex   9.072136e-01 -2.540000e-03 4.677840e+00
      vertex   -5.464665e-01 -2.540000e-03 4.733561e+00
    endloop
  endfacet
  facet normal 0.000000e+00 -1.000000e+00 0.000000e+00
    outer loop
      vertex   -5.464665e-01 -2.540000e-03 4.733561e+00
      vertex   9.072136e-01 -2.540000e-03 4.677840e+00
      vertex   5.464665e-01 -2.540000e-03 4.733561e+00
    endloop
  endfacet
  facet normal 0.000000e+00 -1.000000e+00 0.000000e+00
    outer loop
      vertex   -5.464665e-01 -2.540000e-03 4.733561e+00
      vertex   5.464665e-01 -2.540000e-03 4.733561e+00
      vertex   -1.825125e-01 -2.540000e-03 4.761503e+00
    endloop
  endfacet
  facet normal 0.000000e+00 -1.000000e+00 0.000000e+00
    outer loop
      vertex   -1.825125e-01 -2.540000e-03 4.761503e+00
      vertex   5.464665e-01 -2.540000e-03 4.733561e+00
      vertex   1.825125e-01 -2.540000e-03 4.761503e+00
    endloop
  endfacet
  facet normal 0.000000e+00 -1.000000e+00 0.000000e+00
    outer loop
      vertex   4.751019e+00 -2.540000e-03 -3.647572e-01
      vertex   -4.751019e+00 -2.540000e-03 -3.647572e-01
      vertex   4.709156e+00 -2.540000e-03 -7.273738e-01
    endloop
  endfacet
  facet normal -0.000000e+00 -1.000000e+00 0.000000e+00
    outer loop
      vertex   4.709156e+00 -2.540000e-03 -7.273738e-01
      vertex   -4.751019e+00 -2.540000e-03 -3.647572e-01
      vertex   -4.709156e+00 -2.540000e-03 -7.273738e-01
    endloop
  endfacet
  facet normal 0.000000e+00 -1.000000e+00 0.000000e+00
    outer loop
      vertex   4.709156e+00 -2.540000e-03 -7.273738e-01
      vertex   -4.709156e+00 -2.540000e-03 -7.273738e-01
      vertex   4.639659e+00 -2.540000e-03 -1.085722e+00
    endloop
  endfacet
  facet normal -0.000000e+00 -1.000000e+00 0.000000e+00
    outer loop
      vertex   4.639659e+00 -2.540000e-03 -1.085722e+00
      vertex   -4.709156e+00 -2.540000e-03 -7.273738e-01
      vertex   -4.639659e+00 -2.540000e-03 -1.085722e+00
    endloop
  endfacet
  facet normal 0.000000e+00 -1.000000e+00 0.000000e+00
    outer loop
      vertex   4.639659e+00 -2.540000e-03 -1.085722e+00
      vertex   -4.639659e+00 -2.540000e-03 -1.085722e+00
      vertex   4.542934e+00 -2.540000e-03 -1.437699e+00
    endloop
  endfacet
  facet normal -0.000000e+00 -1.000000e+00 0.000000e+00
    outer loop
      vertex   4.542934e+00 -2.540000e-03 -1.437699e+00
      vertex   -4.639659e+00 -2.540000e-03 -1.085722e+00
      vertex   -4.542934e+00 -2.540000e-03 -1.437699e+00
    endloop
  endfacet
  facet normal 0.000000e+00 -1.000000e+00 0.000000e+00
    outer loop
      vertex   4.542934e+00 -2.540000e-03 -1.437699e+00
      vertex   -4.542934e+00 -2.540000e-03 -1.437699e+00
      vertex   4.419549e+00 -2.540000e-03 -1.781238e+00
    endloop
  endfacet
  facet normal -0.000000e+00 -1.000000e+00 0.000000e+00
    outer loop
      vertex   4.419549e+00 -2.540000e-03 -1.781238e+00
      vertex   -4.542934e+00 -2.540000e-03 -1.437699e+00
      vertex   -4.419549e+00 -2.540000e-03 -1.781238e+00
    endloop
  endfacet
  facet normal 0.000000e+00 -1.000000e+00 0.000000e+00
    outer loop
      vertex   4.419549e+00 -2.540000e-03 -1.781238e+00
      vertex   -4.419549e+00 -2.540000e-03 -1.781238e+00
      vertex   4.270229e+00 -2.540000e-03 -2.114325e+00
    endloop
  endfacet
  facet normal -0.000000e+00 -1.000000e+00 0.000000e+00
    outer loop
      vertex   4.270229e+00 -2.540000e-03 -2.114325e+00
      vertex   -4.419549e+00 -2.540000e-03 -1.781238e+00
      vertex   -4.270229e+00 -2.540000e-03 -2.114325e+00
    endloop
  endfacet
  facet normal 0.000000e+00 -1.000000e+00 0.000000e+00
    outer loop
      vertex   4.270229e+00 -2.540000e-03 -2.114325e+00
      vertex   -4.270229e+00 -2.540000e-03 -2.114325e+00
      vertex   4.095849e+00 -2.540000e-03 -2.435004e+00
    endloop
  endfacet
  facet normal -0.000000e+00 -1.000000e+00 0.000000e+00
    outer loop
      vertex   4.095849e+00 -2.540000e-03 -2.435004e+00
      vertex   -4.270229e+00 -2.540000e-03 -2.114325e+00
      vertex   -4.095849e+00 -2.540000e-03 -2.435004e+00
    endloop
  endfacet
  facet normal 0.000000e+00 -1.000000e+00 0.000000e+00
    outer loop
      vertex   4.095849e+00 -2.540000e-03 -2.435004e+00
      vertex   -4.095849e+00 -2.540000e-03 -2.435004e+00
      vertex   3.897433e+00 -2.540000e-03 -2.741393e+00
    endloop
  endfacet
  facet normal -0.000000e+00 -1.000000e+00 0.000000e+00
    outer loop
      vertex   3.897433e+00 -2.540000e-03 -2.741393e+00
      vertex   -4.095849e+00 -2.540000e-03 -2.435004e+00
      vertex   -3.897433e+00 -2.540000e-03 -2.741393e+00
    endloop
  endfacet
  facet normal 0.000000e+00 -1.000000e+00 0.000000e+00
    outer loop
      vertex   3.897433e+00 -2.540000e-03 -2.741393e+00
      vertex   -3.897433e+00 -2.540000e-03 -2.741393e+00
      vertex   3.676146e+00 -2.540000e-03 -3.031695e+00
    endloop
  endfacet
  facet normal -0.000000e+00 -1.000000e+00 0.000000e+00
    outer loop
      vertex   3.676146e+00 -2.540000e-03 -3.031695e+00
      vertex   -3.897433e+00 -2.540000e-03 -2.741393e+00
      vertex   -3.676146e+00 -2.540000e-03 -3.031695e+00
    endloop
  endfacet
  facet normal 0.000000e+00 -1.000000e+00 0.000000e+00
    outer loop
      vertex   3.676146e+00 -2.540000e-03 -3.031695e+00
      vertex   -3.676146e+00 -2.540000e-03 -3.031695e+00
      vertex   3.433285e+00 -2.540000e-03 -3.304206e+00
    endloop
  endfacet
  facet normal 0.000000e+00 -1.000000e+00 0.000000e+00
    outer loop
      vertex   3.433285e+00 -2.540000e-03 -3.304206e+00
      vertex   -3.676146e+00 -2.540000e-03 -3.031695e+00
      vertex   -3.433285e+00 -2.540000e-03 -3.304206e+00
    endloop
  endfacet
  facet normal -0.000000e+00 -1.000000e+00 0.000000e+00
    outer loop
      vertex   3.433285e+00 -2.540000e-03 -3.304206e+00
      vertex   -3.433285e+00 -2.540000e-03 -3.304206e+00
      vertex   3.170277e+00 -2.540000e-03 -3.557326e+00
    endloop
  endfacet
  facet normal -0.000000e+00 -1.000000e+00 0.000000e+00
    outer loop
      vertex   3.170277e+00 -2.540000e-03 -3.557326e+00
      vertex   -3.433285e+00 -2.540000e-03 -3.304206e+00
      vertex   -3.170277e+00 -2.540000e-03 -3.557326e+00
    endloop
  endfacet
  facet normal 0.000000e+00 -1.000000e+00 0.000000e+00
    outer loop
      vertex   3.170277e+00 -2.540000e-03 -3.557326e+00
      vertex   -3.170277e+00 -2.540000e-03 -3.557326e+00
      vertex   2.888664e+00 -2.540000e-03 -3.789571e+00
    endloop
  endfacet
  facet normal -0.000000e+00 -1.000000e+00 0.000000e+00
    outer loop
      vertex   2.888664e+00 -2.540000e-03 -3.789571e+00
      vertex   -3.170277e+00 -2.540000e-03 -3.557326e+00
      vertex   -2.888664e+00 -2.540000e-03 -3.789571e+00
    endloop
  endfacet
  facet normal 0.000000e+00 -1.000000e+00 0.000000e+00
    outer loop
      vertex   2.888664e+00 -2.540000e-03 -3.789571e+00
      vertex   -2.888664e+00 -2.540000e-03 -3.789571e+00
      vertex   2.590099e+00 -2.540000e-03 -3.999576e+00
    endloop
  endfacet
  facet normal -0.000000e+00 -1.000000e+00 0.000000e+00
    outer loop
      vertex   2.590099e+00 -2.540000e-03 -3.999576e+00
      vertex   -2.888664e+00 -2.540000e-03 -3.789571e+00
      vertex   -2.590099e+00 -2.540000e-03 -3.999576e+00
    endloop
  endfacet
  facet normal 0.000000e+00 -1.000000e+00 0.000000e+00
    outer loop
      vertex   2.590099e+00 -2.540000e-03 -3.999576e+00
      vertex   -2.590099e+00 -2.540000e-03 -3.999576e+00
      vertex   2.276335e+00 -2.540000e-03 -4.186111e+00
    endloop
  endfacet
  facet normal -0.000000e+00 -1.000000e+00 0.000000e+00
    outer loop
      vertex   2.276335e+00 -2.540000e-03 -4.186111e+00
      vertex   -2.590099e+00 -2.540000e-03 -3.999576e+00
      vertex   -2.276335e+00 -2.540000e-03 -4.186111e+00
    endloop
  endfacet
  facet normal 0.000000e+00 -1.000000e+00 0.000000e+00
    outer loop
      vertex   2.276335e+00 -2.540000e-03 -4.186111e+00
      vertex   -2.276335e+00 -2.540000e-03 -4.186111e+00
      vertex   1.949212e+00 -2.540000e-03 -4.348080e+00
    endloop
  endfacet
  facet normal -0.000000e+00 -1.000000e+00 0.000000e+00
    outer loop
      vertex   1.949212e+00 -2.540000e-03 -4.348080e+00
      vertex   -2.276335e+00 -2.540000e-03 -4.186111e+00
      vertex   -1.949212e+00 -2.540000e-03 -4.348080e+00
    endloop
  endfacet
  facet normal 0.000000e+00 -1.000000e+00 0.000000e+00
    outer loop
      vertex   1.949212e+00 -2.540000e-03 -4.348080e+00
      vertex   -1.949212e+00 -2.540000e-03 -4.348080e+00
      vertex   1.610650e+00 -2.540000e-03 -4.484532e+00
    endloop
  endfacet
  facet normal -0.000000e+00 -1.000000e+00 0.000000e+00
    outer loop
      vertex   1.610650e+00 -2.540000e-03 -4.484532e+00
      vertex   -1.949212e+00 -2.540000e-03 -4.348080e+00
      vertex   -1.610650e+00 -2.540000e-03 -4.484532e+00
    endloop
  endfacet
  facet normal 0.000000e+00 -1.000000e+00 0.000000e+00
    outer loop
      vertex   1.610650e+00 -2.540000e-03 -4.484532e+00
      vertex   -1.610650e+00 -2.540000e-03 -4.484532e+00
      vertex   1.262637e+00 -2.540000e-03 -4.594668e+00
    endloop
  endfacet
  facet normal -0.000000e+00 -1.000000e+00 0.000000e+00
    outer loop
      vertex   1.262637e+00 -2.540000e-03 -4.594668e+00
      vertex   -1.610650e+00 -2.540000e-03 -4.484532e+00
      vertex   -1.262637e+00 -2.540000e-03 -4.594668e+00
    endloop
  endfacet
  facet normal 0.000000e+00 -1.000000e+00 0.000000e+00
    outer loop
      vertex   1.262637e+00 -2.540000e-03 -4.594668e+00
      vertex   -1.262637e+00 -2.540000e-03 -4.594668e+00
      vertex   9.072136e-01 -2.540000e-03 -4.677840e+00
    endloop
  endfacet
  facet normal 0.000000e+00 -1.000000e+00 0.000000e+00
    outer loop
      vertex   9.072136e-01 -2.540000e-03 -4.677840e+00
      vertex   -1.262637e+00 -2.540000e-03 -4.594668e+00
      vertex   -9.072136e-01 -2.540000e-03 -4.677840e+00
    endloop
  endfacet
  facet normal -0.000000e+00 -1.000000e+00 0.000000e+00
    outer loop
      vertex   9.072136e-01 -2.540000e-03 -4.677840e+00
      vertex   -9.072136e-01 -2.540000e-03 -4.677840e+00
      vertex   5.464665e-01 -2.540000e-03 -4.733561e+00
    endloop
  endfacet
  facet normal -0.000000e+00 -1.000000e+00 0.000000e+00
    outer loop
      vertex   5.464665e-01 -2.540000e-03 -4.733561e+00
      vertex   -9.072136e-01 -2.540000e-03 -4.677840e+00
      vertex   -5.464665e-01 -2.540000e-03 -4.733561e+00
    endloop
  endfacet
  facet normal 0.000000e+00 -1.000000e+00 0.000000e+00
    outer loop
      vertex   5.464665e-01 -2.540000e-03 -4.733561e+00
      vertex   -5.464665e-01 -2.540000e-03 -4.733561e+00
      vertex   1.825125e-01 -2.540000e-03 -4.761503e+00
    endloop
  endfacet
  facet normal 0.000000e+00 -1.000000e+00 0.000000e+00
    outer loop
      vertex   1.825125e-01 -2.540000e-03 -4.761503e+00
      vertex   -5.464665e-01 -2.540000e-03 -4.733561e+00
      vertex   -1.825125e-01 -2.540000e-03 -4.761503e+00
    endloop
  endfacet
  facet normal -9.992662e-01 2.322308e-16 3.830273e-02
    outer loop
      vertex   -4.751019e+00 -2.540000e-03 3.647572e-01
      vertex   -4.765000e+00 2.540000e-03 5.835442e-16
      vertex   -4.765000e+00 -2.540000e-03 5.835442e-16
    endloop
  endfacet
  facet normal -9.992662e-01 0.000000e+00 -3.830273e-02
    outer loop
      vertex   -4.765000e+00 -2.540000e-03 5.835442e-16
      vertex   -4.765000e+00 2.540000e-03 5.835442e-16
      vertex   -4.751019e+00 2.540000e-03 -3.647572e-01
    endloop
  endfacet
  facet normal -9.992662e-01 3.172170e-14 -3.830273e-02
    outer loop
      vertex   -4.765000e+00 -2.540000e-03 5.835442e-16
      vertex   -4.751019e+00 2.540000e-03 -3.647572e-01
      vertex   -4.751019e+00 -2.540000e-03 -3.647572e-01
    endloop
  endfacet
  facet normal -9.934021e-01 9.524250e-14 -1.146834e-01
    outer loop
      vertex   -4.751019e+00 -2.540000e-03 -3.647572e-01
      vertex   -4.751019e+00 2.540000e-03 -3.647572e-01
      vertex   -4.709156e+00 2.540000e-03 -7.273738e-01
    endloop
  endfacet
  facet normal -9.934021e-01 -1.256479e-13 -1.146834e-01
    outer loop
      vertex   -4.751019e+00 -2.540000e-03 -3.647572e-01
      vertex   -4.709156e+00 2.540000e-03 -7.273738e-01
      vertex   -4.709156e+00 -2.540000e-03 -7.273738e-01
    endloop
  endfacet
  facet normal -9.817083e-01 -9.258201e-14 -1.903911e-01
    outer loop
      vertex   -4.709156e+00 -2.540000e-03 -7.273738e-01
      vertex   -4.709156e+00 2.540000e-03 -7.273738e-01
      vertex   -4.639659e+00 2.540000e-03 -1.085722e+00
    endloop
  endfacet
  facet normal -9.817083e-01 8.395020e-14 -1.903911e-01
    outer loop
      vertex   -4.709156e+00 -2.540000e-03 -7.273738e-01
      vertex   -4.639659e+00 2.540000e-03 -1.085722e+00
      vertex   -4.639659e+00 -2.540000e-03 -1.085722e+00
    endloop
  endfacet
  facet normal -9.642535e-01 1.158223e-13 -2.649815e-01
    outer loop
      vertex   -4.639659e+00 -2.540000e-03 -1.085722e+00
      vertex   -4.639659e+00 2.540000e-03 -1.085722e+00
      vertex   -4.542934e+00 2.540000e-03 -1.437699e+00
    endloop
  endfacet
  facet normal -9.642535e-01 -1.804187e-15 -2.649815e-01
    outer loop
      vertex   -4.639659e+00 -2.540000e-03 -1.085722e+00
      vertex   -4.542934e+00 2.540000e-03 -1.437699e+00
      vertex   -4.542934e+00 -2.540000e-03 -1.437699e+00
    endloop
  endfacet
  facet normal -9.411400e-01 0.000000e+00 -3.380169e-01
    outer loop
      vertex   -4.542934e+00 -2.540000e-03 -1.437699e+00
      vertex   -4.542934e+00 2.540000e-03 -1.437699e+00
      vertex   -4.419549e+00 2.540000e-03 -1.781238e+00
    endloop
  endfacet
  facet normal -9.411400e-01 -9.343284e-14 -3.380169e-01
    outer loop
      vertex   -4.542934e+00 -2.540000e-03 -1.437699e+00
      vertex   -4.419549e+00 2.540000e-03 -1.781238e+00
      vertex   -4.419549e+00 -2.540000e-03 -1.781238e+00
    endloop
  endfacet
  facet normal -9.125036e-01 -3.299770e-14 -4.090686e-01
    outer loop
      vertex   -4.419549e+00 -2.540000e-03 -1.781238e+00
      vertex   -4.419549e+00 2.540000e-03 -1.781238e+00
      vertex   -4.270229e+00 2.540000e-03 -2.114325e+00
    endloop
  endfacet
  facet normal -9.125036e-01 -1.555695e-13 -4.090686e-01
    outer loop
      vertex   -4.419549e+00 -2.540000e-03 -1.781238e+00
      vertex   -4.270229e+00 2.540000e-03 -2.114325e+00
      vertex   -4.270229e+00 -2.540000e-03 -2.114325e+00
    endloop
  endfacet
  facet normal -8.785123e-01 -8.493601e-14 -4.777198e-01
    outer loop
      vertex   -4.270229e+00 -2.540000e-03 -2.114325e+00
      vertex   -4.270229e+00 2.540000e-03 -2.114325e+00
      vertex   -4.095849e+00 2.540000e-03 -2.435004e+00
    endloop
  endfacet
  facet normal -8.785123e-01 2.710679e-14 -4.777198e-01
    outer loop
      vertex   -4.270229e+00 -2.540000e-03 -2.114325e+00
      vertex   -4.095849e+00 2.540000e-03 -2.435004e+00
      vertex   -4.095849e+00 -2.540000e-03 -2.435004e+00
    endloop
  endfacet
  facet normal -8.393654e-01 8.663924e-14 -5.435676e-01
    outer loop
      vertex   -4.095849e+00 -2.540000e-03 -2.435004e+00
      vertex   -4.095849e+00 2.540000e-03 -2.435004e+00
      vertex   -3.897433e+00 2.540000e-03 -2.741393e+00
    endloop
  endfacet
  facet normal -8.393654e-01 8.942138e-14 -5.435676e-01
    outer loop
      vertex   -4.095849e+00 -2.540000e-03 -2.435004e+00
      vertex   -3.897433e+00 2.540000e-03 -2.741393e+00
      vertex   -3.897433e+00 -2.540000e-03 -2.741393e+00
    endloop
  endfacet
  facet normal -7.952929e-01 1.259309e-13 -6.062254e-01
    outer loop
      vertex   -3.897433e+00 -2.540000e-03 -2.741393e+00
      vertex   -3.897433e+00 2.540000e-03 -2.741393e+00
      vertex   -3.676146e+00 2.540000e-03 -3.031695e+00
    endloop
  endfacet
  facet normal -7.952929e-01 -3.166221e-15 -6.062254e-01
    outer loop
      vertex   -3.897433e+00 -2.540000e-03 -2.741393e+00
      vertex   -3.676146e+00 2.540000e-03 -3.031695e+00
      vertex   -3.676146e+00 -2.540000e-03 -3.031695e+00
    endloop
  endfacet
  facet normal -7.465532e-01 0.000000e+00 -6.653257e-01
    outer loop
      vertex   -3.676146e+00 -2.540000e-03 -3.031695e+00
      vertex   -3.676146e+00 2.540000e-03 -3.031695e+00
      vertex   -3.433285e+00 2.540000e-03 -3.304206e+00
    endloop
  endfacet
  facet normal -7.465532e-01 -3.694108e-15 -6.653257e-01
    outer loop
      vertex   -3.676146e+00 -2.540000e-03 -3.031695e+00
      vertex   -3.433285e+00 2.540000e-03 -3.304206e+00
      vertex   -3.433285e+00 -2.540000e-03 -3.304206e+00
    endloop
  endfacet
  facet normal -6.934325e-01 0.000000e+00 -7.205216e-01
    outer loop
      vertex   -3.433285e+00 -2.540000e-03 -3.304206e+00
      vertex   -3.433285e+00 2.540000e-03 -3.304206e+00
      vertex   -3.170277e+00 2.540000e-03 -3.557326e+00
    endloop
  endfacet
  facet normal -6.934325e-01 -4.203185e-14 -7.205216e-01
    outer loop
      vertex   -3.433285e+00 -2.540000e-03 -3.304206e+00
      vertex   -3.170277e+00 2.540000e-03 -3.557326e+00
      vertex   -3.170277e+00 -2.540000e-03 -3.557326e+00
    endloop
  endfacet
  facet normal -6.362424e-01 2.714231e-14 -7.714892e-01
    outer loop
      vertex   -3.170277e+00 -2.540000e-03 -3.557326e+00
      vertex   -3.170277e+00 2.540000e-03 -3.557326e+00
      vertex   -2.888664e+00 2.540000e-03 -3.789571e+00
    endloop
  endfacet
  facet normal -6.362424e-01 -1.044768e-13 -7.714892e-01
    outer loop
      vertex   -3.170277e+00 -2.540000e-03 -3.557326e+00
      vertex   -2.888664e+00 2.540000e-03 -3.789571e+00
      vertex   -2.888664e+00 -2.540000e-03 -3.789571e+00
    endloop
  endfacet
  facet normal -5.753187e-01 -4.483749e-14 -8.179294e-01
    outer loop
      vertex   -2.888664e+00 -2.540000e-03 -3.789571e+00
      vertex   -2.888664e+00 2.540000e-03 -3.789571e+00
      vertex   -2.590099e+00 2.540000e-03 -3.999576e+00
    endloop
  endfacet
  facet normal -5.753187e-01 3.708060e-14 -8.179294e-01
    outer loop
      vertex   -2.888664e+00 -2.540000e-03 -3.789571e+00
      vertex   -2.590099e+00 2.540000e-03 -3.999576e+00
      vertex   -2.590099e+00 -2.540000e-03 -3.999576e+00
    endloop
  endfacet
  facet normal -5.110187e-01 7.720727e-14 -8.595696e-01
    outer loop
      vertex   -2.590099e+00 -2.540000e-03 -3.999576e+00
      vertex   -2.590099e+00 2.540000e-03 -3.999576e+00
      vertex   -2.276335e+00 2.540000e-03 -4.186111e+00
    endloop
  endfacet
  facet normal -5.110187e-01 -2.746158e-14 -8.595696e-01
    outer loop
      vertex   -2.590099e+00 -2.540000e-03 -3.999576e+00
      vertex   -2.276335e+00 2.540000e-03 -4.186111e+00
      vertex   -2.276335e+00 -2.540000e-03 -4.186111e+00
    endloop
  endfacet
  facet normal -4.437198e-01 1.525618e-15 -8.961656e-01
    outer loop
      vertex   -2.276335e+00 -2.540000e-03 -4.186111e+00
      vertex   -2.276335e+00 2.540000e-03 -4.186111e+00
      vertex   -1.949212e+00 2.540000e-03 -4.348080e+00
    endloop
  endfacet
  facet normal -4.437198e-01 6.021951e-14 -8.961656e-01
    outer loop
      vertex   -2.276335e+00 -2.540000e-03 -4.186111e+00
      vertex   -1.949212e+00 2.540000e-03 -4.348080e+00
      vertex   -1.949212e+00 -2.540000e-03 -4.348080e+00
    endloop
  endfacet
  facet normal -3.738171e-01 8.046601e-14 -9.275025e-01
    outer loop
      vertex   -1.949212e+00 -2.540000e-03 -4.348080e+00
      vertex   -1.949212e+00 2.540000e-03 -4.348080e+00
      vertex   -1.610650e+00 2.540000e-03 -4.484532e+00
    endloop
  endfacet
  facet normal -3.738171e-01 -1.475783e-13 -9.275025e-01
    outer loop
      vertex   -1.949212e+00 -2.540000e-03 -4.348080e+00
      vertex   -1.610650e+00 2.540000e-03 -4.484532e+00
      vertex   -1.610650e+00 -2.540000e-03 -4.484532e+00
    endloop
  endfacet
  facet normal -3.017206e-01 -8.388329e-14 -9.533964e-01
    outer loop
      vertex   -1.610650e+00 -2.540000e-03 -4.484532e+00
      vertex   -1.610650e+00 2.540000e-03 -4.484532e+00
      vertex   -1.262637e+00 2.540000e-03 -4.594668e+00
    endloop
  endfacet
  facet normal -3.017206e-01 -3.007729e-14 -9.533964e-01
    outer loop
      vertex   -1.610650e+00 -2.540000e-03 -4.484532e+00
      vertex   -1.262637e+00 2.540000e-03 -4.594668e+00
      vertex   -1.262637e+00 -2.540000e-03 -4.594668e+00
    endloop
  endfacet
  facet normal -2.278535e-01 2.084855e-14 -9.736954e-01
    outer loop
      vertex   -1.262637e+00 -2.540000e-03 -4.594668e+00
      vertex   -1.262637e+00 2.540000e-03 -4.594668e+00
      vertex   -9.072136e-01 2.540000e-03 -4.677840e+00
    endloop
  endfacet
  facet normal -2.278535e-01 7.639081e-14 -9.736954e-01
    outer loop
      vertex   -1.262637e+00 -2.540000e-03 -4.594668e+00
      vertex   -9.072136e-01 2.540000e-03 -4.677840e+00
      vertex   -9.072136e-01 -2.540000e-03 -4.677840e+00
    endloop
  endfacet
  facet normal -1.526493e-01 1.094030e-13 -9.882804e-01
    outer loop
      vertex   -9.072136e-01 -2.540000e-03 -4.677840e+00
      vertex   -9.072136e-01 2.540000e-03 -4.677840e+00
      vertex   -5.464665e-01 2.540000e-03 -4.733561e+00
    endloop
  endfacet
  facet normal -1.526493e-01 1.092857e-13 -9.882804e-01
    outer loop
      vertex   -9.072136e-01 -2.540000e-03 -4.677840e+00
      vertex   -5.464665e-01 2.540000e-03 -4.733561e+00
      vertex   -5.464665e-01 -2.540000e-03 -4.733561e+00
    endloop
  endfacet
  facet normal -7.654925e-02 1.425389e-13 -9.970658e-01
    outer loop
      vertex   -5.464665e-01 -2.540000e-03 -4.733561e+00
      vertex   -5.464665e-01 2.540000e-03 -4.733561e+00
      vertex   -1.825125e-01 2.540000e-03 -4.761503e+00
    endloop
  endfacet
  facet normal -7.654925e-02 -1.557964e-14 -9.970658e-01
    outer loop
      vertex   -5.464665e-01 -2.540000e-03 -4.733561e+00
      vertex   -1.825125e-01 2.540000e-03 -4.761503e+00
      vertex   -1.825125e-01 -2.540000e-03 -4.761503e+00
    endloop
  endfacet
  facet normal 0.000000e+00 0.000000e+00 -1.000000e+00
    outer loop
      vertex   -1.825125e-01 -2.540000e-03 -4.761503e+00
      vertex   -1.825125e-01 2.540000e-03 -4.761503e+00
      vertex   1.825125e-01 2.540000e-03 -4.761503e+00
    endloop
  endfacet
  facet normal 0.000000e+00 0.000000e+00 -1.000000e+00
    outer loop
      vertex   -1.825125e-01 -2.540000e-03 -4.761503e+00
      vertex   1.825125e-01 2.540000e-03 -4.761503e+00
      vertex   1.825125e-01 -2.540000e-03 -4.761503e+00
    endloop
  endfacet
  facet normal 7.654925e-02 6.357276e-14 -9.970658e-01
    outer loop
      vertex   1.825125e-01 -2.540000e-03 -4.761503e+00
      vertex   1.825125e-01 2.540000e-03 -4.761503e+00
      vertex   5.464665e-01 2.540000e-03 -4.733561e+00
    endloop
  endfacet
  facet normal 7.654925e-02 -1.107232e-13 -9.970658e-01
    outer loop
      vertex   1.825125e-01 -2.540000e-03 -4.761503e+00
      vertex   5.464665e-01 2.540000e-03 -4.733561e+00
      vertex   5.464665e-01 -2.540000e-03 -4.733561e+00
    endloop
  endfacet
  facet normal 1.526493e-01 -4.601679e-14 -9.882804e-01
    outer loop
      vertex   5.464665e-01 -2.540000e-03 -4.733561e+00
      vertex   5.464665e-01 2.540000e-03 -4.733561e+00
      vertex   9.072136e-01 2.540000e-03 -4.677840e+00
    endloop
  endfacet
  facet normal 1.526493e-01 9.415845e-14 -9.882804e-01
    outer loop
      vertex   5.464665e-01 -2.540000e-03 -4.733561e+00
      vertex   9.072136e-01 2.540000e-03 -4.677840e+00
      vertex   9.072136e-01 -2.540000e-03 -4.677840e+00
    endloop
  endfacet
  facet normal 2.278535e-01 1.394313e-13 -9.736954e-01
    outer loop
      vertex   9.072136e-01 -2.540000e-03 -4.677840e+00
      vertex   9.072136e-01 2.540000e-03 -4.677840e+00
      vertex   1.262637e+00 2.540000e-03 -4.594668e+00
    endloop
  endfacet
  facet normal 2.278535e-01 -8.015461e-14 -9.736954e-01
    outer loop
      vertex   9.072136e-01 -2.540000e-03 -4.677840e+00
      vertex   1.262637e+00 2.540000e-03 -4.594668e+00
      vertex   1.262637e+00 -2.540000e-03 -4.594668e+00
    endloop
  endfacet
  facet normal 3.017206e-01 -4.799748e-14 -9.533964e-01
    outer loop
      vertex   1.262637e+00 -2.540000e-03 -4.594668e+00
      vertex   1.262637e+00 2.540000e-03 -4.594668e+00
      vertex   1.610650e+00 2.540000e-03 -4.484532e+00
    endloop
  endfacet
  facet normal 3.017206e-01 -1.008927e-13 -9.533964e-01
    outer loop
      vertex   1.262637e+00 -2.540000e-03 -4.594668e+00
      vertex   1.610650e+00 2.540000e-03 -4.484532e+00
      vertex   1.610650e+00 -2.540000e-03 -4.484532e+00
    endloop
  endfacet
  facet normal 3.738171e-01 -8.046601e-14 -9.275025e-01
    outer loop
      vertex   1.610650e+00 -2.540000e-03 -4.484532e+00
      vertex   1.610650e+00 2.540000e-03 -4.484532e+00
      vertex   1.949212e+00 2.540000e-03 -4.348080e+00
    endloop
  endfacet
  facet normal 3.738171e-01 -1.458465e-14 -9.275025e-01
    outer loop
      vertex   1.610650e+00 -2.540000e-03 -4.484532e+00
      vertex   1.949212e+00 2.540000e-03 -4.348080e+00
      vertex   1.949212e+00 -2.540000e-03 -4.348080e+00
    endloop
  endfacet
  facet normal 4.437198e-01 5.513317e-14 -8.961656e-01
    outer loop
      vertex   1.949212e+00 -2.540000e-03 -4.348080e+00
      vertex   1.949212e+00 2.540000e-03 -4.348080e+00
      vertex   2.276335e+00 2.540000e-03 -4.186111e+00
    endloop
  endfacet
  facet normal 4.437198e-01 -1.594039e-13 -8.961656e-01
    outer loop
      vertex   1.949212e+00 -2.540000e-03 -4.348080e+00
      vertex   2.276335e+00 2.540000e-03 -4.186111e+00
      vertex   2.276335e+00 -2.540000e-03 -4.186111e+00
    endloop
  endfacet
  facet normal 5.110187e-01 -9.347450e-14 -8.595696e-01
    outer loop
      vertex   2.276335e+00 -2.540000e-03 -4.186111e+00
      vertex   2.276335e+00 2.540000e-03 -4.186111e+00
      vertex   2.590099e+00 2.540000e-03 -3.999576e+00
    endloop
  endfacet
  facet normal 5.110187e-01 -1.835088e-14 -8.595696e-01
    outer loop
      vertex   2.276335e+00 -2.540000e-03 -4.186111e+00
      vertex   2.590099e+00 2.540000e-03 -3.999576e+00
      vertex   2.590099e+00 -2.540000e-03 -3.999576e+00
    endloop
  endfacet
  facet normal 5.753187e-01 4.483749e-14 -8.179294e-01
    outer loop
      vertex   2.590099e+00 -2.540000e-03 -3.999576e+00
      vertex   2.590099e+00 2.540000e-03 -3.999576e+00
      vertex   2.888664e+00 2.540000e-03 -3.789571e+00
    endloop
  endfacet
  facet normal 5.753187e-01 -8.407876e-14 -8.179294e-01
    outer loop
      vertex   2.590099e+00 -2.540000e-03 -3.999576e+00
      vertex   2.888664e+00 2.540000e-03 -3.789571e+00
      vertex   2.888664e+00 -2.540000e-03 -3.789571e+00
    endloop
  endfacet
  facet normal 6.362424e-01 -4.729261e-14 -7.714892e-01
    outer loop
      vertex   2.888664e+00 -2.540000e-03 -3.789571e+00
      vertex   2.888664e+00 2.540000e-03 -3.789571e+00
      vertex   3.170277e+00 2.540000e-03 -3.557326e+00
    endloop
  endfacet
  facet normal 6.362424e-01 9.070307e-14 -7.714892e-01
    outer loop
      vertex   2.888664e+00 -2.540000e-03 -3.789571e+00
      vertex   3.170277e+00 2.540000e-03 -3.557326e+00
      vertex   3.170277e+00 -2.540000e-03 -3.557326e+00
    endloop
  endfacet
  facet normal 6.934325e-01 1.165023e-13 -7.205216e-01
    outer loop
      vertex   3.170277e+00 -2.540000e-03 -3.557326e+00
      vertex   3.170277e+00 2.540000e-03 -3.557326e+00
      vertex   3.433285e+00 2.540000e-03 -3.304206e+00
    endloop
  endfacet
  facet normal 6.934325e-01 1.133768e-13 -7.205216e-01
    outer loop
      vertex   3.170277e+00 -2.540000e-03 -3.557326e+00
      vertex   3.433285e+00 2.540000e-03 -3.304206e+00
      vertex   3.433285e+00 -2.540000e-03 -3.304206e+00
    endloop
  endfacet
  facet normal 7.465532e-01 1.447278e-13 -6.653257e-01
    outer loop
      vertex   3.433285e+00 -2.540000e-03 -3.304206e+00
      vertex   3.433285e+00 2.540000e-03 -3.304206e+00
      vertex   3.676146e+00 2.540000e-03 -3.031695e+00
    endloop
  endfacet
  facet normal 7.465532e-01 2.956574e-14 -6.653257e-01
    outer loop
      vertex   3.433285e+00 -2.540000e-03 -3.304206e+00
      vertex   3.676146e+00 2.540000e-03 -3.031695e+00
      vertex   3.676146e+00 -2.540000e-03 -3.031695e+00
    endloop
  endfacet
  facet normal 7.952929e-01 6.611246e-14 -6.062254e-01
    outer loop
      vertex   3.676146e+00 -2.540000e-03 -3.031695e+00
      vertex   3.676146e+00 2.540000e-03 -3.031695e+00
      vertex   3.897433e+00 2.540000e-03 -2.741393e+00
    endloop
  endfacet
  facet normal 7.952929e-01 -1.318088e-13 -6.062254e-01
    outer loop
      vertex   3.676146e+00 -2.540000e-03 -3.031695e+00
      vertex   3.897433e+00 2.540000e-03 -2.741393e+00
      vertex   3.897433e+00 -2.540000e-03 -2.741393e+00
    endloop
  endfacet
  facet normal 8.393654e-01 -6.078085e-14 -5.435676e-01
    outer loop
      vertex   3.897433e+00 -2.540000e-03 -2.741393e+00
      vertex   3.897433e+00 2.540000e-03 -2.741393e+00
      vertex   4.095849e+00 2.540000e-03 -2.435004e+00
    endloop
  endfacet
  facet normal 8.393654e-01 -9.203558e-14 -5.435676e-01
    outer loop
      vertex   3.897433e+00 -2.540000e-03 -2.741393e+00
      vertex   4.095849e+00 2.540000e-03 -2.435004e+00
      vertex   4.095849e+00 -2.540000e-03 -2.435004e+00
    endloop
  endfacet
  facet normal 8.785123e-01 -5.521170e-14 -4.777198e-01
    outer loop
      vertex   4.095849e+00 -2.540000e-03 -2.435004e+00
      vertex   4.095849e+00 2.540000e-03 -2.435004e+00
      vertex   4.270229e+00 2.540000e-03 -2.114325e+00
    endloop
  endfacet
  facet normal 8.785123e-01 -1.669034e-13 -4.777198e-01
    outer loop
      vertex   4.095849e+00 -2.540000e-03 -2.435004e+00
      vertex   4.270229e+00 2.540000e-03 -2.114325e+00
      vertex   4.270229e+00 -2.540000e-03 -2.114325e+00
    endloop
  endfacet
  facet normal 9.125036e-01 -1.430417e-13 -4.090686e-01
    outer loop
      vertex   4.270229e+00 -2.540000e-03 -2.114325e+00
      vertex   4.270229e+00 2.540000e-03 -2.114325e+00
      vertex   4.419549e+00 2.540000e-03 -1.781238e+00
    endloop
  endfacet
  facet normal 9.125036e-01 -1.864493e-14 -4.090686e-01
    outer loop
      vertex   4.270229e+00 -2.540000e-03 -2.114325e+00
      vertex   4.419549e+00 2.540000e-03 -1.781238e+00
      vertex   4.419549e+00 -2.540000e-03 -1.781238e+00
    endloop
  endfacet
  facet normal 9.411400e-01 1.680158e-14 -3.380169e-01
    outer loop
      vertex   4.419549e+00 -2.540000e-03 -1.781238e+00
      vertex   4.419549e+00 2.540000e-03 -1.781238e+00
      vertex   4.542934e+00 2.540000e-03 -1.437699e+00
    endloop
  endfacet
  facet normal 9.411400e-01 1.723881e-14 -3.380169e-01
    outer loop
      vertex   4.419549e+00 -2.540000e-03 -1.781238e+00
      vertex   4.542934e+00 2.540000e-03 -1.437699e+00
      vertex   4.542934e+00 -2.540000e-03 -1.437699e+00
    endloop
  endfacet
  facet normal 9.642535e-01 5.276614e-14 -2.649815e-01
    outer loop
      vertex   4.542934e+00 -2.540000e-03 -1.437699e+00
      vertex   4.542934e+00 2.540000e-03 -1.437699e+00
      vertex   4.639659e+00 2.540000e-03 -1.085722e+00
    endloop
  endfacet
  facet normal 9.642535e-01 -2.074103e-13 -2.649815e-01
    outer loop
      vertex   4.542934e+00 -2.540000e-03 -1.437699e+00
      vertex   4.639659e+00 2.540000e-03 -1.085722e+00
      vertex   4.639659e+00 -2.540000e-03 -1.085722e+00
    endloop
  endfacet
  facet normal 9.817083e-01 -1.497944e-13 -1.903911e-01
    outer loop
      vertex   4.639659e+00 -2.540000e-03 -1.085722e+00
      vertex   4.639659e+00 2.540000e-03 -1.085722e+00
      vertex   4.709156e+00 2.540000e-03 -7.273738e-01
    endloop
  endfacet
  facet normal 9.817083e-01 -8.358844e-14 -1.903911e-01
    outer loop
      vertex   4.639659e+00 -2.540000e-03 -1.085722e+00
      vertex   4.709156e+00 2.540000e-03 -7.273738e-01
      vertex   4.709156e+00 -2.540000e-03 -7.273738e-01
    endloop
  endfacet
  facet normal 9.934021e-01 -5.012763e-14 -1.146834e-01
    outer loop
      vertex   4.709156e+00 -2.540000e-03 -7.273738e-01
      vertex   4.709156e+00 2.540000e-03 -7.273738e-01
      vertex   4.751019e+00 2.540000e-03 -3.647572e-01
    endloop
  endfacet
  facet normal 9.934021e-01 -4.784416e-14 -1.146834e-01
    outer loop
      vertex   4.709156e+00 -2.540000e-03 -7.273738e-01
      vertex   4.751019e+00 2.540000e-03 -3.647572e-01
      vertex   4.751019e+00 -2.540000e-03 -3.647572e-01
    endloop
  endfacet
  facet normal 9.992662e-01 -1.590486e-14 -3.830273e-02
    outer loop
      vertex   4.751019e+00 -2.540000e-03 -3.647572e-01
      vertex   4.751019e+00 2.540000e-03 -3.647572e-01
      vertex   4.765000e+00 2.540000e-03 -2.116085e-15
    endloop
  endfacet
  facet normal 9.992662e-01 -3.162398e-14 -3.830273e-02
    outer loop
      vertex   4.751019e+00 -2.540000e-03 -3.647572e-01
      vertex   4.765000e+00 2.540000e-03 -2.116085e-15
      vertex   4.765000e+00 -2.540000e-03 2.116085e-15
    endloop
  endfacet
  facet normal 9.992662e-01 3.191017e-14 3.830273e-02
    outer loop
      vertex   4.765000e+00 -2.540000e-03 2.116085e-15
      vertex   4.765000e+00 2.540000e-03 -2.116085e-15
      vertex   4.751019e+00 2.540000e-03 3.647572e-01
    endloop
  endfacet
  facet normal 9.992662e-01 1.572047e-14 3.830273e-02
    outer loop
      vertex   4.765000e+00 -2.540000e-03 2.116085e-15
      vertex   4.751019e+00 2.540000e-03 3.647572e-01
      vertex   4.751019e+00 -2.540000e-03 3.647572e-01
    endloop
  endfacet
  facet normal 9.934021e-01 4.762125e-14 1.146834e-01
    outer loop
      vertex   4.751019e+00 -2.540000e-03 3.647572e-01
      vertex   4.751019e+00 2.540000e-03 3.647572e-01
      vertex   4.709156e+00 2.540000e-03 7.273738e-01
    endloop
  endfacet
  facet normal 9.934021e-01 4.971516e-14 1.146834e-01
    outer loop
      vertex   4.751019e+00 -2.540000e-03 3.647572e-01
      vertex   4.709156e+00 2.540000e-03 7.273738e-01
      vertex   4.709156e+00 -2.540000e-03 7.273738e-01
    endloop
  endfacet
  facet normal 9.817083e-01 8.321913e-14 1.903911e-01
    outer loop
      vertex   4.709156e+00 -2.540000e-03 7.273738e-01
      vertex   4.709156e+00 2.540000e-03 7.273738e-01
      vertex   4.639659e+00 2.540000e-03 1.085722e+00
    endloop
  endfacet
  facet normal 9.817083e-01 1.490735e-13 1.903911e-01
    outer loop
      vertex   4.709156e+00 -2.540000e-03 7.273738e-01
      vertex   4.639659e+00 2.540000e-03 1.085722e+00
      vertex   4.639659e+00 -2.540000e-03 1.085722e+00
    endloop
  endfacet
  facet normal 9.642535e-01 2.084801e-13 2.649815e-01
    outer loop
      vertex   4.639659e+00 -2.540000e-03 1.085722e+00
      vertex   4.639659e+00 2.540000e-03 1.085722e+00
      vertex   4.542934e+00 2.540000e-03 1.437699e+00
    endloop
  endfacet
  facet normal 9.642535e-01 -5.098617e-14 2.649815e-01
    outer loop
      vertex   4.639659e+00 -2.540000e-03 1.085722e+00
      vertex   4.542934e+00 2.540000e-03 1.437699e+00
      vertex   4.542934e+00 -2.540000e-03 1.437699e+00
    endloop
  endfacet
  facet normal 9.411400e-01 -1.680158e-14 3.380169e-01
    outer loop
      vertex   4.542934e+00 -2.540000e-03 1.437699e+00
      vertex   4.542934e+00 2.540000e-03 1.437699e+00
      vertex   4.419549e+00 2.540000e-03 1.781238e+00
    endloop
  endfacet
  facet normal 9.411400e-01 -1.723881e-14 3.380169e-01
    outer loop
      vertex   4.542934e+00 -2.540000e-03 1.437699e+00
      vertex   4.419549e+00 2.540000e-03 1.781238e+00
      vertex   4.419549e+00 -2.540000e-03 1.781238e+00
    endloop
  endfacet
  facet normal 9.125036e-01 1.926158e-14 4.090686e-01
    outer loop
      vertex   4.419549e+00 -2.540000e-03 1.781238e+00
      vertex   4.419549e+00 2.540000e-03 1.781238e+00
      vertex   4.270229e+00 2.540000e-03 2.114325e+00
    endloop
  endfacet
  facet normal 9.125036e-01 1.445075e-13 4.090686e-01
    outer loop
      vertex   4.419549e+00 -2.540000e-03 1.781238e+00
      vertex   4.270229e+00 2.540000e-03 2.114325e+00
      vertex   4.270229e+00 -2.540000e-03 2.114325e+00
    endloop
  endfacet
  facet normal 8.785123e-01 1.670474e-13 4.777198e-01
    outer loop
      vertex   4.270229e+00 -2.540000e-03 2.114325e+00
      vertex   4.270229e+00 2.540000e-03 2.114325e+00
      vertex   4.095849e+00 2.540000e-03 2.435004e+00
    endloop
  endfacet
  facet normal 8.785123e-01 5.446787e-14 4.777198e-01
    outer loop
      vertex   4.270229e+00 -2.540000e-03 2.114325e+00
      vertex   4.095849e+00 2.540000e-03 2.435004e+00
      vertex   4.095849e+00 -2.540000e-03 2.435004e+00
    endloop
  endfacet
  facet normal 8.393654e-01 9.083783e-14 5.435676e-01
    outer loop
      vertex   4.095849e+00 -2.540000e-03 2.435004e+00
      vertex   4.095849e+00 2.540000e-03 2.435004e+00
      vertex   3.897433e+00 2.540000e-03 2.741393e+00
    endloop
  endfacet
  facet normal 8.393654e-01 5.900581e-14 5.435676e-01
    outer loop
      vertex   4.095849e+00 -2.540000e-03 2.435004e+00
      vertex   3.897433e+00 2.540000e-03 2.741393e+00
      vertex   3.897433e+00 -2.540000e-03 2.741393e+00
    endloop
  endfacet
  facet normal 7.952929e-01 1.293422e-13 6.062254e-01
    outer loop
      vertex   3.897433e+00 -2.540000e-03 2.741393e+00
      vertex   3.897433e+00 2.540000e-03 2.741393e+00
      vertex   3.676146e+00 2.540000e-03 3.031695e+00
    endloop
  endfacet
  facet normal 7.952929e-01 -6.809147e-14 6.062254e-01
    outer loop
      vertex   3.897433e+00 -2.540000e-03 2.741393e+00
      vertex   3.676146e+00 2.540000e-03 3.031695e+00
      vertex   3.676146e+00 -2.540000e-03 3.031695e+00
    endloop
  endfacet
  facet normal 7.465532e-01 -2.840336e-14 6.653257e-01
    outer loop
      vertex   3.676146e+00 -2.540000e-03 3.031695e+00
      vertex   3.676146e+00 2.540000e-03 3.031695e+00
      vertex   3.433285e+00 2.540000e-03 3.304206e+00
    endloop
  endfacet
  facet normal 7.465532e-01 -1.418258e-13 6.653257e-01
    outer loop
      vertex   3.676146e+00 -2.540000e-03 3.031695e+00
      vertex   3.433285e+00 2.540000e-03 3.304206e+00
      vertex   3.433285e+00 -2.540000e-03 3.304206e+00
    endloop
  endfacet
  facet normal 6.934325e-01 -1.165023e-13 7.205216e-01
    outer loop
      vertex   3.433285e+00 -2.540000e-03 3.304206e+00
      vertex   3.433285e+00 2.540000e-03 3.304206e+00
      vertex   3.170277e+00 2.540000e-03 3.557326e+00
    endloop
  endfacet
  facet normal 6.934325e-01 -1.133768e-13 7.205216e-01
    outer loop
      vertex   3.433285e+00 -2.540000e-03 3.304206e+00
      vertex   3.170277e+00 2.540000e-03 3.557326e+00
      vertex   3.170277e+00 -2.540000e-03 3.557326e+00
    endloop
  endfacet
  facet normal 6.362424e-01 -8.759322e-14 7.714892e-01
    outer loop
      vertex   3.170277e+00 -2.540000e-03 3.557326e+00
      vertex   3.170277e+00 2.540000e-03 3.557326e+00
      vertex   2.888664e+00 2.540000e-03 3.789571e+00
    endloop
  endfacet
  facet normal 6.362424e-01 4.400896e-14 7.714892e-01
    outer loop
      vertex   3.170277e+00 -2.540000e-03 3.557326e+00
      vertex   2.888664e+00 2.540000e-03 3.789571e+00
      vertex   2.888664e+00 -2.540000e-03 3.789571e+00
    endloop
  endfacet
  facet normal 5.753187e-01 8.483527e-14 8.179294e-01
    outer loop
      vertex   2.888664e+00 -2.540000e-03 3.789571e+00
      vertex   2.888664e+00 2.540000e-03 3.789571e+00
      vertex   2.590099e+00 2.540000e-03 3.999576e+00
    endloop
  endfacet
  facet normal 5.753187e-01 -4.225666e-14 8.179294e-01
    outer loop
      vertex   2.888664e+00 -2.540000e-03 3.789571e+00
      vertex   2.590099e+00 2.540000e-03 3.999576e+00
      vertex   2.590099e+00 -2.540000e-03 3.999576e+00
    endloop
  endfacet
  facet normal 5.110187e-01 1.833167e-14 8.595696e-01
    outer loop
      vertex   2.590099e+00 -2.540000e-03 3.999576e+00
      vertex   2.590099e+00 2.540000e-03 3.999576e+00
      vertex   2.276335e+00 2.540000e-03 4.186111e+00
    endloop
  endfacet
  facet normal 5.110187e-01 9.319090e-14 8.595696e-01
    outer loop
      vertex   2.590099e+00 -2.540000e-03 3.999576e+00
      vertex   2.276335e+00 2.540000e-03 4.186111e+00
      vertex   2.276335e+00 -2.540000e-03 4.186111e+00
    endloop
  endfacet
  facet normal 4.437198e-01 1.597353e-13 8.961656e-01
    outer loop
      vertex   2.276335e+00 -2.540000e-03 4.186111e+00
      vertex   2.276335e+00 2.540000e-03 4.186111e+00
      vertex   1.949212e+00 2.540000e-03 4.348080e+00
    endloop
  endfacet
  facet normal 4.437198e-01 -5.594450e-14 8.961656e-01
    outer loop
      vertex   2.276335e+00 -2.540000e-03 4.186111e+00
      vertex   1.949212e+00 2.540000e-03 4.348080e+00
      vertex   1.949212e+00 -2.540000e-03 4.348080e+00
    endloop
  endfacet
  facet normal 3.738171e-01 1.387758e-14 9.275025e-01
    outer loop
      vertex   1.949212e+00 -2.540000e-03 4.348080e+00
      vertex   1.949212e+00 2.540000e-03 4.348080e+00
      vertex   1.610650e+00 2.540000e-03 4.484532e+00
    endloop
  endfacet
  facet normal 3.738171e-01 7.868798e-14 9.275025e-01
    outer loop
      vertex   1.949212e+00 -2.540000e-03 4.348080e+00
      vertex   1.610650e+00 2.540000e-03 4.484532e+00
      vertex   1.610650e+00 -2.540000e-03 4.484532e+00
    endloop
  endfacet
  facet normal 3.017206e-01 1.007498e-13 9.533964e-01
    outer loop
      vertex   1.610650e+00 -2.540000e-03 4.484532e+00
      vertex   1.610650e+00 2.540000e-03 4.484532e+00
      vertex   1.262637e+00 2.540000e-03 4.594668e+00
    endloop
  endfacet
  facet normal 3.017206e-01 4.814043e-14 9.533964e-01
    outer loop
      vertex   1.610650e+00 -2.540000e-03 4.484532e+00
      vertex   1.262637e+00 2.540000e-03 4.594668e+00
      vertex   1.262637e+00 -2.540000e-03 4.594668e+00
    endloop
  endfacet
  facet normal 2.278535e-01 8.060482e-14 9.736954e-01
    outer loop
      vertex   1.262637e+00 -2.540000e-03 4.594668e+00
      vertex   1.262637e+00 2.540000e-03 4.594668e+00
      vertex   9.072136e-01 2.540000e-03 4.677840e+00
    endloop
  endfacet
  facet normal 2.278535e-01 -1.399033e-13 9.736954e-01
    outer loop
      vertex   1.262637e+00 -2.540000e-03 4.594668e+00
      vertex   9.072136e-01 2.540000e-03 4.677840e+00
      vertex   9.072136e-01 -2.540000e-03 4.677840e+00
    endloop
  endfacet
  facet normal 1.526493e-01 -9.341128e-14 9.882804e-01
    outer loop
      vertex   9.072136e-01 -2.540000e-03 4.677840e+00
      vertex   9.072136e-01 2.540000e-03 4.677840e+00
      vertex   5.464665e-01 2.540000e-03 4.733561e+00
    endloop
  endfacet
  facet normal 1.526493e-01 4.648341e-14 9.882804e-01
    outer loop
      vertex   9.072136e-01 -2.540000e-03 4.677840e+00
      vertex   5.464665e-01 2.540000e-03 4.733561e+00
      vertex   5.464665e-01 -2.540000e-03 4.733561e+00
    endloop
  endfacet
  facet normal 7.654925e-02 1.107525e-13 9.970658e-01
    outer loop
      vertex   5.464665e-01 -2.540000e-03 4.733561e+00
      vertex   5.464665e-01 2.540000e-03 4.733561e+00
      vertex   1.825125e-01 2.540000e-03 4.761503e+00
    endloop
  endfacet
  facet normal 7.654925e-02 -6.327983e-14 9.970658e-01
    outer loop
      vertex   5.464665e-01 -2.540000e-03 4.733561e+00
      vertex   1.825125e-01 2.540000e-03 4.761503e+00
      vertex   1.825125e-01 -2.540000e-03 4.761503e+00
    endloop
  endfacet
  facet normal 0.000000e+00 -0.000000e+00 1.000000e+00
    outer loop
      vertex   1.825125e-01 -2.540000e-03 4.761503e+00
      vertex   1.825125e-01 2.540000e-03 4.761503e+00
      vertex   -1.825125e-01 2.540000e-03 4.761503e+00
    endloop
  endfacet
  facet normal 0.000000e+00 0.000000e+00 1.000000e+00
    outer loop
      vertex   1.825125e-01 -2.540000e-03 4.761503e+00
      vertex   -1.825125e-01 2.540000e-03 4.761503e+00
      vertex   -1.825125e-01 -2.540000e-03 4.761503e+00
    endloop
  endfacet
  facet normal -7.654925e-02 1.589319e-14 9.970658e-01
    outer loop
      vertex   -1.825125e-01 -2.540000e-03 4.761503e+00
      vertex   -1.825125e-01 2.540000e-03 4.761503e+00
      vertex   -5.464665e-01 2.540000e-03 4.733561e+00
    endloop
  endfacet
  facet normal -7.654925e-02 -1.425302e-13 9.970658e-01
    outer loop
      vertex   -1.825125e-01 -2.540000e-03 4.761503e+00
      vertex   -5.464665e-01 2.540000e-03 4.733561e+00
      vertex   -5.464665e-01 -2.540000e-03 4.733561e+00
    endloop
  endfacet
  facet normal -1.526493e-01 -1.094030e-13 9.882804e-01
    outer loop
      vertex   -5.464665e-01 -2.540000e-03 4.733561e+00
      vertex   -5.464665e-01 2.540000e-03 4.733561e+00
      vertex   -9.072136e-01 2.540000e-03 4.677840e+00
    endloop
  endfacet
  facet normal -1.526493e-01 -1.092857e-13 9.882804e-01
    outer loop
      vertex   -5.464665e-01 -2.540000e-03 4.733561e+00
      vertex   -9.072136e-01 2.540000e-03 4.677840e+00
      vertex   -9.072136e-01 -2.540000e-03 4.677840e+00
    endloop
  endfacet
  facet normal -2.278535e-01 -7.562513e-14 9.736954e-01
    outer loop
      vertex   -9.072136e-01 -2.540000e-03 4.677840e+00
      vertex   -9.072136e-01 2.540000e-03 4.677840e+00
      vertex   -1.262637e+00 2.540000e-03 4.594668e+00
    endloop
  endfacet
  facet normal -2.278535e-01 -2.161423e-14 9.736954e-01
    outer loop
      vertex   -9.072136e-01 -2.540000e-03 4.677840e+00
      vertex   -1.262637e+00 2.540000e-03 4.594668e+00
      vertex   -1.262637e+00 -2.540000e-03 4.594668e+00
    endloop
  endfacet
  facet normal -3.017206e-01 3.113098e-14 9.533964e-01
    outer loop
      vertex   -1.262637e+00 -2.540000e-03 4.594668e+00
      vertex   -1.262637e+00 2.540000e-03 4.594668e+00
      vertex   -1.610650e+00 2.540000e-03 4.484532e+00
    endloop
  endfacet
  facet normal -3.017206e-01 8.282959e-14 9.533964e-01
    outer loop
      vertex   -1.262637e+00 -2.540000e-03 4.594668e+00
      vertex   -1.610650e+00 2.540000e-03 4.484532e+00
      vertex   -1.610650e+00 -2.540000e-03 4.484532e+00
    endloop
  endfacet
  facet normal -3.738171e-01 1.482853e-13 9.275025e-01
    outer loop
      vertex   -1.610650e+00 -2.540000e-03 4.484532e+00
      vertex   -1.610650e+00 2.540000e-03 4.484532e+00
      vertex   -1.949212e+00 2.540000e-03 4.348080e+00
    endloop
  endfacet
  facet normal -3.738171e-01 -8.117309e-14 9.275025e-01
    outer loop
      vertex   -1.610650e+00 -2.540000e-03 4.484532e+00
      vertex   -1.949212e+00 2.540000e-03 4.348080e+00
      vertex   -1.949212e+00 -2.540000e-03 4.348080e+00
    endloop
  endfacet
  facet normal -4.437198e-01 -5.971003e-14 8.961656e-01
    outer loop
      vertex   -1.949212e+00 -2.540000e-03 4.348080e+00
      vertex   -1.949212e+00 2.540000e-03 4.348080e+00
      vertex   -2.276335e+00 2.540000e-03 4.186111e+00
    endloop
  endfacet
  facet normal -4.437198e-01 -2.035103e-15 8.961656e-01
    outer loop
      vertex   -1.949212e+00 -2.540000e-03 4.348080e+00
      vertex   -2.276335e+00 2.540000e-03 4.186111e+00
      vertex   -2.276335e+00 -2.540000e-03 4.186111e+00
    endloop
  endfacet
  facet normal -5.110187e-01 2.840558e-14 8.595696e-01
    outer loop
      vertex   -2.276335e+00 -2.540000e-03 4.186111e+00
      vertex   -2.276335e+00 2.540000e-03 4.186111e+00
      vertex   -2.590099e+00 2.540000e-03 3.999576e+00
    endloop
  endfacet
  facet normal -5.110187e-01 -7.754563e-14 8.595696e-01
    outer loop
      vertex   -2.276335e+00 -2.540000e-03 4.186111e+00
      vertex   -2.590099e+00 2.540000e-03 3.999576e+00
      vertex   -2.590099e+00 -2.540000e-03 3.999576e+00
    endloop
  endfacet
  facet normal -5.753187e-01 -3.454141e-14 8.179294e-01
    outer loop
      vertex   -2.590099e+00 -2.540000e-03 3.999576e+00
      vertex   -2.590099e+00 2.540000e-03 3.999576e+00
      vertex   -2.888664e+00 2.540000e-03 3.789571e+00
    endloop
  endfacet
  facet normal -5.753187e-01 4.644496e-14 8.179294e-01
    outer loop
      vertex   -2.590099e+00 -2.540000e-03 3.999576e+00
      vertex   -2.888664e+00 2.540000e-03 3.789571e+00
      vertex   -2.888664e+00 -2.540000e-03 3.789571e+00
    endloop
  endfacet
  facet normal -6.362424e-01 1.077435e-13 7.714892e-01
    outer loop
      vertex   -2.888664e+00 -2.540000e-03 3.789571e+00
      vertex   -2.888664e+00 2.540000e-03 3.789571e+00
      vertex   -3.170277e+00 2.540000e-03 3.557326e+00
    endloop
  endfacet
  facet normal -6.362424e-01 -3.023526e-14 7.714892e-01
    outer loop
      vertex   -2.888664e+00 -2.540000e-03 3.789571e+00
      vertex   -3.170277e+00 2.540000e-03 3.557326e+00
      vertex   -3.170277e+00 -2.540000e-03 3.557326e+00
    endloop
  endfacet
  facet normal -6.934325e-01 4.404253e-14 7.205216e-01
    outer loop
      vertex   -3.170277e+00 -2.540000e-03 3.557326e+00
      vertex   -3.170277e+00 2.540000e-03 3.557326e+00
      vertex   -3.433285e+00 2.540000e-03 3.304206e+00
    endloop
  endfacet
  facet normal -6.934325e-01 -1.366225e-15 7.205216e-01
    outer loop
      vertex   -3.170277e+00 -2.540000e-03 3.557326e+00
      vertex   -3.433285e+00 2.540000e-03 3.304206e+00
      vertex   -3.433285e+00 -2.540000e-03 3.304206e+00
    endloop
  endfacet
  facet normal -7.465532e-01 0.000000e+00 6.653257e-01
    outer loop
      vertex   -3.433285e+00 -2.540000e-03 3.304206e+00
      vertex   -3.433285e+00 2.540000e-03 3.304206e+00
      vertex   -3.676146e+00 2.540000e-03 3.031695e+00
    endloop
  endfacet
  facet normal -7.465532e-01 3.694108e-15 6.653257e-01
    outer loop
      vertex   -3.433285e+00 -2.540000e-03 3.304206e+00
      vertex   -3.676146e+00 2.540000e-03 3.031695e+00
      vertex   -3.676146e+00 -2.540000e-03 3.031695e+00
    endloop
  endfacet
  facet normal -7.952929e-01 0.000000e+00 6.062254e-01
    outer loop
      vertex   -3.676146e+00 -2.540000e-03 3.031695e+00
      vertex   -3.676146e+00 2.540000e-03 3.031695e+00
      vertex   -3.897433e+00 2.540000e-03 2.741393e+00
    endloop
  endfacet
  facet normal -7.952929e-01 -1.272102e-13 6.062254e-01
    outer loop
      vertex   -3.676146e+00 -2.540000e-03 3.031695e+00
      vertex   -3.897433e+00 2.540000e-03 2.741393e+00
      vertex   -3.897433e+00 -2.540000e-03 2.741393e+00
    endloop
  endfacet
  facet normal -8.393654e-01 -9.083783e-14 5.435676e-01
    outer loop
      vertex   -3.897433e+00 -2.540000e-03 2.741393e+00
      vertex   -3.897433e+00 2.540000e-03 2.741393e+00
      vertex   -4.095849e+00 2.540000e-03 2.435004e+00
    endloop
  endfacet
  facet normal -8.393654e-01 -8.486421e-14 5.435676e-01
    outer loop
      vertex   -3.897433e+00 -2.540000e-03 2.741393e+00
      vertex   -4.095849e+00 2.540000e-03 2.435004e+00
      vertex   -4.095849e+00 -2.540000e-03 2.435004e+00
    endloop
  endfacet
  facet normal -8.785123e-01 -2.689970e-14 4.777198e-01
    outer loop
      vertex   -4.095849e+00 -2.540000e-03 2.435004e+00
      vertex   -4.095849e+00 2.540000e-03 2.435004e+00
      vertex   -4.270229e+00 2.540000e-03 2.114325e+00
    endloop
  endfacet
  facet normal -8.785123e-01 8.532877e-14 4.777198e-01
    outer loop
      vertex   -4.095849e+00 -2.540000e-03 2.435004e+00
      vertex   -4.270229e+00 2.540000e-03 2.114325e+00
      vertex   -4.270229e+00 -2.540000e-03 2.114325e+00
    endloop
  endfacet
  facet normal -9.125036e-01 1.567778e-13 4.090686e-01
    outer loop
      vertex   -4.270229e+00 -2.540000e-03 2.114325e+00
      vertex   -4.270229e+00 2.540000e-03 2.114325e+00
      vertex   -4.419549e+00 2.540000e-03 1.781238e+00
    endloop
  endfacet
  facet normal -9.125036e-01 3.344898e-14 4.090686e-01
    outer loop
      vertex   -4.270229e+00 -2.540000e-03 2.114325e+00
      vertex   -4.419549e+00 2.540000e-03 1.781238e+00
      vertex   -4.419549e+00 -2.540000e-03 1.781238e+00
    endloop
  endfacet
  facet normal -9.411400e-01 9.270145e-14 3.380169e-01
    outer loop
      vertex   -4.419549e+00 -2.540000e-03 1.781238e+00
      vertex   -4.419549e+00 2.540000e-03 1.781238e+00
      vertex   -4.542934e+00 2.540000e-03 1.437699e+00
    endloop
  endfacet
  facet normal -9.411400e-01 8.428572e-17 3.380169e-01
    outer loop
      vertex   -4.419549e+00 -2.540000e-03 1.781238e+00
      vertex   -4.542934e+00 2.540000e-03 1.437699e+00
      vertex   -4.542934e+00 -2.540000e-03 1.437699e+00
    endloop
  endfacet
  facet normal -9.642535e-01 0.000000e+00 2.649815e-01
    outer loop
      vertex   -4.542934e+00 -2.540000e-03 1.437699e+00
      vertex   -4.542934e+00 2.540000e-03 1.437699e+00
      vertex   -4.639659e+00 2.540000e-03 1.085722e+00
    endloop
  endfacet
  facet normal -9.642535e-01 -1.141978e-13 2.649815e-01
    outer loop
      vertex   -4.542934e+00 -2.540000e-03 1.437699e+00
      vertex   -4.639659e+00 2.540000e-03 1.085722e+00
      vertex   -4.639659e+00 -2.540000e-03 1.085722e+00
    endloop
  endfacet
  facet normal -9.817083e-01 -8.321913e-14 1.903911e-01
    outer loop
      vertex   -4.639659e+00 -2.540000e-03 1.085722e+00
      vertex   -4.639659e+00 2.540000e-03 1.085722e+00
      vertex   -4.709156e+00 2.540000e-03 7.273738e-01
    endloop
  endfacet
  facet normal -9.817083e-01 9.330299e-14 1.903911e-01
    outer loop
      vertex   -4.639659e+00 -2.540000e-03 1.085722e+00
      vertex   -4.709156e+00 2.540000e-03 7.273738e-01
      vertex   -4.709156e+00 -2.540000e-03 7.273738e-01
    endloop
  endfacet
  facet normal -9.934021e-01 1.260635e-13 1.146834e-01
    outer loop
      vertex   -4.709156e+00 -2.540000e-03 7.273738e-01
      vertex   -4.709156e+00 2.540000e-03 7.273738e-01
      vertex   -4.751019e+00 2.540000e-03 3.647572e-01
    endloop
  endfacet
  facet normal -9.934021e-01 -9.481182e-14 1.146834e-01
    outer loop
      vertex   -4.709156e+00 -2.540000e-03 7.273738e-01
      vertex   -4.751019e+00 2.540000e-03 3.647572e-01
      vertex   -4.751019e+00 -2.540000e-03 3.647572e-01
    endloop
  endfacet
  facet normal -9.992662e-01 -3.180972e-14 3.830273e-02
    outer loop
      vertex   -4.751019e+00 -2.540000e-03 3.647572e-01
      vertex   -4.751019e+00 2.540000e-03 3.647572e-01
      vertex   -4.765000e+00 2.540000e-03 5.835442e-16
    endloop
  endfacet
  facet normal 0.000000e+00 1.000000e+00 0.000000e+00
    outer loop
      vertex   -4.751019e+00 2.540000e-03 3.647572e-01
      vertex   4.751019e+00 2.540000e-03 3.647572e-01
      vertex   -4.765000e+00 2.540000e-03 5.835442e-16
    endloop
  endfacet
  facet normal -0.000000e+00 1.000000e+00 0.000000e+00
    outer loop
      vertex   -4.765000e+00 2.540000e-03 5.835442e-16
      vertex   4.751019e+00 2.540000e-03 3.647572e-01
      vertex   4.765000e+00 2.540000e-03 -2.116085e-15
    endloop
  endfacet
  facet normal 0.000000e+00 1.000000e+00 0.000000e+00
    outer loop
      vertex   -4.765000e+00 2.540000e-03 5.835442e-16
      vertex   4.765000e+00 2.540000e-03 -2.116085e-15
      vertex   -4.751019e+00 2.540000e-03 -3.647572e-01
    endloop
  endfacet
  facet normal -0.000000e+00 1.000000e+00 0.000000e+00
    outer loop
      vertex   -4.751019e+00 2.540000e-03 -3.647572e-01
      vertex   4.765000e+00 2.540000e-03 -2.116085e-15
      vertex   4.751019e+00 2.540000e-03 -3.647572e-01
    endloop
  endfacet
  facet normal 0.000000e+00 1.000000e+00 0.000000e+00
    outer loop
      vertex   -4.751019e+00 2.540000e-03 -3.647572e-01
      vertex   4.751019e+00 2.540000e-03 -3.647572e-01
      vertex   -4.709156e+00 2.540000e-03 -7.273738e-01
    endloop
  endfacet
  facet normal -0.000000e+00 1.000000e+00 0.000000e+00
    outer loop
      vertex   -4.709156e+00 2.540000e-03 -7.273738e-01
      vertex   4.751019e+00 2.540000e-03 -3.647572e-01
      vertex   4.709156e+00 2.540000e-03 -7.273738e-01
    endloop
  endfacet
  facet normal 0.000000e+00 1.000000e+00 0.000000e+00
    outer loop
      vertex   -4.709156e+00 2.540000e-03 -7.273738e-01
      vertex   4.709156e+00 2.540000e-03 -7.273738e-01
      vertex   -4.639659e+00 2.540000e-03 -1.085722e+00
    endloop
  endfacet
  facet normal -0.000000e+00 1.000000e+00 0.000000e+00
    outer loop
      vertex   -4.639659e+00 2.540000e-03 -1.085722e+00
      vertex   4.709156e+00 2.540000e-03 -7.273738e-01
      vertex   4.639659e+00 2.540000e-03 -1.085722e+00
    endloop
  endfacet
  facet normal 0.000000e+00 1.000000e+00 0.000000e+00
    outer loop
      vertex   -4.639659e+00 2.540000e-03 -1.085722e+00
      vertex   4.639659e+00 2.540000e-03 -1.085722e+00
      vertex   -4.542934e+00 2.540000e-03 -1.437699e+00
    endloop
  endfacet
  facet normal -0.000000e+00 1.000000e+00 0.000000e+00
    outer loop
      vertex   -4.542934e+00 2.540000e-03 -1.437699e+00
      vertex   4.639659e+00 2.540000e-03 -1.085722e+00
      vertex   4.542934e+00 2.540000e-03 -1.437699e+00
    endloop
  endfacet
  facet normal 0.000000e+00 1.000000e+00 0.000000e+00
    outer loop
      vertex   -4.542934e+00 2.540000e-03 -1.437699e+00
      vertex   4.542934e+00 2.540000e-03 -1.437699e+00
      vertex   -4.419549e+00 2.540000e-03 -1.781238e+00
    endloop
  endfacet
  facet normal -0.000000e+00 1.000000e+00 0.000000e+00
    outer loop
      vertex   -4.419549e+00 2.540000e-03 -1.781238e+00
      vertex   4.542934e+00 2.540000e-03 -1.437699e+00
      vertex   4.419549e+00 2.540000e-03 -1.781238e+00
    endloop
  endfacet
  facet normal 0.000000e+00 1.000000e+00 0.000000e+00
    outer loop
      vertex   -4.419549e+00 2.540000e-03 -1.781238e+00
      vertex   4.419549e+00 2.540000e-03 -1.781238e+00
      vertex   -4.270229e+00 2.540000e-03 -2.114325e+00
    endloop
  endfacet
  facet normal -0.000000e+00 1.000000e+00 0.000000e+00
    outer loop
      vertex   -4.270229e+00 2.540000e-03 -2.114325e+00
      vertex   4.419549e+00 2.540000e-03 -1.781238e+00
      vertex   4.270229e+00 2.540000e-03 -2.114325e+00
    endloop
  endfacet
  facet normal 0.000000e+00 1.000000e+00 0.000000e+00
    outer loop
      vertex   -4.270229e+00 2.540000e-03 -2.114325e+00
      vertex   4.270229e+00 2.540000e-03 -2.114325e+00
      vertex   -4.095849e+00 2.540000e-03 -2.435004e+00
    endloop
  endfacet
  facet normal -0.000000e+00 1.000000e+00 0.000000e+00
    outer loop
      vertex   -4.095849e+00 2.540000e-03 -2.435004e+00
      vertex   4.270229e+00 2.540000e-03 -2.114325e+00
      vertex   4.095849e+00 2.540000e-03 -2.435004e+00
    endloop
  endfacet
  facet normal 0.000000e+00 1.000000e+00 0.000000e+00
    outer loop
      vertex   -4.095849e+00 2.540000e-03 -2.435004e+00
      vertex   4.095849e+00 2.540000e-03 -2.435004e+00
      vertex   -3.897433e+00 2.540000e-03 -2.741393e+00
    endloop
  endfacet
  facet normal -0.000000e+00 1.000000e+00 0.000000e+00
    outer loop
      vertex   -3.897433e+00 2.540000e-03 -2.741393e+00
      vertex   4.095849e+00 2.540000e-03 -2.435004e+00
      vertex   3.897433e+00 2.540000e-03 -2.741393e+00
    endloop
  endfacet
  facet normal 0.000000e+00 1.000000e+00 0.000000e+00
    outer loop
      vertex   -3.897433e+00 2.540000e-03 -2.741393e+00
      vertex   3.897433e+00 2.540000e-03 -2.741393e+00
      vertex   -3.676146e+00 2.540000e-03 -3.031695e+00
    endloop
  endfacet
  facet normal -0.000000e+00 1.000000e+00 0.000000e+00
    outer loop
      vertex   -3.676146e+00 2.540000e-03 -3.031695e+00
      vertex   3.897433e+00 2.540000e-03 -2.741393e+00
      vertex   3.676146e+00 2.540000e-03 -3.031695e+00
    endloop
  endfacet
  facet normal 0.000000e+00 1.000000e+00 0.000000e+00
    outer loop
      vertex   -3.676146e+00 2.540000e-03 -3.031695e+00
      vertex   3.676146e+00 2.540000e-03 -3.031695e+00
      vertex   -3.433285e+00 2.540000e-03 -3.304206e+00
    endloop
  endfacet
  facet normal -0.000000e+00 1.000000e+00 0.000000e+00
    outer loop
      vertex   -3.433285e+00 2.540000e-03 -3.304206e+00
      vertex   3.676146e+00 2.540000e-03 -3.031695e+00
      vertex   3.433285e+00 2.540000e-03 -3.304206e+00
    endloop
  endfacet
  facet normal 0.000000e+00 1.000000e+00 0.000000e+00
    outer loop
      vertex   -3.433285e+00 2.540000e-03 -3.304206e+00
      vertex   3.433285e+00 2.540000e-03 -3.304206e+00
      vertex   -3.170277e+00 2.540000e-03 -3.557326e+00
    endloop
  endfacet
  facet normal -0.000000e+00 1.000000e+00 0.000000e+00
    outer loop
      vertex   -3.170277e+00 2.540000e-03 -3.557326e+00
      vertex   3.433285e+00 2.540000e-03 -3.304206e+00
      vertex   3.170277e+00 2.540000e-03 -3.557326e+00
    endloop
  endfacet
  facet normal 0.000000e+00 1.000000e+00 0.000000e+00
    outer loop
      vertex   -3.170277e+00 2.540000e-03 -3.557326e+00
      vertex   3.170277e+00 2.540000e-03 -3.557326e+00
      vertex   -2.888664e+00 2.540000e-03 -3.789571e+00
    endloop
  endfacet
  facet normal -0.000000e+00 1.000000e+00 0.000000e+00
    outer loop
      vertex   -2.888664e+00 2.540000e-03 -3.789571e+00
      vertex   3.170277e+00 2.540000e-03 -3.557326e+00
      vertex   2.888664e+00 2.540000e-03 -3.789571e+00
    endloop
  endfacet
  facet normal 0.000000e+00 1.000000e+00 0.000000e+00
    outer loop
      vertex   -2.888664e+00 2.540000e-03 -3.789571e+00
      vertex   2.888664e+00 2.540000e-03 -3.789571e+00
      vertex   -2.590099e+00 2.540000e-03 -3.999576e+00
    endloop
  endfacet
  facet normal -0.000000e+00 1.000000e+00 0.000000e+00
    outer loop
      vertex   -2.590099e+00 2.540000e-03 -3.999576e+00
      vertex   2.888664e+00 2.540000e-03 -3.789571e+00
      vertex   2.590099e+00 2.540000e-03 -3.999576e+00
    endloop
  endfacet
  facet normal 0.000000e+00 1.000000e+00 0.000000e+00
    outer loop
      vertex   -2.590099e+00 2.540000e-03 -3.999576e+00
      vertex   2.590099e+00 2.540000e-03 -3.999576e+00
      vertex   -2.276335e+00 2.540000e-03 -4.186111e+00
    endloop
  endfacet
  facet normal -0.000000e+00 1.000000e+00 0.000000e+00
    outer loop
      vertex   -2.276335e+00 2.540000e-03 -4.186111e+00
      vertex   2.590099e+00 2.540000e-03 -3.999576e+00
      vertex   2.276335e+00 2.540000e-03 -4.186111e+00
    endloop
  endfacet
  facet normal 0.000000e+00 1.000000e+00 0.000000e+00
    outer loop
      vertex   -2.276335e+00 2.540000e-03 -4.186111e+00
      vertex   2.276335e+00 2.540000e-03 -4.186111e+00
      vertex   -1.949212e+00 2.540000e-03 -4.348080e+00
    endloop
  endfacet
  facet normal -0.000000e+00 1.000000e+00 0.000000e+00
    outer loop
      vertex   -1.949212e+00 2.540000e-03 -4.348080e+00
      vertex   2.276335e+00 2.540000e-03 -4.186111e+00
      vertex   1.949212e+00 2.540000e-03 -4.348080e+00
    endloop
  endfacet
  facet normal 0.000000e+00 1.000000e+00 0.000000e+00
    outer loop
      vertex   -1.949212e+00 2.540000e-03 -4.348080e+00
      vertex   1.949212e+00 2.540000e-03 -4.348080e+00
      vertex   -1.610650e+00 2.540000e-03 -4.484532e+00
    endloop
  endfacet
  facet normal -0.000000e+00 1.000000e+00 0.000000e+00
    outer loop
      vertex   -1.610650e+00 2.540000e-03 -4.484532e+00
      vertex   1.949212e+00 2.540000e-03 -4.348080e+00
      vertex   1.610650e+00 2.540000e-03 -4.484532e+00
    endloop
  endfacet
  facet normal 0.000000e+00 1.000000e+00 0.000000e+00
    outer loop
      vertex   -1.610650e+00 2.540000e-03 -4.484532e+00
      vertex   1.610650e+00 2.540000e-03 -4.484532e+00
      vertex   -1.262637e+00 2.540000e-03 -4.594668e+00
    endloop
  endfacet
  facet normal -0.000000e+00 1.000000e+00 0.000000e+00
    outer loop
      vertex   -1.262637e+00 2.540000e-03 -4.594668e+00
      vertex   1.610650e+00 2.540000e-03 -4.484532e+00
      vertex   1.262637e+00 2.540000e-03 -4.594668e+00
    endloop
  endfacet
  facet normal 0.000000e+00 1.000000e+00 0.000000e+00
    outer loop
      vertex   -1.262637e+00 2.540000e-03 -4.594668e+00
      vertex   1.262637e+00 2.540000e-03 -4.594668e+00
      vertex   -9.072136e-01 2.540000e-03 -4.677840e+00
    endloop
  endfacet
  facet normal -0.000000e+00 1.000000e+00 0.000000e+00
    outer loop
      vertex   -9.072136e-01 2.540000e-03 -4.677840e+00
      vertex   1.262637e+00 2.540000e-03 -4.594668e+00
      vertex   9.072136e-01 2.540000e-03 -4.677840e+00
    endloop
  endfacet
  facet normal 0.000000e+00 1.000000e+00 0.000000e+00
    outer loop
      vertex   -9.072136e-01 2.540000e-03 -4.677840e+00
      vertex   9.072136e-01 2.540000e-03 -4.677840e+00
      vertex   -5.464665e-01 2.540000e-03 -4.733561e+00
    endloop
  endfacet
  facet normal -0.000000e+00 1.000000e+00 0.000000e+00
    outer loop
      vertex   -5.464665e-01 2.540000e-03 -4.733561e+00
      vertex   9.072136e-01 2.540000e-03 -4.677840e+00
      vertex   5.464665e-01 2.540000e-03 -4.733561e+00
    endloop
  endfacet
  facet normal 0.000000e+00 1.000000e+00 0.000000e+00
    outer loop
      vertex   -5.464665e-01 2.540000e-03 -4.733561e+00
      vertex   5.464665e-01 2.540000e-03 -4.733561e+00
      vertex   -1.825125e-01 2.540000e-03 -4.761503e+00
    endloop
  endfacet
  facet normal 0.000000e+00 1.000000e+00 0.000000e+00
    outer loop
      vertex   -1.825125e-01 2.540000e-03 -4.761503e+00
      vertex   5.464665e-01 2.540000e-03 -4.733561e+00
      vertex   1.825125e-01 2.540000e-03 -4.761503e+00
    endloop
  endfacet
  facet normal 0.000000e+00 1.000000e+00 0.000000e+00
    outer loop
      vertex   4.751019e+00 2.540000e-03 3.647572e-01
      vertex   -4.751019e+00 2.540000e-03 3.647572e-01
      vertex   4.709156e+00 2.540000e-03 7.273738e-01
    endloop
  endfacet
  facet normal 0.000000e+00 1.000000e+00 0.000000e+00
    outer loop
      vertex   4.709156e+00 2.540000e-03 7.273738e-01
      vertex   -4.751019e+00 2.540000e-03 3.647572e-01
      vertex   -4.709156e+00 2.540000e-03 7.273738e-01
    endloop
  endfacet
  facet normal 0.000000e+00 1.000000e+00 0.000000e+00
    outer loop
      vertex   4.709156e+00 2.540000e-03 7.273738e-01
      vertex   -4.709156e+00 2.540000e-03 7.273738e-01
      vertex   4.639659e+00 2.540000e-03 1.085722e+00
    endloop
  endfacet
  facet normal 0.000000e+00 1.000000e+00 0.000000e+00
    outer loop
      vertex   4.639659e+00 2.540000e-03 1.085722e+00
      vertex   -4.709156e+00 2.540000e-03 7.273738e-01
      vertex   -4.639659e+00 2.540000e-03 1.085722e+00
    endloop
  endfacet
  facet normal 0.000000e+00 1.000000e+00 0.000000e+00
    outer loop
      vertex   4.639659e+00 2.540000e-03 1.085722e+00
      vertex   -4.639659e+00 2.540000e-03 1.085722e+00
      vertex   4.542934e+00 2.540000e-03 1.437699e+00
    endloop
  endfacet
  facet normal 0.000000e+00 1.000000e+00 0.000000e+00
    outer loop
      vertex   4.542934e+00 2.540000e-03 1.437699e+00
      vertex   -4.639659e+00 2.540000e-03 1.085722e+00
      vertex   -4.542934e+00 2.540000e-03 1.437699e+00
    endloop
  endfacet
  facet normal 0.000000e+00 1.000000e+00 0.000000e+00
    outer loop
      vertex   4.542934e+00 2.540000e-03 1.437699e+00
      vertex   -4.542934e+00 2.540000e-03 1.437699e+00
      vertex   4.419549e+00 2.540000e-03 1.781238e+00
    endloop
  endfacet
  facet normal 0.000000e+00 1.000000e+00 0.000000e+00
    outer loop
      vertex   4.419549e+00 2.540000e-03 1.781238e+00
      vertex   -4.542934e+00 2.540000e-03 1.437699e+00
      vertex   -4.419549e+00 2.540000e-03 1.781238e+00
    endloop
  endfacet
  facet normal 0.000000e+00 1.000000e+00 0.000000e+00
    outer loop
      vertex   4.419549e+00 2.540000e-03 1.781238e+00
      vertex   -4.419549e+00 2.540000e-03 1.781238e+00
      vertex   4.270229e+00 2.540000e-03 2.114325e+00
    endloop
  endfacet
  facet normal 0.000000e+00 1.000000e+00 0.000000e+00
    outer loop
      vertex   4.270229e+00 2.540000e-03 2.114325e+00
      vertex   -4.419549e+00 2.540000e-03 1.781238e+00
      vertex   -4.270229e+00 2.540000e-03 2.114325e+00
    endloop
  endfacet
  facet normal 0.000000e+00 1.000000e+00 0.000000e+00
    outer loop
      vertex   4.270229e+00 2.540000e-03 2.114325e+00
      vertex   -4.270229e+00 2.540000e-03 2.114325e+00
      vertex   4.095849e+00 2.540000e-03 2.435004e+00
    endloop
  endfacet
  facet normal 0.000000e+00 1.000000e+00 0.000000e+00
    outer loop
      vertex   4.095849e+00 2.540000e-03 2.435004e+00
      vertex   -4.270229e+00 2.540000e-03 2.114325e+00
      vertex   -4.095849e+00 2.540000e-03 2.435004e+00
    endloop
  endfacet
  facet normal 0.000000e+00 1.000000e+00 0.000000e+00
    outer loop
      vertex   4.095849e+00 2.540000e-03 2.435004e+00
      vertex   -4.095849e+00 2.540000e-03 2.435004e+00
      vertex   3.897433e+00 2.540000e-03 2.741393e+00
    endloop
  endfacet
  facet normal 0.000000e+00 1.000000e+00 0.000000e+00
    outer loop
      vertex   3.897433e+00 2.540000e-03 2.741393e+00
      vertex   -4.095849e+00 2.540000e-03 2.435004e+00
      vertex   -3.897433e+00 2.540000e-03 2.741393e+00
    endloop
  endfacet
  facet normal 0.000000e+00 1.000000e+00 0.000000e+00
    outer loop
      vertex   3.897433e+00 2.540000e-03 2.741393e+00
      vertex   -3.897433e+00 2.540000e-03 2.741393e+00
      vertex   3.676146e+00 2.540000e-03 3.031695e+00
    endloop
  endfacet
  facet normal 0.000000e+00 1.000000e+00 0.000000e+00
    outer loop
      vertex   3.676146e+00 2.540000e-03 3.031695e+00
      vertex   -3.897433e+00 2.540000e-03 2.741393e+00
      vertex   -3.676146e+00 2.540000e-03 3.031695e+00
    endloop
  endfacet
  facet normal 0.000000e+00 1.000000e+00 0.000000e+00
    outer loop
      vertex   3.676146e+00 2.540000e-03 3.031695e+00
      vertex   -3.676146e+00 2.540000e-03 3.031695e+00
      vertex   3.433285e+00 2.540000e-03 3.304206e+00
    endloop
  endfacet
  facet normal 0.000000e+00 1.000000e+00 0.000000e+00
    outer loop
      vertex   3.433285e+00 2.540000e-03 3.304206e+00
      vertex   -3.676146e+00 2.540000e-03 3.031695e+00
      vertex   -3.433285e+00 2.540000e-03 3.304206e+00
    endloop
  endfacet
  facet normal 0.000000e+00 1.000000e+00 0.000000e+00
    outer loop
      vertex   3.433285e+00 2.540000e-03 3.304206e+00
      vertex   -3.433285e+00 2.540000e-03 3.304206e+00
      vertex   3.170277e+00 2.540000e-03 3.557326e+00
    endloop
  endfacet
  facet normal 0.000000e+00 1.000000e+00 0.000000e+00
    outer loop
      vertex   3.170277e+00 2.540000e-03 3.557326e+00
      vertex   -3.433285e+00 2.540000e-03 3.304206e+00
      vertex   -3.170277e+00 2.540000e-03 3.557326e+00
    endloop
  endfacet
  facet normal 0.000000e+00 1.000000e+00 0.000000e+00
    outer loop
      vertex   3.170277e+00 2.540000e-03 3.557326e+00
      vertex   -3.170277e+00 2.540000e-03 3.557326e+00
      vertex   2.888664e+00 2.540000e-03 3.789571e+00
    endloop
  endfacet
  facet normal 0.000000e+00 1.000000e+00 0.000000e+00
    outer loop
      vertex   2.888664e+00 2.540000e-03 3.789571e+00
      vertex   -3.170277e+00 2.540000e-03 3.557326e+00
      vertex   -2.888664e+00 2.540000e-03 3.789571e+00
    endloop
  endfacet
  facet normal 0.000000e+00 1.000000e+00 0.000000e+00
    outer loop
      vertex   2.888664e+00 2.540000e-03 3.789571e+00
      vertex   -2.888664e+00 2.540000e-03 3.789571e+00
      vertex   2.590099e+00 2.540000e-03 3.999576e+00
    endloop
  endfacet
  facet normal 0.000000e+00 1.000000e+00 0.000000e+00
    outer loop
      vertex   2.590099e+00 2.540000e-03 3.999576e+00
      vertex   -2.888664e+00 2.540000e-03 3.789571e+00
      vertex   -2.590099e+00 2.540000e-03 3.999576e+00
    endloop
  endfacet
  facet normal 0.000000e+00 1.000000e+00 0.000000e+00
    outer loop
      vertex   2.590099e+00 2.540000e-03 3.999576e+00
      vertex   -2.590099e+00 2.540000e-03 3.999576e+00
      vertex   2.276335e+00 2.540000e-03 4.186111e+00
    endloop
  endfacet
  facet normal 0.000000e+00 1.000000e+00 0.000000e+00
    outer loop
      vertex   2.276335e+00 2.540000e-03 4.186111e+00
      vertex   -2.590099e+00 2.540000e-03 3.999576e+00
      vertex   -2.276335e+00 2.540000e-03 4.186111e+00
    endloop
  endfacet
  facet normal 0.000000e+00 1.000000e+00 0.000000e+00
    outer loop
      vertex   2.276335e+00 2.540000e-03 4.186111e+00
      vertex   -2.276335e+00 2.540000e-03 4.186111e+00
      vertex   1.949212e+00 2.540000e-03 4.348080e+00
    endloop
  endfacet
  facet normal 0.000000e+00 1.000000e+00 0.000000e+00
    outer loop
      vertex   1.949212e+00 2.540000e-03 4.348080e+00
      vertex   -2.276335e+00 2.540000e-03 4.186111e+00
      vertex   -1.949212e+00 2.540000e-03 4.348080e+00
    endloop
  endfacet
  facet normal 0.000000e+00 1.000000e+00 0.000000e+00
    outer loop
      vertex   1.949212e+00 2.540000e-03 4.348080e+00
      vertex   -1.949212e+00 2.540000e-03 4.348080e+00
      vertex   1.610650e+00 2.540000e-03 4.484532e+00
    endloop
  endfacet
  facet normal 0.000000e+00 1.000000e+00 0.000000e+00
    outer loop
      vertex   1.610650e+00 2.540000e-03 4.484532e+00
      vertex   -1.949212e+00 2.540000e-03 4.348080e+00
      vertex   -1.610650e+00 2.540000e-03 4.484532e+00
    endloop
  endfacet
  facet normal 0.000000e+00 1.000000e+00 0.000000e+00
    outer loop
      vertex   1.610650e+00 2.540000e-03 4.484532e+00
      vertex   -1.610650e+00 2.540000e-03 4.484532e+00
      vertex   1.262637e+00 2.540000e-03 4.594668e+00
    endloop
  endfacet
  facet normal 0.000000e+00 1.000000e+00 0.000000e+00
    outer loop
      vertex   1.262637e+00 2.540000e-03 4.594668e+00
      vertex   -1.610650e+00 2.540000e-03 4.484532e+00
      vertex   -1.262637e+00 2.540000e-03 4.594668e+00
    endloop
  endfacet
  facet normal 0.000000e+00 1.000000e+00 0.000000e+00
    outer loop
      vertex   1.262637e+00 2.540000e-03 4.594668e+00
      vertex   -1.262637e+00 2.540000e-03 4.594668e+00
      vertex   9.072136e-01 2.540000e-03 4.677840e+00
    endloop
  endfacet
  facet normal 0.000000e+00 1.000000e+00 0.000000e+00
    outer loop
      vertex   9.072136e-01 2.540000e-03 4.677840e+00
      vertex   -1.262637e+00 2.540000e-03 4.594668e+00
      vertex   -9.072136e-01 2.540000e-03 4.677840e+00
    endloop
  endfacet
  facet normal 0.000000e+00 1.000000e+00 0.000000e+00
    outer loop
      vertex   9.072136e-01 2.540000e-03 4.677840e+00
      vertex   -9.072136e-01 2.540000e-03 4.677840e+00
      vertex   5.464665e-01 2.540000e-03 4.733561e+00
    endloop
  endfacet
  facet normal 0.000000e+00 1.000000e+00 0.000000e+00
    outer loop
      vertex   5.464665e-01 2.540000e-03 4.733561e+00
      vertex   -9.072136e-01 2.540000e-03 4.677840e+00
      vertex   -5.464665e-01 2.540000e-03 4.733561e+00
    endloop
  endfacet
  facet normal 0.000000e+00 1.000000e+00 0.000000e+00
    outer loop
      vertex   5.464665e-01 2.540000e-03 4.733561e+00
      vertex   -5.464665e-01 2.540000e-03 4.733561e+00
      vertex   1.825125e-01 2.540000e-03 4.761503e+00
    endloop
  endfacet
  facet normal 0.000000e+00 1.000000e+00 0.000000e+00
    outer loop
      vertex   1.825125e-01 2.540000e-03 4.761503e+00
      vertex   -5.464665e-01 2.540000e-03 4.733561e+00
      vertex   -1.825125e-01 2.540000e-03 4.761503e+00
    endloop
  endfacet
endsolid
