solid ASCII
  facet normal -3.552714e-15 -1.000000e+00 3.833850e-27
    outer loop
      vertex   -5.075000e+01 2.500000e+00 2.600000e+00
      vertex   -5.025000e+01 2.500000e+00 2.600000e+00
      vertex   -5.075000e+01 2.500000e+00 2.613169e+00
    endloop
  endfacet
  facet normal -3.552714e-15 -1.000000e+00 0.000000e+00
    outer loop
      vertex   -5.075000e+01 2.500000e+00 2.613169e+00
      vertex   -5.025000e+01 2.500000e+00 2.600000e+00
      vertex   -5.025000e+01 2.500000e+00 2.613169e+00
    endloop
  endfacet
  facet normal -1.104405e-29 -3.108624e-15 1.000000e+00
    outer loop
      vertex   -5.025000e+01 2.500000e+00 2.600000e+00
      vertex   -5.075000e+01 2.500000e+00 2.600000e+00
      vertex   -5.043302e+01 1.500000e+00 2.600000e+00
    endloop
  endfacet
  facet normal 7.156574e-15 -8.401688e-16 1.000000e+00
    outer loop
      vertex   -5.043302e+01 1.500000e+00 2.600000e+00
      vertex   -5.075000e+01 2.500000e+00 2.600000e+00
      vertex   -5.075000e+01 -1.200000e+00 2.600000e+00
    endloop
  endfacet
  facet normal 7.005112e-15 -8.223874e-16 1.000000e+00
    outer loop
      vertex   -5.043302e+01 1.500000e+00 2.600000e+00
      vertex   -5.075000e+01 -1.200000e+00 2.600000e+00
      vertex   -5.043302e+01 -1.200000e+00 2.600000e+00
    endloop
  endfacet
  facet normal -1.698471e-14 0.000000e+00 1.000000e+00
    outer loop
      vertex   -5.043302e+01 1.500000e+00 2.600000e+00
      vertex   -5.025000e+01 1.500000e+00 2.600000e+00
      vertex   -5.025000e+01 2.500000e+00 2.600000e+00
    endloop
  endfacet
  facet normal 4.701051e-08 1.000000e+00 -2.265525e-06
    outer loop
      vertex   -5.043302e+01 -1.200000e+00 2.600000e+00
      vertex   -5.075000e+01 -1.200000e+00 2.600000e+00
      vertex   -5.043269e+01 -1.200000e+00 2.606584e+00
    endloop
  endfacet
  facet normal 3.498804e-15 1.000000e+00 -1.887838e-27
    outer loop
      vertex   -5.043269e+01 -1.200000e+00 2.606584e+00
      vertex   -5.075000e+01 -1.200000e+00 2.600000e+00
      vertex   -5.075000e+01 -1.200000e+00 2.613169e+00
    endloop
  endfacet
  facet normal 4.194061e-15 1.000000e+00 3.350598e-14
    outer loop
      vertex   -5.043269e+01 -1.200000e+00 2.606584e+00
      vertex   -5.075000e+01 -1.200000e+00 2.613169e+00
      vertex   -5.043234e+01 -1.200000e+00 2.613169e+00
    endloop
  endfacet
  facet normal -9.986637e-01 2.628123e-15 5.168072e-02
    outer loop
      vertex   -5.043234e+01 -1.200000e+00 2.613169e+00
      vertex   -5.043234e+01 1.500000e+00 2.613169e+00
      vertex   -5.043269e+01 -1.200000e+00 2.606584e+00
    endloop
  endfacet
  facet normal -9.986637e-01 5.222245e-15 5.168072e-02
    outer loop
      vertex   -5.043269e+01 -1.200000e+00 2.606584e+00
      vertex   -5.043234e+01 1.500000e+00 2.613169e+00
      vertex   -5.043269e+01 1.500000e+00 2.606584e+00
    endloop
  endfacet
  facet normal -9.986704e-01 5.222366e-15 5.155034e-02
    outer loop
      vertex   -5.043269e+01 -1.200000e+00 2.606584e+00
      vertex   -5.043269e+01 1.500000e+00 2.606584e+00
      vertex   -5.043302e+01 1.500000e+00 2.600000e+00
    endloop
  endfacet
  facet normal -9.986704e-01 5.213887e-15 5.155034e-02
    outer loop
      vertex   -5.043302e+01 1.500000e+00 2.600000e+00
      vertex   -5.043302e+01 -1.200000e+00 2.600000e+00
      vertex   -5.043269e+01 -1.200000e+00 2.606584e+00
    endloop
  endfacet
  facet normal 4.870887e-15 1.000000e+00 -6.769811e-14
    outer loop
      vertex   -5.043234e+01 1.500000e+00 2.613169e+00
      vertex   -5.025000e+01 1.500000e+00 2.613169e+00
      vertex   -5.043269e+01 1.500000e+00 2.606584e+00
    endloop
  endfacet
  facet normal 2.430901e-15 1.000000e+00 2.623266e-27
    outer loop
      vertex   -5.043269e+01 1.500000e+00 2.606584e+00
      vertex   -5.025000e+01 1.500000e+00 2.613169e+00
      vertex   -5.025000e+01 1.500000e+00 2.600000e+00
    endloop
  endfacet
  facet normal -8.141603e-08 1.000000e+00 -2.258896e-06
    outer loop
      vertex   -5.043269e+01 1.500000e+00 2.606584e+00
      vertex   -5.025000e+01 1.500000e+00 2.600000e+00
      vertex   -5.043302e+01 1.500000e+00 2.600000e+00
    endloop
  endfacet
  facet normal -1.000000e+00 0.000000e+00 5.395665e-13
    outer loop
      vertex   -5.075000e+01 -1.200000e+00 2.613169e+00
      vertex   -5.075000e+01 -1.200000e+00 2.600000e+00
      vertex   -5.075000e+01 -1.500000e+00 2.613169e+00
    endloop
  endfacet
  facet normal -1.000000e+00 -2.368476e-14 -7.987188e-28
    outer loop
      vertex   -5.075000e+01 -1.500000e+00 2.613169e+00
      vertex   -5.075000e+01 -1.200000e+00 2.600000e+00
      vertex   -5.075000e+01 -1.500000e+00 2.600000e+00
    endloop
  endfacet
  facet normal -1.000000e+00 -2.368476e-14 9.817599e-15
    outer loop
      vertex   -5.075000e+01 -1.500000e+00 2.600000e+00
      vertex   -5.075000e+01 -1.200000e+00 2.600000e+00
      vertex   -5.075000e+01 -3.350000e+00 -2.586831e+00
    endloop
  endfacet
  facet normal -1.000000e+00 0.000000e+00 1.369898e-15
    outer loop
      vertex   -5.075000e+01 -1.500000e+00 2.600000e+00
      vertex   -5.075000e+01 -3.350000e+00 -2.586831e+00
      vertex   -5.075000e+01 -2.500000e+00 2.600000e+00
    endloop
  endfacet
  facet normal -1.000000e+00 8.359326e-15 0.000000e+00
    outer loop
      vertex   -5.075000e+01 -2.500000e+00 2.600000e+00
      vertex   -5.075000e+01 -3.350000e+00 -2.586831e+00
      vertex   -5.075000e+01 -3.350000e+00 2.613169e+00
    endloop
  endfacet
  facet normal -1.000000e+00 0.000000e+00 -5.395665e-13
    outer loop
      vertex   -5.075000e+01 -2.500000e+00 2.600000e+00
      vertex   -5.075000e+01 -3.350000e+00 2.613169e+00
      vertex   -5.075000e+01 -2.500000e+00 2.613169e+00
    endloop
  endfacet
  facet normal -1.000000e+00 3.181535e-15 -1.318782e-15
    outer loop
      vertex   -5.075000e+01 -3.350000e+00 -2.586831e+00
      vertex   -5.075000e+01 -1.200000e+00 2.600000e+00
      vertex   -5.075000e+01 3.350000e+00 -2.586831e+00
    endloop
  endfacet
  facet normal -1.000000e+00 1.920386e-15 -2.425089e-15
    outer loop
      vertex   -5.075000e+01 3.350000e+00 -2.586831e+00
      vertex   -5.075000e+01 -1.200000e+00 2.600000e+00
      vertex   -5.075000e+01 2.500000e+00 2.600000e+00
    endloop
  endfacet
  facet normal -1.000000e+00 1.671865e-14 0.000000e+00
    outer loop
      vertex   -5.075000e+01 3.350000e+00 -2.586831e+00
      vertex   -5.075000e+01 2.500000e+00 2.600000e+00
      vertex   -5.075000e+01 3.350000e+00 2.613169e+00
    endloop
  endfacet
  facet normal -1.000000e+00 0.000000e+00 1.079133e-12
    outer loop
      vertex   -5.075000e+01 3.350000e+00 2.613169e+00
      vertex   -5.075000e+01 2.500000e+00 2.600000e+00
      vertex   -5.075000e+01 2.500000e+00 2.613169e+00
    endloop
  endfacet
  facet normal 8.881784e-16 -0.000000e+00 1.000000e+00
    outer loop
      vertex   -5.075000e+01 2.500000e+00 2.613169e+00
      vertex   -5.025000e+01 2.500000e+00 2.613169e+00
      vertex   -5.075000e+01 3.350000e+00 2.613169e+00
    endloop
  endfacet
  facet normal 8.881784e-16 0.000000e+00 1.000000e+00
    outer loop
      vertex   -5.075000e+01 3.350000e+00 2.613169e+00
      vertex   -5.025000e+01 2.500000e+00 2.613169e+00
      vertex   -5.025000e+01 3.350000e+00 2.613169e+00
    endloop
  endfacet
  facet normal 1.776357e-15 1.000000e+00 9.584626e-28
    outer loop
      vertex   -5.075000e+01 -2.500000e+00 2.613169e+00
      vertex   -5.025000e+01 -2.500000e+00 2.613169e+00
      vertex   -5.075000e+01 -2.500000e+00 2.600000e+00
    endloop
  endfacet
  facet normal 2.664535e-15 1.000000e+00 -3.372291e-14
    outer loop
      vertex   -5.075000e+01 -2.500000e+00 2.600000e+00
      vertex   -5.025000e+01 -2.500000e+00 2.613169e+00
      vertex   -5.025000e+01 -2.500000e+00 2.600000e+00
    endloop
  endfacet
  facet normal -2.664535e-15 -1.000000e+00 -3.372291e-14
    outer loop
      vertex   -5.075000e+01 -1.500000e+00 2.600000e+00
      vertex   -5.025000e+01 -1.500000e+00 2.600000e+00
      vertex   -5.075000e+01 -1.500000e+00 2.613169e+00
    endloop
  endfacet
  facet normal -1.776357e-15 -1.000000e+00 -1.916925e-27
    outer loop
      vertex   -5.075000e+01 -1.500000e+00 2.613169e+00
      vertex   -5.025000e+01 -1.500000e+00 2.600000e+00
      vertex   -5.025000e+01 -1.500000e+00 2.613169e+00
    endloop
  endfacet
  facet normal 7.549517e-14 -0.000000e+00 1.000000e+00
    outer loop
      vertex   -5.075000e+01 -2.500000e+00 2.600000e+00
      vertex   -5.025000e+01 -2.500000e+00 2.600000e+00
      vertex   -5.075000e+01 -1.500000e+00 2.600000e+00
    endloop
  endfacet
  facet normal 7.549517e-14 0.000000e+00 1.000000e+00
    outer loop
      vertex   -5.075000e+01 -1.500000e+00 2.600000e+00
      vertex   -5.025000e+01 -2.500000e+00 2.600000e+00
      vertex   -5.025000e+01 -1.500000e+00 2.600000e+00
    endloop
  endfacet
  facet normal 1.398020e-15 0.000000e+00 1.000000e+00
    outer loop
      vertex   -5.075000e+01 -1.200000e+00 2.613169e+00
      vertex   -5.075000e+01 -1.500000e+00 2.613169e+00
      vertex   -5.043234e+01 -1.200000e+00 2.613169e+00
    endloop
  endfacet
  facet normal 8.881784e-16 5.398475e-16 1.000000e+00
    outer loop
      vertex   -5.043234e+01 -1.200000e+00 2.613169e+00
      vertex   -5.075000e+01 -1.500000e+00 2.613169e+00
      vertex   -5.025000e+01 -1.500000e+00 2.613169e+00
    endloop
  endfacet
  facet normal -0.000000e+00 0.000000e+00 1.000000e+00
    outer loop
      vertex   -5.043234e+01 -1.200000e+00 2.613169e+00
      vertex   -5.025000e+01 -1.500000e+00 2.613169e+00
      vertex   -5.025000e+01 1.500000e+00 2.613169e+00
    endloop
  endfacet
  facet normal 0.000000e+00 0.000000e+00 1.000000e+00
    outer loop
      vertex   -5.025000e+01 1.500000e+00 2.613169e+00
      vertex   -5.043234e+01 1.500000e+00 2.613169e+00
      vertex   -5.043234e+01 -1.200000e+00 2.613169e+00
    endloop
  endfacet
  facet normal 2.354809e-31 6.628197e-17 -1.000000e+00
    outer loop
      vertex   -5.075000e+01 3.350000e+00 -2.586831e+00
      vertex   -5.025000e+01 3.350000e+00 -2.586831e+00
      vertex   -5.075000e+01 -3.350000e+00 -2.586831e+00
    endloop
  endfacet
  facet normal 2.354809e-31 6.628197e-17 -1.000000e+00
    outer loop
      vertex   -5.075000e+01 -3.350000e+00 -2.586831e+00
      vertex   -5.025000e+01 3.350000e+00 -2.586831e+00
      vertex   -5.025000e+01 -3.350000e+00 -2.586831e+00
    endloop
  endfacet
  facet normal 8.881784e-16 0.000000e+00 1.000000e+00
    outer loop
      vertex   -5.025000e+01 -2.500000e+00 2.613169e+00
      vertex   -5.075000e+01 -2.500000e+00 2.613169e+00
      vertex   -5.025000e+01 -3.350000e+00 2.613169e+00
    endloop
  endfacet
  facet normal 8.881784e-16 0.000000e+00 1.000000e+00
    outer loop
      vertex   -5.025000e+01 -3.350000e+00 2.613169e+00
      vertex   -5.075000e+01 -2.500000e+00 2.613169e+00
      vertex   -5.075000e+01 -3.350000e+00 2.613169e+00
    endloop
  endfacet
  facet normal 1.000000e+00 -1.552709e-25 1.079133e-12
    outer loop
      vertex   -5.025000e+01 1.500000e+00 2.613169e+00
      vertex   -5.025000e+01 -1.500000e+00 2.600000e+00
      vertex   -5.025000e+01 1.500000e+00 2.600000e+00
    endloop
  endfacet
  facet normal 1.000000e+00 0.000000e+00 0.000000e+00
    outer loop
      vertex   -5.025000e+01 1.500000e+00 2.600000e+00
      vertex   -5.025000e+01 -1.500000e+00 2.600000e+00
      vertex   -5.025000e+01 3.350000e+00 -2.586831e+00
    endloop
  endfacet
  facet normal 1.000000e+00 -0.000000e+00 0.000000e+00
    outer loop
      vertex   -5.025000e+01 1.500000e+00 2.600000e+00
      vertex   -5.025000e+01 3.350000e+00 -2.586831e+00
      vertex   -5.025000e+01 2.500000e+00 2.600000e+00
    endloop
  endfacet
  facet normal 1.000000e+00 -0.000000e+00 0.000000e+00
    outer loop
      vertex   -5.025000e+01 2.500000e+00 2.600000e+00
      vertex   -5.025000e+01 3.350000e+00 -2.586831e+00
      vertex   -5.025000e+01 3.350000e+00 2.613169e+00
    endloop
  endfacet
  facet normal 1.000000e+00 0.000000e+00 0.000000e+00
    outer loop
      vertex   -5.025000e+01 2.500000e+00 2.600000e+00
      vertex   -5.025000e+01 3.350000e+00 2.613169e+00
      vertex   -5.025000e+01 2.500000e+00 2.613169e+00
    endloop
  endfacet
  facet normal 1.000000e+00 0.000000e+00 1.079133e-12
    outer loop
      vertex   -5.025000e+01 1.500000e+00 2.613169e+00
      vertex   -5.025000e+01 -1.500000e+00 2.613169e+00
      vertex   -5.025000e+01 -1.500000e+00 2.600000e+00
    endloop
  endfacet
  facet normal 1.000000e+00 -3.181535e-15 -2.974927e-15
    outer loop
      vertex   -5.025000e+01 3.350000e+00 -2.586831e+00
      vertex   -5.025000e+01 -1.500000e+00 2.600000e+00
      vertex   -5.025000e+01 -3.350000e+00 -2.586831e+00
    endloop
  endfacet
  facet normal 1.000000e+00 0.000000e+00 -4.109693e-15
    outer loop
      vertex   -5.025000e+01 -3.350000e+00 -2.586831e+00
      vertex   -5.025000e+01 -1.500000e+00 2.600000e+00
      vertex   -5.025000e+01 -2.500000e+00 2.600000e+00
    endloop
  endfacet
  facet normal 1.000000e+00 -2.507798e-14 0.000000e+00
    outer loop
      vertex   -5.025000e+01 -3.350000e+00 -2.586831e+00
      vertex   -5.025000e+01 -2.500000e+00 2.600000e+00
      vertex   -5.025000e+01 -3.350000e+00 2.613169e+00
    endloop
  endfacet
  facet normal 1.000000e+00 -0.000000e+00 1.618699e-12
    outer loop
      vertex   -5.025000e+01 -3.350000e+00 2.613169e+00
      vertex   -5.025000e+01 -2.500000e+00 2.600000e+00
      vertex   -5.025000e+01 -2.500000e+00 2.613169e+00
    endloop
  endfacet
  facet normal -3.552714e-15 -1.000000e+00 0.000000e+00
    outer loop
      vertex   -5.025000e+01 -3.350000e+00 -2.586831e+00
      vertex   -5.025000e+01 -3.350000e+00 2.613169e+00
      vertex   -5.075000e+01 -3.350000e+00 -2.586831e+00
    endloop
  endfacet
  facet normal -3.552714e-15 -1.000000e+00 0.000000e+00
    outer loop
      vertex   -5.075000e+01 -3.350000e+00 -2.586831e+00
      vertex   -5.025000e+01 -3.350000e+00 2.613169e+00
      vertex   -5.075000e+01 -3.350000e+00 2.613169e+00
    endloop
  endfacet
  facet normal 3.552714e-15 1.000000e+00 0.000000e+00
    outer loop
      vertex   -5.025000e+01 3.350000e+00 2.613169e+00
      vertex   -5.025000e+01 3.350000e+00 -2.586831e+00
      vertex   -5.075000e+01 3.350000e+00 2.613169e+00
    endloop
  endfacet
  facet normal 3.552714e-15 1.000000e+00 0.000000e+00
    outer loop
      vertex   -5.075000e+01 3.350000e+00 2.613169e+00
      vertex   -5.025000e+01 3.350000e+00 -2.586831e+00
      vertex   -5.075000e+01 3.350000e+00 -2.586831e+00
    endloop
  endfacet
endsolid
