solid ASCII
  facet normal -1.000000e+00 0.000000e+00 0.000000e+00
    outer loop
      vertex   4.900000e+01 -1.345246e+00 -1.650000e+00
      vertex   4.900000e+01 -1.345246e+00 3.545246e+00
      vertex   4.900000e+01 1.350000e+00 -1.650000e+00
    endloop
  endfacet
  facet normal -1.000000e+00 0.000000e+00 0.000000e+00
    outer loop
      vertex   4.900000e+01 1.350000e+00 -1.650000e+00
      vertex   4.900000e+01 -1.345246e+00 3.545246e+00
      vertex   4.900000e+01 1.350000e+00 3.545246e+00
    endloop
  endfacet
  facet normal 0.000000e+00 -0.000000e+00 1.000000e+00
    outer loop
      vertex   5.100000e+01 -1.345246e+00 3.545246e+00
      vertex   5.100000e+01 1.350000e+00 3.545246e+00
      vertex   4.900000e+01 -1.345246e+00 3.545246e+00
    endloop
  endfacet
  facet normal 0.000000e+00 0.000000e+00 1.000000e+00
    outer loop
      vertex   4.900000e+01 -1.345246e+00 3.545246e+00
      vertex   5.100000e+01 1.350000e+00 3.545246e+00
      vertex   4.900000e+01 1.350000e+00 3.545246e+00
    endloop
  endfacet
  facet normal 0.000000e+00 1.000000e+00 0.000000e+00
    outer loop
      vertex   5.100000e+01 1.350000e+00 3.545246e+00
      vertex   5.100000e+01 1.350000e+00 -1.650000e+00
      vertex   4.900000e+01 1.350000e+00 3.545246e+00
    endloop
  endfacet
  facet normal 0.000000e+00 1.000000e+00 0.000000e+00
    outer loop
      vertex   4.900000e+01 1.350000e+00 3.545246e+00
      vertex   5.100000e+01 1.350000e+00 -1.650000e+00
      vertex   4.900000e+01 1.350000e+00 -1.650000e+00
    endloop
  endfacet
  facet normal -0.000000e+00 -0.000000e+00 -1.000000e+00
    outer loop
      vertex   5.100000e+01 1.350000e+00 -1.650000e+00
      vertex   5.100000e+01 -1.345246e+00 -1.650000e+00
      vertex   4.900000e+01 1.350000e+00 -1.650000e+00
    endloop
  endfacet
  facet normal 0.000000e+00 0.000000e+00 -1.000000e+00
    outer loop
      vertex   4.900000e+01 1.350000e+00 -1.650000e+00
      vertex   5.100000e+01 -1.345246e+00 -1.650000e+00
      vertex   4.900000e+01 -1.345246e+00 -1.650000e+00
    endloop
  endfacet
  facet normal -0.000000e+00 -1.000000e+00 -4.273996e-17
    outer loop
      vertex   5.100000e+01 -1.345246e+00 -1.650000e+00
      vertex   5.100000e+01 -1.345246e+00 3.545246e+00
      vertex   4.900000e+01 -1.345246e+00 -1.650000e+00
    endloop
  endfacet
  facet normal 0.000000e+00 -1.000000e+00 -4.273996e-17
    outer loop
      vertex   4.900000e+01 -1.345246e+00 -1.650000e+00
      vertex   5.100000e+01 -1.345246e+00 3.545246e+00
      vertex   4.900000e+01 -1.345246e+00 3.545246e+00
    endloop
  endfacet
  facet normal 1.000000e+00 -0.000000e+00 0.000000e+00
    outer loop
      vertex   5.100000e+01 -1.345246e+00 3.545246e+00
      vertex   5.100000e+01 -1.345246e+00 -1.650000e+00
      vertex   5.100000e+01 1.350000e+00 3.545246e+00
    endloop
  endfacet
  facet normal 1.000000e+00 0.000000e+00 0.000000e+00
    outer loop
      vertex   5.100000e+01 1.350000e+00 3.545246e+00
      vertex   5.100000e+01 -1.345246e+00 -1.650000e+00
      vertex   5.100000e+01 1.350000e+00 -1.650000e+00
    endloop
  endfacet
endsolid
