solid ASCII
  facet normal 1.000000e+00 0.000000e+00 -4.853895e-13
    outer loop
      vertex   2.600000e+00 1.350000e+00 -4.905475e+01
      vertex   2.600000e+00 -1.396569e+00 -4.905475e+01
      vertex   2.600000e+00 1.350000e+00 -5.005475e+01
    endloop
  endfacet
  facet normal 1.000000e+00 0.000000e+00 -4.853895e-13
    outer loop
      vertex   2.600000e+00 1.350000e+00 -5.005475e+01
      vertex   2.600000e+00 -1.396569e+00 -4.905475e+01
      vertex   2.600000e+00 -1.396569e+00 -5.005475e+01
    endloop
  endfacet
  facet normal 0.000000e+00 1.000000e+00 0.000000e+00
    outer loop
      vertex   -2.600000e+00 1.350000e+00 -4.905475e+01
      vertex   2.600000e+00 1.350000e+00 -4.905475e+01
      vertex   -2.600000e+00 1.350000e+00 -5.005475e+01
    endloop
  endfacet
  facet normal -0.000000e+00 1.000000e+00 0.000000e+00
    outer loop
      vertex   -2.600000e+00 1.350000e+00 -5.005475e+01
      vertex   2.600000e+00 1.350000e+00 -4.905475e+01
      vertex   2.600000e+00 1.350000e+00 -5.005475e+01
    endloop
  endfacet
  facet normal -1.000000e+00 0.000000e+00 4.853895e-13
    outer loop
      vertex   -2.600000e+00 -1.396569e+00 -4.905475e+01
      vertex   -2.600000e+00 1.350000e+00 -4.905475e+01
      vertex   -2.600000e+00 -1.396569e+00 -5.005475e+01
    endloop
  endfacet
  facet normal -1.000000e+00 0.000000e+00 4.853895e-13
    outer loop
      vertex   -2.600000e+00 -1.396569e+00 -5.005475e+01
      vertex   -2.600000e+00 1.350000e+00 -4.905475e+01
      vertex   -2.600000e+00 1.350000e+00 -5.005475e+01
    endloop
  endfacet
  facet normal -0.000000e+00 -1.000000e+00 0.000000e+00
    outer loop
      vertex   2.600000e+00 -1.396569e+00 -4.905475e+01
      vertex   -2.600000e+00 -1.396569e+00 -4.905475e+01
      vertex   2.600000e+00 -1.396569e+00 -5.005475e+01
    endloop
  endfacet
  facet normal 0.000000e+00 -1.000000e+00 0.000000e+00
    outer loop
      vertex   2.600000e+00 -1.396569e+00 -5.005475e+01
      vertex   -2.600000e+00 -1.396569e+00 -4.905475e+01
      vertex   -2.600000e+00 -1.396569e+00 -5.005475e+01
    endloop
  endfacet
  facet normal -4.850821e-13 0.000000e+00 -1.000000e+00
    outer loop
      vertex   2.600000e+00 -1.396569e+00 -5.005475e+01
      vertex   -2.600000e+00 -1.396569e+00 -5.005475e+01
      vertex   2.600000e+00 1.350000e+00 -5.005475e+01
    endloop
  endfacet
  facet normal -4.850821e-13 5.125717e-29 -1.000000e+00
    outer loop
      vertex   2.600000e+00 1.350000e+00 -5.005475e+01
      vertex   -2.600000e+00 -1.396569e+00 -5.005475e+01
      vertex   -2.600000e+00 1.350000e+00 -5.005475e+01
    endloop
  endfacet
  facet normal 4.864485e-13 -0.000000e+00 1.000000e+00
    outer loop
      vertex   -2.600000e+00 -1.396569e+00 -4.905475e+01
      vertex   2.600000e+00 -1.396569e+00 -4.905475e+01
      vertex   -2.600000e+00 1.350000e+00 -4.905475e+01
    endloop
  endfacet
  facet normal 4.864485e-13 4.948968e-29 1.000000e+00
    outer loop
      vertex   -2.600000e+00 1.350000e+00 -4.905475e+01
      vertex   2.600000e+00 -1.396569e+00 -4.905475e+01
      vertex   2.600000e+00 1.350000e+00 -4.905475e+01
    endloop
  endfacet
endsolid
