solid ASCII
  facet normal 0.000000e+00 0.000000e+00 1.000000e+00
    outer loop
      vertex   2.500000e+01 1.450000e+00 2.500000e+01
      vertex   -2.500000e+01 1.450000e+00 2.500000e+01
      vertex   2.500000e+01 1.350000e+00 2.500000e+01
    endloop
  endfacet
  facet normal 0.000000e+00 0.000000e+00 1.000000e+00
    outer loop
      vertex   2.500000e+01 1.350000e+00 2.500000e+01
      vertex   -2.500000e+01 1.450000e+00 2.500000e+01
      vertex   -2.500000e+01 1.350000e+00 2.500000e+01
    endloop
  endfacet
  facet normal 1.000000e+00 0.000000e+00 -0.000000e+00
    outer loop
      vertex   2.500000e+01 1.450000e+00 -2.500000e+01
      vertex   2.500000e+01 1.450000e+00 2.500000e+01
      vertex   2.500000e+01 1.350000e+00 -2.500000e+01
    endloop
  endfacet
  facet normal 1.000000e+00 0.000000e+00 0.000000e+00
    outer loop
      vertex   2.500000e+01 1.350000e+00 -2.500000e+01
      vertex   2.500000e+01 1.450000e+00 2.500000e+01
      vertex   2.500000e+01 1.350000e+00 2.500000e+01
    endloop
  endfacet
  facet normal 0.000000e+00 0.000000e+00 -1.000000e+00
    outer loop
      vertex   -2.500000e+01 1.450000e+00 -2.500000e+01
      vertex   2.500000e+01 1.450000e+00 -2.500000e+01
      vertex   -2.500000e+01 1.350000e+00 -2.500000e+01
    endloop
  endfacet
  facet normal 0.000000e+00 0.000000e+00 -1.000000e+00
    outer loop
      vertex   -2.500000e+01 1.350000e+00 -2.500000e+01
      vertex   2.500000e+01 1.450000e+00 -2.500000e+01
      vertex   2.500000e+01 1.350000e+00 -2.500000e+01
    endloop
  endfacet
  facet normal -1.000000e+00 -0.000000e+00 -0.000000e+00
    outer loop
      vertex   -2.500000e+01 1.450000e+00 2.500000e+01
      vertex   -2.500000e+01 1.450000e+00 -2.500000e+01
      vertex   -2.500000e+01 1.350000e+00 2.500000e+01
    endloop
  endfacet
  facet normal -1.000000e+00 0.000000e+00 0.000000e+00
    outer loop
      vertex   -2.500000e+01 1.350000e+00 2.500000e+01
      vertex   -2.500000e+01 1.450000e+00 -2.500000e+01
      vertex   -2.500000e+01 1.350000e+00 -2.500000e+01
    endloop
  endfacet
  facet normal 3.641532e-15 -1.000000e+00 0.000000e+00
    outer loop
      vertex   -2.500000e+01 1.350000e+00 2.500000e+01
      vertex   -2.500000e+01 1.350000e+00 -2.500000e+01
      vertex   2.500000e+01 1.350000e+00 2.500000e+01
    endloop
  endfacet
  facet normal 3.641532e-15 -1.000000e+00 0.000000e+00
    outer loop
      vertex   2.500000e+01 1.350000e+00 2.500000e+01
      vertex   -2.500000e+01 1.350000e+00 -2.500000e+01
      vertex   2.500000e+01 1.350000e+00 -2.500000e+01
    endloop
  endfacet
  facet normal -3.641532e-15 1.000000e+00 0.000000e+00
    outer loop
      vertex   -2.500000e+01 1.450000e+00 2.500000e+01
      vertex   2.500000e+01 1.450000e+00 2.500000e+01
      vertex   -2.500000e+01 1.450000e+00 -2.500000e+01
    endloop
  endfacet
  facet normal -3.641532e-15 1.000000e+00 -1.312665e-31
    outer loop
      vertex   -2.500000e+01 1.450000e+00 -2.500000e+01
      vertex   2.500000e+01 1.450000e+00 2.500000e+01
      vertex   2.500000e+01 1.450000e+00 -2.500000e+01
    endloop
  endfacet
endsolid
