solid 
facet normal -1 0 0
 outer loop
  vertex -12.947157 15.117848 4.3083982
  vertex -12.947157 15.117847 -12.963602
  vertex -12.947157 5.5960007 -12.963601
 endloop
endfacet
facet normal -1 0 -0
 outer loop
  vertex -12.947157 5.5960007 -12.963601
  vertex -12.947157 -13.447688 -12.9636
  vertex -12.947157 -13.447687 -4.3275995
 endloop
endfacet
facet normal -1 0 -0
 outer loop
  vertex -12.947157 -13.447687 -4.3275995
  vertex -12.947157 -13.447687 4.3084
  vertex -12.947157 -13.447686 12.9444
 endloop
endfacet
facet normal -1 0 0
 outer loop
  vertex -12.947157 -3.925841 12.944399
  vertex -12.947157 5.5960026 12.944399
  vertex -12.947157 15.117849 12.944398
 endloop
endfacet
facet normal -1 -0 0
 outer loop
  vertex -12.947157 -13.447687 -4.3275995
  vertex -12.947157 -13.447686 12.9444
  vertex -12.947157 -3.925841 12.944399
 endloop
endfacet
facet normal -1 0 0
 outer loop
  vertex -12.947157 15.117848 4.3083982
  vertex -12.947157 5.5960007 -12.963601
  vertex -12.947157 -13.447687 -4.3275995
 endloop
endfacet
facet normal -1 0 0
 outer loop
  vertex -12.947157 -3.925841 12.944399
  vertex -12.947157 15.117849 12.944398
  vertex -12.947157 15.117848 4.3083982
 endloop
endfacet
facet normal -1 0 -0
 outer loop
  vertex -12.947157 15.117848 4.3083982
  vertex -12.947157 -13.447687 -4.3275995
  vertex -12.947157 -3.925841 12.944399
 endloop
endfacet
facet normal 0 -1 1.1263869e-07
 outer loop
  vertex -4.238887 14.746313 12.707791
  vertex -12.705554 14.746313 12.707791
  vertex -12.705554 14.746312 4.241124
 endloop
endfacet
facet normal 0 -1 1.126387e-07
 outer loop
  vertex -12.705554 14.746312 -4.225542
  vertex -12.705554 14.746311 -12.692208
  vertex -4.238887 14.746311 -12.692208
 endloop
endfacet
facet normal 1.1263869e-07 -1 0
 outer loop
  vertex -4.238887 14.746313 12.707791
  vertex -12.705554 14.746312 4.241124
  vertex -12.705554 14.746312 -4.225542
 endloop
endfacet
facet normal 0 -1 1.1263869e-07
 outer loop
  vertex 12.694447 14.746312 4.241124
  vertex 12.694447 14.746313 12.707791
  vertex 4.22778 14.746313 12.707791
 endloop
endfacet
facet normal 0 -1 5.6319344e-08
 outer loop
  vertex 4.22778 14.746313 12.707791
  vertex -4.238887 14.746313 12.707791
  vertex -12.705554 14.746312 -4.225542
 endloop
endfacet
facet normal 0 -1 1.126387e-07
 outer loop
  vertex -12.705554 14.746312 -4.225542
  vertex -4.238887 14.746311 -12.692208
  vertex 4.22778 14.746311 -12.692208
 endloop
endfacet
facet normal 0 -1 1.126387e-07
 outer loop
  vertex 4.22778 14.746311 -12.692208
  vertex 12.694447 14.746311 -12.692208
  vertex 12.694447 14.746312 -4.225542
 endloop
endfacet
facet normal -1.1263869e-07 -1 -0
 outer loop
  vertex 12.694447 14.746312 -4.225542
  vertex 12.694447 14.746312 4.241124
  vertex 4.22778 14.746313 12.707791
 endloop
endfacet
facet normal -1.8773118e-08 -1 7.509246e-08
 outer loop
  vertex 4.22778 14.746313 12.707791
  vertex -12.705554 14.746312 -4.225542
  vertex 4.22778 14.746311 -12.692208
 endloop
endfacet
facet normal 3.7546236e-08 -1 7.509246e-08
 outer loop
  vertex 4.22778 14.746311 -12.692208
  vertex 12.694447 14.746312 -4.225542
  vertex 4.22778 14.746313 12.707791
 endloop
endfacet
facet normal 0 -1 1.104301e-07
 outer loop
  vertex -4.311157 -13.447686 12.9444
  vertex -12.947157 -13.447686 12.9444
  vertex -12.947157 -13.447687 4.3084
 endloop
endfacet
facet normal 0 -1 1.1043009e-07
 outer loop
  vertex -12.947157 -13.447687 -4.3275995
  vertex -12.947157 -13.447688 -12.9636
  vertex -4.311157 -13.447688 -12.9636
 endloop
endfacet
facet normal 1.104301e-07 -1 0
 outer loop
  vertex -4.311157 -13.447686 12.9444
  vertex -12.947157 -13.447687 4.3084
  vertex -12.947157 -13.447687 -4.3275995
 endloop
endfacet
facet normal 0 -1 1.104301e-07
 outer loop
  vertex 12.960844 -13.447687 4.3084
  vertex 12.960844 -13.447686 12.9444
  vertex 4.324843 -13.447686 12.9444
 endloop
endfacet
facet normal 0 -1 5.521505e-08
 outer loop
  vertex 4.324843 -13.447686 12.9444
  vertex -4.311157 -13.447686 12.9444
  vertex -12.947157 -13.447687 -4.3275995
 endloop
endfacet
facet normal 0 -1 1.1043009e-07
 outer loop
  vertex -12.947157 -13.447687 -4.3275995
  vertex -4.311157 -13.447688 -12.9636
  vertex 4.324843 -13.447688 -12.9636
 endloop
endfacet
facet normal 0 -1 1.1043009e-07
 outer loop
  vertex 4.324843 -13.447688 -12.9636
  vertex 12.960844 -13.447688 -12.9636
  vertex 12.960844 -13.447687 -4.3275995
 endloop
endfacet
facet normal -1.1043008e-07 -1 -0
 outer loop
  vertex 12.960844 -13.447687 -4.3275995
  vertex 12.960844 -13.447687 4.3084
  vertex 4.324843 -13.447686 12.9444
 endloop
endfacet
facet normal -1.8405014e-08 -1 7.3620065e-08
 outer loop
  vertex 4.324843 -13.447686 12.9444
  vertex -12.947157 -13.447687 -4.3275995
  vertex 4.324843 -13.447688 -12.9636
 endloop
endfacet
facet normal 3.681002e-08 -1 7.362007e-08
 outer loop
  vertex 4.324843 -13.447688 -12.9636
  vertex 12.960844 -13.447687 -4.3275995
  vertex 4.324843 -13.447686 12.9444
 endloop
endfacet
facet normal -1 0 0
 outer loop
  vertex -12.947157 15.117848 4.3083982
  vertex -12.947157 15.117848 -4.3276014
  vertex -12.947157 15.117847 -12.963602
 endloop
endfacet
facet normal -1 0 0
 outer loop
  vertex -12.947157 5.5960007 -12.963601
  vertex -12.947157 -3.925843 -12.963601
  vertex -12.947157 -13.447688 -12.9636
 endloop
endfacet
facet normal -0 -1.0015645e-07 -1
 outer loop
  vertex 4.324843 15.117847 -12.963602
  vertex 12.960844 15.117847 -12.963602
  vertex 12.960844 5.5960007 -12.963601
 endloop
endfacet
facet normal 0 -1.0015646e-07 -1
 outer loop
  vertex 12.960844 -3.925843 -12.963601
  vertex 12.960844 -13.447688 -12.9636
  vertex 4.324843 -13.447688 -12.9636
 endloop
endfacet
facet normal 1.1043008e-07 0 -1
 outer loop
  vertex 4.324843 15.117847 -12.963602
  vertex 12.960844 5.5960007 -12.963601
  vertex 12.960844 -3.925843 -12.963601
 endloop
endfacet
facet normal -0 -1.0015644e-07 -1
 outer loop
  vertex -12.947157 5.5960007 -12.963601
  vertex -12.947157 15.117847 -12.963602
  vertex -4.311157 15.117847 -12.963602
 endloop
endfacet
facet normal -0 -5.007823e-08 -1
 outer loop
  vertex -4.311157 15.117847 -12.963602
  vertex 4.324843 15.117847 -12.963602
  vertex 12.960844 -3.925843 -12.963601
 endloop
endfacet
facet normal 0 -1.0015646e-07 -1
 outer loop
  vertex 12.960844 -3.925843 -12.963601
  vertex 4.324843 -13.447688 -12.9636
  vertex -4.311157 -13.447688 -12.9636
 endloop
endfacet
facet normal 0 -1.0015646e-07 -1
 outer loop
  vertex -4.311157 -13.447688 -12.9636
  vertex -12.947157 -13.447688 -12.9636
  vertex -12.947157 -3.925843 -12.963601
 endloop
endfacet
facet normal -1.1043009e-07 -0 -1
 outer loop
  vertex -12.947157 -3.925843 -12.963601
  vertex -12.947157 5.5960007 -12.963601
  vertex -4.311157 15.117847 -12.963602
 endloop
endfacet
facet normal -1.8405014e-08 -6.677097e-08 -1
 outer loop
  vertex -4.311157 15.117847 -12.963602
  vertex 12.960844 -3.925843 -12.963601
  vertex -4.311157 -13.447688 -12.9636
 endloop
endfacet
facet normal 3.6810032e-08 -6.677097e-08 -1
 outer loop
  vertex -4.311157 -13.447688 -12.9636
  vertex -12.947157 -3.925843 -12.963601
  vertex -4.311157 15.117847 -12.963602
 endloop
endfacet
facet normal 1 0 -0
 outer loop
  vertex -6.355554 -13.193687 0.0077922787
  vertex -6.355554 -13.193688 -6.342207
  vertex -6.355554 -10.653688 -6.342207
 endloop
endfacet
facet normal 1 -0 0
 outer loop
  vertex -6.355554 -10.653688 -6.342207
  vertex -6.355554 -10.653687 6.357793
  vertex -6.355554 -13.1936865 6.357793
 endloop
endfacet
facet normal 1 0 0
 outer loop
  vertex -6.355554 -13.193687 0.0077922787
  vertex -6.355554 -10.653688 -6.342207
  vertex -6.355554 -13.1936865 6.357793
 endloop
endfacet
facet normal 1 0 0
 outer loop
  vertex 12.960844 15.117848 4.3083982
  vertex 12.960844 15.117849 12.944398
  vertex 12.960844 5.5960026 12.944399
 endloop
endfacet
facet normal 1 -0 0
 outer loop
  vertex 12.960844 -3.925841 12.944399
  vertex 12.960844 -13.447686 12.9444
  vertex 12.960844 -13.447687 4.3084
 endloop
endfacet
facet normal 1 -0 0
 outer loop
  vertex 12.960844 15.117848 4.3083982
  vertex 12.960844 5.5960026 12.944399
  vertex 12.960844 -3.925841 12.944399
 endloop
endfacet
facet normal 1 0 0
 outer loop
  vertex 12.960844 5.5960007 -12.963601
  vertex 12.960844 15.117847 -12.963602
  vertex 12.960844 15.117848 4.3083982
 endloop
endfacet
facet normal 1 0 -0
 outer loop
  vertex 12.960844 -13.447687 -4.3275995
  vertex 12.960844 -13.447688 -12.9636
  vertex 12.960844 5.5960007 -12.963601
 endloop
endfacet
facet normal 1 0 0
 outer loop
  vertex 12.960844 -3.925841 12.944399
  vertex 12.960844 -13.447687 4.3084
  vertex 12.960844 -13.447687 -4.3275995
 endloop
endfacet
facet normal 1 0 0
 outer loop
  vertex 12.960844 5.5960007 -12.963601
  vertex 12.960844 15.117848 4.3083982
  vertex 12.960844 -3.925841 12.944399
 endloop
endfacet
facet normal 1 0 -0
 outer loop
  vertex 12.960844 -3.925841 12.944399
  vertex 12.960844 -13.447687 -4.3275995
  vertex 12.960844 5.5960007 -12.963601
 endloop
endfacet
facet normal -1 0 0
 outer loop
  vertex 6.3444457 -10.653687 6.357793
  vertex 6.3444457 -10.6536875 0.007792087
  vertex 6.3444457 -10.653688 -6.342207
 endloop
endfacet
facet normal 0 1 -1.5018493e-07
 outer loop
  vertex -0.005553543 -13.1936865 6.357793
  vertex 6.3444457 -13.1936865 6.357793
  vertex 6.3444457 -13.193687 0.0077922787
 endloop
endfacet
facet normal 0 1 -1.5018495e-07
 outer loop
  vertex 6.3444457 -13.193687 0.0077922787
  vertex 6.3444457 -13.193688 -6.342207
  vertex -0.005553543 -13.193688 -6.342207
 endloop
endfacet
facet normal 0 1 -1.5018495e-07
 outer loop
  vertex -0.005553543 -13.193688 -6.342207
  vertex -6.355554 -13.193688 -6.342207
  vertex -6.355554 -13.193687 0.0077922787
 endloop
endfacet
facet normal 0 1 -1.5018492e-07
 outer loop
  vertex -6.355554 -13.193687 0.0077922787
  vertex -6.355554 -13.1936865 6.357793
  vertex -0.005553543 -13.1936865 6.357793
 endloop
endfacet
facet normal -1.1277758e-14 1 -1.5018495e-07
 outer loop
  vertex -0.005553543 -13.1936865 6.357793
  vertex 6.3444457 -13.193687 0.0077922787
  vertex -0.005553543 -13.193688 -6.342207
 endloop
endfacet
facet normal 1.1277757e-14 1 -1.5018493e-07
 outer loop
  vertex -0.005553543 -13.1936865 6.357793
  vertex -0.005553543 -13.193688 -6.342207
  vertex -6.355554 -13.193687 0.0077922787
 endloop
endfacet
facet normal 0 1 0
 outer loop
  vertex -6.355554 -10.653688 -6.342207
  vertex -0.005553543 -10.653688 -6.342207
  vertex 4.22778 -10.653688 -12.692206
 endloop
endfacet
facet normal 0 1 -0
 outer loop
  vertex -6.355554 -10.653688 -6.342207
  vertex 4.22778 -10.653688 -12.692206
  vertex -4.238887 -10.653688 -12.692206
 endloop
endfacet
facet normal 1 0 0
 outer loop
  vertex -6.355554 -10.653688 -6.342207
  vertex -6.355554 -10.6536875 0.007792087
  vertex -6.355554 -10.653687 6.357793
 endloop
endfacet
facet normal 0 0 1
 outer loop
  vertex -0.005553543 -13.193688 -6.342207
  vertex 6.3444457 -13.193688 -6.342207
  vertex 6.3444457 -10.653688 -6.342207
 endloop
endfacet
facet normal 0 0 1
 outer loop
  vertex -0.005553543 -10.653688 -6.342207
  vertex -6.355554 -10.653688 -6.342207
  vertex -6.355554 -13.193688 -6.342207
 endloop
endfacet
facet normal -0 0 1
 outer loop
  vertex -0.005553543 -13.193688 -6.342207
  vertex 6.3444457 -10.653688 -6.342207
  vertex -0.005553543 -10.653688 -6.342207
 endloop
endfacet
facet normal 0 -0 1
 outer loop
  vertex -0.005553543 -10.653688 -6.342207
  vertex -6.355554 -13.193688 -6.342207
  vertex -0.005553543 -13.193688 -6.342207
 endloop
endfacet
facet normal -1 -0 0
 outer loop
  vertex 6.3444457 -13.193687 0.0077922787
  vertex 6.3444457 -13.1936865 6.357793
  vertex 6.3444457 -10.653687 6.357793
 endloop
endfacet
facet normal -1 0 0
 outer loop
  vertex 6.3444457 -10.653687 6.357793
  vertex 6.3444457 -10.653688 -6.342207
  vertex 6.3444457 -13.193688 -6.342207
 endloop
endfacet
facet normal -1 -0 0
 outer loop
  vertex 6.3444457 -13.193687 0.0077922787
  vertex 6.3444457 -10.653687 6.357793
  vertex 6.3444457 -13.193688 -6.342207
 endloop
endfacet
facet normal 1 0 0
 outer loop
  vertex -12.705554 -10.653687 12.707793
  vertex -12.705554 -10.6536875 4.241126
  vertex -12.705554 -10.6536875 -4.22554
 endloop
endfacet
facet normal 1 -0 0
 outer loop
  vertex -12.705554 14.746313 12.707791
  vertex -12.705554 6.279646 12.707792
  vertex -12.705554 -2.187019 12.707792
 endloop
endfacet
facet normal 1 0 -0
 outer loop
  vertex -12.705554 -10.6536875 -4.22554
  vertex -12.705554 -10.653688 -12.692206
  vertex -12.705554 -2.187021 -12.692207
 endloop
endfacet
facet normal 1 0 0
 outer loop
  vertex -12.705554 6.279644 -12.692207
  vertex -12.705554 14.746311 -12.692208
  vertex -12.705554 14.746312 -4.225542
 endloop
endfacet
facet normal 1 0 0
 outer loop
  vertex -12.705554 -10.6536875 -4.22554
  vertex -12.705554 -2.187021 -12.692207
  vertex -12.705554 6.279644 -12.692207
 endloop
endfacet
facet normal 1 -0 0
 outer loop
  vertex -12.705554 -2.187019 12.707792
  vertex -12.705554 -10.653687 12.707793
  vertex -12.705554 -10.6536875 -4.22554
 endloop
endfacet
facet normal 1 0 0
 outer loop
  vertex -12.705554 14.746312 4.241124
  vertex -12.705554 14.746313 12.707791
  vertex -12.705554 -2.187019 12.707792
 endloop
endfacet
facet normal 1 0 0
 outer loop
  vertex -12.705554 6.279644 -12.692207
  vertex -12.705554 14.746312 -4.225542
  vertex -12.705554 14.746312 4.241124
 endloop
endfacet
facet normal 1 0 -0
 outer loop
  vertex -12.705554 -2.187019 12.707792
  vertex -12.705554 -10.6536875 -4.22554
  vertex -12.705554 6.279644 -12.692207
 endloop
endfacet
facet normal 1 0 0
 outer loop
  vertex -12.705554 6.279644 -12.692207
  vertex -12.705554 14.746312 4.241124
  vertex -12.705554 -2.187019 12.707792
 endloop
endfacet
facet normal -1 0 -0
 outer loop
  vertex 12.694447 -10.6536875 -4.22554
  vertex 12.694447 -10.6536875 4.241126
  vertex 12.694447 -10.653687 12.707793
 endloop
endfacet
facet normal -1 0 0
 outer loop
  vertex 12.694447 -2.187019 12.707792
  vertex 12.694447 6.279646 12.707792
  vertex 12.694447 14.746313 12.707791
 endloop
endfacet
facet normal 0 -1.1263869e-07 -1
 outer loop
  vertex 12.694447 -2.187019 12.707792
  vertex 12.694447 -10.653687 12.707793
  vertex 4.22778 -10.653687 12.707793
 endloop
endfacet
facet normal 0 -1.1263869e-07 -1
 outer loop
  vertex -4.238887 -10.653687 12.707793
  vertex -12.705554 -10.653687 12.707793
  vertex -12.705554 -2.187019 12.707792
 endloop
endfacet
facet normal 0 -1.1263869e-07 -1
 outer loop
  vertex 12.694447 -2.187019 12.707792
  vertex 4.22778 -10.653687 12.707793
  vertex -4.238887 -10.653687 12.707793
 endloop
endfacet
facet normal -0 -1.1263869e-07 -1
 outer loop
  vertex 4.22778 14.746313 12.707791
  vertex 12.694447 14.746313 12.707791
  vertex 12.694447 6.279646 12.707792
 endloop
endfacet
facet normal -5.6319344e-08 0 -1
 outer loop
  vertex 12.694447 6.279646 12.707792
  vertex 12.694447 -2.187019 12.707792
  vertex -4.238887 -10.653687 12.707793
 endloop
endfacet
facet normal 1.1263869e-07 0 -1
 outer loop
  vertex -4.238887 -10.653687 12.707793
  vertex -12.705554 -2.187019 12.707792
  vertex -12.705554 6.279646 12.707792
 endloop
endfacet
facet normal -0 -1.1263869e-07 -1
 outer loop
  vertex -12.705554 6.279646 12.707792
  vertex -12.705554 14.746313 12.707791
  vertex -4.238887 14.746313 12.707791
 endloop
endfacet
facet normal -0 -1.1263869e-07 -1
 outer loop
  vertex -4.238887 14.746313 12.707791
  vertex 4.22778 14.746313 12.707791
  vertex 12.694447 6.279646 12.707792
 endloop
endfacet
facet normal 0 -5.631935e-08 -1
 outer loop
  vertex 12.694447 6.279646 12.707792
  vertex -4.238887 -10.653687 12.707793
  vertex -12.705554 6.279646 12.707792
 endloop
endfacet
facet normal 0 -1.1263868e-07 -1
 outer loop
  vertex -12.705554 6.279646 12.707792
  vertex -4.238887 14.746313 12.707791
  vertex 12.694447 6.279646 12.707792
 endloop
endfacet
facet normal 0 1.1263869e-07 1
 outer loop
  vertex -12.705554 -2.187021 -12.692207
  vertex -12.705554 -10.653688 -12.692206
  vertex -4.238887 -10.653688 -12.692206
 endloop
endfacet
facet normal 0 1.1263869e-07 1
 outer loop
  vertex 4.22778 -10.653688 -12.692206
  vertex 12.694447 -10.653688 -12.692206
  vertex 12.694447 -2.187021 -12.692207
 endloop
endfacet
facet normal 0 1.1263869e-07 1
 outer loop
  vertex -12.705554 -2.187021 -12.692207
  vertex -4.238887 -10.653688 -12.692206
  vertex 4.22778 -10.653688 -12.692206
 endloop
endfacet
facet normal -0 1.1263869e-07 1
 outer loop
  vertex -4.238887 14.746311 -12.692208
  vertex -12.705554 14.746311 -12.692208
  vertex -12.705554 6.279644 -12.692207
 endloop
endfacet
facet normal -5.6319344e-08 0 1
 outer loop
  vertex -12.705554 6.279644 -12.692207
  vertex -12.705554 -2.187021 -12.692207
  vertex 4.22778 -10.653688 -12.692206
 endloop
endfacet
facet normal 1.1263869e-07 0 1
 outer loop
  vertex 4.22778 -10.653688 -12.692206
  vertex 12.694447 -2.187021 -12.692207
  vertex 12.694447 6.279644 -12.692207
 endloop
endfacet
facet normal -0 1.1263869e-07 1
 outer loop
  vertex 12.694447 6.279644 -12.692207
  vertex 12.694447 14.746311 -12.692208
  vertex 4.22778 14.746311 -12.692208
 endloop
endfacet
facet normal -0 1.1263869e-07 1
 outer loop
  vertex 4.22778 14.746311 -12.692208
  vertex -4.238887 14.746311 -12.692208
  vertex -12.705554 6.279644 -12.692207
 endloop
endfacet
facet normal 0 5.631935e-08 1
 outer loop
  vertex -12.705554 6.279644 -12.692207
  vertex 4.22778 -10.653688 -12.692206
  vertex 12.694447 6.279644 -12.692207
 endloop
endfacet
facet normal 0 1.1263868e-07 1
 outer loop
  vertex 12.694447 6.279644 -12.692207
  vertex 4.22778 14.746311 -12.692208
  vertex -12.705554 6.279644 -12.692207
 endloop
endfacet
facet normal 1 0 0
 outer loop
  vertex 12.960844 15.117847 -12.963602
  vertex 12.960844 15.117848 -4.3276014
  vertex 12.960844 15.117848 4.3083982
 endloop
endfacet
facet normal 1 0 0
 outer loop
  vertex 12.960844 -13.447688 -12.9636
  vertex 12.960844 -3.925843 -12.963601
  vertex 12.960844 5.5960007 -12.963601
 endloop
endfacet
facet normal 0 1 -1.1043009e-07
 outer loop
  vertex -4.311157 15.117847 -12.963602
  vertex -12.947157 15.117847 -12.963602
  vertex -12.947157 15.117848 -4.3276014
 endloop
endfacet
facet normal 0 1 -1.104301e-07
 outer loop
  vertex -12.947157 15.117848 4.3083982
  vertex -12.947157 15.117849 12.944398
  vertex -4.311157 15.117849 12.944398
 endloop
endfacet
facet normal 1.104301e-07 1 0
 outer loop
  vertex -4.311157 15.117847 -12.963602
  vertex -12.947157 15.117848 -4.3276014
  vertex -12.947157 15.117848 4.3083982
 endloop
endfacet
facet normal 0 1 -1.1043009e-07
 outer loop
  vertex 12.960844 15.117848 -4.3276014
  vertex 12.960844 15.117847 -12.963602
  vertex 4.324843 15.117847 -12.963602
 endloop
endfacet
facet normal 0 1 -5.521505e-08
 outer loop
  vertex 4.324843 15.117847 -12.963602
  vertex -4.311157 15.117847 -12.963602
  vertex -12.947157 15.117848 4.3083982
 endloop
endfacet
facet normal 0 1 -1.104301e-07
 outer loop
  vertex -12.947157 15.117848 4.3083982
  vertex -4.311157 15.117849 12.944398
  vertex 4.324843 15.117849 12.944398
 endloop
endfacet
facet normal 0 1 -1.104301e-07
 outer loop
  vertex 4.324843 15.117849 12.944398
  vertex 12.960844 15.117849 12.944398
  vertex 12.960844 15.117848 4.3083982
 endloop
endfacet
facet normal -1.1043008e-07 1 0
 outer loop
  vertex 12.960844 15.117848 4.3083982
  vertex 12.960844 15.117848 -4.3276014
  vertex 4.324843 15.117847 -12.963602
 endloop
endfacet
facet normal -1.8405016e-08 1 -7.3620065e-08
 outer loop
  vertex 4.324843 15.117847 -12.963602
  vertex -12.947157 15.117848 4.3083982
  vertex 4.324843 15.117849 12.944398
 endloop
endfacet
facet normal 3.6810025e-08 1 -7.362007e-08
 outer loop
  vertex 4.324843 15.117849 12.944398
  vertex 12.960844 15.117848 4.3083982
  vertex 4.324843 15.117847 -12.963602
 endloop
endfacet
facet normal 0 1 -0
 outer loop
  vertex -6.355554 -10.653688 -6.342207
  vertex -4.238887 -10.653688 -12.692206
  vertex -12.705554 -10.653688 -12.692206
 endloop
endfacet
facet normal 1.126387e-07 1 -1.1263871e-07
 outer loop
  vertex -6.355554 -10.653688 -6.342207
  vertex -12.705554 -10.653688 -12.692206
  vertex -12.705554 -10.6536875 -4.22554
 endloop
endfacet
facet normal 1.0012327e-07 1 -1.5018495e-07
 outer loop
  vertex -6.355554 -10.6536875 0.007792087
  vertex -6.355554 -10.653688 -6.342207
  vertex -12.705554 -10.6536875 -4.22554
 endloop
endfacet
facet normal 0 1 -1.1263869e-07
 outer loop
  vertex -12.705554 -10.6536875 4.241126
  vertex -12.705554 -10.653687 12.707793
  vertex -4.238887 -10.653687 12.707793
 endloop
endfacet
facet normal -0 1 0
 outer loop
  vertex -6.355554 -10.6536875 0.007792087
  vertex -12.705554 -10.6536875 -4.22554
  vertex -12.705554 -10.6536875 4.241126
 endloop
endfacet
facet normal -1.0012329e-07 1 -1.501849e-07
 outer loop
  vertex -6.355554 -10.653687 6.357793
  vertex -6.355554 -10.6536875 0.007792087
  vertex -12.705554 -10.6536875 4.241126
 endloop
endfacet
facet normal 0 1 -1.1263869e-07
 outer loop
  vertex -12.705554 -10.6536875 4.241126
  vertex -4.238887 -10.653687 12.707793
  vertex 4.22778 -10.653687 12.707793
 endloop
endfacet
facet normal 0 1 -1.1263869e-07
 outer loop
  vertex 4.22778 -10.653687 12.707793
  vertex 12.694447 -10.653687 12.707793
  vertex 12.694447 -10.6536875 4.241126
 endloop
endfacet
facet normal 0 1 -1.126387e-07
 outer loop
  vertex 12.694447 -10.6536875 -4.22554
  vertex 12.694447 -10.653688 -12.692206
  vertex 4.22778 -10.653688 -12.692206
 endloop
endfacet
facet normal 1.1263869e-07 1 -0
 outer loop
  vertex 4.22778 -10.653687 12.707793
  vertex 12.694447 -10.6536875 4.241126
  vertex 12.694447 -10.6536875 -4.22554
 endloop
endfacet
facet normal -3.3791616e-07 1 5.631936e-07
 outer loop
  vertex -6.355554 -10.653687 6.357793
  vertex -12.705554 -10.6536875 4.241126
  vertex 4.22778 -10.653687 12.707793
 endloop
endfacet
facet normal -0 1 0
 outer loop
  vertex -0.005553543 -10.653687 6.357793
  vertex -6.355554 -10.653687 6.357793
  vertex 4.22778 -10.653687 12.707793
 endloop
endfacet
facet normal 0 1 0
 outer loop
  vertex 4.22778 -10.653688 -12.692206
  vertex -0.005553543 -10.653688 -6.342207
  vertex 6.3444457 -10.653688 -6.342207
 endloop
endfacet
facet normal -1.6895798e-07 1 5.6319312e-08
 outer loop
  vertex 12.694447 -10.6536875 -4.22554
  vertex 4.22778 -10.653688 -12.692206
  vertex 6.3444457 -10.653688 -6.342207
 endloop
endfacet
facet normal -0 1 0
 outer loop
  vertex 6.3444457 -10.653687 6.357793
  vertex -0.005553543 -10.653687 6.357793
  vertex 4.22778 -10.653687 12.707793
 endloop
endfacet
facet normal -1.00123266e-07 1 -1.5018496e-07
 outer loop
  vertex 12.694447 -10.6536875 -4.22554
  vertex 6.3444457 -10.653688 -6.342207
  vertex 6.3444457 -10.6536875 0.007792087
 endloop
endfacet
facet normal 3.3791574e-07 1 1.1263853e-07
 outer loop
  vertex 6.3444457 -10.653687 6.357793
  vertex 4.22778 -10.653687 12.707793
  vertex 12.694447 -10.6536875 -4.22554
 endloop
endfacet
facet normal -1.0012324e-07 1 -1.5018492e-07
 outer loop
  vertex 12.694447 -10.6536875 -4.22554
  vertex 6.3444457 -10.6536875 0.007792087
  vertex 6.3444457 -10.653687 6.357793
 endloop
endfacet
facet normal 0 0 -1
 outer loop
  vertex -0.005553543 -13.1936865 6.357793
  vertex -6.355554 -13.1936865 6.357793
  vertex -6.355554 -10.653687 6.357793
 endloop
endfacet
facet normal 0 0 -1
 outer loop
  vertex -0.005553543 -10.653687 6.357793
  vertex 6.3444457 -10.653687 6.357793
  vertex 6.3444457 -13.1936865 6.357793
 endloop
endfacet
facet normal -0 -0 -1
 outer loop
  vertex -0.005553543 -13.1936865 6.357793
  vertex -6.355554 -10.653687 6.357793
  vertex -0.005553543 -10.653687 6.357793
 endloop
endfacet
facet normal 0 0 -1
 outer loop
  vertex -0.005553543 -10.653687 6.357793
  vertex 6.3444457 -13.1936865 6.357793
  vertex -0.005553543 -13.1936865 6.357793
 endloop
endfacet
facet normal -0 1.0015644e-07 1
 outer loop
  vertex -4.311157 15.117849 12.944398
  vertex -12.947157 15.117849 12.944398
  vertex -12.947157 5.5960026 12.944399
 endloop
endfacet
facet normal 0 1.0015646e-07 1
 outer loop
  vertex -12.947157 -3.925841 12.944399
  vertex -12.947157 -13.447686 12.9444
  vertex -4.311157 -13.447686 12.9444
 endloop
endfacet
facet normal 1.1043009e-07 -0 1
 outer loop
  vertex -4.311157 15.117849 12.944398
  vertex -12.947157 5.5960026 12.944399
  vertex -12.947157 -3.925841 12.944399
 endloop
endfacet
facet normal -0 1.0015645e-07 1
 outer loop
  vertex 12.960844 5.5960026 12.944399
  vertex 12.960844 15.117849 12.944398
  vertex 4.324843 15.117849 12.944398
 endloop
endfacet
facet normal -0 5.007823e-08 1
 outer loop
  vertex 4.324843 15.117849 12.944398
  vertex -4.311157 15.117849 12.944398
  vertex -12.947157 -3.925841 12.944399
 endloop
endfacet
facet normal 0 1.0015646e-07 1
 outer loop
  vertex -12.947157 -3.925841 12.944399
  vertex -4.311157 -13.447686 12.9444
  vertex 4.324843 -13.447686 12.9444
 endloop
endfacet
facet normal 0 1.0015646e-07 1
 outer loop
  vertex 4.324843 -13.447686 12.9444
  vertex 12.960844 -13.447686 12.9444
  vertex 12.960844 -3.925841 12.944399
 endloop
endfacet
facet normal -1.1043008e-07 0 1
 outer loop
  vertex 12.960844 -3.925841 12.944399
  vertex 12.960844 5.5960026 12.944399
  vertex 4.324843 15.117849 12.944398
 endloop
endfacet
facet normal -1.8405016e-08 6.677097e-08 1
 outer loop
  vertex 4.324843 15.117849 12.944398
  vertex -12.947157 -3.925841 12.944399
  vertex 4.324843 -13.447686 12.9444
 endloop
endfacet
facet normal 3.6810025e-08 6.677098e-08 1
 outer loop
  vertex 4.324843 -13.447686 12.9444
  vertex 12.960844 -3.925841 12.944399
  vertex 4.324843 15.117849 12.944398
 endloop
endfacet
facet normal -1 -0 0
 outer loop
  vertex 12.694447 -10.6536875 -4.22554
  vertex 12.694447 -10.653687 12.707793
  vertex 12.694447 -2.187019 12.707792
 endloop
endfacet
facet normal -1 0 0
 outer loop
  vertex 12.694447 -2.187019 12.707792
  vertex 12.694447 14.746313 12.707791
  vertex 12.694447 14.746312 4.241124
 endloop
endfacet
facet normal -1 0 0
 outer loop
  vertex 12.694447 14.746312 4.241124
  vertex 12.694447 14.746312 -4.225542
  vertex 12.694447 14.746311 -12.692208
 endloop
endfacet
facet normal -1 0 0
 outer loop
  vertex 12.694447 6.279644 -12.692207
  vertex 12.694447 -2.187021 -12.692207
  vertex 12.694447 -10.653688 -12.692206
 endloop
endfacet
facet normal -1 0 0
 outer loop
  vertex 12.694447 14.746312 4.241124
  vertex 12.694447 14.746311 -12.692208
  vertex 12.694447 6.279644 -12.692207
 endloop
endfacet
facet normal -1 -0 0
 outer loop
  vertex 12.694447 -10.6536875 -4.22554
  vertex 12.694447 -2.187019 12.707792
  vertex 12.694447 14.746312 4.241124
 endloop
endfacet
facet normal -1 0 -0
 outer loop
  vertex 12.694447 6.279644 -12.692207
  vertex 12.694447 -10.653688 -12.692206
  vertex 12.694447 -10.6536875 -4.22554
 endloop
endfacet
facet normal -1 -0 0
 outer loop
  vertex 12.694447 -10.6536875 -4.22554
  vertex 12.694447 14.746312 4.241124
  vertex 12.694447 6.279644 -12.692207
 endloop
endfacet
endsolid 
