solid ASCII
  facet normal 0.000000e+00 -1.000000e+00 0.000000e+00
    outer loop
      vertex   -1.535000e+00 -1.535000e+00 1.000000e+01
      vertex   1.535000e+00 -1.535000e+00 1.000000e+01
      vertex   -1.535000e+00 -1.535000e+00 1.100000e+01
    endloop
  endfacet
  facet normal 0.000000e+00 -1.000000e+00 0.000000e+00
    outer loop
      vertex   -1.535000e+00 -1.535000e+00 1.100000e+01
      vertex   1.535000e+00 -1.535000e+00 1.000000e+01
      vertex   1.535000e+00 -1.535000e+00 1.100000e+01
    endloop
  endfacet
  facet normal -1.000000e+00 0.000000e+00 0.000000e+00
    outer loop
      vertex   -1.535000e+00 1.535000e+00 1.000000e+01
      vertex   -1.535000e+00 -1.535000e+00 1.000000e+01
      vertex   -1.535000e+00 1.535000e+00 1.100000e+01
    endloop
  endfacet
  facet normal -1.000000e+00 -0.000000e+00 0.000000e+00
    outer loop
      vertex   -1.535000e+00 1.535000e+00 1.100000e+01
      vertex   -1.535000e+00 -1.535000e+00 1.000000e+01
      vertex   -1.535000e+00 -1.535000e+00 1.100000e+01
    endloop
  endfacet
  facet normal 0.000000e+00 1.000000e+00 -0.000000e+00
    outer loop
      vertex   1.535000e+00 1.535000e+00 1.000000e+01
      vertex   -1.535000e+00 1.535000e+00 1.000000e+01
      vertex   1.535000e+00 1.535000e+00 1.100000e+01
    endloop
  endfacet
  facet normal 0.000000e+00 1.000000e+00 0.000000e+00
    outer loop
      vertex   1.535000e+00 1.535000e+00 1.100000e+01
      vertex   -1.535000e+00 1.535000e+00 1.000000e+01
      vertex   -1.535000e+00 1.535000e+00 1.100000e+01
    endloop
  endfacet
  facet normal 1.000000e+00 0.000000e+00 0.000000e+00
    outer loop
      vertex   1.535000e+00 -1.535000e+00 1.000000e+01
      vertex   1.535000e+00 1.535000e+00 1.000000e+01
      vertex   1.535000e+00 -1.535000e+00 1.100000e+01
    endloop
  endfacet
  facet normal 1.000000e+00 -0.000000e+00 0.000000e+00
    outer loop
      vertex   1.535000e+00 -1.535000e+00 1.100000e+01
      vertex   1.535000e+00 1.535000e+00 1.000000e+01
      vertex   1.535000e+00 1.535000e+00 1.100000e+01
    endloop
  endfacet
  facet normal 0.000000e+00 0.000000e+00 1.000000e+00
    outer loop
      vertex   1.535000e+00 1.535000e+00 1.100000e+01
      vertex   -1.535000e+00 1.535000e+00 1.100000e+01
      vertex   1.535000e+00 -1.535000e+00 1.100000e+01
    endloop
  endfacet
  facet normal 0.000000e+00 0.000000e+00 1.000000e+00
    outer loop
      vertex   1.535000e+00 -1.535000e+00 1.100000e+01
      vertex   -1.535000e+00 1.535000e+00 1.100000e+01
      vertex   -1.535000e+00 -1.535000e+00 1.100000e+01
    endloop
  endfacet
  facet normal 0.000000e+00 0.000000e+00 -1.000000e+00
    outer loop
      vertex   1.535000e+00 -1.535000e+00 1.000000e+01
      vertex   -1.535000e+00 -1.535000e+00 1.000000e+01
      vertex   1.535000e+00 1.535000e+00 1.000000e+01
    endloop
  endfacet
  facet normal -0.000000e+00 0.000000e+00 -1.000000e+00
    outer loop
      vertex   1.535000e+00 1.535000e+00 1.000000e+01
      vertex   -1.535000e+00 -1.535000e+00 1.000000e+01
      vertex   -1.535000e+00 1.535000e+00 1.000000e+01
    endloop
  endfacet
endsolid
