solid ASCII
  facet normal 0.000000e+00 0.000000e+00 1.000000e+00
    outer loop
      vertex   5.050000e+00 1.050000e+00 1.050000e+00
      vertex   2.500000e-02 1.050000e+00 1.050000e+00
      vertex   5.050000e+00 -1.050000e+00 1.050000e+00
    endloop
  endfacet
  facet normal 0.000000e+00 0.000000e+00 1.000000e+00
    outer loop
      vertex   5.050000e+00 -1.050000e+00 1.050000e+00
      vertex   2.500000e-02 1.050000e+00 1.050000e+00
      vertex   2.500000e-02 -1.050000e+00 1.050000e+00
    endloop
  endfacet
  facet normal 0.000000e+00 -0.000000e+00 1.000000e+00
    outer loop
      vertex   2.500000e-02 -1.050000e+00 1.050000e+00
      vertex   2.500000e-02 1.050000e+00 1.050000e+00
      vertex   -5.000000e+00 1.050000e+00 1.050000e+00
    endloop
  endfacet
  facet normal 0.000000e+00 0.000000e+00 1.000000e+00
    outer loop
      vertex   2.500000e-02 -1.050000e+00 1.050000e+00
      vertex   -5.000000e+00 1.050000e+00 1.050000e+00
      vertex   -5.000000e+00 -1.050000e+00 1.050000e+00
    endloop
  endfacet
  facet normal 4.418798e-17 1.000000e+00 -0.000000e+00
    outer loop
      vertex   5.050000e+00 1.050000e+00 -1.050000e+00
      vertex   2.500000e-02 1.050000e+00 -1.050000e+00
      vertex   5.050000e+00 1.050000e+00 1.050000e+00
    endloop
  endfacet
  facet normal 4.418798e-17 1.000000e+00 0.000000e+00
    outer loop
      vertex   5.050000e+00 1.050000e+00 1.050000e+00
      vertex   2.500000e-02 1.050000e+00 -1.050000e+00
      vertex   2.500000e-02 1.050000e+00 1.050000e+00
    endloop
  endfacet
  facet normal -4.418798e-17 1.000000e+00 0.000000e+00
    outer loop
      vertex   2.500000e-02 1.050000e+00 1.050000e+00
      vertex   2.500000e-02 1.050000e+00 -1.050000e+00
      vertex   -5.000000e+00 1.050000e+00 -1.050000e+00
    endloop
  endfacet
  facet normal -4.418798e-17 1.000000e+00 0.000000e+00
    outer loop
      vertex   2.500000e-02 1.050000e+00 1.050000e+00
      vertex   -5.000000e+00 1.050000e+00 -1.050000e+00
      vertex   -5.000000e+00 1.050000e+00 1.050000e+00
    endloop
  endfacet
  facet normal -0.000000e+00 0.000000e+00 -1.000000e+00
    outer loop
      vertex   5.050000e+00 -1.050000e+00 -1.050000e+00
      vertex   2.500000e-02 -1.050000e+00 -1.050000e+00
      vertex   5.050000e+00 1.050000e+00 -1.050000e+00
    endloop
  endfacet
  facet normal -0.000000e+00 0.000000e+00 -1.000000e+00
    outer loop
      vertex   5.050000e+00 1.050000e+00 -1.050000e+00
      vertex   2.500000e-02 -1.050000e+00 -1.050000e+00
      vertex   2.500000e-02 1.050000e+00 -1.050000e+00
    endloop
  endfacet
  facet normal 0.000000e+00 0.000000e+00 -1.000000e+00
    outer loop
      vertex   2.500000e-02 1.050000e+00 -1.050000e+00
      vertex   2.500000e-02 -1.050000e+00 -1.050000e+00
      vertex   -5.000000e+00 -1.050000e+00 -1.050000e+00
    endloop
  endfacet
  facet normal 0.000000e+00 0.000000e+00 -1.000000e+00
    outer loop
      vertex   2.500000e-02 1.050000e+00 -1.050000e+00
      vertex   -5.000000e+00 -1.050000e+00 -1.050000e+00
      vertex   -5.000000e+00 1.050000e+00 -1.050000e+00
    endloop
  endfacet
  facet normal -4.418798e-17 -1.000000e+00 0.000000e+00
    outer loop
      vertex   -5.000000e+00 -1.050000e+00 -1.050000e+00
      vertex   2.500000e-02 -1.050000e+00 -1.050000e+00
      vertex   -5.000000e+00 -1.050000e+00 1.050000e+00
    endloop
  endfacet
  facet normal -4.418798e-17 -1.000000e+00 0.000000e+00
    outer loop
      vertex   -5.000000e+00 -1.050000e+00 1.050000e+00
      vertex   2.500000e-02 -1.050000e+00 -1.050000e+00
      vertex   2.500000e-02 -1.050000e+00 1.050000e+00
    endloop
  endfacet
  facet normal 4.418798e-17 -1.000000e+00 0.000000e+00
    outer loop
      vertex   2.500000e-02 -1.050000e+00 1.050000e+00
      vertex   2.500000e-02 -1.050000e+00 -1.050000e+00
      vertex   5.050000e+00 -1.050000e+00 -1.050000e+00
    endloop
  endfacet
  facet normal 4.418798e-17 -1.000000e+00 0.000000e+00
    outer loop
      vertex   2.500000e-02 -1.050000e+00 1.050000e+00
      vertex   5.050000e+00 -1.050000e+00 -1.050000e+00
      vertex   5.050000e+00 -1.050000e+00 1.050000e+00
    endloop
  endfacet
  facet normal 1.000000e+00 -4.229421e-16 0.000000e+00
    outer loop
      vertex   5.050000e+00 -1.050000e+00 -1.050000e+00
      vertex   5.050000e+00 1.050000e+00 -1.050000e+00
      vertex   5.050000e+00 -1.050000e+00 1.050000e+00
    endloop
  endfacet
  facet normal 1.000000e+00 -4.229421e-16 0.000000e+00
    outer loop
      vertex   5.050000e+00 -1.050000e+00 1.050000e+00
      vertex   5.050000e+00 1.050000e+00 -1.050000e+00
      vertex   5.050000e+00 1.050000e+00 1.050000e+00
    endloop
  endfacet
  facet normal 0.000000e+00 0.000000e+00 -1.000000e+00
    outer loop
      vertex   5.000000e+00 -1.000000e+00 1.000000e+00
      vertex   0.000000e+00 -1.000000e+00 1.000000e+00
      vertex   5.000000e+00 1.000000e+00 1.000000e+00
    endloop
  endfacet
  facet normal -0.000000e+00 0.000000e+00 -1.000000e+00
    outer loop
      vertex   5.000000e+00 1.000000e+00 1.000000e+00
      vertex   0.000000e+00 -1.000000e+00 1.000000e+00
      vertex   0.000000e+00 1.000000e+00 1.000000e+00
    endloop
  endfacet
  facet normal 0.000000e+00 -0.000000e+00 -1.000000e+00
    outer loop
      vertex   0.000000e+00 1.000000e+00 1.000000e+00
      vertex   0.000000e+00 -1.000000e+00 1.000000e+00
      vertex   -5.000000e+00 -1.000000e+00 1.000000e+00
    endloop
  endfacet
  facet normal -0.000000e+00 0.000000e+00 -1.000000e+00
    outer loop
      vertex   0.000000e+00 1.000000e+00 1.000000e+00
      vertex   -5.000000e+00 -1.000000e+00 1.000000e+00
      vertex   -5.000000e+00 1.000000e+00 1.000000e+00
    endloop
  endfacet
  facet normal 0.000000e+00 -1.000000e+00 0.000000e+00
    outer loop
      vertex   -5.000000e+00 1.000000e+00 -1.000000e+00
      vertex   0.000000e+00 1.000000e+00 -1.000000e+00
      vertex   -5.000000e+00 1.000000e+00 1.000000e+00
    endloop
  endfacet
  facet normal 0.000000e+00 -1.000000e+00 0.000000e+00
    outer loop
      vertex   -5.000000e+00 1.000000e+00 1.000000e+00
      vertex   0.000000e+00 1.000000e+00 -1.000000e+00
      vertex   0.000000e+00 1.000000e+00 1.000000e+00
    endloop
  endfacet
  facet normal 0.000000e+00 -1.000000e+00 0.000000e+00
    outer loop
      vertex   0.000000e+00 1.000000e+00 1.000000e+00
      vertex   0.000000e+00 1.000000e+00 -1.000000e+00
      vertex   5.000000e+00 1.000000e+00 -1.000000e+00
    endloop
  endfacet
  facet normal 0.000000e+00 -1.000000e+00 0.000000e+00
    outer loop
      vertex   0.000000e+00 1.000000e+00 1.000000e+00
      vertex   5.000000e+00 1.000000e+00 -1.000000e+00
      vertex   5.000000e+00 1.000000e+00 1.000000e+00
    endloop
  endfacet
  facet normal 0.000000e+00 0.000000e+00 1.000000e+00
    outer loop
      vertex   5.000000e+00 1.000000e+00 -1.000000e+00
      vertex   0.000000e+00 1.000000e+00 -1.000000e+00
      vertex   5.000000e+00 -1.000000e+00 -1.000000e+00
    endloop
  endfacet
  facet normal 0.000000e+00 0.000000e+00 1.000000e+00
    outer loop
      vertex   5.000000e+00 -1.000000e+00 -1.000000e+00
      vertex   0.000000e+00 1.000000e+00 -1.000000e+00
      vertex   0.000000e+00 -1.000000e+00 -1.000000e+00
    endloop
  endfacet
  facet normal 0.000000e+00 -0.000000e+00 1.000000e+00
    outer loop
      vertex   0.000000e+00 -1.000000e+00 -1.000000e+00
      vertex   0.000000e+00 1.000000e+00 -1.000000e+00
      vertex   -5.000000e+00 1.000000e+00 -1.000000e+00
    endloop
  endfacet
  facet normal 0.000000e+00 0.000000e+00 1.000000e+00
    outer loop
      vertex   0.000000e+00 -1.000000e+00 -1.000000e+00
      vertex   -5.000000e+00 1.000000e+00 -1.000000e+00
      vertex   -5.000000e+00 -1.000000e+00 -1.000000e+00
    endloop
  endfacet
  facet normal 0.000000e+00 1.000000e+00 -0.000000e+00
    outer loop
      vertex   5.000000e+00 -1.000000e+00 -1.000000e+00
      vertex   0.000000e+00 -1.000000e+00 -1.000000e+00
      vertex   5.000000e+00 -1.000000e+00 1.000000e+00
    endloop
  endfacet
  facet normal 0.000000e+00 1.000000e+00 0.000000e+00
    outer loop
      vertex   5.000000e+00 -1.000000e+00 1.000000e+00
      vertex   0.000000e+00 -1.000000e+00 -1.000000e+00
      vertex   0.000000e+00 -1.000000e+00 1.000000e+00
    endloop
  endfacet
  facet normal 0.000000e+00 1.000000e+00 0.000000e+00
    outer loop
      vertex   0.000000e+00 -1.000000e+00 1.000000e+00
      vertex   0.000000e+00 -1.000000e+00 -1.000000e+00
      vertex   -5.000000e+00 -1.000000e+00 -1.000000e+00
    endloop
  endfacet
  facet normal 0.000000e+00 1.000000e+00 0.000000e+00
    outer loop
      vertex   0.000000e+00 -1.000000e+00 1.000000e+00
      vertex   -5.000000e+00 -1.000000e+00 -1.000000e+00
      vertex   -5.000000e+00 -1.000000e+00 1.000000e+00
    endloop
  endfacet
  facet normal -1.000000e+00 0.000000e+00 0.000000e+00
    outer loop
      vertex   5.000000e+00 1.000000e+00 -1.000000e+00
      vertex   5.000000e+00 -1.000000e+00 -1.000000e+00
      vertex   5.000000e+00 1.000000e+00 1.000000e+00
    endloop
  endfacet
  facet normal -1.000000e+00 -0.000000e+00 0.000000e+00
    outer loop
      vertex   5.000000e+00 1.000000e+00 1.000000e+00
      vertex   5.000000e+00 -1.000000e+00 -1.000000e+00
      vertex   5.000000e+00 -1.000000e+00 1.000000e+00
    endloop
  endfacet
  facet normal -1.000000e+00 -0.000000e+00 0.000000e+00
    outer loop
      vertex   -5.000000e+00 1.000000e+00 -1.000000e+00
      vertex   -5.000000e+00 -1.050000e+00 -1.050000e+00
      vertex   -5.000000e+00 -1.000000e+00 -1.000000e+00
    endloop
  endfacet
  facet normal -1.000000e+00 -0.000000e+00 0.000000e+00
    outer loop
      vertex   -5.000000e+00 -1.000000e+00 -1.000000e+00
      vertex   -5.000000e+00 -1.050000e+00 -1.050000e+00
      vertex   -5.000000e+00 -1.050000e+00 1.050000e+00
    endloop
  endfacet
  facet normal -1.000000e+00 0.000000e+00 0.000000e+00
    outer loop
      vertex   -5.000000e+00 -1.000000e+00 -1.000000e+00
      vertex   -5.000000e+00 -1.050000e+00 1.050000e+00
      vertex   -5.000000e+00 -1.000000e+00 1.000000e+00
    endloop
  endfacet
  facet normal -1.000000e+00 0.000000e+00 0.000000e+00
    outer loop
      vertex   -5.000000e+00 -1.000000e+00 1.000000e+00
      vertex   -5.000000e+00 -1.050000e+00 1.050000e+00
      vertex   -5.000000e+00 1.000000e+00 1.000000e+00
    endloop
  endfacet
  facet normal -1.000000e+00 0.000000e+00 0.000000e+00
    outer loop
      vertex   -5.000000e+00 1.000000e+00 1.000000e+00
      vertex   -5.000000e+00 -1.050000e+00 1.050000e+00
      vertex   -5.000000e+00 1.050000e+00 1.050000e+00
    endloop
  endfacet
  facet normal -1.000000e+00 0.000000e+00 0.000000e+00
    outer loop
      vertex   -5.000000e+00 1.000000e+00 1.000000e+00
      vertex   -5.000000e+00 1.050000e+00 1.050000e+00
      vertex   -5.000000e+00 1.050000e+00 -1.050000e+00
    endloop
  endfacet
  facet normal -1.000000e+00 0.000000e+00 0.000000e+00
    outer loop
      vertex   -5.000000e+00 -1.050000e+00 -1.050000e+00
      vertex   -5.000000e+00 1.000000e+00 -1.000000e+00
      vertex   -5.000000e+00 1.050000e+00 -1.050000e+00
    endloop
  endfacet
  facet normal -1.000000e+00 0.000000e+00 0.000000e+00
    outer loop
      vertex   -5.000000e+00 1.050000e+00 -1.050000e+00
      vertex   -5.000000e+00 1.000000e+00 -1.000000e+00
      vertex   -5.000000e+00 1.000000e+00 1.000000e+00
    endloop
  endfacet
endsolid
