solid ASCII
  facet normal 1.000000e+00 0.000000e+00 0.000000e+00
    outer loop
      vertex   4.493237e+00 4.568004e+00 7.674000e+01
      vertex   4.493237e+00 -4.441996e+00 7.674000e+01
      vertex   4.493237e+00 4.568004e+00 7.510000e+01
    endloop
  endfacet
  facet normal 1.000000e+00 0.000000e+00 0.000000e+00
    outer loop
      vertex   4.493237e+00 4.568004e+00 7.510000e+01
      vertex   4.493237e+00 -4.441996e+00 7.674000e+01
      vertex   4.493237e+00 -4.441996e+00 7.510000e+01
    endloop
  endfacet
  facet normal -1.000000e+00 -1.540265e-18 -2.538620e-17
    outer loop
      vertex   1.132372e-01 -4.441996e+00 7.674000e+01
      vertex   1.132372e-01 4.568004e+00 7.674000e+01
      vertex   1.132372e-01 -4.441996e+00 7.510000e+01
    endloop
  endfacet
  facet normal -1.000000e+00 -4.620795e-18 -8.462066e-18
    outer loop
      vertex   1.132372e-01 -4.441996e+00 7.510000e+01
      vertex   1.132372e-01 4.568004e+00 7.674000e+01
      vertex   1.132372e-01 4.568004e+00 7.510000e+01
    endloop
  endfacet
  facet normal -1.000000e+00 0.000000e+00 0.000000e+00
    outer loop
      vertex   -4.386763e+00 -4.441996e+00 7.674000e+01
      vertex   -4.386763e+00 4.568004e+00 7.674000e+01
      vertex   -4.386763e+00 -4.441996e+00 7.510000e+01
    endloop
  endfacet
  facet normal -1.000000e+00 0.000000e+00 0.000000e+00
    outer loop
      vertex   -4.386763e+00 -4.441996e+00 7.510000e+01
      vertex   -4.386763e+00 4.568004e+00 7.674000e+01
      vertex   -4.386763e+00 4.568004e+00 7.510000e+01
    endloop
  endfacet
  facet normal 0.000000e+00 -0.000000e+00 1.000000e+00
    outer loop
      vertex   1.132372e-01 -4.441996e+00 7.674000e+01
      vertex   4.493237e+00 -4.441996e+00 7.674000e+01
      vertex   1.132372e-01 4.568004e+00 7.674000e+01
    endloop
  endfacet
  facet normal -0.000000e+00 0.000000e+00 1.000000e+00
    outer loop
      vertex   1.132372e-01 4.568004e+00 7.674000e+01
      vertex   4.493237e+00 -4.441996e+00 7.674000e+01
      vertex   4.493237e+00 4.568004e+00 7.674000e+01
    endloop
  endfacet
  facet normal 0.000000e+00 -1.000000e+00 0.000000e+00
    outer loop
      vertex   1.132372e-01 -4.441996e+00 7.510000e+01
      vertex   4.493237e+00 -4.441996e+00 7.510000e+01
      vertex   1.132372e-01 -4.441996e+00 7.674000e+01
    endloop
  endfacet
  facet normal 0.000000e+00 -1.000000e+00 0.000000e+00
    outer loop
      vertex   1.132372e-01 -4.441996e+00 7.674000e+01
      vertex   4.493237e+00 -4.441996e+00 7.510000e+01
      vertex   4.493237e+00 -4.441996e+00 7.674000e+01
    endloop
  endfacet
  facet normal 0.000000e+00 -1.000000e+00 0.000000e+00
    outer loop
      vertex   -4.386763e+00 -4.441996e+00 7.510000e+01
      vertex   -6.762774e-03 -4.441996e+00 7.510000e+01
      vertex   -4.386763e+00 -4.441996e+00 7.674000e+01
    endloop
  endfacet
  facet normal 0.000000e+00 -1.000000e+00 0.000000e+00
    outer loop
      vertex   -4.386763e+00 -4.441996e+00 7.674000e+01
      vertex   -6.762774e-03 -4.441996e+00 7.510000e+01
      vertex   -6.762774e-03 -4.441996e+00 7.674000e+01
    endloop
  endfacet
  facet normal 0.000000e+00 0.000000e+00 1.000000e+00
    outer loop
      vertex   -6.762774e-03 4.568004e+00 7.674000e+01
      vertex   -4.386763e+00 4.568004e+00 7.674000e+01
      vertex   -6.762774e-03 -4.441996e+00 7.674000e+01
    endloop
  endfacet
  facet normal 0.000000e+00 0.000000e+00 1.000000e+00
    outer loop
      vertex   -6.762774e-03 -4.441996e+00 7.674000e+01
      vertex   -4.386763e+00 4.568004e+00 7.674000e+01
      vertex   -4.386763e+00 -4.441996e+00 7.674000e+01
    endloop
  endfacet
  facet normal 0.000000e+00 1.000000e+00 -0.000000e+00
    outer loop
      vertex   -6.762774e-03 4.568004e+00 7.510000e+01
      vertex   -4.386763e+00 4.568004e+00 7.510000e+01
      vertex   -6.762774e-03 4.568004e+00 7.674000e+01
    endloop
  endfacet
  facet normal 0.000000e+00 1.000000e+00 0.000000e+00
    outer loop
      vertex   -6.762774e-03 4.568004e+00 7.674000e+01
      vertex   -4.386763e+00 4.568004e+00 7.510000e+01
      vertex   -4.386763e+00 4.568004e+00 7.674000e+01
    endloop
  endfacet
  facet normal -0.000000e+00 0.000000e+00 -1.000000e+00
    outer loop
      vertex   6.595191e+00 3.807735e+00 -7.510000e+01
      vertex   -1.627749e-15 -7.615470e+00 -7.510000e+01
      vertex   -7.054542e-16 7.615470e+00 -7.510000e+01
    endloop
  endfacet
  facet normal 0.000000e+00 0.000000e+00 -1.000000e+00
    outer loop
      vertex   -7.054542e-16 7.615470e+00 -7.510000e+01
      vertex   -1.627749e-15 -7.615470e+00 -7.510000e+01
      vertex   -6.595191e+00 -3.807735e+00 -7.510000e+01
    endloop
  endfacet
  facet normal 0.000000e+00 0.000000e+00 -1.000000e+00
    outer loop
      vertex   -7.054542e-16 7.615470e+00 -7.510000e+01
      vertex   -6.595191e+00 -3.807735e+00 -7.510000e+01
      vertex   -6.595191e+00 3.807735e+00 -7.510000e+01
    endloop
  endfacet
  facet normal 0.000000e+00 0.000000e+00 -1.000000e+00
    outer loop
      vertex   6.595191e+00 3.807735e+00 -7.510000e+01
      vertex   6.595191e+00 -3.807735e+00 -7.510000e+01
      vertex   -1.627749e-15 -7.615470e+00 -7.510000e+01
    endloop
  endfacet
  facet normal -5.000000e-01 8.660254e-01 0.000000e+00
    outer loop
      vertex   -6.595191e+00 3.807735e+00 7.510000e+01
      vertex   -7.083454e-16 7.615470e+00 7.510000e+01
      vertex   -6.595191e+00 3.807735e+00 -7.510000e+01
    endloop
  endfacet
  facet normal -5.000000e-01 8.660254e-01 0.000000e+00
    outer loop
      vertex   -6.595191e+00 3.807735e+00 -7.510000e+01
      vertex   -7.083454e-16 7.615470e+00 7.510000e+01
      vertex   -7.054542e-16 7.615470e+00 -7.510000e+01
    endloop
  endfacet
  facet normal 5.000000e-01 8.660254e-01 9.624520e-21
    outer loop
      vertex   -7.083454e-16 7.615470e+00 7.510000e+01
      vertex   6.595191e+00 3.807735e+00 7.510000e+01
      vertex   -7.054542e-16 7.615470e+00 -7.510000e+01
    endloop
  endfacet
  facet normal 5.000000e-01 8.660254e-01 0.000000e+00
    outer loop
      vertex   -7.054542e-16 7.615470e+00 -7.510000e+01
      vertex   6.595191e+00 3.807735e+00 7.510000e+01
      vertex   6.595191e+00 3.807735e+00 -7.510000e+01
    endloop
  endfacet
  facet normal 1.000000e+00 -4.665127e-16 0.000000e+00
    outer loop
      vertex   6.595191e+00 3.807735e+00 7.510000e+01
      vertex   6.595191e+00 -3.807735e+00 7.510000e+01
      vertex   6.595191e+00 3.807735e+00 -7.510000e+01
    endloop
  endfacet
  facet normal 1.000000e+00 -4.665127e-16 0.000000e+00
    outer loop
      vertex   6.595191e+00 3.807735e+00 -7.510000e+01
      vertex   6.595191e+00 -3.807735e+00 7.510000e+01
      vertex   6.595191e+00 -3.807735e+00 -7.510000e+01
    endloop
  endfacet
  facet normal 5.000000e-01 -8.660254e-01 0.000000e+00
    outer loop
      vertex   6.595191e+00 -3.807735e+00 7.510000e+01
      vertex   -1.627749e-15 -7.615470e+00 7.510000e+01
      vertex   6.595191e+00 -3.807735e+00 -7.510000e+01
    endloop
  endfacet
  facet normal 5.000000e-01 -8.660254e-01 0.000000e+00
    outer loop
      vertex   6.595191e+00 -3.807735e+00 -7.510000e+01
      vertex   -1.627749e-15 -7.615470e+00 7.510000e+01
      vertex   -1.627749e-15 -7.615470e+00 -7.510000e+01
    endloop
  endfacet
  facet normal -5.000000e-01 -8.660254e-01 -0.000000e+00
    outer loop
      vertex   -1.627749e-15 -7.615470e+00 7.510000e+01
      vertex   -6.595191e+00 -3.807735e+00 7.510000e+01
      vertex   -1.627749e-15 -7.615470e+00 -7.510000e+01
    endloop
  endfacet
  facet normal -5.000000e-01 -8.660254e-01 0.000000e+00
    outer loop
      vertex   -1.627749e-15 -7.615470e+00 -7.510000e+01
      vertex   -6.595191e+00 -3.807735e+00 7.510000e+01
      vertex   -6.595191e+00 -3.807735e+00 -7.510000e+01
    endloop
  endfacet
  facet normal -1.000000e+00 0.000000e+00 0.000000e+00
    outer loop
      vertex   -6.595191e+00 -3.807735e+00 7.510000e+01
      vertex   -6.595191e+00 3.807735e+00 7.510000e+01
      vertex   -6.595191e+00 -3.807735e+00 -7.510000e+01
    endloop
  endfacet
  facet normal -1.000000e+00 0.000000e+00 0.000000e+00
    outer loop
      vertex   -6.595191e+00 -3.807735e+00 -7.510000e+01
      vertex   -6.595191e+00 3.807735e+00 7.510000e+01
      vertex   -6.595191e+00 3.807735e+00 -7.510000e+01
    endloop
  endfacet
  facet normal 0.000000e+00 0.000000e+00 1.000000e+00
    outer loop
      vertex   -6.762774e-03 -4.441996e+00 7.510000e+01
      vertex   1.132372e-01 -4.441996e+00 7.510000e+01
      vertex   -6.762774e-03 4.568004e+00 7.510000e+01
    endloop
  endfacet
  facet normal -0.000000e+00 0.000000e+00 1.000000e+00
    outer loop
      vertex   -6.762774e-03 4.568004e+00 7.510000e+01
      vertex   1.132372e-01 -4.441996e+00 7.510000e+01
      vertex   1.132372e-01 4.568004e+00 7.510000e+01
    endloop
  endfacet
  facet normal 0.000000e+00 0.000000e+00 1.000000e+00
    outer loop
      vertex   -6.762774e-03 4.568004e+00 7.510000e+01
      vertex   1.132372e-01 4.568004e+00 7.510000e+01
      vertex   -7.083454e-16 7.615470e+00 7.510000e+01
    endloop
  endfacet
  facet normal 0.000000e+00 0.000000e+00 1.000000e+00
    outer loop
      vertex   -7.083454e-16 7.615470e+00 7.510000e+01
      vertex   1.132372e-01 4.568004e+00 7.510000e+01
      vertex   4.493237e+00 4.568004e+00 7.510000e+01
    endloop
  endfacet
  facet normal 0.000000e+00 0.000000e+00 1.000000e+00
    outer loop
      vertex   -7.083454e-16 7.615470e+00 7.510000e+01
      vertex   4.493237e+00 4.568004e+00 7.510000e+01
      vertex   6.595191e+00 3.807735e+00 7.510000e+01
    endloop
  endfacet
  facet normal 0.000000e+00 0.000000e+00 1.000000e+00
    outer loop
      vertex   6.595191e+00 3.807735e+00 7.510000e+01
      vertex   4.493237e+00 4.568004e+00 7.510000e+01
      vertex   4.493237e+00 -4.441996e+00 7.510000e+01
    endloop
  endfacet
  facet normal 0.000000e+00 0.000000e+00 1.000000e+00
    outer loop
      vertex   6.595191e+00 3.807735e+00 7.510000e+01
      vertex   4.493237e+00 -4.441996e+00 7.510000e+01
      vertex   6.595191e+00 -3.807735e+00 7.510000e+01
    endloop
  endfacet
  facet normal 0.000000e+00 0.000000e+00 1.000000e+00
    outer loop
      vertex   6.595191e+00 -3.807735e+00 7.510000e+01
      vertex   4.493237e+00 -4.441996e+00 7.510000e+01
      vertex   -1.627749e-15 -7.615470e+00 7.510000e+01
    endloop
  endfacet
  facet normal 0.000000e+00 0.000000e+00 1.000000e+00
    outer loop
      vertex   -1.627749e-15 -7.615470e+00 7.510000e+01
      vertex   4.493237e+00 -4.441996e+00 7.510000e+01
      vertex   1.132372e-01 -4.441996e+00 7.510000e+01
    endloop
  endfacet
  facet normal 0.000000e+00 -0.000000e+00 1.000000e+00
    outer loop
      vertex   -1.627749e-15 -7.615470e+00 7.510000e+01
      vertex   1.132372e-01 -4.441996e+00 7.510000e+01
      vertex   -6.762774e-03 -4.441996e+00 7.510000e+01
    endloop
  endfacet
  facet normal 0.000000e+00 0.000000e+00 1.000000e+00
    outer loop
      vertex   -6.762774e-03 -4.441996e+00 7.510000e+01
      vertex   -4.386763e+00 -4.441996e+00 7.510000e+01
      vertex   -1.627749e-15 -7.615470e+00 7.510000e+01
    endloop
  endfacet
  facet normal 0.000000e+00 0.000000e+00 1.000000e+00
    outer loop
      vertex   -1.627749e-15 -7.615470e+00 7.510000e+01
      vertex   -4.386763e+00 -4.441996e+00 7.510000e+01
      vertex   -6.595191e+00 -3.807735e+00 7.510000e+01
    endloop
  endfacet
  facet normal -0.000000e+00 0.000000e+00 1.000000e+00
    outer loop
      vertex   -6.595191e+00 -3.807735e+00 7.510000e+01
      vertex   -4.386763e+00 -4.441996e+00 7.510000e+01
      vertex   -6.595191e+00 3.807735e+00 7.510000e+01
    endloop
  endfacet
  facet normal -0.000000e+00 0.000000e+00 1.000000e+00
    outer loop
      vertex   -6.595191e+00 3.807735e+00 7.510000e+01
      vertex   -4.386763e+00 -4.441996e+00 7.510000e+01
      vertex   -4.386763e+00 4.568004e+00 7.510000e+01
    endloop
  endfacet
  facet normal 0.000000e+00 0.000000e+00 1.000000e+00
    outer loop
      vertex   -6.595191e+00 3.807735e+00 7.510000e+01
      vertex   -4.386763e+00 4.568004e+00 7.510000e+01
      vertex   -7.083454e-16 7.615470e+00 7.510000e+01
    endloop
  endfacet
  facet normal 0.000000e+00 0.000000e+00 1.000000e+00
    outer loop
      vertex   -7.083454e-16 7.615470e+00 7.510000e+01
      vertex   -4.386763e+00 4.568004e+00 7.510000e+01
      vertex   -6.762774e-03 4.568004e+00 7.510000e+01
    endloop
  endfacet
  facet normal 1.000000e+00 -7.701325e-18 -1.480862e-17
    outer loop
      vertex   -6.762774e-03 -4.441996e+00 7.510000e+01
      vertex   -6.762774e-03 4.568004e+00 7.510000e+01
      vertex   -6.762774e-03 -4.441996e+00 7.674000e+01
    endloop
  endfacet
  facet normal 1.000000e+00 -7.701325e-18 -1.480862e-17
    outer loop
      vertex   -6.762774e-03 -4.441996e+00 7.674000e+01
      vertex   -6.762774e-03 4.568004e+00 7.510000e+01
      vertex   -6.762774e-03 4.568004e+00 7.674000e+01
    endloop
  endfacet
  facet normal 0.000000e+00 1.000000e+00 -0.000000e+00
    outer loop
      vertex   4.493237e+00 4.568004e+00 7.510000e+01
      vertex   1.132372e-01 4.568004e+00 7.510000e+01
      vertex   4.493237e+00 4.568004e+00 7.674000e+01
    endloop
  endfacet
  facet normal 0.000000e+00 1.000000e+00 0.000000e+00
    outer loop
      vertex   4.493237e+00 4.568004e+00 7.674000e+01
      vertex   1.132372e-01 4.568004e+00 7.510000e+01
      vertex   1.132372e-01 4.568004e+00 7.674000e+01
    endloop
  endfacet
endsolid
