solid 
facet normal -1 -0 -0
 outer loop
  vertex 0.635 -2.09 125
  vertex 0.635 -2.09 126.64
  vertex 0.635 2.09 126.64
 endloop
endfacet
facet normal -1 -0 0
 outer loop
  vertex 0.635 -2.09 125
  vertex 0.635 2.09 126.64
  vertex 0.635 2.09 125
 endloop
endfacet
facet normal 0 1 0
 outer loop
  vertex 0.635 2.09 125
  vertex 0.635 2.09 126.64
  vertex 4.8149996 2.09 126.64
 endloop
endfacet
facet normal 0 1 -0
 outer loop
  vertex 0.635 2.09 125
  vertex 4.8149996 2.09 126.64
  vertex 4.8149996 2.09 125
 endloop
endfacet
facet normal 1 -0 0
 outer loop
  vertex 4.8149996 2.09 125
  vertex 4.8149996 2.09 126.64
  vertex 4.8149996 -2.09 126.64
 endloop
endfacet
facet normal 1 -0 0
 outer loop
  vertex 4.8149996 2.09 125
  vertex 4.8149996 -2.09 126.64
  vertex 4.8149996 -2.09 125
 endloop
endfacet
facet normal 0 -1 0
 outer loop
  vertex 4.8149996 -2.09 125
  vertex 4.8149996 -2.09 126.64
  vertex 0.635 -2.09 126.64
 endloop
endfacet
facet normal 0 -1 0
 outer loop
  vertex 4.8149996 -2.09 125
  vertex 0.635 -2.09 126.64
  vertex 0.635 -2.09 125
 endloop
endfacet
facet normal 0 0 -1
 outer loop
  vertex 0.635 2.09 125
  vertex 4.8149996 2.09 125
  vertex 4.8149996 -2.09 125
 endloop
endfacet
facet normal 0 0 -1
 outer loop
  vertex 0.635 2.09 125
  vertex 4.8149996 -2.09 125
  vertex 0.635 -2.09 125
 endloop
endfacet
facet normal 0 0 1
 outer loop
  vertex 4.8149996 2.09 126.64
  vertex 0.635 2.09 126.64
  vertex 0.635 -2.09 126.64
 endloop
endfacet
facet normal 0 -0 1
 outer loop
  vertex 4.8149996 2.09 126.64
  vertex 0.635 -2.09 126.64
  vertex 4.8149996 -2.09 126.64
 endloop
endfacet
endsolid 
