solid 
facet normal 0.5 0.8660254 0
 outer loop
  vertex 0 3.5 -125
  vertex 0 3.5 125
  vertex 3.0310888 1.75 125
 endloop
endfacet
facet normal 0.5 0.8660254 -0
 outer loop
  vertex 0 3.5 -125
  vertex 3.0310888 1.75 125
  vertex 3.0310888 1.75 -125
 endloop
endfacet
facet normal 1 -0 0
 outer loop
  vertex 3.0310888 1.75 -125
  vertex 3.0310888 1.75 125
  vertex 3.0310888 -1.75 125
 endloop
endfacet
facet normal 1 -0 0
 outer loop
  vertex 3.0310888 1.75 -125
  vertex 3.0310888 -1.75 125
  vertex 3.0310888 -1.75 -125
 endloop
endfacet
facet normal 0.5 -0.8660254 0
 outer loop
  vertex 3.0310888 -1.75 -125
  vertex 3.0310888 -1.75 125
  vertex 0 -3.5 125
 endloop
endfacet
facet normal 0.5 -0.8660254 0
 outer loop
  vertex 3.0310888 -1.75 -125
  vertex 0 -3.5 125
  vertex 0 -3.5 -125
 endloop
endfacet
facet normal -0.5 -0.8660254 -0
 outer loop
  vertex 0 -3.5 -125
  vertex 0 -3.5 125
  vertex -3.0310888 -1.75 125
 endloop
endfacet
facet normal -0.5 -0.8660254 0
 outer loop
  vertex 0 -3.5 -125
  vertex -3.0310888 -1.75 125
  vertex -3.0310888 -1.75 -125
 endloop
endfacet
facet normal 0 0 1
 outer loop
  vertex 3.0310888 -1.75 125
  vertex 3.0310888 1.75 125
  vertex 0 3.5 125
 endloop
endfacet
facet normal 0 0 1
 outer loop
  vertex 0 3.5 125
  vertex -3.0310888 1.75 125
  vertex -3.0310888 -1.75 125
 endloop
endfacet
facet normal 0 0 1
 outer loop
  vertex -3.0310888 -1.75 125
  vertex 0 -3.5 125
  vertex 3.0310888 -1.75 125
 endloop
endfacet
facet normal 0 -0 1
 outer loop
  vertex 0 3.5 125
  vertex -3.0310888 -1.75 125
  vertex 3.0310888 -1.75 125
 endloop
endfacet
facet normal -1 -0 -0
 outer loop
  vertex -3.0310888 -1.75 -125
  vertex -3.0310888 -1.75 125
  vertex -3.0310888 1.75 125
 endloop
endfacet
facet normal -1 -0 0
 outer loop
  vertex -3.0310888 -1.75 -125
  vertex -3.0310888 1.75 125
  vertex -3.0310888 1.75 -125
 endloop
endfacet
facet normal -0.5 0.8660254 0
 outer loop
  vertex -3.0310888 1.75 -125
  vertex -3.0310888 1.75 125
  vertex 0 3.5 125
 endloop
endfacet
facet normal -0.5 0.8660254 0
 outer loop
  vertex -3.0310888 1.75 -125
  vertex 0 3.5 125
  vertex 0 3.5 -125
 endloop
endfacet
facet normal -0 0 -1
 outer loop
  vertex -3.0310888 1.75 -125
  vertex 0 3.5 -125
  vertex 3.0310888 1.75 -125
 endloop
endfacet
facet normal 0 0 -1
 outer loop
  vertex 3.0310888 1.75 -125
  vertex 3.0310888 -1.75 -125
  vertex 0 -3.5 -125
 endloop
endfacet
facet normal 0 0 -1
 outer loop
  vertex 0 -3.5 -125
  vertex -3.0310888 -1.75 -125
  vertex -3.0310888 1.75 -125
 endloop
endfacet
facet normal 0 0 -1
 outer loop
  vertex 3.0310888 1.75 -125
  vertex 0 -3.5 -125
  vertex -3.0310888 1.75 -125
 endloop
endfacet
endsolid 
