solid 
facet normal 0 1 0
 outer loop
  vertex -3.05 5.282755 -125
  vertex -3.05 5.282755 125
  vertex 3.0499997 5.282755 125
 endloop
endfacet
facet normal 0 1 -0
 outer loop
  vertex -3.05 5.282755 -125
  vertex 3.0499997 5.282755 125
  vertex 3.0499997 5.282755 -125
 endloop
endfacet
facet normal 0.8660254 0.50000006 0
 outer loop
  vertex 3.0499997 5.282755 -125
  vertex 3.0499997 5.282755 125
  vertex 6.1 0 125
 endloop
endfacet
facet normal 0.8660254 0.50000006 -0
 outer loop
  vertex 3.0499997 5.282755 -125
  vertex 6.1 0 125
  vertex 6.1 0 -125
 endloop
endfacet
facet normal 0.8660254 -0.5 0
 outer loop
  vertex 6.1 0 -125
  vertex 6.1 0 125
  vertex 3.05 -5.282755 125
 endloop
endfacet
facet normal 0.8660254 -0.5 0
 outer loop
  vertex 6.1 0 -125
  vertex 3.05 -5.282755 125
  vertex 3.05 -5.282755 -125
 endloop
endfacet
facet normal 0 -1 0
 outer loop
  vertex 3.05 -5.282755 -125
  vertex 3.05 -5.282755 125
  vertex -3.0499997 -5.282755 125
 endloop
endfacet
facet normal 0 -1 0
 outer loop
  vertex 3.05 -5.282755 -125
  vertex -3.0499997 -5.282755 125
  vertex -3.0499997 -5.282755 -125
 endloop
endfacet
facet normal -0 0 1
 outer loop
  vertex 6.1 0 125
  vertex 3.0499997 5.282755 125
  vertex -3.05 5.282755 125
 endloop
endfacet
facet normal 0 -0 1
 outer loop
  vertex -3.05 5.282755 125
  vertex -6.1 0 125
  vertex -3.0499997 -5.282755 125
 endloop
endfacet
facet normal 0 0 1
 outer loop
  vertex -3.0499997 -5.282755 125
  vertex 3.05 -5.282755 125
  vertex 6.1 0 125
 endloop
endfacet
facet normal 0 0 1
 outer loop
  vertex -3.05 5.282755 125
  vertex -3.0499997 -5.282755 125
  vertex 6.1 0 125
 endloop
endfacet
facet normal -0.8660254 -0.50000006 -0
 outer loop
  vertex -3.0499997 -5.282755 -125
  vertex -3.0499997 -5.282755 125
  vertex -6.1 0 125
 endloop
endfacet
facet normal -0.8660254 -0.50000006 0
 outer loop
  vertex -3.0499997 -5.282755 -125
  vertex -6.1 0 125
  vertex -6.1 0 -125
 endloop
endfacet
facet normal -0.8660254 0.5 0
 outer loop
  vertex -6.1 0 -125
  vertex -6.1 0 125
  vertex -3.05 5.282755 125
 endloop
endfacet
facet normal -0.8660254 0.5 0
 outer loop
  vertex -6.1 0 -125
  vertex -3.05 5.282755 125
  vertex -3.05 5.282755 -125
 endloop
endfacet
facet normal -0 0 -1
 outer loop
  vertex -6.1 0 -125
  vertex -3.05 5.282755 -125
  vertex 3.0499997 5.282755 -125
 endloop
endfacet
facet normal 0 0 -1
 outer loop
  vertex 3.0499997 5.282755 -125
  vertex 6.1 0 -125
  vertex 3.05 -5.282755 -125
 endloop
endfacet
facet normal 0 0 -1
 outer loop
  vertex 3.05 -5.282755 -125
  vertex -3.0499997 -5.282755 -125
  vertex -6.1 0 -125
 endloop
endfacet
facet normal 0 0 -1
 outer loop
  vertex 3.0499997 5.282755 -125
  vertex 3.05 -5.282755 -125
  vertex -6.1 0 -125
 endloop
endfacet
endsolid 
