solid 
facet normal -1 -0 -0
 outer loop
  vertex -4.205 0.025000095 125
  vertex -4.205 0.025000095 126.64
  vertex -4.205 4.205 126.64
 endloop
endfacet
facet normal -1 -0 0
 outer loop
  vertex -4.205 0.025000095 125
  vertex -4.205 4.205 126.64
  vertex -4.205 4.205 125
 endloop
endfacet
facet normal 0 1 0
 outer loop
  vertex -4.205 4.205 125
  vertex -4.205 4.205 126.64
  vertex -0.025000095 4.205 126.64
 endloop
endfacet
facet normal 0 1 -0
 outer loop
  vertex -4.205 4.205 125
  vertex -0.025000095 4.205 126.64
  vertex -0.025000095 4.205 125
 endloop
endfacet
facet normal 1 -0 0
 outer loop
  vertex -0.025000095 4.205 125
  vertex -0.025000095 4.205 126.64
  vertex -0.025000095 0.025000095 126.64
 endloop
endfacet
facet normal 1 -0 0
 outer loop
  vertex -0.025000095 4.205 125
  vertex -0.025000095 0.025000095 126.64
  vertex -0.025000095 0.025000095 125
 endloop
endfacet
facet normal 0 -1 0
 outer loop
  vertex -0.025000095 0.025000095 125
  vertex -0.025000095 0.025000095 126.64
  vertex -4.205 0.025000095 126.64
 endloop
endfacet
facet normal 0 -1 0
 outer loop
  vertex -0.025000095 0.025000095 125
  vertex -4.205 0.025000095 126.64
  vertex -4.205 0.025000095 125
 endloop
endfacet
facet normal 0 0 -1
 outer loop
  vertex -4.205 4.205 125
  vertex -0.025000095 4.205 125
  vertex -0.025000095 0.025000095 125
 endloop
endfacet
facet normal 0 0 -1
 outer loop
  vertex -4.205 4.205 125
  vertex -0.025000095 0.025000095 125
  vertex -4.205 0.025000095 125
 endloop
endfacet
facet normal 0 0 1
 outer loop
  vertex -0.025000095 4.205 126.64
  vertex -4.205 4.205 126.64
  vertex -4.205 0.025000095 126.64
 endloop
endfacet
facet normal 0 -0 1
 outer loop
  vertex -0.025000095 4.205 126.64
  vertex -4.205 0.025000095 126.64
  vertex -0.025000095 0.025000095 126.64
 endloop
endfacet
endsolid 
