solid 
facet normal 0.5 0.8660254 0
 outer loop
  vertex 0 6.7 -125
  vertex 0 6.7 125
  vertex 5.80237 3.35 125
 endloop
endfacet
facet normal 0.5 0.8660254 -0
 outer loop
  vertex 0 6.7 -125
  vertex 5.80237 3.35 125
  vertex 5.80237 3.35 -125
 endloop
endfacet
facet normal 1 -0 0
 outer loop
  vertex 5.80237 3.35 -125
  vertex 5.80237 3.35 125
  vertex 5.80237 -3.35 125
 endloop
endfacet
facet normal 1 -0 0
 outer loop
  vertex 5.80237 3.35 -125
  vertex 5.80237 -3.35 125
  vertex 5.80237 -3.35 -125
 endloop
endfacet
facet normal 0.5 -0.8660254 0
 outer loop
  vertex 5.80237 -3.35 -125
  vertex 5.80237 -3.35 125
  vertex 0 -6.7 125
 endloop
endfacet
facet normal 0.5 -0.8660254 0
 outer loop
  vertex 5.80237 -3.35 -125
  vertex 0 -6.7 125
  vertex 0 -6.7 -125
 endloop
endfacet
facet normal -0.5 -0.8660254 -0
 outer loop
  vertex 0 -6.7 -125
  vertex 0 -6.7 125
  vertex -5.80237 -3.35 125
 endloop
endfacet
facet normal -0.5 -0.8660254 0
 outer loop
  vertex 0 -6.7 -125
  vertex -5.80237 -3.35 125
  vertex -5.80237 -3.35 -125
 endloop
endfacet
facet normal 0 0 1
 outer loop
  vertex 5.80237 -3.35 125
  vertex 5.80237 3.35 125
  vertex 0 6.7 125
 endloop
endfacet
facet normal 0 0 1
 outer loop
  vertex 0 6.7 125
  vertex -5.80237 3.35 125
  vertex -5.80237 -3.35 125
 endloop
endfacet
facet normal 0 0 1
 outer loop
  vertex -5.80237 -3.35 125
  vertex 0 -6.7 125
  vertex 5.80237 -3.35 125
 endloop
endfacet
facet normal 0 -0 1
 outer loop
  vertex 0 6.7 125
  vertex -5.80237 -3.35 125
  vertex 5.80237 -3.35 125
 endloop
endfacet
facet normal -1 -0 -0
 outer loop
  vertex -5.80237 -3.35 -125
  vertex -5.80237 -3.35 125
  vertex -5.80237 3.35 125
 endloop
endfacet
facet normal -1 -0 0
 outer loop
  vertex -5.80237 -3.35 -125
  vertex -5.80237 3.35 125
  vertex -5.80237 3.35 -125
 endloop
endfacet
facet normal -0.5 0.8660254 0
 outer loop
  vertex -5.80237 3.35 -125
  vertex -5.80237 3.35 125
  vertex 0 6.7 125
 endloop
endfacet
facet normal -0.5 0.8660254 0
 outer loop
  vertex -5.80237 3.35 -125
  vertex 0 6.7 125
  vertex 0 6.7 -125
 endloop
endfacet
facet normal -0 0 -1
 outer loop
  vertex -5.80237 3.35 -125
  vertex 0 6.7 -125
  vertex 5.80237 3.35 -125
 endloop
endfacet
facet normal 0 0 -1
 outer loop
  vertex 5.80237 3.35 -125
  vertex 5.80237 -3.35 -125
  vertex 0 -6.7 -125
 endloop
endfacet
facet normal 0 0 -1
 outer loop
  vertex 0 -6.7 -125
  vertex -5.80237 -3.35 -125
  vertex -5.80237 3.35 -125
 endloop
endfacet
facet normal 0 0 -1
 outer loop
  vertex 5.80237 3.35 -125
  vertex 0 -6.7 -125
  vertex -5.80237 3.35 -125
 endloop
endfacet
endsolid 
