solid ASCII
  facet normal 0.000000e+00 1.000000e+00 -0.000000e+00
    outer loop
      vertex   -1.500000e+01 6.730000e+02 -1.766178e+02
      vertex   -1.500000e+01 6.730000e+02 -1.176178e+02
      vertex   1.500000e+01 6.730000e+02 -1.766178e+02
    endloop
  endfacet
  facet normal 0.000000e+00 1.000000e+00 0.000000e+00
    outer loop
      vertex   1.500000e+01 6.730000e+02 -1.766178e+02
      vertex   -1.500000e+01 6.730000e+02 -1.176178e+02
      vertex   1.500000e+01 6.730000e+02 -1.176178e+02
    endloop
  endfacet
  facet normal 0.000000e+00 -1.000000e+00 0.000000e+00
    outer loop
      vertex   1.500000e+01 5.080000e+02 -1.996178e+02
      vertex   1.500000e+01 5.080000e+02 -9.461780e+01
      vertex   -1.500000e+01 5.080000e+02 -1.996178e+02
    endloop
  endfacet
  facet normal 0.000000e+00 -1.000000e+00 0.000000e+00
    outer loop
      vertex   -1.500000e+01 5.080000e+02 -1.996178e+02
      vertex   1.500000e+01 5.080000e+02 -9.461780e+01
      vertex   -1.500000e+01 5.080000e+02 -9.461780e+01
    endloop
  endfacet
  facet normal 0.000000e+00 1.380591e-01 -9.904240e-01
    outer loop
      vertex   1.500000e+01 5.080000e+02 -1.996178e+02
      vertex   -1.500000e+01 5.080000e+02 -1.996178e+02
      vertex   1.500000e+01 6.730000e+02 -1.766178e+02
    endloop
  endfacet
  facet normal 0.000000e+00 1.380591e-01 -9.904240e-01
    outer loop
      vertex   1.500000e+01 6.730000e+02 -1.766178e+02
      vertex   -1.500000e+01 5.080000e+02 -1.996178e+02
      vertex   -1.500000e+01 6.730000e+02 -1.766178e+02
    endloop
  endfacet
  facet normal -1.000000e+00 -1.209871e-17 -6.767074e-17
    outer loop
      vertex   -1.500000e+01 5.080000e+02 -1.996178e+02
      vertex   -1.500000e+01 5.080000e+02 -9.461780e+01
      vertex   -1.500000e+01 6.730000e+02 -1.766178e+02
    endloop
  endfacet
  facet normal -1.000000e+00 -8.393674e-18 -6.021549e-17
    outer loop
      vertex   -1.500000e+01 6.730000e+02 -1.766178e+02
      vertex   -1.500000e+01 5.080000e+02 -9.461780e+01
      vertex   -1.500000e+01 6.730000e+02 -1.176178e+02
    endloop
  endfacet
  facet normal -0.000000e+00 1.380591e-01 9.904240e-01
    outer loop
      vertex   -1.500000e+01 5.080000e+02 -9.461780e+01
      vertex   1.500000e+01 5.080000e+02 -9.461780e+01
      vertex   -1.500000e+01 6.730000e+02 -1.176178e+02
    endloop
  endfacet
  facet normal -0.000000e+00 1.380591e-01 9.904240e-01
    outer loop
      vertex   -1.500000e+01 6.730000e+02 -1.176178e+02
      vertex   1.500000e+01 5.080000e+02 -9.461780e+01
      vertex   1.500000e+01 6.730000e+02 -1.176178e+02
    endloop
  endfacet
  facet normal 1.000000e+00 9.432891e-18 6.767074e-17
    outer loop
      vertex   1.500000e+01 5.080000e+02 -9.461780e+01
      vertex   1.500000e+01 5.080000e+02 -1.996178e+02
      vertex   1.500000e+01 6.730000e+02 -1.176178e+02
    endloop
  endfacet
  facet normal 1.000000e+00 1.313792e-17 6.021549e-17
    outer loop
      vertex   1.500000e+01 6.730000e+02 -1.176178e+02
      vertex   1.500000e+01 5.080000e+02 -1.996178e+02
      vertex   1.500000e+01 6.730000e+02 -1.766178e+02
    endloop
  endfacet
endsolid
