solid ASCII
  facet normal 8.660254e-01 0.000000e+00 -5.000000e-01
    outer loop
      vertex   -3.431852e+01 -5.080000e+02 -8.944141e+01
      vertex   -8.681852e+01 -5.080000e+02 -1.803741e+02
      vertex   -3.431852e+01 5.080000e+02 -8.944141e+01
    endloop
  endfacet
  facet normal 8.660254e-01 -3.916244e-18 -5.000000e-01
    outer loop
      vertex   -3.431852e+01 5.080000e+02 -8.944141e+01
      vertex   -8.681852e+01 -5.080000e+02 -1.803741e+02
      vertex   -8.681852e+01 5.080000e+02 -1.803741e+02
    endloop
  endfacet
  facet normal 5.000000e-01 -0.000000e+00 8.660254e-01
    outer loop
      vertex   -6.029928e+01 -5.080000e+02 -7.444141e+01
      vertex   -3.431852e+01 -5.080000e+02 -8.944141e+01
      vertex   -6.029928e+01 5.080000e+02 -7.444141e+01
    endloop
  endfacet
  facet normal 5.000000e-01 0.000000e+00 8.660254e-01
    outer loop
      vertex   -6.029928e+01 5.080000e+02 -7.444141e+01
      vertex   -3.431852e+01 -5.080000e+02 -8.944141e+01
      vertex   -3.431852e+01 5.080000e+02 -8.944141e+01
    endloop
  endfacet
  facet normal -8.660254e-01 0.000000e+00 5.000000e-01
    outer loop
      vertex   -1.127993e+02 -5.080000e+02 -1.653741e+02
      vertex   -6.029928e+01 -5.080000e+02 -7.444141e+01
      vertex   -1.127993e+02 5.080000e+02 -1.653741e+02
    endloop
  endfacet
  facet normal -8.660254e-01 -3.916244e-18 5.000000e-01
    outer loop
      vertex   -1.127993e+02 5.080000e+02 -1.653741e+02
      vertex   -6.029928e+01 -5.080000e+02 -7.444141e+01
      vertex   -6.029928e+01 5.080000e+02 -7.444141e+01
    endloop
  endfacet
  facet normal -5.000000e-01 0.000000e+00 -8.660254e-01
    outer loop
      vertex   -8.681852e+01 -5.080000e+02 -1.803741e+02
      vertex   -1.127993e+02 -5.080000e+02 -1.653741e+02
      vertex   -8.681852e+01 5.080000e+02 -1.803741e+02
    endloop
  endfacet
  facet normal -5.000000e-01 0.000000e+00 -8.660254e-01
    outer loop
      vertex   -8.681852e+01 5.080000e+02 -1.803741e+02
      vertex   -1.127993e+02 -5.080000e+02 -1.653741e+02
      vertex   -1.127993e+02 5.080000e+02 -1.653741e+02
    endloop
  endfacet
  facet normal -0.000000e+00 1.000000e+00 0.000000e+00
    outer loop
      vertex   -1.127993e+02 5.080000e+02 -1.653741e+02
      vertex   -6.029928e+01 5.080000e+02 -7.444141e+01
      vertex   -8.681852e+01 5.080000e+02 -1.803741e+02
    endloop
  endfacet
  facet normal 0.000000e+00 1.000000e+00 0.000000e+00
    outer loop
      vertex   -8.681852e+01 5.080000e+02 -1.803741e+02
      vertex   -6.029928e+01 5.080000e+02 -7.444141e+01
      vertex   -3.431852e+01 5.080000e+02 -8.944141e+01
    endloop
  endfacet
  facet normal 0.000000e+00 -1.000000e+00 0.000000e+00
    outer loop
      vertex   -1.127993e+02 -5.080000e+02 -1.653741e+02
      vertex   -8.681852e+01 -5.080000e+02 -1.803741e+02
      vertex   -6.029928e+01 -5.080000e+02 -7.444141e+01
    endloop
  endfacet
  facet normal 0.000000e+00 -1.000000e+00 -0.000000e+00
    outer loop
      vertex   -6.029928e+01 -5.080000e+02 -7.444141e+01
      vertex   -8.681852e+01 -5.080000e+02 -1.803741e+02
      vertex   -3.431852e+01 -5.080000e+02 -8.944141e+01
    endloop
  endfacet
endsolid
