solid ASCII
  facet normal 0.000000e+00 0.000000e+00 1.000000e+00
    outer loop
      vertex   9.461780e+01 -5.080000e+02 1.500000e+01
      vertex   1.996178e+02 -5.080000e+02 1.500000e+01
      vertex   9.461780e+01 5.080000e+02 1.500000e+01
    endloop
  endfacet
  facet normal -0.000000e+00 0.000000e+00 1.000000e+00
    outer loop
      vertex   9.461780e+01 5.080000e+02 1.500000e+01
      vertex   1.996178e+02 -5.080000e+02 1.500000e+01
      vertex   1.996178e+02 5.080000e+02 1.500000e+01
    endloop
  endfacet
  facet normal -1.000000e+00 0.000000e+00 0.000000e+00
    outer loop
      vertex   9.461780e+01 -5.080000e+02 -1.500000e+01
      vertex   9.461780e+01 -5.080000e+02 1.500000e+01
      vertex   9.461780e+01 5.080000e+02 -1.500000e+01
    endloop
  endfacet
  facet normal -1.000000e+00 0.000000e+00 0.000000e+00
    outer loop
      vertex   9.461780e+01 5.080000e+02 -1.500000e+01
      vertex   9.461780e+01 -5.080000e+02 1.500000e+01
      vertex   9.461780e+01 5.080000e+02 1.500000e+01
    endloop
  endfacet
  facet normal 0.000000e+00 0.000000e+00 -1.000000e+00
    outer loop
      vertex   1.996178e+02 -5.080000e+02 -1.500000e+01
      vertex   9.461780e+01 -5.080000e+02 -1.500000e+01
      vertex   1.996178e+02 5.080000e+02 -1.500000e+01
    endloop
  endfacet
  facet normal -0.000000e+00 0.000000e+00 -1.000000e+00
    outer loop
      vertex   1.996178e+02 5.080000e+02 -1.500000e+01
      vertex   9.461780e+01 -5.080000e+02 -1.500000e+01
      vertex   9.461780e+01 5.080000e+02 -1.500000e+01
    endloop
  endfacet
  facet normal 1.000000e+00 -0.000000e+00 0.000000e+00
    outer loop
      vertex   1.996178e+02 -5.080000e+02 1.500000e+01
      vertex   1.996178e+02 -5.080000e+02 -1.500000e+01
      vertex   1.996178e+02 5.080000e+02 1.500000e+01
    endloop
  endfacet
  facet normal 1.000000e+00 0.000000e+00 0.000000e+00
    outer loop
      vertex   1.996178e+02 5.080000e+02 1.500000e+01
      vertex   1.996178e+02 -5.080000e+02 -1.500000e+01
      vertex   1.996178e+02 5.080000e+02 -1.500000e+01
    endloop
  endfacet
  facet normal 0.000000e+00 1.000000e+00 0.000000e+00
    outer loop
      vertex   1.996178e+02 5.080000e+02 1.500000e+01
      vertex   1.996178e+02 5.080000e+02 -1.500000e+01
      vertex   9.461780e+01 5.080000e+02 1.500000e+01
    endloop
  endfacet
  facet normal 0.000000e+00 1.000000e+00 0.000000e+00
    outer loop
      vertex   9.461780e+01 5.080000e+02 1.500000e+01
      vertex   1.996178e+02 5.080000e+02 -1.500000e+01
      vertex   9.461780e+01 5.080000e+02 -1.500000e+01
    endloop
  endfacet
  facet normal -0.000000e+00 -1.000000e+00 -0.000000e+00
    outer loop
      vertex   1.996178e+02 -5.080000e+02 1.500000e+01
      vertex   9.461780e+01 -5.080000e+02 1.500000e+01
      vertex   1.996178e+02 -5.080000e+02 -1.500000e+01
    endloop
  endfacet
  facet normal 0.000000e+00 -1.000000e+00 0.000000e+00
    outer loop
      vertex   1.996178e+02 -5.080000e+02 -1.500000e+01
      vertex   9.461780e+01 -5.080000e+02 1.500000e+01
      vertex   9.461780e+01 -5.080000e+02 -1.500000e+01
    endloop
  endfacet
endsolid
