solid ASCII
  facet normal -1.000000e+00 0.000000e+00 -1.860945e-16
    outer loop
      vertex   -1.500000e+01 -5.080000e+02 9.461780e+01
      vertex   -1.500000e+01 -5.080000e+02 1.996178e+02
      vertex   -1.500000e+01 5.080000e+02 9.461780e+01
    endloop
  endfacet
  facet normal -1.000000e+00 0.000000e+00 -1.860945e-16
    outer loop
      vertex   -1.500000e+01 5.080000e+02 9.461780e+01
      vertex   -1.500000e+01 -5.080000e+02 1.996178e+02
      vertex   -1.500000e+01 5.080000e+02 1.996178e+02
    endloop
  endfacet
  facet normal 0.000000e+00 0.000000e+00 -1.000000e+00
    outer loop
      vertex   1.500000e+01 -5.080000e+02 9.461780e+01
      vertex   -1.500000e+01 -5.080000e+02 9.461780e+01
      vertex   1.500000e+01 5.080000e+02 9.461780e+01
    endloop
  endfacet
  facet normal -0.000000e+00 0.000000e+00 -1.000000e+00
    outer loop
      vertex   1.500000e+01 5.080000e+02 9.461780e+01
      vertex   -1.500000e+01 -5.080000e+02 9.461780e+01
      vertex   -1.500000e+01 5.080000e+02 9.461780e+01
    endloop
  endfacet
  facet normal 1.000000e+00 -0.000000e+00 1.860945e-16
    outer loop
      vertex   1.500000e+01 -5.080000e+02 1.996178e+02
      vertex   1.500000e+01 -5.080000e+02 9.461780e+01
      vertex   1.500000e+01 5.080000e+02 1.996178e+02
    endloop
  endfacet
  facet normal 1.000000e+00 1.748383e-18 1.691768e-16
    outer loop
      vertex   1.500000e+01 5.080000e+02 1.996178e+02
      vertex   1.500000e+01 -5.080000e+02 9.461780e+01
      vertex   1.500000e+01 5.080000e+02 9.461780e+01
    endloop
  endfacet
  facet normal 0.000000e+00 0.000000e+00 1.000000e+00
    outer loop
      vertex   -1.500000e+01 -5.080000e+02 1.996178e+02
      vertex   1.500000e+01 -5.080000e+02 1.996178e+02
      vertex   -1.500000e+01 5.080000e+02 1.996178e+02
    endloop
  endfacet
  facet normal -0.000000e+00 0.000000e+00 1.000000e+00
    outer loop
      vertex   -1.500000e+01 5.080000e+02 1.996178e+02
      vertex   1.500000e+01 -5.080000e+02 1.996178e+02
      vertex   1.500000e+01 5.080000e+02 1.996178e+02
    endloop
  endfacet
  facet normal 0.000000e+00 1.000000e+00 0.000000e+00
    outer loop
      vertex   1.500000e+01 5.080000e+02 1.996178e+02
      vertex   1.500000e+01 5.080000e+02 9.461780e+01
      vertex   -1.500000e+01 5.080000e+02 1.996178e+02
    endloop
  endfacet
  facet normal 0.000000e+00 1.000000e+00 0.000000e+00
    outer loop
      vertex   -1.500000e+01 5.080000e+02 1.996178e+02
      vertex   1.500000e+01 5.080000e+02 9.461780e+01
      vertex   -1.500000e+01 5.080000e+02 9.461780e+01
    endloop
  endfacet
  facet normal -0.000000e+00 -1.000000e+00 -0.000000e+00
    outer loop
      vertex   1.500000e+01 -5.080000e+02 1.996178e+02
      vertex   -1.500000e+01 -5.080000e+02 1.996178e+02
      vertex   1.500000e+01 -5.080000e+02 9.461780e+01
    endloop
  endfacet
  facet normal 0.000000e+00 -1.000000e+00 0.000000e+00
    outer loop
      vertex   1.500000e+01 -5.080000e+02 9.461780e+01
      vertex   -1.500000e+01 -5.080000e+02 1.996178e+02
      vertex   -1.500000e+01 -5.080000e+02 9.461780e+01
    endloop
  endfacet
endsolid
