solid ASCII
  facet normal 0.000000e+00 1.000000e+00 0.000000e+00
    outer loop
      vertex   1.500000e+01 6.730000e+02 1.766178e+02
      vertex   1.500000e+01 6.730000e+02 1.176178e+02
      vertex   -1.500000e+01 6.730000e+02 1.766178e+02
    endloop
  endfacet
  facet normal 0.000000e+00 1.000000e+00 0.000000e+00
    outer loop
      vertex   -1.500000e+01 6.730000e+02 1.766178e+02
      vertex   1.500000e+01 6.730000e+02 1.176178e+02
      vertex   -1.500000e+01 6.730000e+02 1.176178e+02
    endloop
  endfacet
  facet normal 0.000000e+00 -1.000000e+00 0.000000e+00
    outer loop
      vertex   -1.500000e+01 5.080000e+02 1.996178e+02
      vertex   -1.500000e+01 5.080000e+02 9.461780e+01
      vertex   1.500000e+01 5.080000e+02 1.996178e+02
    endloop
  endfacet
  facet normal 0.000000e+00 -1.000000e+00 -0.000000e+00
    outer loop
      vertex   1.500000e+01 5.080000e+02 1.996178e+02
      vertex   -1.500000e+01 5.080000e+02 9.461780e+01
      vertex   1.500000e+01 5.080000e+02 9.461780e+01
    endloop
  endfacet
  facet normal -0.000000e+00 1.380591e-01 9.904240e-01
    outer loop
      vertex   -1.500000e+01 5.080000e+02 1.996178e+02
      vertex   1.500000e+01 5.080000e+02 1.996178e+02
      vertex   -1.500000e+01 6.730000e+02 1.766178e+02
    endloop
  endfacet
  facet normal -0.000000e+00 1.380591e-01 9.904240e-01
    outer loop
      vertex   -1.500000e+01 6.730000e+02 1.766178e+02
      vertex   1.500000e+01 5.080000e+02 1.996178e+02
      vertex   1.500000e+01 6.730000e+02 1.766178e+02
    endloop
  endfacet
  facet normal 1.000000e+00 4.408851e-18 1.860945e-16
    outer loop
      vertex   1.500000e+01 5.080000e+02 1.996178e+02
      vertex   1.500000e+01 5.080000e+02 9.461780e+01
      vertex   1.500000e+01 6.730000e+02 1.766178e+02
    endloop
  endfacet
  facet normal 1.000000e+00 -7.846260e-18 2.107542e-16
    outer loop
      vertex   1.500000e+01 6.730000e+02 1.766178e+02
      vertex   1.500000e+01 5.080000e+02 9.461780e+01
      vertex   1.500000e+01 6.730000e+02 1.176178e+02
    endloop
  endfacet
  facet normal 0.000000e+00 1.380591e-01 -9.904240e-01
    outer loop
      vertex   1.500000e+01 5.080000e+02 9.461780e+01
      vertex   -1.500000e+01 5.080000e+02 9.461780e+01
      vertex   1.500000e+01 6.730000e+02 1.176178e+02
    endloop
  endfacet
  facet normal 0.000000e+00 1.380591e-01 -9.904240e-01
    outer loop
      vertex   1.500000e+01 6.730000e+02 1.176178e+02
      vertex   -1.500000e+01 5.080000e+02 9.461780e+01
      vertex   -1.500000e+01 6.730000e+02 1.176178e+02
    endloop
  endfacet
  facet normal -1.000000e+00 4.408851e-18 -1.860945e-16
    outer loop
      vertex   -1.500000e+01 5.080000e+02 9.461780e+01
      vertex   -1.500000e+01 5.080000e+02 1.996178e+02
      vertex   -1.500000e+01 6.730000e+02 1.176178e+02
    endloop
  endfacet
  facet normal -1.000000e+00 -7.846260e-18 -2.107542e-16
    outer loop
      vertex   -1.500000e+01 6.730000e+02 1.176178e+02
      vertex   -1.500000e+01 5.080000e+02 1.996178e+02
      vertex   -1.500000e+01 6.730000e+02 1.766178e+02
    endloop
  endfacet
endsolid
