solid ASCII
  facet normal -9.994295e-01 -0.000000e+00 -3.377414e-02
    outer loop
      vertex   -7.245213e+01 5.000000e+00 -4.902409e+00
      vertex   -7.245213e+01 -5.000000e+00 -4.902409e+00
      vertex   -7.261780e+01 5.000000e+00 8.893115e-15
    endloop
  endfacet
  facet normal -9.994295e-01 -0.000000e+00 -3.377414e-02
    outer loop
      vertex   -7.261780e+01 5.000000e+00 8.893115e-15
      vertex   -7.245213e+01 -5.000000e+00 -4.902409e+00
      vertex   -7.261780e+01 -5.000000e+00 8.893115e-15
    endloop
  endfacet
  facet normal -9.994295e-01 0.000000e+00 3.377414e-02
    outer loop
      vertex   -7.261780e+01 5.000000e+00 8.893115e-15
      vertex   -7.261780e+01 -5.000000e+00 8.893115e-15
      vertex   -7.245213e+01 5.000000e+00 4.902409e+00
    endloop
  endfacet
  facet normal -9.994295e-01 0.000000e+00 3.377414e-02
    outer loop
      vertex   -7.245213e+01 5.000000e+00 4.902409e+00
      vertex   -7.261780e+01 -5.000000e+00 8.893115e-15
      vertex   -7.245213e+01 -5.000000e+00 4.902409e+00
    endloop
  endfacet
  facet normal -9.948693e-01 0.000000e+00 1.011683e-01
    outer loop
      vertex   -7.245213e+01 5.000000e+00 4.902409e+00
      vertex   -7.245213e+01 -5.000000e+00 4.902409e+00
      vertex   -7.195587e+01 5.000000e+00 9.782449e+00
    endloop
  endfacet
  facet normal -9.948693e-01 0.000000e+00 1.011683e-01
    outer loop
      vertex   -7.195587e+01 5.000000e+00 9.782449e+00
      vertex   -7.245213e+01 -5.000000e+00 4.902409e+00
      vertex   -7.195587e+01 -5.000000e+00 9.782449e+00
    endloop
  endfacet
  facet normal -9.857698e-01 0.000000e+00 1.681009e-01
    outer loop
      vertex   -7.195587e+01 5.000000e+00 9.782449e+00
      vertex   -7.195587e+01 -5.000000e+00 9.782449e+00
      vertex   -7.113130e+01 5.000000e+00 1.461785e+01
    endloop
  endfacet
  facet normal -9.857698e-01 0.000000e+00 1.681009e-01
    outer loop
      vertex   -7.113130e+01 5.000000e+00 1.461785e+01
      vertex   -7.195587e+01 -5.000000e+00 9.782449e+00
      vertex   -7.113130e+01 -5.000000e+00 1.461785e+01
    endloop
  endfacet
  facet normal -9.721724e-01 0.000000e+00 2.342665e-01
    outer loop
      vertex   -7.113130e+01 5.000000e+00 1.461785e+01
      vertex   -7.113130e+01 -5.000000e+00 1.461785e+01
      vertex   -6.998218e+01 5.000000e+00 1.938656e+01
    endloop
  endfacet
  facet normal -9.721724e-01 0.000000e+00 2.342665e-01
    outer loop
      vertex   -6.998218e+01 5.000000e+00 1.938656e+01
      vertex   -7.113130e+01 -5.000000e+00 1.461785e+01
      vertex   -6.998218e+01 -5.000000e+00 1.938656e+01
    endloop
  endfacet
  facet normal -9.541393e-01 0.000000e+00 2.993631e-01
    outer loop
      vertex   -6.998218e+01 5.000000e+00 1.938656e+01
      vertex   -6.998218e+01 -5.000000e+00 1.938656e+01
      vertex   -6.851374e+01 5.000000e+00 2.406681e+01
    endloop
  endfacet
  facet normal -9.541393e-01 0.000000e+00 2.993631e-01
    outer loop
      vertex   -6.851374e+01 5.000000e+00 2.406681e+01
      vertex   -6.998218e+01 -5.000000e+00 1.938656e+01
      vertex   -6.851374e+01 -5.000000e+00 2.406681e+01
    endloop
  endfacet
  facet normal -9.317526e-01 0.000000e+00 3.630939e-01
    outer loop
      vertex   -6.851374e+01 5.000000e+00 2.406681e+01
      vertex   -6.851374e+01 -5.000000e+00 2.406681e+01
      vertex   -6.673269e+01 5.000000e+00 2.863725e+01
    endloop
  endfacet
  facet normal -9.317526e-01 0.000000e+00 3.630939e-01
    outer loop
      vertex   -6.673269e+01 5.000000e+00 2.863725e+01
      vertex   -6.851374e+01 -5.000000e+00 2.406681e+01
      vertex   -6.673269e+01 -5.000000e+00 2.863725e+01
    endloop
  endfacet
  facet normal -9.051145e-01 0.000000e+00 4.251679e-01
    outer loop
      vertex   -6.673269e+01 5.000000e+00 2.863725e+01
      vertex   -6.673269e+01 -5.000000e+00 2.863725e+01
      vertex   -6.464715e+01 5.000000e+00 3.307703e+01
    endloop
  endfacet
  facet normal -9.051145e-01 0.000000e+00 4.251679e-01
    outer loop
      vertex   -6.464715e+01 5.000000e+00 3.307703e+01
      vertex   -6.673269e+01 -5.000000e+00 2.863725e+01
      vertex   -6.464715e+01 -5.000000e+00 3.307703e+01
    endloop
  endfacet
  facet normal -8.743466e-01 0.000000e+00 4.853020e-01
    outer loop
      vertex   -6.464715e+01 5.000000e+00 3.307703e+01
      vertex   -6.464715e+01 -5.000000e+00 3.307703e+01
      vertex   -6.226665e+01 5.000000e+00 3.736588e+01
    endloop
  endfacet
  facet normal -8.743466e-01 0.000000e+00 4.853020e-01
    outer loop
      vertex   -6.226665e+01 5.000000e+00 3.736588e+01
      vertex   -6.464715e+01 -5.000000e+00 3.307703e+01
      vertex   -6.226665e+01 -5.000000e+00 3.736588e+01
    endloop
  endfacet
  facet normal -8.395893e-01 0.000000e+00 5.432217e-01
    outer loop
      vertex   -6.226665e+01 5.000000e+00 3.736588e+01
      vertex   -6.226665e+01 -5.000000e+00 3.736588e+01
      vertex   -5.960203e+01 5.000000e+00 4.148424e+01
    endloop
  endfacet
  facet normal -8.395893e-01 0.000000e+00 5.432217e-01
    outer loop
      vertex   -5.960203e+01 5.000000e+00 4.148424e+01
      vertex   -6.226665e+01 -5.000000e+00 3.736588e+01
      vertex   -5.960203e+01 -5.000000e+00 4.148424e+01
    endloop
  endfacet
  facet normal -8.010011e-01 0.000000e+00 5.986629e-01
    outer loop
      vertex   -5.960203e+01 5.000000e+00 4.148424e+01
      vertex   -5.960203e+01 -5.000000e+00 4.148424e+01
      vertex   -5.666547e+01 5.000000e+00 4.541331e+01
    endloop
  endfacet
  facet normal -8.010011e-01 0.000000e+00 5.986629e-01
    outer loop
      vertex   -5.666547e+01 5.000000e+00 4.541331e+01
      vertex   -5.960203e+01 -5.000000e+00 4.148424e+01
      vertex   -5.666547e+01 -5.000000e+00 4.541331e+01
    endloop
  endfacet
  facet normal -7.587581e-01 0.000000e+00 6.513725e-01
    outer loop
      vertex   -5.666547e+01 5.000000e+00 4.541331e+01
      vertex   -5.666547e+01 -5.000000e+00 4.541331e+01
      vertex   -5.347035e+01 5.000000e+00 4.913518e+01
    endloop
  endfacet
  facet normal -7.587581e-01 0.000000e+00 6.513725e-01
    outer loop
      vertex   -5.347035e+01 5.000000e+00 4.913518e+01
      vertex   -5.666547e+01 -5.000000e+00 4.541331e+01
      vertex   -5.347035e+01 -5.000000e+00 4.913518e+01
    endloop
  endfacet
  facet normal -7.130531e-01 0.000000e+00 7.011100e-01
    outer loop
      vertex   -5.347035e+01 5.000000e+00 4.913518e+01
      vertex   -5.347035e+01 -5.000000e+00 4.913518e+01
      vertex   -5.003126e+01 5.000000e+00 5.263285e+01
    endloop
  endfacet
  facet normal -7.130531e-01 0.000000e+00 7.011100e-01
    outer loop
      vertex   -5.003126e+01 5.000000e+00 5.263285e+01
      vertex   -5.347035e+01 -5.000000e+00 4.913518e+01
      vertex   -5.003126e+01 -5.000000e+00 5.263285e+01
    endloop
  endfacet
  facet normal -6.640946e-01 0.000000e+00 7.476486e-01
    outer loop
      vertex   -5.003126e+01 5.000000e+00 5.263285e+01
      vertex   -5.003126e+01 -5.000000e+00 5.263285e+01
      vertex   -4.636389e+01 5.000000e+00 5.589038e+01
    endloop
  endfacet
  facet normal -6.640946e-01 0.000000e+00 7.476486e-01
    outer loop
      vertex   -4.636389e+01 5.000000e+00 5.589038e+01
      vertex   -5.003126e+01 -5.000000e+00 5.263285e+01
      vertex   -4.636389e+01 -5.000000e+00 5.589038e+01
    endloop
  endfacet
  facet normal -6.121060e-01 0.000000e+00 7.907757e-01
    outer loop
      vertex   -4.636389e+01 5.000000e+00 5.589038e+01
      vertex   -4.636389e+01 -5.000000e+00 5.589038e+01
      vertex   -4.248497e+01 5.000000e+00 5.889288e+01
    endloop
  endfacet
  facet normal -6.121060e-01 0.000000e+00 7.907757e-01
    outer loop
      vertex   -4.248497e+01 5.000000e+00 5.889288e+01
      vertex   -4.636389e+01 -5.000000e+00 5.589038e+01
      vertex   -4.248497e+01 -5.000000e+00 5.889288e+01
    endloop
  endfacet
  facet normal -5.573245e-01 0.000000e+00 8.302948e-01
    outer loop
      vertex   -4.248497e+01 5.000000e+00 5.889288e+01
      vertex   -4.248497e+01 -5.000000e+00 5.889288e+01
      vertex   -3.841220e+01 5.000000e+00 6.162667e+01
    endloop
  endfacet
  facet normal -5.573245e-01 0.000000e+00 8.302948e-01
    outer loop
      vertex   -3.841220e+01 5.000000e+00 6.162667e+01
      vertex   -4.248497e+01 -5.000000e+00 5.889288e+01
      vertex   -3.841220e+01 -5.000000e+00 6.162667e+01
    endloop
  endfacet
  facet normal -5.000000e-01 0.000000e+00 8.660254e-01
    outer loop
      vertex   -3.841220e+01 5.000000e+00 6.162667e+01
      vertex   -3.841220e+01 -5.000000e+00 6.162667e+01
      vertex   -3.416417e+01 5.000000e+00 6.407928e+01
    endloop
  endfacet
  facet normal -5.000000e-01 0.000000e+00 8.660254e-01
    outer loop
      vertex   -3.416417e+01 5.000000e+00 6.407928e+01
      vertex   -3.841220e+01 -5.000000e+00 6.162667e+01
      vertex   -3.416417e+01 -5.000000e+00 6.407928e+01
    endloop
  endfacet
  facet normal -4.403942e-01 0.000000e+00 8.978045e-01
    outer loop
      vertex   -3.416417e+01 5.000000e+00 6.407928e+01
      vertex   -3.416417e+01 -5.000000e+00 6.407928e+01
      vertex   -2.976025e+01 5.000000e+00 6.623950e+01
    endloop
  endfacet
  facet normal -4.403942e-01 0.000000e+00 8.978045e-01
    outer loop
      vertex   -2.976025e+01 5.000000e+00 6.623950e+01
      vertex   -3.416417e+01 -5.000000e+00 6.407928e+01
      vertex   -2.976025e+01 -5.000000e+00 6.623950e+01
    endloop
  endfacet
  facet normal -3.787789e-01 0.000000e+00 9.254872e-01
    outer loop
      vertex   -2.976025e+01 5.000000e+00 6.623950e+01
      vertex   -2.976025e+01 -5.000000e+00 6.623950e+01
      vertex   -2.522054e+01 5.000000e+00 6.809749e+01
    endloop
  endfacet
  facet normal -3.787789e-01 0.000000e+00 9.254872e-01
    outer loop
      vertex   -2.522054e+01 5.000000e+00 6.809749e+01
      vertex   -2.976025e+01 -5.000000e+00 6.623950e+01
      vertex   -2.522054e+01 -5.000000e+00 6.809749e+01
    endloop
  endfacet
  facet normal -3.154353e-01 0.000000e+00 9.489471e-01
    outer loop
      vertex   -2.522054e+01 5.000000e+00 6.809749e+01
      vertex   -2.522054e+01 -5.000000e+00 6.809749e+01
      vertex   -2.056576e+01 5.000000e+00 6.964477e+01
    endloop
  endfacet
  facet normal -3.154353e-01 0.000000e+00 9.489471e-01
    outer loop
      vertex   -2.056576e+01 5.000000e+00 6.964477e+01
      vertex   -2.522054e+01 -5.000000e+00 6.809749e+01
      vertex   -2.056576e+01 -5.000000e+00 6.964477e+01
    endloop
  endfacet
  facet normal -2.506525e-01 0.000000e+00 9.680771e-01
    outer loop
      vertex   -2.056576e+01 5.000000e+00 6.964477e+01
      vertex   -2.056576e+01 -5.000000e+00 6.964477e+01
      vertex   -1.581714e+01 5.000000e+00 7.087427e+01
    endloop
  endfacet
  facet normal -2.506525e-01 0.000000e+00 9.680771e-01
    outer loop
      vertex   -1.581714e+01 5.000000e+00 7.087427e+01
      vertex   -2.056576e+01 -5.000000e+00 6.964477e+01
      vertex   -1.581714e+01 -5.000000e+00 7.087427e+01
    endloop
  endfacet
  facet normal -1.847261e-01 0.000000e+00 9.827901e-01
    outer loop
      vertex   -1.581714e+01 5.000000e+00 7.087427e+01
      vertex   -1.581714e+01 -5.000000e+00 7.087427e+01
      vertex   -1.099635e+01 5.000000e+00 7.178039e+01
    endloop
  endfacet
  facet normal -1.847261e-01 0.000000e+00 9.827901e-01
    outer loop
      vertex   -1.099635e+01 5.000000e+00 7.178039e+01
      vertex   -1.581714e+01 -5.000000e+00 7.087427e+01
      vertex   -1.099635e+01 -5.000000e+00 7.178039e+01
    endloop
  endfacet
  facet normal -1.179567e-01 0.000000e+00 9.930187e-01
    outer loop
      vertex   -1.099635e+01 5.000000e+00 7.178039e+01
      vertex   -1.099635e+01 -5.000000e+00 7.178039e+01
      vertex   -6.125388e+00 5.000000e+00 7.235899e+01
    endloop
  endfacet
  facet normal -1.179567e-01 0.000000e+00 9.930187e-01
    outer loop
      vertex   -6.125388e+00 5.000000e+00 7.235899e+01
      vertex   -1.099635e+01 -5.000000e+00 7.178039e+01
      vertex   -6.125388e+00 -5.000000e+00 7.235899e+01
    endloop
  endfacet
  facet normal -5.064917e-02 0.000000e+00 9.987165e-01
    outer loop
      vertex   -6.125388e+00 5.000000e+00 7.235899e+01
      vertex   -6.125388e+00 -5.000000e+00 7.235899e+01
      vertex   -1.226477e+00 5.000000e+00 7.260744e+01
    endloop
  endfacet
  facet normal -5.064917e-02 0.000000e+00 9.987165e-01
    outer loop
      vertex   -1.226477e+00 5.000000e+00 7.260744e+01
      vertex   -6.125388e+00 -5.000000e+00 7.235899e+01
      vertex   -1.226477e+00 -5.000000e+00 7.260744e+01
    endloop
  endfacet
  facet normal 1.688948e-02 0.000000e+00 9.998574e-01
    outer loop
      vertex   -1.226477e+00 5.000000e+00 7.260744e+01
      vertex   -1.226477e+00 -5.000000e+00 7.260744e+01
      vertex   3.678031e+00 5.000000e+00 7.252459e+01
    endloop
  endfacet
  facet normal 1.688948e-02 0.000000e+00 9.998574e-01
    outer loop
      vertex   3.678031e+00 5.000000e+00 7.252459e+01
      vertex   -1.226477e+00 -5.000000e+00 7.260744e+01
      vertex   3.678031e+00 -5.000000e+00 7.252459e+01
    endloop
  endfacet
  facet normal 8.435107e-02 0.000000e+00 9.964361e-01
    outer loop
      vertex   3.678031e+00 5.000000e+00 7.252459e+01
      vertex   3.678031e+00 -5.000000e+00 7.252459e+01
      vertex   8.565757e+00 5.000000e+00 7.211083e+01
    endloop
  endfacet
  facet normal 8.435107e-02 0.000000e+00 9.964361e-01
    outer loop
      vertex   8.565757e+00 5.000000e+00 7.211083e+01
      vertex   3.678031e+00 -5.000000e+00 7.252459e+01
      vertex   8.565757e+00 -5.000000e+00 7.211083e+01
    endloop
  endfacet
  facet normal 1.514278e-01 0.000000e+00 9.884683e-01
    outer loop
      vertex   8.565757e+00 5.000000e+00 7.211083e+01
      vertex   8.565757e+00 -5.000000e+00 7.211083e+01
      vertex   1.341440e+01 5.000000e+00 7.136805e+01
    endloop
  endfacet
  facet normal 1.514278e-01 0.000000e+00 9.884683e-01
    outer loop
      vertex   1.341440e+01 5.000000e+00 7.136805e+01
      vertex   8.565757e+00 -5.000000e+00 7.211083e+01
      vertex   1.341440e+01 -5.000000e+00 7.136805e+01
    endloop
  endfacet
  facet normal 2.178136e-01 0.000000e+00 9.759904e-01
    outer loop
      vertex   1.341440e+01 5.000000e+00 7.136805e+01
      vertex   1.341440e+01 -5.000000e+00 7.136805e+01
      vertex   1.820183e+01 5.000000e+00 7.029963e+01
    endloop
  endfacet
  facet normal 2.178136e-01 0.000000e+00 9.759904e-01
    outer loop
      vertex   1.820183e+01 5.000000e+00 7.029963e+01
      vertex   1.341440e+01 -5.000000e+00 7.136805e+01
      vertex   1.820183e+01 -5.000000e+00 7.029963e+01
    endloop
  endfacet
  facet normal 2.832055e-01 0.000000e+00 9.590592e-01
    outer loop
      vertex   1.820183e+01 5.000000e+00 7.029963e+01
      vertex   1.820183e+01 -5.000000e+00 7.029963e+01
      vertex   2.290622e+01 5.000000e+00 6.891044e+01
    endloop
  endfacet
  facet normal 2.832055e-01 0.000000e+00 9.590592e-01
    outer loop
      vertex   2.290622e+01 5.000000e+00 6.891044e+01
      vertex   1.820183e+01 -5.000000e+00 7.029963e+01
      vertex   2.290622e+01 -5.000000e+00 6.891044e+01
    endloop
  endfacet
  facet normal 3.473053e-01 0.000000e+00 9.377521e-01
    outer loop
      vertex   2.290622e+01 5.000000e+00 6.891044e+01
      vertex   2.290622e+01 -5.000000e+00 6.891044e+01
      vertex   2.750609e+01 5.000000e+00 6.720684e+01
    endloop
  endfacet
  facet normal 3.473053e-01 0.000000e+00 9.377521e-01
    outer loop
      vertex   2.750609e+01 5.000000e+00 6.720684e+01
      vertex   2.290622e+01 -5.000000e+00 6.891044e+01
      vertex   2.750609e+01 -5.000000e+00 6.720684e+01
    endloop
  endfacet
  facet normal 4.098203e-01 0.000000e+00 9.121663e-01
    outer loop
      vertex   2.750609e+01 5.000000e+00 6.720684e+01
      vertex   2.750609e+01 -5.000000e+00 6.720684e+01
      vertex   3.198045e+01 5.000000e+00 6.519659e+01
    endloop
  endfacet
  facet normal 4.098203e-01 0.000000e+00 9.121663e-01
    outer loop
      vertex   3.198045e+01 5.000000e+00 6.519659e+01
      vertex   2.750609e+01 -5.000000e+00 6.720684e+01
      vertex   3.198045e+01 -5.000000e+00 6.519659e+01
    endloop
  endfacet
  facet normal 4.704655e-01 0.000000e+00 8.824184e-01
    outer loop
      vertex   3.198045e+01 5.000000e+00 6.519659e+01
      vertex   3.198045e+01 -5.000000e+00 6.519659e+01
      vertex   3.630890e+01 5.000000e+00 6.288886e+01
    endloop
  endfacet
  facet normal 4.704655e-01 0.000000e+00 8.824184e-01
    outer loop
      vertex   3.630890e+01 5.000000e+00 6.288886e+01
      vertex   3.198045e+01 -5.000000e+00 6.519659e+01
      vertex   3.630890e+01 -5.000000e+00 6.288886e+01
    endloop
  endfacet
  facet normal 5.289640e-01 0.000000e+00 8.486443e-01
    outer loop
      vertex   3.630890e+01 5.000000e+00 6.288886e+01
      vertex   3.630890e+01 -5.000000e+00 6.288886e+01
      vertex   4.047167e+01 5.000000e+00 6.029418e+01
    endloop
  endfacet
  facet normal 5.289640e-01 0.000000e+00 8.486443e-01
    outer loop
      vertex   4.047167e+01 5.000000e+00 6.029418e+01
      vertex   3.630890e+01 -5.000000e+00 6.288886e+01
      vertex   4.047167e+01 -5.000000e+00 6.029418e+01
    endloop
  endfacet
  facet normal 5.850490e-01 0.000000e+00 8.109979e-01
    outer loop
      vertex   4.047167e+01 5.000000e+00 6.029418e+01
      vertex   4.047167e+01 -5.000000e+00 6.029418e+01
      vertex   4.444979e+01 5.000000e+00 5.742439e+01
    endloop
  endfacet
  facet normal 5.850490e-01 0.000000e+00 8.109979e-01
    outer loop
      vertex   4.444979e+01 5.000000e+00 5.742439e+01
      vertex   4.047167e+01 -5.000000e+00 6.029418e+01
      vertex   4.444979e+01 -5.000000e+00 5.742439e+01
    endloop
  endfacet
  facet normal 6.384645e-01 0.000000e+00 7.696512e-01
    outer loop
      vertex   4.444979e+01 5.000000e+00 5.742439e+01
      vertex   4.444979e+01 -5.000000e+00 5.742439e+01
      vertex   4.822509e+01 5.000000e+00 5.429259e+01
    endloop
  endfacet
  facet normal 6.384645e-01 0.000000e+00 7.696512e-01
    outer loop
      vertex   4.822509e+01 5.000000e+00 5.429259e+01
      vertex   4.444979e+01 -5.000000e+00 5.742439e+01
      vertex   4.822509e+01 -5.000000e+00 5.429259e+01
    endloop
  endfacet
  facet normal 6.889669e-01 0.000000e+00 7.247928e-01
    outer loop
      vertex   4.822509e+01 5.000000e+00 5.429259e+01
      vertex   4.822509e+01 -5.000000e+00 5.429259e+01
      vertex   5.178034e+01 5.000000e+00 5.091306e+01
    endloop
  endfacet
  facet normal 6.889669e-01 0.000000e+00 7.247928e-01
    outer loop
      vertex   5.178034e+01 5.000000e+00 5.091306e+01
      vertex   4.822509e+01 -5.000000e+00 5.429259e+01
      vertex   5.178034e+01 -5.000000e+00 5.091306e+01
    endloop
  endfacet
  facet normal 7.363257e-01 0.000000e+00 6.766273e-01
    outer loop
      vertex   5.178034e+01 5.000000e+00 5.091306e+01
      vertex   5.178034e+01 -5.000000e+00 5.091306e+01
      vertex   5.509934e+01 5.000000e+00 4.730123e+01
    endloop
  endfacet
  facet normal 7.363257e-01 0.000000e+00 6.766273e-01
    outer loop
      vertex   5.509934e+01 5.000000e+00 4.730123e+01
      vertex   5.178034e+01 -5.000000e+00 5.091306e+01
      vertex   5.509934e+01 -5.000000e+00 4.730123e+01
    endloop
  endfacet
  facet normal 7.803248e-01 0.000000e+00 6.253745e-01
    outer loop
      vertex   5.509934e+01 5.000000e+00 4.730123e+01
      vertex   5.509934e+01 -5.000000e+00 4.730123e+01
      vertex   5.816693e+01 5.000000e+00 4.347358e+01
    endloop
  endfacet
  facet normal 7.803248e-01 0.000000e+00 6.253745e-01
    outer loop
      vertex   5.816693e+01 5.000000e+00 4.347358e+01
      vertex   5.509934e+01 -5.000000e+00 4.730123e+01
      vertex   5.816693e+01 -5.000000e+00 4.347358e+01
    endloop
  endfacet
  facet normal 8.207634e-01 0.000000e+00 5.712682e-01
    outer loop
      vertex   5.816693e+01 5.000000e+00 4.347358e+01
      vertex   5.816693e+01 -5.000000e+00 4.347358e+01
      vertex   6.096912e+01 5.000000e+00 3.944756e+01
    endloop
  endfacet
  facet normal 8.207634e-01 0.000000e+00 5.712682e-01
    outer loop
      vertex   6.096912e+01 5.000000e+00 3.944756e+01
      vertex   5.816693e+01 -5.000000e+00 4.347358e+01
      vertex   6.096912e+01 -5.000000e+00 3.944756e+01
    endloop
  endfacet
  facet normal 8.574571e-01 0.000000e+00 5.145554e-01
    outer loop
      vertex   6.096912e+01 5.000000e+00 3.944756e+01
      vertex   6.096912e+01 -5.000000e+00 3.944756e+01
      vertex   6.349312e+01 5.000000e+00 3.524156e+01
    endloop
  endfacet
  facet normal 8.574571e-01 0.000000e+00 5.145554e-01
    outer loop
      vertex   6.349312e+01 5.000000e+00 3.524156e+01
      vertex   6.096912e+01 -5.000000e+00 3.944756e+01
      vertex   6.349312e+01 -5.000000e+00 3.524156e+01
    endloop
  endfacet
  facet normal 8.902385e-01 0.000000e+00 4.554948e-01
    outer loop
      vertex   6.349312e+01 5.000000e+00 3.524156e+01
      vertex   6.349312e+01 -5.000000e+00 3.524156e+01
      vertex   6.572742e+01 5.000000e+00 3.087475e+01
    endloop
  endfacet
  facet normal 8.902385e-01 0.000000e+00 4.554948e-01
    outer loop
      vertex   6.572742e+01 5.000000e+00 3.087475e+01
      vertex   6.349312e+01 -5.000000e+00 3.524156e+01
      vertex   6.572742e+01 -5.000000e+00 3.087475e+01
    endloop
  endfacet
  facet normal 9.189578e-01 0.000000e+00 3.943559e-01
    outer loop
      vertex   6.572742e+01 5.000000e+00 3.087475e+01
      vertex   6.572742e+01 -5.000000e+00 3.087475e+01
      vertex   6.766182e+01 5.000000e+00 2.636708e+01
    endloop
  endfacet
  facet normal 9.189578e-01 0.000000e+00 3.943559e-01
    outer loop
      vertex   6.766182e+01 5.000000e+00 2.636708e+01
      vertex   6.572742e+01 -5.000000e+00 3.087475e+01
      vertex   6.766182e+01 -5.000000e+00 2.636708e+01
    endloop
  endfacet
  facet normal 9.434842e-01 0.000000e+00 3.314176e-01
    outer loop
      vertex   6.766182e+01 5.000000e+00 2.636708e+01
      vertex   6.766182e+01 -5.000000e+00 2.636708e+01
      vertex   6.928749e+01 5.000000e+00 2.173909e+01
    endloop
  endfacet
  facet normal 9.434842e-01 0.000000e+00 3.314176e-01
    outer loop
      vertex   6.928749e+01 5.000000e+00 2.173909e+01
      vertex   6.766182e+01 -5.000000e+00 2.636708e+01
      vertex   6.928749e+01 -5.000000e+00 2.173909e+01
    endloop
  endfacet
  facet normal 9.637056e-01 0.000000e+00 2.669671e-01
    outer loop
      vertex   6.928749e+01 5.000000e+00 2.173909e+01
      vertex   6.928749e+01 -5.000000e+00 2.173909e+01
      vertex   7.059702e+01 5.000000e+00 1.701191e+01
    endloop
  endfacet
  facet normal 9.637056e-01 0.000000e+00 2.669671e-01
    outer loop
      vertex   7.059702e+01 5.000000e+00 1.701191e+01
      vertex   6.928749e+01 -5.000000e+00 2.173909e+01
      vertex   7.059702e+01 -5.000000e+00 1.701191e+01
    endloop
  endfacet
  facet normal 9.795299e-01 0.000000e+00 2.012985e-01
    outer loop
      vertex   7.059702e+01 5.000000e+00 1.701191e+01
      vertex   7.059702e+01 -5.000000e+00 1.701191e+01
      vertex   7.158443e+01 5.000000e+00 1.220712e+01
    endloop
  endfacet
  facet normal 9.795299e-01 0.000000e+00 2.012985e-01
    outer loop
      vertex   7.158443e+01 5.000000e+00 1.220712e+01
      vertex   7.059702e+01 -5.000000e+00 1.701191e+01
      vertex   7.158443e+01 -5.000000e+00 1.220712e+01
    endloop
  endfacet
  facet normal 9.908849e-01 0.000000e+00 1.347115e-01
    outer loop
      vertex   7.158443e+01 5.000000e+00 1.220712e+01
      vertex   7.158443e+01 -5.000000e+00 1.220712e+01
      vertex   7.224522e+01 5.000000e+00 7.346620e+00
    endloop
  endfacet
  facet normal 9.908849e-01 0.000000e+00 1.347115e-01
    outer loop
      vertex   7.224522e+01 5.000000e+00 7.346620e+00
      vertex   7.158443e+01 -5.000000e+00 1.220712e+01
      vertex   7.224522e+01 -5.000000e+00 7.346620e+00
    endloop
  endfacet
  facet normal 9.977186e-01 0.000000e+00 6.750975e-02
    outer loop
      vertex   7.224522e+01 5.000000e+00 7.346620e+00
      vertex   7.224522e+01 -5.000000e+00 7.346620e+00
      vertex   7.257637e+01 5.000000e+00 2.452604e+00
    endloop
  endfacet
  facet normal 9.977186e-01 0.000000e+00 6.750975e-02
    outer loop
      vertex   7.257637e+01 5.000000e+00 2.452604e+00
      vertex   7.224522e+01 -5.000000e+00 7.346620e+00
      vertex   7.257637e+01 -5.000000e+00 2.452604e+00
    endloop
  endfacet
  facet normal 1.000000e+00 0.000000e+00 0.000000e+00
    outer loop
      vertex   7.257637e+01 5.000000e+00 2.452604e+00
      vertex   7.257637e+01 -5.000000e+00 2.452604e+00
      vertex   7.257637e+01 5.000000e+00 -2.452604e+00
    endloop
  endfacet
  facet normal 1.000000e+00 0.000000e+00 0.000000e+00
    outer loop
      vertex   7.257637e+01 5.000000e+00 -2.452604e+00
      vertex   7.257637e+01 -5.000000e+00 2.452604e+00
      vertex   7.257637e+01 -5.000000e+00 -2.452604e+00
    endloop
  endfacet
  facet normal 9.977186e-01 0.000000e+00 -6.750975e-02
    outer loop
      vertex   7.257637e+01 5.000000e+00 -2.452604e+00
      vertex   7.257637e+01 -5.000000e+00 -2.452604e+00
      vertex   7.224522e+01 5.000000e+00 -7.346620e+00
    endloop
  endfacet
  facet normal 9.977186e-01 0.000000e+00 -6.750975e-02
    outer loop
      vertex   7.224522e+01 5.000000e+00 -7.346620e+00
      vertex   7.257637e+01 -5.000000e+00 -2.452604e+00
      vertex   7.224522e+01 -5.000000e+00 -7.346620e+00
    endloop
  endfacet
  facet normal 9.908849e-01 0.000000e+00 -1.347115e-01
    outer loop
      vertex   7.224522e+01 5.000000e+00 -7.346620e+00
      vertex   7.224522e+01 -5.000000e+00 -7.346620e+00
      vertex   7.158443e+01 5.000000e+00 -1.220712e+01
    endloop
  endfacet
  facet normal 9.908849e-01 0.000000e+00 -1.347115e-01
    outer loop
      vertex   7.158443e+01 5.000000e+00 -1.220712e+01
      vertex   7.224522e+01 -5.000000e+00 -7.346620e+00
      vertex   7.158443e+01 -5.000000e+00 -1.220712e+01
    endloop
  endfacet
  facet normal 9.795299e-01 0.000000e+00 -2.012985e-01
    outer loop
      vertex   7.158443e+01 5.000000e+00 -1.220712e+01
      vertex   7.158443e+01 -5.000000e+00 -1.220712e+01
      vertex   7.059702e+01 5.000000e+00 -1.701191e+01
    endloop
  endfacet
  facet normal 9.795299e-01 0.000000e+00 -2.012985e-01
    outer loop
      vertex   7.059702e+01 5.000000e+00 -1.701191e+01
      vertex   7.158443e+01 -5.000000e+00 -1.220712e+01
      vertex   7.059702e+01 -5.000000e+00 -1.701191e+01
    endloop
  endfacet
  facet normal 9.637056e-01 0.000000e+00 -2.669671e-01
    outer loop
      vertex   7.059702e+01 5.000000e+00 -1.701191e+01
      vertex   7.059702e+01 -5.000000e+00 -1.701191e+01
      vertex   6.928749e+01 5.000000e+00 -2.173909e+01
    endloop
  endfacet
  facet normal 9.637056e-01 0.000000e+00 -2.669671e-01
    outer loop
      vertex   6.928749e+01 5.000000e+00 -2.173909e+01
      vertex   7.059702e+01 -5.000000e+00 -1.701191e+01
      vertex   6.928749e+01 -5.000000e+00 -2.173909e+01
    endloop
  endfacet
  facet normal 9.434842e-01 0.000000e+00 -3.314176e-01
    outer loop
      vertex   6.928749e+01 5.000000e+00 -2.173909e+01
      vertex   6.928749e+01 -5.000000e+00 -2.173909e+01
      vertex   6.766182e+01 5.000000e+00 -2.636708e+01
    endloop
  endfacet
  facet normal 9.434842e-01 0.000000e+00 -3.314176e-01
    outer loop
      vertex   6.766182e+01 5.000000e+00 -2.636708e+01
      vertex   6.928749e+01 -5.000000e+00 -2.173909e+01
      vertex   6.766182e+01 -5.000000e+00 -2.636708e+01
    endloop
  endfacet
  facet normal 9.189578e-01 0.000000e+00 -3.943559e-01
    outer loop
      vertex   6.766182e+01 5.000000e+00 -2.636708e+01
      vertex   6.766182e+01 -5.000000e+00 -2.636708e+01
      vertex   6.572742e+01 5.000000e+00 -3.087475e+01
    endloop
  endfacet
  facet normal 9.189578e-01 0.000000e+00 -3.943559e-01
    outer loop
      vertex   6.572742e+01 5.000000e+00 -3.087475e+01
      vertex   6.766182e+01 -5.000000e+00 -2.636708e+01
      vertex   6.572742e+01 -5.000000e+00 -3.087475e+01
    endloop
  endfacet
  facet normal 8.902385e-01 0.000000e+00 -4.554948e-01
    outer loop
      vertex   6.572742e+01 5.000000e+00 -3.087475e+01
      vertex   6.572742e+01 -5.000000e+00 -3.087475e+01
      vertex   6.349312e+01 5.000000e+00 -3.524156e+01
    endloop
  endfacet
  facet normal 8.902385e-01 0.000000e+00 -4.554948e-01
    outer loop
      vertex   6.349312e+01 5.000000e+00 -3.524156e+01
      vertex   6.572742e+01 -5.000000e+00 -3.087475e+01
      vertex   6.349312e+01 -5.000000e+00 -3.524156e+01
    endloop
  endfacet
  facet normal 8.574571e-01 0.000000e+00 -5.145554e-01
    outer loop
      vertex   6.349312e+01 5.000000e+00 -3.524156e+01
      vertex   6.349312e+01 -5.000000e+00 -3.524156e+01
      vertex   6.096912e+01 5.000000e+00 -3.944756e+01
    endloop
  endfacet
  facet normal 8.574571e-01 0.000000e+00 -5.145554e-01
    outer loop
      vertex   6.096912e+01 5.000000e+00 -3.944756e+01
      vertex   6.349312e+01 -5.000000e+00 -3.524156e+01
      vertex   6.096912e+01 -5.000000e+00 -3.944756e+01
    endloop
  endfacet
  facet normal 8.207634e-01 0.000000e+00 -5.712682e-01
    outer loop
      vertex   6.096912e+01 5.000000e+00 -3.944756e+01
      vertex   6.096912e+01 -5.000000e+00 -3.944756e+01
      vertex   5.816693e+01 5.000000e+00 -4.347358e+01
    endloop
  endfacet
  facet normal 8.207634e-01 0.000000e+00 -5.712682e-01
    outer loop
      vertex   5.816693e+01 5.000000e+00 -4.347358e+01
      vertex   6.096912e+01 -5.000000e+00 -3.944756e+01
      vertex   5.816693e+01 -5.000000e+00 -4.347358e+01
    endloop
  endfacet
  facet normal 7.803248e-01 0.000000e+00 -6.253745e-01
    outer loop
      vertex   5.816693e+01 5.000000e+00 -4.347358e+01
      vertex   5.816693e+01 -5.000000e+00 -4.347358e+01
      vertex   5.509934e+01 5.000000e+00 -4.730123e+01
    endloop
  endfacet
  facet normal 7.803248e-01 0.000000e+00 -6.253745e-01
    outer loop
      vertex   5.509934e+01 5.000000e+00 -4.730123e+01
      vertex   5.816693e+01 -5.000000e+00 -4.347358e+01
      vertex   5.509934e+01 -5.000000e+00 -4.730123e+01
    endloop
  endfacet
  facet normal 7.363257e-01 0.000000e+00 -6.766273e-01
    outer loop
      vertex   5.509934e+01 5.000000e+00 -4.730123e+01
      vertex   5.509934e+01 -5.000000e+00 -4.730123e+01
      vertex   5.178034e+01 5.000000e+00 -5.091306e+01
    endloop
  endfacet
  facet normal 7.363257e-01 0.000000e+00 -6.766273e-01
    outer loop
      vertex   5.178034e+01 5.000000e+00 -5.091306e+01
      vertex   5.509934e+01 -5.000000e+00 -4.730123e+01
      vertex   5.178034e+01 -5.000000e+00 -5.091306e+01
    endloop
  endfacet
  facet normal 6.889669e-01 0.000000e+00 -7.247928e-01
    outer loop
      vertex   5.178034e+01 5.000000e+00 -5.091306e+01
      vertex   5.178034e+01 -5.000000e+00 -5.091306e+01
      vertex   4.822509e+01 5.000000e+00 -5.429259e+01
    endloop
  endfacet
  facet normal 6.889669e-01 0.000000e+00 -7.247928e-01
    outer loop
      vertex   4.822509e+01 5.000000e+00 -5.429259e+01
      vertex   5.178034e+01 -5.000000e+00 -5.091306e+01
      vertex   4.822509e+01 -5.000000e+00 -5.429259e+01
    endloop
  endfacet
  facet normal 6.384645e-01 0.000000e+00 -7.696512e-01
    outer loop
      vertex   4.822509e+01 5.000000e+00 -5.429259e+01
      vertex   4.822509e+01 -5.000000e+00 -5.429259e+01
      vertex   4.444979e+01 5.000000e+00 -5.742439e+01
    endloop
  endfacet
  facet normal 6.384645e-01 0.000000e+00 -7.696512e-01
    outer loop
      vertex   4.444979e+01 5.000000e+00 -5.742439e+01
      vertex   4.822509e+01 -5.000000e+00 -5.429259e+01
      vertex   4.444979e+01 -5.000000e+00 -5.742439e+01
    endloop
  endfacet
  facet normal 5.850490e-01 0.000000e+00 -8.109979e-01
    outer loop
      vertex   4.444979e+01 5.000000e+00 -5.742439e+01
      vertex   4.444979e+01 -5.000000e+00 -5.742439e+01
      vertex   4.047167e+01 5.000000e+00 -6.029418e+01
    endloop
  endfacet
  facet normal 5.850490e-01 0.000000e+00 -8.109979e-01
    outer loop
      vertex   4.047167e+01 5.000000e+00 -6.029418e+01
      vertex   4.444979e+01 -5.000000e+00 -5.742439e+01
      vertex   4.047167e+01 -5.000000e+00 -6.029418e+01
    endloop
  endfacet
  facet normal 5.289640e-01 0.000000e+00 -8.486443e-01
    outer loop
      vertex   4.047167e+01 5.000000e+00 -6.029418e+01
      vertex   4.047167e+01 -5.000000e+00 -6.029418e+01
      vertex   3.630890e+01 5.000000e+00 -6.288886e+01
    endloop
  endfacet
  facet normal 5.289640e-01 0.000000e+00 -8.486443e-01
    outer loop
      vertex   3.630890e+01 5.000000e+00 -6.288886e+01
      vertex   4.047167e+01 -5.000000e+00 -6.029418e+01
      vertex   3.630890e+01 -5.000000e+00 -6.288886e+01
    endloop
  endfacet
  facet normal 4.704655e-01 0.000000e+00 -8.824184e-01
    outer loop
      vertex   3.630890e+01 5.000000e+00 -6.288886e+01
      vertex   3.630890e+01 -5.000000e+00 -6.288886e+01
      vertex   3.198045e+01 5.000000e+00 -6.519659e+01
    endloop
  endfacet
  facet normal 4.704655e-01 0.000000e+00 -8.824184e-01
    outer loop
      vertex   3.198045e+01 5.000000e+00 -6.519659e+01
      vertex   3.630890e+01 -5.000000e+00 -6.288886e+01
      vertex   3.198045e+01 -5.000000e+00 -6.519659e+01
    endloop
  endfacet
  facet normal 4.098203e-01 0.000000e+00 -9.121663e-01
    outer loop
      vertex   3.198045e+01 5.000000e+00 -6.519659e+01
      vertex   3.198045e+01 -5.000000e+00 -6.519659e+01
      vertex   2.750609e+01 5.000000e+00 -6.720684e+01
    endloop
  endfacet
  facet normal 4.098203e-01 0.000000e+00 -9.121663e-01
    outer loop
      vertex   2.750609e+01 5.000000e+00 -6.720684e+01
      vertex   3.198045e+01 -5.000000e+00 -6.519659e+01
      vertex   2.750609e+01 -5.000000e+00 -6.720684e+01
    endloop
  endfacet
  facet normal 3.473053e-01 0.000000e+00 -9.377521e-01
    outer loop
      vertex   2.750609e+01 5.000000e+00 -6.720684e+01
      vertex   2.750609e+01 -5.000000e+00 -6.720684e+01
      vertex   2.290622e+01 5.000000e+00 -6.891044e+01
    endloop
  endfacet
  facet normal 3.473053e-01 0.000000e+00 -9.377521e-01
    outer loop
      vertex   2.290622e+01 5.000000e+00 -6.891044e+01
      vertex   2.750609e+01 -5.000000e+00 -6.720684e+01
      vertex   2.290622e+01 -5.000000e+00 -6.891044e+01
    endloop
  endfacet
  facet normal 2.832055e-01 0.000000e+00 -9.590592e-01
    outer loop
      vertex   2.290622e+01 5.000000e+00 -6.891044e+01
      vertex   2.290622e+01 -5.000000e+00 -6.891044e+01
      vertex   1.820183e+01 5.000000e+00 -7.029963e+01
    endloop
  endfacet
  facet normal 2.832055e-01 0.000000e+00 -9.590592e-01
    outer loop
      vertex   1.820183e+01 5.000000e+00 -7.029963e+01
      vertex   2.290622e+01 -5.000000e+00 -6.891044e+01
      vertex   1.820183e+01 -5.000000e+00 -7.029963e+01
    endloop
  endfacet
  facet normal 2.178136e-01 0.000000e+00 -9.759904e-01
    outer loop
      vertex   1.820183e+01 5.000000e+00 -7.029963e+01
      vertex   1.820183e+01 -5.000000e+00 -7.029963e+01
      vertex   1.341440e+01 5.000000e+00 -7.136805e+01
    endloop
  endfacet
  facet normal 2.178136e-01 0.000000e+00 -9.759904e-01
    outer loop
      vertex   1.341440e+01 5.000000e+00 -7.136805e+01
      vertex   1.820183e+01 -5.000000e+00 -7.029963e+01
      vertex   1.341440e+01 -5.000000e+00 -7.136805e+01
    endloop
  endfacet
  facet normal 1.514278e-01 0.000000e+00 -9.884683e-01
    outer loop
      vertex   1.341440e+01 5.000000e+00 -7.136805e+01
      vertex   1.341440e+01 -5.000000e+00 -7.136805e+01
      vertex   8.565757e+00 5.000000e+00 -7.211083e+01
    endloop
  endfacet
  facet normal 1.514278e-01 0.000000e+00 -9.884683e-01
    outer loop
      vertex   8.565757e+00 5.000000e+00 -7.211083e+01
      vertex   1.341440e+01 -5.000000e+00 -7.136805e+01
      vertex   8.565757e+00 -5.000000e+00 -7.211083e+01
    endloop
  endfacet
  facet normal 8.435107e-02 0.000000e+00 -9.964361e-01
    outer loop
      vertex   8.565757e+00 5.000000e+00 -7.211083e+01
      vertex   8.565757e+00 -5.000000e+00 -7.211083e+01
      vertex   3.678031e+00 5.000000e+00 -7.252459e+01
    endloop
  endfacet
  facet normal 8.435107e-02 0.000000e+00 -9.964361e-01
    outer loop
      vertex   3.678031e+00 5.000000e+00 -7.252459e+01
      vertex   8.565757e+00 -5.000000e+00 -7.211083e+01
      vertex   3.678031e+00 -5.000000e+00 -7.252459e+01
    endloop
  endfacet
  facet normal 1.688948e-02 0.000000e+00 -9.998574e-01
    outer loop
      vertex   3.678031e+00 5.000000e+00 -7.252459e+01
      vertex   3.678031e+00 -5.000000e+00 -7.252459e+01
      vertex   -1.226477e+00 5.000000e+00 -7.260744e+01
    endloop
  endfacet
  facet normal 1.688948e-02 0.000000e+00 -9.998574e-01
    outer loop
      vertex   -1.226477e+00 5.000000e+00 -7.260744e+01
      vertex   3.678031e+00 -5.000000e+00 -7.252459e+01
      vertex   -1.226477e+00 -5.000000e+00 -7.260744e+01
    endloop
  endfacet
  facet normal -5.064917e-02 -0.000000e+00 -9.987165e-01
    outer loop
      vertex   -1.226477e+00 5.000000e+00 -7.260744e+01
      vertex   -1.226477e+00 -5.000000e+00 -7.260744e+01
      vertex   -6.125388e+00 5.000000e+00 -7.235899e+01
    endloop
  endfacet
  facet normal -5.064917e-02 -0.000000e+00 -9.987165e-01
    outer loop
      vertex   -6.125388e+00 5.000000e+00 -7.235899e+01
      vertex   -1.226477e+00 -5.000000e+00 -7.260744e+01
      vertex   -6.125388e+00 -5.000000e+00 -7.235899e+01
    endloop
  endfacet
  facet normal -1.179567e-01 -0.000000e+00 -9.930187e-01
    outer loop
      vertex   -6.125388e+00 5.000000e+00 -7.235899e+01
      vertex   -6.125388e+00 -5.000000e+00 -7.235899e+01
      vertex   -1.099635e+01 5.000000e+00 -7.178039e+01
    endloop
  endfacet
  facet normal -1.179567e-01 -0.000000e+00 -9.930187e-01
    outer loop
      vertex   -1.099635e+01 5.000000e+00 -7.178039e+01
      vertex   -6.125388e+00 -5.000000e+00 -7.235899e+01
      vertex   -1.099635e+01 -5.000000e+00 -7.178039e+01
    endloop
  endfacet
  facet normal -1.847261e-01 -0.000000e+00 -9.827901e-01
    outer loop
      vertex   -1.099635e+01 5.000000e+00 -7.178039e+01
      vertex   -1.099635e+01 -5.000000e+00 -7.178039e+01
      vertex   -1.581714e+01 5.000000e+00 -7.087427e+01
    endloop
  endfacet
  facet normal -1.847261e-01 -0.000000e+00 -9.827901e-01
    outer loop
      vertex   -1.581714e+01 5.000000e+00 -7.087427e+01
      vertex   -1.099635e+01 -5.000000e+00 -7.178039e+01
      vertex   -1.581714e+01 -5.000000e+00 -7.087427e+01
    endloop
  endfacet
  facet normal -2.506525e-01 -0.000000e+00 -9.680771e-01
    outer loop
      vertex   -1.581714e+01 5.000000e+00 -7.087427e+01
      vertex   -1.581714e+01 -5.000000e+00 -7.087427e+01
      vertex   -2.056576e+01 5.000000e+00 -6.964477e+01
    endloop
  endfacet
  facet normal -2.506525e-01 -0.000000e+00 -9.680771e-01
    outer loop
      vertex   -2.056576e+01 5.000000e+00 -6.964477e+01
      vertex   -1.581714e+01 -5.000000e+00 -7.087427e+01
      vertex   -2.056576e+01 -5.000000e+00 -6.964477e+01
    endloop
  endfacet
  facet normal -3.154353e-01 -0.000000e+00 -9.489471e-01
    outer loop
      vertex   -2.056576e+01 5.000000e+00 -6.964477e+01
      vertex   -2.056576e+01 -5.000000e+00 -6.964477e+01
      vertex   -2.522054e+01 5.000000e+00 -6.809749e+01
    endloop
  endfacet
  facet normal -3.154353e-01 -0.000000e+00 -9.489471e-01
    outer loop
      vertex   -2.522054e+01 5.000000e+00 -6.809749e+01
      vertex   -2.056576e+01 -5.000000e+00 -6.964477e+01
      vertex   -2.522054e+01 -5.000000e+00 -6.809749e+01
    endloop
  endfacet
  facet normal -3.787789e-01 -0.000000e+00 -9.254872e-01
    outer loop
      vertex   -2.522054e+01 5.000000e+00 -6.809749e+01
      vertex   -2.522054e+01 -5.000000e+00 -6.809749e+01
      vertex   -2.976025e+01 5.000000e+00 -6.623950e+01
    endloop
  endfacet
  facet normal -3.787789e-01 -0.000000e+00 -9.254872e-01
    outer loop
      vertex   -2.976025e+01 5.000000e+00 -6.623950e+01
      vertex   -2.522054e+01 -5.000000e+00 -6.809749e+01
      vertex   -2.976025e+01 -5.000000e+00 -6.623950e+01
    endloop
  endfacet
  facet normal -4.403942e-01 -0.000000e+00 -8.978045e-01
    outer loop
      vertex   -2.976025e+01 5.000000e+00 -6.623950e+01
      vertex   -2.976025e+01 -5.000000e+00 -6.623950e+01
      vertex   -3.416417e+01 5.000000e+00 -6.407928e+01
    endloop
  endfacet
  facet normal -4.403942e-01 -0.000000e+00 -8.978045e-01
    outer loop
      vertex   -3.416417e+01 5.000000e+00 -6.407928e+01
      vertex   -2.976025e+01 -5.000000e+00 -6.623950e+01
      vertex   -3.416417e+01 -5.000000e+00 -6.407928e+01
    endloop
  endfacet
  facet normal -5.000000e-01 -0.000000e+00 -8.660254e-01
    outer loop
      vertex   -3.416417e+01 5.000000e+00 -6.407928e+01
      vertex   -3.416417e+01 -5.000000e+00 -6.407928e+01
      vertex   -3.841220e+01 5.000000e+00 -6.162667e+01
    endloop
  endfacet
  facet normal -5.000000e-01 -0.000000e+00 -8.660254e-01
    outer loop
      vertex   -3.841220e+01 5.000000e+00 -6.162667e+01
      vertex   -3.416417e+01 -5.000000e+00 -6.407928e+01
      vertex   -3.841220e+01 -5.000000e+00 -6.162667e+01
    endloop
  endfacet
  facet normal -5.573245e-01 -0.000000e+00 -8.302948e-01
    outer loop
      vertex   -3.841220e+01 5.000000e+00 -6.162667e+01
      vertex   -3.841220e+01 -5.000000e+00 -6.162667e+01
      vertex   -4.248497e+01 5.000000e+00 -5.889288e+01
    endloop
  endfacet
  facet normal -5.573245e-01 -0.000000e+00 -8.302948e-01
    outer loop
      vertex   -4.248497e+01 5.000000e+00 -5.889288e+01
      vertex   -3.841220e+01 -5.000000e+00 -6.162667e+01
      vertex   -4.248497e+01 -5.000000e+00 -5.889288e+01
    endloop
  endfacet
  facet normal -6.121060e-01 -0.000000e+00 -7.907757e-01
    outer loop
      vertex   -4.248497e+01 5.000000e+00 -5.889288e+01
      vertex   -4.248497e+01 -5.000000e+00 -5.889288e+01
      vertex   -4.636389e+01 5.000000e+00 -5.589038e+01
    endloop
  endfacet
  facet normal -6.121060e-01 -0.000000e+00 -7.907757e-01
    outer loop
      vertex   -4.636389e+01 5.000000e+00 -5.589038e+01
      vertex   -4.248497e+01 -5.000000e+00 -5.889288e+01
      vertex   -4.636389e+01 -5.000000e+00 -5.589038e+01
    endloop
  endfacet
  facet normal -6.640946e-01 -0.000000e+00 -7.476486e-01
    outer loop
      vertex   -4.636389e+01 5.000000e+00 -5.589038e+01
      vertex   -4.636389e+01 -5.000000e+00 -5.589038e+01
      vertex   -5.003126e+01 5.000000e+00 -5.263285e+01
    endloop
  endfacet
  facet normal -6.640946e-01 -0.000000e+00 -7.476486e-01
    outer loop
      vertex   -5.003126e+01 5.000000e+00 -5.263285e+01
      vertex   -4.636389e+01 -5.000000e+00 -5.589038e+01
      vertex   -5.003126e+01 -5.000000e+00 -5.263285e+01
    endloop
  endfacet
  facet normal -7.130531e-01 -0.000000e+00 -7.011100e-01
    outer loop
      vertex   -5.003126e+01 5.000000e+00 -5.263285e+01
      vertex   -5.003126e+01 -5.000000e+00 -5.263285e+01
      vertex   -5.347035e+01 5.000000e+00 -4.913518e+01
    endloop
  endfacet
  facet normal -7.130531e-01 -0.000000e+00 -7.011100e-01
    outer loop
      vertex   -5.347035e+01 5.000000e+00 -4.913518e+01
      vertex   -5.003126e+01 -5.000000e+00 -5.263285e+01
      vertex   -5.347035e+01 -5.000000e+00 -4.913518e+01
    endloop
  endfacet
  facet normal -7.587581e-01 -0.000000e+00 -6.513725e-01
    outer loop
      vertex   -5.347035e+01 5.000000e+00 -4.913518e+01
      vertex   -5.347035e+01 -5.000000e+00 -4.913518e+01
      vertex   -5.666547e+01 5.000000e+00 -4.541331e+01
    endloop
  endfacet
  facet normal -7.587581e-01 -0.000000e+00 -6.513725e-01
    outer loop
      vertex   -5.666547e+01 5.000000e+00 -4.541331e+01
      vertex   -5.347035e+01 -5.000000e+00 -4.913518e+01
      vertex   -5.666547e+01 -5.000000e+00 -4.541331e+01
    endloop
  endfacet
  facet normal -8.010011e-01 -0.000000e+00 -5.986629e-01
    outer loop
      vertex   -5.666547e+01 5.000000e+00 -4.541331e+01
      vertex   -5.666547e+01 -5.000000e+00 -4.541331e+01
      vertex   -5.960203e+01 5.000000e+00 -4.148424e+01
    endloop
  endfacet
  facet normal -8.010011e-01 -0.000000e+00 -5.986629e-01
    outer loop
      vertex   -5.960203e+01 5.000000e+00 -4.148424e+01
      vertex   -5.666547e+01 -5.000000e+00 -4.541331e+01
      vertex   -5.960203e+01 -5.000000e+00 -4.148424e+01
    endloop
  endfacet
  facet normal -8.395893e-01 -0.000000e+00 -5.432217e-01
    outer loop
      vertex   -5.960203e+01 5.000000e+00 -4.148424e+01
      vertex   -5.960203e+01 -5.000000e+00 -4.148424e+01
      vertex   -6.226665e+01 5.000000e+00 -3.736588e+01
    endloop
  endfacet
  facet normal -8.395893e-01 -0.000000e+00 -5.432217e-01
    outer loop
      vertex   -6.226665e+01 5.000000e+00 -3.736588e+01
      vertex   -5.960203e+01 -5.000000e+00 -4.148424e+01
      vertex   -6.226665e+01 -5.000000e+00 -3.736588e+01
    endloop
  endfacet
  facet normal -8.743466e-01 -0.000000e+00 -4.853020e-01
    outer loop
      vertex   -6.226665e+01 5.000000e+00 -3.736588e+01
      vertex   -6.226665e+01 -5.000000e+00 -3.736588e+01
      vertex   -6.464715e+01 5.000000e+00 -3.307703e+01
    endloop
  endfacet
  facet normal -8.743466e-01 -0.000000e+00 -4.853020e-01
    outer loop
      vertex   -6.464715e+01 5.000000e+00 -3.307703e+01
      vertex   -6.226665e+01 -5.000000e+00 -3.736588e+01
      vertex   -6.464715e+01 -5.000000e+00 -3.307703e+01
    endloop
  endfacet
  facet normal -9.051145e-01 -0.000000e+00 -4.251679e-01
    outer loop
      vertex   -6.464715e+01 5.000000e+00 -3.307703e+01
      vertex   -6.464715e+01 -5.000000e+00 -3.307703e+01
      vertex   -6.673269e+01 5.000000e+00 -2.863725e+01
    endloop
  endfacet
  facet normal -9.051145e-01 -0.000000e+00 -4.251679e-01
    outer loop
      vertex   -6.673269e+01 5.000000e+00 -2.863725e+01
      vertex   -6.464715e+01 -5.000000e+00 -3.307703e+01
      vertex   -6.673269e+01 -5.000000e+00 -2.863725e+01
    endloop
  endfacet
  facet normal -9.317526e-01 -0.000000e+00 -3.630939e-01
    outer loop
      vertex   -6.673269e+01 5.000000e+00 -2.863725e+01
      vertex   -6.673269e+01 -5.000000e+00 -2.863725e+01
      vertex   -6.851374e+01 5.000000e+00 -2.406681e+01
    endloop
  endfacet
  facet normal -9.317526e-01 -0.000000e+00 -3.630939e-01
    outer loop
      vertex   -6.851374e+01 5.000000e+00 -2.406681e+01
      vertex   -6.673269e+01 -5.000000e+00 -2.863725e+01
      vertex   -6.851374e+01 -5.000000e+00 -2.406681e+01
    endloop
  endfacet
  facet normal -9.541393e-01 -0.000000e+00 -2.993631e-01
    outer loop
      vertex   -6.851374e+01 5.000000e+00 -2.406681e+01
      vertex   -6.851374e+01 -5.000000e+00 -2.406681e+01
      vertex   -6.998218e+01 5.000000e+00 -1.938656e+01
    endloop
  endfacet
  facet normal -9.541393e-01 -0.000000e+00 -2.993631e-01
    outer loop
      vertex   -6.998218e+01 5.000000e+00 -1.938656e+01
      vertex   -6.851374e+01 -5.000000e+00 -2.406681e+01
      vertex   -6.998218e+01 -5.000000e+00 -1.938656e+01
    endloop
  endfacet
  facet normal -9.721724e-01 -0.000000e+00 -2.342665e-01
    outer loop
      vertex   -6.998218e+01 5.000000e+00 -1.938656e+01
      vertex   -6.998218e+01 -5.000000e+00 -1.938656e+01
      vertex   -7.113130e+01 5.000000e+00 -1.461785e+01
    endloop
  endfacet
  facet normal -9.721724e-01 -0.000000e+00 -2.342665e-01
    outer loop
      vertex   -7.113130e+01 5.000000e+00 -1.461785e+01
      vertex   -6.998218e+01 -5.000000e+00 -1.938656e+01
      vertex   -7.113130e+01 -5.000000e+00 -1.461785e+01
    endloop
  endfacet
  facet normal -9.857698e-01 -0.000000e+00 -1.681009e-01
    outer loop
      vertex   -7.113130e+01 5.000000e+00 -1.461785e+01
      vertex   -7.113130e+01 -5.000000e+00 -1.461785e+01
      vertex   -7.195587e+01 5.000000e+00 -9.782449e+00
    endloop
  endfacet
  facet normal -9.857698e-01 -0.000000e+00 -1.681009e-01
    outer loop
      vertex   -7.195587e+01 5.000000e+00 -9.782449e+00
      vertex   -7.113130e+01 -5.000000e+00 -1.461785e+01
      vertex   -7.195587e+01 -5.000000e+00 -9.782449e+00
    endloop
  endfacet
  facet normal -9.948693e-01 -0.000000e+00 -1.011683e-01
    outer loop
      vertex   -7.195587e+01 5.000000e+00 -9.782449e+00
      vertex   -7.195587e+01 -5.000000e+00 -9.782449e+00
      vertex   -7.245213e+01 5.000000e+00 -4.902409e+00
    endloop
  endfacet
  facet normal -9.948693e-01 -0.000000e+00 -1.011683e-01
    outer loop
      vertex   -7.245213e+01 5.000000e+00 -4.902409e+00
      vertex   -7.195587e+01 -5.000000e+00 -9.782449e+00
      vertex   -7.245213e+01 -5.000000e+00 -4.902409e+00
    endloop
  endfacet
  facet normal 0.000000e+00 1.000000e+00 0.000000e+00
    outer loop
      vertex   -7.245213e+01 5.000000e+00 4.902409e+00
      vertex   7.257637e+01 5.000000e+00 2.452604e+00
      vertex   -7.261780e+01 5.000000e+00 8.893115e-15
    endloop
  endfacet
  facet normal -0.000000e+00 1.000000e+00 0.000000e+00
    outer loop
      vertex   -7.261780e+01 5.000000e+00 8.893115e-15
      vertex   7.257637e+01 5.000000e+00 2.452604e+00
      vertex   7.257637e+01 5.000000e+00 -2.452604e+00
    endloop
  endfacet
  facet normal 0.000000e+00 1.000000e+00 0.000000e+00
    outer loop
      vertex   -7.261780e+01 5.000000e+00 8.893115e-15
      vertex   7.257637e+01 5.000000e+00 -2.452604e+00
      vertex   -7.245213e+01 5.000000e+00 -4.902409e+00
    endloop
  endfacet
  facet normal -0.000000e+00 1.000000e+00 0.000000e+00
    outer loop
      vertex   -7.245213e+01 5.000000e+00 -4.902409e+00
      vertex   7.257637e+01 5.000000e+00 -2.452604e+00
      vertex   7.224522e+01 5.000000e+00 -7.346620e+00
    endloop
  endfacet
  facet normal 0.000000e+00 1.000000e+00 0.000000e+00
    outer loop
      vertex   -7.245213e+01 5.000000e+00 -4.902409e+00
      vertex   7.224522e+01 5.000000e+00 -7.346620e+00
      vertex   -7.195587e+01 5.000000e+00 -9.782449e+00
    endloop
  endfacet
  facet normal -0.000000e+00 1.000000e+00 0.000000e+00
    outer loop
      vertex   -7.195587e+01 5.000000e+00 -9.782449e+00
      vertex   7.224522e+01 5.000000e+00 -7.346620e+00
      vertex   7.158443e+01 5.000000e+00 -1.220712e+01
    endloop
  endfacet
  facet normal 0.000000e+00 1.000000e+00 0.000000e+00
    outer loop
      vertex   -7.195587e+01 5.000000e+00 -9.782449e+00
      vertex   7.158443e+01 5.000000e+00 -1.220712e+01
      vertex   -7.113130e+01 5.000000e+00 -1.461785e+01
    endloop
  endfacet
  facet normal -0.000000e+00 1.000000e+00 0.000000e+00
    outer loop
      vertex   -7.113130e+01 5.000000e+00 -1.461785e+01
      vertex   7.158443e+01 5.000000e+00 -1.220712e+01
      vertex   7.059702e+01 5.000000e+00 -1.701191e+01
    endloop
  endfacet
  facet normal 0.000000e+00 1.000000e+00 0.000000e+00
    outer loop
      vertex   -7.113130e+01 5.000000e+00 -1.461785e+01
      vertex   7.059702e+01 5.000000e+00 -1.701191e+01
      vertex   -6.998218e+01 5.000000e+00 -1.938656e+01
    endloop
  endfacet
  facet normal -0.000000e+00 1.000000e+00 0.000000e+00
    outer loop
      vertex   -6.998218e+01 5.000000e+00 -1.938656e+01
      vertex   7.059702e+01 5.000000e+00 -1.701191e+01
      vertex   -6.851374e+01 5.000000e+00 -2.406681e+01
    endloop
  endfacet
  facet normal -0.000000e+00 1.000000e+00 0.000000e+00
    outer loop
      vertex   -6.851374e+01 5.000000e+00 -2.406681e+01
      vertex   7.059702e+01 5.000000e+00 -1.701191e+01
      vertex   -6.673269e+01 5.000000e+00 -2.863725e+01
    endloop
  endfacet
  facet normal -0.000000e+00 1.000000e+00 0.000000e+00
    outer loop
      vertex   -6.673269e+01 5.000000e+00 -2.863725e+01
      vertex   7.059702e+01 5.000000e+00 -1.701191e+01
      vertex   -6.464715e+01 5.000000e+00 -3.307703e+01
    endloop
  endfacet
  facet normal -0.000000e+00 1.000000e+00 0.000000e+00
    outer loop
      vertex   -6.464715e+01 5.000000e+00 -3.307703e+01
      vertex   7.059702e+01 5.000000e+00 -1.701191e+01
      vertex   -6.226665e+01 5.000000e+00 -3.736588e+01
    endloop
  endfacet
  facet normal -0.000000e+00 1.000000e+00 0.000000e+00
    outer loop
      vertex   -6.226665e+01 5.000000e+00 -3.736588e+01
      vertex   7.059702e+01 5.000000e+00 -1.701191e+01
      vertex   -5.960203e+01 5.000000e+00 -4.148424e+01
    endloop
  endfacet
  facet normal -0.000000e+00 1.000000e+00 0.000000e+00
    outer loop
      vertex   -5.960203e+01 5.000000e+00 -4.148424e+01
      vertex   7.059702e+01 5.000000e+00 -1.701191e+01
      vertex   -5.666547e+01 5.000000e+00 -4.541331e+01
    endloop
  endfacet
  facet normal -0.000000e+00 1.000000e+00 0.000000e+00
    outer loop
      vertex   -5.666547e+01 5.000000e+00 -4.541331e+01
      vertex   7.059702e+01 5.000000e+00 -1.701191e+01
      vertex   -5.347035e+01 5.000000e+00 -4.913518e+01
    endloop
  endfacet
  facet normal -0.000000e+00 1.000000e+00 0.000000e+00
    outer loop
      vertex   -5.347035e+01 5.000000e+00 -4.913518e+01
      vertex   7.059702e+01 5.000000e+00 -1.701191e+01
      vertex   -5.003126e+01 5.000000e+00 -5.263285e+01
    endloop
  endfacet
  facet normal -0.000000e+00 1.000000e+00 0.000000e+00
    outer loop
      vertex   -5.003126e+01 5.000000e+00 -5.263285e+01
      vertex   7.059702e+01 5.000000e+00 -1.701191e+01
      vertex   -4.636389e+01 5.000000e+00 -5.589038e+01
    endloop
  endfacet
  facet normal -0.000000e+00 1.000000e+00 0.000000e+00
    outer loop
      vertex   -4.636389e+01 5.000000e+00 -5.589038e+01
      vertex   7.059702e+01 5.000000e+00 -1.701191e+01
      vertex   -4.248497e+01 5.000000e+00 -5.889288e+01
    endloop
  endfacet
  facet normal -0.000000e+00 1.000000e+00 0.000000e+00
    outer loop
      vertex   -4.248497e+01 5.000000e+00 -5.889288e+01
      vertex   7.059702e+01 5.000000e+00 -1.701191e+01
      vertex   -3.841220e+01 5.000000e+00 -6.162667e+01
    endloop
  endfacet
  facet normal -0.000000e+00 1.000000e+00 0.000000e+00
    outer loop
      vertex   -3.841220e+01 5.000000e+00 -6.162667e+01
      vertex   7.059702e+01 5.000000e+00 -1.701191e+01
      vertex   -3.416417e+01 5.000000e+00 -6.407928e+01
    endloop
  endfacet
  facet normal -0.000000e+00 1.000000e+00 0.000000e+00
    outer loop
      vertex   -3.416417e+01 5.000000e+00 -6.407928e+01
      vertex   7.059702e+01 5.000000e+00 -1.701191e+01
      vertex   -2.976025e+01 5.000000e+00 -6.623950e+01
    endloop
  endfacet
  facet normal -0.000000e+00 1.000000e+00 0.000000e+00
    outer loop
      vertex   -2.976025e+01 5.000000e+00 -6.623950e+01
      vertex   7.059702e+01 5.000000e+00 -1.701191e+01
      vertex   -2.522054e+01 5.000000e+00 -6.809749e+01
    endloop
  endfacet
  facet normal -0.000000e+00 1.000000e+00 0.000000e+00
    outer loop
      vertex   -2.522054e+01 5.000000e+00 -6.809749e+01
      vertex   7.059702e+01 5.000000e+00 -1.701191e+01
      vertex   -2.056576e+01 5.000000e+00 -6.964477e+01
    endloop
  endfacet
  facet normal -0.000000e+00 1.000000e+00 0.000000e+00
    outer loop
      vertex   -2.056576e+01 5.000000e+00 -6.964477e+01
      vertex   7.059702e+01 5.000000e+00 -1.701191e+01
      vertex   -1.581714e+01 5.000000e+00 -7.087427e+01
    endloop
  endfacet
  facet normal -0.000000e+00 1.000000e+00 0.000000e+00
    outer loop
      vertex   -1.581714e+01 5.000000e+00 -7.087427e+01
      vertex   7.059702e+01 5.000000e+00 -1.701191e+01
      vertex   -1.099635e+01 5.000000e+00 -7.178039e+01
    endloop
  endfacet
  facet normal -0.000000e+00 1.000000e+00 0.000000e+00
    outer loop
      vertex   -1.099635e+01 5.000000e+00 -7.178039e+01
      vertex   7.059702e+01 5.000000e+00 -1.701191e+01
      vertex   -6.125388e+00 5.000000e+00 -7.235899e+01
    endloop
  endfacet
  facet normal -0.000000e+00 1.000000e+00 0.000000e+00
    outer loop
      vertex   -6.125388e+00 5.000000e+00 -7.235899e+01
      vertex   7.059702e+01 5.000000e+00 -1.701191e+01
      vertex   -1.226477e+00 5.000000e+00 -7.260744e+01
    endloop
  endfacet
  facet normal 0.000000e+00 1.000000e+00 0.000000e+00
    outer loop
      vertex   -1.226477e+00 5.000000e+00 -7.260744e+01
      vertex   7.059702e+01 5.000000e+00 -1.701191e+01
      vertex   3.678031e+00 5.000000e+00 -7.252459e+01
    endloop
  endfacet
  facet normal 0.000000e+00 1.000000e+00 0.000000e+00
    outer loop
      vertex   3.678031e+00 5.000000e+00 -7.252459e+01
      vertex   7.059702e+01 5.000000e+00 -1.701191e+01
      vertex   8.565757e+00 5.000000e+00 -7.211083e+01
    endloop
  endfacet
  facet normal 0.000000e+00 1.000000e+00 0.000000e+00
    outer loop
      vertex   8.565757e+00 5.000000e+00 -7.211083e+01
      vertex   7.059702e+01 5.000000e+00 -1.701191e+01
      vertex   1.341440e+01 5.000000e+00 -7.136805e+01
    endloop
  endfacet
  facet normal 0.000000e+00 1.000000e+00 0.000000e+00
    outer loop
      vertex   1.341440e+01 5.000000e+00 -7.136805e+01
      vertex   7.059702e+01 5.000000e+00 -1.701191e+01
      vertex   1.820183e+01 5.000000e+00 -7.029963e+01
    endloop
  endfacet
  facet normal 0.000000e+00 1.000000e+00 0.000000e+00
    outer loop
      vertex   1.820183e+01 5.000000e+00 -7.029963e+01
      vertex   7.059702e+01 5.000000e+00 -1.701191e+01
      vertex   2.290622e+01 5.000000e+00 -6.891044e+01
    endloop
  endfacet
  facet normal 0.000000e+00 1.000000e+00 0.000000e+00
    outer loop
      vertex   2.290622e+01 5.000000e+00 -6.891044e+01
      vertex   7.059702e+01 5.000000e+00 -1.701191e+01
      vertex   2.750609e+01 5.000000e+00 -6.720684e+01
    endloop
  endfacet
  facet normal 0.000000e+00 1.000000e+00 0.000000e+00
    outer loop
      vertex   2.750609e+01 5.000000e+00 -6.720684e+01
      vertex   7.059702e+01 5.000000e+00 -1.701191e+01
      vertex   3.198045e+01 5.000000e+00 -6.519659e+01
    endloop
  endfacet
  facet normal 0.000000e+00 1.000000e+00 0.000000e+00
    outer loop
      vertex   3.198045e+01 5.000000e+00 -6.519659e+01
      vertex   7.059702e+01 5.000000e+00 -1.701191e+01
      vertex   3.630890e+01 5.000000e+00 -6.288886e+01
    endloop
  endfacet
  facet normal 0.000000e+00 1.000000e+00 0.000000e+00
    outer loop
      vertex   3.630890e+01 5.000000e+00 -6.288886e+01
      vertex   7.059702e+01 5.000000e+00 -1.701191e+01
      vertex   4.047167e+01 5.000000e+00 -6.029418e+01
    endloop
  endfacet
  facet normal 0.000000e+00 1.000000e+00 0.000000e+00
    outer loop
      vertex   4.047167e+01 5.000000e+00 -6.029418e+01
      vertex   7.059702e+01 5.000000e+00 -1.701191e+01
      vertex   4.444979e+01 5.000000e+00 -5.742439e+01
    endloop
  endfacet
  facet normal 0.000000e+00 1.000000e+00 0.000000e+00
    outer loop
      vertex   4.444979e+01 5.000000e+00 -5.742439e+01
      vertex   7.059702e+01 5.000000e+00 -1.701191e+01
      vertex   4.822509e+01 5.000000e+00 -5.429259e+01
    endloop
  endfacet
  facet normal 0.000000e+00 1.000000e+00 0.000000e+00
    outer loop
      vertex   4.822509e+01 5.000000e+00 -5.429259e+01
      vertex   7.059702e+01 5.000000e+00 -1.701191e+01
      vertex   5.178034e+01 5.000000e+00 -5.091306e+01
    endloop
  endfacet
  facet normal 0.000000e+00 1.000000e+00 0.000000e+00
    outer loop
      vertex   5.178034e+01 5.000000e+00 -5.091306e+01
      vertex   7.059702e+01 5.000000e+00 -1.701191e+01
      vertex   5.509934e+01 5.000000e+00 -4.730123e+01
    endloop
  endfacet
  facet normal 0.000000e+00 1.000000e+00 0.000000e+00
    outer loop
      vertex   5.509934e+01 5.000000e+00 -4.730123e+01
      vertex   7.059702e+01 5.000000e+00 -1.701191e+01
      vertex   5.816693e+01 5.000000e+00 -4.347358e+01
    endloop
  endfacet
  facet normal 0.000000e+00 1.000000e+00 0.000000e+00
    outer loop
      vertex   5.816693e+01 5.000000e+00 -4.347358e+01
      vertex   7.059702e+01 5.000000e+00 -1.701191e+01
      vertex   6.096912e+01 5.000000e+00 -3.944756e+01
    endloop
  endfacet
  facet normal 0.000000e+00 1.000000e+00 0.000000e+00
    outer loop
      vertex   6.096912e+01 5.000000e+00 -3.944756e+01
      vertex   7.059702e+01 5.000000e+00 -1.701191e+01
      vertex   6.349312e+01 5.000000e+00 -3.524156e+01
    endloop
  endfacet
  facet normal 0.000000e+00 1.000000e+00 0.000000e+00
    outer loop
      vertex   6.349312e+01 5.000000e+00 -3.524156e+01
      vertex   7.059702e+01 5.000000e+00 -1.701191e+01
      vertex   6.572742e+01 5.000000e+00 -3.087475e+01
    endloop
  endfacet
  facet normal 0.000000e+00 1.000000e+00 0.000000e+00
    outer loop
      vertex   6.572742e+01 5.000000e+00 -3.087475e+01
      vertex   7.059702e+01 5.000000e+00 -1.701191e+01
      vertex   6.766182e+01 5.000000e+00 -2.636708e+01
    endloop
  endfacet
  facet normal 0.000000e+00 1.000000e+00 0.000000e+00
    outer loop
      vertex   6.766182e+01 5.000000e+00 -2.636708e+01
      vertex   7.059702e+01 5.000000e+00 -1.701191e+01
      vertex   6.928749e+01 5.000000e+00 -2.173909e+01
    endloop
  endfacet
  facet normal 0.000000e+00 1.000000e+00 0.000000e+00
    outer loop
      vertex   7.257637e+01 5.000000e+00 2.452604e+00
      vertex   -7.245213e+01 5.000000e+00 4.902409e+00
      vertex   7.224522e+01 5.000000e+00 7.346620e+00
    endloop
  endfacet
  facet normal 0.000000e+00 1.000000e+00 0.000000e+00
    outer loop
      vertex   7.224522e+01 5.000000e+00 7.346620e+00
      vertex   -7.245213e+01 5.000000e+00 4.902409e+00
      vertex   -7.195587e+01 5.000000e+00 9.782449e+00
    endloop
  endfacet
  facet normal 0.000000e+00 1.000000e+00 0.000000e+00
    outer loop
      vertex   7.224522e+01 5.000000e+00 7.346620e+00
      vertex   -7.195587e+01 5.000000e+00 9.782449e+00
      vertex   7.158443e+01 5.000000e+00 1.220712e+01
    endloop
  endfacet
  facet normal 0.000000e+00 1.000000e+00 0.000000e+00
    outer loop
      vertex   7.158443e+01 5.000000e+00 1.220712e+01
      vertex   -7.195587e+01 5.000000e+00 9.782449e+00
      vertex   -7.113130e+01 5.000000e+00 1.461785e+01
    endloop
  endfacet
  facet normal 0.000000e+00 1.000000e+00 0.000000e+00
    outer loop
      vertex   7.158443e+01 5.000000e+00 1.220712e+01
      vertex   -7.113130e+01 5.000000e+00 1.461785e+01
      vertex   7.059702e+01 5.000000e+00 1.701191e+01
    endloop
  endfacet
  facet normal 0.000000e+00 1.000000e+00 0.000000e+00
    outer loop
      vertex   7.059702e+01 5.000000e+00 1.701191e+01
      vertex   -7.113130e+01 5.000000e+00 1.461785e+01
      vertex   -6.998218e+01 5.000000e+00 1.938656e+01
    endloop
  endfacet
  facet normal 0.000000e+00 1.000000e+00 0.000000e+00
    outer loop
      vertex   7.059702e+01 5.000000e+00 1.701191e+01
      vertex   -6.998218e+01 5.000000e+00 1.938656e+01
      vertex   6.928749e+01 5.000000e+00 2.173909e+01
    endloop
  endfacet
  facet normal 0.000000e+00 1.000000e+00 0.000000e+00
    outer loop
      vertex   6.928749e+01 5.000000e+00 2.173909e+01
      vertex   -6.998218e+01 5.000000e+00 1.938656e+01
      vertex   -6.851374e+01 5.000000e+00 2.406681e+01
    endloop
  endfacet
  facet normal 0.000000e+00 1.000000e+00 0.000000e+00
    outer loop
      vertex   6.928749e+01 5.000000e+00 2.173909e+01
      vertex   -6.851374e+01 5.000000e+00 2.406681e+01
      vertex   6.766182e+01 5.000000e+00 2.636708e+01
    endloop
  endfacet
  facet normal 0.000000e+00 1.000000e+00 0.000000e+00
    outer loop
      vertex   6.766182e+01 5.000000e+00 2.636708e+01
      vertex   -6.851374e+01 5.000000e+00 2.406681e+01
      vertex   -6.673269e+01 5.000000e+00 2.863725e+01
    endloop
  endfacet
  facet normal 0.000000e+00 1.000000e+00 0.000000e+00
    outer loop
      vertex   6.766182e+01 5.000000e+00 2.636708e+01
      vertex   -6.673269e+01 5.000000e+00 2.863725e+01
      vertex   6.572742e+01 5.000000e+00 3.087475e+01
    endloop
  endfacet
  facet normal 0.000000e+00 1.000000e+00 0.000000e+00
    outer loop
      vertex   6.572742e+01 5.000000e+00 3.087475e+01
      vertex   -6.673269e+01 5.000000e+00 2.863725e+01
      vertex   -6.464715e+01 5.000000e+00 3.307703e+01
    endloop
  endfacet
  facet normal 0.000000e+00 1.000000e+00 0.000000e+00
    outer loop
      vertex   6.572742e+01 5.000000e+00 3.087475e+01
      vertex   -6.464715e+01 5.000000e+00 3.307703e+01
      vertex   6.349312e+01 5.000000e+00 3.524156e+01
    endloop
  endfacet
  facet normal 0.000000e+00 1.000000e+00 0.000000e+00
    outer loop
      vertex   6.349312e+01 5.000000e+00 3.524156e+01
      vertex   -6.464715e+01 5.000000e+00 3.307703e+01
      vertex   -6.226665e+01 5.000000e+00 3.736588e+01
    endloop
  endfacet
  facet normal 0.000000e+00 1.000000e+00 0.000000e+00
    outer loop
      vertex   6.349312e+01 5.000000e+00 3.524156e+01
      vertex   -6.226665e+01 5.000000e+00 3.736588e+01
      vertex   6.096912e+01 5.000000e+00 3.944756e+01
    endloop
  endfacet
  facet normal 0.000000e+00 1.000000e+00 0.000000e+00
    outer loop
      vertex   6.096912e+01 5.000000e+00 3.944756e+01
      vertex   -6.226665e+01 5.000000e+00 3.736588e+01
      vertex   -5.960203e+01 5.000000e+00 4.148424e+01
    endloop
  endfacet
  facet normal 0.000000e+00 1.000000e+00 0.000000e+00
    outer loop
      vertex   6.096912e+01 5.000000e+00 3.944756e+01
      vertex   -5.960203e+01 5.000000e+00 4.148424e+01
      vertex   5.816693e+01 5.000000e+00 4.347358e+01
    endloop
  endfacet
  facet normal 0.000000e+00 1.000000e+00 0.000000e+00
    outer loop
      vertex   5.816693e+01 5.000000e+00 4.347358e+01
      vertex   -5.960203e+01 5.000000e+00 4.148424e+01
      vertex   -5.666547e+01 5.000000e+00 4.541331e+01
    endloop
  endfacet
  facet normal 0.000000e+00 1.000000e+00 0.000000e+00
    outer loop
      vertex   5.816693e+01 5.000000e+00 4.347358e+01
      vertex   -5.666547e+01 5.000000e+00 4.541331e+01
      vertex   5.509934e+01 5.000000e+00 4.730123e+01
    endloop
  endfacet
  facet normal 0.000000e+00 1.000000e+00 0.000000e+00
    outer loop
      vertex   5.509934e+01 5.000000e+00 4.730123e+01
      vertex   -5.666547e+01 5.000000e+00 4.541331e+01
      vertex   -5.347035e+01 5.000000e+00 4.913518e+01
    endloop
  endfacet
  facet normal 0.000000e+00 1.000000e+00 0.000000e+00
    outer loop
      vertex   5.509934e+01 5.000000e+00 4.730123e+01
      vertex   -5.347035e+01 5.000000e+00 4.913518e+01
      vertex   5.178034e+01 5.000000e+00 5.091306e+01
    endloop
  endfacet
  facet normal 0.000000e+00 1.000000e+00 0.000000e+00
    outer loop
      vertex   5.178034e+01 5.000000e+00 5.091306e+01
      vertex   -5.347035e+01 5.000000e+00 4.913518e+01
      vertex   -5.003126e+01 5.000000e+00 5.263285e+01
    endloop
  endfacet
  facet normal 0.000000e+00 1.000000e+00 0.000000e+00
    outer loop
      vertex   5.178034e+01 5.000000e+00 5.091306e+01
      vertex   -5.003126e+01 5.000000e+00 5.263285e+01
      vertex   4.822509e+01 5.000000e+00 5.429259e+01
    endloop
  endfacet
  facet normal 0.000000e+00 1.000000e+00 0.000000e+00
    outer loop
      vertex   4.822509e+01 5.000000e+00 5.429259e+01
      vertex   -5.003126e+01 5.000000e+00 5.263285e+01
      vertex   -4.636389e+01 5.000000e+00 5.589038e+01
    endloop
  endfacet
  facet normal 0.000000e+00 1.000000e+00 0.000000e+00
    outer loop
      vertex   4.822509e+01 5.000000e+00 5.429259e+01
      vertex   -4.636389e+01 5.000000e+00 5.589038e+01
      vertex   4.444979e+01 5.000000e+00 5.742439e+01
    endloop
  endfacet
  facet normal 0.000000e+00 1.000000e+00 0.000000e+00
    outer loop
      vertex   4.444979e+01 5.000000e+00 5.742439e+01
      vertex   -4.636389e+01 5.000000e+00 5.589038e+01
      vertex   -4.248497e+01 5.000000e+00 5.889288e+01
    endloop
  endfacet
  facet normal 0.000000e+00 1.000000e+00 0.000000e+00
    outer loop
      vertex   4.444979e+01 5.000000e+00 5.742439e+01
      vertex   -4.248497e+01 5.000000e+00 5.889288e+01
      vertex   4.047167e+01 5.000000e+00 6.029418e+01
    endloop
  endfacet
  facet normal 0.000000e+00 1.000000e+00 0.000000e+00
    outer loop
      vertex   4.047167e+01 5.000000e+00 6.029418e+01
      vertex   -4.248497e+01 5.000000e+00 5.889288e+01
      vertex   -3.841220e+01 5.000000e+00 6.162667e+01
    endloop
  endfacet
  facet normal 0.000000e+00 1.000000e+00 0.000000e+00
    outer loop
      vertex   4.047167e+01 5.000000e+00 6.029418e+01
      vertex   -3.841220e+01 5.000000e+00 6.162667e+01
      vertex   3.630890e+01 5.000000e+00 6.288886e+01
    endloop
  endfacet
  facet normal 0.000000e+00 1.000000e+00 0.000000e+00
    outer loop
      vertex   3.630890e+01 5.000000e+00 6.288886e+01
      vertex   -3.841220e+01 5.000000e+00 6.162667e+01
      vertex   -3.416417e+01 5.000000e+00 6.407928e+01
    endloop
  endfacet
  facet normal 0.000000e+00 1.000000e+00 0.000000e+00
    outer loop
      vertex   3.630890e+01 5.000000e+00 6.288886e+01
      vertex   -3.416417e+01 5.000000e+00 6.407928e+01
      vertex   3.198045e+01 5.000000e+00 6.519659e+01
    endloop
  endfacet
  facet normal 0.000000e+00 1.000000e+00 0.000000e+00
    outer loop
      vertex   3.198045e+01 5.000000e+00 6.519659e+01
      vertex   -3.416417e+01 5.000000e+00 6.407928e+01
      vertex   -2.976025e+01 5.000000e+00 6.623950e+01
    endloop
  endfacet
  facet normal 0.000000e+00 1.000000e+00 0.000000e+00
    outer loop
      vertex   3.198045e+01 5.000000e+00 6.519659e+01
      vertex   -2.976025e+01 5.000000e+00 6.623950e+01
      vertex   2.750609e+01 5.000000e+00 6.720684e+01
    endloop
  endfacet
  facet normal 0.000000e+00 1.000000e+00 0.000000e+00
    outer loop
      vertex   2.750609e+01 5.000000e+00 6.720684e+01
      vertex   -2.976025e+01 5.000000e+00 6.623950e+01
      vertex   -2.522054e+01 5.000000e+00 6.809749e+01
    endloop
  endfacet
  facet normal 0.000000e+00 1.000000e+00 0.000000e+00
    outer loop
      vertex   2.750609e+01 5.000000e+00 6.720684e+01
      vertex   -2.522054e+01 5.000000e+00 6.809749e+01
      vertex   2.290622e+01 5.000000e+00 6.891044e+01
    endloop
  endfacet
  facet normal 0.000000e+00 1.000000e+00 0.000000e+00
    outer loop
      vertex   2.290622e+01 5.000000e+00 6.891044e+01
      vertex   -2.522054e+01 5.000000e+00 6.809749e+01
      vertex   -2.056576e+01 5.000000e+00 6.964477e+01
    endloop
  endfacet
  facet normal 0.000000e+00 1.000000e+00 0.000000e+00
    outer loop
      vertex   2.290622e+01 5.000000e+00 6.891044e+01
      vertex   -2.056576e+01 5.000000e+00 6.964477e+01
      vertex   1.820183e+01 5.000000e+00 7.029963e+01
    endloop
  endfacet
  facet normal 0.000000e+00 1.000000e+00 0.000000e+00
    outer loop
      vertex   1.820183e+01 5.000000e+00 7.029963e+01
      vertex   -2.056576e+01 5.000000e+00 6.964477e+01
      vertex   -1.581714e+01 5.000000e+00 7.087427e+01
    endloop
  endfacet
  facet normal 0.000000e+00 1.000000e+00 0.000000e+00
    outer loop
      vertex   1.820183e+01 5.000000e+00 7.029963e+01
      vertex   -1.581714e+01 5.000000e+00 7.087427e+01
      vertex   1.341440e+01 5.000000e+00 7.136805e+01
    endloop
  endfacet
  facet normal 0.000000e+00 1.000000e+00 0.000000e+00
    outer loop
      vertex   1.341440e+01 5.000000e+00 7.136805e+01
      vertex   -1.581714e+01 5.000000e+00 7.087427e+01
      vertex   -1.099635e+01 5.000000e+00 7.178039e+01
    endloop
  endfacet
  facet normal 0.000000e+00 1.000000e+00 0.000000e+00
    outer loop
      vertex   1.341440e+01 5.000000e+00 7.136805e+01
      vertex   -1.099635e+01 5.000000e+00 7.178039e+01
      vertex   8.565757e+00 5.000000e+00 7.211083e+01
    endloop
  endfacet
  facet normal 0.000000e+00 1.000000e+00 0.000000e+00
    outer loop
      vertex   8.565757e+00 5.000000e+00 7.211083e+01
      vertex   -1.099635e+01 5.000000e+00 7.178039e+01
      vertex   -6.125388e+00 5.000000e+00 7.235899e+01
    endloop
  endfacet
  facet normal 0.000000e+00 1.000000e+00 0.000000e+00
    outer loop
      vertex   8.565757e+00 5.000000e+00 7.211083e+01
      vertex   -6.125388e+00 5.000000e+00 7.235899e+01
      vertex   3.678031e+00 5.000000e+00 7.252459e+01
    endloop
  endfacet
  facet normal 0.000000e+00 1.000000e+00 0.000000e+00
    outer loop
      vertex   3.678031e+00 5.000000e+00 7.252459e+01
      vertex   -6.125388e+00 5.000000e+00 7.235899e+01
      vertex   -1.226477e+00 5.000000e+00 7.260744e+01
    endloop
  endfacet
  facet normal 0.000000e+00 -1.000000e+00 0.000000e+00
    outer loop
      vertex   -7.245213e+01 -5.000000e+00 -4.902409e+00
      vertex   7.257637e+01 -5.000000e+00 -2.452604e+00
      vertex   -7.261780e+01 -5.000000e+00 8.893115e-15
    endloop
  endfacet
  facet normal 0.000000e+00 -1.000000e+00 0.000000e+00
    outer loop
      vertex   -7.261780e+01 -5.000000e+00 8.893115e-15
      vertex   7.257637e+01 -5.000000e+00 -2.452604e+00
      vertex   7.257637e+01 -5.000000e+00 2.452604e+00
    endloop
  endfacet
  facet normal 0.000000e+00 -1.000000e+00 0.000000e+00
    outer loop
      vertex   -7.261780e+01 -5.000000e+00 8.893115e-15
      vertex   7.257637e+01 -5.000000e+00 2.452604e+00
      vertex   -7.245213e+01 -5.000000e+00 4.902409e+00
    endloop
  endfacet
  facet normal 0.000000e+00 -1.000000e+00 0.000000e+00
    outer loop
      vertex   -7.245213e+01 -5.000000e+00 4.902409e+00
      vertex   7.257637e+01 -5.000000e+00 2.452604e+00
      vertex   7.224522e+01 -5.000000e+00 7.346620e+00
    endloop
  endfacet
  facet normal 0.000000e+00 -1.000000e+00 0.000000e+00
    outer loop
      vertex   -7.245213e+01 -5.000000e+00 4.902409e+00
      vertex   7.224522e+01 -5.000000e+00 7.346620e+00
      vertex   -7.195587e+01 -5.000000e+00 9.782449e+00
    endloop
  endfacet
  facet normal 0.000000e+00 -1.000000e+00 0.000000e+00
    outer loop
      vertex   -7.195587e+01 -5.000000e+00 9.782449e+00
      vertex   7.224522e+01 -5.000000e+00 7.346620e+00
      vertex   7.158443e+01 -5.000000e+00 1.220712e+01
    endloop
  endfacet
  facet normal 0.000000e+00 -1.000000e+00 0.000000e+00
    outer loop
      vertex   -7.195587e+01 -5.000000e+00 9.782449e+00
      vertex   7.158443e+01 -5.000000e+00 1.220712e+01
      vertex   -7.113130e+01 -5.000000e+00 1.461785e+01
    endloop
  endfacet
  facet normal 0.000000e+00 -1.000000e+00 0.000000e+00
    outer loop
      vertex   -7.113130e+01 -5.000000e+00 1.461785e+01
      vertex   7.158443e+01 -5.000000e+00 1.220712e+01
      vertex   7.059702e+01 -5.000000e+00 1.701191e+01
    endloop
  endfacet
  facet normal 0.000000e+00 -1.000000e+00 0.000000e+00
    outer loop
      vertex   -7.113130e+01 -5.000000e+00 1.461785e+01
      vertex   7.059702e+01 -5.000000e+00 1.701191e+01
      vertex   -6.998218e+01 -5.000000e+00 1.938656e+01
    endloop
  endfacet
  facet normal 0.000000e+00 -1.000000e+00 0.000000e+00
    outer loop
      vertex   -6.998218e+01 -5.000000e+00 1.938656e+01
      vertex   7.059702e+01 -5.000000e+00 1.701191e+01
      vertex   6.928749e+01 -5.000000e+00 2.173909e+01
    endloop
  endfacet
  facet normal 0.000000e+00 -1.000000e+00 0.000000e+00
    outer loop
      vertex   -6.998218e+01 -5.000000e+00 1.938656e+01
      vertex   6.928749e+01 -5.000000e+00 2.173909e+01
      vertex   -6.851374e+01 -5.000000e+00 2.406681e+01
    endloop
  endfacet
  facet normal 0.000000e+00 -1.000000e+00 0.000000e+00
    outer loop
      vertex   -6.851374e+01 -5.000000e+00 2.406681e+01
      vertex   6.928749e+01 -5.000000e+00 2.173909e+01
      vertex   6.766182e+01 -5.000000e+00 2.636708e+01
    endloop
  endfacet
  facet normal 0.000000e+00 -1.000000e+00 0.000000e+00
    outer loop
      vertex   -6.851374e+01 -5.000000e+00 2.406681e+01
      vertex   6.766182e+01 -5.000000e+00 2.636708e+01
      vertex   -6.673269e+01 -5.000000e+00 2.863725e+01
    endloop
  endfacet
  facet normal 0.000000e+00 -1.000000e+00 0.000000e+00
    outer loop
      vertex   -6.673269e+01 -5.000000e+00 2.863725e+01
      vertex   6.766182e+01 -5.000000e+00 2.636708e+01
      vertex   6.572742e+01 -5.000000e+00 3.087475e+01
    endloop
  endfacet
  facet normal 0.000000e+00 -1.000000e+00 0.000000e+00
    outer loop
      vertex   -6.673269e+01 -5.000000e+00 2.863725e+01
      vertex   6.572742e+01 -5.000000e+00 3.087475e+01
      vertex   -6.464715e+01 -5.000000e+00 3.307703e+01
    endloop
  endfacet
  facet normal 0.000000e+00 -1.000000e+00 0.000000e+00
    outer loop
      vertex   -6.464715e+01 -5.000000e+00 3.307703e+01
      vertex   6.572742e+01 -5.000000e+00 3.087475e+01
      vertex   6.349312e+01 -5.000000e+00 3.524156e+01
    endloop
  endfacet
  facet normal 0.000000e+00 -1.000000e+00 0.000000e+00
    outer loop
      vertex   -6.464715e+01 -5.000000e+00 3.307703e+01
      vertex   6.349312e+01 -5.000000e+00 3.524156e+01
      vertex   -6.226665e+01 -5.000000e+00 3.736588e+01
    endloop
  endfacet
  facet normal 0.000000e+00 -1.000000e+00 0.000000e+00
    outer loop
      vertex   -6.226665e+01 -5.000000e+00 3.736588e+01
      vertex   6.349312e+01 -5.000000e+00 3.524156e+01
      vertex   6.096912e+01 -5.000000e+00 3.944756e+01
    endloop
  endfacet
  facet normal 0.000000e+00 -1.000000e+00 0.000000e+00
    outer loop
      vertex   -6.226665e+01 -5.000000e+00 3.736588e+01
      vertex   6.096912e+01 -5.000000e+00 3.944756e+01
      vertex   -5.960203e+01 -5.000000e+00 4.148424e+01
    endloop
  endfacet
  facet normal 0.000000e+00 -1.000000e+00 0.000000e+00
    outer loop
      vertex   -5.960203e+01 -5.000000e+00 4.148424e+01
      vertex   6.096912e+01 -5.000000e+00 3.944756e+01
      vertex   5.816693e+01 -5.000000e+00 4.347358e+01
    endloop
  endfacet
  facet normal 0.000000e+00 -1.000000e+00 0.000000e+00
    outer loop
      vertex   -5.960203e+01 -5.000000e+00 4.148424e+01
      vertex   5.816693e+01 -5.000000e+00 4.347358e+01
      vertex   -5.666547e+01 -5.000000e+00 4.541331e+01
    endloop
  endfacet
  facet normal 0.000000e+00 -1.000000e+00 0.000000e+00
    outer loop
      vertex   -5.666547e+01 -5.000000e+00 4.541331e+01
      vertex   5.816693e+01 -5.000000e+00 4.347358e+01
      vertex   5.509934e+01 -5.000000e+00 4.730123e+01
    endloop
  endfacet
  facet normal 0.000000e+00 -1.000000e+00 0.000000e+00
    outer loop
      vertex   -5.666547e+01 -5.000000e+00 4.541331e+01
      vertex   5.509934e+01 -5.000000e+00 4.730123e+01
      vertex   -5.347035e+01 -5.000000e+00 4.913518e+01
    endloop
  endfacet
  facet normal 0.000000e+00 -1.000000e+00 0.000000e+00
    outer loop
      vertex   -5.347035e+01 -5.000000e+00 4.913518e+01
      vertex   5.509934e+01 -5.000000e+00 4.730123e+01
      vertex   5.178034e+01 -5.000000e+00 5.091306e+01
    endloop
  endfacet
  facet normal 0.000000e+00 -1.000000e+00 0.000000e+00
    outer loop
      vertex   -5.347035e+01 -5.000000e+00 4.913518e+01
      vertex   5.178034e+01 -5.000000e+00 5.091306e+01
      vertex   -5.003126e+01 -5.000000e+00 5.263285e+01
    endloop
  endfacet
  facet normal 0.000000e+00 -1.000000e+00 0.000000e+00
    outer loop
      vertex   -5.003126e+01 -5.000000e+00 5.263285e+01
      vertex   5.178034e+01 -5.000000e+00 5.091306e+01
      vertex   4.822509e+01 -5.000000e+00 5.429259e+01
    endloop
  endfacet
  facet normal 0.000000e+00 -1.000000e+00 0.000000e+00
    outer loop
      vertex   -5.003126e+01 -5.000000e+00 5.263285e+01
      vertex   4.822509e+01 -5.000000e+00 5.429259e+01
      vertex   -4.636389e+01 -5.000000e+00 5.589038e+01
    endloop
  endfacet
  facet normal 0.000000e+00 -1.000000e+00 0.000000e+00
    outer loop
      vertex   -4.636389e+01 -5.000000e+00 5.589038e+01
      vertex   4.822509e+01 -5.000000e+00 5.429259e+01
      vertex   4.444979e+01 -5.000000e+00 5.742439e+01
    endloop
  endfacet
  facet normal 0.000000e+00 -1.000000e+00 0.000000e+00
    outer loop
      vertex   -4.636389e+01 -5.000000e+00 5.589038e+01
      vertex   4.444979e+01 -5.000000e+00 5.742439e+01
      vertex   -4.248497e+01 -5.000000e+00 5.889288e+01
    endloop
  endfacet
  facet normal 0.000000e+00 -1.000000e+00 0.000000e+00
    outer loop
      vertex   -4.248497e+01 -5.000000e+00 5.889288e+01
      vertex   4.444979e+01 -5.000000e+00 5.742439e+01
      vertex   4.047167e+01 -5.000000e+00 6.029418e+01
    endloop
  endfacet
  facet normal 0.000000e+00 -1.000000e+00 0.000000e+00
    outer loop
      vertex   -4.248497e+01 -5.000000e+00 5.889288e+01
      vertex   4.047167e+01 -5.000000e+00 6.029418e+01
      vertex   -3.841220e+01 -5.000000e+00 6.162667e+01
    endloop
  endfacet
  facet normal 0.000000e+00 -1.000000e+00 0.000000e+00
    outer loop
      vertex   -3.841220e+01 -5.000000e+00 6.162667e+01
      vertex   4.047167e+01 -5.000000e+00 6.029418e+01
      vertex   3.630890e+01 -5.000000e+00 6.288886e+01
    endloop
  endfacet
  facet normal 0.000000e+00 -1.000000e+00 0.000000e+00
    outer loop
      vertex   -3.841220e+01 -5.000000e+00 6.162667e+01
      vertex   3.630890e+01 -5.000000e+00 6.288886e+01
      vertex   -3.416417e+01 -5.000000e+00 6.407928e+01
    endloop
  endfacet
  facet normal 0.000000e+00 -1.000000e+00 0.000000e+00
    outer loop
      vertex   -3.416417e+01 -5.000000e+00 6.407928e+01
      vertex   3.630890e+01 -5.000000e+00 6.288886e+01
      vertex   3.198045e+01 -5.000000e+00 6.519659e+01
    endloop
  endfacet
  facet normal 0.000000e+00 -1.000000e+00 0.000000e+00
    outer loop
      vertex   -3.416417e+01 -5.000000e+00 6.407928e+01
      vertex   3.198045e+01 -5.000000e+00 6.519659e+01
      vertex   -2.976025e+01 -5.000000e+00 6.623950e+01
    endloop
  endfacet
  facet normal 0.000000e+00 -1.000000e+00 0.000000e+00
    outer loop
      vertex   -2.976025e+01 -5.000000e+00 6.623950e+01
      vertex   3.198045e+01 -5.000000e+00 6.519659e+01
      vertex   2.750609e+01 -5.000000e+00 6.720684e+01
    endloop
  endfacet
  facet normal 0.000000e+00 -1.000000e+00 0.000000e+00
    outer loop
      vertex   -2.976025e+01 -5.000000e+00 6.623950e+01
      vertex   2.750609e+01 -5.000000e+00 6.720684e+01
      vertex   -2.522054e+01 -5.000000e+00 6.809749e+01
    endloop
  endfacet
  facet normal 0.000000e+00 -1.000000e+00 0.000000e+00
    outer loop
      vertex   -2.522054e+01 -5.000000e+00 6.809749e+01
      vertex   2.750609e+01 -5.000000e+00 6.720684e+01
      vertex   2.290622e+01 -5.000000e+00 6.891044e+01
    endloop
  endfacet
  facet normal 0.000000e+00 -1.000000e+00 0.000000e+00
    outer loop
      vertex   -2.522054e+01 -5.000000e+00 6.809749e+01
      vertex   2.290622e+01 -5.000000e+00 6.891044e+01
      vertex   -2.056576e+01 -5.000000e+00 6.964477e+01
    endloop
  endfacet
  facet normal 0.000000e+00 -1.000000e+00 0.000000e+00
    outer loop
      vertex   -2.056576e+01 -5.000000e+00 6.964477e+01
      vertex   2.290622e+01 -5.000000e+00 6.891044e+01
      vertex   1.820183e+01 -5.000000e+00 7.029963e+01
    endloop
  endfacet
  facet normal 0.000000e+00 -1.000000e+00 0.000000e+00
    outer loop
      vertex   -2.056576e+01 -5.000000e+00 6.964477e+01
      vertex   1.820183e+01 -5.000000e+00 7.029963e+01
      vertex   -1.581714e+01 -5.000000e+00 7.087427e+01
    endloop
  endfacet
  facet normal 0.000000e+00 -1.000000e+00 0.000000e+00
    outer loop
      vertex   -1.581714e+01 -5.000000e+00 7.087427e+01
      vertex   1.820183e+01 -5.000000e+00 7.029963e+01
      vertex   1.341440e+01 -5.000000e+00 7.136805e+01
    endloop
  endfacet
  facet normal 0.000000e+00 -1.000000e+00 0.000000e+00
    outer loop
      vertex   -1.581714e+01 -5.000000e+00 7.087427e+01
      vertex   1.341440e+01 -5.000000e+00 7.136805e+01
      vertex   -1.099635e+01 -5.000000e+00 7.178039e+01
    endloop
  endfacet
  facet normal 0.000000e+00 -1.000000e+00 0.000000e+00
    outer loop
      vertex   -1.099635e+01 -5.000000e+00 7.178039e+01
      vertex   1.341440e+01 -5.000000e+00 7.136805e+01
      vertex   8.565757e+00 -5.000000e+00 7.211083e+01
    endloop
  endfacet
  facet normal 0.000000e+00 -1.000000e+00 0.000000e+00
    outer loop
      vertex   -1.099635e+01 -5.000000e+00 7.178039e+01
      vertex   8.565757e+00 -5.000000e+00 7.211083e+01
      vertex   -6.125388e+00 -5.000000e+00 7.235899e+01
    endloop
  endfacet
  facet normal 0.000000e+00 -1.000000e+00 0.000000e+00
    outer loop
      vertex   -6.125388e+00 -5.000000e+00 7.235899e+01
      vertex   8.565757e+00 -5.000000e+00 7.211083e+01
      vertex   3.678031e+00 -5.000000e+00 7.252459e+01
    endloop
  endfacet
  facet normal 0.000000e+00 -1.000000e+00 0.000000e+00
    outer loop
      vertex   -6.125388e+00 -5.000000e+00 7.235899e+01
      vertex   3.678031e+00 -5.000000e+00 7.252459e+01
      vertex   -1.226477e+00 -5.000000e+00 7.260744e+01
    endloop
  endfacet
  facet normal 0.000000e+00 -1.000000e+00 0.000000e+00
    outer loop
      vertex   7.257637e+01 -5.000000e+00 -2.452604e+00
      vertex   -7.245213e+01 -5.000000e+00 -4.902409e+00
      vertex   7.224522e+01 -5.000000e+00 -7.346620e+00
    endloop
  endfacet
  facet normal -0.000000e+00 -1.000000e+00 0.000000e+00
    outer loop
      vertex   7.224522e+01 -5.000000e+00 -7.346620e+00
      vertex   -7.245213e+01 -5.000000e+00 -4.902409e+00
      vertex   -7.195587e+01 -5.000000e+00 -9.782449e+00
    endloop
  endfacet
  facet normal 0.000000e+00 -1.000000e+00 0.000000e+00
    outer loop
      vertex   7.224522e+01 -5.000000e+00 -7.346620e+00
      vertex   -7.195587e+01 -5.000000e+00 -9.782449e+00
      vertex   7.158443e+01 -5.000000e+00 -1.220712e+01
    endloop
  endfacet
  facet normal -0.000000e+00 -1.000000e+00 0.000000e+00
    outer loop
      vertex   7.158443e+01 -5.000000e+00 -1.220712e+01
      vertex   -7.195587e+01 -5.000000e+00 -9.782449e+00
      vertex   -7.113130e+01 -5.000000e+00 -1.461785e+01
    endloop
  endfacet
  facet normal 0.000000e+00 -1.000000e+00 0.000000e+00
    outer loop
      vertex   7.158443e+01 -5.000000e+00 -1.220712e+01
      vertex   -7.113130e+01 -5.000000e+00 -1.461785e+01
      vertex   7.059702e+01 -5.000000e+00 -1.701191e+01
    endloop
  endfacet
  facet normal -0.000000e+00 -1.000000e+00 0.000000e+00
    outer loop
      vertex   7.059702e+01 -5.000000e+00 -1.701191e+01
      vertex   -7.113130e+01 -5.000000e+00 -1.461785e+01
      vertex   -6.998218e+01 -5.000000e+00 -1.938656e+01
    endloop
  endfacet
  facet normal 0.000000e+00 -1.000000e+00 0.000000e+00
    outer loop
      vertex   7.059702e+01 -5.000000e+00 -1.701191e+01
      vertex   -6.998218e+01 -5.000000e+00 -1.938656e+01
      vertex   -6.851374e+01 -5.000000e+00 -2.406681e+01
    endloop
  endfacet
  facet normal 0.000000e+00 -1.000000e+00 0.000000e+00
    outer loop
      vertex   -6.851374e+01 -5.000000e+00 -2.406681e+01
      vertex   -6.673269e+01 -5.000000e+00 -2.863725e+01
      vertex   7.059702e+01 -5.000000e+00 -1.701191e+01
    endloop
  endfacet
  facet normal 0.000000e+00 -1.000000e+00 0.000000e+00
    outer loop
      vertex   7.059702e+01 -5.000000e+00 -1.701191e+01
      vertex   -6.673269e+01 -5.000000e+00 -2.863725e+01
      vertex   -6.464715e+01 -5.000000e+00 -3.307703e+01
    endloop
  endfacet
  facet normal 0.000000e+00 -1.000000e+00 0.000000e+00
    outer loop
      vertex   7.059702e+01 -5.000000e+00 -1.701191e+01
      vertex   -6.464715e+01 -5.000000e+00 -3.307703e+01
      vertex   -6.226665e+01 -5.000000e+00 -3.736588e+01
    endloop
  endfacet
  facet normal 0.000000e+00 -1.000000e+00 0.000000e+00
    outer loop
      vertex   -6.226665e+01 -5.000000e+00 -3.736588e+01
      vertex   -5.960203e+01 -5.000000e+00 -4.148424e+01
      vertex   7.059702e+01 -5.000000e+00 -1.701191e+01
    endloop
  endfacet
  facet normal 0.000000e+00 -1.000000e+00 0.000000e+00
    outer loop
      vertex   7.059702e+01 -5.000000e+00 -1.701191e+01
      vertex   -5.960203e+01 -5.000000e+00 -4.148424e+01
      vertex   -5.666547e+01 -5.000000e+00 -4.541331e+01
    endloop
  endfacet
  facet normal 0.000000e+00 -1.000000e+00 0.000000e+00
    outer loop
      vertex   7.059702e+01 -5.000000e+00 -1.701191e+01
      vertex   -5.666547e+01 -5.000000e+00 -4.541331e+01
      vertex   -5.347035e+01 -5.000000e+00 -4.913518e+01
    endloop
  endfacet
  facet normal 0.000000e+00 -1.000000e+00 0.000000e+00
    outer loop
      vertex   -5.347035e+01 -5.000000e+00 -4.913518e+01
      vertex   -5.003126e+01 -5.000000e+00 -5.263285e+01
      vertex   7.059702e+01 -5.000000e+00 -1.701191e+01
    endloop
  endfacet
  facet normal 0.000000e+00 -1.000000e+00 0.000000e+00
    outer loop
      vertex   7.059702e+01 -5.000000e+00 -1.701191e+01
      vertex   -5.003126e+01 -5.000000e+00 -5.263285e+01
      vertex   -4.636389e+01 -5.000000e+00 -5.589038e+01
    endloop
  endfacet
  facet normal 0.000000e+00 -1.000000e+00 0.000000e+00
    outer loop
      vertex   7.059702e+01 -5.000000e+00 -1.701191e+01
      vertex   -4.636389e+01 -5.000000e+00 -5.589038e+01
      vertex   -4.248497e+01 -5.000000e+00 -5.889288e+01
    endloop
  endfacet
  facet normal 0.000000e+00 -1.000000e+00 0.000000e+00
    outer loop
      vertex   -4.248497e+01 -5.000000e+00 -5.889288e+01
      vertex   -3.841220e+01 -5.000000e+00 -6.162667e+01
      vertex   7.059702e+01 -5.000000e+00 -1.701191e+01
    endloop
  endfacet
  facet normal 0.000000e+00 -1.000000e+00 0.000000e+00
    outer loop
      vertex   7.059702e+01 -5.000000e+00 -1.701191e+01
      vertex   -3.841220e+01 -5.000000e+00 -6.162667e+01
      vertex   -3.416417e+01 -5.000000e+00 -6.407928e+01
    endloop
  endfacet
  facet normal 0.000000e+00 -1.000000e+00 0.000000e+00
    outer loop
      vertex   7.059702e+01 -5.000000e+00 -1.701191e+01
      vertex   -3.416417e+01 -5.000000e+00 -6.407928e+01
      vertex   -2.976025e+01 -5.000000e+00 -6.623950e+01
    endloop
  endfacet
  facet normal 0.000000e+00 -1.000000e+00 0.000000e+00
    outer loop
      vertex   -2.976025e+01 -5.000000e+00 -6.623950e+01
      vertex   -2.522054e+01 -5.000000e+00 -6.809749e+01
      vertex   7.059702e+01 -5.000000e+00 -1.701191e+01
    endloop
  endfacet
  facet normal 0.000000e+00 -1.000000e+00 0.000000e+00
    outer loop
      vertex   7.059702e+01 -5.000000e+00 -1.701191e+01
      vertex   -2.522054e+01 -5.000000e+00 -6.809749e+01
      vertex   -2.056576e+01 -5.000000e+00 -6.964477e+01
    endloop
  endfacet
  facet normal 0.000000e+00 -1.000000e+00 0.000000e+00
    outer loop
      vertex   7.059702e+01 -5.000000e+00 -1.701191e+01
      vertex   -2.056576e+01 -5.000000e+00 -6.964477e+01
      vertex   -1.581714e+01 -5.000000e+00 -7.087427e+01
    endloop
  endfacet
  facet normal 0.000000e+00 -1.000000e+00 0.000000e+00
    outer loop
      vertex   -1.581714e+01 -5.000000e+00 -7.087427e+01
      vertex   -1.099635e+01 -5.000000e+00 -7.178039e+01
      vertex   7.059702e+01 -5.000000e+00 -1.701191e+01
    endloop
  endfacet
  facet normal 0.000000e+00 -1.000000e+00 0.000000e+00
    outer loop
      vertex   7.059702e+01 -5.000000e+00 -1.701191e+01
      vertex   -1.099635e+01 -5.000000e+00 -7.178039e+01
      vertex   -6.125388e+00 -5.000000e+00 -7.235899e+01
    endloop
  endfacet
  facet normal 0.000000e+00 -1.000000e+00 0.000000e+00
    outer loop
      vertex   7.059702e+01 -5.000000e+00 -1.701191e+01
      vertex   -6.125388e+00 -5.000000e+00 -7.235899e+01
      vertex   -1.226477e+00 -5.000000e+00 -7.260744e+01
    endloop
  endfacet
  facet normal 0.000000e+00 -1.000000e+00 0.000000e+00
    outer loop
      vertex   -1.226477e+00 -5.000000e+00 -7.260744e+01
      vertex   3.678031e+00 -5.000000e+00 -7.252459e+01
      vertex   7.059702e+01 -5.000000e+00 -1.701191e+01
    endloop
  endfacet
  facet normal 0.000000e+00 -1.000000e+00 0.000000e+00
    outer loop
      vertex   7.059702e+01 -5.000000e+00 -1.701191e+01
      vertex   3.678031e+00 -5.000000e+00 -7.252459e+01
      vertex   8.565757e+00 -5.000000e+00 -7.211083e+01
    endloop
  endfacet
  facet normal 0.000000e+00 -1.000000e+00 0.000000e+00
    outer loop
      vertex   7.059702e+01 -5.000000e+00 -1.701191e+01
      vertex   8.565757e+00 -5.000000e+00 -7.211083e+01
      vertex   1.341440e+01 -5.000000e+00 -7.136805e+01
    endloop
  endfacet
  facet normal 0.000000e+00 -1.000000e+00 0.000000e+00
    outer loop
      vertex   1.341440e+01 -5.000000e+00 -7.136805e+01
      vertex   1.820183e+01 -5.000000e+00 -7.029963e+01
      vertex   7.059702e+01 -5.000000e+00 -1.701191e+01
    endloop
  endfacet
  facet normal 0.000000e+00 -1.000000e+00 0.000000e+00
    outer loop
      vertex   7.059702e+01 -5.000000e+00 -1.701191e+01
      vertex   1.820183e+01 -5.000000e+00 -7.029963e+01
      vertex   2.290622e+01 -5.000000e+00 -6.891044e+01
    endloop
  endfacet
  facet normal 0.000000e+00 -1.000000e+00 0.000000e+00
    outer loop
      vertex   7.059702e+01 -5.000000e+00 -1.701191e+01
      vertex   2.290622e+01 -5.000000e+00 -6.891044e+01
      vertex   2.750609e+01 -5.000000e+00 -6.720684e+01
    endloop
  endfacet
  facet normal 0.000000e+00 -1.000000e+00 0.000000e+00
    outer loop
      vertex   2.750609e+01 -5.000000e+00 -6.720684e+01
      vertex   3.198045e+01 -5.000000e+00 -6.519659e+01
      vertex   7.059702e+01 -5.000000e+00 -1.701191e+01
    endloop
  endfacet
  facet normal 0.000000e+00 -1.000000e+00 0.000000e+00
    outer loop
      vertex   7.059702e+01 -5.000000e+00 -1.701191e+01
      vertex   3.198045e+01 -5.000000e+00 -6.519659e+01
      vertex   3.630890e+01 -5.000000e+00 -6.288886e+01
    endloop
  endfacet
  facet normal 0.000000e+00 -1.000000e+00 0.000000e+00
    outer loop
      vertex   7.059702e+01 -5.000000e+00 -1.701191e+01
      vertex   3.630890e+01 -5.000000e+00 -6.288886e+01
      vertex   4.047167e+01 -5.000000e+00 -6.029418e+01
    endloop
  endfacet
  facet normal 0.000000e+00 -1.000000e+00 0.000000e+00
    outer loop
      vertex   4.047167e+01 -5.000000e+00 -6.029418e+01
      vertex   4.444979e+01 -5.000000e+00 -5.742439e+01
      vertex   7.059702e+01 -5.000000e+00 -1.701191e+01
    endloop
  endfacet
  facet normal 0.000000e+00 -1.000000e+00 0.000000e+00
    outer loop
      vertex   7.059702e+01 -5.000000e+00 -1.701191e+01
      vertex   4.444979e+01 -5.000000e+00 -5.742439e+01
      vertex   4.822509e+01 -5.000000e+00 -5.429259e+01
    endloop
  endfacet
  facet normal 0.000000e+00 -1.000000e+00 0.000000e+00
    outer loop
      vertex   7.059702e+01 -5.000000e+00 -1.701191e+01
      vertex   4.822509e+01 -5.000000e+00 -5.429259e+01
      vertex   5.178034e+01 -5.000000e+00 -5.091306e+01
    endloop
  endfacet
  facet normal 0.000000e+00 -1.000000e+00 0.000000e+00
    outer loop
      vertex   5.178034e+01 -5.000000e+00 -5.091306e+01
      vertex   5.509934e+01 -5.000000e+00 -4.730123e+01
      vertex   7.059702e+01 -5.000000e+00 -1.701191e+01
    endloop
  endfacet
  facet normal 0.000000e+00 -1.000000e+00 0.000000e+00
    outer loop
      vertex   7.059702e+01 -5.000000e+00 -1.701191e+01
      vertex   5.509934e+01 -5.000000e+00 -4.730123e+01
      vertex   5.816693e+01 -5.000000e+00 -4.347358e+01
    endloop
  endfacet
  facet normal 0.000000e+00 -1.000000e+00 0.000000e+00
    outer loop
      vertex   7.059702e+01 -5.000000e+00 -1.701191e+01
      vertex   5.816693e+01 -5.000000e+00 -4.347358e+01
      vertex   6.096912e+01 -5.000000e+00 -3.944756e+01
    endloop
  endfacet
  facet normal 0.000000e+00 -1.000000e+00 0.000000e+00
    outer loop
      vertex   6.096912e+01 -5.000000e+00 -3.944756e+01
      vertex   6.349312e+01 -5.000000e+00 -3.524156e+01
      vertex   7.059702e+01 -5.000000e+00 -1.701191e+01
    endloop
  endfacet
  facet normal 0.000000e+00 -1.000000e+00 0.000000e+00
    outer loop
      vertex   7.059702e+01 -5.000000e+00 -1.701191e+01
      vertex   6.349312e+01 -5.000000e+00 -3.524156e+01
      vertex   6.572742e+01 -5.000000e+00 -3.087475e+01
    endloop
  endfacet
  facet normal 0.000000e+00 -1.000000e+00 0.000000e+00
    outer loop
      vertex   7.059702e+01 -5.000000e+00 -1.701191e+01
      vertex   6.572742e+01 -5.000000e+00 -3.087475e+01
      vertex   6.766182e+01 -5.000000e+00 -2.636708e+01
    endloop
  endfacet
  facet normal 0.000000e+00 -1.000000e+00 0.000000e+00
    outer loop
      vertex   6.766182e+01 -5.000000e+00 -2.636708e+01
      vertex   6.928749e+01 -5.000000e+00 -2.173909e+01
      vertex   7.059702e+01 -5.000000e+00 -1.701191e+01
    endloop
  endfacet
endsolid
