solid ASCII
  facet normal 0.000000e+00 0.000000e+00 -1.000000e+00
    outer loop
      vertex   2.850000e+02 -4.580000e+02 -2.850000e+02
      vertex   2.350000e+02 -4.580000e+02 -2.850000e+02
      vertex   2.850000e+02 1.030000e+03 -2.850000e+02
    endloop
  endfacet
  facet normal -0.000000e+00 0.000000e+00 -1.000000e+00
    outer loop
      vertex   2.850000e+02 1.030000e+03 -2.850000e+02
      vertex   2.350000e+02 -4.580000e+02 -2.850000e+02
      vertex   2.350000e+02 1.030000e+03 -2.850000e+02
    endloop
  endfacet
  facet normal 1.000000e+00 -0.000000e+00 0.000000e+00
    outer loop
      vertex   2.850000e+02 -4.580000e+02 -2.350000e+02
      vertex   2.850000e+02 -4.580000e+02 -2.850000e+02
      vertex   2.850000e+02 1.030000e+03 -2.350000e+02
    endloop
  endfacet
  facet normal 1.000000e+00 0.000000e+00 0.000000e+00
    outer loop
      vertex   2.850000e+02 1.030000e+03 -2.350000e+02
      vertex   2.850000e+02 -4.580000e+02 -2.850000e+02
      vertex   2.850000e+02 1.030000e+03 -2.850000e+02
    endloop
  endfacet
  facet normal 0.000000e+00 0.000000e+00 1.000000e+00
    outer loop
      vertex   2.350000e+02 -4.580000e+02 -2.350000e+02
      vertex   2.850000e+02 -4.580000e+02 -2.350000e+02
      vertex   2.350000e+02 1.030000e+03 -2.350000e+02
    endloop
  endfacet
  facet normal -0.000000e+00 0.000000e+00 1.000000e+00
    outer loop
      vertex   2.350000e+02 1.030000e+03 -2.350000e+02
      vertex   2.850000e+02 -4.580000e+02 -2.350000e+02
      vertex   2.850000e+02 1.030000e+03 -2.350000e+02
    endloop
  endfacet
  facet normal -1.000000e+00 0.000000e+00 0.000000e+00
    outer loop
      vertex   2.350000e+02 -4.580000e+02 -2.850000e+02
      vertex   2.350000e+02 -4.580000e+02 -2.350000e+02
      vertex   2.350000e+02 1.030000e+03 -2.850000e+02
    endloop
  endfacet
  facet normal -1.000000e+00 0.000000e+00 0.000000e+00
    outer loop
      vertex   2.350000e+02 1.030000e+03 -2.850000e+02
      vertex   2.350000e+02 -4.580000e+02 -2.350000e+02
      vertex   2.350000e+02 1.030000e+03 -2.350000e+02
    endloop
  endfacet
  facet normal 0.000000e+00 1.000000e+00 0.000000e+00
    outer loop
      vertex   2.350000e+02 1.030000e+03 -2.850000e+02
      vertex   2.350000e+02 1.030000e+03 -2.350000e+02
      vertex   2.850000e+02 1.030000e+03 -2.850000e+02
    endloop
  endfacet
  facet normal 0.000000e+00 1.000000e+00 -0.000000e+00
    outer loop
      vertex   2.850000e+02 1.030000e+03 -2.850000e+02
      vertex   2.350000e+02 1.030000e+03 -2.350000e+02
      vertex   2.850000e+02 1.030000e+03 -2.350000e+02
    endloop
  endfacet
  facet normal 0.000000e+00 -1.000000e+00 0.000000e+00
    outer loop
      vertex   2.350000e+02 -4.580000e+02 -2.850000e+02
      vertex   2.850000e+02 -4.580000e+02 -2.850000e+02
      vertex   2.350000e+02 -4.580000e+02 -2.350000e+02
    endloop
  endfacet
  facet normal 0.000000e+00 -1.000000e+00 0.000000e+00
    outer loop
      vertex   2.350000e+02 -4.580000e+02 -2.350000e+02
      vertex   2.850000e+02 -4.580000e+02 -2.850000e+02
      vertex   2.850000e+02 -4.580000e+02 -2.350000e+02
    endloop
  endfacet
endsolid
