solid ASCII
  facet normal -8.660254e-01 3.028288e-18 5.000000e-01
    outer loop
      vertex   3.007463e+01 -5.080000e+02 8.209079e+01
      vertex   8.257463e+01 -5.080000e+02 1.730235e+02
      vertex   3.007463e+01 5.080000e+02 8.209079e+01
    endloop
  endfacet
  facet normal -8.660254e-01 1.776578e-18 5.000000e-01
    outer loop
      vertex   3.007463e+01 5.080000e+02 8.209079e+01
      vertex   8.257463e+01 -5.080000e+02 1.730235e+02
      vertex   8.257463e+01 5.080000e+02 1.730235e+02
    endloop
  endfacet
  facet normal -5.000000e-01 0.000000e+00 -8.660254e-01
    outer loop
      vertex   5.605539e+01 -5.080000e+02 6.709079e+01
      vertex   3.007463e+01 -5.080000e+02 8.209079e+01
      vertex   5.605539e+01 5.080000e+02 6.709079e+01
    endloop
  endfacet
  facet normal -5.000000e-01 1.847003e-18 -8.660254e-01
    outer loop
      vertex   5.605539e+01 5.080000e+02 6.709079e+01
      vertex   3.007463e+01 -5.080000e+02 8.209079e+01
      vertex   3.007463e+01 5.080000e+02 8.209079e+01
    endloop
  endfacet
  facet normal 8.660254e-01 0.000000e+00 -5.000000e-01
    outer loop
      vertex   1.085554e+02 -5.080000e+02 1.580235e+02
      vertex   5.605539e+01 -5.080000e+02 6.709079e+01
      vertex   1.085554e+02 5.080000e+02 1.580235e+02
    endloop
  endfacet
  facet normal 8.660254e-01 -3.685036e-18 -5.000000e-01
    outer loop
      vertex   1.085554e+02 5.080000e+02 1.580235e+02
      vertex   5.605539e+01 -5.080000e+02 6.709079e+01
      vertex   5.605539e+01 5.080000e+02 6.709079e+01
    endloop
  endfacet
  facet normal 5.000000e-01 -0.000000e+00 8.660254e-01
    outer loop
      vertex   8.257463e+01 -5.080000e+02 1.730235e+02
      vertex   1.085554e+02 -5.080000e+02 1.580235e+02
      vertex   8.257463e+01 5.080000e+02 1.730235e+02
    endloop
  endfacet
  facet normal 5.000000e-01 0.000000e+00 8.660254e-01
    outer loop
      vertex   8.257463e+01 5.080000e+02 1.730235e+02
      vertex   1.085554e+02 -5.080000e+02 1.580235e+02
      vertex   1.085554e+02 5.080000e+02 1.580235e+02
    endloop
  endfacet
  facet normal 0.000000e+00 1.000000e+00 0.000000e+00
    outer loop
      vertex   1.085554e+02 5.080000e+02 1.580235e+02
      vertex   5.605539e+01 5.080000e+02 6.709079e+01
      vertex   8.257463e+01 5.080000e+02 1.730235e+02
    endloop
  endfacet
  facet normal 0.000000e+00 1.000000e+00 0.000000e+00
    outer loop
      vertex   8.257463e+01 5.080000e+02 1.730235e+02
      vertex   5.605539e+01 5.080000e+02 6.709079e+01
      vertex   3.007463e+01 5.080000e+02 8.209079e+01
    endloop
  endfacet
  facet normal -0.000000e+00 -1.000000e+00 0.000000e+00
    outer loop
      vertex   1.085554e+02 -5.080000e+02 1.580235e+02
      vertex   8.257463e+01 -5.080000e+02 1.730235e+02
      vertex   5.605539e+01 -5.080000e+02 6.709079e+01
    endloop
  endfacet
  facet normal 0.000000e+00 -1.000000e+00 0.000000e+00
    outer loop
      vertex   5.605539e+01 -5.080000e+02 6.709079e+01
      vertex   8.257463e+01 -5.080000e+02 1.730235e+02
      vertex   3.007463e+01 -5.080000e+02 8.209079e+01
    endloop
  endfacet
endsolid
