solid ASCII
  facet normal 1.000000e+00 -0.000000e+00 6.767074e-17
    outer loop
      vertex   1.500000e+01 -5.080000e+02 -8.613003e+01
      vertex   1.500000e+01 -5.080000e+02 -1.911300e+02
      vertex   1.500000e+01 5.080000e+02 -8.613003e+01
    endloop
  endfacet
  facet normal 1.000000e+00 0.000000e+00 6.767074e-17
    outer loop
      vertex   1.500000e+01 5.080000e+02 -8.613003e+01
      vertex   1.500000e+01 -5.080000e+02 -1.911300e+02
      vertex   1.500000e+01 5.080000e+02 -1.911300e+02
    endloop
  endfacet
  facet normal 0.000000e+00 -0.000000e+00 1.000000e+00
    outer loop
      vertex   -1.500000e+01 -5.080000e+02 -8.613003e+01
      vertex   1.500000e+01 -5.080000e+02 -8.613003e+01
      vertex   -1.500000e+01 5.080000e+02 -8.613003e+01
    endloop
  endfacet
  facet normal -0.000000e+00 0.000000e+00 1.000000e+00
    outer loop
      vertex   -1.500000e+01 5.080000e+02 -8.613003e+01
      vertex   1.500000e+01 -5.080000e+02 -8.613003e+01
      vertex   1.500000e+01 5.080000e+02 -8.613003e+01
    endloop
  endfacet
  facet normal -1.000000e+00 0.000000e+00 -6.767074e-17
    outer loop
      vertex   -1.500000e+01 -5.080000e+02 -1.911300e+02
      vertex   -1.500000e+01 -5.080000e+02 -8.613003e+01
      vertex   -1.500000e+01 5.080000e+02 -1.911300e+02
    endloop
  endfacet
  facet normal -1.000000e+00 -1.748383e-18 -8.458842e-17
    outer loop
      vertex   -1.500000e+01 5.080000e+02 -1.911300e+02
      vertex   -1.500000e+01 -5.080000e+02 -8.613003e+01
      vertex   -1.500000e+01 5.080000e+02 -8.613003e+01
    endloop
  endfacet
  facet normal 0.000000e+00 0.000000e+00 -1.000000e+00
    outer loop
      vertex   1.500000e+01 -5.080000e+02 -1.911300e+02
      vertex   -1.500000e+01 -5.080000e+02 -1.911300e+02
      vertex   1.500000e+01 5.080000e+02 -1.911300e+02
    endloop
  endfacet
  facet normal -0.000000e+00 0.000000e+00 -1.000000e+00
    outer loop
      vertex   1.500000e+01 5.080000e+02 -1.911300e+02
      vertex   -1.500000e+01 -5.080000e+02 -1.911300e+02
      vertex   -1.500000e+01 5.080000e+02 -1.911300e+02
    endloop
  endfacet
  facet normal 0.000000e+00 1.000000e+00 -0.000000e+00
    outer loop
      vertex   -1.500000e+01 5.080000e+02 -1.911300e+02
      vertex   -1.500000e+01 5.080000e+02 -8.613003e+01
      vertex   1.500000e+01 5.080000e+02 -1.911300e+02
    endloop
  endfacet
  facet normal 0.000000e+00 1.000000e+00 0.000000e+00
    outer loop
      vertex   1.500000e+01 5.080000e+02 -1.911300e+02
      vertex   -1.500000e+01 5.080000e+02 -8.613003e+01
      vertex   1.500000e+01 5.080000e+02 -8.613003e+01
    endloop
  endfacet
  facet normal 0.000000e+00 -1.000000e+00 0.000000e+00
    outer loop
      vertex   -1.500000e+01 -5.080000e+02 -1.911300e+02
      vertex   1.500000e+01 -5.080000e+02 -1.911300e+02
      vertex   -1.500000e+01 -5.080000e+02 -8.613003e+01
    endloop
  endfacet
  facet normal 0.000000e+00 -1.000000e+00 0.000000e+00
    outer loop
      vertex   -1.500000e+01 -5.080000e+02 -8.613003e+01
      vertex   1.500000e+01 -5.080000e+02 -1.911300e+02
      vertex   1.500000e+01 -5.080000e+02 -8.613003e+01
    endloop
  endfacet
endsolid
