solid ASCII
  facet normal 7.071068e-01 0.000000e+00 -7.071068e-01
    outer loop
      vertex   -1.054752e+02 -7.750000e+02 -1.266884e+02
      vertex   -1.797214e+02 -7.750000e+02 -2.009346e+02
      vertex   -1.054752e+02 7.750000e+02 -1.266884e+02
    endloop
  endfacet
  facet normal 7.071068e-01 1.608818e-18 -7.071068e-01
    outer loop
      vertex   -1.054752e+02 7.750000e+02 -1.266884e+02
      vertex   -1.797214e+02 -7.750000e+02 -2.009346e+02
      vertex   -1.797214e+02 7.750000e+02 -2.009346e+02
    endloop
  endfacet
  facet normal 7.071068e-01 -0.000000e+00 7.071068e-01
    outer loop
      vertex   -1.266884e+02 -7.750000e+02 -1.054752e+02
      vertex   -1.054752e+02 -7.750000e+02 -1.266884e+02
      vertex   -1.266884e+02 7.750000e+02 -1.054752e+02
    endloop
  endfacet
  facet normal 7.071068e-01 -3.445152e-19 7.071068e-01
    outer loop
      vertex   -1.266884e+02 7.750000e+02 -1.054752e+02
      vertex   -1.054752e+02 -7.750000e+02 -1.266884e+02
      vertex   -1.054752e+02 7.750000e+02 -1.266884e+02
    endloop
  endfacet
  facet normal -7.071068e-01 0.000000e+00 7.071068e-01
    outer loop
      vertex   -2.009346e+02 -7.750000e+02 -1.797214e+02
      vertex   -1.266884e+02 -7.750000e+02 -1.054752e+02
      vertex   -2.009346e+02 7.750000e+02 -1.797214e+02
    endloop
  endfacet
  facet normal -7.071068e-01 2.503487e-18 7.071068e-01
    outer loop
      vertex   -2.009346e+02 7.750000e+02 -1.797214e+02
      vertex   -1.266884e+02 -7.750000e+02 -1.054752e+02
      vertex   -1.266884e+02 7.750000e+02 -1.054752e+02
    endloop
  endfacet
  facet normal -7.071068e-01 0.000000e+00 -7.071068e-01
    outer loop
      vertex   -1.797214e+02 -7.750000e+02 -2.009346e+02
      vertex   -2.009346e+02 -7.750000e+02 -1.797214e+02
      vertex   -1.797214e+02 7.750000e+02 -2.009346e+02
    endloop
  endfacet
  facet normal -7.071068e-01 -2.343766e-19 -7.071068e-01
    outer loop
      vertex   -1.797214e+02 7.750000e+02 -2.009346e+02
      vertex   -2.009346e+02 -7.750000e+02 -1.797214e+02
      vertex   -2.009346e+02 7.750000e+02 -1.797214e+02
    endloop
  endfacet
  facet normal -0.000000e+00 1.000000e+00 0.000000e+00
    outer loop
      vertex   -2.009346e+02 7.750000e+02 -1.797214e+02
      vertex   -1.266884e+02 7.750000e+02 -1.054752e+02
      vertex   -1.797214e+02 7.750000e+02 -2.009346e+02
    endloop
  endfacet
  facet normal 0.000000e+00 1.000000e+00 0.000000e+00
    outer loop
      vertex   -1.797214e+02 7.750000e+02 -2.009346e+02
      vertex   -1.266884e+02 7.750000e+02 -1.054752e+02
      vertex   -1.054752e+02 7.750000e+02 -1.266884e+02
    endloop
  endfacet
  facet normal 0.000000e+00 -1.000000e+00 0.000000e+00
    outer loop
      vertex   -1.797214e+02 -7.750000e+02 -2.009346e+02
      vertex   -1.054752e+02 -7.750000e+02 -1.266884e+02
      vertex   -2.009346e+02 -7.750000e+02 -1.797214e+02
    endloop
  endfacet
  facet normal 0.000000e+00 -1.000000e+00 0.000000e+00
    outer loop
      vertex   -2.009346e+02 -7.750000e+02 -1.797214e+02
      vertex   -1.054752e+02 -7.750000e+02 -1.266884e+02
      vertex   -1.266884e+02 -7.750000e+02 -1.054752e+02
    endloop
  endfacet
endsolid
