solid ASCII
  facet normal 0.000000e+00 -1.000000e+00 0.000000e+00
    outer loop
      vertex   -1.681300e+02 -6.730000e+02 1.500000e+01
      vertex   -1.681300e+02 -6.730000e+02 -1.500000e+01
      vertex   -1.091300e+02 -6.730000e+02 1.500000e+01
    endloop
  endfacet
  facet normal 0.000000e+00 -1.000000e+00 -0.000000e+00
    outer loop
      vertex   -1.091300e+02 -6.730000e+02 1.500000e+01
      vertex   -1.681300e+02 -6.730000e+02 -1.500000e+01
      vertex   -1.091300e+02 -6.730000e+02 -1.500000e+01
    endloop
  endfacet
  facet normal 0.000000e+00 1.000000e+00 0.000000e+00
    outer loop
      vertex   -1.911300e+02 -5.080000e+02 -1.500000e+01
      vertex   -1.911300e+02 -5.080000e+02 1.500000e+01
      vertex   -8.613003e+01 -5.080000e+02 -1.500000e+01
    endloop
  endfacet
  facet normal 0.000000e+00 1.000000e+00 -0.000000e+00
    outer loop
      vertex   -8.613003e+01 -5.080000e+02 -1.500000e+01
      vertex   -1.911300e+02 -5.080000e+02 1.500000e+01
      vertex   -8.613003e+01 -5.080000e+02 1.500000e+01
    endloop
  endfacet
  facet normal -9.904240e-01 -1.380591e-01 -0.000000e+00
    outer loop
      vertex   -1.911300e+02 -5.080000e+02 1.500000e+01
      vertex   -1.911300e+02 -5.080000e+02 -1.500000e+01
      vertex   -1.681300e+02 -6.730000e+02 1.500000e+01
    endloop
  endfacet
  facet normal -9.904240e-01 -1.380591e-01 -0.000000e+00
    outer loop
      vertex   -1.681300e+02 -6.730000e+02 1.500000e+01
      vertex   -1.911300e+02 -5.080000e+02 -1.500000e+01
      vertex   -1.681300e+02 -6.730000e+02 -1.500000e+01
    endloop
  endfacet
  facet normal -1.353415e-16 -2.665817e-18 1.000000e+00
    outer loop
      vertex   -8.613003e+01 -5.080000e+02 1.500000e+01
      vertex   -1.911300e+02 -5.080000e+02 1.500000e+01
      vertex   -1.091300e+02 -6.730000e+02 1.500000e+01
    endloop
  endfacet
  facet normal -9.032323e-17 1.970689e-17 1.000000e+00
    outer loop
      vertex   -1.091300e+02 -6.730000e+02 1.500000e+01
      vertex   -1.911300e+02 -5.080000e+02 1.500000e+01
      vertex   -1.681300e+02 -6.730000e+02 1.500000e+01
    endloop
  endfacet
  facet normal 9.904240e-01 -1.380591e-01 0.000000e+00
    outer loop
      vertex   -8.613003e+01 -5.080000e+02 -1.500000e+01
      vertex   -8.613003e+01 -5.080000e+02 1.500000e+01
      vertex   -1.091300e+02 -6.730000e+02 -1.500000e+01
    endloop
  endfacet
  facet normal 9.904240e-01 -1.380591e-01 0.000000e+00
    outer loop
      vertex   -1.091300e+02 -6.730000e+02 -1.500000e+01
      vertex   -8.613003e+01 -5.080000e+02 1.500000e+01
      vertex   -1.091300e+02 -6.730000e+02 1.500000e+01
    endloop
  endfacet
  facet normal 1.353415e-16 -1.343162e-17 -1.000000e+00
    outer loop
      vertex   -1.911300e+02 -5.080000e+02 -1.500000e+01
      vertex   -8.613003e+01 -5.080000e+02 -1.500000e+01
      vertex   -1.681300e+02 -6.730000e+02 -1.500000e+01
    endloop
  endfacet
  facet normal 9.032323e-17 8.941087e-18 -1.000000e+00
    outer loop
      vertex   -1.681300e+02 -6.730000e+02 -1.500000e+01
      vertex   -8.613003e+01 -5.080000e+02 -1.500000e+01
      vertex   -1.091300e+02 -6.730000e+02 -1.500000e+01
    endloop
  endfacet
endsolid
