solid ASCII
  facet normal 1.000000e+00 0.000000e+00 -4.229421e-17
    outer loop
      vertex   3.000000e+00 3.000000e+00 2.693000e+01
      vertex   3.000000e+00 3.000000e+00 4.793000e+01
      vertex   3.000000e+00 -3.000000e+00 2.693000e+01
    endloop
  endfacet
  facet normal 1.000000e+00 0.000000e+00 -4.229421e-17
    outer loop
      vertex   3.000000e+00 -3.000000e+00 2.693000e+01
      vertex   3.000000e+00 3.000000e+00 4.793000e+01
      vertex   3.000000e+00 -3.000000e+00 4.793000e+01
    endloop
  endfacet
  facet normal -1.000000e+00 -0.000000e+00 -2.220446e-17
    outer loop
      vertex   2.000000e+00 2.000000e+00 2.793000e+01
      vertex   2.000000e+00 -2.000000e+00 2.793000e+01
      vertex   2.000000e+00 2.000000e+00 4.793000e+01
    endloop
  endfacet
  facet normal -1.000000e+00 -0.000000e+00 -2.220446e-17
    outer loop
      vertex   2.000000e+00 2.000000e+00 4.793000e+01
      vertex   2.000000e+00 -2.000000e+00 2.793000e+01
      vertex   2.000000e+00 -2.000000e+00 4.793000e+01
    endloop
  endfacet
  facet normal 0.000000e+00 0.000000e+00 -1.000000e+00
    outer loop
      vertex   -3.000000e+00 -3.000000e+00 2.693000e+01
      vertex   -3.000000e+00 3.000000e+00 2.693000e+01
      vertex   3.000000e+00 -3.000000e+00 2.693000e+01
    endloop
  endfacet
  facet normal 0.000000e+00 0.000000e+00 -1.000000e+00
    outer loop
      vertex   3.000000e+00 -3.000000e+00 2.693000e+01
      vertex   -3.000000e+00 3.000000e+00 2.693000e+01
      vertex   3.000000e+00 3.000000e+00 2.693000e+01
    endloop
  endfacet
  facet normal -0.000000e+00 0.000000e+00 1.000000e+00
    outer loop
      vertex   -2.000000e+00 2.000000e+00 2.793000e+01
      vertex   -2.000000e+00 -2.000000e+00 2.793000e+01
      vertex   2.000000e+00 2.000000e+00 2.793000e+01
    endloop
  endfacet
  facet normal 0.000000e+00 0.000000e+00 1.000000e+00
    outer loop
      vertex   2.000000e+00 2.000000e+00 2.793000e+01
      vertex   -2.000000e+00 -2.000000e+00 2.793000e+01
      vertex   2.000000e+00 -2.000000e+00 2.793000e+01
    endloop
  endfacet
  facet normal 0.000000e+00 1.000000e+00 -4.229421e-17
    outer loop
      vertex   -3.000000e+00 3.000000e+00 2.693000e+01
      vertex   -3.000000e+00 3.000000e+00 4.793000e+01
      vertex   3.000000e+00 3.000000e+00 2.693000e+01
    endloop
  endfacet
  facet normal 0.000000e+00 1.000000e+00 -4.229421e-17
    outer loop
      vertex   3.000000e+00 3.000000e+00 2.693000e+01
      vertex   -3.000000e+00 3.000000e+00 4.793000e+01
      vertex   3.000000e+00 3.000000e+00 4.793000e+01
    endloop
  endfacet
  facet normal 0.000000e+00 -1.000000e+00 0.000000e+00
    outer loop
      vertex   -2.000000e+00 2.000000e+00 2.793000e+01
      vertex   2.000000e+00 2.000000e+00 2.793000e+01
      vertex   -2.000000e+00 2.000000e+00 4.793000e+01
    endloop
  endfacet
  facet normal 0.000000e+00 -1.000000e+00 0.000000e+00
    outer loop
      vertex   -2.000000e+00 2.000000e+00 4.793000e+01
      vertex   2.000000e+00 2.000000e+00 2.793000e+01
      vertex   2.000000e+00 2.000000e+00 4.793000e+01
    endloop
  endfacet
  facet normal -1.000000e+00 0.000000e+00 0.000000e+00
    outer loop
      vertex   -3.000000e+00 -3.000000e+00 2.693000e+01
      vertex   -3.000000e+00 -3.000000e+00 4.793000e+01
      vertex   -3.000000e+00 3.000000e+00 2.693000e+01
    endloop
  endfacet
  facet normal -1.000000e+00 0.000000e+00 0.000000e+00
    outer loop
      vertex   -3.000000e+00 3.000000e+00 2.693000e+01
      vertex   -3.000000e+00 -3.000000e+00 4.793000e+01
      vertex   -3.000000e+00 3.000000e+00 4.793000e+01
    endloop
  endfacet
  facet normal 1.000000e+00 -0.000000e+00 2.220446e-17
    outer loop
      vertex   -2.000000e+00 -2.000000e+00 2.793000e+01
      vertex   -2.000000e+00 2.000000e+00 2.793000e+01
      vertex   -2.000000e+00 -2.000000e+00 4.793000e+01
    endloop
  endfacet
  facet normal 1.000000e+00 -0.000000e+00 2.220446e-17
    outer loop
      vertex   -2.000000e+00 -2.000000e+00 4.793000e+01
      vertex   -2.000000e+00 2.000000e+00 2.793000e+01
      vertex   -2.000000e+00 2.000000e+00 4.793000e+01
    endloop
  endfacet
  facet normal 0.000000e+00 0.000000e+00 1.000000e+00
    outer loop
      vertex   -3.000000e+00 3.000000e+00 4.793000e+01
      vertex   -3.000000e+00 -3.000000e+00 4.793000e+01
      vertex   -2.000000e+00 -2.000000e+00 4.793000e+01
    endloop
  endfacet
  facet normal 0.000000e+00 0.000000e+00 1.000000e+00
    outer loop
      vertex   -2.000000e+00 -2.000000e+00 4.793000e+01
      vertex   -3.000000e+00 -3.000000e+00 4.793000e+01
      vertex   3.000000e+00 -3.000000e+00 4.793000e+01
    endloop
  endfacet
  facet normal -0.000000e+00 0.000000e+00 1.000000e+00
    outer loop
      vertex   -2.000000e+00 -2.000000e+00 4.793000e+01
      vertex   3.000000e+00 -3.000000e+00 4.793000e+01
      vertex   2.000000e+00 -2.000000e+00 4.793000e+01
    endloop
  endfacet
  facet normal -0.000000e+00 0.000000e+00 1.000000e+00
    outer loop
      vertex   2.000000e+00 -2.000000e+00 4.793000e+01
      vertex   3.000000e+00 -3.000000e+00 4.793000e+01
      vertex   3.000000e+00 3.000000e+00 4.793000e+01
    endloop
  endfacet
  facet normal 0.000000e+00 0.000000e+00 1.000000e+00
    outer loop
      vertex   2.000000e+00 -2.000000e+00 4.793000e+01
      vertex   3.000000e+00 3.000000e+00 4.793000e+01
      vertex   2.000000e+00 2.000000e+00 4.793000e+01
    endloop
  endfacet
  facet normal 0.000000e+00 -0.000000e+00 1.000000e+00
    outer loop
      vertex   2.000000e+00 2.000000e+00 4.793000e+01
      vertex   3.000000e+00 3.000000e+00 4.793000e+01
      vertex   -3.000000e+00 3.000000e+00 4.793000e+01
    endloop
  endfacet
  facet normal 0.000000e+00 0.000000e+00 1.000000e+00
    outer loop
      vertex   2.000000e+00 2.000000e+00 4.793000e+01
      vertex   -3.000000e+00 3.000000e+00 4.793000e+01
      vertex   -2.000000e+00 2.000000e+00 4.793000e+01
    endloop
  endfacet
  facet normal 0.000000e+00 0.000000e+00 1.000000e+00
    outer loop
      vertex   -2.000000e+00 2.000000e+00 4.793000e+01
      vertex   -3.000000e+00 3.000000e+00 4.793000e+01
      vertex   -2.000000e+00 -2.000000e+00 4.793000e+01
    endloop
  endfacet
  facet normal 0.000000e+00 -1.000000e+00 0.000000e+00
    outer loop
      vertex   3.000000e+00 -3.000000e+00 2.693000e+01
      vertex   3.000000e+00 -3.000000e+00 4.793000e+01
      vertex   -3.000000e+00 -3.000000e+00 2.693000e+01
    endloop
  endfacet
  facet normal 0.000000e+00 -1.000000e+00 0.000000e+00
    outer loop
      vertex   -3.000000e+00 -3.000000e+00 2.693000e+01
      vertex   3.000000e+00 -3.000000e+00 4.793000e+01
      vertex   -3.000000e+00 -3.000000e+00 4.793000e+01
    endloop
  endfacet
  facet normal 0.000000e+00 1.000000e+00 0.000000e+00
    outer loop
      vertex   2.000000e+00 -2.000000e+00 2.793000e+01
      vertex   -2.000000e+00 -2.000000e+00 2.793000e+01
      vertex   2.000000e+00 -2.000000e+00 4.793000e+01
    endloop
  endfacet
  facet normal 0.000000e+00 1.000000e+00 0.000000e+00
    outer loop
      vertex   2.000000e+00 -2.000000e+00 4.793000e+01
      vertex   -2.000000e+00 -2.000000e+00 2.793000e+01
      vertex   -2.000000e+00 -2.000000e+00 4.793000e+01
    endloop
  endfacet
endsolid
