solid ASCII
  facet normal 0.000000e+00 0.000000e+00 1.000000e+00
    outer loop
      vertex   2.000000e+00 5.000000e+00 3.500000e+00
      vertex   -2.000000e+00 5.000000e+00 3.500000e+00
      vertex   2.000000e+00 -5.000000e+00 3.500000e+00
    endloop
  endfacet
  facet normal 0.000000e+00 0.000000e+00 1.000000e+00
    outer loop
      vertex   2.000000e+00 -5.000000e+00 3.500000e+00
      vertex   -2.000000e+00 5.000000e+00 3.500000e+00
      vertex   -2.000000e+00 -5.000000e+00 3.500000e+00
    endloop
  endfacet
  facet normal 1.000000e+00 0.000000e+00 -0.000000e+00
    outer loop
      vertex   -2.000000e+00 5.000000e+00 3.500000e+00
      vertex   -2.000000e+00 5.000000e+00 2.550000e+01
      vertex   -2.000000e+00 -5.000000e+00 3.500000e+00
    endloop
  endfacet
  facet normal 1.000000e+00 8.881784e-17 -4.037175e-17
    outer loop
      vertex   -2.000000e+00 -5.000000e+00 3.500000e+00
      vertex   -2.000000e+00 5.000000e+00 2.550000e+01
      vertex   -2.000000e+00 -5.000000e+00 2.550000e+01
    endloop
  endfacet
  facet normal -1.000000e+00 0.000000e+00 -4.037175e-17
    outer loop
      vertex   2.000000e+00 -5.000000e+00 3.500000e+00
      vertex   2.000000e+00 -5.000000e+00 2.550000e+01
      vertex   2.000000e+00 5.000000e+00 3.500000e+00
    endloop
  endfacet
  facet normal -1.000000e+00 0.000000e+00 -4.037175e-17
    outer loop
      vertex   2.000000e+00 5.000000e+00 3.500000e+00
      vertex   2.000000e+00 -5.000000e+00 2.550000e+01
      vertex   2.000000e+00 5.000000e+00 2.550000e+01
    endloop
  endfacet
  facet normal 4.705882e-01 4.179663e-17 8.823529e-01
    outer loop
      vertex   -2.000000e+00 5.000000e+00 2.550000e+01
      vertex   -5.000000e+00 5.000000e+00 2.710000e+01
      vertex   -2.000000e+00 -5.000000e+00 2.550000e+01
    endloop
  endfacet
  facet normal 4.705882e-01 1.044916e-17 8.823529e-01
    outer loop
      vertex   -2.000000e+00 -5.000000e+00 2.550000e+01
      vertex   -5.000000e+00 5.000000e+00 2.710000e+01
      vertex   -5.000000e+00 -5.000000e+00 2.710000e+01
    endloop
  endfacet
  facet normal -4.705882e-01 0.000000e+00 8.823529e-01
    outer loop
      vertex   2.000000e+00 -5.000000e+00 2.550000e+01
      vertex   5.000000e+00 -5.000000e+00 2.710000e+01
      vertex   2.000000e+00 5.000000e+00 2.550000e+01
    endloop
  endfacet
  facet normal -4.705882e-01 -1.044916e-17 8.823529e-01
    outer loop
      vertex   2.000000e+00 5.000000e+00 2.550000e+01
      vertex   5.000000e+00 -5.000000e+00 2.710000e+01
      vertex   5.000000e+00 5.000000e+00 2.710000e+01
    endloop
  endfacet
  facet normal -0.000000e+00 1.000000e+00 0.000000e+00
    outer loop
      vertex   -5.000000e+00 -5.000000e+00 2.710000e+01
      vertex   -5.000000e+00 -5.000000e+00 4.550000e+01
      vertex   -2.000000e+00 -5.000000e+00 2.550000e+01
    endloop
  endfacet
  facet normal 0.000000e+00 1.000000e+00 -0.000000e+00
    outer loop
      vertex   -2.000000e+00 -5.000000e+00 2.550000e+01
      vertex   -5.000000e+00 -5.000000e+00 4.550000e+01
      vertex   2.000000e+00 -5.000000e+00 2.550000e+01
    endloop
  endfacet
  facet normal -0.000000e+00 1.000000e+00 0.000000e+00
    outer loop
      vertex   -2.000000e+00 -5.000000e+00 2.550000e+01
      vertex   2.000000e+00 -5.000000e+00 2.550000e+01
      vertex   2.000000e+00 -5.000000e+00 3.500000e+00
    endloop
  endfacet
  facet normal -0.000000e+00 1.000000e+00 0.000000e+00
    outer loop
      vertex   -5.000000e+00 -5.000000e+00 4.550000e+01
      vertex   5.000000e+00 -5.000000e+00 4.550000e+01
      vertex   2.000000e+00 -5.000000e+00 2.550000e+01
    endloop
  endfacet
  facet normal 0.000000e+00 1.000000e+00 0.000000e+00
    outer loop
      vertex   2.000000e+00 -5.000000e+00 2.550000e+01
      vertex   5.000000e+00 -5.000000e+00 4.550000e+01
      vertex   5.000000e+00 -5.000000e+00 2.710000e+01
    endloop
  endfacet
  facet normal 0.000000e+00 1.000000e+00 0.000000e+00
    outer loop
      vertex   2.000000e+00 -5.000000e+00 3.500000e+00
      vertex   -2.000000e+00 -5.000000e+00 3.500000e+00
      vertex   -2.000000e+00 -5.000000e+00 2.550000e+01
    endloop
  endfacet
  facet normal 1.000000e+00 0.000000e+00 -0.000000e+00
    outer loop
      vertex   -5.000000e+00 5.000000e+00 2.710000e+01
      vertex   -5.000000e+00 5.000000e+00 4.550000e+01
      vertex   -5.000000e+00 -5.000000e+00 2.710000e+01
    endloop
  endfacet
  facet normal 1.000000e+00 0.000000e+00 0.000000e+00
    outer loop
      vertex   -5.000000e+00 -5.000000e+00 2.710000e+01
      vertex   -5.000000e+00 5.000000e+00 4.550000e+01
      vertex   -5.000000e+00 -5.000000e+00 4.550000e+01
    endloop
  endfacet
  facet normal -0.000000e+00 -1.000000e+00 0.000000e+00
    outer loop
      vertex   5.000000e+00 5.000000e+00 2.710000e+01
      vertex   5.000000e+00 5.000000e+00 4.550000e+01
      vertex   2.000000e+00 5.000000e+00 2.550000e+01
    endloop
  endfacet
  facet normal 0.000000e+00 -1.000000e+00 0.000000e+00
    outer loop
      vertex   2.000000e+00 5.000000e+00 2.550000e+01
      vertex   5.000000e+00 5.000000e+00 4.550000e+01
      vertex   -5.000000e+00 5.000000e+00 4.550000e+01
    endloop
  endfacet
  facet normal 0.000000e+00 -1.000000e+00 0.000000e+00
    outer loop
      vertex   2.000000e+00 5.000000e+00 2.550000e+01
      vertex   -5.000000e+00 5.000000e+00 4.550000e+01
      vertex   -2.000000e+00 5.000000e+00 2.550000e+01
    endloop
  endfacet
  facet normal 0.000000e+00 -1.000000e+00 0.000000e+00
    outer loop
      vertex   -2.000000e+00 5.000000e+00 2.550000e+01
      vertex   -5.000000e+00 5.000000e+00 4.550000e+01
      vertex   -5.000000e+00 5.000000e+00 2.710000e+01
    endloop
  endfacet
  facet normal 0.000000e+00 -1.000000e+00 0.000000e+00
    outer loop
      vertex   -2.000000e+00 5.000000e+00 2.550000e+01
      vertex   -2.000000e+00 5.000000e+00 3.500000e+00
      vertex   2.000000e+00 5.000000e+00 2.550000e+01
    endloop
  endfacet
  facet normal 0.000000e+00 -1.000000e+00 -0.000000e+00
    outer loop
      vertex   2.000000e+00 5.000000e+00 2.550000e+01
      vertex   -2.000000e+00 5.000000e+00 3.500000e+00
      vertex   2.000000e+00 5.000000e+00 3.500000e+00
    endloop
  endfacet
  facet normal -1.000000e+00 0.000000e+00 0.000000e+00
    outer loop
      vertex   5.000000e+00 -5.000000e+00 2.710000e+01
      vertex   5.000000e+00 -5.000000e+00 4.550000e+01
      vertex   5.000000e+00 5.000000e+00 2.710000e+01
    endloop
  endfacet
  facet normal -1.000000e+00 0.000000e+00 0.000000e+00
    outer loop
      vertex   5.000000e+00 5.000000e+00 2.710000e+01
      vertex   5.000000e+00 -5.000000e+00 4.550000e+01
      vertex   5.000000e+00 5.000000e+00 4.550000e+01
    endloop
  endfacet
  facet normal 0.000000e+00 1.000000e+00 0.000000e+00
    outer loop
      vertex   -6.250000e+00 -4.500000e+00 2.710000e+01
      vertex   -3.250000e+00 -4.500000e+00 2.550000e+01
      vertex   -6.250000e+00 -4.500000e+00 5.000000e-01
    endloop
  endfacet
  facet normal 0.000000e+00 1.000000e+00 0.000000e+00
    outer loop
      vertex   -6.250000e+00 -4.500000e+00 5.000000e-01
      vertex   -3.250000e+00 -4.500000e+00 2.550000e+01
      vertex   -3.250000e+00 -4.500000e+00 5.000000e-01
    endloop
  endfacet
  facet normal -4.705882e-01 -0.000000e+00 -8.823529e-01
    outer loop
      vertex   -6.250000e+00 4.500000e+00 2.710000e+01
      vertex   -3.250000e+00 4.500000e+00 2.550000e+01
      vertex   -6.250000e+00 -4.500000e+00 2.710000e+01
    endloop
  endfacet
  facet normal -4.705882e-01 5.805088e-18 -8.823529e-01
    outer loop
      vertex   -6.250000e+00 -4.500000e+00 2.710000e+01
      vertex   -3.250000e+00 4.500000e+00 2.550000e+01
      vertex   -3.250000e+00 -4.500000e+00 2.550000e+01
    endloop
  endfacet
  facet normal 0.000000e+00 -1.000000e+00 0.000000e+00
    outer loop
      vertex   -6.250000e+00 4.500000e+00 2.710000e+01
      vertex   -6.250000e+00 4.500000e+00 5.000000e-01
      vertex   -3.250000e+00 4.500000e+00 2.550000e+01
    endloop
  endfacet
  facet normal 0.000000e+00 -1.000000e+00 -0.000000e+00
    outer loop
      vertex   -3.250000e+00 4.500000e+00 2.550000e+01
      vertex   -6.250000e+00 4.500000e+00 5.000000e-01
      vertex   -3.250000e+00 4.500000e+00 5.000000e-01
    endloop
  endfacet
  facet normal -1.000000e+00 0.000000e+00 0.000000e+00
    outer loop
      vertex   -3.250000e+00 -4.500000e+00 5.000000e-01
      vertex   -3.250000e+00 -4.500000e+00 2.550000e+01
      vertex   -3.250000e+00 4.500000e+00 5.000000e-01
    endloop
  endfacet
  facet normal -1.000000e+00 0.000000e+00 0.000000e+00
    outer loop
      vertex   -3.250000e+00 4.500000e+00 5.000000e-01
      vertex   -3.250000e+00 -4.500000e+00 2.550000e+01
      vertex   -3.250000e+00 4.500000e+00 2.550000e+01
    endloop
  endfacet
  facet normal 0.000000e+00 0.000000e+00 -1.000000e+00
    outer loop
      vertex   -6.250000e+00 -4.500000e+00 5.000000e-01
      vertex   -3.250000e+00 -4.500000e+00 5.000000e-01
      vertex   -6.250000e+00 -6.250000e+00 5.000000e-01
    endloop
  endfacet
  facet normal 0.000000e+00 0.000000e+00 -1.000000e+00
    outer loop
      vertex   -6.250000e+00 -6.250000e+00 5.000000e-01
      vertex   -3.250000e+00 -4.500000e+00 5.000000e-01
      vertex   3.250000e+00 -4.500000e+00 5.000000e-01
    endloop
  endfacet
  facet normal 0.000000e+00 0.000000e+00 -1.000000e+00
    outer loop
      vertex   -6.250000e+00 -6.250000e+00 5.000000e-01
      vertex   3.250000e+00 -4.500000e+00 5.000000e-01
      vertex   6.250000e+00 -6.250000e+00 5.000000e-01
    endloop
  endfacet
  facet normal 0.000000e+00 0.000000e+00 -1.000000e+00
    outer loop
      vertex   6.250000e+00 -6.250000e+00 5.000000e-01
      vertex   3.250000e+00 -4.500000e+00 5.000000e-01
      vertex   6.250000e+00 -4.500000e+00 5.000000e-01
    endloop
  endfacet
  facet normal 0.000000e+00 0.000000e+00 -1.000000e+00
    outer loop
      vertex   3.250000e+00 -4.500000e+00 5.000000e-01
      vertex   -3.250000e+00 -4.500000e+00 5.000000e-01
      vertex   3.250000e+00 4.500000e+00 5.000000e-01
    endloop
  endfacet
  facet normal -0.000000e+00 0.000000e+00 -1.000000e+00
    outer loop
      vertex   3.250000e+00 4.500000e+00 5.000000e-01
      vertex   -3.250000e+00 -4.500000e+00 5.000000e-01
      vertex   -3.250000e+00 4.500000e+00 5.000000e-01
    endloop
  endfacet
  facet normal 0.000000e+00 0.000000e+00 -1.000000e+00
    outer loop
      vertex   3.250000e+00 4.500000e+00 5.000000e-01
      vertex   -3.250000e+00 4.500000e+00 5.000000e-01
      vertex   6.250000e+00 6.250000e+00 5.000000e-01
    endloop
  endfacet
  facet normal -0.000000e+00 0.000000e+00 -1.000000e+00
    outer loop
      vertex   6.250000e+00 6.250000e+00 5.000000e-01
      vertex   -3.250000e+00 4.500000e+00 5.000000e-01
      vertex   -6.250000e+00 6.250000e+00 5.000000e-01
    endloop
  endfacet
  facet normal 0.000000e+00 0.000000e+00 -1.000000e+00
    outer loop
      vertex   -6.250000e+00 6.250000e+00 5.000000e-01
      vertex   -3.250000e+00 4.500000e+00 5.000000e-01
      vertex   -6.250000e+00 4.500000e+00 5.000000e-01
    endloop
  endfacet
  facet normal 0.000000e+00 -0.000000e+00 -1.000000e+00
    outer loop
      vertex   6.250000e+00 6.250000e+00 5.000000e-01
      vertex   6.250000e+00 4.500000e+00 5.000000e-01
      vertex   3.250000e+00 4.500000e+00 5.000000e-01
    endloop
  endfacet
  facet normal 0.000000e+00 -1.000000e+00 -0.000000e+00
    outer loop
      vertex   6.250000e+00 4.500000e+00 2.710000e+01
      vertex   3.250000e+00 4.500000e+00 2.550000e+01
      vertex   6.250000e+00 4.500000e+00 5.000000e-01
    endloop
  endfacet
  facet normal 0.000000e+00 -1.000000e+00 0.000000e+00
    outer loop
      vertex   6.250000e+00 4.500000e+00 5.000000e-01
      vertex   3.250000e+00 4.500000e+00 2.550000e+01
      vertex   3.250000e+00 4.500000e+00 5.000000e-01
    endloop
  endfacet
  facet normal 4.705882e-01 0.000000e+00 -8.823529e-01
    outer loop
      vertex   6.250000e+00 -4.500000e+00 2.710000e+01
      vertex   3.250000e+00 -4.500000e+00 2.550000e+01
      vertex   6.250000e+00 4.500000e+00 2.710000e+01
    endloop
  endfacet
  facet normal 4.705882e-01 -5.805088e-18 -8.823529e-01
    outer loop
      vertex   6.250000e+00 4.500000e+00 2.710000e+01
      vertex   3.250000e+00 -4.500000e+00 2.550000e+01
      vertex   3.250000e+00 4.500000e+00 2.550000e+01
    endloop
  endfacet
  facet normal 0.000000e+00 1.000000e+00 0.000000e+00
    outer loop
      vertex   6.250000e+00 -4.500000e+00 2.710000e+01
      vertex   6.250000e+00 -4.500000e+00 5.000000e-01
      vertex   3.250000e+00 -4.500000e+00 2.550000e+01
    endloop
  endfacet
  facet normal 0.000000e+00 1.000000e+00 0.000000e+00
    outer loop
      vertex   3.250000e+00 -4.500000e+00 2.550000e+01
      vertex   6.250000e+00 -4.500000e+00 5.000000e-01
      vertex   3.250000e+00 -4.500000e+00 5.000000e-01
    endloop
  endfacet
  facet normal 1.000000e+00 0.000000e+00 -0.000000e+00
    outer loop
      vertex   3.250000e+00 4.500000e+00 5.000000e-01
      vertex   3.250000e+00 4.500000e+00 2.550000e+01
      vertex   3.250000e+00 -4.500000e+00 5.000000e-01
    endloop
  endfacet
  facet normal 1.000000e+00 0.000000e+00 0.000000e+00
    outer loop
      vertex   3.250000e+00 -4.500000e+00 5.000000e-01
      vertex   3.250000e+00 4.500000e+00 2.550000e+01
      vertex   3.250000e+00 -4.500000e+00 2.550000e+01
    endloop
  endfacet
  facet normal 0.000000e+00 0.000000e+00 1.000000e+00
    outer loop
      vertex   5.000000e+00 5.000000e+00 4.550000e+01
      vertex   5.000000e+00 -5.000000e+00 4.550000e+01
      vertex   6.250000e+00 -6.250000e+00 4.550000e+01
    endloop
  endfacet
  facet normal 0.000000e+00 0.000000e+00 1.000000e+00
    outer loop
      vertex   6.250000e+00 -6.250000e+00 4.550000e+01
      vertex   5.000000e+00 -5.000000e+00 4.550000e+01
      vertex   -5.000000e+00 -5.000000e+00 4.550000e+01
    endloop
  endfacet
  facet normal 0.000000e+00 0.000000e+00 1.000000e+00
    outer loop
      vertex   6.250000e+00 -6.250000e+00 4.550000e+01
      vertex   -5.000000e+00 -5.000000e+00 4.550000e+01
      vertex   -6.250000e+00 -6.250000e+00 4.550000e+01
    endloop
  endfacet
  facet normal 0.000000e+00 0.000000e+00 1.000000e+00
    outer loop
      vertex   -6.250000e+00 -6.250000e+00 4.550000e+01
      vertex   -5.000000e+00 -5.000000e+00 4.550000e+01
      vertex   -5.000000e+00 5.000000e+00 4.550000e+01
    endloop
  endfacet
  facet normal 0.000000e+00 0.000000e+00 1.000000e+00
    outer loop
      vertex   -6.250000e+00 -6.250000e+00 4.550000e+01
      vertex   -5.000000e+00 5.000000e+00 4.550000e+01
      vertex   -6.250000e+00 6.250000e+00 4.550000e+01
    endloop
  endfacet
  facet normal 0.000000e+00 0.000000e+00 1.000000e+00
    outer loop
      vertex   -6.250000e+00 6.250000e+00 4.550000e+01
      vertex   -5.000000e+00 5.000000e+00 4.550000e+01
      vertex   5.000000e+00 5.000000e+00 4.550000e+01
    endloop
  endfacet
  facet normal -0.000000e+00 0.000000e+00 1.000000e+00
    outer loop
      vertex   -6.250000e+00 6.250000e+00 4.550000e+01
      vertex   5.000000e+00 5.000000e+00 4.550000e+01
      vertex   6.250000e+00 6.250000e+00 4.550000e+01
    endloop
  endfacet
  facet normal 0.000000e+00 0.000000e+00 1.000000e+00
    outer loop
      vertex   6.250000e+00 6.250000e+00 4.550000e+01
      vertex   5.000000e+00 5.000000e+00 4.550000e+01
      vertex   6.250000e+00 -6.250000e+00 4.550000e+01
    endloop
  endfacet
  facet normal 0.000000e+00 -1.000000e+00 0.000000e+00
    outer loop
      vertex   -6.250000e+00 -6.250000e+00 4.550000e+01
      vertex   -6.250000e+00 -6.250000e+00 5.000000e-01
      vertex   6.250000e+00 -6.250000e+00 4.550000e+01
    endloop
  endfacet
  facet normal 0.000000e+00 -1.000000e+00 -0.000000e+00
    outer loop
      vertex   6.250000e+00 -6.250000e+00 4.550000e+01
      vertex   -6.250000e+00 -6.250000e+00 5.000000e-01
      vertex   6.250000e+00 -6.250000e+00 5.000000e-01
    endloop
  endfacet
  facet normal -1.000000e+00 0.000000e+00 0.000000e+00
    outer loop
      vertex   -6.250000e+00 -4.500000e+00 5.000000e-01
      vertex   -6.250000e+00 -6.250000e+00 5.000000e-01
      vertex   -6.250000e+00 -4.500000e+00 2.710000e+01
    endloop
  endfacet
  facet normal -1.000000e+00 -0.000000e+00 0.000000e+00
    outer loop
      vertex   -6.250000e+00 -4.500000e+00 2.710000e+01
      vertex   -6.250000e+00 -6.250000e+00 5.000000e-01
      vertex   -6.250000e+00 -6.250000e+00 4.550000e+01
    endloop
  endfacet
  facet normal -1.000000e+00 0.000000e+00 0.000000e+00
    outer loop
      vertex   -6.250000e+00 -4.500000e+00 2.710000e+01
      vertex   -6.250000e+00 -6.250000e+00 4.550000e+01
      vertex   -6.250000e+00 4.500000e+00 2.710000e+01
    endloop
  endfacet
  facet normal -1.000000e+00 0.000000e+00 0.000000e+00
    outer loop
      vertex   -6.250000e+00 4.500000e+00 2.710000e+01
      vertex   -6.250000e+00 -6.250000e+00 4.550000e+01
      vertex   -6.250000e+00 6.250000e+00 4.550000e+01
    endloop
  endfacet
  facet normal -1.000000e+00 0.000000e+00 0.000000e+00
    outer loop
      vertex   -6.250000e+00 4.500000e+00 2.710000e+01
      vertex   -6.250000e+00 6.250000e+00 4.550000e+01
      vertex   -6.250000e+00 6.250000e+00 5.000000e-01
    endloop
  endfacet
  facet normal -1.000000e+00 0.000000e+00 0.000000e+00
    outer loop
      vertex   -6.250000e+00 6.250000e+00 5.000000e-01
      vertex   -6.250000e+00 4.500000e+00 5.000000e-01
      vertex   -6.250000e+00 4.500000e+00 2.710000e+01
    endloop
  endfacet
  facet normal 0.000000e+00 1.000000e+00 0.000000e+00
    outer loop
      vertex   6.250000e+00 6.250000e+00 4.550000e+01
      vertex   6.250000e+00 6.250000e+00 5.000000e-01
      vertex   -6.250000e+00 6.250000e+00 4.550000e+01
    endloop
  endfacet
  facet normal 0.000000e+00 1.000000e+00 0.000000e+00
    outer loop
      vertex   -6.250000e+00 6.250000e+00 4.550000e+01
      vertex   6.250000e+00 6.250000e+00 5.000000e-01
      vertex   -6.250000e+00 6.250000e+00 5.000000e-01
    endloop
  endfacet
  facet normal 1.000000e+00 0.000000e+00 0.000000e+00
    outer loop
      vertex   6.250000e+00 4.500000e+00 5.000000e-01
      vertex   6.250000e+00 6.250000e+00 5.000000e-01
      vertex   6.250000e+00 4.500000e+00 2.710000e+01
    endloop
  endfacet
  facet normal 1.000000e+00 -0.000000e+00 0.000000e+00
    outer loop
      vertex   6.250000e+00 4.500000e+00 2.710000e+01
      vertex   6.250000e+00 6.250000e+00 5.000000e-01
      vertex   6.250000e+00 6.250000e+00 4.550000e+01
    endloop
  endfacet
  facet normal 1.000000e+00 0.000000e+00 -0.000000e+00
    outer loop
      vertex   6.250000e+00 4.500000e+00 2.710000e+01
      vertex   6.250000e+00 6.250000e+00 4.550000e+01
      vertex   6.250000e+00 -6.250000e+00 4.550000e+01
    endloop
  endfacet
  facet normal 1.000000e+00 0.000000e+00 0.000000e+00
    outer loop
      vertex   6.250000e+00 4.500000e+00 2.710000e+01
      vertex   6.250000e+00 -6.250000e+00 4.550000e+01
      vertex   6.250000e+00 -4.500000e+00 2.710000e+01
    endloop
  endfacet
  facet normal 1.000000e+00 0.000000e+00 0.000000e+00
    outer loop
      vertex   6.250000e+00 -4.500000e+00 2.710000e+01
      vertex   6.250000e+00 -6.250000e+00 4.550000e+01
      vertex   6.250000e+00 -6.250000e+00 5.000000e-01
    endloop
  endfacet
  facet normal 1.000000e+00 0.000000e+00 0.000000e+00
    outer loop
      vertex   6.250000e+00 -4.500000e+00 2.710000e+01
      vertex   6.250000e+00 -6.250000e+00 5.000000e-01
      vertex   6.250000e+00 -4.500000e+00 5.000000e-01
    endloop
  endfacet
endsolid
