solid 
facet normal 0 0 1
 outer loop
  vertex 0.0016644804 -0.00086103124 0.0050030677
  vertex 0.0049978136 -0.004194365 0.0050030677
  vertex 0.0049978136 -0.00086103124 0.0050030677
 endloop
endfacet
facet normal 1 0 -0
 outer loop
  vertex 0.0049978136 -0.004194365 0.0050030677
  vertex 0.0049978136 -0.0041943653 0.0016697341
  vertex 0.0049978136 -0.00086103124 0.0050030677
 endloop
endfacet
facet normal 0 -1 1.3969837e-07
 outer loop
  vertex 0.0016644804 -0.004194365 0.0050030677
  vertex 0.0049978136 -0.0041943653 0.0016697341
  vertex 0.0049978136 -0.004194365 0.0050030677
 endloop
endfacet
facet normal 0 0 1
 outer loop
  vertex 0.0016644804 -0.004194365 0.0050030677
  vertex 0.0049978136 -0.004194365 0.0050030677
  vertex 0.0016644804 -0.00086103124 0.0050030677
 endloop
endfacet
facet normal 0 0 1
 outer loop
  vertex -0.0016688529 -0.00086103124 0.0050030677
  vertex 0.0016644804 -0.00086103124 0.0050030677
  vertex -0.0016688529 0.0024723015 0.0050030677
 endloop
endfacet
facet normal 0 0 1
 outer loop
  vertex -0.0016688529 -0.00086103124 0.0050030677
  vertex 0.0016644804 -0.004194365 0.0050030677
  vertex 0.0016644804 -0.00086103124 0.0050030677
 endloop
endfacet
facet normal 0 0 1
 outer loop
  vertex -0.0016688529 0.0024723015 0.0050030677
  vertex 0.0016644804 -0.00086103124 0.0050030677
  vertex 0.0016644804 0.0024723015 0.0050030677
 endloop
endfacet
facet normal 0 0 1
 outer loop
  vertex 0.0016644804 -0.00086103124 0.0050030677
  vertex 0.0049978136 -0.00086103124 0.0050030677
  vertex 0.0016644804 0.0024723015 0.0050030677
 endloop
endfacet
facet normal 0 1.3969839e-07 1
 outer loop
  vertex -0.0016688529 0.005805635 0.005003067
  vertex 0.0016644804 0.0024723015 0.0050030677
  vertex 0.0016644804 0.005805635 0.005003067
 endloop
endfacet
facet normal 0 1.3969839e-07 1
 outer loop
  vertex -0.0016688529 0.005805635 0.005003067
  vertex -0.0016688529 0.0024723015 0.0050030677
  vertex 0.0016644804 0.0024723015 0.0050030677
 endloop
endfacet
facet normal 0 1.3969837e-07 1
 outer loop
  vertex 0.0016644804 0.005805635 0.005003067
  vertex 0.0016644804 0.0024723015 0.0050030677
  vertex 0.0049978136 0.0024723015 0.0050030677
 endloop
endfacet
facet normal 0 0 1
 outer loop
  vertex 0.0016644804 0.0024723015 0.0050030677
  vertex 0.0049978136 -0.00086103124 0.0050030677
  vertex 0.0049978136 0.0024723015 0.0050030677
 endloop
endfacet
facet normal 1 0 -0
 outer loop
  vertex 0.0049978136 -0.00086103124 0.0050030677
  vertex 0.0049978136 -0.0008610315 0.0016697337
  vertex 0.0049978136 0.0024723015 0.0050030677
 endloop
endfacet
facet normal 1 0 -0
 outer loop
  vertex 0.0049978136 0.0024723015 0.0050030677
  vertex 0.0049978136 -0.0008610315 0.0016697337
  vertex 0.0049978136 0.0024723012 0.0016697336
 endloop
endfacet
facet normal 1 0 -0
 outer loop
  vertex 0.0049978136 0.0024723015 0.0050030677
  vertex 0.0049978136 0.0024723012 0.0016697336
  vertex 0.0049978136 0.005805635 0.005003067
 endloop
endfacet
facet normal 0 1.3969837e-07 1
 outer loop
  vertex 0.0016644804 0.005805635 0.005003067
  vertex 0.0049978136 0.0024723015 0.0050030677
  vertex 0.0049978136 0.005805635 0.005003067
 endloop
endfacet
facet normal 1 0 -0
 outer loop
  vertex 0.0049978136 0.005805635 0.005003067
  vertex 0.0049978136 0.0024723012 0.0016697336
  vertex 0.0049978136 0.005805635 0.0016697333
 endloop
endfacet
facet normal -0 1 0
 outer loop
  vertex 0.0049978136 0.005805635 0.0016697333
  vertex 0.0016644804 0.005805635 0.0016697333
  vertex 0.0049978136 0.005805635 0.005003067
 endloop
endfacet
facet normal -0 1 0
 outer loop
  vertex 0.0049978136 0.005805635 0.005003067
  vertex 0.0016644804 0.005805635 0.0016697333
  vertex 0.0016644804 0.005805635 0.005003067
 endloop
endfacet
facet normal -0 1 0
 outer loop
  vertex 0.0049978136 0.005805635 0.0016697333
  vertex 0.0016644804 0.005805635 -0.0016635997
  vertex 0.0016644804 0.005805635 0.0016697333
 endloop
endfacet
facet normal -0 1 0
 outer loop
  vertex 0.0016644804 0.005805635 -0.0016635997
  vertex -0.0016688529 0.005805635 -0.0016635997
  vertex 0.0016644804 0.005805635 0.0016697333
 endloop
endfacet
facet normal 0 1 0
 outer loop
  vertex 0.0016644804 0.005805635 0.005003067
  vertex 0.0016644804 0.005805635 0.0016697333
  vertex -0.0016688529 0.005805635 0.0016697333
 endloop
endfacet
facet normal -0 1 0
 outer loop
  vertex 0.0016644804 0.005805635 0.0016697333
  vertex -0.0016688529 0.005805635 -0.0016635997
  vertex -0.0016688529 0.005805635 0.0016697333
 endloop
endfacet
facet normal 0 1 -1.396984e-07
 outer loop
  vertex 0.0016644804 0.005805635 -0.0016635997
  vertex -0.0016688529 0.0058056344 -0.0049969326
  vertex -0.0016688529 0.005805635 -0.0016635997
 endloop
endfacet
facet normal 0 1 -1.396984e-07
 outer loop
  vertex -0.0016688529 0.0058056344 -0.0049969326
  vertex -0.005002186 0.0058056344 -0.0049969326
  vertex -0.0016688529 0.005805635 -0.0016635997
 endloop
endfacet
facet normal -0 1 0
 outer loop
  vertex -0.0016688529 0.005805635 -0.0016635997
  vertex -0.005002186 0.005805635 -0.0016635997
  vertex -0.0016688529 0.005805635 0.0016697333
 endloop
endfacet
facet normal 0 1 -1.396984e-07
 outer loop
  vertex -0.0016688529 0.005805635 -0.0016635997
  vertex -0.005002186 0.0058056344 -0.0049969326
  vertex -0.005002186 0.005805635 -0.0016635997
 endloop
endfacet
facet normal -1 -0 -0
 outer loop
  vertex -0.005002186 0.0058056344 -0.0049969326
  vertex -0.005002186 0.002472301 -0.0016635996
  vertex -0.005002186 0.005805635 -0.0016635997
 endloop
endfacet
facet normal -1 0 -0
 outer loop
  vertex -0.005002186 0.005805635 -0.0016635997
  vertex -0.005002186 0.002472301 -0.0016635996
  vertex -0.005002186 0.0024723012 0.0016697336
 endloop
endfacet
facet normal -1 -0 -0
 outer loop
  vertex -0.005002186 0.005805635 -0.0016635997
  vertex -0.005002186 0.0024723012 0.0016697336
  vertex -0.005002186 0.005805635 0.0016697333
 endloop
endfacet
facet normal -0 1 0
 outer loop
  vertex -0.0016688529 0.005805635 0.0016697333
  vertex -0.005002186 0.005805635 -0.0016635997
  vertex -0.005002186 0.005805635 0.0016697333
 endloop
endfacet
facet normal -1 0 -0
 outer loop
  vertex -0.005002186 0.005805635 0.0016697333
  vertex -0.005002186 0.0024723012 0.0016697336
  vertex -0.005002186 0.0024723015 0.0050030677
 endloop
endfacet
facet normal -1 -0 -0
 outer loop
  vertex -0.005002186 0.005805635 0.0016697333
  vertex -0.005002186 0.0024723015 0.0050030677
  vertex -0.005002186 0.005805635 0.005003067
 endloop
endfacet
facet normal -0 1 0
 outer loop
  vertex -0.0016688529 0.005805635 0.005003067
  vertex -0.005002186 0.005805635 0.0016697333
  vertex -0.005002186 0.005805635 0.005003067
 endloop
endfacet
facet normal 0 1 0
 outer loop
  vertex -0.0016688529 0.005805635 0.005003067
  vertex -0.0016688529 0.005805635 0.0016697333
  vertex -0.005002186 0.005805635 0.0016697333
 endloop
endfacet
facet normal 0 1.3969839e-07 1
 outer loop
  vertex -0.005002186 0.0024723015 0.0050030677
  vertex -0.0016688529 0.0024723015 0.0050030677
  vertex -0.005002186 0.005805635 0.005003067
 endloop
endfacet
facet normal 0 1.3969839e-07 1
 outer loop
  vertex -0.005002186 0.005805635 0.005003067
  vertex -0.0016688529 0.0024723015 0.0050030677
  vertex -0.0016688529 0.005805635 0.005003067
 endloop
endfacet
facet normal -1 -0 -0
 outer loop
  vertex -0.005002186 0.0024723012 0.0016697336
  vertex -0.005002186 -0.00086103124 0.0050030677
  vertex -0.005002186 0.0024723015 0.0050030677
 endloop
endfacet
facet normal 0 0 1
 outer loop
  vertex -0.005002186 -0.00086103124 0.0050030677
  vertex -0.0016688529 -0.00086103124 0.0050030677
  vertex -0.005002186 0.0024723015 0.0050030677
 endloop
endfacet
facet normal 0 0 1
 outer loop
  vertex -0.005002186 0.0024723015 0.0050030677
  vertex -0.0016688529 -0.00086103124 0.0050030677
  vertex -0.0016688529 0.0024723015 0.0050030677
 endloop
endfacet
facet normal -1 -0 -0
 outer loop
  vertex -0.005002186 -0.0008610315 0.0016697337
  vertex -0.005002186 -0.004194365 0.0050030677
  vertex -0.005002186 -0.00086103124 0.0050030677
 endloop
endfacet
facet normal 0 0 1
 outer loop
  vertex -0.005002186 -0.004194365 0.0050030677
  vertex -0.0016688529 -0.004194365 0.0050030677
  vertex -0.005002186 -0.00086103124 0.0050030677
 endloop
endfacet
facet normal 0 0 1
 outer loop
  vertex -0.005002186 -0.00086103124 0.0050030677
  vertex -0.0016688529 -0.004194365 0.0050030677
  vertex -0.0016688529 -0.00086103124 0.0050030677
 endloop
endfacet
facet normal -1 -0 0
 outer loop
  vertex -0.005002186 -0.0008610315 0.0016697337
  vertex -0.005002186 -0.00086103124 0.0050030677
  vertex -0.005002186 0.0024723012 0.0016697336
 endloop
endfacet
facet normal -1 -0 0
 outer loop
  vertex -0.005002186 -0.0008610317 -0.0016635994
  vertex -0.005002186 -0.0008610315 0.0016697337
  vertex -0.005002186 0.002472301 -0.0016635996
 endloop
endfacet
facet normal -1 -0 -0
 outer loop
  vertex -0.005002186 -0.0008610317 -0.0016635994
  vertex -0.005002186 -0.0041943653 0.0016697341
  vertex -0.005002186 -0.0008610315 0.0016697337
 endloop
endfacet
facet normal -1 -0 0
 outer loop
  vertex -0.005002186 -0.0041943653 0.0016697341
  vertex -0.005002186 -0.004194365 0.0050030677
  vertex -0.005002186 -0.0008610315 0.0016697337
 endloop
endfacet
facet normal -1 -0 -0
 outer loop
  vertex -0.005002186 0.002472301 -0.0016635996
  vertex -0.005002186 -0.0008610315 0.0016697337
  vertex -0.005002186 0.0024723012 0.0016697336
 endloop
endfacet
facet normal -0 -1 -0
 outer loop
  vertex -0.005002186 -0.0041943653 -0.001663599
  vertex -0.0016688529 -0.0041943653 -0.001663599
  vertex -0.005002186 -0.0041943653 0.0016697341
 endloop
endfacet
facet normal -1 -0 -0
 outer loop
  vertex -0.005002186 -0.0041943653 -0.001663599
  vertex -0.005002186 -0.0041943653 0.0016697341
  vertex -0.005002186 -0.0008610317 -0.0016635994
 endloop
endfacet
facet normal 0 -1 1.3969839e-07
 outer loop
  vertex -0.005002186 -0.0041943653 0.0016697341
  vertex -0.0016688529 -0.0041943653 0.0016697341
  vertex -0.005002186 -0.004194365 0.0050030677
 endloop
endfacet
facet normal -0 -1 -0
 outer loop
  vertex -0.005002186 -0.0041943653 0.0016697341
  vertex -0.0016688529 -0.0041943653 -0.001663599
  vertex -0.0016688529 -0.0041943653 0.0016697341
 endloop
endfacet
facet normal -0 -1 -0
 outer loop
  vertex -0.0016688529 -0.0041943653 -0.001663599
  vertex 0.0016644804 -0.0041943653 -0.001663599
  vertex -0.0016688529 -0.0041943653 0.0016697341
 endloop
endfacet
facet normal 0 -1 1.3969839e-07
 outer loop
  vertex -0.005002186 -0.004194365 0.0050030677
  vertex -0.0016688529 -0.0041943653 0.0016697341
  vertex -0.0016688529 -0.004194365 0.0050030677
 endloop
endfacet
facet normal 0 -1 1.3969839e-07
 outer loop
  vertex -0.0016688529 -0.004194365 0.0050030677
  vertex -0.0016688529 -0.0041943653 0.0016697341
  vertex 0.0016644804 -0.0041943653 0.0016697341
 endloop
endfacet
facet normal -0 -1 -0
 outer loop
  vertex -0.0016688529 -0.0041943653 0.0016697341
  vertex 0.0016644804 -0.0041943653 -0.001663599
  vertex 0.0016644804 -0.0041943653 0.0016697341
 endloop
endfacet
facet normal -0 -1 -0
 outer loop
  vertex -0.0016688529 -0.0041943653 -0.001663599
  vertex 0.0016644804 -0.0041943653 -0.004996932
  vertex 0.0016644804 -0.0041943653 -0.001663599
 endloop
endfacet
facet normal -0 -1 -0
 outer loop
  vertex 0.0016644804 -0.0041943653 -0.004996932
  vertex 0.0049978136 -0.0041943653 -0.004996932
  vertex 0.0016644804 -0.0041943653 -0.001663599
 endloop
endfacet
facet normal -0 -1 -0
 outer loop
  vertex 0.0016644804 -0.0041943653 -0.001663599
  vertex 0.0049978136 -0.0041943653 -0.001663599
  vertex 0.0016644804 -0.0041943653 0.0016697341
 endloop
endfacet
facet normal -0 -1 -0
 outer loop
  vertex 0.0016644804 -0.0041943653 -0.001663599
  vertex 0.0049978136 -0.0041943653 -0.004996932
  vertex 0.0049978136 -0.0041943653 -0.001663599
 endloop
endfacet
facet normal -0 -1 -0
 outer loop
  vertex 0.0016644804 -0.0041943653 0.0016697341
  vertex 0.0049978136 -0.0041943653 -0.001663599
  vertex 0.0049978136 -0.0041943653 0.0016697341
 endloop
endfacet
facet normal 1 0 -0
 outer loop
  vertex 0.0049978136 -0.0041943653 0.0016697341
  vertex 0.0049978136 -0.0041943653 -0.001663599
  vertex 0.0049978136 -0.0008610315 0.0016697337
 endloop
endfacet
facet normal 1 0 -0
 outer loop
  vertex 0.0049978136 -0.0008610315 0.0016697337
  vertex 0.0049978136 -0.0041943653 -0.001663599
  vertex 0.0049978136 -0.0008610317 -0.0016635994
 endloop
endfacet
facet normal 1 0 -0
 outer loop
  vertex 0.0049978136 -0.0041943653 -0.001663599
  vertex 0.0049978136 -0.0041943653 -0.004996932
  vertex 0.0049978136 -0.0008610317 -0.0016635994
 endloop
endfacet
facet normal 1 0 -0
 outer loop
  vertex 0.0049978136 -0.0008610315 0.0016697337
  vertex 0.0049978136 -0.0008610317 -0.0016635994
  vertex 0.0049978136 0.0024723012 0.0016697336
 endloop
endfacet
facet normal 1 0 -0
 outer loop
  vertex 0.0049978136 0.0024723012 0.0016697336
  vertex 0.0049978136 -0.0008610317 -0.0016635994
  vertex 0.0049978136 0.002472301 -0.0016635996
 endloop
endfacet
facet normal 1 0 -0
 outer loop
  vertex 0.0049978136 -0.0008610317 -0.0016635994
  vertex 0.0049978136 -0.000861032 -0.0049969326
  vertex 0.0049978136 0.002472301 -0.0016635996
 endloop
endfacet
facet normal 1 0 -0
 outer loop
  vertex 0.0049978136 -0.0008610317 -0.0016635994
  vertex 0.0049978136 -0.0041943653 -0.004996932
  vertex 0.0049978136 -0.000861032 -0.0049969326
 endloop
endfacet
facet normal 0 -1.3969837e-07 -1
 outer loop
  vertex 0.0049978136 -0.0041943653 -0.004996932
  vertex 0.0016644804 -0.0041943653 -0.004996932
  vertex 0.0049978136 -0.000861032 -0.0049969326
 endloop
endfacet
facet normal 1 0 -0
 outer loop
  vertex 0.0049978136 0.002472301 -0.0016635996
  vertex 0.0049978136 -0.000861032 -0.0049969326
  vertex 0.0049978136 0.0024723008 -0.0049969326
 endloop
endfacet
facet normal 0 -0 -1
 outer loop
  vertex 0.0049978136 -0.000861032 -0.0049969326
  vertex 0.0016644804 -0.000861032 -0.0049969326
  vertex 0.0049978136 0.0024723008 -0.0049969326
 endloop
endfacet
facet normal 0 -1.3969837e-07 -1
 outer loop
  vertex 0.0049978136 -0.000861032 -0.0049969326
  vertex 0.0016644804 -0.0041943653 -0.004996932
  vertex 0.0016644804 -0.000861032 -0.0049969326
 endloop
endfacet
facet normal 0 -1.3969839e-07 -1
 outer loop
  vertex 0.0016644804 -0.0041943653 -0.004996932
  vertex -0.0016688529 -0.0041943653 -0.004996932
  vertex 0.0016644804 -0.000861032 -0.0049969326
 endloop
endfacet
facet normal 0 0 -1
 outer loop
  vertex 0.0049978136 0.0024723008 -0.0049969326
  vertex 0.0016644804 -0.000861032 -0.0049969326
  vertex 0.0016644804 0.0024723008 -0.0049969326
 endloop
endfacet
facet normal 0 -0 -1
 outer loop
  vertex 0.0016644804 -0.000861032 -0.0049969326
  vertex -0.0016688529 -0.000861032 -0.0049969326
  vertex 0.0016644804 0.0024723008 -0.0049969326
 endloop
endfacet
facet normal 0 -1.3969839e-07 -1
 outer loop
  vertex 0.0016644804 -0.000861032 -0.0049969326
  vertex -0.0016688529 -0.0041943653 -0.004996932
  vertex -0.0016688529 -0.000861032 -0.0049969326
 endloop
endfacet
facet normal 0 -1.3969839e-07 -1
 outer loop
  vertex -0.0016688529 -0.0041943653 -0.004996932
  vertex -0.005002186 -0.0041943653 -0.004996932
  vertex -0.0016688529 -0.000861032 -0.0049969326
 endloop
endfacet
facet normal 0 0 -1
 outer loop
  vertex 0.0016644804 0.0024723008 -0.0049969326
  vertex -0.0016688529 -0.000861032 -0.0049969326
  vertex -0.0016688529 0.0024723008 -0.0049969326
 endloop
endfacet
facet normal 0 -0 -1
 outer loop
  vertex -0.0016688529 -0.000861032 -0.0049969326
  vertex -0.005002186 -0.000861032 -0.0049969326
  vertex -0.0016688529 0.0024723008 -0.0049969326
 endloop
endfacet
facet normal 0 -1.3969839e-07 -1
 outer loop
  vertex -0.0016688529 -0.000861032 -0.0049969326
  vertex -0.005002186 -0.0041943653 -0.004996932
  vertex -0.005002186 -0.000861032 -0.0049969326
 endloop
endfacet
facet normal -1 -0 -0
 outer loop
  vertex -0.005002186 -0.0041943653 -0.004996932
  vertex -0.005002186 -0.0041943653 -0.001663599
  vertex -0.005002186 -0.000861032 -0.0049969326
 endloop
endfacet
facet normal -1 -0 -0
 outer loop
  vertex -0.005002186 -0.000861032 -0.0049969326
  vertex -0.005002186 -0.0041943653 -0.001663599
  vertex -0.005002186 -0.0008610317 -0.0016635994
 endloop
endfacet
facet normal -1 -0 0
 outer loop
  vertex -0.005002186 -0.000861032 -0.0049969326
  vertex -0.005002186 -0.0008610317 -0.0016635994
  vertex -0.005002186 0.0024723008 -0.0049969326
 endloop
endfacet
facet normal 0 0 -1
 outer loop
  vertex -0.0016688529 0.0024723008 -0.0049969326
  vertex -0.005002186 -0.000861032 -0.0049969326
  vertex -0.005002186 0.0024723008 -0.0049969326
 endloop
endfacet
facet normal -1 -0 -0
 outer loop
  vertex -0.005002186 0.0024723008 -0.0049969326
  vertex -0.005002186 -0.0008610317 -0.0016635994
  vertex -0.005002186 0.002472301 -0.0016635996
 endloop
endfacet
facet normal -1 -0 0
 outer loop
  vertex -0.005002186 0.0024723008 -0.0049969326
  vertex -0.005002186 0.002472301 -0.0016635996
  vertex -0.005002186 0.0058056344 -0.0049969326
 endloop
endfacet
facet normal 0 0 -1
 outer loop
  vertex -0.0016688529 0.0058056344 -0.0049969326
  vertex -0.005002186 0.0024723008 -0.0049969326
  vertex -0.005002186 0.0058056344 -0.0049969326
 endloop
endfacet
facet normal 0 0 -1
 outer loop
  vertex -0.0016688529 0.0058056344 -0.0049969326
  vertex -0.0016688529 0.0024723008 -0.0049969326
  vertex -0.005002186 0.0024723008 -0.0049969326
 endloop
endfacet
facet normal -0 -1 -0
 outer loop
  vertex -0.005002186 -0.0041943653 -0.004996932
  vertex -0.0016688529 -0.0041943653 -0.004996932
  vertex -0.005002186 -0.0041943653 -0.001663599
 endloop
endfacet
facet normal 0 0 -1
 outer loop
  vertex 0.0016644804 0.0058056344 -0.0049969326
  vertex -0.0016688529 0.0024723008 -0.0049969326
  vertex -0.0016688529 0.0058056344 -0.0049969326
 endloop
endfacet
facet normal 0 0 -1
 outer loop
  vertex 0.0016644804 0.0058056344 -0.0049969326
  vertex 0.0016644804 0.0024723008 -0.0049969326
  vertex -0.0016688529 0.0024723008 -0.0049969326
 endloop
endfacet
facet normal 0 1 -1.396984e-07
 outer loop
  vertex 0.0049978136 0.0058056344 -0.0049969326
  vertex 0.0016644804 0.0058056344 -0.0049969326
  vertex 0.0049978136 0.005805635 -0.0016635997
 endloop
endfacet
facet normal 0 0 -1
 outer loop
  vertex 0.0049978136 0.0058056344 -0.0049969326
  vertex 0.0016644804 0.0024723008 -0.0049969326
  vertex 0.0016644804 0.0058056344 -0.0049969326
 endloop
endfacet
facet normal 0 1 -1.396984e-07
 outer loop
  vertex 0.0016644804 0.0058056344 -0.0049969326
  vertex -0.0016688529 0.0058056344 -0.0049969326
  vertex 0.0016644804 0.005805635 -0.0016635997
 endloop
endfacet
facet normal 0 1 -1.396984e-07
 outer loop
  vertex 0.0049978136 0.005805635 -0.0016635997
  vertex 0.0016644804 0.0058056344 -0.0049969326
  vertex 0.0016644804 0.005805635 -0.0016635997
 endloop
endfacet
facet normal -0 1 0
 outer loop
  vertex 0.0049978136 0.005805635 -0.0016635997
  vertex 0.0016644804 0.005805635 -0.0016635997
  vertex 0.0049978136 0.005805635 0.0016697333
 endloop
endfacet
facet normal 1 0 -0
 outer loop
  vertex 0.0049978136 0.005805635 0.0016697333
  vertex 0.0049978136 0.002472301 -0.0016635996
  vertex 0.0049978136 0.005805635 -0.0016635997
 endloop
endfacet
facet normal 1 -0 0
 outer loop
  vertex 0.0049978136 0.005805635 -0.0016635997
  vertex 0.0049978136 0.002472301 -0.0016635996
  vertex 0.0049978136 0.0024723008 -0.0049969326
 endloop
endfacet
facet normal 1 0 -0
 outer loop
  vertex 0.0049978136 0.005805635 -0.0016635997
  vertex 0.0049978136 0.0024723008 -0.0049969326
  vertex 0.0049978136 0.0058056344 -0.0049969326
 endloop
endfacet
facet normal 0 -0 -1
 outer loop
  vertex 0.0049978136 0.0024723008 -0.0049969326
  vertex 0.0016644804 0.0024723008 -0.0049969326
  vertex 0.0049978136 0.0058056344 -0.0049969326
 endloop
endfacet
facet normal -0 -1 -0
 outer loop
  vertex -0.0016688529 -0.0041943653 -0.004996932
  vertex 0.0016644804 -0.0041943653 -0.004996932
  vertex -0.0016688529 -0.0041943653 -0.001663599
 endloop
endfacet
facet normal -0 -1 -0
 outer loop
  vertex -0.005002186 -0.0041943653 -0.001663599
  vertex -0.0016688529 -0.0041943653 -0.004996932
  vertex -0.0016688529 -0.0041943653 -0.001663599
 endloop
endfacet
facet normal 1 -0 0
 outer loop
  vertex 0.0049978136 0.005805635 0.0016697333
  vertex 0.0049978136 0.0024723012 0.0016697336
  vertex 0.0049978136 0.002472301 -0.0016635996
 endloop
endfacet
facet normal 0 -1 1.3969839e-07
 outer loop
  vertex -0.0016688529 -0.004194365 0.0050030677
  vertex 0.0016644804 -0.0041943653 0.0016697341
  vertex 0.0016644804 -0.004194365 0.0050030677
 endloop
endfacet
facet normal 0 -1 1.3969837e-07
 outer loop
  vertex 0.0016644804 -0.004194365 0.0050030677
  vertex 0.0016644804 -0.0041943653 0.0016697341
  vertex 0.0049978136 -0.0041943653 0.0016697341
 endloop
endfacet
facet normal 0 0 1
 outer loop
  vertex -0.0016688529 -0.004194365 0.0050030677
  vertex 0.0016644804 -0.004194365 0.0050030677
  vertex -0.0016688529 -0.00086103124 0.0050030677
 endloop
endfacet
facet normal -0 1 0
 outer loop
  vertex 0.0016644804 0.005805635 0.005003067
  vertex -0.0016688529 0.005805635 0.0016697333
  vertex -0.0016688529 0.005805635 0.005003067
 endloop
endfacet
facet normal 1 0 -0
 outer loop
  vertex 0.0049978136 -0.00086103124 0.0050030677
  vertex 0.0049978136 -0.0041943653 0.0016697341
  vertex 0.0049978136 -0.0008610315 0.0016697337
 endloop
endfacet
endsolid 
