solid 
facet normal 0 1 -1.3695919e-07
 outer loop
  vertex -0.0016973059 0.0059519084 -0.0051037804
  vertex -0.005097306 0.0059519084 -0.0051037804
  vertex -0.0016973059 0.005951909 -0.00170378
 endloop
endfacet
facet normal 0 1 -1.3695919e-07
 outer loop
  vertex -0.0016973059 0.005951909 -0.00170378
  vertex -0.005097306 0.0059519084 -0.0051037804
  vertex -0.005097306 0.005951909 -0.00170378
 endloop
endfacet
facet normal -0 1 0
 outer loop
  vertex -0.0016973059 0.005951909 -0.00170378
  vertex -0.005097306 0.005951909 -0.00170378
  vertex -0.0016973059 0.005951909 0.0016962198
 endloop
endfacet
facet normal -0 1 0
 outer loop
  vertex -0.0016973059 0.005951909 0.0016962198
  vertex -0.005097306 0.005951909 -0.00170378
  vertex -0.005097306 0.005951909 0.0016962198
 endloop
endfacet
facet normal 0 1 -1.3695922e-07
 outer loop
  vertex -0.0016973059 0.005951909 0.0016962198
  vertex -0.005097306 0.005951909 0.0016962198
  vertex -0.0016973059 0.0059519093 0.0050962195
 endloop
endfacet
facet normal 0 1 -1.3695922e-07
 outer loop
  vertex -0.0016973059 0.0059519093 0.0050962195
  vertex -0.005097306 0.005951909 0.0016962198
  vertex -0.005097306 0.0059519093 0.0050962195
 endloop
endfacet
facet normal 0 1 -1.3695922e-07
 outer loop
  vertex -0.0016973059 0.0059519093 0.0050962195
  vertex 0.0017026941 0.0059519093 0.0050962195
  vertex -0.0016973059 0.005951909 0.0016962198
 endloop
endfacet
facet normal 0 1 -1.3695922e-07
 outer loop
  vertex -0.0016973059 0.005951909 0.0016962198
  vertex 0.0017026941 0.0059519093 0.0050962195
  vertex 0.0017026941 0.005951909 0.0016962198
 endloop
endfacet
facet normal 0 1 -0
 outer loop
  vertex -0.0016973059 0.005951909 0.0016962198
  vertex 0.0017026941 0.005951909 0.0016962198
  vertex -0.0016973059 0.005951909 -0.00170378
 endloop
endfacet
facet normal 0 1 -0
 outer loop
  vertex -0.0016973059 0.005951909 -0.00170378
  vertex 0.0017026941 0.005951909 0.0016962198
  vertex 0.0017026941 0.005951909 -0.00170378
 endloop
endfacet
facet normal 0 1 -1.3695919e-07
 outer loop
  vertex -0.0016973059 0.005951909 -0.00170378
  vertex 0.0017026941 0.005951909 -0.00170378
  vertex -0.0016973059 0.0059519084 -0.0051037804
 endloop
endfacet
facet normal 0 1 -1.3695919e-07
 outer loop
  vertex -0.0016973059 0.0059519084 -0.0051037804
  vertex 0.0017026941 0.005951909 -0.00170378
  vertex 0.0017026941 0.0059519084 -0.0051037804
 endloop
endfacet
facet normal 0 1 -1.369592e-07
 outer loop
  vertex 0.0017026941 0.0059519084 -0.0051037804
  vertex 0.0017026941 0.005951909 -0.00170378
  vertex 0.0051026945 0.005951909 -0.00170378
 endloop
endfacet
facet normal 0 1 -1.369592e-07
 outer loop
  vertex 0.0017026941 0.0059519084 -0.0051037804
  vertex 0.0051026945 0.005951909 -0.00170378
  vertex 0.0051026945 0.0059519084 -0.0051037804
 endloop
endfacet
facet normal 0 1 -1.369592e-07
 outer loop
  vertex 0.0017026941 0.0059519093 0.0050962195
  vertex 0.0051026945 0.0059519093 0.0050962195
  vertex 0.0017026941 0.005951909 0.0016962198
 endloop
endfacet
facet normal 0 1 -1.369592e-07
 outer loop
  vertex 0.0017026941 0.005951909 0.0016962198
  vertex 0.0051026945 0.0059519093 0.0050962195
  vertex 0.0051026945 0.005951909 0.0016962198
 endloop
endfacet
facet normal 0 1 -0
 outer loop
  vertex 0.0017026941 0.005951909 0.0016962198
  vertex 0.0051026945 0.005951909 0.0016962198
  vertex 0.0017026941 0.005951909 -0.00170378
 endloop
endfacet
facet normal 0 1 -0
 outer loop
  vertex 0.0017026941 0.005951909 -0.00170378
  vertex 0.0051026945 0.005951909 0.0016962198
  vertex 0.0051026945 0.005951909 -0.00170378
 endloop
endfacet
facet normal -0 1.2421746e-07 1
 outer loop
  vertex -0.0016973059 0.0059519093 0.0050962195
  vertex -0.005097306 0.0059519093 0.0050962195
  vertex -0.0016973059 0.0022031507 0.00509622
 endloop
endfacet
facet normal 0 1.2421746e-07 1
 outer loop
  vertex -0.0016973059 0.0022031507 0.00509622
  vertex -0.005097306 0.0059519093 0.0050962195
  vertex -0.005097306 0.0022031507 0.00509622
 endloop
endfacet
facet normal 0 -0 1
 outer loop
  vertex -0.0016973059 0.0022031507 0.00509622
  vertex -0.005097306 0.0022031507 0.00509622
  vertex -0.0016973059 -0.0015456068 0.00509622
 endloop
endfacet
facet normal -0 0 1
 outer loop
  vertex -0.0016973059 -0.0015456068 0.00509622
  vertex -0.005097306 0.0022031507 0.00509622
  vertex -0.005097306 -0.0015456068 0.00509622
 endloop
endfacet
facet normal -0 1.242175e-07 1
 outer loop
  vertex -0.0016973059 -0.0015456068 0.00509622
  vertex -0.005097306 -0.0015456068 0.00509622
  vertex -0.0016973059 -0.0052943644 0.0050962204
 endloop
endfacet
facet normal 0 1.242175e-07 1
 outer loop
  vertex -0.0016973059 -0.0052943644 0.0050962204
  vertex -0.005097306 -0.0015456068 0.00509622
  vertex -0.005097306 -0.0052943644 0.0050962204
 endloop
endfacet
facet normal 0 1.242175e-07 1
 outer loop
  vertex -0.0016973059 -0.0052943644 0.0050962204
  vertex 0.0017026941 -0.0052943644 0.0050962204
  vertex -0.0016973059 -0.0015456068 0.00509622
 endloop
endfacet
facet normal 0 1.242175e-07 1
 outer loop
  vertex -0.0016973059 -0.0015456068 0.00509622
  vertex 0.0017026941 -0.0052943644 0.0050962204
  vertex 0.0017026941 -0.0015456068 0.00509622
 endloop
endfacet
facet normal 0 0 1
 outer loop
  vertex -0.0016973059 -0.0015456068 0.00509622
  vertex 0.0017026941 -0.0015456068 0.00509622
  vertex -0.0016973059 0.0022031507 0.00509622
 endloop
endfacet
facet normal 0 0 1
 outer loop
  vertex -0.0016973059 0.0022031507 0.00509622
  vertex 0.0017026941 -0.0015456068 0.00509622
  vertex 0.0017026941 0.0022031507 0.00509622
 endloop
endfacet
facet normal 0 1.2421746e-07 1
 outer loop
  vertex -0.0016973059 0.0022031507 0.00509622
  vertex 0.0017026941 0.0022031507 0.00509622
  vertex -0.0016973059 0.0059519093 0.0050962195
 endloop
endfacet
facet normal 0 1.2421746e-07 1
 outer loop
  vertex -0.0016973059 0.0059519093 0.0050962195
  vertex 0.0017026941 0.0022031507 0.00509622
  vertex 0.0017026941 0.0059519093 0.0050962195
 endloop
endfacet
facet normal 0 1.2421746e-07 1
 outer loop
  vertex 0.0017026941 0.0059519093 0.0050962195
  vertex 0.0017026941 0.0022031507 0.00509622
  vertex 0.0051026945 0.0022031507 0.00509622
 endloop
endfacet
facet normal 0 1.2421746e-07 1
 outer loop
  vertex 0.0017026941 0.0059519093 0.0050962195
  vertex 0.0051026945 0.0022031507 0.00509622
  vertex 0.0051026945 0.0059519093 0.0050962195
 endloop
endfacet
facet normal 0 1.242175e-07 1
 outer loop
  vertex 0.0017026941 -0.0052943644 0.0050962204
  vertex 0.0051026945 -0.0052943644 0.0050962204
  vertex 0.0017026941 -0.0015456068 0.00509622
 endloop
endfacet
facet normal 0 1.242175e-07 1
 outer loop
  vertex 0.0017026941 -0.0015456068 0.00509622
  vertex 0.0051026945 -0.0052943644 0.0050962204
  vertex 0.0051026945 -0.0015456068 0.00509622
 endloop
endfacet
facet normal 0 0 1
 outer loop
  vertex 0.0017026941 -0.0015456068 0.00509622
  vertex 0.0051026945 -0.0015456068 0.00509622
  vertex 0.0017026941 0.0022031507 0.00509622
 endloop
endfacet
facet normal 0 0 1
 outer loop
  vertex 0.0017026941 0.0022031507 0.00509622
  vertex 0.0051026945 -0.0015456068 0.00509622
  vertex 0.0051026945 0.0022031507 0.00509622
 endloop
endfacet
facet normal 1 -0 0
 outer loop
  vertex 0.0051026945 0.005951909 0.0016962198
  vertex 0.0051026945 0.0059519093 0.0050962195
  vertex 0.0051026945 0.0022031504 0.00169622
 endloop
endfacet
facet normal 1 0 0
 outer loop
  vertex 0.0051026945 0.0022031504 0.00169622
  vertex 0.0051026945 0.0059519093 0.0050962195
  vertex 0.0051026945 0.0022031507 0.00509622
 endloop
endfacet
facet normal 1 -0 0
 outer loop
  vertex 0.0051026945 0.0022031504 0.00169622
  vertex 0.0051026945 0.0022031507 0.00509622
  vertex 0.0051026945 -0.001545607 0.0016962204
 endloop
endfacet
facet normal 1 -0 0
 outer loop
  vertex 0.0051026945 -0.001545607 0.0016962204
  vertex 0.0051026945 0.0022031507 0.00509622
  vertex 0.0051026945 -0.0015456068 0.00509622
 endloop
endfacet
facet normal 1 -0 0
 outer loop
  vertex 0.0051026945 -0.001545607 0.0016962204
  vertex 0.0051026945 -0.0015456068 0.00509622
  vertex 0.0051026945 -0.005294365 0.0016962205
 endloop
endfacet
facet normal 1 0 0
 outer loop
  vertex 0.0051026945 -0.005294365 0.0016962205
  vertex 0.0051026945 -0.0015456068 0.00509622
  vertex 0.0051026945 -0.0052943644 0.0050962204
 endloop
endfacet
facet normal 1 0 -0
 outer loop
  vertex 0.0051026945 -0.005294365 0.0016962205
  vertex 0.0051026945 -0.005294365 -0.0017037793
  vertex 0.0051026945 -0.001545607 0.0016962204
 endloop
endfacet
facet normal 1 0 -0
 outer loop
  vertex 0.0051026945 -0.001545607 0.0016962204
  vertex 0.0051026945 -0.005294365 -0.0017037793
  vertex 0.0051026945 -0.0015456072 -0.0017037796
 endloop
endfacet
facet normal 1 0 -0
 outer loop
  vertex 0.0051026945 -0.001545607 0.0016962204
  vertex 0.0051026945 -0.0015456072 -0.0017037796
  vertex 0.0051026945 0.0022031504 0.00169622
 endloop
endfacet
facet normal 1 0 -0
 outer loop
  vertex 0.0051026945 0.0022031504 0.00169622
  vertex 0.0051026945 -0.0015456072 -0.0017037796
  vertex 0.0051026945 0.00220315 -0.0017037799
 endloop
endfacet
facet normal 1 0 -0
 outer loop
  vertex 0.0051026945 0.0022031504 0.00169622
  vertex 0.0051026945 0.00220315 -0.0017037799
  vertex 0.0051026945 0.005951909 0.0016962198
 endloop
endfacet
facet normal 1 0 -0
 outer loop
  vertex 0.0051026945 0.005951909 0.0016962198
  vertex 0.0051026945 0.00220315 -0.0017037799
  vertex 0.0051026945 0.005951909 -0.00170378
 endloop
endfacet
facet normal 1 -0 0
 outer loop
  vertex 0.0051026945 0.005951909 -0.00170378
  vertex 0.0051026945 0.00220315 -0.0017037799
  vertex 0.0051026945 0.00220315 -0.00510378
 endloop
endfacet
facet normal 1 0 -0
 outer loop
  vertex 0.0051026945 0.005951909 -0.00170378
  vertex 0.0051026945 0.00220315 -0.00510378
  vertex 0.0051026945 0.0059519084 -0.0051037804
 endloop
endfacet
facet normal 1 0 -0
 outer loop
  vertex 0.0051026945 -0.005294365 -0.0017037793
  vertex 0.0051026945 -0.0052943653 -0.0051037795
  vertex 0.0051026945 -0.0015456072 -0.0017037796
 endloop
endfacet
facet normal 1 0 -0
 outer loop
  vertex 0.0051026945 -0.0015456072 -0.0017037796
  vertex 0.0051026945 -0.0052943653 -0.0051037795
  vertex 0.0051026945 -0.0015456075 -0.00510378
 endloop
endfacet
facet normal 1 0 -0
 outer loop
  vertex 0.0051026945 -0.0015456072 -0.0017037796
  vertex 0.0051026945 -0.0015456075 -0.00510378
  vertex 0.0051026945 0.00220315 -0.0017037799
 endloop
endfacet
facet normal 1 0 -0
 outer loop
  vertex 0.0051026945 0.00220315 -0.0017037799
  vertex 0.0051026945 -0.0015456075 -0.00510378
  vertex 0.0051026945 0.00220315 -0.00510378
 endloop
endfacet
facet normal -0 -1.2421746e-07 -1
 outer loop
  vertex 0.0017026941 0.0059519084 -0.0051037804
  vertex 0.0051026945 0.0059519084 -0.0051037804
  vertex 0.0017026941 0.00220315 -0.00510378
 endloop
endfacet
facet normal 0 -1.2421746e-07 -1
 outer loop
  vertex 0.0017026941 0.00220315 -0.00510378
  vertex 0.0051026945 0.0059519084 -0.0051037804
  vertex 0.0051026945 0.00220315 -0.00510378
 endloop
endfacet
facet normal 0 0 -1
 outer loop
  vertex 0.0017026941 0.00220315 -0.00510378
  vertex 0.0051026945 0.00220315 -0.00510378
  vertex 0.0017026941 -0.0015456075 -0.00510378
 endloop
endfacet
facet normal -0 0 -1
 outer loop
  vertex 0.0017026941 -0.0015456075 -0.00510378
  vertex 0.0051026945 0.00220315 -0.00510378
  vertex 0.0051026945 -0.0015456075 -0.00510378
 endloop
endfacet
facet normal -0 -1.242175e-07 -1
 outer loop
  vertex 0.0017026941 -0.0015456075 -0.00510378
  vertex 0.0051026945 -0.0015456075 -0.00510378
  vertex 0.0017026941 -0.0052943653 -0.0051037795
 endloop
endfacet
facet normal 0 -1.242175e-07 -1
 outer loop
  vertex 0.0017026941 -0.0052943653 -0.0051037795
  vertex 0.0051026945 -0.0015456075 -0.00510378
  vertex 0.0051026945 -0.0052943653 -0.0051037795
 endloop
endfacet
facet normal 0 -1.242175e-07 -1
 outer loop
  vertex 0.0017026941 -0.0052943653 -0.0051037795
  vertex -0.0016973059 -0.0052943653 -0.0051037795
  vertex 0.0017026941 -0.0015456075 -0.00510378
 endloop
endfacet
facet normal 0 -1.242175e-07 -1
 outer loop
  vertex 0.0017026941 -0.0015456075 -0.00510378
  vertex -0.0016973059 -0.0052943653 -0.0051037795
  vertex -0.0016973059 -0.0015456075 -0.00510378
 endloop
endfacet
facet normal 0 -0 -1
 outer loop
  vertex 0.0017026941 -0.0015456075 -0.00510378
  vertex -0.0016973059 -0.0015456075 -0.00510378
  vertex 0.0017026941 0.00220315 -0.00510378
 endloop
endfacet
facet normal 0 0 -1
 outer loop
  vertex 0.0017026941 0.00220315 -0.00510378
  vertex -0.0016973059 -0.0015456075 -0.00510378
  vertex -0.0016973059 0.00220315 -0.00510378
 endloop
endfacet
facet normal 0 -1.2421746e-07 -1
 outer loop
  vertex 0.0017026941 0.00220315 -0.00510378
  vertex -0.0016973059 0.00220315 -0.00510378
  vertex 0.0017026941 0.0059519084 -0.0051037804
 endloop
endfacet
facet normal 0 -1.2421746e-07 -1
 outer loop
  vertex 0.0017026941 0.0059519084 -0.0051037804
  vertex -0.0016973059 0.00220315 -0.00510378
  vertex -0.0016973059 0.0059519084 -0.0051037804
 endloop
endfacet
facet normal 0 -1.2421746e-07 -1
 outer loop
  vertex -0.0016973059 0.0059519084 -0.0051037804
  vertex -0.0016973059 0.00220315 -0.00510378
  vertex -0.005097306 0.00220315 -0.00510378
 endloop
endfacet
facet normal 0 -1.2421746e-07 -1
 outer loop
  vertex -0.0016973059 0.0059519084 -0.0051037804
  vertex -0.005097306 0.00220315 -0.00510378
  vertex -0.005097306 0.0059519084 -0.0051037804
 endloop
endfacet
facet normal 0 -1.242175e-07 -1
 outer loop
  vertex -0.0016973059 -0.0052943653 -0.0051037795
  vertex -0.005097306 -0.0052943653 -0.0051037795
  vertex -0.0016973059 -0.0015456075 -0.00510378
 endloop
endfacet
facet normal 0 -1.242175e-07 -1
 outer loop
  vertex -0.0016973059 -0.0015456075 -0.00510378
  vertex -0.005097306 -0.0052943653 -0.0051037795
  vertex -0.005097306 -0.0015456075 -0.00510378
 endloop
endfacet
facet normal 0 -0 -1
 outer loop
  vertex -0.0016973059 -0.0015456075 -0.00510378
  vertex -0.005097306 -0.0015456075 -0.00510378
  vertex -0.0016973059 0.00220315 -0.00510378
 endloop
endfacet
facet normal 0 0 -1
 outer loop
  vertex -0.0016973059 0.00220315 -0.00510378
  vertex -0.005097306 -0.0015456075 -0.00510378
  vertex -0.005097306 0.00220315 -0.00510378
 endloop
endfacet
facet normal -1 0 0
 outer loop
  vertex -0.005097306 0.005951909 -0.00170378
  vertex -0.005097306 0.0059519084 -0.0051037804
  vertex -0.005097306 0.00220315 -0.0017037799
 endloop
endfacet
facet normal -1 0 0
 outer loop
  vertex -0.005097306 0.00220315 -0.0017037799
  vertex -0.005097306 0.0059519084 -0.0051037804
  vertex -0.005097306 0.00220315 -0.00510378
 endloop
endfacet
facet normal -1 0 0
 outer loop
  vertex -0.005097306 0.00220315 -0.0017037799
  vertex -0.005097306 0.00220315 -0.00510378
  vertex -0.005097306 -0.0015456072 -0.0017037796
 endloop
endfacet
facet normal -1 0 0
 outer loop
  vertex -0.005097306 -0.0015456072 -0.0017037796
  vertex -0.005097306 0.00220315 -0.00510378
  vertex -0.005097306 -0.0015456075 -0.00510378
 endloop
endfacet
facet normal -1 0 0
 outer loop
  vertex -0.005097306 -0.0015456072 -0.0017037796
  vertex -0.005097306 -0.0015456075 -0.00510378
  vertex -0.005097306 -0.005294365 -0.0017037793
 endloop
endfacet
facet normal -1 0 0
 outer loop
  vertex -0.005097306 -0.005294365 -0.0017037793
  vertex -0.005097306 -0.0015456075 -0.00510378
  vertex -0.005097306 -0.0052943653 -0.0051037795
 endloop
endfacet
facet normal -1 -0 -0
 outer loop
  vertex -0.005097306 -0.005294365 -0.0017037793
  vertex -0.005097306 -0.005294365 0.0016962205
  vertex -0.005097306 -0.0015456072 -0.0017037796
 endloop
endfacet
facet normal -1 -0 -0
 outer loop
  vertex -0.005097306 -0.0015456072 -0.0017037796
  vertex -0.005097306 -0.005294365 0.0016962205
  vertex -0.005097306 -0.001545607 0.0016962204
 endloop
endfacet
facet normal -1 -0 0
 outer loop
  vertex -0.005097306 -0.0015456072 -0.0017037796
  vertex -0.005097306 -0.001545607 0.0016962204
  vertex -0.005097306 0.00220315 -0.0017037799
 endloop
endfacet
facet normal -1 -0 -0
 outer loop
  vertex -0.005097306 0.00220315 -0.0017037799
  vertex -0.005097306 -0.001545607 0.0016962204
  vertex -0.005097306 0.0022031504 0.00169622
 endloop
endfacet
facet normal -1 -0 0
 outer loop
  vertex -0.005097306 0.00220315 -0.0017037799
  vertex -0.005097306 0.0022031504 0.00169622
  vertex -0.005097306 0.005951909 -0.00170378
 endloop
endfacet
facet normal -1 -0 -0
 outer loop
  vertex -0.005097306 0.005951909 -0.00170378
  vertex -0.005097306 0.0022031504 0.00169622
  vertex -0.005097306 0.005951909 0.0016962198
 endloop
endfacet
facet normal -1 0 -0
 outer loop
  vertex -0.005097306 0.005951909 0.0016962198
  vertex -0.005097306 0.0022031504 0.00169622
  vertex -0.005097306 0.0022031507 0.00509622
 endloop
endfacet
facet normal -1 -0 -0
 outer loop
  vertex -0.005097306 0.005951909 0.0016962198
  vertex -0.005097306 0.0022031507 0.00509622
  vertex -0.005097306 0.0059519093 0.0050962195
 endloop
endfacet
facet normal -1 -0 0
 outer loop
  vertex -0.005097306 -0.005294365 0.0016962205
  vertex -0.005097306 -0.0052943644 0.0050962204
  vertex -0.005097306 -0.001545607 0.0016962204
 endloop
endfacet
facet normal -1 -0 -0
 outer loop
  vertex -0.005097306 -0.001545607 0.0016962204
  vertex -0.005097306 -0.0052943644 0.0050962204
  vertex -0.005097306 -0.0015456068 0.00509622
 endloop
endfacet
facet normal -1 -0 0
 outer loop
  vertex -0.005097306 -0.001545607 0.0016962204
  vertex -0.005097306 -0.0015456068 0.00509622
  vertex -0.005097306 0.0022031504 0.00169622
 endloop
endfacet
facet normal -1 -0 -0
 outer loop
  vertex -0.005097306 0.0022031504 0.00169622
  vertex -0.005097306 -0.0015456068 0.00509622
  vertex -0.005097306 0.0022031507 0.00509622
 endloop
endfacet
facet normal 0 -1 1.3695922e-07
 outer loop
  vertex -0.0016973059 -0.0052943644 0.0050962204
  vertex -0.005097306 -0.0052943644 0.0050962204
  vertex -0.0016973059 -0.005294365 0.0016962205
 endloop
endfacet
facet normal 0 -1 1.3695922e-07
 outer loop
  vertex -0.0016973059 -0.005294365 0.0016962205
  vertex -0.005097306 -0.0052943644 0.0050962204
  vertex -0.005097306 -0.005294365 0.0016962205
 endloop
endfacet
facet normal 0 -1 0
 outer loop
  vertex -0.0016973059 -0.005294365 0.0016962205
  vertex -0.005097306 -0.005294365 0.0016962205
  vertex -0.0016973059 -0.005294365 -0.0017037793
 endloop
endfacet
facet normal 0 -1 0
 outer loop
  vertex -0.0016973059 -0.005294365 -0.0017037793
  vertex -0.005097306 -0.005294365 0.0016962205
  vertex -0.005097306 -0.005294365 -0.0017037793
 endloop
endfacet
facet normal 0 -1 1.3695919e-07
 outer loop
  vertex -0.0016973059 -0.005294365 -0.0017037793
  vertex -0.005097306 -0.005294365 -0.0017037793
  vertex -0.0016973059 -0.0052943653 -0.0051037795
 endloop
endfacet
facet normal 0 -1 1.3695919e-07
 outer loop
  vertex -0.0016973059 -0.0052943653 -0.0051037795
  vertex -0.005097306 -0.005294365 -0.0017037793
  vertex -0.005097306 -0.0052943653 -0.0051037795
 endloop
endfacet
facet normal 0 -1 1.3695919e-07
 outer loop
  vertex -0.0016973059 -0.0052943653 -0.0051037795
  vertex 0.0017026941 -0.0052943653 -0.0051037795
  vertex -0.0016973059 -0.005294365 -0.0017037793
 endloop
endfacet
facet normal 0 -1 1.3695919e-07
 outer loop
  vertex -0.0016973059 -0.005294365 -0.0017037793
  vertex 0.0017026941 -0.0052943653 -0.0051037795
  vertex 0.0017026941 -0.005294365 -0.0017037793
 endloop
endfacet
facet normal -0 -1 -0
 outer loop
  vertex -0.0016973059 -0.005294365 -0.0017037793
  vertex 0.0017026941 -0.005294365 -0.0017037793
  vertex -0.0016973059 -0.005294365 0.0016962205
 endloop
endfacet
facet normal -0 -1 -0
 outer loop
  vertex -0.0016973059 -0.005294365 0.0016962205
  vertex 0.0017026941 -0.005294365 -0.0017037793
  vertex 0.0017026941 -0.005294365 0.0016962205
 endloop
endfacet
facet normal 0 -1 1.3695922e-07
 outer loop
  vertex -0.0016973059 -0.005294365 0.0016962205
  vertex 0.0017026941 -0.005294365 0.0016962205
  vertex -0.0016973059 -0.0052943644 0.0050962204
 endloop
endfacet
facet normal 0 -1 1.3695922e-07
 outer loop
  vertex -0.0016973059 -0.0052943644 0.0050962204
  vertex 0.0017026941 -0.005294365 0.0016962205
  vertex 0.0017026941 -0.0052943644 0.0050962204
 endloop
endfacet
facet normal 0 -1 1.369592e-07
 outer loop
  vertex 0.0017026941 -0.0052943644 0.0050962204
  vertex 0.0017026941 -0.005294365 0.0016962205
  vertex 0.0051026945 -0.005294365 0.0016962205
 endloop
endfacet
facet normal 0 -1 1.369592e-07
 outer loop
  vertex 0.0017026941 -0.0052943644 0.0050962204
  vertex 0.0051026945 -0.005294365 0.0016962205
  vertex 0.0051026945 -0.0052943644 0.0050962204
 endloop
endfacet
facet normal 0 -1 1.369592e-07
 outer loop
  vertex 0.0017026941 -0.0052943653 -0.0051037795
  vertex 0.0051026945 -0.0052943653 -0.0051037795
  vertex 0.0017026941 -0.005294365 -0.0017037793
 endloop
endfacet
facet normal 0 -1 1.369592e-07
 outer loop
  vertex 0.0017026941 -0.005294365 -0.0017037793
  vertex 0.0051026945 -0.0052943653 -0.0051037795
  vertex 0.0051026945 -0.005294365 -0.0017037793
 endloop
endfacet
facet normal -0 -1 -0
 outer loop
  vertex 0.0017026941 -0.005294365 -0.0017037793
  vertex 0.0051026945 -0.005294365 -0.0017037793
  vertex 0.0017026941 -0.005294365 0.0016962205
 endloop
endfacet
facet normal -0 -1 -0
 outer loop
  vertex 0.0017026941 -0.005294365 0.0016962205
  vertex 0.0051026945 -0.005294365 -0.0017037793
  vertex 0.0051026945 -0.005294365 0.0016962205
 endloop
endfacet
facet normal 0 -1.3969837e-07 -1
 outer loop
  vertex 0.0016644803 -0.0008610311 0.0050030677
  vertex 0.0049978136 -0.004194365 0.005003068
  vertex 0.0016644803 -0.004194365 0.005003068
 endloop
endfacet
facet normal 0 1 -0
 outer loop
  vertex 0.0016644803 -0.004194365 0.005003068
  vertex 0.0049978136 -0.004194365 0.005003068
  vertex 0.0024978132 -0.004194365 0.002503068
 endloop
endfacet
facet normal 1.3969836e-07 1 -1.3969837e-07
 outer loop
  vertex 0.0024978132 -0.004194365 0.002503068
  vertex 0.0049978136 -0.004194365 0.005003068
  vertex 0.0049978136 -0.0041943653 0.0016697347
 endloop
endfacet
facet normal -1 0 -0
 outer loop
  vertex 0.0049978136 -0.0008610311 0.0050030677
  vertex 0.0049978136 -0.0041943653 0.0016697347
  vertex 0.0049978136 -0.004194365 0.005003068
 endloop
endfacet
facet normal 0 -1.3969837e-07 -1
 outer loop
  vertex 0.0049978136 -0.0008610311 0.0050030677
  vertex 0.0049978136 -0.004194365 0.005003068
  vertex 0.0016644803 -0.0008610311 0.0050030677
 endloop
endfacet
facet normal 0 0 -1
 outer loop
  vertex 0.0016644803 0.0024723015 0.0050030677
  vertex 0.0016644803 -0.0008610311 0.0050030677
  vertex -0.0016688531 0.0024723015 0.0050030677
 endloop
endfacet
facet normal 0 0 -1
 outer loop
  vertex 0.0016644803 0.0024723015 0.0050030677
  vertex 0.0049978136 -0.0008610311 0.0050030677
  vertex 0.0016644803 -0.0008610311 0.0050030677
 endloop
endfacet
facet normal 0 0 -1
 outer loop
  vertex -0.0016688531 0.0024723015 0.0050030677
  vertex 0.0016644803 -0.0008610311 0.0050030677
  vertex -0.0016688531 -0.0008610311 0.0050030677
 endloop
endfacet
facet normal 0 -1.3969837e-07 -1
 outer loop
  vertex 0.0016644803 -0.0008610311 0.0050030677
  vertex 0.0016644803 -0.004194365 0.005003068
  vertex -0.0016688531 -0.0008610311 0.0050030677
 endloop
endfacet
facet normal 0 0 -1
 outer loop
  vertex -0.0050021866 0.0024723015 0.0050030677
  vertex -0.0016688531 -0.0008610311 0.0050030677
  vertex -0.0050021866 -0.0008610311 0.0050030677
 endloop
endfacet
facet normal 0 0 -1
 outer loop
  vertex -0.0050021866 0.0024723015 0.0050030677
  vertex -0.0016688531 0.0024723015 0.0050030677
  vertex -0.0016688531 -0.0008610311 0.0050030677
 endloop
endfacet
facet normal -0 -1.3969837e-07 -1
 outer loop
  vertex -0.0050021866 -0.0008610311 0.0050030677
  vertex -0.0016688531 -0.0008610311 0.0050030677
  vertex -0.0016688531 -0.004194365 0.005003068
 endloop
endfacet
facet normal 0 -1.3969837e-07 -1
 outer loop
  vertex -0.0016688531 -0.0008610311 0.0050030677
  vertex 0.0016644803 -0.004194365 0.005003068
  vertex -0.0016688531 -0.004194365 0.005003068
 endloop
endfacet
facet normal 0 1 0
 outer loop
  vertex -0.0025021867 -0.004194365 0.002503068
  vertex -0.0016688531 -0.004194365 0.005003068
  vertex -2.1864344e-06 -0.004194365 0.002503068
 endloop
endfacet
facet normal 0 1 0
 outer loop
  vertex -0.0025021867 -0.004194365 0.002503068
  vertex -0.0050021866 -0.004194365 0.005003068
  vertex -0.0016688531 -0.004194365 0.005003068
 endloop
endfacet
facet normal 0 -1.3969837e-07 -1
 outer loop
  vertex -0.0050021866 -0.0008610311 0.0050030677
  vertex -0.0016688531 -0.004194365 0.005003068
  vertex -0.0050021866 -0.004194365 0.005003068
 endloop
endfacet
facet normal 0 1 0
 outer loop
  vertex -2.1864344e-06 -0.004194365 0.002503068
  vertex -0.0016688531 -0.004194365 0.005003068
  vertex 0.0016644803 -0.004194365 0.005003068
 endloop
endfacet
facet normal -0 -0 -1
 outer loop
  vertex -2.1864344e-06 -0.0051943646 0.002503068
  vertex -0.0025021867 -0.004194365 0.002503068
  vertex -2.1864344e-06 -0.004194365 0.002503068
 endloop
endfacet
facet normal 0 1 0
 outer loop
  vertex -2.1864344e-06 -0.004194365 0.002503068
  vertex 0.0016644803 -0.004194365 0.005003068
  vertex 0.0024978132 -0.004194365 0.002503068
 endloop
endfacet
facet normal -0 -0 -1
 outer loop
  vertex 0.0024978132 -0.0051943646 0.002503068
  vertex -2.1864344e-06 -0.004194365 0.002503068
  vertex 0.0024978132 -0.004194365 0.002503068
 endloop
endfacet
facet normal -0 -0 -1
 outer loop
  vertex -2.1864344e-06 -0.0051943646 0.002503068
  vertex -2.1864344e-06 -0.004194365 0.002503068
  vertex 0.0024978132 -0.0051943646 0.002503068
 endloop
endfacet
facet normal 0 1 -1.862645e-07
 outer loop
  vertex -2.1864344e-06 -0.0051943646 0.002503068
  vertex 0.0024978132 -0.0051943646 0.002503068
  vertex -2.1864344e-06 -0.005194365 3.0678261e-06
 endloop
endfacet
facet normal 0 1 -1.862645e-07
 outer loop
  vertex -2.1864344e-06 -0.005194365 3.0678261e-06
  vertex 0.0024978132 -0.0051943646 0.002503068
  vertex 0.0024978132 -0.005194365 3.0678261e-06
 endloop
endfacet
facet normal -1 0 0
 outer loop
  vertex 0.0024978132 -0.0051943646 0.002503068
  vertex 0.0024978132 -0.004194365 0.002503068
  vertex 0.0024978132 -0.005194365 3.0678261e-06
 endloop
endfacet
facet normal 0 1 -1.8626454e-07
 outer loop
  vertex -2.1864344e-06 -0.005194365 3.0678261e-06
  vertex 0.0024978132 -0.005194365 3.0678261e-06
  vertex -2.1864344e-06 -0.0051943655 -0.002496932
 endloop
endfacet
facet normal 0 1 -1.8626454e-07
 outer loop
  vertex -2.1864344e-06 -0.0051943655 -0.002496932
  vertex 0.0024978132 -0.005194365 3.0678261e-06
  vertex 0.0024978132 -0.0051943655 -0.002496932
 endloop
endfacet
facet normal -1 0 0
 outer loop
  vertex 0.0024978132 -0.005194365 3.0678261e-06
  vertex 0.0024978132 -0.0041943653 3.0677506e-06
  vertex 0.0024978132 -0.0051943655 -0.002496932
 endloop
endfacet
facet normal -1 -0 0
 outer loop
  vertex 0.0024978132 -0.005194365 3.0678261e-06
  vertex 0.0024978132 -0.004194365 0.002503068
  vertex 0.0024978132 -0.0041943653 3.0677506e-06
 endloop
endfacet
facet normal 1.2417634e-07 1 -1.8626451e-07
 outer loop
  vertex 0.0024978132 -0.004194365 0.002503068
  vertex 0.0049978136 -0.0041943653 0.0016697347
  vertex 0.0024978132 -0.0041943653 3.0677506e-06
 endloop
endfacet
facet normal 0 1 -0
 outer loop
  vertex 0.0024978132 -0.0041943653 3.0677506e-06
  vertex 0.0049978136 -0.0041943653 0.0016697347
  vertex 0.0049978136 -0.0041943653 -0.0016635985
 endloop
endfacet
facet normal 0 1 -0
 outer loop
  vertex 0.0024978132 -0.0041943653 3.0677506e-06
  vertex 0.0049978136 -0.0041943653 -0.0016635985
  vertex 0.0024978132 -0.0041943653 -0.002496932
 endloop
endfacet
facet normal -1 -0 0
 outer loop
  vertex 0.0024978132 -0.0051943655 -0.002496932
  vertex 0.0024978132 -0.0041943653 3.0677506e-06
  vertex 0.0024978132 -0.0041943653 -0.002496932
 endloop
endfacet
facet normal 0 1 -0
 outer loop
  vertex 0.0024978132 -0.0041943653 -0.002496932
  vertex 0.0049978136 -0.0041943653 -0.0016635985
  vertex 0.0049978136 -0.0041943653 -0.0049969316
 endloop
endfacet
facet normal 0 1 -0
 outer loop
  vertex 0.0024978132 -0.0041943653 -0.002496932
  vertex 0.0049978136 -0.0041943653 -0.0049969316
  vertex 0.0016644803 -0.0041943653 -0.0049969316
 endloop
endfacet
facet normal -0 1 0
 outer loop
  vertex 0.0024978132 -0.0041943653 -0.002496932
  vertex 0.0016644803 -0.0041943653 -0.0049969316
  vertex -2.1864344e-06 -0.0041943653 -0.002496932
 endloop
endfacet
facet normal -0 0 1
 outer loop
  vertex -2.1864344e-06 -0.0051943655 -0.002496932
  vertex 0.0024978132 -0.0041943653 -0.002496932
  vertex -2.1864344e-06 -0.0041943653 -0.002496932
 endloop
endfacet
facet normal -0 0 1
 outer loop
  vertex 0.0024978132 -0.0051943655 -0.002496932
  vertex 0.0024978132 -0.0041943653 -0.002496932
  vertex -2.1864344e-06 -0.0051943655 -0.002496932
 endloop
endfacet
facet normal 0 1 -0
 outer loop
  vertex -2.1864344e-06 -0.0041943653 -0.002496932
  vertex 0.0016644803 -0.0041943653 -0.0049969316
  vertex -0.0016688531 -0.0041943653 -0.0049969316
 endloop
endfacet
facet normal -0 1 0
 outer loop
  vertex -2.1864344e-06 -0.0041943653 -0.002496932
  vertex -0.0016688531 -0.0041943653 -0.0049969316
  vertex -0.0025021867 -0.0041943653 -0.002496932
 endloop
endfacet
facet normal -0 0 1
 outer loop
  vertex -0.0025021867 -0.0051943655 -0.002496932
  vertex -2.1864344e-06 -0.0041943653 -0.002496932
  vertex -0.0025021867 -0.0041943653 -0.002496932
 endloop
endfacet
facet normal -0 0 1
 outer loop
  vertex -2.1864344e-06 -0.0051943655 -0.002496932
  vertex -2.1864344e-06 -0.0041943653 -0.002496932
  vertex -0.0025021867 -0.0051943655 -0.002496932
 endloop
endfacet
facet normal 0 1 -1.8626453e-07
 outer loop
  vertex -2.1864344e-06 -0.0051943655 -0.002496932
  vertex -0.0025021867 -0.0051943655 -0.002496932
  vertex -2.1864344e-06 -0.005194365 3.0678261e-06
 endloop
endfacet
facet normal 0 1 -1.8626453e-07
 outer loop
  vertex -2.1864344e-06 -0.005194365 3.0678261e-06
  vertex -0.0025021867 -0.0051943655 -0.002496932
  vertex -0.0025021867 -0.005194365 3.0678261e-06
 endloop
endfacet
facet normal 1 0 0
 outer loop
  vertex -0.0025021867 -0.0051943655 -0.002496932
  vertex -0.0025021867 -0.0041943653 -0.002496932
  vertex -0.0025021867 -0.005194365 3.0678261e-06
 endloop
endfacet
facet normal 0 1 -1.862645e-07
 outer loop
  vertex -2.1864344e-06 -0.005194365 3.0678261e-06
  vertex -0.0025021867 -0.005194365 3.0678261e-06
  vertex -2.1864344e-06 -0.0051943646 0.002503068
 endloop
endfacet
facet normal 0 1 -1.862645e-07
 outer loop
  vertex -2.1864344e-06 -0.0051943646 0.002503068
  vertex -0.0025021867 -0.005194365 3.0678261e-06
  vertex -0.0025021867 -0.0051943646 0.002503068
 endloop
endfacet
facet normal 1 0 0
 outer loop
  vertex -0.0025021867 -0.005194365 3.0678261e-06
  vertex -0.0025021867 -0.0041943653 3.0677506e-06
  vertex -0.0025021867 -0.0051943646 0.002503068
 endloop
endfacet
facet normal 1 0 0
 outer loop
  vertex -0.0025021867 -0.005194365 3.0678261e-06
  vertex -0.0025021867 -0.0041943653 -0.002496932
  vertex -0.0025021867 -0.0041943653 3.0677506e-06
 endloop
endfacet
facet normal 0 1 0
 outer loop
  vertex -0.0025021867 -0.0041943653 -0.002496932
  vertex -0.0050021866 -0.0041943653 -0.0016635985
  vertex -0.0025021867 -0.0041943653 3.0677506e-06
 endloop
endfacet
facet normal -0 1 0
 outer loop
  vertex -0.0025021867 -0.0041943653 3.0677506e-06
  vertex -0.0050021866 -0.0041943653 -0.0016635985
  vertex -0.0050021866 -0.0041943653 0.0016697347
 endloop
endfacet
facet normal -1.2417635e-07 1 -1.862645e-07
 outer loop
  vertex -0.0025021867 -0.0041943653 3.0677506e-06
  vertex -0.0050021866 -0.0041943653 0.0016697347
  vertex -0.0025021867 -0.004194365 0.002503068
 endloop
endfacet
facet normal 1 0 0
 outer loop
  vertex -0.0025021867 -0.0051943646 0.002503068
  vertex -0.0025021867 -0.0041943653 3.0677506e-06
  vertex -0.0025021867 -0.004194365 0.002503068
 endloop
endfacet
facet normal 1 -0 0
 outer loop
  vertex -0.0050021866 -0.0008610316 -0.0016635988
  vertex -0.0050021866 -0.0041943653 0.0016697347
  vertex -0.0050021866 -0.0041943653 -0.0016635985
 endloop
endfacet
facet normal -1.396984e-07 1 -1.3969839e-07
 outer loop
  vertex -0.0025021867 -0.004194365 0.002503068
  vertex -0.0050021866 -0.0041943653 0.0016697347
  vertex -0.0050021866 -0.004194365 0.005003068
 endloop
endfacet
facet normal 1 -0 0
 outer loop
  vertex -0.0050021866 -0.0008610314 0.0016697343
  vertex -0.0050021866 -0.004194365 0.005003068
  vertex -0.0050021866 -0.0041943653 0.0016697347
 endloop
endfacet
facet normal 1 -0 -0
 outer loop
  vertex -0.0050021866 -0.0008610314 0.0016697343
  vertex -0.0050021866 -0.0041943653 0.0016697347
  vertex -0.0050021866 -0.0008610316 -0.0016635988
 endloop
endfacet
facet normal 1 -0 0
 outer loop
  vertex -0.0050021866 0.0024723008 -0.004996932
  vertex -0.0050021866 -0.0008610316 -0.0016635988
  vertex -0.0050021866 -0.0008610319 -0.004996932
 endloop
endfacet
facet normal 1 0 0
 outer loop
  vertex -0.0050021866 0.0024723008 -0.004996932
  vertex -0.0050021866 0.002472301 -0.001663599
  vertex -0.0050021866 -0.0008610316 -0.0016635988
 endloop
endfacet
facet normal 1 -0 0
 outer loop
  vertex -0.0050021866 0.002472301 -0.001663599
  vertex -0.0050021866 -0.0008610314 0.0016697343
  vertex -0.0050021866 -0.0008610316 -0.0016635988
 endloop
endfacet
facet normal 1 0 0
 outer loop
  vertex -0.0050021866 -0.0008610319 -0.004996932
  vertex -0.0050021866 -0.0008610316 -0.0016635988
  vertex -0.0050021866 -0.0041943653 -0.0016635985
 endloop
endfacet
facet normal 0 -0 1
 outer loop
  vertex -0.0050021866 0.0024723008 -0.004996932
  vertex -0.0050021866 -0.0008610319 -0.004996932
  vertex -0.0016688531 0.0024723008 -0.004996932
 endloop
endfacet
facet normal 0 -0 1
 outer loop
  vertex -0.0016688531 0.0024723008 -0.004996932
  vertex -0.0050021866 -0.0008610319 -0.004996932
  vertex -0.0016688531 -0.0008610319 -0.004996932
 endloop
endfacet
facet normal 0 1.3969839e-07 1
 outer loop
  vertex -0.0050021866 -0.0008610319 -0.004996932
  vertex -0.0050021866 -0.0041943653 -0.0049969316
  vertex -0.0016688531 -0.0008610319 -0.004996932
 endloop
endfacet
facet normal 1 -0 0
 outer loop
  vertex -0.0050021866 -0.0008610319 -0.004996932
  vertex -0.0050021866 -0.0041943653 -0.0016635985
  vertex -0.0050021866 -0.0041943653 -0.0049969316
 endloop
endfacet
facet normal -0 1 0
 outer loop
  vertex -0.0025021867 -0.0041943653 -0.002496932
  vertex -0.0050021866 -0.0041943653 -0.0049969316
  vertex -0.0050021866 -0.0041943653 -0.0016635985
 endloop
endfacet
facet normal 0 1 -0
 outer loop
  vertex -0.0025021867 -0.0041943653 -0.002496932
  vertex -0.0016688531 -0.0041943653 -0.0049969316
  vertex -0.0050021866 -0.0041943653 -0.0049969316
 endloop
endfacet
facet normal 0 1.3969839e-07 1
 outer loop
  vertex -0.0016688531 -0.0008610319 -0.004996932
  vertex -0.0050021866 -0.0041943653 -0.0049969316
  vertex -0.0016688531 -0.0041943653 -0.0049969316
 endloop
endfacet
facet normal 0 -0 1
 outer loop
  vertex -0.0016688531 0.0024723008 -0.004996932
  vertex -0.0016688531 -0.0008610319 -0.004996932
  vertex 0.0016644803 0.0024723008 -0.004996932
 endloop
endfacet
facet normal 0 -0 1
 outer loop
  vertex 0.0016644803 0.0024723008 -0.004996932
  vertex -0.0016688531 -0.0008610319 -0.004996932
  vertex 0.0016644803 -0.0008610319 -0.004996932
 endloop
endfacet
facet normal 0 1.3969839e-07 1
 outer loop
  vertex -0.0016688531 -0.0008610319 -0.004996932
  vertex -0.0016688531 -0.0041943653 -0.0049969316
  vertex 0.0016644803 -0.0008610319 -0.004996932
 endloop
endfacet
facet normal 0 -0 1
 outer loop
  vertex 0.0049978136 0.0024723008 -0.004996932
  vertex 0.0016644803 -0.0008610319 -0.004996932
  vertex 0.0049978136 -0.0008610319 -0.004996932
 endloop
endfacet
facet normal 0 0 1
 outer loop
  vertex 0.0049978136 0.0024723008 -0.004996932
  vertex 0.0016644803 0.0024723008 -0.004996932
  vertex 0.0016644803 -0.0008610319 -0.004996932
 endloop
endfacet
facet normal -0 1.3969839e-07 1
 outer loop
  vertex 0.0049978136 -0.0008610319 -0.004996932
  vertex 0.0016644803 -0.0008610319 -0.004996932
  vertex 0.0016644803 -0.0041943653 -0.0049969316
 endloop
endfacet
facet normal 0 1.3969839e-07 1
 outer loop
  vertex 0.0016644803 -0.0008610319 -0.004996932
  vertex -0.0016688531 -0.0041943653 -0.0049969316
  vertex 0.0016644803 -0.0041943653 -0.0049969316
 endloop
endfacet
facet normal -1 0 -0
 outer loop
  vertex 0.0049978136 0.0024723008 -0.004996932
  vertex 0.0049978136 -0.0008610319 -0.004996932
  vertex 0.0049978136 0.002472301 -0.001663599
 endloop
endfacet
facet normal 0 1.3969839e-07 1
 outer loop
  vertex 0.0049978136 -0.0008610319 -0.004996932
  vertex 0.0016644803 -0.0041943653 -0.0049969316
  vertex 0.0049978136 -0.0041943653 -0.0049969316
 endloop
endfacet
facet normal -1 0 -0
 outer loop
  vertex 0.0049978136 -0.0008610319 -0.004996932
  vertex 0.0049978136 -0.0041943653 -0.0049969316
  vertex 0.0049978136 -0.0008610316 -0.0016635988
 endloop
endfacet
facet normal -1 0 -0
 outer loop
  vertex 0.0049978136 0.002472301 -0.001663599
  vertex 0.0049978136 -0.0008610319 -0.004996932
  vertex 0.0049978136 -0.0008610316 -0.0016635988
 endloop
endfacet
facet normal -1 0 -0
 outer loop
  vertex 0.0049978136 0.002472301 -0.001663599
  vertex 0.0049978136 -0.0008610316 -0.0016635988
  vertex 0.0049978136 0.0024723012 0.0016697341
 endloop
endfacet
facet normal -1 0 -0
 outer loop
  vertex 0.0049978136 0.0024723012 0.0016697341
  vertex 0.0049978136 -0.0008610316 -0.0016635988
  vertex 0.0049978136 -0.0008610314 0.0016697343
 endloop
endfacet
facet normal -1 0 -0
 outer loop
  vertex 0.0049978136 -0.0008610316 -0.0016635988
  vertex 0.0049978136 -0.0041943653 -0.0016635985
  vertex 0.0049978136 -0.0008610314 0.0016697343
 endloop
endfacet
facet normal -1 0 0
 outer loop
  vertex 0.0049978136 -0.0008610316 -0.0016635988
  vertex 0.0049978136 -0.0041943653 -0.0049969316
  vertex 0.0049978136 -0.0041943653 -0.0016635985
 endloop
endfacet
facet normal -1 0 -0
 outer loop
  vertex 0.0049978136 0.0024723015 0.0050030677
  vertex 0.0049978136 -0.0008610314 0.0016697343
  vertex 0.0049978136 -0.0008610311 0.0050030677
 endloop
endfacet
facet normal -1 0 0
 outer loop
  vertex 0.0049978136 0.0024723015 0.0050030677
  vertex 0.0049978136 0.0024723012 0.0016697341
  vertex 0.0049978136 -0.0008610314 0.0016697343
 endloop
endfacet
facet normal -1 0 0
 outer loop
  vertex 0.0049978136 -0.0008610311 0.0050030677
  vertex 0.0049978136 -0.0008610314 0.0016697343
  vertex 0.0049978136 -0.0041943653 0.0016697347
 endloop
endfacet
facet normal -1 0 0
 outer loop
  vertex 0.0049978136 -0.0008610314 0.0016697343
  vertex 0.0049978136 -0.0041943653 -0.0016635985
  vertex 0.0049978136 -0.0041943653 0.0016697347
 endloop
endfacet
facet normal -1 0 -0
 outer loop
  vertex 0.0049978136 0.005805635 0.0050030677
  vertex 0.0049978136 0.0024723012 0.0016697341
  vertex 0.0049978136 0.0024723015 0.0050030677
 endloop
endfacet
facet normal 0 0 -1
 outer loop
  vertex 0.0049978136 0.005805635 0.0050030677
  vertex 0.0049978136 0.0024723015 0.0050030677
  vertex 0.0016644803 0.005805635 0.0050030677
 endloop
endfacet
facet normal 0 0 -1
 outer loop
  vertex 0.0016644803 0.005805635 0.0050030677
  vertex 0.0049978136 0.0024723015 0.0050030677
  vertex 0.0016644803 0.0024723015 0.0050030677
 endloop
endfacet
facet normal 0 0 -1
 outer loop
  vertex 0.0049978136 0.0024723015 0.0050030677
  vertex 0.0049978136 -0.0008610311 0.0050030677
  vertex 0.0016644803 0.0024723015 0.0050030677
 endloop
endfacet
facet normal 0 -1 0
 outer loop
  vertex 0.0016644803 0.005805635 0.0050030677
  vertex -0.0016688531 0.005805635 0.0050030677
  vertex 0.0016644803 0.005805635 0.0016697339
 endloop
endfacet
facet normal -0 -1 -0
 outer loop
  vertex 0.0016644803 0.005805635 0.0016697339
  vertex 0.0049978136 0.005805635 0.0016697339
  vertex 0.0016644803 0.005805635 0.0050030677
 endloop
endfacet
facet normal -0 -1 -0
 outer loop
  vertex 0.0016644803 0.005805635 0.0050030677
  vertex 0.0049978136 0.005805635 0.0016697339
  vertex 0.0049978136 0.005805635 0.0050030677
 endloop
endfacet
facet normal 0 0 -1
 outer loop
  vertex 0.0016644803 0.005805635 0.0050030677
  vertex 0.0016644803 0.0024723015 0.0050030677
  vertex -0.0016688531 0.005805635 0.0050030677
 endloop
endfacet
facet normal 0 -1 0
 outer loop
  vertex 0.0016644803 0.005805635 0.0016697339
  vertex -0.0016688531 0.005805635 0.0050030677
  vertex -0.0016688531 0.005805635 0.0016697339
 endloop
endfacet
facet normal 0 -1 0
 outer loop
  vertex -0.0016688531 0.005805635 0.0050030677
  vertex -0.0050021866 0.005805635 0.0050030677
  vertex -0.0016688531 0.005805635 0.0016697339
 endloop
endfacet
facet normal 0 0 -1
 outer loop
  vertex -0.0016688531 0.005805635 0.0050030677
  vertex -0.0016688531 0.0024723015 0.0050030677
  vertex -0.0050021866 0.005805635 0.0050030677
 endloop
endfacet
facet normal 0 0 -1
 outer loop
  vertex -0.0016688531 0.005805635 0.0050030677
  vertex 0.0016644803 0.0024723015 0.0050030677
  vertex -0.0016688531 0.0024723015 0.0050030677
 endloop
endfacet
facet normal 0 -1 0
 outer loop
  vertex -0.0016688531 0.005805635 0.0016697339
  vertex -0.0050021866 0.005805635 0.0050030677
  vertex -0.0050021866 0.005805635 0.0016697339
 endloop
endfacet
facet normal 1 0 -0
 outer loop
  vertex -0.0050021866 0.005805635 0.0050030677
  vertex -0.0050021866 0.0024723015 0.0050030677
  vertex -0.0050021866 0.005805635 0.0016697339
 endloop
endfacet
facet normal 0 0 -1
 outer loop
  vertex -0.0050021866 0.005805635 0.0050030677
  vertex -0.0016688531 0.0024723015 0.0050030677
  vertex -0.0050021866 0.0024723015 0.0050030677
 endloop
endfacet
facet normal 0 -1 0
 outer loop
  vertex -0.0016688531 0.005805635 0.0016697339
  vertex -0.0050021866 0.005805635 0.0016697339
  vertex -0.0016688531 0.005805635 -0.0016635993
 endloop
endfacet
facet normal 0 -1 0
 outer loop
  vertex -0.0016688531 0.005805635 -0.0016635993
  vertex -0.0050021866 0.005805635 0.0016697339
  vertex -0.0050021866 0.005805635 -0.0016635993
 endloop
endfacet
facet normal 1 -0 -0
 outer loop
  vertex -0.0050021866 0.005805635 0.0016697339
  vertex -0.0050021866 0.0024723012 0.0016697341
  vertex -0.0050021866 0.005805635 -0.0016635993
 endloop
endfacet
facet normal 1 -0 0
 outer loop
  vertex -0.0050021866 0.005805635 0.0016697339
  vertex -0.0050021866 0.0024723015 0.0050030677
  vertex -0.0050021866 0.0024723012 0.0016697341
 endloop
endfacet
facet normal 1 0 -0
 outer loop
  vertex -0.0050021866 0.0024723015 0.0050030677
  vertex -0.0050021866 -0.0008610311 0.0050030677
  vertex -0.0050021866 0.0024723012 0.0016697341
 endloop
endfacet
facet normal 1 -0 0
 outer loop
  vertex -0.0050021866 0.005805635 -0.0016635993
  vertex -0.0050021866 0.0024723012 0.0016697341
  vertex -0.0050021866 0.002472301 -0.001663599
 endloop
endfacet
facet normal 1 -0 -0
 outer loop
  vertex -0.0050021866 0.0024723012 0.0016697341
  vertex -0.0050021866 -0.0008610314 0.0016697343
  vertex -0.0050021866 0.002472301 -0.001663599
 endloop
endfacet
facet normal 1 -0 0
 outer loop
  vertex -0.0050021866 0.0024723012 0.0016697341
  vertex -0.0050021866 -0.0008610311 0.0050030677
  vertex -0.0050021866 -0.0008610314 0.0016697343
 endloop
endfacet
facet normal 0 -1 1.3969839e-07
 outer loop
  vertex -0.0016688531 0.0058056344 -0.0049969326
  vertex -0.0050021866 0.005805635 -0.0016635993
  vertex -0.0050021866 0.0058056344 -0.0049969326
 endloop
endfacet
facet normal 0 -1 1.3969839e-07
 outer loop
  vertex -0.0016688531 0.0058056344 -0.0049969326
  vertex -0.0016688531 0.005805635 -0.0016635993
  vertex -0.0050021866 0.005805635 -0.0016635993
 endloop
endfacet
facet normal 1 -0 -0
 outer loop
  vertex -0.0050021866 0.005805635 -0.0016635993
  vertex -0.0050021866 0.002472301 -0.001663599
  vertex -0.0050021866 0.0058056344 -0.0049969326
 endloop
endfacet
facet normal 0 1.3969837e-07 1
 outer loop
  vertex -0.0050021866 0.0058056344 -0.0049969326
  vertex -0.0050021866 0.0024723008 -0.004996932
  vertex -0.0016688531 0.0058056344 -0.0049969326
 endloop
endfacet
facet normal 1 -0 0
 outer loop
  vertex -0.0050021866 0.0058056344 -0.0049969326
  vertex -0.0050021866 0.002472301 -0.001663599
  vertex -0.0050021866 0.0024723008 -0.004996932
 endloop
endfacet
facet normal 0 1.3969837e-07 1
 outer loop
  vertex -0.0016688531 0.0058056344 -0.0049969326
  vertex -0.0016688531 0.0024723008 -0.004996932
  vertex 0.0016644803 0.0058056344 -0.0049969326
 endloop
endfacet
facet normal 0 -1 1.3969839e-07
 outer loop
  vertex 0.0016644803 0.0058056344 -0.0049969326
  vertex -0.0016688531 0.005805635 -0.0016635993
  vertex -0.0016688531 0.0058056344 -0.0049969326
 endloop
endfacet
facet normal 0 1.3969837e-07 1
 outer loop
  vertex -0.0016688531 0.0058056344 -0.0049969326
  vertex -0.0050021866 0.0024723008 -0.004996932
  vertex -0.0016688531 0.0024723008 -0.004996932
 endloop
endfacet
facet normal 0 -1 1.3969839e-07
 outer loop
  vertex 0.0016644803 0.005805635 -0.0016635993
  vertex -0.0016688531 0.005805635 -0.0016635993
  vertex 0.0016644803 0.0058056344 -0.0049969326
 endloop
endfacet
facet normal 0 -1 1.3969839e-07
 outer loop
  vertex 0.0016644803 0.0058056344 -0.0049969326
  vertex 0.0049978136 0.0058056344 -0.0049969326
  vertex 0.0016644803 0.005805635 -0.0016635993
 endloop
endfacet
facet normal 0 1.3969837e-07 1
 outer loop
  vertex 0.0016644803 0.0058056344 -0.0049969326
  vertex 0.0016644803 0.0024723008 -0.004996932
  vertex 0.0049978136 0.0058056344 -0.0049969326
 endloop
endfacet
facet normal 0 1.3969837e-07 1
 outer loop
  vertex 0.0016644803 0.0058056344 -0.0049969326
  vertex -0.0016688531 0.0024723008 -0.004996932
  vertex 0.0016644803 0.0024723008 -0.004996932
 endloop
endfacet
facet normal 0 -1 1.3969839e-07
 outer loop
  vertex 0.0016644803 0.005805635 -0.0016635993
  vertex 0.0049978136 0.0058056344 -0.0049969326
  vertex 0.0049978136 0.005805635 -0.0016635993
 endloop
endfacet
facet normal -1 0 -0
 outer loop
  vertex 0.0049978136 0.0058056344 -0.0049969326
  vertex 0.0049978136 0.0024723008 -0.004996932
  vertex 0.0049978136 0.005805635 -0.0016635993
 endloop
endfacet
facet normal 0 1.3969837e-07 1
 outer loop
  vertex 0.0049978136 0.0058056344 -0.0049969326
  vertex 0.0016644803 0.0024723008 -0.004996932
  vertex 0.0049978136 0.0024723008 -0.004996932
 endloop
endfacet
facet normal -0 -1 -0
 outer loop
  vertex 0.0016644803 0.005805635 -0.0016635993
  vertex 0.0049978136 0.005805635 -0.0016635993
  vertex 0.0016644803 0.005805635 0.0016697339
 endloop
endfacet
facet normal -0 -1 -0
 outer loop
  vertex 0.0016644803 0.005805635 0.0016697339
  vertex 0.0049978136 0.005805635 -0.0016635993
  vertex 0.0049978136 0.005805635 0.0016697339
 endloop
endfacet
facet normal -1 0 -0
 outer loop
  vertex 0.0049978136 0.005805635 -0.0016635993
  vertex 0.0049978136 0.002472301 -0.001663599
  vertex 0.0049978136 0.005805635 0.0016697339
 endloop
endfacet
facet normal -1 0 -0
 outer loop
  vertex 0.0049978136 0.005805635 -0.0016635993
  vertex 0.0049978136 0.0024723008 -0.004996932
  vertex 0.0049978136 0.002472301 -0.001663599
 endloop
endfacet
facet normal 0 -1 0
 outer loop
  vertex 0.0016644803 0.005805635 0.0016697339
  vertex -0.0016688531 0.005805635 0.0016697339
  vertex 0.0016644803 0.005805635 -0.0016635993
 endloop
endfacet
facet normal 0 -1 0
 outer loop
  vertex 0.0016644803 0.005805635 -0.0016635993
  vertex -0.0016688531 0.005805635 0.0016697339
  vertex -0.0016688531 0.005805635 -0.0016635993
 endloop
endfacet
facet normal -1 0 -0
 outer loop
  vertex 0.0049978136 0.005805635 0.0016697339
  vertex 0.0049978136 0.0024723012 0.0016697341
  vertex 0.0049978136 0.005805635 0.0050030677
 endloop
endfacet
facet normal -1 0 -0
 outer loop
  vertex 0.0049978136 0.005805635 0.0016697339
  vertex 0.0049978136 0.002472301 -0.001663599
  vertex 0.0049978136 0.0024723012 0.0016697341
 endloop
endfacet
facet normal 1 -0 -0
 outer loop
  vertex -0.0050021866 -0.0008610311 0.0050030677
  vertex -0.0050021866 -0.004194365 0.005003068
  vertex -0.0050021866 -0.0008610314 0.0016697343
 endloop
endfacet
facet normal -0 -0 -1
 outer loop
  vertex -0.0025021867 -0.0051943646 0.002503068
  vertex -0.0025021867 -0.004194365 0.002503068
  vertex -2.1864344e-06 -0.0051943646 0.002503068
 endloop
endfacet
endsolid 
