solid 
facet normal 1 -0 0
 outer loop
  vertex 0.0024978134 -0.005194365 3.0676938e-06
  vertex 0.0024978134 -0.0041943644 0.002503068
  vertex 0.0024978134 -0.0051943646 0.002503068
 endloop
endfacet
facet normal 0 -0 1
 outer loop
  vertex 0.0024978134 -0.0041943644 0.002503068
  vertex -2.1862338e-06 -0.0041943644 0.002503068
  vertex 0.0024978134 -0.0051943646 0.002503068
 endloop
endfacet
facet normal 0 1 -1.8626449e-07
 outer loop
  vertex -2.1862338e-06 -0.0041943644 0.002503068
  vertex 0.0024978134 -0.0041943644 0.002503068
  vertex -2.1862338e-06 -0.004194365 3.0676183e-06
 endloop
endfacet
facet normal 1 0 0
 outer loop
  vertex 0.0024978134 -0.005194365 3.0676938e-06
  vertex 0.0024978134 -0.004194365 3.0676183e-06
  vertex 0.0024978134 -0.0041943644 0.002503068
 endloop
endfacet
facet normal 0 1 -1.8626449e-07
 outer loop
  vertex -2.1862338e-06 -0.004194365 3.0676183e-06
  vertex 0.0024978134 -0.0041943644 0.002503068
  vertex 0.0024978134 -0.004194365 3.0676183e-06
 endloop
endfacet
facet normal 0 1 -1.8626456e-07
 outer loop
  vertex -2.1862338e-06 -0.004194365 3.0676183e-06
  vertex 0.0024978134 -0.004194365 3.0676183e-06
  vertex -2.1862338e-06 -0.0041943653 -0.002496932
 endloop
endfacet
facet normal 0 1 -1.8626456e-07
 outer loop
  vertex -2.1862338e-06 -0.0041943653 -0.002496932
  vertex -0.0025021865 -0.0041943653 -0.002496932
  vertex -2.1862338e-06 -0.004194365 3.0676183e-06
 endloop
endfacet
facet normal 0 1 -1.8626456e-07
 outer loop
  vertex -2.1862338e-06 -0.004194365 3.0676183e-06
  vertex -0.0025021865 -0.0041943653 -0.002496932
  vertex -0.0025021865 -0.004194365 3.0676183e-06
 endloop
endfacet
facet normal 0 1 -1.8626447e-07
 outer loop
  vertex -2.1862338e-06 -0.004194365 3.0676183e-06
  vertex -0.0025021865 -0.004194365 3.0676183e-06
  vertex -2.1862338e-06 -0.0041943644 0.002503068
 endloop
endfacet
facet normal 0 1 -1.8626447e-07
 outer loop
  vertex -2.1862338e-06 -0.0041943644 0.002503068
  vertex -0.0025021865 -0.004194365 3.0676183e-06
  vertex -0.0025021865 -0.0041943644 0.002503068
 endloop
endfacet
facet normal -1 0 0
 outer loop
  vertex -0.0025021865 -0.0041943644 0.002503068
  vertex -0.0025021865 -0.004194365 3.0676183e-06
  vertex -0.0025021865 -0.0051943646 0.002503068
 endloop
endfacet
facet normal -1 0 0
 outer loop
  vertex -0.0025021865 -0.0051943646 0.002503068
  vertex -0.0025021865 -0.004194365 3.0676183e-06
  vertex -0.0025021865 -0.005194365 3.0676938e-06
 endloop
endfacet
facet normal -1 0 0
 outer loop
  vertex -0.0025021865 -0.005194365 3.0676938e-06
  vertex -0.0025021865 -0.004194365 3.0676183e-06
  vertex -0.0025021865 -0.0041943653 -0.002496932
 endloop
endfacet
facet normal 0 -1 1.862645e-07
 outer loop
  vertex -2.1862338e-06 -0.005194365 3.0676938e-06
  vertex -0.0025021865 -0.0051943646 0.002503068
  vertex -0.0025021865 -0.005194365 3.0676938e-06
 endloop
endfacet
facet normal -1 0 0
 outer loop
  vertex -0.0025021865 -0.005194365 3.0676938e-06
  vertex -0.0025021865 -0.0041943653 -0.002496932
  vertex -0.0025021865 -0.0051943655 -0.002496932
 endloop
endfacet
facet normal 0 -1 1.8626453e-07
 outer loop
  vertex -2.1862338e-06 -0.0051943655 -0.002496932
  vertex -0.0025021865 -0.005194365 3.0676938e-06
  vertex -0.0025021865 -0.0051943655 -0.002496932
 endloop
endfacet
facet normal 0 -1 1.8626453e-07
 outer loop
  vertex -2.1862338e-06 -0.005194365 3.0676938e-06
  vertex -0.0025021865 -0.005194365 3.0676938e-06
  vertex -2.1862338e-06 -0.0051943655 -0.002496932
 endloop
endfacet
facet normal -0 0 -1
 outer loop
  vertex -0.0025021865 -0.0051943655 -0.002496932
  vertex -2.1862338e-06 -0.0041943653 -0.002496932
  vertex -2.1862338e-06 -0.0051943655 -0.002496932
 endloop
endfacet
facet normal -0 -0 -1
 outer loop
  vertex -2.1862338e-06 -0.0051943655 -0.002496932
  vertex -2.1862338e-06 -0.0041943653 -0.002496932
  vertex 0.0024978134 -0.0041943653 -0.002496932
 endloop
endfacet
facet normal -0 0 -1
 outer loop
  vertex -2.1862338e-06 -0.0051943655 -0.002496932
  vertex 0.0024978134 -0.0041943653 -0.002496932
  vertex 0.0024978134 -0.0051943655 -0.002496932
 endloop
endfacet
facet normal 0 -1 1.8626454e-07
 outer loop
  vertex -2.1862338e-06 -0.0051943655 -0.002496932
  vertex 0.0024978134 -0.0051943655 -0.002496932
  vertex -2.1862338e-06 -0.005194365 3.0676938e-06
 endloop
endfacet
facet normal 1 -0 0
 outer loop
  vertex 0.0024978134 -0.0041943653 -0.002496932
  vertex 0.0024978134 -0.004194365 3.0676183e-06
  vertex 0.0024978134 -0.0051943655 -0.002496932
 endloop
endfacet
facet normal 1 0 0
 outer loop
  vertex 0.0024978134 -0.0051943655 -0.002496932
  vertex 0.0024978134 -0.004194365 3.0676183e-06
  vertex 0.0024978134 -0.005194365 3.0676938e-06
 endloop
endfacet
facet normal 0 -1 1.8626454e-07
 outer loop
  vertex -2.1862338e-06 -0.005194365 3.0676938e-06
  vertex 0.0024978134 -0.0051943655 -0.002496932
  vertex 0.0024978134 -0.005194365 3.0676938e-06
 endloop
endfacet
facet normal 0 1 -1.8626456e-07
 outer loop
  vertex -2.1862338e-06 -0.0041943653 -0.002496932
  vertex 0.0024978134 -0.004194365 3.0676183e-06
  vertex 0.0024978134 -0.0041943653 -0.002496932
 endloop
endfacet
facet normal 0 -1 1.862645e-07
 outer loop
  vertex -2.1862338e-06 -0.005194365 3.0676938e-06
  vertex 0.0024978134 -0.005194365 3.0676938e-06
  vertex -2.1862338e-06 -0.0051943646 0.002503068
 endloop
endfacet
facet normal 0 -1 1.862645e-07
 outer loop
  vertex -2.1862338e-06 -0.0051943646 0.002503068
  vertex -0.0025021865 -0.0051943646 0.002503068
  vertex -2.1862338e-06 -0.005194365 3.0676938e-06
 endloop
endfacet
facet normal 0 -1 1.862645e-07
 outer loop
  vertex -2.1862338e-06 -0.0051943646 0.002503068
  vertex 0.0024978134 -0.005194365 3.0676938e-06
  vertex 0.0024978134 -0.0051943646 0.002503068
 endloop
endfacet
facet normal -0 0 1
 outer loop
  vertex 0.0024978134 -0.0051943646 0.002503068
  vertex -2.1862338e-06 -0.0041943644 0.002503068
  vertex -2.1862338e-06 -0.0051943646 0.002503068
 endloop
endfacet
facet normal -0 0 1
 outer loop
  vertex -2.1862338e-06 -0.0051943646 0.002503068
  vertex -2.1862338e-06 -0.0041943644 0.002503068
  vertex -0.0025021865 -0.0041943644 0.002503068
 endloop
endfacet
facet normal -0 0 1
 outer loop
  vertex -2.1862338e-06 -0.0051943646 0.002503068
  vertex -0.0025021865 -0.0041943644 0.002503068
  vertex -0.0025021865 -0.0051943646 0.002503068
 endloop
endfacet
facet normal 0 0 -1
 outer loop
  vertex -0.0025021865 -0.0041943653 -0.002496932
  vertex -2.1862338e-06 -0.0041943653 -0.002496932
  vertex -0.0025021865 -0.0051943655 -0.002496932
 endloop
endfacet
endsolid 
