solid 
facet normal 0 1.1263869e-07 1
 outer loop
  vertex 4.2277803 -2.1870193 12.707791
  vertex 12.694447 -10.653687 12.707792
  vertex 12.694447 -2.1870193 12.707791
 endloop
endfacet
facet normal 1 0 -0
 outer loop
  vertex 12.694447 -10.653687 12.707792
  vertex 12.694447 -10.6536875 4.2411246
  vertex 12.694447 -2.1870193 12.707791
 endloop
endfacet
facet normal 0 -1 1.1263869e-07
 outer loop
  vertex 4.2277803 -10.653687 12.707792
  vertex 12.694447 -10.6536875 4.2411246
  vertex 12.694447 -10.653687 12.707792
 endloop
endfacet
facet normal 0 1.1263869e-07 1
 outer loop
  vertex 4.2277803 -10.653687 12.707792
  vertex 12.694447 -10.653687 12.707792
  vertex 4.2277803 -2.1870193 12.707791
 endloop
endfacet
facet normal 0 0 1
 outer loop
  vertex -4.2388864 -2.1870193 12.707791
  vertex 4.2277803 -2.1870193 12.707791
  vertex -4.2388864 6.279646 12.707791
 endloop
endfacet
facet normal 0 1.1263869e-07 1
 outer loop
  vertex -4.2388864 -2.1870193 12.707791
  vertex 4.2277803 -10.653687 12.707792
  vertex 4.2277803 -2.1870193 12.707791
 endloop
endfacet
facet normal 0 0 1
 outer loop
  vertex -4.2388864 6.279646 12.707791
  vertex 4.2277803 -2.1870193 12.707791
  vertex 4.2277803 6.279646 12.707791
 endloop
endfacet
facet normal 0 0 1
 outer loop
  vertex 4.2277803 -2.1870193 12.707791
  vertex 12.694447 -2.1870193 12.707791
  vertex 4.2277803 6.279646 12.707791
 endloop
endfacet
facet normal 0 1.1263869e-07 1
 outer loop
  vertex -4.2388864 14.746313 12.70779
  vertex 4.2277803 6.279646 12.707791
  vertex 4.2277803 14.746313 12.70779
 endloop
endfacet
facet normal 0 1.1263869e-07 1
 outer loop
  vertex -4.2388864 14.746313 12.70779
  vertex -4.2388864 6.279646 12.707791
  vertex 4.2277803 6.279646 12.707791
 endloop
endfacet
facet normal 0 1.1263869e-07 1
 outer loop
  vertex 4.2277803 14.746313 12.70779
  vertex 4.2277803 6.279646 12.707791
  vertex 12.694447 6.279646 12.707791
 endloop
endfacet
facet normal 0 0 1
 outer loop
  vertex 4.2277803 6.279646 12.707791
  vertex 12.694447 -2.1870193 12.707791
  vertex 12.694447 6.279646 12.707791
 endloop
endfacet
facet normal 1 0 -0
 outer loop
  vertex 12.694447 -2.1870193 12.707791
  vertex 12.694447 -2.18702 4.2411237
  vertex 12.694447 6.279646 12.707791
 endloop
endfacet
facet normal 1 0 -0
 outer loop
  vertex 12.694447 6.279646 12.707791
  vertex 12.694447 -2.18702 4.2411237
  vertex 12.694447 6.2796454 4.241123
 endloop
endfacet
facet normal 1 0 -0
 outer loop
  vertex 12.694447 6.279646 12.707791
  vertex 12.694447 6.2796454 4.241123
  vertex 12.694447 14.746313 12.70779
 endloop
endfacet
facet normal 0 1.1263869e-07 1
 outer loop
  vertex 4.2277803 14.746313 12.70779
  vertex 12.694447 6.279646 12.707791
  vertex 12.694447 14.746313 12.70779
 endloop
endfacet
facet normal 1 0 -0
 outer loop
  vertex 12.694447 14.746313 12.70779
  vertex 12.694447 6.2796454 4.241123
  vertex 12.694447 14.746312 4.2411227
 endloop
endfacet
facet normal 0 1 -1.1263869e-07
 outer loop
  vertex 12.694447 14.746312 4.2411227
  vertex 4.2277803 14.746312 4.2411227
  vertex 12.694447 14.746313 12.70779
 endloop
endfacet
facet normal 0 1 -1.1263869e-07
 outer loop
  vertex 12.694447 14.746313 12.70779
  vertex 4.2277803 14.746312 4.2411227
  vertex 4.2277803 14.746313 12.70779
 endloop
endfacet
facet normal -0 1 0
 outer loop
  vertex 12.694447 14.746312 4.2411227
  vertex 4.2277803 14.746312 -4.2255435
  vertex 4.2277803 14.746312 4.2411227
 endloop
endfacet
facet normal -0 1 0
 outer loop
  vertex 4.2277803 14.746312 -4.2255435
  vertex -4.2388864 14.746312 -4.2255435
  vertex 4.2277803 14.746312 4.2411227
 endloop
endfacet
facet normal 0 1 -1.1263869e-07
 outer loop
  vertex 4.2277803 14.746313 12.70779
  vertex 4.2277803 14.746312 4.2411227
  vertex -4.2388864 14.746312 4.2411227
 endloop
endfacet
facet normal -0 1 0
 outer loop
  vertex 4.2277803 14.746312 4.2411227
  vertex -4.2388864 14.746312 -4.2255435
  vertex -4.2388864 14.746312 4.2411227
 endloop
endfacet
facet normal 0 1 -1.1263871e-07
 outer loop
  vertex 4.2277803 14.746312 -4.2255435
  vertex -4.2388864 14.746311 -12.692209
  vertex -4.2388864 14.746312 -4.2255435
 endloop
endfacet
facet normal 0 1 -1.1263871e-07
 outer loop
  vertex -4.2388864 14.746311 -12.692209
  vertex -12.705553 14.746311 -12.692209
  vertex -4.2388864 14.746312 -4.2255435
 endloop
endfacet
facet normal -0 1 0
 outer loop
  vertex -4.2388864 14.746312 -4.2255435
  vertex -12.705553 14.746312 -4.2255435
  vertex -4.2388864 14.746312 4.2411227
 endloop
endfacet
facet normal 0 1 -1.1263871e-07
 outer loop
  vertex -4.2388864 14.746312 -4.2255435
  vertex -12.705553 14.746311 -12.692209
  vertex -12.705553 14.746312 -4.2255435
 endloop
endfacet
facet normal -1 -0 -0
 outer loop
  vertex -12.705553 14.746311 -12.692209
  vertex -12.705553 6.2796445 -4.225543
  vertex -12.705553 14.746312 -4.2255435
 endloop
endfacet
facet normal -1 0 -0
 outer loop
  vertex -12.705553 14.746312 -4.2255435
  vertex -12.705553 6.2796445 -4.225543
  vertex -12.705553 6.2796454 4.241123
 endloop
endfacet
facet normal -1 -0 -0
 outer loop
  vertex -12.705553 14.746312 -4.2255435
  vertex -12.705553 6.2796454 4.241123
  vertex -12.705553 14.746312 4.2411227
 endloop
endfacet
facet normal -0 1 0
 outer loop
  vertex -4.2388864 14.746312 4.2411227
  vertex -12.705553 14.746312 -4.2255435
  vertex -12.705553 14.746312 4.2411227
 endloop
endfacet
facet normal -1 0 -0
 outer loop
  vertex -12.705553 14.746312 4.2411227
  vertex -12.705553 6.2796454 4.241123
  vertex -12.705553 6.279646 12.707791
 endloop
endfacet
facet normal -1 -0 -0
 outer loop
  vertex -12.705553 14.746312 4.2411227
  vertex -12.705553 6.279646 12.707791
  vertex -12.705553 14.746313 12.70779
 endloop
endfacet
facet normal 0 1 -1.1263869e-07
 outer loop
  vertex -4.2388864 14.746313 12.70779
  vertex -12.705553 14.746312 4.2411227
  vertex -12.705553 14.746313 12.70779
 endloop
endfacet
facet normal 0 1 -1.1263869e-07
 outer loop
  vertex -4.2388864 14.746313 12.70779
  vertex -4.2388864 14.746312 4.2411227
  vertex -12.705553 14.746312 4.2411227
 endloop
endfacet
facet normal 0 1.1263869e-07 1
 outer loop
  vertex -12.705553 6.279646 12.707791
  vertex -4.2388864 6.279646 12.707791
  vertex -12.705553 14.746313 12.70779
 endloop
endfacet
facet normal 0 1.1263869e-07 1
 outer loop
  vertex -12.705553 14.746313 12.70779
  vertex -4.2388864 6.279646 12.707791
  vertex -4.2388864 14.746313 12.70779
 endloop
endfacet
facet normal -1 -0 -0
 outer loop
  vertex -12.705553 6.2796454 4.241123
  vertex -12.705553 -2.1870193 12.707791
  vertex -12.705553 6.279646 12.707791
 endloop
endfacet
facet normal 0 0 1
 outer loop
  vertex -12.705553 -2.1870193 12.707791
  vertex -4.2388864 -2.1870193 12.707791
  vertex -12.705553 6.279646 12.707791
 endloop
endfacet
facet normal 0 0 1
 outer loop
  vertex -12.705553 6.279646 12.707791
  vertex -4.2388864 -2.1870193 12.707791
  vertex -4.2388864 6.279646 12.707791
 endloop
endfacet
facet normal -1 -0 -0
 outer loop
  vertex -12.705553 -2.18702 4.2411237
  vertex -12.705553 -10.653687 12.707792
  vertex -12.705553 -2.1870193 12.707791
 endloop
endfacet
facet normal 0 1.1263869e-07 1
 outer loop
  vertex -12.705553 -10.653687 12.707792
  vertex -4.2388864 -10.653687 12.707792
  vertex -12.705553 -2.1870193 12.707791
 endloop
endfacet
facet normal 0 1.1263869e-07 1
 outer loop
  vertex -12.705553 -2.1870193 12.707791
  vertex -4.2388864 -10.653687 12.707792
  vertex -4.2388864 -2.1870193 12.707791
 endloop
endfacet
facet normal -1 -0 0
 outer loop
  vertex -12.705553 -2.18702 4.2411237
  vertex -12.705553 -2.1870193 12.707791
  vertex -12.705553 6.2796454 4.241123
 endloop
endfacet
facet normal -1 -0 0
 outer loop
  vertex -12.705553 -2.1870205 -4.2255425
  vertex -12.705553 -2.18702 4.2411237
  vertex -12.705553 6.2796445 -4.225543
 endloop
endfacet
facet normal -1 -0 -0
 outer loop
  vertex -12.705553 -2.1870205 -4.2255425
  vertex -12.705553 -10.6536875 4.2411246
  vertex -12.705553 -2.18702 4.2411237
 endloop
endfacet
facet normal -1 -0 0
 outer loop
  vertex -12.705553 -10.6536875 4.2411246
  vertex -12.705553 -10.653687 12.707792
  vertex -12.705553 -2.18702 4.2411237
 endloop
endfacet
facet normal -1 -0 -0
 outer loop
  vertex -12.705553 6.2796445 -4.225543
  vertex -12.705553 -2.18702 4.2411237
  vertex -12.705553 6.2796454 4.241123
 endloop
endfacet
facet normal -0 -1 -0
 outer loop
  vertex -12.705553 -10.6536875 -4.2255416
  vertex -4.2388864 -10.6536875 -4.2255416
  vertex -12.705553 -10.6536875 4.2411246
 endloop
endfacet
facet normal -1 -0 -0
 outer loop
  vertex -12.705553 -10.6536875 -4.2255416
  vertex -12.705553 -10.6536875 4.2411246
  vertex -12.705553 -2.1870205 -4.2255425
 endloop
endfacet
facet normal 0 -1 1.1263869e-07
 outer loop
  vertex -12.705553 -10.6536875 4.2411246
  vertex -4.2388864 -10.6536875 4.2411246
  vertex -12.705553 -10.653687 12.707792
 endloop
endfacet
facet normal -0 -1 -0
 outer loop
  vertex -12.705553 -10.6536875 4.2411246
  vertex -4.2388864 -10.6536875 -4.2255416
  vertex -4.2388864 -10.6536875 4.2411246
 endloop
endfacet
facet normal -0 -1 -0
 outer loop
  vertex -4.2388864 -10.6536875 -4.2255416
  vertex 4.2277803 -10.6536875 -4.2255416
  vertex -4.2388864 -10.6536875 4.2411246
 endloop
endfacet
facet normal 0 -1 1.1263869e-07
 outer loop
  vertex -12.705553 -10.653687 12.707792
  vertex -4.2388864 -10.6536875 4.2411246
  vertex -4.2388864 -10.653687 12.707792
 endloop
endfacet
facet normal 0 -1 1.1263869e-07
 outer loop
  vertex -4.2388864 -10.653687 12.707792
  vertex -4.2388864 -10.6536875 4.2411246
  vertex 4.2277803 -10.6536875 4.2411246
 endloop
endfacet
facet normal -0 -1 -0
 outer loop
  vertex -4.2388864 -10.6536875 4.2411246
  vertex 4.2277803 -10.6536875 -4.2255416
  vertex 4.2277803 -10.6536875 4.2411246
 endloop
endfacet
facet normal 0 -1 1.1263871e-07
 outer loop
  vertex -4.2388864 -10.6536875 -4.2255416
  vertex 4.2277803 -10.653688 -12.692207
  vertex 4.2277803 -10.6536875 -4.2255416
 endloop
endfacet
facet normal 0 -1 1.1263872e-07
 outer loop
  vertex 4.2277803 -10.653688 -12.692207
  vertex 12.694447 -10.653688 -12.692207
  vertex 4.2277803 -10.6536875 -4.2255416
 endloop
endfacet
facet normal -0 -1 -0
 outer loop
  vertex 4.2277803 -10.6536875 -4.2255416
  vertex 12.694447 -10.6536875 -4.2255416
  vertex 4.2277803 -10.6536875 4.2411246
 endloop
endfacet
facet normal 0 -1 1.1263872e-07
 outer loop
  vertex 4.2277803 -10.6536875 -4.2255416
  vertex 12.694447 -10.653688 -12.692207
  vertex 12.694447 -10.6536875 -4.2255416
 endloop
endfacet
facet normal -0 -1 -0
 outer loop
  vertex 4.2277803 -10.6536875 4.2411246
  vertex 12.694447 -10.6536875 -4.2255416
  vertex 12.694447 -10.6536875 4.2411246
 endloop
endfacet
facet normal 1 0 -0
 outer loop
  vertex 12.694447 -10.6536875 4.2411246
  vertex 12.694447 -10.6536875 -4.2255416
  vertex 12.694447 -2.18702 4.2411237
 endloop
endfacet
facet normal 1 0 -0
 outer loop
  vertex 12.694447 -2.18702 4.2411237
  vertex 12.694447 -10.6536875 -4.2255416
  vertex 12.694447 -2.1870205 -4.2255425
 endloop
endfacet
facet normal 1 0 -0
 outer loop
  vertex 12.694447 -10.6536875 -4.2255416
  vertex 12.694447 -10.653688 -12.692207
  vertex 12.694447 -2.1870205 -4.2255425
 endloop
endfacet
facet normal 1 0 -0
 outer loop
  vertex 12.694447 -2.18702 4.2411237
  vertex 12.694447 -2.1870205 -4.2255425
  vertex 12.694447 6.2796454 4.241123
 endloop
endfacet
facet normal 1 0 -0
 outer loop
  vertex 12.694447 6.2796454 4.241123
  vertex 12.694447 -2.1870205 -4.2255425
  vertex 12.694447 6.2796445 -4.225543
 endloop
endfacet
facet normal 1 0 -0
 outer loop
  vertex 12.694447 -2.1870205 -4.2255425
  vertex 12.694447 -2.1870213 -12.692208
  vertex 12.694447 6.2796445 -4.225543
 endloop
endfacet
facet normal 1 0 -0
 outer loop
  vertex 12.694447 -2.1870205 -4.2255425
  vertex 12.694447 -10.653688 -12.692207
  vertex 12.694447 -2.1870213 -12.692208
 endloop
endfacet
facet normal 0 -1.1263869e-07 -1
 outer loop
  vertex 12.694447 -10.653688 -12.692207
  vertex 4.2277803 -10.653688 -12.692207
  vertex 12.694447 -2.1870213 -12.692208
 endloop
endfacet
facet normal 1 0 -0
 outer loop
  vertex 12.694447 6.2796445 -4.225543
  vertex 12.694447 -2.1870213 -12.692208
  vertex 12.694447 6.279644 -12.692208
 endloop
endfacet
facet normal 0 -0 -1
 outer loop
  vertex 12.694447 -2.1870213 -12.692208
  vertex 4.2277803 -2.1870213 -12.692208
  vertex 12.694447 6.279644 -12.692208
 endloop
endfacet
facet normal 0 -1.1263869e-07 -1
 outer loop
  vertex 12.694447 -2.1870213 -12.692208
  vertex 4.2277803 -10.653688 -12.692207
  vertex 4.2277803 -2.1870213 -12.692208
 endloop
endfacet
facet normal 0 -1.1263869e-07 -1
 outer loop
  vertex 4.2277803 -10.653688 -12.692207
  vertex -4.2388864 -10.653688 -12.692207
  vertex 4.2277803 -2.1870213 -12.692208
 endloop
endfacet
facet normal 0 0 -1
 outer loop
  vertex 12.694447 6.279644 -12.692208
  vertex 4.2277803 -2.1870213 -12.692208
  vertex 4.2277803 6.279644 -12.692208
 endloop
endfacet
facet normal 0 -0 -1
 outer loop
  vertex 4.2277803 -2.1870213 -12.692208
  vertex -4.2388864 -2.1870213 -12.692208
  vertex 4.2277803 6.279644 -12.692208
 endloop
endfacet
facet normal 0 -1.1263869e-07 -1
 outer loop
  vertex 4.2277803 -2.1870213 -12.692208
  vertex -4.2388864 -10.653688 -12.692207
  vertex -4.2388864 -2.1870213 -12.692208
 endloop
endfacet
facet normal 0 -1.1263869e-07 -1
 outer loop
  vertex -4.2388864 -10.653688 -12.692207
  vertex -12.705553 -10.653688 -12.692207
  vertex -4.2388864 -2.1870213 -12.692208
 endloop
endfacet
facet normal 0 0 -1
 outer loop
  vertex 4.2277803 6.279644 -12.692208
  vertex -4.2388864 -2.1870213 -12.692208
  vertex -4.2388864 6.279644 -12.692208
 endloop
endfacet
facet normal 0 -0 -1
 outer loop
  vertex -4.2388864 -2.1870213 -12.692208
  vertex -12.705553 -2.1870213 -12.692208
  vertex -4.2388864 6.279644 -12.692208
 endloop
endfacet
facet normal 0 -1.1263869e-07 -1
 outer loop
  vertex -4.2388864 -2.1870213 -12.692208
  vertex -12.705553 -10.653688 -12.692207
  vertex -12.705553 -2.1870213 -12.692208
 endloop
endfacet
facet normal -1 -0 0
 outer loop
  vertex -12.705553 -10.653688 -12.692207
  vertex -12.705553 -10.6536875 -4.2255416
  vertex -12.705553 -2.1870213 -12.692208
 endloop
endfacet
facet normal -1 -0 -0
 outer loop
  vertex -12.705553 -2.1870213 -12.692208
  vertex -12.705553 -10.6536875 -4.2255416
  vertex -12.705553 -2.1870205 -4.2255425
 endloop
endfacet
facet normal -1 -0 0
 outer loop
  vertex -12.705553 -2.1870213 -12.692208
  vertex -12.705553 -2.1870205 -4.2255425
  vertex -12.705553 6.279644 -12.692208
 endloop
endfacet
facet normal 0 0 -1
 outer loop
  vertex -4.2388864 6.279644 -12.692208
  vertex -12.705553 -2.1870213 -12.692208
  vertex -12.705553 6.279644 -12.692208
 endloop
endfacet
facet normal -1 -0 -0
 outer loop
  vertex -12.705553 6.279644 -12.692208
  vertex -12.705553 -2.1870205 -4.2255425
  vertex -12.705553 6.2796445 -4.225543
 endloop
endfacet
facet normal -1 -0 0
 outer loop
  vertex -12.705553 6.279644 -12.692208
  vertex -12.705553 6.2796445 -4.225543
  vertex -12.705553 14.746311 -12.692209
 endloop
endfacet
facet normal 0 -1.1263869e-07 -1
 outer loop
  vertex -4.2388864 14.746311 -12.692209
  vertex -12.705553 6.279644 -12.692208
  vertex -12.705553 14.746311 -12.692209
 endloop
endfacet
facet normal 0 -1.1263869e-07 -1
 outer loop
  vertex -4.2388864 14.746311 -12.692209
  vertex -4.2388864 6.279644 -12.692208
  vertex -12.705553 6.279644 -12.692208
 endloop
endfacet
facet normal 0 -1 1.1263871e-07
 outer loop
  vertex -12.705553 -10.653688 -12.692207
  vertex -4.2388864 -10.653688 -12.692207
  vertex -12.705553 -10.6536875 -4.2255416
 endloop
endfacet
facet normal 0 -1.1263869e-07 -1
 outer loop
  vertex 4.2277803 14.746311 -12.692209
  vertex -4.2388864 6.279644 -12.692208
  vertex -4.2388864 14.746311 -12.692209
 endloop
endfacet
facet normal 0 -1.1263869e-07 -1
 outer loop
  vertex 4.2277803 14.746311 -12.692209
  vertex 4.2277803 6.279644 -12.692208
  vertex -4.2388864 6.279644 -12.692208
 endloop
endfacet
facet normal 0 1 -1.1263872e-07
 outer loop
  vertex 12.694447 14.746311 -12.692209
  vertex 4.2277803 14.746311 -12.692209
  vertex 12.694447 14.746312 -4.2255435
 endloop
endfacet
facet normal 0 -1.1263869e-07 -1
 outer loop
  vertex 12.694447 14.746311 -12.692209
  vertex 4.2277803 6.279644 -12.692208
  vertex 4.2277803 14.746311 -12.692209
 endloop
endfacet
facet normal 0 1 -1.1263871e-07
 outer loop
  vertex 4.2277803 14.746311 -12.692209
  vertex -4.2388864 14.746311 -12.692209
  vertex 4.2277803 14.746312 -4.2255435
 endloop
endfacet
facet normal 0 1 -1.1263872e-07
 outer loop
  vertex 12.694447 14.746312 -4.2255435
  vertex 4.2277803 14.746311 -12.692209
  vertex 4.2277803 14.746312 -4.2255435
 endloop
endfacet
facet normal -0 1 0
 outer loop
  vertex 12.694447 14.746312 -4.2255435
  vertex 4.2277803 14.746312 -4.2255435
  vertex 12.694447 14.746312 4.2411227
 endloop
endfacet
facet normal 1 0 -0
 outer loop
  vertex 12.694447 14.746312 4.2411227
  vertex 12.694447 6.2796445 -4.225543
  vertex 12.694447 14.746312 -4.2255435
 endloop
endfacet
facet normal 1 -0 0
 outer loop
  vertex 12.694447 14.746312 -4.2255435
  vertex 12.694447 6.2796445 -4.225543
  vertex 12.694447 6.279644 -12.692208
 endloop
endfacet
facet normal 1 0 -0
 outer loop
  vertex 12.694447 14.746312 -4.2255435
  vertex 12.694447 6.279644 -12.692208
  vertex 12.694447 14.746311 -12.692209
 endloop
endfacet
facet normal 0 -1.1263869e-07 -1
 outer loop
  vertex 12.694447 6.279644 -12.692208
  vertex 4.2277803 6.279644 -12.692208
  vertex 12.694447 14.746311 -12.692209
 endloop
endfacet
facet normal 0 -1 1.1263871e-07
 outer loop
  vertex -4.2388864 -10.653688 -12.692207
  vertex 4.2277803 -10.653688 -12.692207
  vertex -4.2388864 -10.6536875 -4.2255416
 endloop
endfacet
facet normal 0 -1 1.1263871e-07
 outer loop
  vertex -12.705553 -10.6536875 -4.2255416
  vertex -4.2388864 -10.653688 -12.692207
  vertex -4.2388864 -10.6536875 -4.2255416
 endloop
endfacet
facet normal 1 -0 0
 outer loop
  vertex 12.694447 14.746312 4.2411227
  vertex 12.694447 6.2796454 4.241123
  vertex 12.694447 6.2796445 -4.225543
 endloop
endfacet
facet normal 0 -1 1.1263869e-07
 outer loop
  vertex -4.2388864 -10.653687 12.707792
  vertex 4.2277803 -10.6536875 4.2411246
  vertex 4.2277803 -10.653687 12.707792
 endloop
endfacet
facet normal 0 -1 1.1263869e-07
 outer loop
  vertex 4.2277803 -10.653687 12.707792
  vertex 4.2277803 -10.6536875 4.2411246
  vertex 12.694447 -10.6536875 4.2411246
 endloop
endfacet
facet normal 0 1.1263869e-07 1
 outer loop
  vertex -4.2388864 -10.653687 12.707792
  vertex 4.2277803 -10.653687 12.707792
  vertex -4.2388864 -2.1870193 12.707791
 endloop
endfacet
facet normal 0 1 -1.1263869e-07
 outer loop
  vertex 4.2277803 14.746313 12.70779
  vertex -4.2388864 14.746312 4.2411227
  vertex -4.2388864 14.746313 12.70779
 endloop
endfacet
facet normal 1 0 -0
 outer loop
  vertex 12.694447 -2.1870193 12.707791
  vertex 12.694447 -10.6536875 4.2411246
  vertex 12.694447 -2.18702 4.2411237
 endloop
endfacet
endsolid 
