solid 
facet normal 1 -0 0
 outer loop
  vertex 6.344446 -13.193687 0.0077919425
  vertex 6.344446 -10.653686 6.3577924
  vertex 6.344446 -13.1936865 6.3577924
 endloop
endfacet
facet normal 0 -0 1
 outer loop
  vertex 6.344446 -10.653686 6.3577924
  vertex -0.0055530337 -10.653686 6.3577924
  vertex 6.344446 -13.1936865 6.3577924
 endloop
endfacet
facet normal 0 1 -1.5018492e-07
 outer loop
  vertex -0.0055530337 -10.653686 6.3577924
  vertex 6.344446 -10.653686 6.3577924
  vertex -0.0055530337 -10.653687 0.0077917506
 endloop
endfacet
facet normal 1 0 0
 outer loop
  vertex 6.344446 -13.193687 0.0077919425
  vertex 6.344446 -10.653687 0.0077917506
  vertex 6.344446 -10.653686 6.3577924
 endloop
endfacet
facet normal 0 1 -1.5018492e-07
 outer loop
  vertex -0.0055530337 -10.653687 0.0077917506
  vertex 6.344446 -10.653686 6.3577924
  vertex 6.344446 -10.653687 0.0077917506
 endloop
endfacet
facet normal 0 1 -1.5018496e-07
 outer loop
  vertex -0.0055530337 -10.653687 0.0077917506
  vertex 6.344446 -10.653687 0.0077917506
  vertex -0.0055530337 -10.6536875 -6.3422074
 endloop
endfacet
facet normal 0 1 -1.5018496e-07
 outer loop
  vertex -0.0055530337 -10.6536875 -6.3422074
  vertex -6.3555536 -10.6536875 -6.3422074
  vertex -0.0055530337 -10.653687 0.0077917506
 endloop
endfacet
facet normal 0 1 -1.5018496e-07
 outer loop
  vertex -0.0055530337 -10.653687 0.0077917506
  vertex -6.3555536 -10.6536875 -6.3422074
  vertex -6.3555536 -10.653687 0.0077917506
 endloop
endfacet
facet normal 0 1 -1.501849e-07
 outer loop
  vertex -0.0055530337 -10.653687 0.0077917506
  vertex -6.3555536 -10.653687 0.0077917506
  vertex -0.0055530337 -10.653686 6.3577924
 endloop
endfacet
facet normal 0 1 -1.501849e-07
 outer loop
  vertex -0.0055530337 -10.653686 6.3577924
  vertex -6.3555536 -10.653687 0.0077917506
  vertex -6.3555536 -10.653686 6.3577924
 endloop
endfacet
facet normal -1 0 0
 outer loop
  vertex -6.3555536 -10.653686 6.3577924
  vertex -6.3555536 -10.653687 0.0077917506
  vertex -6.3555536 -13.1936865 6.3577924
 endloop
endfacet
facet normal -1 0 0
 outer loop
  vertex -6.3555536 -13.1936865 6.3577924
  vertex -6.3555536 -10.653687 0.0077917506
  vertex -6.3555536 -13.193687 0.0077919425
 endloop
endfacet
facet normal -1 0 0
 outer loop
  vertex -6.3555536 -13.193687 0.0077919425
  vertex -6.3555536 -10.653687 0.0077917506
  vertex -6.3555536 -10.6536875 -6.3422074
 endloop
endfacet
facet normal 0 -1 1.5018492e-07
 outer loop
  vertex -0.0055530337 -13.193687 0.0077919425
  vertex -6.3555536 -13.1936865 6.3577924
  vertex -6.3555536 -13.193687 0.0077919425
 endloop
endfacet
facet normal -1 0 0
 outer loop
  vertex -6.3555536 -13.193687 0.0077919425
  vertex -6.3555536 -10.6536875 -6.3422074
  vertex -6.3555536 -13.193688 -6.3422074
 endloop
endfacet
facet normal 0 -1 1.5018495e-07
 outer loop
  vertex -0.0055530337 -13.193688 -6.3422074
  vertex -6.3555536 -13.193687 0.0077919425
  vertex -6.3555536 -13.193688 -6.3422074
 endloop
endfacet
facet normal 0 -1 1.5018495e-07
 outer loop
  vertex -0.0055530337 -13.193687 0.0077919425
  vertex -6.3555536 -13.193687 0.0077919425
  vertex -0.0055530337 -13.193688 -6.3422074
 endloop
endfacet
facet normal -0 0 -1
 outer loop
  vertex -6.3555536 -13.193688 -6.3422074
  vertex -0.0055530337 -10.6536875 -6.3422074
  vertex -0.0055530337 -13.193688 -6.3422074
 endloop
endfacet
facet normal -0 -0 -1
 outer loop
  vertex -0.0055530337 -13.193688 -6.3422074
  vertex -0.0055530337 -10.6536875 -6.3422074
  vertex 6.344446 -10.6536875 -6.3422074
 endloop
endfacet
facet normal -0 0 -1
 outer loop
  vertex -0.0055530337 -13.193688 -6.3422074
  vertex 6.344446 -10.6536875 -6.3422074
  vertex 6.344446 -13.193688 -6.3422074
 endloop
endfacet
facet normal 0 -1 1.5018495e-07
 outer loop
  vertex -0.0055530337 -13.193688 -6.3422074
  vertex 6.344446 -13.193688 -6.3422074
  vertex -0.0055530337 -13.193687 0.0077919425
 endloop
endfacet
facet normal 1 -0 0
 outer loop
  vertex 6.344446 -10.6536875 -6.3422074
  vertex 6.344446 -10.653687 0.0077917506
  vertex 6.344446 -13.193688 -6.3422074
 endloop
endfacet
facet normal 1 0 0
 outer loop
  vertex 6.344446 -13.193688 -6.3422074
  vertex 6.344446 -10.653687 0.0077917506
  vertex 6.344446 -13.193687 0.0077919425
 endloop
endfacet
facet normal 0 -1 1.5018495e-07
 outer loop
  vertex -0.0055530337 -13.193687 0.0077919425
  vertex 6.344446 -13.193688 -6.3422074
  vertex 6.344446 -13.193687 0.0077919425
 endloop
endfacet
facet normal 0 1 -1.5018496e-07
 outer loop
  vertex -0.0055530337 -10.6536875 -6.3422074
  vertex 6.344446 -10.653687 0.0077917506
  vertex 6.344446 -10.6536875 -6.3422074
 endloop
endfacet
facet normal 0 -1 1.5018493e-07
 outer loop
  vertex -0.0055530337 -13.193687 0.0077919425
  vertex 6.344446 -13.193687 0.0077919425
  vertex -0.0055530337 -13.1936865 6.3577924
 endloop
endfacet
facet normal 0 -1 1.5018492e-07
 outer loop
  vertex -0.0055530337 -13.1936865 6.3577924
  vertex -6.3555536 -13.1936865 6.3577924
  vertex -0.0055530337 -13.193687 0.0077919425
 endloop
endfacet
facet normal 0 -1 1.5018493e-07
 outer loop
  vertex -0.0055530337 -13.1936865 6.3577924
  vertex 6.344446 -13.193687 0.0077919425
  vertex 6.344446 -13.1936865 6.3577924
 endloop
endfacet
facet normal -0 0 1
 outer loop
  vertex 6.344446 -13.1936865 6.3577924
  vertex -0.0055530337 -10.653686 6.3577924
  vertex -0.0055530337 -13.1936865 6.3577924
 endloop
endfacet
facet normal -0 0 1
 outer loop
  vertex -0.0055530337 -13.1936865 6.3577924
  vertex -0.0055530337 -10.653686 6.3577924
  vertex -6.3555536 -10.653686 6.3577924
 endloop
endfacet
facet normal -0 0 1
 outer loop
  vertex -0.0055530337 -13.1936865 6.3577924
  vertex -6.3555536 -10.653686 6.3577924
  vertex -6.3555536 -13.1936865 6.3577924
 endloop
endfacet
facet normal 0 0 -1
 outer loop
  vertex -6.3555536 -10.6536875 -6.3422074
  vertex -0.0055530337 -10.6536875 -6.3422074
  vertex -6.3555536 -13.193688 -6.3422074
 endloop
endfacet
endsolid 
