solid ASCII
  facet normal 0.000000e+00 0.000000e+00 1.000000e+00
    outer loop
      vertex   2.000000e+00 1.600000e+01 1.470600e+01
      vertex   -2.000000e+00 1.600000e+01 1.470600e+01
      vertex   2.000000e+00 1.400000e+01 1.470600e+01
    endloop
  endfacet
  facet normal 0.000000e+00 0.000000e+00 1.000000e+00
    outer loop
      vertex   2.000000e+00 1.400000e+01 1.470600e+01
      vertex   -2.000000e+00 1.600000e+01 1.470600e+01
      vertex   -2.000000e+00 1.400000e+01 1.470600e+01
    endloop
  endfacet
  facet normal 0.000000e+00 0.000000e+00 -1.000000e+00
    outer loop
      vertex   2.000000e+00 1.400000e+01 1.070600e+01
      vertex   -2.000000e+00 1.400000e+01 1.070600e+01
      vertex   2.000000e+00 1.600000e+01 1.070600e+01
    endloop
  endfacet
  facet normal -0.000000e+00 0.000000e+00 -1.000000e+00
    outer loop
      vertex   2.000000e+00 1.600000e+01 1.070600e+01
      vertex   -2.000000e+00 1.400000e+01 1.070600e+01
      vertex   -2.000000e+00 1.600000e+01 1.070600e+01
    endloop
  endfacet
  facet normal 0.000000e+00 -1.000000e+00 0.000000e+00
    outer loop
      vertex   -2.000000e+00 1.400000e+01 1.470600e+01
      vertex   -2.000000e+00 1.400000e+01 1.070600e+01
      vertex   2.000000e+00 1.400000e+01 1.470600e+01
    endloop
  endfacet
  facet normal 0.000000e+00 -1.000000e+00 -0.000000e+00
    outer loop
      vertex   2.000000e+00 1.400000e+01 1.470600e+01
      vertex   -2.000000e+00 1.400000e+01 1.070600e+01
      vertex   2.000000e+00 1.400000e+01 1.070600e+01
    endloop
  endfacet
  facet normal -1.000000e+00 -0.000000e+00 -0.000000e+00
    outer loop
      vertex   -2.000000e+00 1.600000e+01 1.470600e+01
      vertex   -2.000000e+00 1.600000e+01 1.070600e+01
      vertex   -2.000000e+00 1.400000e+01 1.470600e+01
    endloop
  endfacet
  facet normal -1.000000e+00 0.000000e+00 0.000000e+00
    outer loop
      vertex   -2.000000e+00 1.400000e+01 1.470600e+01
      vertex   -2.000000e+00 1.600000e+01 1.070600e+01
      vertex   -2.000000e+00 1.400000e+01 1.070600e+01
    endloop
  endfacet
  facet normal 0.000000e+00 1.000000e+00 0.000000e+00
    outer loop
      vertex   2.000000e+00 1.600000e+01 1.470600e+01
      vertex   2.000000e+00 1.600000e+01 1.070600e+01
      vertex   -2.000000e+00 1.600000e+01 1.470600e+01
    endloop
  endfacet
  facet normal 0.000000e+00 1.000000e+00 0.000000e+00
    outer loop
      vertex   -2.000000e+00 1.600000e+01 1.470600e+01
      vertex   2.000000e+00 1.600000e+01 1.070600e+01
      vertex   -2.000000e+00 1.600000e+01 1.070600e+01
    endloop
  endfacet
  facet normal 1.000000e+00 -0.000000e+00 0.000000e+00
    outer loop
      vertex   2.000000e+00 1.400000e+01 1.470600e+01
      vertex   2.000000e+00 1.400000e+01 1.070600e+01
      vertex   2.000000e+00 1.600000e+01 1.470600e+01
    endloop
  endfacet
  facet normal 1.000000e+00 0.000000e+00 0.000000e+00
    outer loop
      vertex   2.000000e+00 1.600000e+01 1.470600e+01
      vertex   2.000000e+00 1.400000e+01 1.070600e+01
      vertex   2.000000e+00 1.600000e+01 1.070600e+01
    endloop
  endfacet
endsolid
