solid ASCII
  facet normal 2.588190e-01 0.000000e+00 -9.659258e-01
    outer loop
      vertex   -1.546884e+02 -7.750000e+02 -5.697777e+01
      vertex   -2.561106e+02 -7.750000e+02 -8.415377e+01
      vertex   -1.546884e+02 7.750000e+02 -5.697777e+01
    endloop
  endfacet
  facet normal 2.588190e-01 6.927203e-20 -9.659258e-01
    outer loop
      vertex   -1.546884e+02 7.750000e+02 -5.697777e+01
      vertex   -2.561106e+02 -7.750000e+02 -8.415377e+01
      vertex   -2.561106e+02 7.750000e+02 -8.415377e+01
    endloop
  endfacet
  facet normal 9.659258e-01 -0.000000e+00 2.588190e-01
    outer loop
      vertex   -1.624530e+02 -7.750000e+02 -2.800000e+01
      vertex   -1.546884e+02 -7.750000e+02 -5.697777e+01
      vertex   -1.624530e+02 7.750000e+02 -2.800000e+01
    endloop
  endfacet
  facet normal 9.659258e-01 -8.228460e-20 2.588190e-01
    outer loop
      vertex   -1.624530e+02 7.750000e+02 -2.800000e+01
      vertex   -1.546884e+02 -7.750000e+02 -5.697777e+01
      vertex   -1.546884e+02 7.750000e+02 -5.697777e+01
    endloop
  endfacet
  facet normal -2.588190e-01 0.000000e+00 9.659258e-01
    outer loop
      vertex   -2.638752e+02 -7.750000e+02 -5.517600e+01
      vertex   -1.624530e+02 -7.750000e+02 -2.800000e+01
      vertex   -2.638752e+02 7.750000e+02 -5.517600e+01
    endloop
  endfacet
  facet normal -2.588190e-01 1.178548e-18 9.659258e-01
    outer loop
      vertex   -2.638752e+02 7.750000e+02 -5.517600e+01
      vertex   -1.624530e+02 -7.750000e+02 -2.800000e+01
      vertex   -1.624530e+02 7.750000e+02 -2.800000e+01
    endloop
  endfacet
  facet normal -9.659258e-01 0.000000e+00 -2.588190e-01
    outer loop
      vertex   -2.561106e+02 -7.750000e+02 -8.415377e+01
      vertex   -2.638752e+02 -7.750000e+02 -5.517600e+01
      vertex   -2.561106e+02 7.750000e+02 -8.415377e+01
    endloop
  endfacet
  facet normal -9.659258e-01 -5.511563e-20 -2.588190e-01
    outer loop
      vertex   -2.561106e+02 7.750000e+02 -8.415377e+01
      vertex   -2.638752e+02 -7.750000e+02 -5.517600e+01
      vertex   -2.638752e+02 7.750000e+02 -5.517600e+01
    endloop
  endfacet
  facet normal 0.000000e+00 1.000000e+00 -0.000000e+00
    outer loop
      vertex   -2.561106e+02 7.750000e+02 -8.415377e+01
      vertex   -2.638752e+02 7.750000e+02 -5.517600e+01
      vertex   -1.546884e+02 7.750000e+02 -5.697777e+01
    endloop
  endfacet
  facet normal 0.000000e+00 1.000000e+00 0.000000e+00
    outer loop
      vertex   -1.546884e+02 7.750000e+02 -5.697777e+01
      vertex   -2.638752e+02 7.750000e+02 -5.517600e+01
      vertex   -1.624530e+02 7.750000e+02 -2.800000e+01
    endloop
  endfacet
  facet normal 0.000000e+00 -1.000000e+00 0.000000e+00
    outer loop
      vertex   -2.561106e+02 -7.750000e+02 -8.415377e+01
      vertex   -1.546884e+02 -7.750000e+02 -5.697777e+01
      vertex   -2.638752e+02 -7.750000e+02 -5.517600e+01
    endloop
  endfacet
  facet normal 0.000000e+00 -1.000000e+00 0.000000e+00
    outer loop
      vertex   -2.638752e+02 -7.750000e+02 -5.517600e+01
      vertex   -1.546884e+02 -7.750000e+02 -5.697777e+01
      vertex   -1.624530e+02 -7.750000e+02 -2.800000e+01
    endloop
  endfacet
endsolid
