solid ASCII
  facet normal 0.000000e+00 1.000000e+00 0.000000e+00
    outer loop
      vertex   1.381049e+02 6.730000e+02 9.705539e+01
      vertex   1.531049e+02 6.730000e+02 7.107463e+01
      vertex   8.700938e+01 6.730000e+02 6.755539e+01
    endloop
  endfacet
  facet normal -0.000000e+00 1.000000e+00 0.000000e+00
    outer loop
      vertex   8.700938e+01 6.730000e+02 6.755539e+01
      vertex   1.531049e+02 6.730000e+02 7.107463e+01
      vertex   1.020094e+02 6.730000e+02 4.157463e+01
    endloop
  endfacet
  facet normal 0.000000e+00 -1.000000e+00 -0.000000e+00
    outer loop
      vertex   1.580235e+02 5.080000e+02 1.085554e+02
      vertex   6.709079e+01 5.080000e+02 5.605539e+01
      vertex   1.730235e+02 5.080000e+02 8.257463e+01
    endloop
  endfacet
  facet normal 0.000000e+00 -1.000000e+00 0.000000e+00
    outer loop
      vertex   1.730235e+02 5.080000e+02 8.257463e+01
      vertex   6.709079e+01 5.080000e+02 5.605539e+01
      vertex   8.209079e+01 5.080000e+02 3.007463e+01
    endloop
  endfacet
  facet normal 8.577323e-01 1.380591e-01 4.952120e-01
    outer loop
      vertex   1.580235e+02 5.080000e+02 1.085554e+02
      vertex   1.730235e+02 5.080000e+02 8.257463e+01
      vertex   1.381049e+02 6.730000e+02 9.705539e+01
    endloop
  endfacet
  facet normal 8.577323e-01 1.380591e-01 4.952120e-01
    outer loop
      vertex   1.381049e+02 6.730000e+02 9.705539e+01
      vertex   1.730235e+02 5.080000e+02 8.257463e+01
      vertex   1.531049e+02 6.730000e+02 7.107463e+01
    endloop
  endfacet
  facet normal 5.000000e-01 -1.827926e-17 -8.660254e-01
    outer loop
      vertex   1.730235e+02 5.080000e+02 8.257463e+01
      vertex   8.209079e+01 5.080000e+02 3.007463e+01
      vertex   1.531049e+02 6.730000e+02 7.107463e+01
    endloop
  endfacet
  facet normal 5.000000e-01 1.542148e-16 -8.660254e-01
    outer loop
      vertex   1.531049e+02 6.730000e+02 7.107463e+01
      vertex   8.209079e+01 5.080000e+02 3.007463e+01
      vertex   1.020094e+02 6.730000e+02 4.157463e+01
    endloop
  endfacet
  facet normal -8.577323e-01 1.380591e-01 -4.952120e-01
    outer loop
      vertex   8.209079e+01 5.080000e+02 3.007463e+01
      vertex   6.709079e+01 5.080000e+02 5.605539e+01
      vertex   1.020094e+02 6.730000e+02 4.157463e+01
    endloop
  endfacet
  facet normal -8.577323e-01 1.380591e-01 -4.952120e-01
    outer loop
      vertex   1.020094e+02 6.730000e+02 4.157463e+01
      vertex   6.709079e+01 5.080000e+02 5.605539e+01
      vertex   8.700938e+01 6.730000e+02 6.755539e+01
    endloop
  endfacet
  facet normal -5.000000e-01 4.812770e-17 8.660254e-01
    outer loop
      vertex   6.709079e+01 5.080000e+02 5.605539e+01
      vertex   1.580235e+02 5.080000e+02 1.085554e+02
      vertex   8.700938e+01 6.730000e+02 6.755539e+01
    endloop
  endfacet
  facet normal -5.000000e-01 1.369555e-17 8.660254e-01
    outer loop
      vertex   8.700938e+01 6.730000e+02 6.755539e+01
      vertex   1.580235e+02 5.080000e+02 1.085554e+02
      vertex   1.381049e+02 6.730000e+02 9.705539e+01
    endloop
  endfacet
endsolid
