solid ASCII
  facet normal 0.000000e+00 1.000000e+00 0.000000e+00
    outer loop
      vertex   9.705539e+01 6.730000e+02 -1.381049e+02
      vertex   7.107463e+01 6.730000e+02 -1.531049e+02
      vertex   6.755539e+01 6.730000e+02 -8.700938e+01
    endloop
  endfacet
  facet normal 0.000000e+00 1.000000e+00 0.000000e+00
    outer loop
      vertex   6.755539e+01 6.730000e+02 -8.700938e+01
      vertex   7.107463e+01 6.730000e+02 -1.531049e+02
      vertex   4.157463e+01 6.730000e+02 -1.020094e+02
    endloop
  endfacet
  facet normal -0.000000e+00 -1.000000e+00 0.000000e+00
    outer loop
      vertex   1.085554e+02 5.080000e+02 -1.580235e+02
      vertex   5.605539e+01 5.080000e+02 -6.709079e+01
      vertex   8.257463e+01 5.080000e+02 -1.730235e+02
    endloop
  endfacet
  facet normal 0.000000e+00 -1.000000e+00 0.000000e+00
    outer loop
      vertex   8.257463e+01 5.080000e+02 -1.730235e+02
      vertex   5.605539e+01 5.080000e+02 -6.709079e+01
      vertex   3.007463e+01 5.080000e+02 -8.209079e+01
    endloop
  endfacet
  facet normal 4.952120e-01 1.380591e-01 -8.577323e-01
    outer loop
      vertex   1.085554e+02 5.080000e+02 -1.580235e+02
      vertex   8.257463e+01 5.080000e+02 -1.730235e+02
      vertex   9.705539e+01 6.730000e+02 -1.381049e+02
    endloop
  endfacet
  facet normal 4.952120e-01 1.380591e-01 -8.577323e-01
    outer loop
      vertex   9.705539e+01 6.730000e+02 -1.381049e+02
      vertex   8.257463e+01 5.080000e+02 -1.730235e+02
      vertex   7.107463e+01 6.730000e+02 -1.531049e+02
    endloop
  endfacet
  facet normal -8.660254e-01 -1.517465e-17 -5.000000e-01
    outer loop
      vertex   8.257463e+01 5.080000e+02 -1.730235e+02
      vertex   3.007463e+01 5.080000e+02 -8.209079e+01
      vertex   7.107463e+01 6.730000e+02 -1.531049e+02
    endloop
  endfacet
  facet normal -8.660254e-01 -3.942405e-17 -5.000000e-01
    outer loop
      vertex   7.107463e+01 6.730000e+02 -1.531049e+02
      vertex   3.007463e+01 5.080000e+02 -8.209079e+01
      vertex   4.157463e+01 6.730000e+02 -1.020094e+02
    endloop
  endfacet
  facet normal -4.952120e-01 1.380591e-01 8.577323e-01
    outer loop
      vertex   3.007463e+01 5.080000e+02 -8.209079e+01
      vertex   5.605539e+01 5.080000e+02 -6.709079e+01
      vertex   4.157463e+01 6.730000e+02 -1.020094e+02
    endloop
  endfacet
  facet normal -4.952120e-01 1.380591e-01 8.577323e-01
    outer loop
      vertex   4.157463e+01 6.730000e+02 -1.020094e+02
      vertex   5.605539e+01 5.080000e+02 -6.709079e+01
      vertex   6.755539e+01 6.730000e+02 -8.700938e+01
    endloop
  endfacet
  facet normal 8.660254e-01 2.761483e-20 5.000000e-01
    outer loop
      vertex   5.605539e+01 5.080000e+02 -6.709079e+01
      vertex   1.085554e+02 5.080000e+02 -1.580235e+02
      vertex   6.755539e+01 6.730000e+02 -8.700938e+01
    endloop
  endfacet
  facet normal 8.660254e-01 8.758616e-18 5.000000e-01
    outer loop
      vertex   6.755539e+01 6.730000e+02 -8.700938e+01
      vertex   1.085554e+02 5.080000e+02 -1.580235e+02
      vertex   9.705539e+01 6.730000e+02 -1.381049e+02
    endloop
  endfacet
endsolid
