solid ASCII
  facet normal 0.000000e+00 1.000000e+00 -0.000000e+00
    outer loop
      vertex   -2.338943e+02 9.400000e+02 -7.820094e+01
      vertex   -2.416589e+02 9.400000e+02 -4.922316e+01
      vertex   -1.769047e+02 9.400000e+02 -6.293061e+01
    endloop
  endfacet
  facet normal 0.000000e+00 1.000000e+00 0.000000e+00
    outer loop
      vertex   -1.769047e+02 9.400000e+02 -6.293061e+01
      vertex   -2.416589e+02 9.400000e+02 -4.922316e+01
      vertex   -1.846693e+02 9.400000e+02 -3.395284e+01
    endloop
  endfacet
  facet normal 0.000000e+00 -1.000000e+00 0.000000e+00
    outer loop
      vertex   -2.561106e+02 7.750000e+02 -8.415377e+01
      vertex   -1.546884e+02 7.750000e+02 -5.697777e+01
      vertex   -2.638752e+02 7.750000e+02 -5.517600e+01
    endloop
  endfacet
  facet normal 0.000000e+00 -1.000000e+00 0.000000e+00
    outer loop
      vertex   -2.638752e+02 7.750000e+02 -5.517600e+01
      vertex   -1.546884e+02 7.750000e+02 -5.697777e+01
      vertex   -1.624530e+02 7.750000e+02 -2.800000e+01
    endloop
  endfacet
  facet normal -9.566761e-01 1.380591e-01 -2.563406e-01
    outer loop
      vertex   -2.561106e+02 7.750000e+02 -8.415377e+01
      vertex   -2.638752e+02 7.750000e+02 -5.517600e+01
      vertex   -2.338943e+02 9.400000e+02 -7.820094e+01
    endloop
  endfacet
  facet normal -9.566761e-01 1.380591e-01 -2.563406e-01
    outer loop
      vertex   -2.338943e+02 9.400000e+02 -7.820094e+01
      vertex   -2.638752e+02 7.750000e+02 -5.517600e+01
      vertex   -2.416589e+02 9.400000e+02 -4.922316e+01
    endloop
  endfacet
  facet normal -2.588190e-01 -1.294798e-17 9.659258e-01
    outer loop
      vertex   -2.638752e+02 7.750000e+02 -5.517600e+01
      vertex   -1.624530e+02 7.750000e+02 -2.800000e+01
      vertex   -2.416589e+02 9.400000e+02 -4.922316e+01
    endloop
  endfacet
  facet normal -2.588190e-01 1.806586e-17 9.659258e-01
    outer loop
      vertex   -2.416589e+02 9.400000e+02 -4.922316e+01
      vertex   -1.624530e+02 7.750000e+02 -2.800000e+01
      vertex   -1.846693e+02 9.400000e+02 -3.395284e+01
    endloop
  endfacet
  facet normal 9.566761e-01 1.380591e-01 2.563406e-01
    outer loop
      vertex   -1.624530e+02 7.750000e+02 -2.800000e+01
      vertex   -1.546884e+02 7.750000e+02 -5.697777e+01
      vertex   -1.846693e+02 9.400000e+02 -3.395284e+01
    endloop
  endfacet
  facet normal 9.566761e-01 1.380591e-01 2.563406e-01
    outer loop
      vertex   -1.846693e+02 9.400000e+02 -3.395284e+01
      vertex   -1.546884e+02 7.750000e+02 -5.697777e+01
      vertex   -1.769047e+02 9.400000e+02 -6.293061e+01
    endloop
  endfacet
  facet normal 2.588190e-01 -7.856809e-17 -9.659258e-01
    outer loop
      vertex   -1.546884e+02 7.750000e+02 -5.697777e+01
      vertex   -2.561106e+02 7.750000e+02 -8.415377e+01
      vertex   -1.769047e+02 9.400000e+02 -6.293061e+01
    endloop
  endfacet
  facet normal 2.588190e-01 2.829939e-17 -9.659258e-01
    outer loop
      vertex   -1.769047e+02 9.400000e+02 -6.293061e+01
      vertex   -2.561106e+02 7.750000e+02 -8.415377e+01
      vertex   -2.338943e+02 9.400000e+02 -7.820094e+01
    endloop
  endfacet
endsolid
