solid ASCII
  facet normal 0.000000e+00 0.000000e+00 -1.000000e+00
    outer loop
      vertex   -3.000000e+00 3.000000e+00 1.706000e+00
      vertex   3.000000e+00 3.000000e+00 1.706000e+00
      vertex   -3.000000e+00 -3.000000e+00 1.706000e+00
    endloop
  endfacet
  facet normal 0.000000e+00 0.000000e+00 -1.000000e+00
    outer loop
      vertex   -3.000000e+00 -3.000000e+00 1.706000e+00
      vertex   3.000000e+00 3.000000e+00 1.706000e+00
      vertex   3.000000e+00 -3.000000e+00 1.706000e+00
    endloop
  endfacet
  facet normal 0.000000e+00 0.000000e+00 1.000000e+00
    outer loop
      vertex   3.000000e+00 3.000000e+00 2.370600e+01
      vertex   -3.000000e+00 3.000000e+00 2.370600e+01
      vertex   3.000000e+00 -3.000000e+00 2.370600e+01
    endloop
  endfacet
  facet normal 0.000000e+00 0.000000e+00 1.000000e+00
    outer loop
      vertex   3.000000e+00 -3.000000e+00 2.370600e+01
      vertex   -3.000000e+00 3.000000e+00 2.370600e+01
      vertex   -3.000000e+00 -3.000000e+00 2.370600e+01
    endloop
  endfacet
  facet normal -1.000000e+00 0.000000e+00 0.000000e+00
    outer loop
      vertex   -3.000000e+00 -3.000000e+00 1.706000e+00
      vertex   -3.000000e+00 -3.000000e+00 2.370600e+01
      vertex   -3.000000e+00 3.000000e+00 1.706000e+00
    endloop
  endfacet
  facet normal -1.000000e+00 0.000000e+00 0.000000e+00
    outer loop
      vertex   -3.000000e+00 3.000000e+00 1.706000e+00
      vertex   -3.000000e+00 -3.000000e+00 2.370600e+01
      vertex   -3.000000e+00 3.000000e+00 2.370600e+01
    endloop
  endfacet
  facet normal -0.000000e+00 -1.000000e+00 -2.018587e-17
    outer loop
      vertex   3.000000e+00 -3.000000e+00 1.706000e+00
      vertex   3.000000e+00 -3.000000e+00 2.370600e+01
      vertex   -3.000000e+00 -3.000000e+00 1.706000e+00
    endloop
  endfacet
  facet normal 0.000000e+00 -1.000000e+00 -2.018587e-17
    outer loop
      vertex   -3.000000e+00 -3.000000e+00 1.706000e+00
      vertex   3.000000e+00 -3.000000e+00 2.370600e+01
      vertex   -3.000000e+00 -3.000000e+00 2.370600e+01
    endloop
  endfacet
  facet normal 1.000000e+00 1.480297e-16 -0.000000e+00
    outer loop
      vertex   3.000000e+00 3.000000e+00 1.706000e+00
      vertex   3.000000e+00 3.000000e+00 2.370600e+01
      vertex   3.000000e+00 -3.000000e+00 1.706000e+00
    endloop
  endfacet
  facet normal 1.000000e+00 7.401487e-17 2.018587e-17
    outer loop
      vertex   3.000000e+00 -3.000000e+00 1.706000e+00
      vertex   3.000000e+00 3.000000e+00 2.370600e+01
      vertex   3.000000e+00 -3.000000e+00 2.370600e+01
    endloop
  endfacet
  facet normal -7.401487e-17 1.000000e+00 0.000000e+00
    outer loop
      vertex   -3.000000e+00 3.000000e+00 1.706000e+00
      vertex   -3.000000e+00 3.000000e+00 2.370600e+01
      vertex   3.000000e+00 3.000000e+00 1.706000e+00
    endloop
  endfacet
  facet normal -7.401487e-17 1.000000e+00 0.000000e+00
    outer loop
      vertex   3.000000e+00 3.000000e+00 1.706000e+00
      vertex   -3.000000e+00 3.000000e+00 2.370600e+01
      vertex   3.000000e+00 3.000000e+00 2.370600e+01
    endloop
  endfacet
  facet normal 0.000000e+00 0.000000e+00 -1.000000e+00
    outer loop
      vertex   2.000000e+00 -2.000000e+00 2.270600e+01
      vertex   -2.000000e+00 -2.000000e+00 2.270600e+01
      vertex   2.000000e+00 2.000000e+00 2.270600e+01
    endloop
  endfacet
  facet normal -0.000000e+00 0.000000e+00 -1.000000e+00
    outer loop
      vertex   2.000000e+00 2.000000e+00 2.270600e+01
      vertex   -2.000000e+00 -2.000000e+00 2.270600e+01
      vertex   -2.000000e+00 2.000000e+00 2.270600e+01
    endloop
  endfacet
  facet normal 0.000000e+00 0.000000e+00 1.000000e+00
    outer loop
      vertex   2.000000e+00 2.000000e+00 2.706000e+00
      vertex   -2.000000e+00 2.000000e+00 2.706000e+00
      vertex   2.000000e+00 -2.000000e+00 2.706000e+00
    endloop
  endfacet
  facet normal 0.000000e+00 0.000000e+00 1.000000e+00
    outer loop
      vertex   2.000000e+00 -2.000000e+00 2.706000e+00
      vertex   -2.000000e+00 2.000000e+00 2.706000e+00
      vertex   -2.000000e+00 -2.000000e+00 2.706000e+00
    endloop
  endfacet
  facet normal 0.000000e+00 1.000000e+00 0.000000e+00
    outer loop
      vertex   -2.000000e+00 -2.000000e+00 2.706000e+00
      vertex   -2.000000e+00 -2.000000e+00 2.270600e+01
      vertex   2.000000e+00 -2.000000e+00 2.706000e+00
    endloop
  endfacet
  facet normal 0.000000e+00 1.000000e+00 -0.000000e+00
    outer loop
      vertex   2.000000e+00 -2.000000e+00 2.706000e+00
      vertex   -2.000000e+00 -2.000000e+00 2.270600e+01
      vertex   2.000000e+00 -2.000000e+00 2.270600e+01
    endloop
  endfacet
  facet normal 1.000000e+00 0.000000e+00 -0.000000e+00
    outer loop
      vertex   -2.000000e+00 2.000000e+00 2.706000e+00
      vertex   -2.000000e+00 2.000000e+00 2.270600e+01
      vertex   -2.000000e+00 -2.000000e+00 2.706000e+00
    endloop
  endfacet
  facet normal 1.000000e+00 0.000000e+00 0.000000e+00
    outer loop
      vertex   -2.000000e+00 -2.000000e+00 2.706000e+00
      vertex   -2.000000e+00 2.000000e+00 2.270600e+01
      vertex   -2.000000e+00 -2.000000e+00 2.270600e+01
    endloop
  endfacet
  facet normal 0.000000e+00 -1.000000e+00 0.000000e+00
    outer loop
      vertex   2.000000e+00 2.000000e+00 2.706000e+00
      vertex   2.000000e+00 2.000000e+00 2.270600e+01
      vertex   -2.000000e+00 2.000000e+00 2.706000e+00
    endloop
  endfacet
  facet normal 0.000000e+00 -1.000000e+00 0.000000e+00
    outer loop
      vertex   -2.000000e+00 2.000000e+00 2.706000e+00
      vertex   2.000000e+00 2.000000e+00 2.270600e+01
      vertex   -2.000000e+00 2.000000e+00 2.270600e+01
    endloop
  endfacet
  facet normal -1.000000e+00 0.000000e+00 0.000000e+00
    outer loop
      vertex   2.000000e+00 -2.000000e+00 2.706000e+00
      vertex   2.000000e+00 -2.000000e+00 2.270600e+01
      vertex   2.000000e+00 2.000000e+00 2.706000e+00
    endloop
  endfacet
  facet normal -1.000000e+00 0.000000e+00 0.000000e+00
    outer loop
      vertex   2.000000e+00 2.000000e+00 2.706000e+00
      vertex   2.000000e+00 -2.000000e+00 2.270600e+01
      vertex   2.000000e+00 2.000000e+00 2.270600e+01
    endloop
  endfacet
endsolid
