solid ASCII
  facet normal 0.000000e+00 0.000000e+00 1.000000e+00
    outer loop
      vertex   -6.000000e+00 2.000000e+00 1.573240e+01
      vertex   -8.000000e+00 2.000000e+00 1.573240e+01
      vertex   -6.000000e+00 -2.000000e+00 1.573240e+01
    endloop
  endfacet
  facet normal 0.000000e+00 0.000000e+00 1.000000e+00
    outer loop
      vertex   -6.000000e+00 -2.000000e+00 1.573240e+01
      vertex   -8.000000e+00 2.000000e+00 1.573240e+01
      vertex   -8.000000e+00 -2.000000e+00 1.573240e+01
    endloop
  endfacet
  facet normal 0.000000e+00 0.000000e+00 -1.000000e+00
    outer loop
      vertex   -6.000000e+00 -2.000000e+00 1.173240e+01
      vertex   -8.000000e+00 -2.000000e+00 1.173240e+01
      vertex   -6.000000e+00 2.000000e+00 1.173240e+01
    endloop
  endfacet
  facet normal -0.000000e+00 0.000000e+00 -1.000000e+00
    outer loop
      vertex   -6.000000e+00 2.000000e+00 1.173240e+01
      vertex   -8.000000e+00 -2.000000e+00 1.173240e+01
      vertex   -8.000000e+00 2.000000e+00 1.173240e+01
    endloop
  endfacet
  facet normal 0.000000e+00 -1.000000e+00 0.000000e+00
    outer loop
      vertex   -8.000000e+00 -2.000000e+00 1.573240e+01
      vertex   -8.000000e+00 -2.000000e+00 1.173240e+01
      vertex   -6.000000e+00 -2.000000e+00 1.573240e+01
    endloop
  endfacet
  facet normal 0.000000e+00 -1.000000e+00 -0.000000e+00
    outer loop
      vertex   -6.000000e+00 -2.000000e+00 1.573240e+01
      vertex   -8.000000e+00 -2.000000e+00 1.173240e+01
      vertex   -6.000000e+00 -2.000000e+00 1.173240e+01
    endloop
  endfacet
  facet normal -1.000000e+00 -0.000000e+00 -0.000000e+00
    outer loop
      vertex   -8.000000e+00 2.000000e+00 1.573240e+01
      vertex   -8.000000e+00 2.000000e+00 1.173240e+01
      vertex   -8.000000e+00 -2.000000e+00 1.573240e+01
    endloop
  endfacet
  facet normal -1.000000e+00 0.000000e+00 0.000000e+00
    outer loop
      vertex   -8.000000e+00 -2.000000e+00 1.573240e+01
      vertex   -8.000000e+00 2.000000e+00 1.173240e+01
      vertex   -8.000000e+00 -2.000000e+00 1.173240e+01
    endloop
  endfacet
  facet normal 0.000000e+00 1.000000e+00 0.000000e+00
    outer loop
      vertex   -6.000000e+00 2.000000e+00 1.573240e+01
      vertex   -6.000000e+00 2.000000e+00 1.173240e+01
      vertex   -8.000000e+00 2.000000e+00 1.573240e+01
    endloop
  endfacet
  facet normal 0.000000e+00 1.000000e+00 0.000000e+00
    outer loop
      vertex   -8.000000e+00 2.000000e+00 1.573240e+01
      vertex   -6.000000e+00 2.000000e+00 1.173240e+01
      vertex   -8.000000e+00 2.000000e+00 1.173240e+01
    endloop
  endfacet
  facet normal 1.000000e+00 -0.000000e+00 0.000000e+00
    outer loop
      vertex   -6.000000e+00 -2.000000e+00 1.573240e+01
      vertex   -6.000000e+00 -2.000000e+00 1.173240e+01
      vertex   -6.000000e+00 2.000000e+00 1.573240e+01
    endloop
  endfacet
  facet normal 1.000000e+00 0.000000e+00 0.000000e+00
    outer loop
      vertex   -6.000000e+00 2.000000e+00 1.573240e+01
      vertex   -6.000000e+00 -2.000000e+00 1.173240e+01
      vertex   -6.000000e+00 2.000000e+00 1.173240e+01
    endloop
  endfacet
endsolid
