solid ASCII
  facet normal 0.000000e+00 0.000000e+00 -1.000000e+00
    outer loop
      vertex   -3.500000e+00 3.500000e+00 1.206000e+00
      vertex   3.500000e+00 3.500000e+00 1.206000e+00
      vertex   -3.500000e+00 -3.500000e+00 1.206000e+00
    endloop
  endfacet
  facet normal 0.000000e+00 0.000000e+00 -1.000000e+00
    outer loop
      vertex   -3.500000e+00 -3.500000e+00 1.206000e+00
      vertex   3.500000e+00 3.500000e+00 1.206000e+00
      vertex   3.500000e+00 -3.500000e+00 1.206000e+00
    endloop
  endfacet
  facet normal 0.000000e+00 0.000000e+00 1.000000e+00
    outer loop
      vertex   3.500000e+00 3.500000e+00 2.420600e+01
      vertex   -3.500000e+00 3.500000e+00 2.420600e+01
      vertex   3.500000e+00 -3.500000e+00 2.420600e+01
    endloop
  endfacet
  facet normal 0.000000e+00 0.000000e+00 1.000000e+00
    outer loop
      vertex   3.500000e+00 -3.500000e+00 2.420600e+01
      vertex   -3.500000e+00 3.500000e+00 2.420600e+01
      vertex   -3.500000e+00 -3.500000e+00 2.420600e+01
    endloop
  endfacet
  facet normal -1.000000e+00 0.000000e+00 0.000000e+00
    outer loop
      vertex   -3.500000e+00 -3.500000e+00 1.206000e+00
      vertex   -3.500000e+00 -3.500000e+00 2.420600e+01
      vertex   -3.500000e+00 3.500000e+00 1.206000e+00
    endloop
  endfacet
  facet normal -1.000000e+00 0.000000e+00 0.000000e+00
    outer loop
      vertex   -3.500000e+00 3.500000e+00 1.206000e+00
      vertex   -3.500000e+00 -3.500000e+00 2.420600e+01
      vertex   -3.500000e+00 3.500000e+00 2.420600e+01
    endloop
  endfacet
  facet normal 0.000000e+00 -1.000000e+00 0.000000e+00
    outer loop
      vertex   3.500000e+00 -3.500000e+00 1.206000e+00
      vertex   3.500000e+00 -3.500000e+00 2.420600e+01
      vertex   -3.500000e+00 -3.500000e+00 1.206000e+00
    endloop
  endfacet
  facet normal 0.000000e+00 -1.000000e+00 0.000000e+00
    outer loop
      vertex   -3.500000e+00 -3.500000e+00 1.206000e+00
      vertex   3.500000e+00 -3.500000e+00 2.420600e+01
      vertex   -3.500000e+00 -3.500000e+00 2.420600e+01
    endloop
  endfacet
  facet normal 1.000000e+00 0.000000e+00 -0.000000e+00
    outer loop
      vertex   3.500000e+00 3.500000e+00 1.206000e+00
      vertex   3.500000e+00 3.500000e+00 2.420600e+01
      vertex   3.500000e+00 -3.500000e+00 1.206000e+00
    endloop
  endfacet
  facet normal 1.000000e+00 0.000000e+00 0.000000e+00
    outer loop
      vertex   3.500000e+00 -3.500000e+00 1.206000e+00
      vertex   3.500000e+00 3.500000e+00 2.420600e+01
      vertex   3.500000e+00 -3.500000e+00 2.420600e+01
    endloop
  endfacet
  facet normal 0.000000e+00 1.000000e+00 0.000000e+00
    outer loop
      vertex   -3.500000e+00 3.500000e+00 1.206000e+00
      vertex   -3.500000e+00 3.500000e+00 2.420600e+01
      vertex   3.500000e+00 3.500000e+00 1.206000e+00
    endloop
  endfacet
  facet normal 0.000000e+00 1.000000e+00 -0.000000e+00
    outer loop
      vertex   3.500000e+00 3.500000e+00 1.206000e+00
      vertex   -3.500000e+00 3.500000e+00 2.420600e+01
      vertex   3.500000e+00 3.500000e+00 2.420600e+01
    endloop
  endfacet
  facet normal 0.000000e+00 0.000000e+00 -1.000000e+00
    outer loop
      vertex   2.000000e+00 -2.000000e+00 2.270600e+01
      vertex   -2.000000e+00 -2.000000e+00 2.270600e+01
      vertex   2.000000e+00 2.000000e+00 2.270600e+01
    endloop
  endfacet
  facet normal -0.000000e+00 0.000000e+00 -1.000000e+00
    outer loop
      vertex   2.000000e+00 2.000000e+00 2.270600e+01
      vertex   -2.000000e+00 -2.000000e+00 2.270600e+01
      vertex   -2.000000e+00 2.000000e+00 2.270600e+01
    endloop
  endfacet
  facet normal 0.000000e+00 0.000000e+00 1.000000e+00
    outer loop
      vertex   2.000000e+00 2.000000e+00 2.706000e+00
      vertex   -2.000000e+00 2.000000e+00 2.706000e+00
      vertex   2.000000e+00 -2.000000e+00 2.706000e+00
    endloop
  endfacet
  facet normal 0.000000e+00 0.000000e+00 1.000000e+00
    outer loop
      vertex   2.000000e+00 -2.000000e+00 2.706000e+00
      vertex   -2.000000e+00 2.000000e+00 2.706000e+00
      vertex   -2.000000e+00 -2.000000e+00 2.706000e+00
    endloop
  endfacet
  facet normal 0.000000e+00 1.000000e+00 0.000000e+00
    outer loop
      vertex   -2.000000e+00 -2.000000e+00 2.706000e+00
      vertex   -2.000000e+00 -2.000000e+00 2.270600e+01
      vertex   2.000000e+00 -2.000000e+00 2.706000e+00
    endloop
  endfacet
  facet normal 0.000000e+00 1.000000e+00 -0.000000e+00
    outer loop
      vertex   2.000000e+00 -2.000000e+00 2.706000e+00
      vertex   -2.000000e+00 -2.000000e+00 2.270600e+01
      vertex   2.000000e+00 -2.000000e+00 2.270600e+01
    endloop
  endfacet
  facet normal 1.000000e+00 0.000000e+00 -0.000000e+00
    outer loop
      vertex   -2.000000e+00 2.000000e+00 2.706000e+00
      vertex   -2.000000e+00 2.000000e+00 2.270600e+01
      vertex   -2.000000e+00 -2.000000e+00 2.706000e+00
    endloop
  endfacet
  facet normal 1.000000e+00 0.000000e+00 0.000000e+00
    outer loop
      vertex   -2.000000e+00 -2.000000e+00 2.706000e+00
      vertex   -2.000000e+00 2.000000e+00 2.270600e+01
      vertex   -2.000000e+00 -2.000000e+00 2.270600e+01
    endloop
  endfacet
  facet normal 0.000000e+00 -1.000000e+00 0.000000e+00
    outer loop
      vertex   2.000000e+00 2.000000e+00 2.706000e+00
      vertex   2.000000e+00 2.000000e+00 2.270600e+01
      vertex   -2.000000e+00 2.000000e+00 2.706000e+00
    endloop
  endfacet
  facet normal 0.000000e+00 -1.000000e+00 0.000000e+00
    outer loop
      vertex   -2.000000e+00 2.000000e+00 2.706000e+00
      vertex   2.000000e+00 2.000000e+00 2.270600e+01
      vertex   -2.000000e+00 2.000000e+00 2.270600e+01
    endloop
  endfacet
  facet normal -1.000000e+00 0.000000e+00 0.000000e+00
    outer loop
      vertex   2.000000e+00 -2.000000e+00 2.706000e+00
      vertex   2.000000e+00 -2.000000e+00 2.270600e+01
      vertex   2.000000e+00 2.000000e+00 2.706000e+00
    endloop
  endfacet
  facet normal -1.000000e+00 0.000000e+00 0.000000e+00
    outer loop
      vertex   2.000000e+00 2.000000e+00 2.706000e+00
      vertex   2.000000e+00 -2.000000e+00 2.270600e+01
      vertex   2.000000e+00 2.000000e+00 2.270600e+01
    endloop
  endfacet
endsolid
