solid ASCII
  facet normal -1.000000e+00 0.000000e+00 0.000000e+00
    outer loop
      vertex   -4.336763e+00 -4.391996e+00 7.669000e+01
      vertex   -4.336763e+00 4.518004e+00 7.669000e+01
      vertex   -4.336763e+00 -4.391996e+00 7.505000e+01
    endloop
  endfacet
  facet normal -1.000000e+00 0.000000e+00 0.000000e+00
    outer loop
      vertex   -4.336763e+00 -4.391996e+00 7.505000e+01
      vertex   -4.336763e+00 4.518004e+00 7.669000e+01
      vertex   -4.336763e+00 4.518004e+00 7.505000e+01
    endloop
  endfacet
  facet normal 0.000000e+00 1.000000e+00 -0.000000e+00
    outer loop
      vertex   4.443237e+00 4.518004e+00 7.505000e+01
      vertex   -4.336763e+00 4.518004e+00 7.505000e+01
      vertex   4.443237e+00 4.518004e+00 7.669000e+01
    endloop
  endfacet
  facet normal 0.000000e+00 1.000000e+00 0.000000e+00
    outer loop
      vertex   4.443237e+00 4.518004e+00 7.669000e+01
      vertex   -4.336763e+00 4.518004e+00 7.505000e+01
      vertex   -4.336763e+00 4.518004e+00 7.669000e+01
    endloop
  endfacet
  facet normal 0.000000e+00 0.000000e+00 1.000000e+00
    outer loop
      vertex   -4.336763e+00 -4.391996e+00 7.669000e+01
      vertex   4.443237e+00 -4.391996e+00 7.669000e+01
      vertex   -4.336763e+00 4.518004e+00 7.669000e+01
    endloop
  endfacet
  facet normal -0.000000e+00 0.000000e+00 1.000000e+00
    outer loop
      vertex   -4.336763e+00 4.518004e+00 7.669000e+01
      vertex   4.443237e+00 -4.391996e+00 7.669000e+01
      vertex   4.443237e+00 4.518004e+00 7.669000e+01
    endloop
  endfacet
  facet normal -0.000000e+00 -1.000000e+00 -0.000000e+00
    outer loop
      vertex   4.443237e+00 -4.391996e+00 7.669000e+01
      vertex   -4.336763e+00 -4.391996e+00 7.669000e+01
      vertex   4.443237e+00 -4.391996e+00 7.505000e+01
    endloop
  endfacet
  facet normal 0.000000e+00 -1.000000e+00 0.000000e+00
    outer loop
      vertex   4.443237e+00 -4.391996e+00 7.505000e+01
      vertex   -4.336763e+00 -4.391996e+00 7.669000e+01
      vertex   -4.336763e+00 -4.391996e+00 7.505000e+01
    endloop
  endfacet
  facet normal -0.000000e+00 0.000000e+00 1.000000e+00
    outer loop
      vertex   -4.336763e+00 -4.391996e+00 7.505000e+01
      vertex   -4.371021e-15 -1.005774e+01 7.505000e+01
      vertex   4.443237e+00 -4.391996e+00 7.505000e+01
    endloop
  endfacet
  facet normal 0.000000e+00 0.000000e+00 1.000000e+00
    outer loop
      vertex   4.443237e+00 -4.391996e+00 7.505000e+01
      vertex   -4.371021e-15 -1.005774e+01 7.505000e+01
      vertex   8.710254e+00 -5.028868e+00 7.505000e+01
    endloop
  endfacet
  facet normal -0.000000e+00 0.000000e+00 1.000000e+00
    outer loop
      vertex   4.443237e+00 -4.391996e+00 7.505000e+01
      vertex   8.710254e+00 -5.028868e+00 7.505000e+01
      vertex   8.710254e+00 5.028868e+00 7.505000e+01
    endloop
  endfacet
  facet normal 0.000000e+00 0.000000e+00 1.000000e+00
    outer loop
      vertex   -4.336763e+00 4.518004e+00 7.505000e+01
      vertex   -8.710254e+00 5.028868e+00 7.505000e+01
      vertex   -4.336763e+00 -4.391996e+00 7.505000e+01
    endloop
  endfacet
  facet normal 0.000000e+00 0.000000e+00 1.000000e+00
    outer loop
      vertex   -4.336763e+00 -4.391996e+00 7.505000e+01
      vertex   -8.710254e+00 5.028868e+00 7.505000e+01
      vertex   -8.710254e+00 -5.028868e+00 7.505000e+01
    endloop
  endfacet
  facet normal 0.000000e+00 0.000000e+00 1.000000e+00
    outer loop
      vertex   -4.336763e+00 -4.391996e+00 7.505000e+01
      vertex   -8.710254e+00 -5.028868e+00 7.505000e+01
      vertex   -4.371021e-15 -1.005774e+01 7.505000e+01
    endloop
  endfacet
  facet normal -0.000000e+00 0.000000e+00 1.000000e+00
    outer loop
      vertex   -8.710254e+00 5.028868e+00 7.505000e+01
      vertex   -4.336763e+00 4.518004e+00 7.505000e+01
      vertex   1.599801e-16 1.005774e+01 7.505000e+01
    endloop
  endfacet
  facet normal 0.000000e+00 0.000000e+00 1.000000e+00
    outer loop
      vertex   1.599801e-16 1.005774e+01 7.505000e+01
      vertex   -4.336763e+00 4.518004e+00 7.505000e+01
      vertex   4.443237e+00 4.518004e+00 7.505000e+01
    endloop
  endfacet
  facet normal 0.000000e+00 0.000000e+00 1.000000e+00
    outer loop
      vertex   1.599801e-16 1.005774e+01 7.505000e+01
      vertex   4.443237e+00 4.518004e+00 7.505000e+01
      vertex   8.710254e+00 5.028868e+00 7.505000e+01
    endloop
  endfacet
  facet normal 0.000000e+00 0.000000e+00 1.000000e+00
    outer loop
      vertex   8.710254e+00 5.028868e+00 7.505000e+01
      vertex   4.443237e+00 4.518004e+00 7.505000e+01
      vertex   4.443237e+00 -4.391996e+00 7.505000e+01
    endloop
  endfacet
  facet normal 1.000000e+00 0.000000e+00 0.000000e+00
    outer loop
      vertex   4.443237e+00 -4.391996e+00 7.505000e+01
      vertex   4.443237e+00 4.518004e+00 7.505000e+01
      vertex   4.443237e+00 -4.391996e+00 7.669000e+01
    endloop
  endfacet
  facet normal 1.000000e+00 -0.000000e+00 0.000000e+00
    outer loop
      vertex   4.443237e+00 -4.391996e+00 7.669000e+01
      vertex   4.443237e+00 4.518004e+00 7.505000e+01
      vertex   4.443237e+00 4.518004e+00 7.669000e+01
    endloop
  endfacet
  facet normal -1.000000e+00 1.766160e-16 0.000000e+00
    outer loop
      vertex   -8.710254e+00 5.028868e+00 -7.505000e+01
      vertex   -8.710254e+00 -5.028868e+00 -7.505000e+01
      vertex   -8.710254e+00 5.028868e+00 -3.752500e+01
    endloop
  endfacet
  facet normal -1.000000e+00 1.766160e-16 0.000000e+00
    outer loop
      vertex   -8.710254e+00 5.028868e+00 -3.752500e+01
      vertex   -8.710254e+00 -5.028868e+00 -7.505000e+01
      vertex   -8.710254e+00 -5.028868e+00 -3.752500e+01
    endloop
  endfacet
  facet normal -1.000000e+00 1.766160e-16 0.000000e+00
    outer loop
      vertex   -8.710254e+00 5.028868e+00 -3.752500e+01
      vertex   -8.710254e+00 -5.028868e+00 -3.752500e+01
      vertex   -8.710254e+00 -5.028868e+00 0.000000e+00
    endloop
  endfacet
  facet normal -1.000000e+00 1.766160e-16 0.000000e+00
    outer loop
      vertex   -8.710254e+00 5.028868e+00 -3.752500e+01
      vertex   -8.710254e+00 -5.028868e+00 0.000000e+00
      vertex   -8.710254e+00 5.028868e+00 0.000000e+00
    endloop
  endfacet
  facet normal -1.000000e+00 1.766160e-16 0.000000e+00
    outer loop
      vertex   -8.710254e+00 5.028868e+00 0.000000e+00
      vertex   -8.710254e+00 -5.028868e+00 0.000000e+00
      vertex   -8.710254e+00 -5.028868e+00 3.752500e+01
    endloop
  endfacet
  facet normal -1.000000e+00 1.766160e-16 0.000000e+00
    outer loop
      vertex   -8.710254e+00 5.028868e+00 0.000000e+00
      vertex   -8.710254e+00 -5.028868e+00 3.752500e+01
      vertex   -8.710254e+00 5.028868e+00 3.752500e+01
    endloop
  endfacet
  facet normal -1.000000e+00 1.766160e-16 0.000000e+00
    outer loop
      vertex   -8.710254e+00 5.028868e+00 3.752500e+01
      vertex   -8.710254e+00 -5.028868e+00 3.752500e+01
      vertex   -8.710254e+00 5.028868e+00 7.505000e+01
    endloop
  endfacet
  facet normal -1.000000e+00 1.766160e-16 0.000000e+00
    outer loop
      vertex   -8.710254e+00 5.028868e+00 7.505000e+01
      vertex   -8.710254e+00 -5.028868e+00 3.752500e+01
      vertex   -8.710254e+00 -5.028868e+00 7.505000e+01
    endloop
  endfacet
  facet normal -5.000000e-01 -8.660254e-01 2.049794e-17
    outer loop
      vertex   -8.710254e+00 -5.028868e+00 -7.505000e+01
      vertex   -4.786873e-15 -1.005774e+01 -7.505000e+01
      vertex   -8.710254e+00 -5.028868e+00 -3.752500e+01
    endloop
  endfacet
  facet normal -5.000000e-01 -8.660254e-01 1.882649e-17
    outer loop
      vertex   -8.710254e+00 -5.028868e+00 -3.752500e+01
      vertex   -4.786873e-15 -1.005774e+01 -7.505000e+01
      vertex   -4.440892e-15 -1.005774e+01 -3.752500e+01
    endloop
  endfacet
  facet normal -5.000000e-01 -8.660254e-01 0.000000e+00
    outer loop
      vertex   -8.710254e+00 -5.028868e+00 -3.752500e+01
      vertex   -4.440892e-15 -1.005774e+01 -3.752500e+01
      vertex   -4.440892e-15 -1.005774e+01 0.000000e+00
    endloop
  endfacet
  facet normal -5.000000e-01 -8.660254e-01 0.000000e+00
    outer loop
      vertex   -8.710254e+00 -5.028868e+00 -3.752500e+01
      vertex   -4.440892e-15 -1.005774e+01 0.000000e+00
      vertex   -8.710254e+00 -5.028868e+00 0.000000e+00
    endloop
  endfacet
  facet normal -5.000000e-01 -8.660254e-01 0.000000e+00
    outer loop
      vertex   -8.710254e+00 -5.028868e+00 0.000000e+00
      vertex   -4.440892e-15 -1.005774e+01 0.000000e+00
      vertex   -4.440892e-15 -1.005774e+01 3.752500e+01
    endloop
  endfacet
  facet normal -5.000000e-01 -8.660254e-01 0.000000e+00
    outer loop
      vertex   -8.710254e+00 -5.028868e+00 0.000000e+00
      vertex   -4.440892e-15 -1.005774e+01 3.752500e+01
      vertex   -8.710254e+00 -5.028868e+00 3.752500e+01
    endloop
  endfacet
  facet normal -5.000000e-01 -8.660254e-01 -2.049794e-17
    outer loop
      vertex   -8.710254e+00 -5.028868e+00 3.752500e+01
      vertex   -4.440892e-15 -1.005774e+01 3.752500e+01
      vertex   -8.710254e+00 -5.028868e+00 7.505000e+01
    endloop
  endfacet
  facet normal -5.000000e-01 -8.660254e-01 0.000000e+00
    outer loop
      vertex   -8.710254e+00 -5.028868e+00 7.505000e+01
      vertex   -4.440892e-15 -1.005774e+01 3.752500e+01
      vertex   -4.371021e-15 -1.005774e+01 7.505000e+01
    endloop
  endfacet
  facet normal 5.000000e-01 -8.660254e-01 -4.610006e-18
    outer loop
      vertex   -4.786873e-15 -1.005774e+01 -7.505000e+01
      vertex   8.710254e+00 -5.028868e+00 -7.505000e+01
      vertex   -4.440892e-15 -1.005774e+01 -3.752500e+01
    endloop
  endfacet
  facet normal 5.000000e-01 -8.660254e-01 0.000000e+00
    outer loop
      vertex   -4.440892e-15 -1.005774e+01 -3.752500e+01
      vertex   8.710254e+00 -5.028868e+00 -7.505000e+01
      vertex   8.710254e+00 -5.028868e+00 -3.752500e+01
    endloop
  endfacet
  facet normal 5.000000e-01 -8.660254e-01 0.000000e+00
    outer loop
      vertex   -4.440892e-15 -1.005774e+01 -3.752500e+01
      vertex   8.710254e+00 -5.028868e+00 -3.752500e+01
      vertex   8.710254e+00 -5.028868e+00 0.000000e+00
    endloop
  endfacet
  facet normal 5.000000e-01 -8.660254e-01 0.000000e+00
    outer loop
      vertex   -4.440892e-15 -1.005774e+01 -3.752500e+01
      vertex   8.710254e+00 -5.028868e+00 0.000000e+00
      vertex   -4.440892e-15 -1.005774e+01 0.000000e+00
    endloop
  endfacet
  facet normal 5.000000e-01 -8.660254e-01 0.000000e+00
    outer loop
      vertex   -4.440892e-15 -1.005774e+01 0.000000e+00
      vertex   8.710254e+00 -5.028868e+00 0.000000e+00
      vertex   8.710254e+00 -5.028868e+00 3.752500e+01
    endloop
  endfacet
  facet normal 5.000000e-01 -8.660254e-01 0.000000e+00
    outer loop
      vertex   -4.440892e-15 -1.005774e+01 0.000000e+00
      vertex   8.710254e+00 -5.028868e+00 3.752500e+01
      vertex   -4.440892e-15 -1.005774e+01 3.752500e+01
    endloop
  endfacet
  facet normal 5.000000e-01 -8.660254e-01 -9.309901e-19
    outer loop
      vertex   -4.440892e-15 -1.005774e+01 3.752500e+01
      vertex   8.710254e+00 -5.028868e+00 3.752500e+01
      vertex   -4.371021e-15 -1.005774e+01 7.505000e+01
    endloop
  endfacet
  facet normal 5.000000e-01 -8.660254e-01 0.000000e+00
    outer loop
      vertex   -4.371021e-15 -1.005774e+01 7.505000e+01
      vertex   8.710254e+00 -5.028868e+00 3.752500e+01
      vertex   8.710254e+00 -5.028868e+00 7.505000e+01
    endloop
  endfacet
  facet normal 5.000000e-01 8.660254e-01 -0.000000e+00
    outer loop
      vertex   8.710254e+00 5.028868e+00 -7.505000e+01
      vertex   3.450172e-16 1.005774e+01 -7.505000e+01
      vertex   8.710254e+00 5.028868e+00 -3.752500e+01
    endloop
  endfacet
  facet normal 5.000000e-01 8.660254e-01 -3.765298e-17
    outer loop
      vertex   8.710254e+00 5.028868e+00 -3.752500e+01
      vertex   3.450172e-16 1.005774e+01 -7.505000e+01
      vertex   5.551115e-16 1.005774e+01 -3.752500e+01
    endloop
  endfacet
  facet normal 5.000000e-01 8.660254e-01 0.000000e+00
    outer loop
      vertex   8.710254e+00 5.028868e+00 -3.752500e+01
      vertex   5.551115e-16 1.005774e+01 -3.752500e+01
      vertex   5.551115e-16 1.005774e+01 0.000000e+00
    endloop
  endfacet
  facet normal 5.000000e-01 8.660254e-01 -0.000000e+00
    outer loop
      vertex   8.710254e+00 5.028868e+00 -3.752500e+01
      vertex   5.551115e-16 1.005774e+01 0.000000e+00
      vertex   8.710254e+00 5.028868e+00 0.000000e+00
    endloop
  endfacet
  facet normal 5.000000e-01 8.660254e-01 0.000000e+00
    outer loop
      vertex   8.710254e+00 5.028868e+00 0.000000e+00
      vertex   5.551115e-16 1.005774e+01 0.000000e+00
      vertex   5.551115e-16 1.005774e+01 3.752500e+01
    endloop
  endfacet
  facet normal 5.000000e-01 8.660254e-01 -0.000000e+00
    outer loop
      vertex   8.710254e+00 5.028868e+00 0.000000e+00
      vertex   5.551115e-16 1.005774e+01 3.752500e+01
      vertex   8.710254e+00 5.028868e+00 3.752500e+01
    endloop
  endfacet
  facet normal 5.000000e-01 8.660254e-01 -0.000000e+00
    outer loop
      vertex   8.710254e+00 5.028868e+00 3.752500e+01
      vertex   5.551115e-16 1.005774e+01 3.752500e+01
      vertex   8.710254e+00 5.028868e+00 7.505000e+01
    endloop
  endfacet
  facet normal 5.000000e-01 8.660254e-01 3.765298e-17
    outer loop
      vertex   8.710254e+00 5.028868e+00 7.505000e+01
      vertex   5.551115e-16 1.005774e+01 3.752500e+01
      vertex   1.599801e-16 1.005774e+01 7.505000e+01
    endloop
  endfacet
  facet normal 1.000000e+00 -5.298480e-16 -4.733796e-17
    outer loop
      vertex   8.710254e+00 -5.028868e+00 -7.505000e+01
      vertex   8.710254e+00 5.028868e+00 -7.505000e+01
      vertex   8.710254e+00 -5.028868e+00 -3.752500e+01
    endloop
  endfacet
  facet normal 1.000000e+00 -3.532320e-16 0.000000e+00
    outer loop
      vertex   8.710254e+00 -5.028868e+00 -3.752500e+01
      vertex   8.710254e+00 5.028868e+00 -7.505000e+01
      vertex   8.710254e+00 5.028868e+00 -3.752500e+01
    endloop
  endfacet
  facet normal 1.000000e+00 -3.532320e-16 0.000000e+00
    outer loop
      vertex   8.710254e+00 -5.028868e+00 -3.752500e+01
      vertex   8.710254e+00 5.028868e+00 -3.752500e+01
      vertex   8.710254e+00 5.028868e+00 0.000000e+00
    endloop
  endfacet
  facet normal 1.000000e+00 -3.532320e-16 0.000000e+00
    outer loop
      vertex   8.710254e+00 -5.028868e+00 -3.752500e+01
      vertex   8.710254e+00 5.028868e+00 0.000000e+00
      vertex   8.710254e+00 -5.028868e+00 0.000000e+00
    endloop
  endfacet
  facet normal 1.000000e+00 -3.532320e-16 0.000000e+00
    outer loop
      vertex   8.710254e+00 -5.028868e+00 0.000000e+00
      vertex   8.710254e+00 5.028868e+00 0.000000e+00
      vertex   8.710254e+00 5.028868e+00 3.752500e+01
    endloop
  endfacet
  facet normal 1.000000e+00 -3.532320e-16 0.000000e+00
    outer loop
      vertex   8.710254e+00 -5.028868e+00 0.000000e+00
      vertex   8.710254e+00 5.028868e+00 3.752500e+01
      vertex   8.710254e+00 -5.028868e+00 3.752500e+01
    endloop
  endfacet
  facet normal 1.000000e+00 -3.532320e-16 0.000000e+00
    outer loop
      vertex   8.710254e+00 -5.028868e+00 3.752500e+01
      vertex   8.710254e+00 5.028868e+00 3.752500e+01
      vertex   8.710254e+00 -5.028868e+00 7.505000e+01
    endloop
  endfacet
  facet normal 1.000000e+00 -3.532320e-16 0.000000e+00
    outer loop
      vertex   8.710254e+00 -5.028868e+00 7.505000e+01
      vertex   8.710254e+00 5.028868e+00 3.752500e+01
      vertex   8.710254e+00 5.028868e+00 7.505000e+01
    endloop
  endfacet
  facet normal -5.000000e-01 8.660254e-01 -3.819648e-17
    outer loop
      vertex   3.450172e-16 1.005774e+01 -7.505000e+01
      vertex   -8.710254e+00 5.028868e+00 -7.505000e+01
      vertex   5.551115e-16 1.005774e+01 -3.752500e+01
    endloop
  endfacet
  facet normal -5.000000e-01 8.660254e-01 0.000000e+00
    outer loop
      vertex   5.551115e-16 1.005774e+01 -3.752500e+01
      vertex   -8.710254e+00 5.028868e+00 -7.505000e+01
      vertex   -8.710254e+00 5.028868e+00 -3.752500e+01
    endloop
  endfacet
  facet normal -5.000000e-01 8.660254e-01 0.000000e+00
    outer loop
      vertex   5.551115e-16 1.005774e+01 -3.752500e+01
      vertex   -8.710254e+00 5.028868e+00 -3.752500e+01
      vertex   -8.710254e+00 5.028868e+00 0.000000e+00
    endloop
  endfacet
  facet normal -5.000000e-01 8.660254e-01 0.000000e+00
    outer loop
      vertex   5.551115e-16 1.005774e+01 -3.752500e+01
      vertex   -8.710254e+00 5.028868e+00 0.000000e+00
      vertex   5.551115e-16 1.005774e+01 0.000000e+00
    endloop
  endfacet
  facet normal -5.000000e-01 8.660254e-01 0.000000e+00
    outer loop
      vertex   5.551115e-16 1.005774e+01 0.000000e+00
      vertex   -8.710254e+00 5.028868e+00 0.000000e+00
      vertex   -8.710254e+00 5.028868e+00 3.752500e+01
    endloop
  endfacet
  facet normal -5.000000e-01 8.660254e-01 0.000000e+00
    outer loop
      vertex   5.551115e-16 1.005774e+01 0.000000e+00
      vertex   -8.710254e+00 5.028868e+00 3.752500e+01
      vertex   5.551115e-16 1.005774e+01 3.752500e+01
    endloop
  endfacet
  facet normal -5.000000e-01 8.660254e-01 3.573096e-17
    outer loop
      vertex   5.551115e-16 1.005774e+01 3.752500e+01
      vertex   -8.710254e+00 5.028868e+00 3.752500e+01
      vertex   1.599801e-16 1.005774e+01 7.505000e+01
    endloop
  endfacet
  facet normal -5.000000e-01 8.660254e-01 0.000000e+00
    outer loop
      vertex   1.599801e-16 1.005774e+01 7.505000e+01
      vertex   -8.710254e+00 5.028868e+00 3.752500e+01
      vertex   -8.710254e+00 5.028868e+00 7.505000e+01
    endloop
  endfacet
  facet normal -0.000000e+00 0.000000e+00 -1.000000e+00
    outer loop
      vertex   8.710254e+00 5.028868e+00 -7.505000e+01
      vertex   -4.786873e-15 -1.005774e+01 -7.505000e+01
      vertex   3.450172e-16 1.005774e+01 -7.505000e+01
    endloop
  endfacet
  facet normal 0.000000e+00 0.000000e+00 -1.000000e+00
    outer loop
      vertex   3.450172e-16 1.005774e+01 -7.505000e+01
      vertex   -4.786873e-15 -1.005774e+01 -7.505000e+01
      vertex   -8.710254e+00 -5.028868e+00 -7.505000e+01
    endloop
  endfacet
  facet normal 0.000000e+00 0.000000e+00 -1.000000e+00
    outer loop
      vertex   3.450172e-16 1.005774e+01 -7.505000e+01
      vertex   -8.710254e+00 -5.028868e+00 -7.505000e+01
      vertex   -8.710254e+00 5.028868e+00 -7.505000e+01
    endloop
  endfacet
  facet normal 0.000000e+00 0.000000e+00 -1.000000e+00
    outer loop
      vertex   8.710254e+00 5.028868e+00 -7.505000e+01
      vertex   8.710254e+00 -5.028868e+00 -7.505000e+01
      vertex   -4.786873e-15 -1.005774e+01 -7.505000e+01
    endloop
  endfacet
  facet normal 1.000000e+00 -1.008148e-16 -5.415722e-16
    outer loop
      vertex   -4.286763e+00 4.468004e+00 7.664000e+01
      vertex   -4.286763e+00 -4.341996e+00 7.664000e+01
      vertex   -4.286763e+00 4.468004e+00 7.500000e+01
    endloop
  endfacet
  facet normal 1.000000e+00 0.000000e+00 0.000000e+00
    outer loop
      vertex   -4.286763e+00 4.468004e+00 7.500000e+01
      vertex   -4.286763e+00 -4.341996e+00 7.664000e+01
      vertex   -4.286763e+00 -4.341996e+00 7.500000e+01
    endloop
  endfacet
  facet normal 0.000000e+00 -1.000000e+00 0.000000e+00
    outer loop
      vertex   -4.286763e+00 4.468004e+00 7.500000e+01
      vertex   4.393237e+00 4.468004e+00 7.500000e+01
      vertex   -4.286763e+00 4.468004e+00 7.664000e+01
    endloop
  endfacet
  facet normal 0.000000e+00 -1.000000e+00 0.000000e+00
    outer loop
      vertex   -4.286763e+00 4.468004e+00 7.664000e+01
      vertex   4.393237e+00 4.468004e+00 7.500000e+01
      vertex   4.393237e+00 4.468004e+00 7.664000e+01
    endloop
  endfacet
  facet normal 0.000000e+00 0.000000e+00 -1.000000e+00
    outer loop
      vertex   4.393237e+00 -4.341996e+00 7.664000e+01
      vertex   -4.286763e+00 -4.341996e+00 7.664000e+01
      vertex   4.393237e+00 4.468004e+00 7.664000e+01
    endloop
  endfacet
  facet normal -0.000000e+00 0.000000e+00 -1.000000e+00
    outer loop
      vertex   4.393237e+00 4.468004e+00 7.664000e+01
      vertex   -4.286763e+00 -4.341996e+00 7.664000e+01
      vertex   -4.286763e+00 4.468004e+00 7.664000e+01
    endloop
  endfacet
  facet normal -0.000000e+00 1.000000e+00 0.000000e+00
    outer loop
      vertex   -4.286763e+00 -4.341996e+00 7.664000e+01
      vertex   4.393237e+00 -4.341996e+00 7.664000e+01
      vertex   -4.286763e+00 -4.341996e+00 7.500000e+01
    endloop
  endfacet
  facet normal 0.000000e+00 1.000000e+00 0.000000e+00
    outer loop
      vertex   -4.286763e+00 -4.341996e+00 7.500000e+01
      vertex   4.393237e+00 -4.341996e+00 7.664000e+01
      vertex   4.393237e+00 -4.341996e+00 7.500000e+01
    endloop
  endfacet
  facet normal -0.000000e+00 0.000000e+00 -1.000000e+00
    outer loop
      vertex   4.393237e+00 -4.341996e+00 7.500000e+01
      vertex   -2.428613e-15 -1.000000e+01 7.500000e+01
      vertex   -4.286763e+00 -4.341996e+00 7.500000e+01
    endloop
  endfacet
  facet normal 0.000000e+00 -0.000000e+00 -1.000000e+00
    outer loop
      vertex   -4.286763e+00 -4.341996e+00 7.500000e+01
      vertex   -2.428613e-15 -1.000000e+01 7.500000e+01
      vertex   -8.660254e+00 -5.000000e+00 7.500000e+01
    endloop
  endfacet
  facet normal -0.000000e+00 0.000000e+00 -1.000000e+00
    outer loop
      vertex   -4.286763e+00 -4.341996e+00 7.500000e+01
      vertex   -8.660254e+00 -5.000000e+00 7.500000e+01
      vertex   -8.660254e+00 5.000000e+00 7.500000e+01
    endloop
  endfacet
  facet normal 0.000000e+00 0.000000e+00 -1.000000e+00
    outer loop
      vertex   4.393237e+00 4.468004e+00 7.500000e+01
      vertex   8.660254e+00 5.000000e+00 7.500000e+01
      vertex   4.393237e+00 -4.341996e+00 7.500000e+01
    endloop
  endfacet
  facet normal 0.000000e+00 0.000000e+00 -1.000000e+00
    outer loop
      vertex   4.393237e+00 -4.341996e+00 7.500000e+01
      vertex   8.660254e+00 5.000000e+00 7.500000e+01
      vertex   8.660254e+00 -5.000000e+00 7.500000e+01
    endloop
  endfacet
  facet normal 0.000000e+00 -0.000000e+00 -1.000000e+00
    outer loop
      vertex   4.393237e+00 -4.341996e+00 7.500000e+01
      vertex   8.660254e+00 -5.000000e+00 7.500000e+01
      vertex   -2.428613e-15 -1.000000e+01 7.500000e+01
    endloop
  endfacet
  facet normal -0.000000e+00 0.000000e+00 -1.000000e+00
    outer loop
      vertex   8.660254e+00 5.000000e+00 7.500000e+01
      vertex   4.393237e+00 4.468004e+00 7.500000e+01
      vertex   0.000000e+00 1.000000e+01 7.500000e+01
    endloop
  endfacet
  facet normal 0.000000e+00 -0.000000e+00 -1.000000e+00
    outer loop
      vertex   0.000000e+00 1.000000e+01 7.500000e+01
      vertex   4.393237e+00 4.468004e+00 7.500000e+01
      vertex   -4.286763e+00 4.468004e+00 7.500000e+01
    endloop
  endfacet
  facet normal 0.000000e+00 0.000000e+00 -1.000000e+00
    outer loop
      vertex   0.000000e+00 1.000000e+01 7.500000e+01
      vertex   -4.286763e+00 4.468004e+00 7.500000e+01
      vertex   -8.660254e+00 5.000000e+00 7.500000e+01
    endloop
  endfacet
  facet normal 0.000000e+00 0.000000e+00 -1.000000e+00
    outer loop
      vertex   -8.660254e+00 5.000000e+00 7.500000e+01
      vertex   -4.286763e+00 4.468004e+00 7.500000e+01
      vertex   -4.286763e+00 -4.341996e+00 7.500000e+01
    endloop
  endfacet
  facet normal -1.000000e+00 0.000000e+00 0.000000e+00
    outer loop
      vertex   4.393237e+00 4.468004e+00 7.500000e+01
      vertex   4.393237e+00 -4.341996e+00 7.500000e+01
      vertex   4.393237e+00 4.468004e+00 7.664000e+01
    endloop
  endfacet
  facet normal -1.000000e+00 -0.000000e+00 0.000000e+00
    outer loop
      vertex   4.393237e+00 4.468004e+00 7.664000e+01
      vertex   4.393237e+00 -4.341996e+00 7.500000e+01
      vertex   4.393237e+00 -4.341996e+00 7.664000e+01
    endloop
  endfacet
  facet normal 1.000000e+00 0.000000e+00 3.552714e-17
    outer loop
      vertex   -8.660254e+00 5.000000e+00 7.500000e+01
      vertex   -8.660254e+00 -5.000000e+00 7.500000e+01
      vertex   -8.660254e+00 5.000000e+00 2.500000e+01
    endloop
  endfacet
  facet normal 1.000000e+00 -3.552714e-16 -3.552714e-17
    outer loop
      vertex   -8.660254e+00 5.000000e+00 2.500000e+01
      vertex   -8.660254e+00 -5.000000e+00 7.500000e+01
      vertex   -8.660254e+00 -5.000000e+00 2.500000e+01
    endloop
  endfacet
  facet normal 1.000000e+00 -3.552714e-16 0.000000e+00
    outer loop
      vertex   -8.660254e+00 5.000000e+00 2.500000e+01
      vertex   -8.660254e+00 -5.000000e+00 2.500000e+01
      vertex   -8.660254e+00 5.000000e+00 -2.500000e+01
    endloop
  endfacet
  facet normal 1.000000e+00 -3.552714e-16 0.000000e+00
    outer loop
      vertex   -8.660254e+00 5.000000e+00 -2.500000e+01
      vertex   -8.660254e+00 -5.000000e+00 2.500000e+01
      vertex   -8.660254e+00 -5.000000e+00 -2.500000e+01
    endloop
  endfacet
  facet normal 1.000000e+00 -3.552714e-16 -3.552714e-17
    outer loop
      vertex   -8.660254e+00 5.000000e+00 -2.500000e+01
      vertex   -8.660254e+00 -5.000000e+00 -2.500000e+01
      vertex   -8.660254e+00 5.000000e+00 -7.500000e+01
    endloop
  endfacet
  facet normal 1.000000e+00 0.000000e+00 3.552714e-17
    outer loop
      vertex   -8.660254e+00 5.000000e+00 -7.500000e+01
      vertex   -8.660254e+00 -5.000000e+00 -2.500000e+01
      vertex   -8.660254e+00 -5.000000e+00 -7.500000e+01
    endloop
  endfacet
  facet normal 5.000000e-01 8.660254e-01 -1.776357e-17
    outer loop
      vertex   -8.660254e+00 -5.000000e+00 7.500000e+01
      vertex   -2.428613e-15 -1.000000e+01 7.500000e+01
      vertex   -8.660254e+00 -5.000000e+00 2.500000e+01
    endloop
  endfacet
  facet normal 5.000000e-01 8.660254e-01 -4.263256e-17
    outer loop
      vertex   -8.660254e+00 -5.000000e+00 2.500000e+01
      vertex   -2.428613e-15 -1.000000e+01 7.500000e+01
      vertex   -4.163336e-15 -1.000000e+01 2.500000e+01
    endloop
  endfacet
  facet normal 5.000000e-01 8.660254e-01 0.000000e+00
    outer loop
      vertex   -8.660254e+00 -5.000000e+00 2.500000e+01
      vertex   -4.163336e-15 -1.000000e+01 2.500000e+01
      vertex   -8.660254e+00 -5.000000e+00 -2.500000e+01
    endloop
  endfacet
  facet normal 5.000000e-01 8.660254e-01 0.000000e+00
    outer loop
      vertex   -8.660254e+00 -5.000000e+00 -2.500000e+01
      vertex   -4.163336e-15 -1.000000e+01 2.500000e+01
      vertex   -4.163336e-15 -1.000000e+01 -2.500000e+01
    endloop
  endfacet
  facet normal 5.000000e-01 8.660254e-01 1.776357e-17
    outer loop
      vertex   -8.660254e+00 -5.000000e+00 -2.500000e+01
      vertex   -4.163336e-15 -1.000000e+01 -2.500000e+01
      vertex   -8.660254e+00 -5.000000e+00 -7.500000e+01
    endloop
  endfacet
  facet normal 5.000000e-01 8.660254e-01 5.684342e-17
    outer loop
      vertex   -8.660254e+00 -5.000000e+00 -7.500000e+01
      vertex   -4.163336e-15 -1.000000e+01 -2.500000e+01
      vertex   -2.428613e-15 -1.000000e+01 -7.500000e+01
    endloop
  endfacet
  facet normal -5.000000e-01 8.660254e-01 -1.342017e-17
    outer loop
      vertex   -2.428613e-15 -1.000000e+01 7.500000e+01
      vertex   8.660254e+00 -5.000000e+00 7.500000e+01
      vertex   -4.163336e-15 -1.000000e+01 2.500000e+01
    endloop
  endfacet
  facet normal -5.000000e-01 8.660254e-01 0.000000e+00
    outer loop
      vertex   -4.163336e-15 -1.000000e+01 2.500000e+01
      vertex   8.660254e+00 -5.000000e+00 7.500000e+01
      vertex   8.660254e+00 -5.000000e+00 2.500000e+01
    endloop
  endfacet
  facet normal -5.000000e-01 8.660254e-01 0.000000e+00
    outer loop
      vertex   -4.163336e-15 -1.000000e+01 2.500000e+01
      vertex   8.660254e+00 -5.000000e+00 2.500000e+01
      vertex   -4.163336e-15 -1.000000e+01 -2.500000e+01
    endloop
  endfacet
  facet normal -5.000000e-01 8.660254e-01 0.000000e+00
    outer loop
      vertex   -4.163336e-15 -1.000000e+01 -2.500000e+01
      vertex   8.660254e+00 -5.000000e+00 2.500000e+01
      vertex   8.660254e+00 -5.000000e+00 -2.500000e+01
    endloop
  endfacet
  facet normal -5.000000e-01 8.660254e-01 1.342017e-17
    outer loop
      vertex   -4.163336e-15 -1.000000e+01 -2.500000e+01
      vertex   8.660254e+00 -5.000000e+00 -2.500000e+01
      vertex   -2.428613e-15 -1.000000e+01 -7.500000e+01
    endloop
  endfacet
  facet normal -5.000000e-01 8.660254e-01 0.000000e+00
    outer loop
      vertex   -2.428613e-15 -1.000000e+01 -7.500000e+01
      vertex   8.660254e+00 -5.000000e+00 -2.500000e+01
      vertex   8.660254e+00 -5.000000e+00 -7.500000e+01
    endloop
  endfacet
  facet normal -5.000000e-01 -8.660254e-01 -4.615110e-17
    outer loop
      vertex   8.660254e+00 5.000000e+00 7.500000e+01
      vertex   0.000000e+00 1.000000e+01 7.500000e+01
      vertex   8.660254e+00 5.000000e+00 2.500000e+01
    endloop
  endfacet
  facet normal -5.000000e-01 -8.660254e-01 0.000000e+00
    outer loop
      vertex   8.660254e+00 5.000000e+00 2.500000e+01
      vertex   0.000000e+00 1.000000e+01 7.500000e+01
      vertex   -5.551115e-16 1.000000e+01 2.500000e+01
    endloop
  endfacet
  facet normal -5.000000e-01 -8.660254e-01 -0.000000e+00
    outer loop
      vertex   8.660254e+00 5.000000e+00 2.500000e+01
      vertex   -5.551115e-16 1.000000e+01 2.500000e+01
      vertex   8.660254e+00 5.000000e+00 -2.500000e+01
    endloop
  endfacet
  facet normal -5.000000e-01 -8.660254e-01 0.000000e+00
    outer loop
      vertex   8.660254e+00 5.000000e+00 -2.500000e+01
      vertex   -5.551115e-16 1.000000e+01 2.500000e+01
      vertex   -5.551115e-16 1.000000e+01 -2.500000e+01
    endloop
  endfacet
  facet normal -5.000000e-01 -8.660254e-01 4.615110e-17
    outer loop
      vertex   8.660254e+00 5.000000e+00 -2.500000e+01
      vertex   -5.551115e-16 1.000000e+01 -2.500000e+01
      vertex   8.660254e+00 5.000000e+00 -7.500000e+01
    endloop
  endfacet
  facet normal -5.000000e-01 -8.660254e-01 0.000000e+00
    outer loop
      vertex   8.660254e+00 5.000000e+00 -7.500000e+01
      vertex   -5.551115e-16 1.000000e+01 -2.500000e+01
      vertex   0.000000e+00 1.000000e+01 -7.500000e+01
    endloop
  endfacet
  facet normal -1.000000e+00 3.552714e-16 0.000000e+00
    outer loop
      vertex   8.660254e+00 -5.000000e+00 7.500000e+01
      vertex   8.660254e+00 5.000000e+00 7.500000e+01
      vertex   8.660254e+00 -5.000000e+00 2.500000e+01
    endloop
  endfacet
  facet normal -1.000000e+00 3.552714e-16 2.524355e-32
    outer loop
      vertex   8.660254e+00 -5.000000e+00 2.500000e+01
      vertex   8.660254e+00 5.000000e+00 7.500000e+01
      vertex   8.660254e+00 5.000000e+00 2.500000e+01
    endloop
  endfacet
  facet normal -1.000000e+00 3.552714e-16 0.000000e+00
    outer loop
      vertex   8.660254e+00 -5.000000e+00 2.500000e+01
      vertex   8.660254e+00 5.000000e+00 2.500000e+01
      vertex   8.660254e+00 -5.000000e+00 -2.500000e+01
    endloop
  endfacet
  facet normal -1.000000e+00 3.552714e-16 0.000000e+00
    outer loop
      vertex   8.660254e+00 -5.000000e+00 -2.500000e+01
      vertex   8.660254e+00 5.000000e+00 2.500000e+01
      vertex   8.660254e+00 5.000000e+00 -2.500000e+01
    endloop
  endfacet
  facet normal -1.000000e+00 3.552714e-16 0.000000e+00
    outer loop
      vertex   8.660254e+00 -5.000000e+00 -2.500000e+01
      vertex   8.660254e+00 5.000000e+00 -2.500000e+01
      vertex   8.660254e+00 -5.000000e+00 -7.500000e+01
    endloop
  endfacet
  facet normal -1.000000e+00 3.552714e-16 -2.524355e-32
    outer loop
      vertex   8.660254e+00 -5.000000e+00 -7.500000e+01
      vertex   8.660254e+00 5.000000e+00 -2.500000e+01
      vertex   8.660254e+00 5.000000e+00 -7.500000e+01
    endloop
  endfacet
  facet normal 5.000000e-01 -8.660254e-01 -5.551115e-18
    outer loop
      vertex   0.000000e+00 1.000000e+01 7.500000e+01
      vertex   -8.660254e+00 5.000000e+00 7.500000e+01
      vertex   -5.551115e-16 1.000000e+01 2.500000e+01
    endloop
  endfacet
  facet normal 5.000000e-01 -8.660254e-01 4.263256e-17
    outer loop
      vertex   -5.551115e-16 1.000000e+01 2.500000e+01
      vertex   -8.660254e+00 5.000000e+00 7.500000e+01
      vertex   -8.660254e+00 5.000000e+00 2.500000e+01
    endloop
  endfacet
  facet normal 5.000000e-01 -8.660254e-01 0.000000e+00
    outer loop
      vertex   -5.551115e-16 1.000000e+01 2.500000e+01
      vertex   -8.660254e+00 5.000000e+00 2.500000e+01
      vertex   -5.551115e-16 1.000000e+01 -2.500000e+01
    endloop
  endfacet
  facet normal 5.000000e-01 -8.660254e-01 0.000000e+00
    outer loop
      vertex   -5.551115e-16 1.000000e+01 -2.500000e+01
      vertex   -8.660254e+00 5.000000e+00 2.500000e+01
      vertex   -8.660254e+00 5.000000e+00 -2.500000e+01
    endloop
  endfacet
  facet normal 5.000000e-01 -8.660254e-01 5.551115e-18
    outer loop
      vertex   -5.551115e-16 1.000000e+01 -2.500000e+01
      vertex   -8.660254e+00 5.000000e+00 -2.500000e+01
      vertex   0.000000e+00 1.000000e+01 -7.500000e+01
    endloop
  endfacet
  facet normal 5.000000e-01 -8.660254e-01 -4.263256e-17
    outer loop
      vertex   0.000000e+00 1.000000e+01 -7.500000e+01
      vertex   -8.660254e+00 5.000000e+00 -2.500000e+01
      vertex   -8.660254e+00 5.000000e+00 -7.500000e+01
    endloop
  endfacet
  facet normal 0.000000e+00 0.000000e+00 1.000000e+00
    outer loop
      vertex   8.660254e+00 5.000000e+00 -7.500000e+01
      vertex   0.000000e+00 1.000000e+01 -7.500000e+01
      vertex   8.660254e+00 -5.000000e+00 -7.500000e+01
    endloop
  endfacet
  facet normal 0.000000e+00 0.000000e+00 1.000000e+00
    outer loop
      vertex   8.660254e+00 -5.000000e+00 -7.500000e+01
      vertex   0.000000e+00 1.000000e+01 -7.500000e+01
      vertex   -2.428613e-15 -1.000000e+01 -7.500000e+01
    endloop
  endfacet
  facet normal 0.000000e+00 -0.000000e+00 1.000000e+00
    outer loop
      vertex   -2.428613e-15 -1.000000e+01 -7.500000e+01
      vertex   0.000000e+00 1.000000e+01 -7.500000e+01
      vertex   -8.660254e+00 5.000000e+00 -7.500000e+01
    endloop
  endfacet
  facet normal 0.000000e+00 0.000000e+00 1.000000e+00
    outer loop
      vertex   -2.428613e-15 -1.000000e+01 -7.500000e+01
      vertex   -8.660254e+00 5.000000e+00 -7.500000e+01
      vertex   -8.660254e+00 -5.000000e+00 -7.500000e+01
    endloop
  endfacet
endsolid
