solid ASCII
  facet normal -0.000000e+00 0.000000e+00 -1.000000e+00
    outer loop
      vertex   1.732051e+01 1.000000e+01 -2.500000e+01
      vertex   5.480269e-12 -2.000000e+01 -2.500000e+01
      vertex   5.486375e-12 2.000000e+01 -2.500000e+01
    endloop
  endfacet
  facet normal 0.000000e+00 0.000000e+00 -1.000000e+00
    outer loop
      vertex   5.486375e-12 2.000000e+01 -2.500000e+01
      vertex   5.480269e-12 -2.000000e+01 -2.500000e+01
      vertex   -1.732051e+01 -1.000000e+01 -2.500000e+01
    endloop
  endfacet
  facet normal 0.000000e+00 0.000000e+00 -1.000000e+00
    outer loop
      vertex   5.486375e-12 2.000000e+01 -2.500000e+01
      vertex   -1.732051e+01 -1.000000e+01 -2.500000e+01
      vertex   -1.732051e+01 1.000000e+01 -2.500000e+01
    endloop
  endfacet
  facet normal 0.000000e+00 0.000000e+00 -1.000000e+00
    outer loop
      vertex   1.732051e+01 1.000000e+01 -2.500000e+01
      vertex   1.732051e+01 -1.000000e+01 -2.500000e+01
      vertex   5.480269e-12 -2.000000e+01 -2.500000e+01
    endloop
  endfacet
  facet normal 1.000000e+00 -5.329071e-16 0.000000e+00
    outer loop
      vertex   1.732051e+01 1.000000e+01 -2.500000e+01
      vertex   1.732051e+01 1.000000e+01 2.500000e+01
      vertex   1.732051e+01 -1.000000e+01 -2.500000e+01
    endloop
  endfacet
  facet normal 1.000000e+00 -5.329071e-16 0.000000e+00
    outer loop
      vertex   1.732051e+01 -1.000000e+01 -2.500000e+01
      vertex   1.732051e+01 1.000000e+01 2.500000e+01
      vertex   1.732051e+01 -1.000000e+01 2.500000e+01
    endloop
  endfacet
  facet normal 5.000000e-01 -8.660254e-01 0.000000e+00
    outer loop
      vertex   1.732051e+01 -1.000000e+01 -2.500000e+01
      vertex   1.732051e+01 -1.000000e+01 2.500000e+01
      vertex   5.480269e-12 -2.000000e+01 -2.500000e+01
    endloop
  endfacet
  facet normal 5.000000e-01 -8.660254e-01 0.000000e+00
    outer loop
      vertex   5.480269e-12 -2.000000e+01 -2.500000e+01
      vertex   1.732051e+01 -1.000000e+01 2.500000e+01
      vertex   5.480269e-12 -2.000000e+01 2.500000e+01
    endloop
  endfacet
  facet normal -5.000000e-01 -8.660254e-01 0.000000e+00
    outer loop
      vertex   5.480269e-12 -2.000000e+01 -2.500000e+01
      vertex   5.480269e-12 -2.000000e+01 2.500000e+01
      vertex   -1.732051e+01 -1.000000e+01 -2.500000e+01
    endloop
  endfacet
  facet normal -5.000000e-01 -8.660254e-01 0.000000e+00
    outer loop
      vertex   -1.732051e+01 -1.000000e+01 -2.500000e+01
      vertex   5.480269e-12 -2.000000e+01 2.500000e+01
      vertex   -1.732051e+01 -1.000000e+01 2.500000e+01
    endloop
  endfacet
  facet normal -1.000000e+00 0.000000e+00 0.000000e+00
    outer loop
      vertex   -1.732051e+01 -1.000000e+01 -2.500000e+01
      vertex   -1.732051e+01 -1.000000e+01 2.500000e+01
      vertex   -1.732051e+01 1.000000e+01 -2.500000e+01
    endloop
  endfacet
  facet normal -1.000000e+00 0.000000e+00 0.000000e+00
    outer loop
      vertex   -1.732051e+01 1.000000e+01 -2.500000e+01
      vertex   -1.732051e+01 -1.000000e+01 2.500000e+01
      vertex   -1.732051e+01 1.000000e+01 2.500000e+01
    endloop
  endfacet
  facet normal -5.000000e-01 8.660254e-01 0.000000e+00
    outer loop
      vertex   -1.732051e+01 1.000000e+01 -2.500000e+01
      vertex   -1.732051e+01 1.000000e+01 2.500000e+01
      vertex   5.486375e-12 2.000000e+01 -2.500000e+01
    endloop
  endfacet
  facet normal -5.000000e-01 8.660254e-01 0.000000e+00
    outer loop
      vertex   5.486375e-12 2.000000e+01 -2.500000e+01
      vertex   -1.732051e+01 1.000000e+01 2.500000e+01
      vertex   5.486375e-12 2.000000e+01 2.500000e+01
    endloop
  endfacet
  facet normal 5.000000e-01 8.660254e-01 -0.000000e+00
    outer loop
      vertex   5.486375e-12 2.000000e+01 -2.500000e+01
      vertex   5.486375e-12 2.000000e+01 2.500000e+01
      vertex   1.732051e+01 1.000000e+01 -2.500000e+01
    endloop
  endfacet
  facet normal 5.000000e-01 8.660254e-01 -0.000000e+00
    outer loop
      vertex   1.732051e+01 1.000000e+01 -2.500000e+01
      vertex   5.486375e-12 2.000000e+01 2.500000e+01
      vertex   1.732051e+01 1.000000e+01 2.500000e+01
    endloop
  endfacet
  facet normal 0.000000e+00 0.000000e+00 1.000000e+00
    outer loop
      vertex   1.732051e+01 1.000000e+01 2.500000e+01
      vertex   5.486375e-12 2.000000e+01 2.500000e+01
      vertex   1.732051e+01 -1.000000e+01 2.500000e+01
    endloop
  endfacet
  facet normal 0.000000e+00 0.000000e+00 1.000000e+00
    outer loop
      vertex   1.732051e+01 -1.000000e+01 2.500000e+01
      vertex   5.486375e-12 2.000000e+01 2.500000e+01
      vertex   5.480269e-12 -2.000000e+01 2.500000e+01
    endloop
  endfacet
  facet normal 0.000000e+00 -0.000000e+00 1.000000e+00
    outer loop
      vertex   5.480269e-12 -2.000000e+01 2.500000e+01
      vertex   5.486375e-12 2.000000e+01 2.500000e+01
      vertex   -1.732051e+01 1.000000e+01 2.500000e+01
    endloop
  endfacet
  facet normal 0.000000e+00 0.000000e+00 1.000000e+00
    outer loop
      vertex   5.480269e-12 -2.000000e+01 2.500000e+01
      vertex   -1.732051e+01 1.000000e+01 2.500000e+01
      vertex   -1.732051e+01 -1.000000e+01 2.500000e+01
    endloop
  endfacet
endsolid
