solid ASCII
  facet normal -1.000000e+00 0.000000e+00 0.000000e+00
    outer loop
      vertex   -4.336763e+00 -4.391996e+00 7.669000e+01
      vertex   -4.336763e+00 4.518004e+00 7.669000e+01
      vertex   -4.336763e+00 -4.391996e+00 7.505000e+01
    endloop
  endfacet
  facet normal -1.000000e+00 0.000000e+00 0.000000e+00
    outer loop
      vertex   -4.336763e+00 -4.391996e+00 7.505000e+01
      vertex   -4.336763e+00 4.518004e+00 7.669000e+01
      vertex   -4.336763e+00 4.518004e+00 7.505000e+01
    endloop
  endfacet
  facet normal 0.000000e+00 1.000000e+00 -0.000000e+00
    outer loop
      vertex   4.443237e+00 4.518004e+00 7.505000e+01
      vertex   -4.336763e+00 4.518004e+00 7.505000e+01
      vertex   4.443237e+00 4.518004e+00 7.669000e+01
    endloop
  endfacet
  facet normal 0.000000e+00 1.000000e+00 0.000000e+00
    outer loop
      vertex   4.443237e+00 4.518004e+00 7.669000e+01
      vertex   -4.336763e+00 4.518004e+00 7.505000e+01
      vertex   -4.336763e+00 4.518004e+00 7.669000e+01
    endloop
  endfacet
  facet normal 0.000000e+00 0.000000e+00 1.000000e+00
    outer loop
      vertex   -4.336763e+00 -4.391996e+00 7.669000e+01
      vertex   4.443237e+00 -4.391996e+00 7.669000e+01
      vertex   -4.336763e+00 4.518004e+00 7.669000e+01
    endloop
  endfacet
  facet normal -0.000000e+00 0.000000e+00 1.000000e+00
    outer loop
      vertex   -4.336763e+00 4.518004e+00 7.669000e+01
      vertex   4.443237e+00 -4.391996e+00 7.669000e+01
      vertex   4.443237e+00 4.518004e+00 7.669000e+01
    endloop
  endfacet
  facet normal -0.000000e+00 -1.000000e+00 -0.000000e+00
    outer loop
      vertex   4.443237e+00 -4.391996e+00 7.669000e+01
      vertex   -4.336763e+00 -4.391996e+00 7.669000e+01
      vertex   4.443237e+00 -4.391996e+00 7.505000e+01
    endloop
  endfacet
  facet normal 0.000000e+00 -1.000000e+00 0.000000e+00
    outer loop
      vertex   4.443237e+00 -4.391996e+00 7.505000e+01
      vertex   -4.336763e+00 -4.391996e+00 7.669000e+01
      vertex   -4.336763e+00 -4.391996e+00 7.505000e+01
    endloop
  endfacet
  facet normal -0.000000e+00 0.000000e+00 1.000000e+00
    outer loop
      vertex   -4.336763e+00 -4.391996e+00 7.505000e+01
      vertex   -8.673600e-15 -1.755774e+01 7.505000e+01
      vertex   4.443237e+00 -4.391996e+00 7.505000e+01
    endloop
  endfacet
  facet normal 0.000000e+00 0.000000e+00 1.000000e+00
    outer loop
      vertex   4.443237e+00 -4.391996e+00 7.505000e+01
      vertex   -8.673600e-15 -1.755774e+01 7.505000e+01
      vertex   1.520544e+01 -8.778868e+00 7.505000e+01
    endloop
  endfacet
  facet normal -0.000000e+00 0.000000e+00 1.000000e+00
    outer loop
      vertex   4.443237e+00 -4.391996e+00 7.505000e+01
      vertex   1.520544e+01 -8.778868e+00 7.505000e+01
      vertex   1.520544e+01 8.778868e+00 7.505000e+01
    endloop
  endfacet
  facet normal 0.000000e+00 0.000000e+00 1.000000e+00
    outer loop
      vertex   -4.336763e+00 4.518004e+00 7.505000e+01
      vertex   -1.520544e+01 8.778868e+00 7.505000e+01
      vertex   -4.336763e+00 -4.391996e+00 7.505000e+01
    endloop
  endfacet
  facet normal 0.000000e+00 0.000000e+00 1.000000e+00
    outer loop
      vertex   -4.336763e+00 -4.391996e+00 7.505000e+01
      vertex   -1.520544e+01 8.778868e+00 7.505000e+01
      vertex   -1.520544e+01 -8.778868e+00 7.505000e+01
    endloop
  endfacet
  facet normal 0.000000e+00 0.000000e+00 1.000000e+00
    outer loop
      vertex   -4.336763e+00 -4.391996e+00 7.505000e+01
      vertex   -1.520544e+01 -8.778868e+00 7.505000e+01
      vertex   -8.673600e-15 -1.755774e+01 7.505000e+01
    endloop
  endfacet
  facet normal -0.000000e+00 0.000000e+00 1.000000e+00
    outer loop
      vertex   -1.520544e+01 8.778868e+00 7.505000e+01
      vertex   -4.336763e+00 4.518004e+00 7.505000e+01
      vertex   9.054114e-16 1.755774e+01 7.505000e+01
    endloop
  endfacet
  facet normal 0.000000e+00 0.000000e+00 1.000000e+00
    outer loop
      vertex   9.054114e-16 1.755774e+01 7.505000e+01
      vertex   -4.336763e+00 4.518004e+00 7.505000e+01
      vertex   4.443237e+00 4.518004e+00 7.505000e+01
    endloop
  endfacet
  facet normal 0.000000e+00 0.000000e+00 1.000000e+00
    outer loop
      vertex   9.054114e-16 1.755774e+01 7.505000e+01
      vertex   4.443237e+00 4.518004e+00 7.505000e+01
      vertex   1.520544e+01 8.778868e+00 7.505000e+01
    endloop
  endfacet
  facet normal 0.000000e+00 0.000000e+00 1.000000e+00
    outer loop
      vertex   1.520544e+01 8.778868e+00 7.505000e+01
      vertex   4.443237e+00 4.518004e+00 7.505000e+01
      vertex   4.443237e+00 -4.391996e+00 7.505000e+01
    endloop
  endfacet
  facet normal 1.000000e+00 0.000000e+00 0.000000e+00
    outer loop
      vertex   4.443237e+00 -4.391996e+00 7.505000e+01
      vertex   4.443237e+00 4.518004e+00 7.505000e+01
      vertex   4.443237e+00 -4.391996e+00 7.669000e+01
    endloop
  endfacet
  facet normal 1.000000e+00 -0.000000e+00 0.000000e+00
    outer loop
      vertex   4.443237e+00 -4.391996e+00 7.669000e+01
      vertex   4.443237e+00 4.518004e+00 7.505000e+01
      vertex   4.443237e+00 4.518004e+00 7.669000e+01
    endloop
  endfacet
  facet normal -1.000000e+00 0.000000e+00 0.000000e+00
    outer loop
      vertex   -1.520544e+01 8.778868e+00 -7.505000e+01
      vertex   -1.520544e+01 -8.778868e+00 -7.505000e+01
      vertex   -1.520544e+01 8.778868e+00 -3.752500e+01
    endloop
  endfacet
  facet normal -1.000000e+00 1.011723e-16 -4.733796e-17
    outer loop
      vertex   -1.520544e+01 8.778868e+00 -3.752500e+01
      vertex   -1.520544e+01 -8.778868e+00 -7.505000e+01
      vertex   -1.520544e+01 -8.778868e+00 -3.752500e+01
    endloop
  endfacet
  facet normal -1.000000e+00 1.011723e-16 0.000000e+00
    outer loop
      vertex   -1.520544e+01 8.778868e+00 -3.752500e+01
      vertex   -1.520544e+01 -8.778868e+00 -3.752500e+01
      vertex   -1.520544e+01 -8.778868e+00 0.000000e+00
    endloop
  endfacet
  facet normal -1.000000e+00 1.011723e-16 0.000000e+00
    outer loop
      vertex   -1.520544e+01 8.778868e+00 -3.752500e+01
      vertex   -1.520544e+01 -8.778868e+00 0.000000e+00
      vertex   -1.520544e+01 8.778868e+00 0.000000e+00
    endloop
  endfacet
  facet normal -1.000000e+00 1.011723e-16 0.000000e+00
    outer loop
      vertex   -1.520544e+01 8.778868e+00 0.000000e+00
      vertex   -1.520544e+01 -8.778868e+00 0.000000e+00
      vertex   -1.520544e+01 -8.778868e+00 3.752500e+01
    endloop
  endfacet
  facet normal -1.000000e+00 1.011723e-16 0.000000e+00
    outer loop
      vertex   -1.520544e+01 8.778868e+00 0.000000e+00
      vertex   -1.520544e+01 -8.778868e+00 3.752500e+01
      vertex   -1.520544e+01 8.778868e+00 3.752500e+01
    endloop
  endfacet
  facet normal -1.000000e+00 1.011723e-16 4.789291e-33
    outer loop
      vertex   -1.520544e+01 8.778868e+00 3.752500e+01
      vertex   -1.520544e+01 -8.778868e+00 3.752500e+01
      vertex   -1.520544e+01 8.778868e+00 7.505000e+01
    endloop
  endfacet
  facet normal -1.000000e+00 1.011723e-16 0.000000e+00
    outer loop
      vertex   -1.520544e+01 8.778868e+00 7.505000e+01
      vertex   -1.520544e+01 -8.778868e+00 3.752500e+01
      vertex   -1.520544e+01 -8.778868e+00 7.505000e+01
    endloop
  endfacet
  facet normal -5.000000e-01 -8.660254e-01 -2.366898e-17
    outer loop
      vertex   -1.520544e+01 -8.778868e+00 -7.505000e+01
      vertex   -7.835774e-15 -1.755774e+01 -7.505000e+01
      vertex   -1.520544e+01 -8.778868e+00 -3.752500e+01
    endloop
  endfacet
  facet normal -5.000000e-01 -8.660254e-01 -8.627620e-17
    outer loop
      vertex   -1.520544e+01 -8.778868e+00 -3.752500e+01
      vertex   -7.835774e-15 -1.755774e+01 -7.505000e+01
      vertex   -7.216450e-15 -1.755774e+01 -3.752500e+01
    endloop
  endfacet
  facet normal -5.000000e-01 -8.660254e-01 0.000000e+00
    outer loop
      vertex   -1.520544e+01 -8.778868e+00 -3.752500e+01
      vertex   -7.216450e-15 -1.755774e+01 -3.752500e+01
      vertex   -7.216450e-15 -1.755774e+01 0.000000e+00
    endloop
  endfacet
  facet normal -5.000000e-01 -8.660254e-01 0.000000e+00
    outer loop
      vertex   -1.520544e+01 -8.778868e+00 -3.752500e+01
      vertex   -7.216450e-15 -1.755774e+01 0.000000e+00
      vertex   -1.520544e+01 -8.778868e+00 0.000000e+00
    endloop
  endfacet
  facet normal -5.000000e-01 -8.660254e-01 0.000000e+00
    outer loop
      vertex   -1.520544e+01 -8.778868e+00 0.000000e+00
      vertex   -7.216450e-15 -1.755774e+01 0.000000e+00
      vertex   -7.216450e-15 -1.755774e+01 3.752500e+01
    endloop
  endfacet
  facet normal -5.000000e-01 -8.660254e-01 0.000000e+00
    outer loop
      vertex   -1.520544e+01 -8.778868e+00 0.000000e+00
      vertex   -7.216450e-15 -1.755774e+01 3.752500e+01
      vertex   -1.520544e+01 -8.778868e+00 3.752500e+01
    endloop
  endfacet
  facet normal -5.000000e-01 -8.660254e-01 0.000000e+00
    outer loop
      vertex   -1.520544e+01 -8.778868e+00 3.752500e+01
      vertex   -7.216450e-15 -1.755774e+01 3.752500e+01
      vertex   -1.520544e+01 -8.778868e+00 7.505000e+01
    endloop
  endfacet
  facet normal -5.000000e-01 -8.660254e-01 4.313810e-17
    outer loop
      vertex   -1.520544e+01 -8.778868e+00 7.505000e+01
      vertex   -7.216450e-15 -1.755774e+01 3.752500e+01
      vertex   -8.673600e-15 -1.755774e+01 7.505000e+01
    endloop
  endfacet
  facet normal 5.000000e-01 -8.660254e-01 -9.024391e-17
    outer loop
      vertex   -7.835774e-15 -1.755774e+01 -7.505000e+01
      vertex   1.520544e+01 -8.778868e+00 -7.505000e+01
      vertex   -7.216450e-15 -1.755774e+01 -3.752500e+01
    endloop
  endfacet
  facet normal 5.000000e-01 -8.660254e-01 0.000000e+00
    outer loop
      vertex   -7.216450e-15 -1.755774e+01 -3.752500e+01
      vertex   1.520544e+01 -8.778868e+00 -7.505000e+01
      vertex   1.520544e+01 -8.778868e+00 -3.752500e+01
    endloop
  endfacet
  facet normal 5.000000e-01 -8.660254e-01 0.000000e+00
    outer loop
      vertex   -7.216450e-15 -1.755774e+01 -3.752500e+01
      vertex   1.520544e+01 -8.778868e+00 -3.752500e+01
      vertex   1.520544e+01 -8.778868e+00 0.000000e+00
    endloop
  endfacet
  facet normal 5.000000e-01 -8.660254e-01 0.000000e+00
    outer loop
      vertex   -7.216450e-15 -1.755774e+01 -3.752500e+01
      vertex   1.520544e+01 -8.778868e+00 0.000000e+00
      vertex   -7.216450e-15 -1.755774e+01 0.000000e+00
    endloop
  endfacet
  facet normal 5.000000e-01 -8.660254e-01 0.000000e+00
    outer loop
      vertex   -7.216450e-15 -1.755774e+01 0.000000e+00
      vertex   1.520544e+01 -8.778868e+00 0.000000e+00
      vertex   1.520544e+01 -8.778868e+00 3.752500e+01
    endloop
  endfacet
  facet normal 5.000000e-01 -8.660254e-01 0.000000e+00
    outer loop
      vertex   -7.216450e-15 -1.755774e+01 0.000000e+00
      vertex   1.520544e+01 -8.778868e+00 3.752500e+01
      vertex   -7.216450e-15 -1.755774e+01 3.752500e+01
    endloop
  endfacet
  facet normal 5.000000e-01 -8.660254e-01 1.014075e-16
    outer loop
      vertex   -7.216450e-15 -1.755774e+01 3.752500e+01
      vertex   1.520544e+01 -8.778868e+00 3.752500e+01
      vertex   -8.673600e-15 -1.755774e+01 7.505000e+01
    endloop
  endfacet
  facet normal 5.000000e-01 -8.660254e-01 0.000000e+00
    outer loop
      vertex   -8.673600e-15 -1.755774e+01 7.505000e+01
      vertex   1.520544e+01 -8.778868e+00 3.752500e+01
      vertex   1.520544e+01 -8.778868e+00 7.505000e+01
    endloop
  endfacet
  facet normal 5.000000e-01 8.660254e-01 -0.000000e+00
    outer loop
      vertex   1.520544e+01 8.778868e+00 -7.505000e+01
      vertex   1.760352e-15 1.755774e+01 -7.505000e+01
      vertex   1.520544e+01 8.778868e+00 -3.752500e+01
    endloop
  endfacet
  facet normal 5.000000e-01 8.660254e-01 -8.627620e-17
    outer loop
      vertex   1.520544e+01 8.778868e+00 -3.752500e+01
      vertex   1.760352e-15 1.755774e+01 -7.505000e+01
      vertex   1.665335e-15 1.755774e+01 -3.752500e+01
    endloop
  endfacet
  facet normal 5.000000e-01 8.660254e-01 0.000000e+00
    outer loop
      vertex   1.520544e+01 8.778868e+00 -3.752500e+01
      vertex   1.665335e-15 1.755774e+01 -3.752500e+01
      vertex   1.665335e-15 1.755774e+01 0.000000e+00
    endloop
  endfacet
  facet normal 5.000000e-01 8.660254e-01 -0.000000e+00
    outer loop
      vertex   1.520544e+01 8.778868e+00 -3.752500e+01
      vertex   1.665335e-15 1.755774e+01 0.000000e+00
      vertex   1.520544e+01 8.778868e+00 0.000000e+00
    endloop
  endfacet
  facet normal 5.000000e-01 8.660254e-01 0.000000e+00
    outer loop
      vertex   1.520544e+01 8.778868e+00 0.000000e+00
      vertex   1.665335e-15 1.755774e+01 0.000000e+00
      vertex   1.665335e-15 1.755774e+01 3.752500e+01
    endloop
  endfacet
  facet normal 5.000000e-01 8.660254e-01 -0.000000e+00
    outer loop
      vertex   1.520544e+01 8.778868e+00 0.000000e+00
      vertex   1.665335e-15 1.755774e+01 3.752500e+01
      vertex   1.520544e+01 8.778868e+00 3.752500e+01
    endloop
  endfacet
  facet normal 5.000000e-01 8.660254e-01 -0.000000e+00
    outer loop
      vertex   1.520544e+01 8.778868e+00 3.752500e+01
      vertex   1.665335e-15 1.755774e+01 3.752500e+01
      vertex   1.520544e+01 8.778868e+00 7.505000e+01
    endloop
  endfacet
  facet normal 5.000000e-01 8.660254e-01 8.627620e-17
    outer loop
      vertex   1.520544e+01 8.778868e+00 7.505000e+01
      vertex   1.665335e-15 1.755774e+01 3.752500e+01
      vertex   9.054114e-16 1.755774e+01 7.505000e+01
    endloop
  endfacet
  facet normal 1.000000e+00 -4.046893e-16 0.000000e+00
    outer loop
      vertex   1.520544e+01 -8.778868e+00 -7.505000e+01
      vertex   1.520544e+01 8.778868e+00 -7.505000e+01
      vertex   1.520544e+01 -8.778868e+00 -3.752500e+01
    endloop
  endfacet
  facet normal 1.000000e+00 -4.046893e-16 0.000000e+00
    outer loop
      vertex   1.520544e+01 -8.778868e+00 -3.752500e+01
      vertex   1.520544e+01 8.778868e+00 -7.505000e+01
      vertex   1.520544e+01 8.778868e+00 -3.752500e+01
    endloop
  endfacet
  facet normal 1.000000e+00 -4.046893e-16 0.000000e+00
    outer loop
      vertex   1.520544e+01 -8.778868e+00 -3.752500e+01
      vertex   1.520544e+01 8.778868e+00 -3.752500e+01
      vertex   1.520544e+01 8.778868e+00 0.000000e+00
    endloop
  endfacet
  facet normal 1.000000e+00 -4.046893e-16 0.000000e+00
    outer loop
      vertex   1.520544e+01 -8.778868e+00 -3.752500e+01
      vertex   1.520544e+01 8.778868e+00 0.000000e+00
      vertex   1.520544e+01 -8.778868e+00 0.000000e+00
    endloop
  endfacet
  facet normal 1.000000e+00 -4.046893e-16 0.000000e+00
    outer loop
      vertex   1.520544e+01 -8.778868e+00 0.000000e+00
      vertex   1.520544e+01 8.778868e+00 0.000000e+00
      vertex   1.520544e+01 8.778868e+00 3.752500e+01
    endloop
  endfacet
  facet normal 1.000000e+00 -4.046893e-16 0.000000e+00
    outer loop
      vertex   1.520544e+01 -8.778868e+00 0.000000e+00
      vertex   1.520544e+01 8.778868e+00 3.752500e+01
      vertex   1.520544e+01 -8.778868e+00 3.752500e+01
    endloop
  endfacet
  facet normal 1.000000e+00 -4.046893e-16 4.733796e-17
    outer loop
      vertex   1.520544e+01 -8.778868e+00 3.752500e+01
      vertex   1.520544e+01 8.778868e+00 3.752500e+01
      vertex   1.520544e+01 -8.778868e+00 7.505000e+01
    endloop
  endfacet
  facet normal 1.000000e+00 -5.058616e-16 0.000000e+00
    outer loop
      vertex   1.520544e+01 -8.778868e+00 7.505000e+01
      vertex   1.520544e+01 8.778868e+00 3.752500e+01
      vertex   1.520544e+01 8.778868e+00 7.505000e+01
    endloop
  endfacet
  facet normal -5.000000e-01 8.660254e-01 -8.325780e-17
    outer loop
      vertex   1.760352e-15 1.755774e+01 -7.505000e+01
      vertex   -1.520544e+01 8.778868e+00 -7.505000e+01
      vertex   1.665335e-15 1.755774e+01 -3.752500e+01
    endloop
  endfacet
  facet normal -5.000000e-01 8.660254e-01 -4.313810e-17
    outer loop
      vertex   1.665335e-15 1.755774e+01 -3.752500e+01
      vertex   -1.520544e+01 8.778868e+00 -7.505000e+01
      vertex   -1.520544e+01 8.778868e+00 -3.752500e+01
    endloop
  endfacet
  facet normal -5.000000e-01 8.660254e-01 0.000000e+00
    outer loop
      vertex   1.665335e-15 1.755774e+01 -3.752500e+01
      vertex   -1.520544e+01 8.778868e+00 -3.752500e+01
      vertex   -1.520544e+01 8.778868e+00 0.000000e+00
    endloop
  endfacet
  facet normal -5.000000e-01 8.660254e-01 0.000000e+00
    outer loop
      vertex   1.665335e-15 1.755774e+01 -3.752500e+01
      vertex   -1.520544e+01 8.778868e+00 0.000000e+00
      vertex   1.665335e-15 1.755774e+01 0.000000e+00
    endloop
  endfacet
  facet normal -5.000000e-01 8.660254e-01 0.000000e+00
    outer loop
      vertex   1.665335e-15 1.755774e+01 0.000000e+00
      vertex   -1.520544e+01 8.778868e+00 0.000000e+00
      vertex   -1.520544e+01 8.778868e+00 3.752500e+01
    endloop
  endfacet
  facet normal -5.000000e-01 8.660254e-01 0.000000e+00
    outer loop
      vertex   1.665335e-15 1.755774e+01 0.000000e+00
      vertex   -1.520544e+01 8.778868e+00 3.752500e+01
      vertex   1.665335e-15 1.755774e+01 3.752500e+01
    endloop
  endfacet
  facet normal -5.000000e-01 8.660254e-01 7.186619e-17
    outer loop
      vertex   1.665335e-15 1.755774e+01 3.752500e+01
      vertex   -1.520544e+01 8.778868e+00 3.752500e+01
      vertex   9.054114e-16 1.755774e+01 7.505000e+01
    endloop
  endfacet
  facet normal -5.000000e-01 8.660254e-01 4.313810e-17
    outer loop
      vertex   9.054114e-16 1.755774e+01 7.505000e+01
      vertex   -1.520544e+01 8.778868e+00 3.752500e+01
      vertex   -1.520544e+01 8.778868e+00 7.505000e+01
    endloop
  endfacet
  facet normal -0.000000e+00 0.000000e+00 -1.000000e+00
    outer loop
      vertex   1.520544e+01 8.778868e+00 -7.505000e+01
      vertex   -7.835774e-15 -1.755774e+01 -7.505000e+01
      vertex   1.760352e-15 1.755774e+01 -7.505000e+01
    endloop
  endfacet
  facet normal 0.000000e+00 0.000000e+00 -1.000000e+00
    outer loop
      vertex   1.760352e-15 1.755774e+01 -7.505000e+01
      vertex   -7.835774e-15 -1.755774e+01 -7.505000e+01
      vertex   -1.520544e+01 -8.778868e+00 -7.505000e+01
    endloop
  endfacet
  facet normal 0.000000e+00 0.000000e+00 -1.000000e+00
    outer loop
      vertex   1.760352e-15 1.755774e+01 -7.505000e+01
      vertex   -1.520544e+01 -8.778868e+00 -7.505000e+01
      vertex   -1.520544e+01 8.778868e+00 -7.505000e+01
    endloop
  endfacet
  facet normal 0.000000e+00 0.000000e+00 -1.000000e+00
    outer loop
      vertex   1.520544e+01 8.778868e+00 -7.505000e+01
      vertex   1.520544e+01 -8.778868e+00 -7.505000e+01
      vertex   -7.835774e-15 -1.755774e+01 -7.505000e+01
    endloop
  endfacet
  facet normal 1.000000e+00 -1.008148e-16 -5.415722e-16
    outer loop
      vertex   -4.286763e+00 4.468004e+00 7.664000e+01
      vertex   -4.286763e+00 -4.341996e+00 7.664000e+01
      vertex   -4.286763e+00 4.468004e+00 7.500000e+01
    endloop
  endfacet
  facet normal 1.000000e+00 0.000000e+00 0.000000e+00
    outer loop
      vertex   -4.286763e+00 4.468004e+00 7.500000e+01
      vertex   -4.286763e+00 -4.341996e+00 7.664000e+01
      vertex   -4.286763e+00 -4.341996e+00 7.500000e+01
    endloop
  endfacet
  facet normal 0.000000e+00 -1.000000e+00 0.000000e+00
    outer loop
      vertex   -4.286763e+00 4.468004e+00 7.500000e+01
      vertex   4.393237e+00 4.468004e+00 7.500000e+01
      vertex   -4.286763e+00 4.468004e+00 7.664000e+01
    endloop
  endfacet
  facet normal 0.000000e+00 -1.000000e+00 0.000000e+00
    outer loop
      vertex   -4.286763e+00 4.468004e+00 7.664000e+01
      vertex   4.393237e+00 4.468004e+00 7.500000e+01
      vertex   4.393237e+00 4.468004e+00 7.664000e+01
    endloop
  endfacet
  facet normal 0.000000e+00 0.000000e+00 -1.000000e+00
    outer loop
      vertex   4.393237e+00 -4.341996e+00 7.664000e+01
      vertex   -4.286763e+00 -4.341996e+00 7.664000e+01
      vertex   4.393237e+00 4.468004e+00 7.664000e+01
    endloop
  endfacet
  facet normal -0.000000e+00 0.000000e+00 -1.000000e+00
    outer loop
      vertex   4.393237e+00 4.468004e+00 7.664000e+01
      vertex   -4.286763e+00 -4.341996e+00 7.664000e+01
      vertex   -4.286763e+00 4.468004e+00 7.664000e+01
    endloop
  endfacet
  facet normal -0.000000e+00 1.000000e+00 0.000000e+00
    outer loop
      vertex   -4.286763e+00 -4.341996e+00 7.664000e+01
      vertex   4.393237e+00 -4.341996e+00 7.664000e+01
      vertex   -4.286763e+00 -4.341996e+00 7.500000e+01
    endloop
  endfacet
  facet normal 0.000000e+00 1.000000e+00 0.000000e+00
    outer loop
      vertex   -4.286763e+00 -4.341996e+00 7.500000e+01
      vertex   4.393237e+00 -4.341996e+00 7.664000e+01
      vertex   4.393237e+00 -4.341996e+00 7.500000e+01
    endloop
  endfacet
  facet normal -0.000000e+00 0.000000e+00 -1.000000e+00
    outer loop
      vertex   4.393237e+00 -4.341996e+00 7.500000e+01
      vertex   -8.326673e-15 -1.750000e+01 7.500000e+01
      vertex   -4.286763e+00 -4.341996e+00 7.500000e+01
    endloop
  endfacet
  facet normal 0.000000e+00 -0.000000e+00 -1.000000e+00
    outer loop
      vertex   -4.286763e+00 -4.341996e+00 7.500000e+01
      vertex   -8.326673e-15 -1.750000e+01 7.500000e+01
      vertex   -1.515544e+01 -8.750000e+00 7.500000e+01
    endloop
  endfacet
  facet normal -0.000000e+00 0.000000e+00 -1.000000e+00
    outer loop
      vertex   -4.286763e+00 -4.341996e+00 7.500000e+01
      vertex   -1.515544e+01 -8.750000e+00 7.500000e+01
      vertex   -1.515544e+01 8.750000e+00 7.500000e+01
    endloop
  endfacet
  facet normal 0.000000e+00 0.000000e+00 -1.000000e+00
    outer loop
      vertex   4.393237e+00 4.468004e+00 7.500000e+01
      vertex   1.515544e+01 8.750000e+00 7.500000e+01
      vertex   4.393237e+00 -4.341996e+00 7.500000e+01
    endloop
  endfacet
  facet normal 0.000000e+00 0.000000e+00 -1.000000e+00
    outer loop
      vertex   4.393237e+00 -4.341996e+00 7.500000e+01
      vertex   1.515544e+01 8.750000e+00 7.500000e+01
      vertex   1.515544e+01 -8.750000e+00 7.500000e+01
    endloop
  endfacet
  facet normal 0.000000e+00 -0.000000e+00 -1.000000e+00
    outer loop
      vertex   4.393237e+00 -4.341996e+00 7.500000e+01
      vertex   1.515544e+01 -8.750000e+00 7.500000e+01
      vertex   -8.326673e-15 -1.750000e+01 7.500000e+01
    endloop
  endfacet
  facet normal -0.000000e+00 0.000000e+00 -1.000000e+00
    outer loop
      vertex   1.515544e+01 8.750000e+00 7.500000e+01
      vertex   4.393237e+00 4.468004e+00 7.500000e+01
      vertex   2.127927e-15 1.750000e+01 7.500000e+01
    endloop
  endfacet
  facet normal 0.000000e+00 -0.000000e+00 -1.000000e+00
    outer loop
      vertex   2.127927e-15 1.750000e+01 7.500000e+01
      vertex   4.393237e+00 4.468004e+00 7.500000e+01
      vertex   -4.286763e+00 4.468004e+00 7.500000e+01
    endloop
  endfacet
  facet normal 0.000000e+00 0.000000e+00 -1.000000e+00
    outer loop
      vertex   2.127927e-15 1.750000e+01 7.500000e+01
      vertex   -4.286763e+00 4.468004e+00 7.500000e+01
      vertex   -1.515544e+01 8.750000e+00 7.500000e+01
    endloop
  endfacet
  facet normal 0.000000e+00 0.000000e+00 -1.000000e+00
    outer loop
      vertex   -1.515544e+01 8.750000e+00 7.500000e+01
      vertex   -4.286763e+00 4.468004e+00 7.500000e+01
      vertex   -4.286763e+00 -4.341996e+00 7.500000e+01
    endloop
  endfacet
  facet normal -1.000000e+00 0.000000e+00 0.000000e+00
    outer loop
      vertex   4.393237e+00 4.468004e+00 7.500000e+01
      vertex   4.393237e+00 -4.341996e+00 7.500000e+01
      vertex   4.393237e+00 4.468004e+00 7.664000e+01
    endloop
  endfacet
  facet normal -1.000000e+00 -0.000000e+00 0.000000e+00
    outer loop
      vertex   4.393237e+00 4.468004e+00 7.664000e+01
      vertex   4.393237e+00 -4.341996e+00 7.500000e+01
      vertex   4.393237e+00 -4.341996e+00 7.664000e+01
    endloop
  endfacet
  facet normal 1.000000e+00 -2.030122e-16 -7.105427e-17
    outer loop
      vertex   -1.515544e+01 8.750000e+00 7.500000e+01
      vertex   -1.515544e+01 -8.750000e+00 7.500000e+01
      vertex   -1.515544e+01 8.750000e+00 2.500000e+01
    endloop
  endfacet
  facet normal 1.000000e+00 -1.015061e-16 -3.552714e-17
    outer loop
      vertex   -1.515544e+01 8.750000e+00 2.500000e+01
      vertex   -1.515544e+01 -8.750000e+00 7.500000e+01
      vertex   -1.515544e+01 -8.750000e+00 2.500000e+01
    endloop
  endfacet
  facet normal 1.000000e+00 -1.015061e-16 0.000000e+00
    outer loop
      vertex   -1.515544e+01 8.750000e+00 2.500000e+01
      vertex   -1.515544e+01 -8.750000e+00 2.500000e+01
      vertex   -1.515544e+01 8.750000e+00 -2.500000e+01
    endloop
  endfacet
  facet normal 1.000000e+00 -1.015061e-16 0.000000e+00
    outer loop
      vertex   -1.515544e+01 8.750000e+00 -2.500000e+01
      vertex   -1.515544e+01 -8.750000e+00 2.500000e+01
      vertex   -1.515544e+01 -8.750000e+00 -2.500000e+01
    endloop
  endfacet
  facet normal 1.000000e+00 -1.015061e-16 7.105427e-17
    outer loop
      vertex   -1.515544e+01 8.750000e+00 -2.500000e+01
      vertex   -1.515544e+01 -8.750000e+00 -2.500000e+01
      vertex   -1.515544e+01 8.750000e+00 -7.500000e+01
    endloop
  endfacet
  facet normal 1.000000e+00 -2.030122e-16 3.552714e-17
    outer loop
      vertex   -1.515544e+01 8.750000e+00 -7.500000e+01
      vertex   -1.515544e+01 -8.750000e+00 -2.500000e+01
      vertex   -1.515544e+01 -8.750000e+00 -7.500000e+01
    endloop
  endfacet
  facet normal 5.000000e-01 8.660254e-01 -4.853097e-17
    outer loop
      vertex   -1.515544e+01 -8.750000e+00 7.500000e+01
      vertex   -8.326673e-15 -1.750000e+01 7.500000e+01
      vertex   -1.515544e+01 -8.750000e+00 2.500000e+01
    endloop
  endfacet
  facet normal 5.000000e-01 8.660254e-01 0.000000e+00
    outer loop
      vertex   -1.515544e+01 -8.750000e+00 2.500000e+01
      vertex   -8.326673e-15 -1.750000e+01 7.500000e+01
      vertex   -8.326673e-15 -1.750000e+01 2.500000e+01
    endloop
  endfacet
  facet normal 5.000000e-01 8.660254e-01 0.000000e+00
    outer loop
      vertex   -1.515544e+01 -8.750000e+00 2.500000e+01
      vertex   -8.326673e-15 -1.750000e+01 2.500000e+01
      vertex   -1.515544e+01 -8.750000e+00 -2.500000e+01
    endloop
  endfacet
  facet normal 5.000000e-01 8.660254e-01 0.000000e+00
    outer loop
      vertex   -1.515544e+01 -8.750000e+00 -2.500000e+01
      vertex   -8.326673e-15 -1.750000e+01 2.500000e+01
      vertex   -8.326673e-15 -1.750000e+01 -2.500000e+01
    endloop
  endfacet
  facet normal 5.000000e-01 8.660254e-01 4.853097e-17
    outer loop
      vertex   -1.515544e+01 -8.750000e+00 -2.500000e+01
      vertex   -8.326673e-15 -1.750000e+01 -2.500000e+01
      vertex   -1.515544e+01 -8.750000e+00 -7.500000e+01
    endloop
  endfacet
  facet normal 5.000000e-01 8.660254e-01 0.000000e+00
    outer loop
      vertex   -1.515544e+01 -8.750000e+00 -7.500000e+01
      vertex   -8.326673e-15 -1.750000e+01 -2.500000e+01
      vertex   -8.604228e-15 -1.750000e+01 -7.500000e+01
    endloop
  endfacet
  facet normal -5.000000e-01 8.660254e-01 0.000000e+00
    outer loop
      vertex   -8.326673e-15 -1.750000e+01 7.500000e+01
      vertex   1.515544e+01 -8.750000e+00 7.500000e+01
      vertex   -8.326673e-15 -1.750000e+01 2.500000e+01
    endloop
  endfacet
  facet normal -5.000000e-01 8.660254e-01 0.000000e+00
    outer loop
      vertex   -8.326673e-15 -1.750000e+01 2.500000e+01
      vertex   1.515544e+01 -8.750000e+00 7.500000e+01
      vertex   1.515544e+01 -8.750000e+00 2.500000e+01
    endloop
  endfacet
  facet normal -5.000000e-01 8.660254e-01 0.000000e+00
    outer loop
      vertex   -8.326673e-15 -1.750000e+01 2.500000e+01
      vertex   1.515544e+01 -8.750000e+00 2.500000e+01
      vertex   -8.326673e-15 -1.750000e+01 -2.500000e+01
    endloop
  endfacet
  facet normal -5.000000e-01 8.660254e-01 0.000000e+00
    outer loop
      vertex   -8.326673e-15 -1.750000e+01 -2.500000e+01
      vertex   1.515544e+01 -8.750000e+00 2.500000e+01
      vertex   1.515544e+01 -8.750000e+00 -2.500000e+01
    endloop
  endfacet
  facet normal -5.000000e-01 8.660254e-01 2.775558e-18
    outer loop
      vertex   -8.326673e-15 -1.750000e+01 -2.500000e+01
      vertex   1.515544e+01 -8.750000e+00 -2.500000e+01
      vertex   -8.604228e-15 -1.750000e+01 -7.500000e+01
    endloop
  endfacet
  facet normal -5.000000e-01 8.660254e-01 0.000000e+00
    outer loop
      vertex   -8.604228e-15 -1.750000e+01 -7.500000e+01
      vertex   1.515544e+01 -8.750000e+00 -2.500000e+01
      vertex   1.515544e+01 -8.750000e+00 -7.500000e+01
    endloop
  endfacet
  facet normal -5.000000e-01 -8.660254e-01 -3.076740e-17
    outer loop
      vertex   1.515544e+01 8.750000e+00 7.500000e+01
      vertex   2.127927e-15 1.750000e+01 7.500000e+01
      vertex   1.515544e+01 8.750000e+00 2.500000e+01
    endloop
  endfacet
  facet normal -5.000000e-01 -8.660254e-01 3.248195e-17
    outer loop
      vertex   1.515544e+01 8.750000e+00 2.500000e+01
      vertex   2.127927e-15 1.750000e+01 7.500000e+01
      vertex   -2.220446e-15 1.750000e+01 2.500000e+01
    endloop
  endfacet
  facet normal -5.000000e-01 -8.660254e-01 -0.000000e+00
    outer loop
      vertex   1.515544e+01 8.750000e+00 2.500000e+01
      vertex   -2.220446e-15 1.750000e+01 2.500000e+01
      vertex   1.515544e+01 8.750000e+00 -2.500000e+01
    endloop
  endfacet
  facet normal -5.000000e-01 -8.660254e-01 0.000000e+00
    outer loop
      vertex   1.515544e+01 8.750000e+00 -2.500000e+01
      vertex   -2.220446e-15 1.750000e+01 2.500000e+01
      vertex   -2.220446e-15 1.750000e+01 -2.500000e+01
    endloop
  endfacet
  facet normal -5.000000e-01 -8.660254e-01 3.076740e-17
    outer loop
      vertex   1.515544e+01 8.750000e+00 -2.500000e+01
      vertex   -2.220446e-15 1.750000e+01 -2.500000e+01
      vertex   1.515544e+01 8.750000e+00 -7.500000e+01
    endloop
  endfacet
  facet normal -5.000000e-01 -8.660254e-01 -3.248195e-17
    outer loop
      vertex   1.515544e+01 8.750000e+00 -7.500000e+01
      vertex   -2.220446e-15 1.750000e+01 -2.500000e+01
      vertex   1.896631e-15 1.750000e+01 -7.500000e+01
    endloop
  endfacet
  facet normal -1.000000e+00 4.060244e-16 0.000000e+00
    outer loop
      vertex   1.515544e+01 -8.750000e+00 7.500000e+01
      vertex   1.515544e+01 8.750000e+00 7.500000e+01
      vertex   1.515544e+01 -8.750000e+00 2.500000e+01
    endloop
  endfacet
  facet normal -1.000000e+00 4.060244e-16 0.000000e+00
    outer loop
      vertex   1.515544e+01 -8.750000e+00 2.500000e+01
      vertex   1.515544e+01 8.750000e+00 7.500000e+01
      vertex   1.515544e+01 8.750000e+00 2.500000e+01
    endloop
  endfacet
  facet normal -1.000000e+00 4.060244e-16 0.000000e+00
    outer loop
      vertex   1.515544e+01 -8.750000e+00 2.500000e+01
      vertex   1.515544e+01 8.750000e+00 2.500000e+01
      vertex   1.515544e+01 -8.750000e+00 -2.500000e+01
    endloop
  endfacet
  facet normal -1.000000e+00 4.060244e-16 0.000000e+00
    outer loop
      vertex   1.515544e+01 -8.750000e+00 -2.500000e+01
      vertex   1.515544e+01 8.750000e+00 2.500000e+01
      vertex   1.515544e+01 8.750000e+00 -2.500000e+01
    endloop
  endfacet
  facet normal -1.000000e+00 4.060244e-16 0.000000e+00
    outer loop
      vertex   1.515544e+01 -8.750000e+00 -2.500000e+01
      vertex   1.515544e+01 8.750000e+00 -2.500000e+01
      vertex   1.515544e+01 -8.750000e+00 -7.500000e+01
    endloop
  endfacet
  facet normal -1.000000e+00 4.060244e-16 0.000000e+00
    outer loop
      vertex   1.515544e+01 -8.750000e+00 -7.500000e+01
      vertex   1.515544e+01 8.750000e+00 -2.500000e+01
      vertex   1.515544e+01 8.750000e+00 -7.500000e+01
    endloop
  endfacet
  facet normal 5.000000e-01 -8.660254e-01 -4.348374e-17
    outer loop
      vertex   2.127927e-15 1.750000e+01 7.500000e+01
      vertex   -1.515544e+01 8.750000e+00 7.500000e+01
      vertex   -2.220446e-15 1.750000e+01 2.500000e+01
    endloop
  endfacet
  facet normal 5.000000e-01 -8.660254e-01 -3.248195e-17
    outer loop
      vertex   -2.220446e-15 1.750000e+01 2.500000e+01
      vertex   -1.515544e+01 8.750000e+00 7.500000e+01
      vertex   -1.515544e+01 8.750000e+00 2.500000e+01
    endloop
  endfacet
  facet normal 5.000000e-01 -8.660254e-01 0.000000e+00
    outer loop
      vertex   -2.220446e-15 1.750000e+01 2.500000e+01
      vertex   -1.515544e+01 8.750000e+00 2.500000e+01
      vertex   -2.220446e-15 1.750000e+01 -2.500000e+01
    endloop
  endfacet
  facet normal 5.000000e-01 -8.660254e-01 0.000000e+00
    outer loop
      vertex   -2.220446e-15 1.750000e+01 -2.500000e+01
      vertex   -1.515544e+01 8.750000e+00 2.500000e+01
      vertex   -1.515544e+01 8.750000e+00 -2.500000e+01
    endloop
  endfacet
  facet normal 5.000000e-01 -8.660254e-01 4.117077e-17
    outer loop
      vertex   -2.220446e-15 1.750000e+01 -2.500000e+01
      vertex   -1.515544e+01 8.750000e+00 -2.500000e+01
      vertex   1.896631e-15 1.750000e+01 -7.500000e+01
    endloop
  endfacet
  facet normal 5.000000e-01 -8.660254e-01 3.248195e-17
    outer loop
      vertex   1.896631e-15 1.750000e+01 -7.500000e+01
      vertex   -1.515544e+01 8.750000e+00 -2.500000e+01
      vertex   -1.515544e+01 8.750000e+00 -7.500000e+01
    endloop
  endfacet
  facet normal 0.000000e+00 0.000000e+00 1.000000e+00
    outer loop
      vertex   1.515544e+01 8.750000e+00 -7.500000e+01
      vertex   1.896631e-15 1.750000e+01 -7.500000e+01
      vertex   1.515544e+01 -8.750000e+00 -7.500000e+01
    endloop
  endfacet
  facet normal 0.000000e+00 0.000000e+00 1.000000e+00
    outer loop
      vertex   1.515544e+01 -8.750000e+00 -7.500000e+01
      vertex   1.896631e-15 1.750000e+01 -7.500000e+01
      vertex   -8.604228e-15 -1.750000e+01 -7.500000e+01
    endloop
  endfacet
  facet normal 0.000000e+00 -0.000000e+00 1.000000e+00
    outer loop
      vertex   -8.604228e-15 -1.750000e+01 -7.500000e+01
      vertex   1.896631e-15 1.750000e+01 -7.500000e+01
      vertex   -1.515544e+01 8.750000e+00 -7.500000e+01
    endloop
  endfacet
  facet normal 0.000000e+00 0.000000e+00 1.000000e+00
    outer loop
      vertex   -8.604228e-15 -1.750000e+01 -7.500000e+01
      vertex   -1.515544e+01 8.750000e+00 -7.500000e+01
      vertex   -1.515544e+01 -8.750000e+00 -7.500000e+01
    endloop
  endfacet
endsolid
