solid ASCII
  facet normal -5.000000e-01 8.660254e-01 0.000000e+00
    outer loop
      vertex   -1.515544e+01 8.750000e+00 -7.500000e+01
      vertex   1.873501e-15 1.750000e+01 -7.500000e+01
      vertex   -1.515544e+01 8.750000e+00 -7.600000e+01
    endloop
  endfacet
  facet normal -5.000000e-01 8.660254e-01 0.000000e+00
    outer loop
      vertex   -1.515544e+01 8.750000e+00 -7.600000e+01
      vertex   1.873501e-15 1.750000e+01 -7.500000e+01
      vertex   1.873501e-15 1.750000e+01 -7.600000e+01
    endloop
  endfacet
  facet normal -1.000000e+00 2.030122e-16 3.606221e-31
    outer loop
      vertex   -1.515544e+01 -8.750000e+00 -7.500000e+01
      vertex   -1.515544e+01 8.750000e+00 -7.500000e+01
      vertex   -1.515544e+01 -8.750000e+00 -7.600000e+01
    endloop
  endfacet
  facet normal -1.000000e+00 2.030122e-16 0.000000e+00
    outer loop
      vertex   -1.515544e+01 -8.750000e+00 -7.600000e+01
      vertex   -1.515544e+01 8.750000e+00 -7.500000e+01
      vertex   -1.515544e+01 8.750000e+00 -7.600000e+01
    endloop
  endfacet
  facet normal -5.000000e-01 -8.660254e-01 1.972152e-31
    outer loop
      vertex   -3.469447e-15 -1.750000e+01 -7.500000e+01
      vertex   -1.515544e+01 -8.750000e+00 -7.500000e+01
      vertex   -3.469447e-15 -1.750000e+01 -7.600000e+01
    endloop
  endfacet
  facet normal -5.000000e-01 -8.660254e-01 -1.624098e-15
    outer loop
      vertex   -3.469447e-15 -1.750000e+01 -7.600000e+01
      vertex   -1.515544e+01 -8.750000e+00 -7.500000e+01
      vertex   -1.515544e+01 -8.750000e+00 -7.600000e+01
    endloop
  endfacet
  facet normal 5.000000e-01 -8.660254e-01 0.000000e+00
    outer loop
      vertex   1.515544e+01 -8.750000e+00 -7.500000e+01
      vertex   -3.469447e-15 -1.750000e+01 -7.500000e+01
      vertex   1.515544e+01 -8.750000e+00 -7.600000e+01
    endloop
  endfacet
  facet normal 5.000000e-01 -8.660254e-01 0.000000e+00
    outer loop
      vertex   1.515544e+01 -8.750000e+00 -7.600000e+01
      vertex   -3.469447e-15 -1.750000e+01 -7.500000e+01
      vertex   -3.469447e-15 -1.750000e+01 -7.600000e+01
    endloop
  endfacet
  facet normal 1.000000e+00 -8.120488e-16 0.000000e+00
    outer loop
      vertex   1.515544e+01 8.750000e+00 -7.500000e+01
      vertex   1.515544e+01 -8.750000e+00 -7.500000e+01
      vertex   1.515544e+01 8.750000e+00 -7.600000e+01
    endloop
  endfacet
  facet normal 1.000000e+00 -8.120488e-16 0.000000e+00
    outer loop
      vertex   1.515544e+01 8.750000e+00 -7.600000e+01
      vertex   1.515544e+01 -8.750000e+00 -7.500000e+01
      vertex   1.515544e+01 -8.750000e+00 -7.600000e+01
    endloop
  endfacet
  facet normal 5.000000e-01 8.660254e-01 0.000000e+00
    outer loop
      vertex   1.873501e-15 1.750000e+01 -7.500000e+01
      vertex   1.515544e+01 8.750000e+00 -7.500000e+01
      vertex   1.873501e-15 1.750000e+01 -7.600000e+01
    endloop
  endfacet
  facet normal 5.000000e-01 8.660254e-01 0.000000e+00
    outer loop
      vertex   1.873501e-15 1.750000e+01 -7.600000e+01
      vertex   1.515544e+01 8.750000e+00 -7.500000e+01
      vertex   1.515544e+01 8.750000e+00 -7.600000e+01
    endloop
  endfacet
  facet normal -0.000000e+00 0.000000e+00 -1.000000e+00
    outer loop
      vertex   1.515544e+01 8.750000e+00 -7.600000e+01
      vertex   -3.469447e-15 -1.750000e+01 -7.600000e+01
      vertex   1.873501e-15 1.750000e+01 -7.600000e+01
    endloop
  endfacet
  facet normal 0.000000e+00 0.000000e+00 -1.000000e+00
    outer loop
      vertex   1.873501e-15 1.750000e+01 -7.600000e+01
      vertex   -3.469447e-15 -1.750000e+01 -7.600000e+01
      vertex   -1.515544e+01 -8.750000e+00 -7.600000e+01
    endloop
  endfacet
  facet normal 0.000000e+00 0.000000e+00 -1.000000e+00
    outer loop
      vertex   1.873501e-15 1.750000e+01 -7.600000e+01
      vertex   -1.515544e+01 -8.750000e+00 -7.600000e+01
      vertex   -1.515544e+01 8.750000e+00 -7.600000e+01
    endloop
  endfacet
  facet normal 0.000000e+00 0.000000e+00 -1.000000e+00
    outer loop
      vertex   1.515544e+01 8.750000e+00 -7.600000e+01
      vertex   1.515544e+01 -8.750000e+00 -7.600000e+01
      vertex   -3.469447e-15 -1.750000e+01 -7.600000e+01
    endloop
  endfacet
  facet normal 0.000000e+00 0.000000e+00 1.000000e+00
    outer loop
      vertex   1.515544e+01 8.750000e+00 -7.500000e+01
      vertex   1.873501e-15 1.750000e+01 -7.500000e+01
      vertex   1.515544e+01 -8.750000e+00 -7.500000e+01
    endloop
  endfacet
  facet normal 0.000000e+00 0.000000e+00 1.000000e+00
    outer loop
      vertex   1.515544e+01 -8.750000e+00 -7.500000e+01
      vertex   1.873501e-15 1.750000e+01 -7.500000e+01
      vertex   -3.469447e-15 -1.750000e+01 -7.500000e+01
    endloop
  endfacet
  facet normal 0.000000e+00 -0.000000e+00 1.000000e+00
    outer loop
      vertex   -3.469447e-15 -1.750000e+01 -7.500000e+01
      vertex   1.873501e-15 1.750000e+01 -7.500000e+01
      vertex   -1.515544e+01 8.750000e+00 -7.500000e+01
    endloop
  endfacet
  facet normal 0.000000e+00 0.000000e+00 1.000000e+00
    outer loop
      vertex   -3.469447e-15 -1.750000e+01 -7.500000e+01
      vertex   -1.515544e+01 8.750000e+00 -7.500000e+01
      vertex   -1.515544e+01 -8.750000e+00 -7.500000e+01
    endloop
  endfacet
endsolid
