solid ASCII
  facet normal -1.000000e+00 0.000000e+00 5.415722e-16
    outer loop
      vertex   -4.286763e+00 -3.199556e-02 2.500000e+01
      vertex   -4.286763e+00 -4.341996e+00 2.500000e+01
      vertex   -4.286763e+00 -3.199556e-02 2.664000e+01
    endloop
  endfacet
  facet normal -1.000000e+00 0.000000e+00 5.415722e-16
    outer loop
      vertex   -4.286763e+00 -3.199556e-02 2.664000e+01
      vertex   -4.286763e+00 -4.341996e+00 2.500000e+01
      vertex   -4.286763e+00 -4.341996e+00 2.664000e+01
    endloop
  endfacet
  facet normal 0.000000e+00 1.000000e+00 -0.000000e+00
    outer loop
      vertex   -1.067628e-01 -3.199556e-02 2.500000e+01
      vertex   -4.286763e+00 -3.199556e-02 2.500000e+01
      vertex   -1.067628e-01 -3.199556e-02 2.664000e+01
    endloop
  endfacet
  facet normal 0.000000e+00 1.000000e+00 0.000000e+00
    outer loop
      vertex   -1.067628e-01 -3.199556e-02 2.664000e+01
      vertex   -4.286763e+00 -3.199556e-02 2.500000e+01
      vertex   -4.286763e+00 -3.199556e-02 2.664000e+01
    endloop
  endfacet
  facet normal 1.000000e+00 0.000000e+00 0.000000e+00
    outer loop
      vertex   -1.067628e-01 -4.341996e+00 2.500000e+01
      vertex   -1.067628e-01 -3.199556e-02 2.500000e+01
      vertex   -1.067628e-01 -4.341996e+00 2.664000e+01
    endloop
  endfacet
  facet normal 1.000000e+00 -0.000000e+00 0.000000e+00
    outer loop
      vertex   -1.067628e-01 -4.341996e+00 2.664000e+01
      vertex   -1.067628e-01 -3.199556e-02 2.500000e+01
      vertex   -1.067628e-01 -3.199556e-02 2.664000e+01
    endloop
  endfacet
  facet normal 0.000000e+00 -1.000000e+00 0.000000e+00
    outer loop
      vertex   -4.286763e+00 -4.341996e+00 2.500000e+01
      vertex   -1.067628e-01 -4.341996e+00 2.500000e+01
      vertex   -4.286763e+00 -4.341996e+00 2.664000e+01
    endloop
  endfacet
  facet normal 0.000000e+00 -1.000000e+00 0.000000e+00
    outer loop
      vertex   -4.286763e+00 -4.341996e+00 2.664000e+01
      vertex   -1.067628e-01 -4.341996e+00 2.500000e+01
      vertex   -1.067628e-01 -4.341996e+00 2.664000e+01
    endloop
  endfacet
  facet normal 0.000000e+00 0.000000e+00 1.000000e+00
    outer loop
      vertex   -4.286763e+00 -4.341996e+00 2.664000e+01
      vertex   -1.067628e-01 -4.341996e+00 2.664000e+01
      vertex   -4.286763e+00 -3.199556e-02 2.664000e+01
    endloop
  endfacet
  facet normal -0.000000e+00 0.000000e+00 1.000000e+00
    outer loop
      vertex   -4.286763e+00 -3.199556e-02 2.664000e+01
      vertex   -1.067628e-01 -4.341996e+00 2.664000e+01
      vertex   -1.067628e-01 -3.199556e-02 2.664000e+01
    endloop
  endfacet
  facet normal 0.000000e+00 0.000000e+00 -1.000000e+00
    outer loop
      vertex   -1.067628e-01 -4.341996e+00 2.500000e+01
      vertex   -4.286763e+00 -4.341996e+00 2.500000e+01
      vertex   -1.067628e-01 -3.199556e-02 2.500000e+01
    endloop
  endfacet
  facet normal -0.000000e+00 0.000000e+00 -1.000000e+00
    outer loop
      vertex   -1.067628e-01 -3.199556e-02 2.500000e+01
      vertex   -4.286763e+00 -4.341996e+00 2.500000e+01
      vertex   -4.286763e+00 -3.199556e-02 2.500000e+01
    endloop
  endfacet
endsolid
