solid ASCII
  facet normal 5.000000e-01 -8.660254e-01 -9.706194e-17
    outer loop
      vertex   1.520544e+01 -8.778868e+00 -7.500000e+01
      vertex   1.520544e+01 -8.778868e+00 -2.500000e+01
      vertex   -8.072247e-15 -1.755774e+01 -7.500000e+01
    endloop
  endfacet
  facet normal 5.000000e-01 -8.660254e-01 -9.784835e-17
    outer loop
      vertex   -8.072247e-15 -1.755774e+01 -7.500000e+01
      vertex   1.520544e+01 -8.778868e+00 -2.500000e+01
      vertex   -4.440892e-15 -1.755774e+01 -2.500000e+01
    endloop
  endfacet
  facet normal 5.000000e-01 -8.660254e-01 0.000000e+00
    outer loop
      vertex   -4.440892e-15 -1.755774e+01 -2.500000e+01
      vertex   1.520544e+01 -8.778868e+00 -2.500000e+01
      vertex   1.520544e+01 -8.778868e+00 2.500000e+01
    endloop
  endfacet
  facet normal 5.000000e-01 -8.660254e-01 0.000000e+00
    outer loop
      vertex   -4.440892e-15 -1.755774e+01 -2.500000e+01
      vertex   1.520544e+01 -8.778868e+00 2.500000e+01
      vertex   -4.440892e-15 -1.755774e+01 2.500000e+01
    endloop
  endfacet
  facet normal 5.000000e-01 -8.660254e-01 9.712543e-17
    outer loop
      vertex   -4.440892e-15 -1.755774e+01 2.500000e+01
      vertex   1.520544e+01 -8.778868e+00 2.500000e+01
      vertex   1.520544e+01 -8.778868e+00 7.500000e+01
    endloop
  endfacet
  facet normal 5.000000e-01 -8.660254e-01 9.784835e-17
    outer loop
      vertex   -4.440892e-15 -1.755774e+01 2.500000e+01
      vertex   1.520544e+01 -8.778868e+00 7.500000e+01
      vertex   -8.072247e-15 -1.755774e+01 7.500000e+01
    endloop
  endfacet
  facet normal 1.000000e+00 -6.070339e-16 2.156618e-32
    outer loop
      vertex   1.520544e+01 8.778868e+00 -7.500000e+01
      vertex   1.520544e+01 8.778868e+00 -2.500000e+01
      vertex   1.520544e+01 -8.778868e+00 -7.500000e+01
    endloop
  endfacet
  facet normal 1.000000e+00 -4.046893e-16 -7.105427e-17
    outer loop
      vertex   1.520544e+01 -8.778868e+00 -7.500000e+01
      vertex   1.520544e+01 8.778868e+00 -2.500000e+01
      vertex   1.520544e+01 -8.778868e+00 -2.500000e+01
    endloop
  endfacet
  facet normal 1.000000e+00 -4.046893e-16 0.000000e+00
    outer loop
      vertex   1.520544e+01 -8.778868e+00 -2.500000e+01
      vertex   1.520544e+01 8.778868e+00 -2.500000e+01
      vertex   1.520544e+01 8.778868e+00 2.500000e+01
    endloop
  endfacet
  facet normal 1.000000e+00 -4.046893e-16 0.000000e+00
    outer loop
      vertex   1.520544e+01 -8.778868e+00 -2.500000e+01
      vertex   1.520544e+01 8.778868e+00 2.500000e+01
      vertex   1.520544e+01 -8.778868e+00 2.500000e+01
    endloop
  endfacet
  facet normal 1.000000e+00 -4.046893e-16 -2.875490e-32
    outer loop
      vertex   1.520544e+01 -8.778868e+00 2.500000e+01
      vertex   1.520544e+01 8.778868e+00 2.500000e+01
      vertex   1.520544e+01 8.778868e+00 7.500000e+01
    endloop
  endfacet
  facet normal 1.000000e+00 -6.070339e-16 7.105427e-17
    outer loop
      vertex   1.520544e+01 -8.778868e+00 2.500000e+01
      vertex   1.520544e+01 8.778868e+00 7.500000e+01
      vertex   1.520544e+01 -8.778868e+00 7.500000e+01
    endloop
  endfacet
  facet normal 5.000000e-01 8.660254e-01 5.970340e-18
    outer loop
      vertex   2.817480e-15 1.755774e+01 -7.500000e+01
      vertex   2.220446e-15 1.755774e+01 -2.500000e+01
      vertex   1.520544e+01 8.778868e+00 -7.500000e+01
    endloop
  endfacet
  facet normal 5.000000e-01 8.660254e-01 -3.076740e-17
    outer loop
      vertex   1.520544e+01 8.778868e+00 -7.500000e+01
      vertex   2.220446e-15 1.755774e+01 -2.500000e+01
      vertex   1.520544e+01 8.778868e+00 -2.500000e+01
    endloop
  endfacet
  facet normal 5.000000e-01 8.660254e-01 0.000000e+00
    outer loop
      vertex   1.520544e+01 8.778868e+00 -2.500000e+01
      vertex   2.220446e-15 1.755774e+01 -2.500000e+01
      vertex   2.220446e-15 1.755774e+01 2.500000e+01
    endloop
  endfacet
  facet normal 5.000000e-01 8.660254e-01 -0.000000e+00
    outer loop
      vertex   1.520544e+01 8.778868e+00 -2.500000e+01
      vertex   2.220446e-15 1.755774e+01 2.500000e+01
      vertex   1.520544e+01 8.778868e+00 2.500000e+01
    endloop
  endfacet
  facet normal 5.000000e-01 8.660254e-01 -3.237514e-17
    outer loop
      vertex   1.520544e+01 8.778868e+00 2.500000e+01
      vertex   2.220446e-15 1.755774e+01 2.500000e+01
      vertex   2.817480e-15 1.755774e+01 7.500000e+01
    endloop
  endfacet
  facet normal 5.000000e-01 8.660254e-01 3.076740e-17
    outer loop
      vertex   1.520544e+01 8.778868e+00 2.500000e+01
      vertex   2.817480e-15 1.755774e+01 7.500000e+01
      vertex   1.520544e+01 8.778868e+00 7.500000e+01
    endloop
  endfacet
  facet normal -5.000000e-01 8.660254e-01 0.000000e+00
    outer loop
      vertex   -1.520544e+01 8.778868e+00 -7.500000e+01
      vertex   -1.520544e+01 8.778868e+00 -2.500000e+01
      vertex   2.817480e-15 1.755774e+01 -7.500000e+01
    endloop
  endfacet
  facet normal -5.000000e-01 8.660254e-01 -5.970340e-18
    outer loop
      vertex   2.817480e-15 1.755774e+01 -7.500000e+01
      vertex   -1.520544e+01 8.778868e+00 -2.500000e+01
      vertex   2.220446e-15 1.755774e+01 -2.500000e+01
    endloop
  endfacet
  facet normal -5.000000e-01 8.660254e-01 0.000000e+00
    outer loop
      vertex   2.220446e-15 1.755774e+01 -2.500000e+01
      vertex   -1.520544e+01 8.778868e+00 -2.500000e+01
      vertex   -1.520544e+01 8.778868e+00 2.500000e+01
    endloop
  endfacet
  facet normal -5.000000e-01 8.660254e-01 0.000000e+00
    outer loop
      vertex   2.220446e-15 1.755774e+01 -2.500000e+01
      vertex   -1.520544e+01 8.778868e+00 2.500000e+01
      vertex   2.220446e-15 1.755774e+01 2.500000e+01
    endloop
  endfacet
  facet normal -5.000000e-01 8.660254e-01 0.000000e+00
    outer loop
      vertex   2.220446e-15 1.755774e+01 2.500000e+01
      vertex   -1.520544e+01 8.778868e+00 2.500000e+01
      vertex   -1.520544e+01 8.778868e+00 7.500000e+01
    endloop
  endfacet
  facet normal -5.000000e-01 8.660254e-01 5.970340e-18
    outer loop
      vertex   2.220446e-15 1.755774e+01 2.500000e+01
      vertex   -1.520544e+01 8.778868e+00 7.500000e+01
      vertex   2.817480e-15 1.755774e+01 7.500000e+01
    endloop
  endfacet
  facet normal -5.000000e-01 -8.660254e-01 -2.522126e-17
    outer loop
      vertex   -8.072247e-15 -1.755774e+01 -7.500000e+01
      vertex   -4.440892e-15 -1.755774e+01 -2.500000e+01
      vertex   -1.520544e+01 -8.778868e+00 -7.500000e+01
    endloop
  endfacet
  facet normal -5.000000e-01 -8.660254e-01 -4.377124e-17
    outer loop
      vertex   -1.520544e+01 -8.778868e+00 -7.500000e+01
      vertex   -4.440892e-15 -1.755774e+01 -2.500000e+01
      vertex   -1.520544e+01 -8.778868e+00 -2.500000e+01
    endloop
  endfacet
  facet normal -5.000000e-01 -8.660254e-01 0.000000e+00
    outer loop
      vertex   -1.520544e+01 -8.778868e+00 -2.500000e+01
      vertex   -4.440892e-15 -1.755774e+01 -2.500000e+01
      vertex   -4.440892e-15 -1.755774e+01 2.500000e+01
    endloop
  endfacet
  facet normal -5.000000e-01 -8.660254e-01 0.000000e+00
    outer loop
      vertex   -1.520544e+01 -8.778868e+00 -2.500000e+01
      vertex   -4.440892e-15 -1.755774e+01 2.500000e+01
      vertex   -1.520544e+01 -8.778868e+00 2.500000e+01
    endloop
  endfacet
  facet normal -5.000000e-01 -8.660254e-01 0.000000e+00
    outer loop
      vertex   -1.520544e+01 -8.778868e+00 2.500000e+01
      vertex   -4.440892e-15 -1.755774e+01 2.500000e+01
      vertex   -8.072247e-15 -1.755774e+01 7.500000e+01
    endloop
  endfacet
  facet normal -5.000000e-01 -8.660254e-01 4.377124e-17
    outer loop
      vertex   -1.520544e+01 -8.778868e+00 2.500000e+01
      vertex   -8.072247e-15 -1.755774e+01 7.500000e+01
      vertex   -1.520544e+01 -8.778868e+00 7.500000e+01
    endloop
  endfacet
  facet normal -1.000000e+00 3.035170e-16 3.552714e-17
    outer loop
      vertex   -1.520544e+01 -8.778868e+00 -7.500000e+01
      vertex   -1.520544e+01 -8.778868e+00 -2.500000e+01
      vertex   -1.520544e+01 8.778868e+00 -7.500000e+01
    endloop
  endfacet
  facet normal -1.000000e+00 2.023446e-16 0.000000e+00
    outer loop
      vertex   -1.520544e+01 8.778868e+00 -7.500000e+01
      vertex   -1.520544e+01 -8.778868e+00 -2.500000e+01
      vertex   -1.520544e+01 8.778868e+00 -2.500000e+01
    endloop
  endfacet
  facet normal -1.000000e+00 2.023446e-16 0.000000e+00
    outer loop
      vertex   -1.520544e+01 8.778868e+00 -2.500000e+01
      vertex   -1.520544e+01 -8.778868e+00 -2.500000e+01
      vertex   -1.520544e+01 -8.778868e+00 2.500000e+01
    endloop
  endfacet
  facet normal -1.000000e+00 2.023446e-16 0.000000e+00
    outer loop
      vertex   -1.520544e+01 8.778868e+00 -2.500000e+01
      vertex   -1.520544e+01 -8.778868e+00 2.500000e+01
      vertex   -1.520544e+01 8.778868e+00 2.500000e+01
    endloop
  endfacet
  facet normal -1.000000e+00 2.023446e-16 -3.552714e-17
    outer loop
      vertex   -1.520544e+01 8.778868e+00 2.500000e+01
      vertex   -1.520544e+01 -8.778868e+00 2.500000e+01
      vertex   -1.520544e+01 -8.778868e+00 7.500000e+01
    endloop
  endfacet
  facet normal -1.000000e+00 3.035170e-16 0.000000e+00
    outer loop
      vertex   -1.520544e+01 8.778868e+00 2.500000e+01
      vertex   -1.520544e+01 -8.778868e+00 7.500000e+01
      vertex   -1.520544e+01 8.778868e+00 7.500000e+01
    endloop
  endfacet
  facet normal -5.000000e-01 8.660254e-01 0.000000e+00
    outer loop
      vertex   1.515544e+01 -8.750000e+00 7.500000e+01
      vertex   1.515544e+01 -8.750000e+00 2.500000e+01
      vertex   -3.469447e-15 -1.750000e+01 7.500000e+01
    endloop
  endfacet
  facet normal -5.000000e-01 8.660254e-01 0.000000e+00
    outer loop
      vertex   -3.469447e-15 -1.750000e+01 7.500000e+01
      vertex   1.515544e+01 -8.750000e+00 2.500000e+01
      vertex   -3.469447e-15 -1.750000e+01 2.500000e+01
    endloop
  endfacet
  facet normal -5.000000e-01 8.660254e-01 0.000000e+00
    outer loop
      vertex   -3.469447e-15 -1.750000e+01 2.500000e+01
      vertex   1.515544e+01 -8.750000e+00 2.500000e+01
      vertex   1.515544e+01 -8.750000e+00 -2.500000e+01
    endloop
  endfacet
  facet normal -5.000000e-01 8.660254e-01 0.000000e+00
    outer loop
      vertex   -3.469447e-15 -1.750000e+01 2.500000e+01
      vertex   1.515544e+01 -8.750000e+00 -2.500000e+01
      vertex   -3.469447e-15 -1.750000e+01 -2.500000e+01
    endloop
  endfacet
  facet normal -5.000000e-01 8.660254e-01 0.000000e+00
    outer loop
      vertex   -3.469447e-15 -1.750000e+01 -2.500000e+01
      vertex   1.515544e+01 -8.750000e+00 -2.500000e+01
      vertex   1.515544e+01 -8.750000e+00 -7.500000e+01
    endloop
  endfacet
  facet normal -5.000000e-01 8.660254e-01 0.000000e+00
    outer loop
      vertex   -3.469447e-15 -1.750000e+01 -2.500000e+01
      vertex   1.515544e+01 -8.750000e+00 -7.500000e+01
      vertex   -3.469447e-15 -1.750000e+01 -7.500000e+01
    endloop
  endfacet
  facet normal -1.000000e+00 8.120488e-16 0.000000e+00
    outer loop
      vertex   1.515544e+01 8.750000e+00 7.500000e+01
      vertex   1.515544e+01 8.750000e+00 2.500000e+01
      vertex   1.515544e+01 -8.750000e+00 7.500000e+01
    endloop
  endfacet
  facet normal -1.000000e+00 8.120488e-16 0.000000e+00
    outer loop
      vertex   1.515544e+01 -8.750000e+00 7.500000e+01
      vertex   1.515544e+01 8.750000e+00 2.500000e+01
      vertex   1.515544e+01 -8.750000e+00 2.500000e+01
    endloop
  endfacet
  facet normal -1.000000e+00 8.120488e-16 0.000000e+00
    outer loop
      vertex   1.515544e+01 -8.750000e+00 2.500000e+01
      vertex   1.515544e+01 8.750000e+00 2.500000e+01
      vertex   1.515544e+01 8.750000e+00 -2.500000e+01
    endloop
  endfacet
  facet normal -1.000000e+00 8.120488e-16 0.000000e+00
    outer loop
      vertex   1.515544e+01 -8.750000e+00 2.500000e+01
      vertex   1.515544e+01 8.750000e+00 -2.500000e+01
      vertex   1.515544e+01 -8.750000e+00 -2.500000e+01
    endloop
  endfacet
  facet normal -1.000000e+00 8.120488e-16 0.000000e+00
    outer loop
      vertex   1.515544e+01 -8.750000e+00 -2.500000e+01
      vertex   1.515544e+01 8.750000e+00 -2.500000e+01
      vertex   1.515544e+01 8.750000e+00 -7.500000e+01
    endloop
  endfacet
  facet normal -1.000000e+00 8.120488e-16 0.000000e+00
    outer loop
      vertex   1.515544e+01 -8.750000e+00 -2.500000e+01
      vertex   1.515544e+01 8.750000e+00 -7.500000e+01
      vertex   1.515544e+01 -8.750000e+00 -7.500000e+01
    endloop
  endfacet
  facet normal -5.000000e-01 -8.660254e-01 -0.000000e+00
    outer loop
      vertex   1.873501e-15 1.750000e+01 7.500000e+01
      vertex   1.873501e-15 1.750000e+01 2.500000e+01
      vertex   1.515544e+01 8.750000e+00 7.500000e+01
    endloop
  endfacet
  facet normal -5.000000e-01 -8.660254e-01 -0.000000e+00
    outer loop
      vertex   1.515544e+01 8.750000e+00 7.500000e+01
      vertex   1.873501e-15 1.750000e+01 2.500000e+01
      vertex   1.515544e+01 8.750000e+00 2.500000e+01
    endloop
  endfacet
  facet normal -5.000000e-01 -8.660254e-01 0.000000e+00
    outer loop
      vertex   1.515544e+01 8.750000e+00 2.500000e+01
      vertex   1.873501e-15 1.750000e+01 2.500000e+01
      vertex   1.873501e-15 1.750000e+01 -2.500000e+01
    endloop
  endfacet
  facet normal -5.000000e-01 -8.660254e-01 -0.000000e+00
    outer loop
      vertex   1.515544e+01 8.750000e+00 2.500000e+01
      vertex   1.873501e-15 1.750000e+01 -2.500000e+01
      vertex   1.515544e+01 8.750000e+00 -2.500000e+01
    endloop
  endfacet
  facet normal -5.000000e-01 -8.660254e-01 0.000000e+00
    outer loop
      vertex   1.515544e+01 8.750000e+00 -2.500000e+01
      vertex   1.873501e-15 1.750000e+01 -2.500000e+01
      vertex   1.873501e-15 1.750000e+01 -7.500000e+01
    endloop
  endfacet
  facet normal -5.000000e-01 -8.660254e-01 -0.000000e+00
    outer loop
      vertex   1.515544e+01 8.750000e+00 -2.500000e+01
      vertex   1.873501e-15 1.750000e+01 -7.500000e+01
      vertex   1.515544e+01 8.750000e+00 -7.500000e+01
    endloop
  endfacet
  facet normal 5.000000e-01 -8.660254e-01 0.000000e+00
    outer loop
      vertex   -1.515544e+01 8.750000e+00 7.500000e+01
      vertex   -1.515544e+01 8.750000e+00 2.500000e+01
      vertex   1.873501e-15 1.750000e+01 7.500000e+01
    endloop
  endfacet
  facet normal 5.000000e-01 -8.660254e-01 0.000000e+00
    outer loop
      vertex   1.873501e-15 1.750000e+01 7.500000e+01
      vertex   -1.515544e+01 8.750000e+00 2.500000e+01
      vertex   1.873501e-15 1.750000e+01 2.500000e+01
    endloop
  endfacet
  facet normal 5.000000e-01 -8.660254e-01 0.000000e+00
    outer loop
      vertex   1.873501e-15 1.750000e+01 2.500000e+01
      vertex   -1.515544e+01 8.750000e+00 2.500000e+01
      vertex   -1.515544e+01 8.750000e+00 -2.500000e+01
    endloop
  endfacet
  facet normal 5.000000e-01 -8.660254e-01 0.000000e+00
    outer loop
      vertex   1.873501e-15 1.750000e+01 2.500000e+01
      vertex   -1.515544e+01 8.750000e+00 -2.500000e+01
      vertex   1.873501e-15 1.750000e+01 -2.500000e+01
    endloop
  endfacet
  facet normal 5.000000e-01 -8.660254e-01 0.000000e+00
    outer loop
      vertex   1.873501e-15 1.750000e+01 -2.500000e+01
      vertex   -1.515544e+01 8.750000e+00 -2.500000e+01
      vertex   -1.515544e+01 8.750000e+00 -7.500000e+01
    endloop
  endfacet
  facet normal 5.000000e-01 -8.660254e-01 0.000000e+00
    outer loop
      vertex   1.873501e-15 1.750000e+01 -2.500000e+01
      vertex   -1.515544e+01 8.750000e+00 -7.500000e+01
      vertex   1.873501e-15 1.750000e+01 -7.500000e+01
    endloop
  endfacet
  facet normal 5.000000e-01 8.660254e-01 0.000000e+00
    outer loop
      vertex   -3.469447e-15 -1.750000e+01 7.500000e+01
      vertex   -3.469447e-15 -1.750000e+01 2.500000e+01
      vertex   -1.515544e+01 -8.750000e+00 7.500000e+01
    endloop
  endfacet
  facet normal 5.000000e-01 8.660254e-01 3.552714e-17
    outer loop
      vertex   -1.515544e+01 -8.750000e+00 7.500000e+01
      vertex   -3.469447e-15 -1.750000e+01 2.500000e+01
      vertex   -1.515544e+01 -8.750000e+00 2.500000e+01
    endloop
  endfacet
  facet normal 5.000000e-01 8.660254e-01 0.000000e+00
    outer loop
      vertex   -1.515544e+01 -8.750000e+00 2.500000e+01
      vertex   -3.469447e-15 -1.750000e+01 2.500000e+01
      vertex   -3.469447e-15 -1.750000e+01 -2.500000e+01
    endloop
  endfacet
  facet normal 5.000000e-01 8.660254e-01 0.000000e+00
    outer loop
      vertex   -1.515544e+01 -8.750000e+00 2.500000e+01
      vertex   -3.469447e-15 -1.750000e+01 -2.500000e+01
      vertex   -1.515544e+01 -8.750000e+00 -2.500000e+01
    endloop
  endfacet
  facet normal 5.000000e-01 8.660254e-01 0.000000e+00
    outer loop
      vertex   -1.515544e+01 -8.750000e+00 -2.500000e+01
      vertex   -3.469447e-15 -1.750000e+01 -2.500000e+01
      vertex   -3.469447e-15 -1.750000e+01 -7.500000e+01
    endloop
  endfacet
  facet normal 5.000000e-01 8.660254e-01 -3.552714e-17
    outer loop
      vertex   -1.515544e+01 -8.750000e+00 -2.500000e+01
      vertex   -3.469447e-15 -1.750000e+01 -7.500000e+01
      vertex   -1.515544e+01 -8.750000e+00 -7.500000e+01
    endloop
  endfacet
  facet normal 1.000000e+00 -2.030122e-16 7.105427e-17
    outer loop
      vertex   -1.515544e+01 -8.750000e+00 7.500000e+01
      vertex   -1.515544e+01 -8.750000e+00 2.500000e+01
      vertex   -1.515544e+01 8.750000e+00 7.500000e+01
    endloop
  endfacet
  facet normal 1.000000e+00 0.000000e+00 0.000000e+00
    outer loop
      vertex   -1.515544e+01 8.750000e+00 7.500000e+01
      vertex   -1.515544e+01 -8.750000e+00 2.500000e+01
      vertex   -1.515544e+01 8.750000e+00 2.500000e+01
    endloop
  endfacet
  facet normal 1.000000e+00 0.000000e+00 0.000000e+00
    outer loop
      vertex   -1.515544e+01 8.750000e+00 2.500000e+01
      vertex   -1.515544e+01 -8.750000e+00 2.500000e+01
      vertex   -1.515544e+01 -8.750000e+00 -2.500000e+01
    endloop
  endfacet
  facet normal 1.000000e+00 0.000000e+00 0.000000e+00
    outer loop
      vertex   -1.515544e+01 8.750000e+00 2.500000e+01
      vertex   -1.515544e+01 -8.750000e+00 -2.500000e+01
      vertex   -1.515544e+01 8.750000e+00 -2.500000e+01
    endloop
  endfacet
  facet normal 1.000000e+00 0.000000e+00 -7.105427e-17
    outer loop
      vertex   -1.515544e+01 8.750000e+00 -2.500000e+01
      vertex   -1.515544e+01 -8.750000e+00 -2.500000e+01
      vertex   -1.515544e+01 -8.750000e+00 -7.500000e+01
    endloop
  endfacet
  facet normal 1.000000e+00 -2.030122e-16 0.000000e+00
    outer loop
      vertex   -1.515544e+01 8.750000e+00 -2.500000e+01
      vertex   -1.515544e+01 -8.750000e+00 -7.500000e+01
      vertex   -1.515544e+01 8.750000e+00 -7.500000e+01
    endloop
  endfacet
  facet normal 0.000000e+00 0.000000e+00 1.000000e+00
    outer loop
      vertex   -8.072247e-15 -1.755774e+01 7.500000e+01
      vertex   -1.515544e+01 -8.750000e+00 7.500000e+01
      vertex   -1.520544e+01 -8.778868e+00 7.500000e+01
    endloop
  endfacet
  facet normal 0.000000e+00 0.000000e+00 1.000000e+00
    outer loop
      vertex   -1.520544e+01 -8.778868e+00 7.500000e+01
      vertex   -1.515544e+01 -8.750000e+00 7.500000e+01
      vertex   -1.515544e+01 8.750000e+00 7.500000e+01
    endloop
  endfacet
  facet normal 0.000000e+00 0.000000e+00 1.000000e+00
    outer loop
      vertex   -1.520544e+01 -8.778868e+00 7.500000e+01
      vertex   -1.515544e+01 8.750000e+00 7.500000e+01
      vertex   -1.520544e+01 8.778868e+00 7.500000e+01
    endloop
  endfacet
  facet normal -0.000000e+00 0.000000e+00 1.000000e+00
    outer loop
      vertex   -1.520544e+01 8.778868e+00 7.500000e+01
      vertex   -1.515544e+01 8.750000e+00 7.500000e+01
      vertex   2.817480e-15 1.755774e+01 7.500000e+01
    endloop
  endfacet
  facet normal 0.000000e+00 0.000000e+00 1.000000e+00
    outer loop
      vertex   2.817480e-15 1.755774e+01 7.500000e+01
      vertex   -1.515544e+01 8.750000e+00 7.500000e+01
      vertex   1.873501e-15 1.750000e+01 7.500000e+01
    endloop
  endfacet
  facet normal 0.000000e+00 0.000000e+00 1.000000e+00
    outer loop
      vertex   2.817480e-15 1.755774e+01 7.500000e+01
      vertex   1.873501e-15 1.750000e+01 7.500000e+01
      vertex   1.515544e+01 8.750000e+00 7.500000e+01
    endloop
  endfacet
  facet normal 0.000000e+00 0.000000e+00 1.000000e+00
    outer loop
      vertex   1.520544e+01 -8.778868e+00 7.500000e+01
      vertex   1.515544e+01 -8.750000e+00 7.500000e+01
      vertex   -8.072247e-15 -1.755774e+01 7.500000e+01
    endloop
  endfacet
  facet normal 0.000000e+00 0.000000e+00 1.000000e+00
    outer loop
      vertex   -8.072247e-15 -1.755774e+01 7.500000e+01
      vertex   1.515544e+01 -8.750000e+00 7.500000e+01
      vertex   -3.469447e-15 -1.750000e+01 7.500000e+01
    endloop
  endfacet
  facet normal 0.000000e+00 -0.000000e+00 1.000000e+00
    outer loop
      vertex   -8.072247e-15 -1.755774e+01 7.500000e+01
      vertex   -3.469447e-15 -1.750000e+01 7.500000e+01
      vertex   -1.515544e+01 -8.750000e+00 7.500000e+01
    endloop
  endfacet
  facet normal -0.000000e+00 0.000000e+00 1.000000e+00
    outer loop
      vertex   1.515544e+01 -8.750000e+00 7.500000e+01
      vertex   1.520544e+01 -8.778868e+00 7.500000e+01
      vertex   1.515544e+01 8.750000e+00 7.500000e+01
    endloop
  endfacet
  facet normal -0.000000e+00 0.000000e+00 1.000000e+00
    outer loop
      vertex   1.515544e+01 8.750000e+00 7.500000e+01
      vertex   1.520544e+01 -8.778868e+00 7.500000e+01
      vertex   1.520544e+01 8.778868e+00 7.500000e+01
    endloop
  endfacet
  facet normal 0.000000e+00 -0.000000e+00 1.000000e+00
    outer loop
      vertex   1.515544e+01 8.750000e+00 7.500000e+01
      vertex   1.520544e+01 8.778868e+00 7.500000e+01
      vertex   2.817480e-15 1.755774e+01 7.500000e+01
    endloop
  endfacet
  facet normal -0.000000e+00 0.000000e+00 -1.000000e+00
    outer loop
      vertex   -3.469447e-15 -1.750000e+01 -7.500000e+01
      vertex   -8.072247e-15 -1.755774e+01 -7.500000e+01
      vertex   -1.515544e+01 -8.750000e+00 -7.500000e+01
    endloop
  endfacet
  facet normal 0.000000e+00 -0.000000e+00 -1.000000e+00
    outer loop
      vertex   -1.515544e+01 -8.750000e+00 -7.500000e+01
      vertex   -8.072247e-15 -1.755774e+01 -7.500000e+01
      vertex   -1.520544e+01 -8.778868e+00 -7.500000e+01
    endloop
  endfacet
  facet normal -0.000000e+00 0.000000e+00 -1.000000e+00
    outer loop
      vertex   -1.515544e+01 -8.750000e+00 -7.500000e+01
      vertex   -1.520544e+01 -8.778868e+00 -7.500000e+01
      vertex   -1.515544e+01 8.750000e+00 -7.500000e+01
    endloop
  endfacet
  facet normal -0.000000e+00 0.000000e+00 -1.000000e+00
    outer loop
      vertex   -1.515544e+01 8.750000e+00 -7.500000e+01
      vertex   -1.520544e+01 -8.778868e+00 -7.500000e+01
      vertex   -1.520544e+01 8.778868e+00 -7.500000e+01
    endloop
  endfacet
  facet normal 0.000000e+00 0.000000e+00 -1.000000e+00
    outer loop
      vertex   -1.515544e+01 8.750000e+00 -7.500000e+01
      vertex   -1.520544e+01 8.778868e+00 -7.500000e+01
      vertex   2.817480e-15 1.755774e+01 -7.500000e+01
    endloop
  endfacet
  facet normal 0.000000e+00 -0.000000e+00 -1.000000e+00
    outer loop
      vertex   -3.469447e-15 -1.750000e+01 -7.500000e+01
      vertex   1.515544e+01 -8.750000e+00 -7.500000e+01
      vertex   -8.072247e-15 -1.755774e+01 -7.500000e+01
    endloop
  endfacet
  facet normal 0.000000e+00 0.000000e+00 -1.000000e+00
    outer loop
      vertex   -8.072247e-15 -1.755774e+01 -7.500000e+01
      vertex   1.515544e+01 -8.750000e+00 -7.500000e+01
      vertex   1.520544e+01 -8.778868e+00 -7.500000e+01
    endloop
  endfacet
  facet normal 0.000000e+00 0.000000e+00 -1.000000e+00
    outer loop
      vertex   1.520544e+01 -8.778868e+00 -7.500000e+01
      vertex   1.515544e+01 -8.750000e+00 -7.500000e+01
      vertex   1.515544e+01 8.750000e+00 -7.500000e+01
    endloop
  endfacet
  facet normal 0.000000e+00 0.000000e+00 -1.000000e+00
    outer loop
      vertex   1.520544e+01 -8.778868e+00 -7.500000e+01
      vertex   1.515544e+01 8.750000e+00 -7.500000e+01
      vertex   1.520544e+01 8.778868e+00 -7.500000e+01
    endloop
  endfacet
  facet normal -0.000000e+00 0.000000e+00 -1.000000e+00
    outer loop
      vertex   1.520544e+01 8.778868e+00 -7.500000e+01
      vertex   1.515544e+01 8.750000e+00 -7.500000e+01
      vertex   2.817480e-15 1.755774e+01 -7.500000e+01
    endloop
  endfacet
  facet normal 0.000000e+00 -0.000000e+00 -1.000000e+00
    outer loop
      vertex   2.817480e-15 1.755774e+01 -7.500000e+01
      vertex   1.515544e+01 8.750000e+00 -7.500000e+01
      vertex   1.873501e-15 1.750000e+01 -7.500000e+01
    endloop
  endfacet
  facet normal 0.000000e+00 0.000000e+00 -1.000000e+00
    outer loop
      vertex   2.817480e-15 1.755774e+01 -7.500000e+01
      vertex   1.873501e-15 1.750000e+01 -7.500000e+01
      vertex   -1.515544e+01 8.750000e+00 -7.500000e+01
    endloop
  endfacet
endsolid
