solid ASCII
  facet normal -1.000000e+00 0.000000e+00 2.707861e-16
    outer loop
      vertex   -2.090000e+00 2.155000e+00 7.500000e+01
      vertex   -2.090000e+00 -2.155000e+00 7.500000e+01
      vertex   -2.090000e+00 2.155000e+00 7.664000e+01
    endloop
  endfacet
  facet normal -1.000000e+00 0.000000e+00 2.707861e-16
    outer loop
      vertex   -2.090000e+00 2.155000e+00 7.664000e+01
      vertex   -2.090000e+00 -2.155000e+00 7.500000e+01
      vertex   -2.090000e+00 -2.155000e+00 7.664000e+01
    endloop
  endfacet
  facet normal 0.000000e+00 1.000000e+00 -0.000000e+00
    outer loop
      vertex   2.090000e+00 2.155000e+00 7.500000e+01
      vertex   -2.090000e+00 2.155000e+00 7.500000e+01
      vertex   2.090000e+00 2.155000e+00 7.664000e+01
    endloop
  endfacet
  facet normal 0.000000e+00 1.000000e+00 0.000000e+00
    outer loop
      vertex   2.090000e+00 2.155000e+00 7.664000e+01
      vertex   -2.090000e+00 2.155000e+00 7.500000e+01
      vertex   -2.090000e+00 2.155000e+00 7.664000e+01
    endloop
  endfacet
  facet normal 1.000000e+00 0.000000e+00 0.000000e+00
    outer loop
      vertex   2.090000e+00 -2.155000e+00 7.500000e+01
      vertex   2.090000e+00 2.155000e+00 7.500000e+01
      vertex   2.090000e+00 -2.155000e+00 7.664000e+01
    endloop
  endfacet
  facet normal 1.000000e+00 -0.000000e+00 0.000000e+00
    outer loop
      vertex   2.090000e+00 -2.155000e+00 7.664000e+01
      vertex   2.090000e+00 2.155000e+00 7.500000e+01
      vertex   2.090000e+00 2.155000e+00 7.664000e+01
    endloop
  endfacet
  facet normal 0.000000e+00 -1.000000e+00 0.000000e+00
    outer loop
      vertex   -2.090000e+00 -2.155000e+00 7.500000e+01
      vertex   2.090000e+00 -2.155000e+00 7.500000e+01
      vertex   -2.090000e+00 -2.155000e+00 7.664000e+01
    endloop
  endfacet
  facet normal 0.000000e+00 -1.000000e+00 0.000000e+00
    outer loop
      vertex   -2.090000e+00 -2.155000e+00 7.664000e+01
      vertex   2.090000e+00 -2.155000e+00 7.500000e+01
      vertex   2.090000e+00 -2.155000e+00 7.664000e+01
    endloop
  endfacet
  facet normal 0.000000e+00 0.000000e+00 1.000000e+00
    outer loop
      vertex   -2.090000e+00 -2.155000e+00 7.664000e+01
      vertex   2.090000e+00 -2.155000e+00 7.664000e+01
      vertex   -2.090000e+00 2.155000e+00 7.664000e+01
    endloop
  endfacet
  facet normal -0.000000e+00 0.000000e+00 1.000000e+00
    outer loop
      vertex   -2.090000e+00 2.155000e+00 7.664000e+01
      vertex   2.090000e+00 -2.155000e+00 7.664000e+01
      vertex   2.090000e+00 2.155000e+00 7.664000e+01
    endloop
  endfacet
  facet normal 0.000000e+00 0.000000e+00 -1.000000e+00
    outer loop
      vertex   2.090000e+00 -2.155000e+00 7.500000e+01
      vertex   -2.090000e+00 -2.155000e+00 7.500000e+01
      vertex   2.090000e+00 2.155000e+00 7.500000e+01
    endloop
  endfacet
  facet normal -0.000000e+00 0.000000e+00 -1.000000e+00
    outer loop
      vertex   2.090000e+00 2.155000e+00 7.500000e+01
      vertex   -2.090000e+00 -2.155000e+00 7.500000e+01
      vertex   -2.090000e+00 2.155000e+00 7.500000e+01
    endloop
  endfacet
endsolid
