solid ASCII
  facet normal -0.000000e+00 0.000000e+00 -1.000000e+00
    outer loop
      vertex   6.495191e+00 3.750000e+00 -7.500000e+01
      vertex   -2.220446e-15 -7.500000e+00 -7.500000e+01
      vertex   0.000000e+00 7.500000e+00 -7.500000e+01
    endloop
  endfacet
  facet normal 0.000000e+00 0.000000e+00 -1.000000e+00
    outer loop
      vertex   0.000000e+00 7.500000e+00 -7.500000e+01
      vertex   -2.220446e-15 -7.500000e+00 -7.500000e+01
      vertex   -6.495191e+00 -3.750000e+00 -7.500000e+01
    endloop
  endfacet
  facet normal 0.000000e+00 0.000000e+00 -1.000000e+00
    outer loop
      vertex   0.000000e+00 7.500000e+00 -7.500000e+01
      vertex   -6.495191e+00 -3.750000e+00 -7.500000e+01
      vertex   -6.495191e+00 3.750000e+00 -7.500000e+01
    endloop
  endfacet
  facet normal 0.000000e+00 0.000000e+00 -1.000000e+00
    outer loop
      vertex   6.495191e+00 3.750000e+00 -7.500000e+01
      vertex   6.495191e+00 -3.750000e+00 -7.500000e+01
      vertex   -2.220446e-15 -7.500000e+00 -7.500000e+01
    endloop
  endfacet
  facet normal 1.000000e+00 -3.552714e-16 0.000000e+00
    outer loop
      vertex   6.495191e+00 3.750000e+00 7.500000e+01
      vertex   6.495191e+00 -3.750000e+00 7.500000e+01
      vertex   6.495191e+00 3.750000e+00 -7.500000e+01
    endloop
  endfacet
  facet normal 1.000000e+00 -3.552714e-16 0.000000e+00
    outer loop
      vertex   6.495191e+00 3.750000e+00 -7.500000e+01
      vertex   6.495191e+00 -3.750000e+00 7.500000e+01
      vertex   6.495191e+00 -3.750000e+00 -7.500000e+01
    endloop
  endfacet
  facet normal 5.000000e-01 -8.660254e-01 0.000000e+00
    outer loop
      vertex   6.495191e+00 -3.750000e+00 7.500000e+01
      vertex   -2.220446e-15 -7.500000e+00 7.500000e+01
      vertex   6.495191e+00 -3.750000e+00 -7.500000e+01
    endloop
  endfacet
  facet normal 5.000000e-01 -8.660254e-01 0.000000e+00
    outer loop
      vertex   6.495191e+00 -3.750000e+00 -7.500000e+01
      vertex   -2.220446e-15 -7.500000e+00 7.500000e+01
      vertex   -2.220446e-15 -7.500000e+00 -7.500000e+01
    endloop
  endfacet
  facet normal -5.000000e-01 -8.660254e-01 -0.000000e+00
    outer loop
      vertex   -2.220446e-15 -7.500000e+00 7.500000e+01
      vertex   -6.495191e+00 -3.750000e+00 7.500000e+01
      vertex   -2.220446e-15 -7.500000e+00 -7.500000e+01
    endloop
  endfacet
  facet normal -5.000000e-01 -8.660254e-01 0.000000e+00
    outer loop
      vertex   -2.220446e-15 -7.500000e+00 -7.500000e+01
      vertex   -6.495191e+00 -3.750000e+00 7.500000e+01
      vertex   -6.495191e+00 -3.750000e+00 -7.500000e+01
    endloop
  endfacet
  facet normal -1.000000e+00 2.368476e-16 0.000000e+00
    outer loop
      vertex   -6.495191e+00 -3.750000e+00 7.500000e+01
      vertex   -6.495191e+00 3.750000e+00 7.500000e+01
      vertex   -6.495191e+00 -3.750000e+00 -7.500000e+01
    endloop
  endfacet
  facet normal -1.000000e+00 2.368476e-16 0.000000e+00
    outer loop
      vertex   -6.495191e+00 -3.750000e+00 -7.500000e+01
      vertex   -6.495191e+00 3.750000e+00 7.500000e+01
      vertex   -6.495191e+00 3.750000e+00 -7.500000e+01
    endloop
  endfacet
  facet normal -5.000000e-01 8.660254e-01 0.000000e+00
    outer loop
      vertex   -6.495191e+00 3.750000e+00 7.500000e+01
      vertex   0.000000e+00 7.500000e+00 7.500000e+01
      vertex   -6.495191e+00 3.750000e+00 -7.500000e+01
    endloop
  endfacet
  facet normal -5.000000e-01 8.660254e-01 0.000000e+00
    outer loop
      vertex   -6.495191e+00 3.750000e+00 -7.500000e+01
      vertex   0.000000e+00 7.500000e+00 7.500000e+01
      vertex   0.000000e+00 7.500000e+00 -7.500000e+01
    endloop
  endfacet
  facet normal 5.000000e-01 8.660254e-01 0.000000e+00
    outer loop
      vertex   0.000000e+00 7.500000e+00 7.500000e+01
      vertex   6.495191e+00 3.750000e+00 7.500000e+01
      vertex   0.000000e+00 7.500000e+00 -7.500000e+01
    endloop
  endfacet
  facet normal 5.000000e-01 8.660254e-01 0.000000e+00
    outer loop
      vertex   0.000000e+00 7.500000e+00 -7.500000e+01
      vertex   6.495191e+00 3.750000e+00 7.500000e+01
      vertex   6.495191e+00 3.750000e+00 -7.500000e+01
    endloop
  endfacet
  facet normal 0.000000e+00 0.000000e+00 1.000000e+00
    outer loop
      vertex   6.495191e+00 3.750000e+00 7.500000e+01
      vertex   0.000000e+00 7.500000e+00 7.500000e+01
      vertex   6.495191e+00 -3.750000e+00 7.500000e+01
    endloop
  endfacet
  facet normal 0.000000e+00 0.000000e+00 1.000000e+00
    outer loop
      vertex   6.495191e+00 -3.750000e+00 7.500000e+01
      vertex   0.000000e+00 7.500000e+00 7.500000e+01
      vertex   -2.220446e-15 -7.500000e+00 7.500000e+01
    endloop
  endfacet
  facet normal 0.000000e+00 -0.000000e+00 1.000000e+00
    outer loop
      vertex   -2.220446e-15 -7.500000e+00 7.500000e+01
      vertex   0.000000e+00 7.500000e+00 7.500000e+01
      vertex   -6.495191e+00 3.750000e+00 7.500000e+01
    endloop
  endfacet
  facet normal 0.000000e+00 0.000000e+00 1.000000e+00
    outer loop
      vertex   -2.220446e-15 -7.500000e+00 7.500000e+01
      vertex   -6.495191e+00 3.750000e+00 7.500000e+01
      vertex   -6.495191e+00 -3.750000e+00 7.500000e+01
    endloop
  endfacet
endsolid
