solid ASCII
  facet normal -0.000000e+00 0.000000e+00 -1.000000e+00
    outer loop
      vertex   6.545191e+00 3.778868e+00 -7.505000e+01
      vertex   -2.430058e-15 -7.557735e+00 -7.505000e+01
      vertex   -9.078386e-16 7.557735e+00 -7.505000e+01
    endloop
  endfacet
  facet normal 0.000000e+00 0.000000e+00 -1.000000e+00
    outer loop
      vertex   -9.078386e-16 7.557735e+00 -7.505000e+01
      vertex   -2.430058e-15 -7.557735e+00 -7.505000e+01
      vertex   -6.545191e+00 -3.778868e+00 -7.505000e+01
    endloop
  endfacet
  facet normal 0.000000e+00 0.000000e+00 -1.000000e+00
    outer loop
      vertex   -9.078386e-16 7.557735e+00 -7.505000e+01
      vertex   -6.545191e+00 -3.778868e+00 -7.505000e+01
      vertex   -6.545191e+00 3.778868e+00 -7.505000e+01
    endloop
  endfacet
  facet normal 0.000000e+00 0.000000e+00 -1.000000e+00
    outer loop
      vertex   6.545191e+00 3.778868e+00 -7.505000e+01
      vertex   6.545191e+00 -3.778868e+00 -7.505000e+01
      vertex   -2.430058e-15 -7.557735e+00 -7.505000e+01
    endloop
  endfacet
  facet normal 5.000000e-01 8.660254e-01 0.000000e+00
    outer loop
      vertex   -9.078386e-16 7.557735e+00 7.505000e+01
      vertex   6.545191e+00 3.778868e+00 7.505000e+01
      vertex   -9.078386e-16 7.557735e+00 -7.505000e+01
    endloop
  endfacet
  facet normal 5.000000e-01 8.660254e-01 0.000000e+00
    outer loop
      vertex   -9.078386e-16 7.557735e+00 -7.505000e+01
      vertex   6.545191e+00 3.778868e+00 7.505000e+01
      vertex   6.545191e+00 3.778868e+00 -7.505000e+01
    endloop
  endfacet
  facet normal -5.000000e-01 8.660254e-01 0.000000e+00
    outer loop
      vertex   -6.545191e+00 3.778868e+00 7.505000e+01
      vertex   -9.078386e-16 7.557735e+00 7.505000e+01
      vertex   -6.545191e+00 3.778868e+00 -7.505000e+01
    endloop
  endfacet
  facet normal -5.000000e-01 8.660254e-01 0.000000e+00
    outer loop
      vertex   -6.545191e+00 3.778868e+00 -7.505000e+01
      vertex   -9.078386e-16 7.557735e+00 7.505000e+01
      vertex   -9.078386e-16 7.557735e+00 -7.505000e+01
    endloop
  endfacet
  facet normal 1.000000e+00 -2.350383e-16 0.000000e+00
    outer loop
      vertex   6.545191e+00 3.778868e+00 7.505000e+01
      vertex   6.545191e+00 -3.778868e+00 7.505000e+01
      vertex   6.545191e+00 3.778868e+00 -7.505000e+01
    endloop
  endfacet
  facet normal 1.000000e+00 -2.350383e-16 0.000000e+00
    outer loop
      vertex   6.545191e+00 3.778868e+00 -7.505000e+01
      vertex   6.545191e+00 -3.778868e+00 7.505000e+01
      vertex   6.545191e+00 -3.778868e+00 -7.505000e+01
    endloop
  endfacet
  facet normal 5.000000e-01 -8.660254e-01 0.000000e+00
    outer loop
      vertex   6.545191e+00 -3.778868e+00 7.505000e+01
      vertex   -2.430058e-15 -7.557735e+00 7.505000e+01
      vertex   6.545191e+00 -3.778868e+00 -7.505000e+01
    endloop
  endfacet
  facet normal 5.000000e-01 -8.660254e-01 0.000000e+00
    outer loop
      vertex   6.545191e+00 -3.778868e+00 -7.505000e+01
      vertex   -2.430058e-15 -7.557735e+00 7.505000e+01
      vertex   -2.430058e-15 -7.557735e+00 -7.505000e+01
    endloop
  endfacet
  facet normal -5.000000e-01 -8.660254e-01 -0.000000e+00
    outer loop
      vertex   -2.430058e-15 -7.557735e+00 7.505000e+01
      vertex   -6.545191e+00 -3.778868e+00 7.505000e+01
      vertex   -2.430058e-15 -7.557735e+00 -7.505000e+01
    endloop
  endfacet
  facet normal -5.000000e-01 -8.660254e-01 0.000000e+00
    outer loop
      vertex   -2.430058e-15 -7.557735e+00 -7.505000e+01
      vertex   -6.545191e+00 -3.778868e+00 7.505000e+01
      vertex   -6.545191e+00 -3.778868e+00 -7.505000e+01
    endloop
  endfacet
  facet normal -1.000000e+00 1.175191e-16 0.000000e+00
    outer loop
      vertex   -6.545191e+00 -3.778868e+00 7.505000e+01
      vertex   -6.545191e+00 3.778868e+00 7.505000e+01
      vertex   -6.545191e+00 -3.778868e+00 -7.505000e+01
    endloop
  endfacet
  facet normal -1.000000e+00 1.175191e-16 0.000000e+00
    outer loop
      vertex   -6.545191e+00 -3.778868e+00 -7.505000e+01
      vertex   -6.545191e+00 3.778868e+00 7.505000e+01
      vertex   -6.545191e+00 3.778868e+00 -7.505000e+01
    endloop
  endfacet
  facet normal -0.000000e+00 -1.000000e+00 -0.000000e+00
    outer loop
      vertex   4.443237e+00 -4.391996e+00 7.669000e+01
      vertex   -4.336763e+00 -4.391996e+00 7.669000e+01
      vertex   4.443237e+00 -4.391996e+00 7.505000e+01
    endloop
  endfacet
  facet normal 0.000000e+00 -1.000000e+00 0.000000e+00
    outer loop
      vertex   4.443237e+00 -4.391996e+00 7.505000e+01
      vertex   -4.336763e+00 -4.391996e+00 7.669000e+01
      vertex   -4.336763e+00 -4.391996e+00 7.505000e+01
    endloop
  endfacet
  facet normal 0.000000e+00 0.000000e+00 1.000000e+00
    outer loop
      vertex   -4.336763e+00 -4.391996e+00 7.669000e+01
      vertex   4.443237e+00 -4.391996e+00 7.669000e+01
      vertex   -4.336763e+00 4.518004e+00 7.669000e+01
    endloop
  endfacet
  facet normal -0.000000e+00 0.000000e+00 1.000000e+00
    outer loop
      vertex   -4.336763e+00 4.518004e+00 7.669000e+01
      vertex   4.443237e+00 -4.391996e+00 7.669000e+01
      vertex   4.443237e+00 4.518004e+00 7.669000e+01
    endloop
  endfacet
  facet normal -0.000000e+00 0.000000e+00 1.000000e+00
    outer loop
      vertex   -4.336763e+00 -4.391996e+00 7.505000e+01
      vertex   -2.430058e-15 -7.557735e+00 7.505000e+01
      vertex   4.443237e+00 -4.391996e+00 7.505000e+01
    endloop
  endfacet
  facet normal -0.000000e+00 0.000000e+00 1.000000e+00
    outer loop
      vertex   4.443237e+00 -4.391996e+00 7.505000e+01
      vertex   -2.430058e-15 -7.557735e+00 7.505000e+01
      vertex   6.545191e+00 -3.778868e+00 7.505000e+01
    endloop
  endfacet
  facet normal 0.000000e+00 0.000000e+00 1.000000e+00
    outer loop
      vertex   4.443237e+00 -4.391996e+00 7.505000e+01
      vertex   6.545191e+00 -3.778868e+00 7.505000e+01
      vertex   6.545191e+00 3.778868e+00 7.505000e+01
    endloop
  endfacet
  facet normal 0.000000e+00 0.000000e+00 1.000000e+00
    outer loop
      vertex   -4.336763e+00 4.518004e+00 7.505000e+01
      vertex   -6.545191e+00 3.778868e+00 7.505000e+01
      vertex   -4.336763e+00 -4.391996e+00 7.505000e+01
    endloop
  endfacet
  facet normal 0.000000e+00 0.000000e+00 1.000000e+00
    outer loop
      vertex   -4.336763e+00 -4.391996e+00 7.505000e+01
      vertex   -6.545191e+00 3.778868e+00 7.505000e+01
      vertex   -6.545191e+00 -3.778868e+00 7.505000e+01
    endloop
  endfacet
  facet normal 0.000000e+00 0.000000e+00 1.000000e+00
    outer loop
      vertex   -4.336763e+00 -4.391996e+00 7.505000e+01
      vertex   -6.545191e+00 -3.778868e+00 7.505000e+01
      vertex   -2.430058e-15 -7.557735e+00 7.505000e+01
    endloop
  endfacet
  facet normal 0.000000e+00 0.000000e+00 1.000000e+00
    outer loop
      vertex   -6.545191e+00 3.778868e+00 7.505000e+01
      vertex   -4.336763e+00 4.518004e+00 7.505000e+01
      vertex   -9.078386e-16 7.557735e+00 7.505000e+01
    endloop
  endfacet
  facet normal 0.000000e+00 0.000000e+00 1.000000e+00
    outer loop
      vertex   -9.078386e-16 7.557735e+00 7.505000e+01
      vertex   -4.336763e+00 4.518004e+00 7.505000e+01
      vertex   4.443237e+00 4.518004e+00 7.505000e+01
    endloop
  endfacet
  facet normal 0.000000e+00 0.000000e+00 1.000000e+00
    outer loop
      vertex   -9.078386e-16 7.557735e+00 7.505000e+01
      vertex   4.443237e+00 4.518004e+00 7.505000e+01
      vertex   6.545191e+00 3.778868e+00 7.505000e+01
    endloop
  endfacet
  facet normal 0.000000e+00 0.000000e+00 1.000000e+00
    outer loop
      vertex   6.545191e+00 3.778868e+00 7.505000e+01
      vertex   4.443237e+00 4.518004e+00 7.505000e+01
      vertex   4.443237e+00 -4.391996e+00 7.505000e+01
    endloop
  endfacet
  facet normal 1.000000e+00 0.000000e+00 0.000000e+00
    outer loop
      vertex   4.443237e+00 -4.391996e+00 7.505000e+01
      vertex   4.443237e+00 4.518004e+00 7.505000e+01
      vertex   4.443237e+00 -4.391996e+00 7.669000e+01
    endloop
  endfacet
  facet normal 1.000000e+00 -0.000000e+00 0.000000e+00
    outer loop
      vertex   4.443237e+00 -4.391996e+00 7.669000e+01
      vertex   4.443237e+00 4.518004e+00 7.505000e+01
      vertex   4.443237e+00 4.518004e+00 7.669000e+01
    endloop
  endfacet
  facet normal -1.000000e+00 0.000000e+00 0.000000e+00
    outer loop
      vertex   -4.336763e+00 -4.391996e+00 7.669000e+01
      vertex   -4.336763e+00 4.518004e+00 7.669000e+01
      vertex   -4.336763e+00 -4.391996e+00 7.505000e+01
    endloop
  endfacet
  facet normal -1.000000e+00 0.000000e+00 0.000000e+00
    outer loop
      vertex   -4.336763e+00 -4.391996e+00 7.505000e+01
      vertex   -4.336763e+00 4.518004e+00 7.669000e+01
      vertex   -4.336763e+00 4.518004e+00 7.505000e+01
    endloop
  endfacet
  facet normal 0.000000e+00 1.000000e+00 -0.000000e+00
    outer loop
      vertex   4.443237e+00 4.518004e+00 7.505000e+01
      vertex   -4.336763e+00 4.518004e+00 7.505000e+01
      vertex   4.443237e+00 4.518004e+00 7.669000e+01
    endloop
  endfacet
  facet normal 0.000000e+00 1.000000e+00 0.000000e+00
    outer loop
      vertex   4.443237e+00 4.518004e+00 7.669000e+01
      vertex   -4.336763e+00 4.518004e+00 7.505000e+01
      vertex   -4.336763e+00 4.518004e+00 7.669000e+01
    endloop
  endfacet
endsolid
