solid ASCII
  facet normal -0.000000e+00 0.000000e+00 -1.000000e+00
    outer loop
      vertex   4.330127e+00 2.500000e+00 -7.500000e+01
      vertex   -5.551115e-16 -5.000000e+00 -7.500000e+01
      vertex   8.326673e-16 5.000000e+00 -7.500000e+01
    endloop
  endfacet
  facet normal 0.000000e+00 0.000000e+00 -1.000000e+00
    outer loop
      vertex   8.326673e-16 5.000000e+00 -7.500000e+01
      vertex   -5.551115e-16 -5.000000e+00 -7.500000e+01
      vertex   -4.330127e+00 -2.500000e+00 -7.500000e+01
    endloop
  endfacet
  facet normal 0.000000e+00 0.000000e+00 -1.000000e+00
    outer loop
      vertex   8.326673e-16 5.000000e+00 -7.500000e+01
      vertex   -4.330127e+00 -2.500000e+00 -7.500000e+01
      vertex   -4.330127e+00 2.500000e+00 -7.500000e+01
    endloop
  endfacet
  facet normal 0.000000e+00 0.000000e+00 -1.000000e+00
    outer loop
      vertex   4.330127e+00 2.500000e+00 -7.500000e+01
      vertex   4.330127e+00 -2.500000e+00 -7.500000e+01
      vertex   -5.551115e-16 -5.000000e+00 -7.500000e+01
    endloop
  endfacet
  facet normal 1.000000e+00 -5.329071e-16 0.000000e+00
    outer loop
      vertex   4.330127e+00 2.500000e+00 -7.500000e+01
      vertex   4.330127e+00 2.500000e+00 -2.500000e+01
      vertex   4.330127e+00 -2.500000e+00 -7.500000e+01
    endloop
  endfacet
  facet normal 1.000000e+00 -5.329071e-16 0.000000e+00
    outer loop
      vertex   4.330127e+00 -2.500000e+00 -7.500000e+01
      vertex   4.330127e+00 2.500000e+00 -2.500000e+01
      vertex   4.330127e+00 -2.500000e+00 -2.500000e+01
    endloop
  endfacet
  facet normal 1.000000e+00 -5.329071e-16 0.000000e+00
    outer loop
      vertex   4.330127e+00 -2.500000e+00 -2.500000e+01
      vertex   4.330127e+00 2.500000e+00 -2.500000e+01
      vertex   4.330127e+00 2.500000e+00 2.500000e+01
    endloop
  endfacet
  facet normal 1.000000e+00 -5.329071e-16 0.000000e+00
    outer loop
      vertex   4.330127e+00 -2.500000e+00 -2.500000e+01
      vertex   4.330127e+00 2.500000e+00 2.500000e+01
      vertex   4.330127e+00 -2.500000e+00 2.500000e+01
    endloop
  endfacet
  facet normal 1.000000e+00 -5.329071e-16 0.000000e+00
    outer loop
      vertex   4.330127e+00 -2.500000e+00 2.500000e+01
      vertex   4.330127e+00 2.500000e+00 2.500000e+01
      vertex   4.330127e+00 2.500000e+00 7.500000e+01
    endloop
  endfacet
  facet normal 1.000000e+00 -5.329071e-16 0.000000e+00
    outer loop
      vertex   4.330127e+00 -2.500000e+00 2.500000e+01
      vertex   4.330127e+00 2.500000e+00 7.500000e+01
      vertex   4.330127e+00 -2.500000e+00 7.500000e+01
    endloop
  endfacet
  facet normal 5.000000e-01 -8.660254e-01 0.000000e+00
    outer loop
      vertex   4.330127e+00 -2.500000e+00 -7.500000e+01
      vertex   4.330127e+00 -2.500000e+00 -2.500000e+01
      vertex   -5.551115e-16 -5.000000e+00 -7.500000e+01
    endloop
  endfacet
  facet normal 5.000000e-01 -8.660254e-01 0.000000e+00
    outer loop
      vertex   -5.551115e-16 -5.000000e+00 -7.500000e+01
      vertex   4.330127e+00 -2.500000e+00 -2.500000e+01
      vertex   -5.551115e-16 -5.000000e+00 -2.500000e+01
    endloop
  endfacet
  facet normal 5.000000e-01 -8.660254e-01 0.000000e+00
    outer loop
      vertex   -5.551115e-16 -5.000000e+00 -2.500000e+01
      vertex   4.330127e+00 -2.500000e+00 -2.500000e+01
      vertex   4.330127e+00 -2.500000e+00 2.500000e+01
    endloop
  endfacet
  facet normal 5.000000e-01 -8.660254e-01 0.000000e+00
    outer loop
      vertex   -5.551115e-16 -5.000000e+00 -2.500000e+01
      vertex   4.330127e+00 -2.500000e+00 2.500000e+01
      vertex   -5.551115e-16 -5.000000e+00 2.500000e+01
    endloop
  endfacet
  facet normal 5.000000e-01 -8.660254e-01 0.000000e+00
    outer loop
      vertex   -5.551115e-16 -5.000000e+00 2.500000e+01
      vertex   4.330127e+00 -2.500000e+00 2.500000e+01
      vertex   4.330127e+00 -2.500000e+00 7.500000e+01
    endloop
  endfacet
  facet normal 5.000000e-01 -8.660254e-01 0.000000e+00
    outer loop
      vertex   -5.551115e-16 -5.000000e+00 2.500000e+01
      vertex   4.330127e+00 -2.500000e+00 7.500000e+01
      vertex   -5.551115e-16 -5.000000e+00 7.500000e+01
    endloop
  endfacet
  facet normal -5.000000e-01 -8.660254e-01 0.000000e+00
    outer loop
      vertex   -5.551115e-16 -5.000000e+00 -7.500000e+01
      vertex   -5.551115e-16 -5.000000e+00 -2.500000e+01
      vertex   -4.330127e+00 -2.500000e+00 -7.500000e+01
    endloop
  endfacet
  facet normal -5.000000e-01 -8.660254e-01 1.776357e-17
    outer loop
      vertex   -4.330127e+00 -2.500000e+00 -7.500000e+01
      vertex   -5.551115e-16 -5.000000e+00 -2.500000e+01
      vertex   -4.330127e+00 -2.500000e+00 -2.500000e+01
    endloop
  endfacet
  facet normal -5.000000e-01 -8.660254e-01 0.000000e+00
    outer loop
      vertex   -4.330127e+00 -2.500000e+00 -2.500000e+01
      vertex   -5.551115e-16 -5.000000e+00 -2.500000e+01
      vertex   -5.551115e-16 -5.000000e+00 2.500000e+01
    endloop
  endfacet
  facet normal -5.000000e-01 -8.660254e-01 0.000000e+00
    outer loop
      vertex   -4.330127e+00 -2.500000e+00 -2.500000e+01
      vertex   -5.551115e-16 -5.000000e+00 2.500000e+01
      vertex   -4.330127e+00 -2.500000e+00 2.500000e+01
    endloop
  endfacet
  facet normal -5.000000e-01 -8.660254e-01 0.000000e+00
    outer loop
      vertex   -4.330127e+00 -2.500000e+00 2.500000e+01
      vertex   -5.551115e-16 -5.000000e+00 2.500000e+01
      vertex   -5.551115e-16 -5.000000e+00 7.500000e+01
    endloop
  endfacet
  facet normal -5.000000e-01 -8.660254e-01 -1.776357e-17
    outer loop
      vertex   -4.330127e+00 -2.500000e+00 2.500000e+01
      vertex   -5.551115e-16 -5.000000e+00 7.500000e+01
      vertex   -4.330127e+00 -2.500000e+00 7.500000e+01
    endloop
  endfacet
  facet normal -1.000000e+00 5.329071e-16 3.552714e-17
    outer loop
      vertex   -4.330127e+00 -2.500000e+00 -7.500000e+01
      vertex   -4.330127e+00 -2.500000e+00 -2.500000e+01
      vertex   -4.330127e+00 2.500000e+00 -7.500000e+01
    endloop
  endfacet
  facet normal -1.000000e+00 1.776357e-16 0.000000e+00
    outer loop
      vertex   -4.330127e+00 2.500000e+00 -7.500000e+01
      vertex   -4.330127e+00 -2.500000e+00 -2.500000e+01
      vertex   -4.330127e+00 2.500000e+00 -2.500000e+01
    endloop
  endfacet
  facet normal -1.000000e+00 1.776357e-16 0.000000e+00
    outer loop
      vertex   -4.330127e+00 2.500000e+00 -2.500000e+01
      vertex   -4.330127e+00 -2.500000e+00 -2.500000e+01
      vertex   -4.330127e+00 -2.500000e+00 2.500000e+01
    endloop
  endfacet
  facet normal -1.000000e+00 1.776357e-16 0.000000e+00
    outer loop
      vertex   -4.330127e+00 2.500000e+00 -2.500000e+01
      vertex   -4.330127e+00 -2.500000e+00 2.500000e+01
      vertex   -4.330127e+00 2.500000e+00 2.500000e+01
    endloop
  endfacet
  facet normal -1.000000e+00 1.776357e-16 -3.552714e-17
    outer loop
      vertex   -4.330127e+00 2.500000e+00 2.500000e+01
      vertex   -4.330127e+00 -2.500000e+00 2.500000e+01
      vertex   -4.330127e+00 -2.500000e+00 7.500000e+01
    endloop
  endfacet
  facet normal -1.000000e+00 5.329071e-16 0.000000e+00
    outer loop
      vertex   -4.330127e+00 2.500000e+00 2.500000e+01
      vertex   -4.330127e+00 -2.500000e+00 7.500000e+01
      vertex   -4.330127e+00 2.500000e+00 7.500000e+01
    endloop
  endfacet
  facet normal -5.000000e-01 8.660254e-01 0.000000e+00
    outer loop
      vertex   -4.330127e+00 2.500000e+00 -7.500000e+01
      vertex   -4.330127e+00 2.500000e+00 -2.500000e+01
      vertex   8.326673e-16 5.000000e+00 -7.500000e+01
    endloop
  endfacet
  facet normal -5.000000e-01 8.660254e-01 0.000000e+00
    outer loop
      vertex   8.326673e-16 5.000000e+00 -7.500000e+01
      vertex   -4.330127e+00 2.500000e+00 -2.500000e+01
      vertex   8.326673e-16 5.000000e+00 -2.500000e+01
    endloop
  endfacet
  facet normal -5.000000e-01 8.660254e-01 0.000000e+00
    outer loop
      vertex   8.326673e-16 5.000000e+00 -2.500000e+01
      vertex   -4.330127e+00 2.500000e+00 -2.500000e+01
      vertex   -4.330127e+00 2.500000e+00 2.500000e+01
    endloop
  endfacet
  facet normal -5.000000e-01 8.660254e-01 0.000000e+00
    outer loop
      vertex   8.326673e-16 5.000000e+00 -2.500000e+01
      vertex   -4.330127e+00 2.500000e+00 2.500000e+01
      vertex   8.326673e-16 5.000000e+00 2.500000e+01
    endloop
  endfacet
  facet normal -5.000000e-01 8.660254e-01 0.000000e+00
    outer loop
      vertex   8.326673e-16 5.000000e+00 2.500000e+01
      vertex   -4.330127e+00 2.500000e+00 2.500000e+01
      vertex   -4.330127e+00 2.500000e+00 7.500000e+01
    endloop
  endfacet
  facet normal -5.000000e-01 8.660254e-01 0.000000e+00
    outer loop
      vertex   8.326673e-16 5.000000e+00 2.500000e+01
      vertex   -4.330127e+00 2.500000e+00 7.500000e+01
      vertex   8.326673e-16 5.000000e+00 7.500000e+01
    endloop
  endfacet
  facet normal 5.000000e-01 8.660254e-01 -0.000000e+00
    outer loop
      vertex   8.326673e-16 5.000000e+00 -7.500000e+01
      vertex   8.326673e-16 5.000000e+00 -2.500000e+01
      vertex   4.330127e+00 2.500000e+00 -7.500000e+01
    endloop
  endfacet
  facet normal 5.000000e-01 8.660254e-01 -0.000000e+00
    outer loop
      vertex   4.330127e+00 2.500000e+00 -7.500000e+01
      vertex   8.326673e-16 5.000000e+00 -2.500000e+01
      vertex   4.330127e+00 2.500000e+00 -2.500000e+01
    endloop
  endfacet
  facet normal 5.000000e-01 8.660254e-01 0.000000e+00
    outer loop
      vertex   4.330127e+00 2.500000e+00 -2.500000e+01
      vertex   8.326673e-16 5.000000e+00 -2.500000e+01
      vertex   8.326673e-16 5.000000e+00 2.500000e+01
    endloop
  endfacet
  facet normal 5.000000e-01 8.660254e-01 -0.000000e+00
    outer loop
      vertex   4.330127e+00 2.500000e+00 -2.500000e+01
      vertex   8.326673e-16 5.000000e+00 2.500000e+01
      vertex   4.330127e+00 2.500000e+00 2.500000e+01
    endloop
  endfacet
  facet normal 5.000000e-01 8.660254e-01 0.000000e+00
    outer loop
      vertex   4.330127e+00 2.500000e+00 2.500000e+01
      vertex   8.326673e-16 5.000000e+00 2.500000e+01
      vertex   8.326673e-16 5.000000e+00 7.500000e+01
    endloop
  endfacet
  facet normal 5.000000e-01 8.660254e-01 -0.000000e+00
    outer loop
      vertex   4.330127e+00 2.500000e+00 2.500000e+01
      vertex   8.326673e-16 5.000000e+00 7.500000e+01
      vertex   4.330127e+00 2.500000e+00 7.500000e+01
    endloop
  endfacet
  facet normal 0.000000e+00 0.000000e+00 1.000000e+00
    outer loop
      vertex   4.330127e+00 2.500000e+00 7.500000e+01
      vertex   8.326673e-16 5.000000e+00 7.500000e+01
      vertex   4.330127e+00 -2.500000e+00 7.500000e+01
    endloop
  endfacet
  facet normal 0.000000e+00 0.000000e+00 1.000000e+00
    outer loop
      vertex   4.330127e+00 -2.500000e+00 7.500000e+01
      vertex   8.326673e-16 5.000000e+00 7.500000e+01
      vertex   -5.551115e-16 -5.000000e+00 7.500000e+01
    endloop
  endfacet
  facet normal 0.000000e+00 -0.000000e+00 1.000000e+00
    outer loop
      vertex   -5.551115e-16 -5.000000e+00 7.500000e+01
      vertex   8.326673e-16 5.000000e+00 7.500000e+01
      vertex   -4.330127e+00 2.500000e+00 7.500000e+01
    endloop
  endfacet
  facet normal 0.000000e+00 0.000000e+00 1.000000e+00
    outer loop
      vertex   -5.551115e-16 -5.000000e+00 7.500000e+01
      vertex   -4.330127e+00 2.500000e+00 7.500000e+01
      vertex   -4.330127e+00 -2.500000e+00 7.500000e+01
    endloop
  endfacet
endsolid
