solid ASCII
  facet normal -1.000000e+00 0.000000e+00 0.000000e+00
    outer loop
      vertex   -4.336763e+00 -4.391996e+00 7.669000e+01
      vertex   -4.336763e+00 4.518004e+00 7.669000e+01
      vertex   -4.336763e+00 -4.391996e+00 7.505000e+01
    endloop
  endfacet
  facet normal -1.000000e+00 0.000000e+00 0.000000e+00
    outer loop
      vertex   -4.336763e+00 -4.391996e+00 7.505000e+01
      vertex   -4.336763e+00 4.518004e+00 7.669000e+01
      vertex   -4.336763e+00 4.518004e+00 7.505000e+01
    endloop
  endfacet
  facet normal 0.000000e+00 1.000000e+00 -0.000000e+00
    outer loop
      vertex   4.443237e+00 4.518004e+00 7.505000e+01
      vertex   -4.336763e+00 4.518004e+00 7.505000e+01
      vertex   4.443237e+00 4.518004e+00 7.669000e+01
    endloop
  endfacet
  facet normal 0.000000e+00 1.000000e+00 0.000000e+00
    outer loop
      vertex   4.443237e+00 4.518004e+00 7.669000e+01
      vertex   -4.336763e+00 4.518004e+00 7.505000e+01
      vertex   -4.336763e+00 4.518004e+00 7.669000e+01
    endloop
  endfacet
  facet normal 0.000000e+00 0.000000e+00 1.000000e+00
    outer loop
      vertex   -4.336763e+00 -4.391996e+00 7.669000e+01
      vertex   4.443237e+00 -4.391996e+00 7.669000e+01
      vertex   -4.336763e+00 4.518004e+00 7.669000e+01
    endloop
  endfacet
  facet normal -0.000000e+00 0.000000e+00 1.000000e+00
    outer loop
      vertex   -4.336763e+00 4.518004e+00 7.669000e+01
      vertex   4.443237e+00 -4.391996e+00 7.669000e+01
      vertex   4.443237e+00 4.518004e+00 7.669000e+01
    endloop
  endfacet
  facet normal -0.000000e+00 -1.000000e+00 -0.000000e+00
    outer loop
      vertex   4.443237e+00 -4.391996e+00 7.669000e+01
      vertex   -4.336763e+00 -4.391996e+00 7.669000e+01
      vertex   4.443237e+00 -4.391996e+00 7.505000e+01
    endloop
  endfacet
  facet normal 0.000000e+00 -1.000000e+00 0.000000e+00
    outer loop
      vertex   4.443237e+00 -4.391996e+00 7.505000e+01
      vertex   -4.336763e+00 -4.391996e+00 7.669000e+01
      vertex   -4.336763e+00 -4.391996e+00 7.505000e+01
    endloop
  endfacet
  facet normal -0.000000e+00 0.000000e+00 1.000000e+00
    outer loop
      vertex   -4.336763e+00 -4.391996e+00 7.505000e+01
      vertex   -5.204010e-15 -1.255774e+01 7.505000e+01
      vertex   4.443237e+00 -4.391996e+00 7.505000e+01
    endloop
  endfacet
  facet normal 0.000000e+00 0.000000e+00 1.000000e+00
    outer loop
      vertex   4.443237e+00 -4.391996e+00 7.505000e+01
      vertex   -5.204010e-15 -1.255774e+01 7.505000e+01
      vertex   1.087532e+01 -6.278868e+00 7.505000e+01
    endloop
  endfacet
  facet normal -0.000000e+00 0.000000e+00 1.000000e+00
    outer loop
      vertex   4.443237e+00 -4.391996e+00 7.505000e+01
      vertex   1.087532e+01 -6.278868e+00 7.505000e+01
      vertex   1.087532e+01 6.278868e+00 7.505000e+01
    endloop
  endfacet
  facet normal 0.000000e+00 0.000000e+00 1.000000e+00
    outer loop
      vertex   -4.336763e+00 4.518004e+00 7.505000e+01
      vertex   -1.087532e+01 6.278868e+00 7.505000e+01
      vertex   -4.336763e+00 -4.391996e+00 7.505000e+01
    endloop
  endfacet
  facet normal 0.000000e+00 0.000000e+00 1.000000e+00
    outer loop
      vertex   -4.336763e+00 -4.391996e+00 7.505000e+01
      vertex   -1.087532e+01 6.278868e+00 7.505000e+01
      vertex   -1.087532e+01 -6.278868e+00 7.505000e+01
    endloop
  endfacet
  facet normal 0.000000e+00 0.000000e+00 1.000000e+00
    outer loop
      vertex   -4.336763e+00 -4.391996e+00 7.505000e+01
      vertex   -1.087532e+01 -6.278868e+00 7.505000e+01
      vertex   -5.204010e-15 -1.255774e+01 7.505000e+01
    endloop
  endfacet
  facet normal -0.000000e+00 0.000000e+00 1.000000e+00
    outer loop
      vertex   -1.087532e+01 6.278868e+00 7.505000e+01
      vertex   -4.336763e+00 4.518004e+00 7.505000e+01
      vertex   7.934754e-16 1.255774e+01 7.505000e+01
    endloop
  endfacet
  facet normal 0.000000e+00 0.000000e+00 1.000000e+00
    outer loop
      vertex   7.934754e-16 1.255774e+01 7.505000e+01
      vertex   -4.336763e+00 4.518004e+00 7.505000e+01
      vertex   4.443237e+00 4.518004e+00 7.505000e+01
    endloop
  endfacet
  facet normal 0.000000e+00 0.000000e+00 1.000000e+00
    outer loop
      vertex   7.934754e-16 1.255774e+01 7.505000e+01
      vertex   4.443237e+00 4.518004e+00 7.505000e+01
      vertex   1.087532e+01 6.278868e+00 7.505000e+01
    endloop
  endfacet
  facet normal 0.000000e+00 0.000000e+00 1.000000e+00
    outer loop
      vertex   1.087532e+01 6.278868e+00 7.505000e+01
      vertex   4.443237e+00 4.518004e+00 7.505000e+01
      vertex   4.443237e+00 -4.391996e+00 7.505000e+01
    endloop
  endfacet
  facet normal 1.000000e+00 0.000000e+00 0.000000e+00
    outer loop
      vertex   4.443237e+00 -4.391996e+00 7.505000e+01
      vertex   4.443237e+00 4.518004e+00 7.505000e+01
      vertex   4.443237e+00 -4.391996e+00 7.669000e+01
    endloop
  endfacet
  facet normal 1.000000e+00 -0.000000e+00 0.000000e+00
    outer loop
      vertex   4.443237e+00 -4.391996e+00 7.669000e+01
      vertex   4.443237e+00 4.518004e+00 7.505000e+01
      vertex   4.443237e+00 4.518004e+00 7.669000e+01
    endloop
  endfacet
  facet normal -1.000000e+00 1.414552e-16 -3.348100e-33
    outer loop
      vertex   -1.087532e+01 6.278868e+00 -7.505000e+01
      vertex   -1.087532e+01 -6.278868e+00 -7.505000e+01
      vertex   -1.087532e+01 6.278868e+00 -3.752500e+01
    endloop
  endfacet
  facet normal -1.000000e+00 0.000000e+00 4.733796e-17
    outer loop
      vertex   -1.087532e+01 6.278868e+00 -3.752500e+01
      vertex   -1.087532e+01 -6.278868e+00 -7.505000e+01
      vertex   -1.087532e+01 -6.278868e+00 -3.752500e+01
    endloop
  endfacet
  facet normal -1.000000e+00 0.000000e+00 0.000000e+00
    outer loop
      vertex   -1.087532e+01 6.278868e+00 -3.752500e+01
      vertex   -1.087532e+01 -6.278868e+00 -3.752500e+01
      vertex   -1.087532e+01 -6.278868e+00 0.000000e+00
    endloop
  endfacet
  facet normal -1.000000e+00 0.000000e+00 0.000000e+00
    outer loop
      vertex   -1.087532e+01 6.278868e+00 -3.752500e+01
      vertex   -1.087532e+01 -6.278868e+00 0.000000e+00
      vertex   -1.087532e+01 6.278868e+00 0.000000e+00
    endloop
  endfacet
  facet normal -1.000000e+00 0.000000e+00 0.000000e+00
    outer loop
      vertex   -1.087532e+01 6.278868e+00 0.000000e+00
      vertex   -1.087532e+01 -6.278868e+00 0.000000e+00
      vertex   -1.087532e+01 -6.278868e+00 3.752500e+01
    endloop
  endfacet
  facet normal -1.000000e+00 0.000000e+00 0.000000e+00
    outer loop
      vertex   -1.087532e+01 6.278868e+00 0.000000e+00
      vertex   -1.087532e+01 -6.278868e+00 3.752500e+01
      vertex   -1.087532e+01 6.278868e+00 3.752500e+01
    endloop
  endfacet
  facet normal -1.000000e+00 0.000000e+00 0.000000e+00
    outer loop
      vertex   -1.087532e+01 6.278868e+00 3.752500e+01
      vertex   -1.087532e+01 -6.278868e+00 3.752500e+01
      vertex   -1.087532e+01 6.278868e+00 7.505000e+01
    endloop
  endfacet
  facet normal -1.000000e+00 1.414552e-16 -4.733796e-17
    outer loop
      vertex   -1.087532e+01 6.278868e+00 7.505000e+01
      vertex   -1.087532e+01 -6.278868e+00 3.752500e+01
      vertex   -1.087532e+01 -6.278868e+00 7.505000e+01
    endloop
  endfacet
  facet normal -5.000000e-01 -8.660254e-01 2.366898e-17
    outer loop
      vertex   -1.087532e+01 -6.278868e+00 -7.505000e+01
      vertex   -6.267813e-15 -1.255774e+01 -7.505000e+01
      vertex   -1.087532e+01 -6.278868e+00 -3.752500e+01
    endloop
  endfacet
  facet normal -5.000000e-01 -8.660254e-01 -6.031401e-17
    outer loop
      vertex   -1.087532e+01 -6.278868e+00 -3.752500e+01
      vertex   -6.267813e-15 -1.255774e+01 -7.505000e+01
      vertex   -5.967449e-15 -1.255774e+01 -3.752500e+01
    endloop
  endfacet
  facet normal -5.000000e-01 -8.660254e-01 0.000000e+00
    outer loop
      vertex   -1.087532e+01 -6.278868e+00 -3.752500e+01
      vertex   -5.967449e-15 -1.255774e+01 -3.752500e+01
      vertex   -5.967449e-15 -1.255774e+01 0.000000e+00
    endloop
  endfacet
  facet normal -5.000000e-01 -8.660254e-01 0.000000e+00
    outer loop
      vertex   -1.087532e+01 -6.278868e+00 -3.752500e+01
      vertex   -5.967449e-15 -1.255774e+01 0.000000e+00
      vertex   -1.087532e+01 -6.278868e+00 0.000000e+00
    endloop
  endfacet
  facet normal -5.000000e-01 -8.660254e-01 0.000000e+00
    outer loop
      vertex   -1.087532e+01 -6.278868e+00 0.000000e+00
      vertex   -5.967449e-15 -1.255774e+01 0.000000e+00
      vertex   -5.967449e-15 -1.255774e+01 3.752500e+01
    endloop
  endfacet
  facet normal -5.000000e-01 -8.660254e-01 0.000000e+00
    outer loop
      vertex   -1.087532e+01 -6.278868e+00 0.000000e+00
      vertex   -5.967449e-15 -1.255774e+01 3.752500e+01
      vertex   -1.087532e+01 -6.278868e+00 3.752500e+01
    endloop
  endfacet
  facet normal -5.000000e-01 -8.660254e-01 -2.366898e-17
    outer loop
      vertex   -1.087532e+01 -6.278868e+00 3.752500e+01
      vertex   -5.967449e-15 -1.255774e+01 3.752500e+01
      vertex   -1.087532e+01 -6.278868e+00 7.505000e+01
    endloop
  endfacet
  facet normal -5.000000e-01 -8.660254e-01 9.047101e-17
    outer loop
      vertex   -1.087532e+01 -6.278868e+00 7.505000e+01
      vertex   -5.967449e-15 -1.255774e+01 3.752500e+01
      vertex   -5.204010e-15 -1.255774e+01 7.505000e+01
    endloop
  endfacet
  facet normal 5.000000e-01 -8.660254e-01 -8.599393e-17
    outer loop
      vertex   -6.267813e-15 -1.255774e+01 -7.505000e+01
      vertex   1.087532e+01 -6.278868e+00 -7.505000e+01
      vertex   -5.967449e-15 -1.255774e+01 -3.752500e+01
    endloop
  endfacet
  facet normal 5.000000e-01 -8.660254e-01 3.015700e-17
    outer loop
      vertex   -5.967449e-15 -1.255774e+01 -3.752500e+01
      vertex   1.087532e+01 -6.278868e+00 -7.505000e+01
      vertex   1.087532e+01 -6.278868e+00 -3.752500e+01
    endloop
  endfacet
  facet normal 5.000000e-01 -8.660254e-01 0.000000e+00
    outer loop
      vertex   -5.967449e-15 -1.255774e+01 -3.752500e+01
      vertex   1.087532e+01 -6.278868e+00 -3.752500e+01
      vertex   1.087532e+01 -6.278868e+00 0.000000e+00
    endloop
  endfacet
  facet normal 5.000000e-01 -8.660254e-01 0.000000e+00
    outer loop
      vertex   -5.967449e-15 -1.255774e+01 -3.752500e+01
      vertex   1.087532e+01 -6.278868e+00 0.000000e+00
      vertex   -5.967449e-15 -1.255774e+01 0.000000e+00
    endloop
  endfacet
  facet normal 5.000000e-01 -8.660254e-01 0.000000e+00
    outer loop
      vertex   -5.967449e-15 -1.255774e+01 0.000000e+00
      vertex   1.087532e+01 -6.278868e+00 0.000000e+00
      vertex   1.087532e+01 -6.278868e+00 3.752500e+01
    endloop
  endfacet
  facet normal 5.000000e-01 -8.660254e-01 0.000000e+00
    outer loop
      vertex   -5.967449e-15 -1.255774e+01 0.000000e+00
      vertex   1.087532e+01 -6.278868e+00 3.752500e+01
      vertex   -5.967449e-15 -1.255774e+01 3.752500e+01
    endloop
  endfacet
  facet normal 5.000000e-01 -8.660254e-01 7.181934e-17
    outer loop
      vertex   -5.967449e-15 -1.255774e+01 3.752500e+01
      vertex   1.087532e+01 -6.278868e+00 3.752500e+01
      vertex   -5.204010e-15 -1.255774e+01 7.505000e+01
    endloop
  endfacet
  facet normal 5.000000e-01 -8.660254e-01 0.000000e+00
    outer loop
      vertex   -5.204010e-15 -1.255774e+01 7.505000e+01
      vertex   1.087532e+01 -6.278868e+00 3.752500e+01
      vertex   1.087532e+01 -6.278868e+00 7.505000e+01
    endloop
  endfacet
  facet normal 5.000000e-01 8.660254e-01 -1.415585e-17
    outer loop
      vertex   1.087532e+01 6.278868e+00 -7.505000e+01
      vertex   2.248716e-17 1.255774e+01 -7.505000e+01
      vertex   1.087532e+01 6.278868e+00 -3.752500e+01
    endloop
  endfacet
  facet normal 5.000000e-01 8.660254e-01 0.000000e+00
    outer loop
      vertex   1.087532e+01 6.278868e+00 -3.752500e+01
      vertex   2.248716e-17 1.255774e+01 -7.505000e+01
      vertex   -5.551115e-16 1.255774e+01 -3.752500e+01
    endloop
  endfacet
  facet normal 5.000000e-01 8.660254e-01 0.000000e+00
    outer loop
      vertex   1.087532e+01 6.278868e+00 -3.752500e+01
      vertex   -5.551115e-16 1.255774e+01 -3.752500e+01
      vertex   -5.551115e-16 1.255774e+01 0.000000e+00
    endloop
  endfacet
  facet normal 5.000000e-01 8.660254e-01 -0.000000e+00
    outer loop
      vertex   1.087532e+01 6.278868e+00 -3.752500e+01
      vertex   -5.551115e-16 1.255774e+01 0.000000e+00
      vertex   1.087532e+01 6.278868e+00 0.000000e+00
    endloop
  endfacet
  facet normal 5.000000e-01 8.660254e-01 0.000000e+00
    outer loop
      vertex   1.087532e+01 6.278868e+00 0.000000e+00
      vertex   -5.551115e-16 1.255774e+01 0.000000e+00
      vertex   -5.551115e-16 1.255774e+01 3.752500e+01
    endloop
  endfacet
  facet normal 5.000000e-01 8.660254e-01 -0.000000e+00
    outer loop
      vertex   1.087532e+01 6.278868e+00 0.000000e+00
      vertex   -5.551115e-16 1.255774e+01 3.752500e+01
      vertex   1.087532e+01 6.278868e+00 3.752500e+01
    endloop
  endfacet
  facet normal 5.000000e-01 8.660254e-01 1.415585e-17
    outer loop
      vertex   1.087532e+01 6.278868e+00 3.752500e+01
      vertex   -5.551115e-16 1.255774e+01 3.752500e+01
      vertex   1.087532e+01 6.278868e+00 7.505000e+01
    endloop
  endfacet
  facet normal 5.000000e-01 8.660254e-01 0.000000e+00
    outer loop
      vertex   1.087532e+01 6.278868e+00 7.505000e+01
      vertex   -5.551115e-16 1.255774e+01 3.752500e+01
      vertex   7.934754e-16 1.255774e+01 7.505000e+01
    endloop
  endfacet
  facet normal 1.000000e+00 -8.487312e-16 4.017720e-32
    outer loop
      vertex   1.087532e+01 -6.278868e+00 -7.505000e+01
      vertex   1.087532e+01 6.278868e+00 -7.505000e+01
      vertex   1.087532e+01 -6.278868e+00 -3.752500e+01
    endloop
  endfacet
  facet normal 1.000000e+00 -5.658208e-16 9.467591e-17
    outer loop
      vertex   1.087532e+01 -6.278868e+00 -3.752500e+01
      vertex   1.087532e+01 6.278868e+00 -7.505000e+01
      vertex   1.087532e+01 6.278868e+00 -3.752500e+01
    endloop
  endfacet
  facet normal 1.000000e+00 -5.658208e-16 0.000000e+00
    outer loop
      vertex   1.087532e+01 -6.278868e+00 -3.752500e+01
      vertex   1.087532e+01 6.278868e+00 -3.752500e+01
      vertex   1.087532e+01 6.278868e+00 0.000000e+00
    endloop
  endfacet
  facet normal 1.000000e+00 -5.658208e-16 0.000000e+00
    outer loop
      vertex   1.087532e+01 -6.278868e+00 -3.752500e+01
      vertex   1.087532e+01 6.278868e+00 0.000000e+00
      vertex   1.087532e+01 -6.278868e+00 0.000000e+00
    endloop
  endfacet
  facet normal 1.000000e+00 -5.658208e-16 0.000000e+00
    outer loop
      vertex   1.087532e+01 -6.278868e+00 0.000000e+00
      vertex   1.087532e+01 6.278868e+00 0.000000e+00
      vertex   1.087532e+01 6.278868e+00 3.752500e+01
    endloop
  endfacet
  facet normal 1.000000e+00 -5.658208e-16 0.000000e+00
    outer loop
      vertex   1.087532e+01 -6.278868e+00 0.000000e+00
      vertex   1.087532e+01 6.278868e+00 3.752500e+01
      vertex   1.087532e+01 -6.278868e+00 3.752500e+01
    endloop
  endfacet
  facet normal 1.000000e+00 -5.658208e-16 0.000000e+00
    outer loop
      vertex   1.087532e+01 -6.278868e+00 3.752500e+01
      vertex   1.087532e+01 6.278868e+00 3.752500e+01
      vertex   1.087532e+01 -6.278868e+00 7.505000e+01
    endloop
  endfacet
  facet normal 1.000000e+00 -8.487312e-16 -9.467591e-17
    outer loop
      vertex   1.087532e+01 -6.278868e+00 7.505000e+01
      vertex   1.087532e+01 6.278868e+00 3.752500e+01
      vertex   1.087532e+01 6.278868e+00 7.505000e+01
    endloop
  endfacet
  facet normal -5.000000e-01 8.660254e-01 -7.696185e-18
    outer loop
      vertex   2.248716e-17 1.255774e+01 -7.505000e+01
      vertex   -1.087532e+01 6.278868e+00 -7.505000e+01
      vertex   -5.551115e-16 1.255774e+01 -3.752500e+01
    endloop
  endfacet
  facet normal -5.000000e-01 8.660254e-01 -3.015700e-17
    outer loop
      vertex   -5.551115e-16 1.255774e+01 -3.752500e+01
      vertex   -1.087532e+01 6.278868e+00 -7.505000e+01
      vertex   -1.087532e+01 6.278868e+00 -3.752500e+01
    endloop
  endfacet
  facet normal -5.000000e-01 8.660254e-01 0.000000e+00
    outer loop
      vertex   -5.551115e-16 1.255774e+01 -3.752500e+01
      vertex   -1.087532e+01 6.278868e+00 -3.752500e+01
      vertex   -1.087532e+01 6.278868e+00 0.000000e+00
    endloop
  endfacet
  facet normal -5.000000e-01 8.660254e-01 0.000000e+00
    outer loop
      vertex   -5.551115e-16 1.255774e+01 -3.752500e+01
      vertex   -1.087532e+01 6.278868e+00 0.000000e+00
      vertex   -5.551115e-16 1.255774e+01 0.000000e+00
    endloop
  endfacet
  facet normal -5.000000e-01 8.660254e-01 0.000000e+00
    outer loop
      vertex   -5.551115e-16 1.255774e+01 0.000000e+00
      vertex   -1.087532e+01 6.278868e+00 0.000000e+00
      vertex   -1.087532e+01 6.278868e+00 3.752500e+01
    endloop
  endfacet
  facet normal -5.000000e-01 8.660254e-01 0.000000e+00
    outer loop
      vertex   -5.551115e-16 1.255774e+01 0.000000e+00
      vertex   -1.087532e+01 6.278868e+00 3.752500e+01
      vertex   -5.551115e-16 1.255774e+01 3.752500e+01
    endloop
  endfacet
  facet normal -5.000000e-01 8.660254e-01 1.796918e-17
    outer loop
      vertex   -5.551115e-16 1.255774e+01 3.752500e+01
      vertex   -1.087532e+01 6.278868e+00 3.752500e+01
      vertex   7.934754e-16 1.255774e+01 7.505000e+01
    endloop
  endfacet
  facet normal -5.000000e-01 8.660254e-01 3.015700e-17
    outer loop
      vertex   7.934754e-16 1.255774e+01 7.505000e+01
      vertex   -1.087532e+01 6.278868e+00 3.752500e+01
      vertex   -1.087532e+01 6.278868e+00 7.505000e+01
    endloop
  endfacet
  facet normal -0.000000e+00 0.000000e+00 -1.000000e+00
    outer loop
      vertex   1.087532e+01 6.278868e+00 -7.505000e+01
      vertex   -6.267813e-15 -1.255774e+01 -7.505000e+01
      vertex   2.248716e-17 1.255774e+01 -7.505000e+01
    endloop
  endfacet
  facet normal 0.000000e+00 0.000000e+00 -1.000000e+00
    outer loop
      vertex   2.248716e-17 1.255774e+01 -7.505000e+01
      vertex   -6.267813e-15 -1.255774e+01 -7.505000e+01
      vertex   -1.087532e+01 -6.278868e+00 -7.505000e+01
    endloop
  endfacet
  facet normal 0.000000e+00 0.000000e+00 -1.000000e+00
    outer loop
      vertex   2.248716e-17 1.255774e+01 -7.505000e+01
      vertex   -1.087532e+01 -6.278868e+00 -7.505000e+01
      vertex   -1.087532e+01 6.278868e+00 -7.505000e+01
    endloop
  endfacet
  facet normal 0.000000e+00 0.000000e+00 -1.000000e+00
    outer loop
      vertex   1.087532e+01 6.278868e+00 -7.505000e+01
      vertex   1.087532e+01 -6.278868e+00 -7.505000e+01
      vertex   -6.267813e-15 -1.255774e+01 -7.505000e+01
    endloop
  endfacet
  facet normal 1.000000e+00 -1.008148e-16 -5.415722e-16
    outer loop
      vertex   -4.286763e+00 4.468004e+00 7.664000e+01
      vertex   -4.286763e+00 -4.341996e+00 7.664000e+01
      vertex   -4.286763e+00 4.468004e+00 7.500000e+01
    endloop
  endfacet
  facet normal 1.000000e+00 0.000000e+00 0.000000e+00
    outer loop
      vertex   -4.286763e+00 4.468004e+00 7.500000e+01
      vertex   -4.286763e+00 -4.341996e+00 7.664000e+01
      vertex   -4.286763e+00 -4.341996e+00 7.500000e+01
    endloop
  endfacet
  facet normal 0.000000e+00 -1.000000e+00 0.000000e+00
    outer loop
      vertex   -4.286763e+00 4.468004e+00 7.500000e+01
      vertex   4.393237e+00 4.468004e+00 7.500000e+01
      vertex   -4.286763e+00 4.468004e+00 7.664000e+01
    endloop
  endfacet
  facet normal 0.000000e+00 -1.000000e+00 0.000000e+00
    outer loop
      vertex   -4.286763e+00 4.468004e+00 7.664000e+01
      vertex   4.393237e+00 4.468004e+00 7.500000e+01
      vertex   4.393237e+00 4.468004e+00 7.664000e+01
    endloop
  endfacet
  facet normal 0.000000e+00 0.000000e+00 -1.000000e+00
    outer loop
      vertex   4.393237e+00 -4.341996e+00 7.664000e+01
      vertex   -4.286763e+00 -4.341996e+00 7.664000e+01
      vertex   4.393237e+00 4.468004e+00 7.664000e+01
    endloop
  endfacet
  facet normal -0.000000e+00 0.000000e+00 -1.000000e+00
    outer loop
      vertex   4.393237e+00 4.468004e+00 7.664000e+01
      vertex   -4.286763e+00 -4.341996e+00 7.664000e+01
      vertex   -4.286763e+00 4.468004e+00 7.664000e+01
    endloop
  endfacet
  facet normal -0.000000e+00 1.000000e+00 0.000000e+00
    outer loop
      vertex   -4.286763e+00 -4.341996e+00 7.664000e+01
      vertex   4.393237e+00 -4.341996e+00 7.664000e+01
      vertex   -4.286763e+00 -4.341996e+00 7.500000e+01
    endloop
  endfacet
  facet normal 0.000000e+00 1.000000e+00 0.000000e+00
    outer loop
      vertex   -4.286763e+00 -4.341996e+00 7.500000e+01
      vertex   4.393237e+00 -4.341996e+00 7.664000e+01
      vertex   4.393237e+00 -4.341996e+00 7.500000e+01
    endloop
  endfacet
  facet normal -0.000000e+00 0.000000e+00 -1.000000e+00
    outer loop
      vertex   4.393237e+00 -4.341996e+00 7.500000e+01
      vertex   -2.775558e-15 -1.250000e+01 7.500000e+01
      vertex   -4.286763e+00 -4.341996e+00 7.500000e+01
    endloop
  endfacet
  facet normal 0.000000e+00 -0.000000e+00 -1.000000e+00
    outer loop
      vertex   -4.286763e+00 -4.341996e+00 7.500000e+01
      vertex   -2.775558e-15 -1.250000e+01 7.500000e+01
      vertex   -1.082532e+01 -6.250000e+00 7.500000e+01
    endloop
  endfacet
  facet normal -0.000000e+00 0.000000e+00 -1.000000e+00
    outer loop
      vertex   -4.286763e+00 -4.341996e+00 7.500000e+01
      vertex   -1.082532e+01 -6.250000e+00 7.500000e+01
      vertex   -1.082532e+01 6.250000e+00 7.500000e+01
    endloop
  endfacet
  facet normal 0.000000e+00 0.000000e+00 -1.000000e+00
    outer loop
      vertex   4.393237e+00 4.468004e+00 7.500000e+01
      vertex   1.082532e+01 6.250000e+00 7.500000e+01
      vertex   4.393237e+00 -4.341996e+00 7.500000e+01
    endloop
  endfacet
  facet normal 0.000000e+00 0.000000e+00 -1.000000e+00
    outer loop
      vertex   4.393237e+00 -4.341996e+00 7.500000e+01
      vertex   1.082532e+01 6.250000e+00 7.500000e+01
      vertex   1.082532e+01 -6.250000e+00 7.500000e+01
    endloop
  endfacet
  facet normal 0.000000e+00 -0.000000e+00 -1.000000e+00
    outer loop
      vertex   4.393237e+00 -4.341996e+00 7.500000e+01
      vertex   1.082532e+01 -6.250000e+00 7.500000e+01
      vertex   -2.775558e-15 -1.250000e+01 7.500000e+01
    endloop
  endfacet
  facet normal -0.000000e+00 0.000000e+00 -1.000000e+00
    outer loop
      vertex   1.082532e+01 6.250000e+00 7.500000e+01
      vertex   4.393237e+00 4.468004e+00 7.500000e+01
      vertex   1.249001e-15 1.250000e+01 7.500000e+01
    endloop
  endfacet
  facet normal 0.000000e+00 -0.000000e+00 -1.000000e+00
    outer loop
      vertex   1.249001e-15 1.250000e+01 7.500000e+01
      vertex   4.393237e+00 4.468004e+00 7.500000e+01
      vertex   -4.286763e+00 4.468004e+00 7.500000e+01
    endloop
  endfacet
  facet normal 0.000000e+00 0.000000e+00 -1.000000e+00
    outer loop
      vertex   1.249001e-15 1.250000e+01 7.500000e+01
      vertex   -4.286763e+00 4.468004e+00 7.500000e+01
      vertex   -1.082532e+01 6.250000e+00 7.500000e+01
    endloop
  endfacet
  facet normal 0.000000e+00 0.000000e+00 -1.000000e+00
    outer loop
      vertex   -1.082532e+01 6.250000e+00 7.500000e+01
      vertex   -4.286763e+00 4.468004e+00 7.500000e+01
      vertex   -4.286763e+00 -4.341996e+00 7.500000e+01
    endloop
  endfacet
  facet normal -1.000000e+00 0.000000e+00 0.000000e+00
    outer loop
      vertex   4.393237e+00 4.468004e+00 7.500000e+01
      vertex   4.393237e+00 -4.341996e+00 7.500000e+01
      vertex   4.393237e+00 4.468004e+00 7.664000e+01
    endloop
  endfacet
  facet normal -1.000000e+00 -0.000000e+00 0.000000e+00
    outer loop
      vertex   4.393237e+00 4.468004e+00 7.664000e+01
      vertex   4.393237e+00 -4.341996e+00 7.500000e+01
      vertex   4.393237e+00 -4.341996e+00 7.664000e+01
    endloop
  endfacet
  facet normal 1.000000e+00 -2.842171e-16 0.000000e+00
    outer loop
      vertex   -1.082532e+01 6.250000e+00 7.500000e+01
      vertex   -1.082532e+01 -6.250000e+00 7.500000e+01
      vertex   -1.082532e+01 6.250000e+00 2.500000e+01
    endloop
  endfacet
  facet normal 1.000000e+00 -2.842171e-16 -1.009742e-32
    outer loop
      vertex   -1.082532e+01 6.250000e+00 2.500000e+01
      vertex   -1.082532e+01 -6.250000e+00 7.500000e+01
      vertex   -1.082532e+01 -6.250000e+00 2.500000e+01
    endloop
  endfacet
  facet normal 1.000000e+00 -2.842171e-16 0.000000e+00
    outer loop
      vertex   -1.082532e+01 6.250000e+00 2.500000e+01
      vertex   -1.082532e+01 -6.250000e+00 2.500000e+01
      vertex   -1.082532e+01 6.250000e+00 -2.500000e+01
    endloop
  endfacet
  facet normal 1.000000e+00 -2.842171e-16 0.000000e+00
    outer loop
      vertex   -1.082532e+01 6.250000e+00 -2.500000e+01
      vertex   -1.082532e+01 -6.250000e+00 2.500000e+01
      vertex   -1.082532e+01 -6.250000e+00 -2.500000e+01
    endloop
  endfacet
  facet normal 1.000000e+00 -2.842171e-16 0.000000e+00
    outer loop
      vertex   -1.082532e+01 6.250000e+00 -2.500000e+01
      vertex   -1.082532e+01 -6.250000e+00 -2.500000e+01
      vertex   -1.082532e+01 6.250000e+00 -7.500000e+01
    endloop
  endfacet
  facet normal 1.000000e+00 -2.842171e-16 1.009742e-32
    outer loop
      vertex   -1.082532e+01 6.250000e+00 -7.500000e+01
      vertex   -1.082532e+01 -6.250000e+00 -2.500000e+01
      vertex   -1.082532e+01 -6.250000e+00 -7.500000e+01
    endloop
  endfacet
  facet normal 5.000000e-01 8.660254e-01 1.538370e-17
    outer loop
      vertex   -1.082532e+01 -6.250000e+00 7.500000e+01
      vertex   -2.775558e-15 -1.250000e+01 7.500000e+01
      vertex   -1.082532e+01 -6.250000e+00 2.500000e+01
    endloop
  endfacet
  facet normal 5.000000e-01 8.660254e-01 0.000000e+00
    outer loop
      vertex   -1.082532e+01 -6.250000e+00 2.500000e+01
      vertex   -2.775558e-15 -1.250000e+01 7.500000e+01
      vertex   -4.440892e-15 -1.250000e+01 2.500000e+01
    endloop
  endfacet
  facet normal 5.000000e-01 8.660254e-01 0.000000e+00
    outer loop
      vertex   -1.082532e+01 -6.250000e+00 2.500000e+01
      vertex   -4.440892e-15 -1.250000e+01 2.500000e+01
      vertex   -1.082532e+01 -6.250000e+00 -2.500000e+01
    endloop
  endfacet
  facet normal 5.000000e-01 8.660254e-01 0.000000e+00
    outer loop
      vertex   -1.082532e+01 -6.250000e+00 -2.500000e+01
      vertex   -4.440892e-15 -1.250000e+01 2.500000e+01
      vertex   -4.440892e-15 -1.250000e+01 -2.500000e+01
    endloop
  endfacet
  facet normal 5.000000e-01 8.660254e-01 -1.538370e-17
    outer loop
      vertex   -1.082532e+01 -6.250000e+00 -2.500000e+01
      vertex   -4.440892e-15 -1.250000e+01 -2.500000e+01
      vertex   -1.082532e+01 -6.250000e+00 -7.500000e+01
    endloop
  endfacet
  facet normal 5.000000e-01 8.660254e-01 0.000000e+00
    outer loop
      vertex   -1.082532e+01 -6.250000e+00 -7.500000e+01
      vertex   -4.440892e-15 -1.250000e+01 -2.500000e+01
      vertex   -2.775558e-15 -1.250000e+01 -7.500000e+01
    endloop
  endfacet
  facet normal -5.000000e-01 8.660254e-01 1.665335e-17
    outer loop
      vertex   -2.775558e-15 -1.250000e+01 7.500000e+01
      vertex   1.082532e+01 -6.250000e+00 7.500000e+01
      vertex   -4.440892e-15 -1.250000e+01 2.500000e+01
    endloop
  endfacet
  facet normal -5.000000e-01 8.660254e-01 4.547474e-17
    outer loop
      vertex   -4.440892e-15 -1.250000e+01 2.500000e+01
      vertex   1.082532e+01 -6.250000e+00 7.500000e+01
      vertex   1.082532e+01 -6.250000e+00 2.500000e+01
    endloop
  endfacet
  facet normal -5.000000e-01 8.660254e-01 0.000000e+00
    outer loop
      vertex   -4.440892e-15 -1.250000e+01 2.500000e+01
      vertex   1.082532e+01 -6.250000e+00 2.500000e+01
      vertex   -4.440892e-15 -1.250000e+01 -2.500000e+01
    endloop
  endfacet
  facet normal -5.000000e-01 8.660254e-01 0.000000e+00
    outer loop
      vertex   -4.440892e-15 -1.250000e+01 -2.500000e+01
      vertex   1.082532e+01 -6.250000e+00 2.500000e+01
      vertex   1.082532e+01 -6.250000e+00 -2.500000e+01
    endloop
  endfacet
  facet normal -5.000000e-01 8.660254e-01 -1.665335e-17
    outer loop
      vertex   -4.440892e-15 -1.250000e+01 -2.500000e+01
      vertex   1.082532e+01 -6.250000e+00 -2.500000e+01
      vertex   -2.775558e-15 -1.250000e+01 -7.500000e+01
    endloop
  endfacet
  facet normal -5.000000e-01 8.660254e-01 -4.547474e-17
    outer loop
      vertex   -2.775558e-15 -1.250000e+01 -7.500000e+01
      vertex   1.082532e+01 -6.250000e+00 -2.500000e+01
      vertex   1.082532e+01 -6.250000e+00 -7.500000e+01
    endloop
  endfacet
  facet normal -5.000000e-01 -8.660254e-01 -0.000000e+00
    outer loop
      vertex   1.082532e+01 6.250000e+00 7.500000e+01
      vertex   1.249001e-15 1.250000e+01 7.500000e+01
      vertex   1.082532e+01 6.250000e+00 2.500000e+01
    endloop
  endfacet
  facet normal -5.000000e-01 -8.660254e-01 4.547474e-17
    outer loop
      vertex   1.082532e+01 6.250000e+00 2.500000e+01
      vertex   1.249001e-15 1.250000e+01 7.500000e+01
      vertex   -1.110223e-15 1.250000e+01 2.500000e+01
    endloop
  endfacet
  facet normal -5.000000e-01 -8.660254e-01 -0.000000e+00
    outer loop
      vertex   1.082532e+01 6.250000e+00 2.500000e+01
      vertex   -1.110223e-15 1.250000e+01 2.500000e+01
      vertex   1.082532e+01 6.250000e+00 -2.500000e+01
    endloop
  endfacet
  facet normal -5.000000e-01 -8.660254e-01 0.000000e+00
    outer loop
      vertex   1.082532e+01 6.250000e+00 -2.500000e+01
      vertex   -1.110223e-15 1.250000e+01 2.500000e+01
      vertex   -1.110223e-15 1.250000e+01 -2.500000e+01
    endloop
  endfacet
  facet normal -5.000000e-01 -8.660254e-01 -0.000000e+00
    outer loop
      vertex   1.082532e+01 6.250000e+00 -2.500000e+01
      vertex   -1.110223e-15 1.250000e+01 -2.500000e+01
      vertex   1.082532e+01 6.250000e+00 -7.500000e+01
    endloop
  endfacet
  facet normal -5.000000e-01 -8.660254e-01 -4.547474e-17
    outer loop
      vertex   1.082532e+01 6.250000e+00 -7.500000e+01
      vertex   -1.110223e-15 1.250000e+01 -2.500000e+01
      vertex   1.249001e-15 1.250000e+01 -7.500000e+01
    endloop
  endfacet
  facet normal -1.000000e+00 2.842171e-16 7.105427e-17
    outer loop
      vertex   1.082532e+01 -6.250000e+00 7.500000e+01
      vertex   1.082532e+01 6.250000e+00 7.500000e+01
      vertex   1.082532e+01 -6.250000e+00 2.500000e+01
    endloop
  endfacet
  facet normal -1.000000e+00 5.684342e-16 0.000000e+00
    outer loop
      vertex   1.082532e+01 -6.250000e+00 2.500000e+01
      vertex   1.082532e+01 6.250000e+00 7.500000e+01
      vertex   1.082532e+01 6.250000e+00 2.500000e+01
    endloop
  endfacet
  facet normal -1.000000e+00 5.684342e-16 0.000000e+00
    outer loop
      vertex   1.082532e+01 -6.250000e+00 2.500000e+01
      vertex   1.082532e+01 6.250000e+00 2.500000e+01
      vertex   1.082532e+01 -6.250000e+00 -2.500000e+01
    endloop
  endfacet
  facet normal -1.000000e+00 5.684342e-16 0.000000e+00
    outer loop
      vertex   1.082532e+01 -6.250000e+00 -2.500000e+01
      vertex   1.082532e+01 6.250000e+00 2.500000e+01
      vertex   1.082532e+01 6.250000e+00 -2.500000e+01
    endloop
  endfacet
  facet normal -1.000000e+00 5.684342e-16 -7.105427e-17
    outer loop
      vertex   1.082532e+01 -6.250000e+00 -2.500000e+01
      vertex   1.082532e+01 6.250000e+00 -2.500000e+01
      vertex   1.082532e+01 -6.250000e+00 -7.500000e+01
    endloop
  endfacet
  facet normal -1.000000e+00 2.842171e-16 0.000000e+00
    outer loop
      vertex   1.082532e+01 -6.250000e+00 -7.500000e+01
      vertex   1.082532e+01 6.250000e+00 -2.500000e+01
      vertex   1.082532e+01 6.250000e+00 -7.500000e+01
    endloop
  endfacet
  facet normal 5.000000e-01 -8.660254e-01 -2.359224e-17
    outer loop
      vertex   1.249001e-15 1.250000e+01 7.500000e+01
      vertex   -1.082532e+01 6.250000e+00 7.500000e+01
      vertex   -1.110223e-15 1.250000e+01 2.500000e+01
    endloop
  endfacet
  facet normal 5.000000e-01 -8.660254e-01 0.000000e+00
    outer loop
      vertex   -1.110223e-15 1.250000e+01 2.500000e+01
      vertex   -1.082532e+01 6.250000e+00 7.500000e+01
      vertex   -1.082532e+01 6.250000e+00 2.500000e+01
    endloop
  endfacet
  facet normal 5.000000e-01 -8.660254e-01 0.000000e+00
    outer loop
      vertex   -1.110223e-15 1.250000e+01 2.500000e+01
      vertex   -1.082532e+01 6.250000e+00 2.500000e+01
      vertex   -1.110223e-15 1.250000e+01 -2.500000e+01
    endloop
  endfacet
  facet normal 5.000000e-01 -8.660254e-01 0.000000e+00
    outer loop
      vertex   -1.110223e-15 1.250000e+01 -2.500000e+01
      vertex   -1.082532e+01 6.250000e+00 2.500000e+01
      vertex   -1.082532e+01 6.250000e+00 -2.500000e+01
    endloop
  endfacet
  facet normal 5.000000e-01 -8.660254e-01 2.359224e-17
    outer loop
      vertex   -1.110223e-15 1.250000e+01 -2.500000e+01
      vertex   -1.082532e+01 6.250000e+00 -2.500000e+01
      vertex   1.249001e-15 1.250000e+01 -7.500000e+01
    endloop
  endfacet
  facet normal 5.000000e-01 -8.660254e-01 0.000000e+00
    outer loop
      vertex   1.249001e-15 1.250000e+01 -7.500000e+01
      vertex   -1.082532e+01 6.250000e+00 -2.500000e+01
      vertex   -1.082532e+01 6.250000e+00 -7.500000e+01
    endloop
  endfacet
  facet normal 0.000000e+00 0.000000e+00 1.000000e+00
    outer loop
      vertex   1.082532e+01 6.250000e+00 -7.500000e+01
      vertex   1.249001e-15 1.250000e+01 -7.500000e+01
      vertex   1.082532e+01 -6.250000e+00 -7.500000e+01
    endloop
  endfacet
  facet normal 0.000000e+00 0.000000e+00 1.000000e+00
    outer loop
      vertex   1.082532e+01 -6.250000e+00 -7.500000e+01
      vertex   1.249001e-15 1.250000e+01 -7.500000e+01
      vertex   -2.775558e-15 -1.250000e+01 -7.500000e+01
    endloop
  endfacet
  facet normal 0.000000e+00 -0.000000e+00 1.000000e+00
    outer loop
      vertex   -2.775558e-15 -1.250000e+01 -7.500000e+01
      vertex   1.249001e-15 1.250000e+01 -7.500000e+01
      vertex   -1.082532e+01 6.250000e+00 -7.500000e+01
    endloop
  endfacet
  facet normal 0.000000e+00 0.000000e+00 1.000000e+00
    outer loop
      vertex   -2.775558e-15 -1.250000e+01 -7.500000e+01
      vertex   -1.082532e+01 6.250000e+00 -7.500000e+01
      vertex   -1.082532e+01 -6.250000e+00 -7.500000e+01
    endloop
  endfacet
endsolid
