solid ASCII
  facet normal -1.000000e+00 0.000000e+00 3.384826e-16
    outer loop
      vertex   2.132372e-01 -3.199556e-02 6.250000e+01
      vertex   2.132372e-01 -4.341996e+00 6.250000e+01
      vertex   2.132372e-01 -3.199556e-02 6.414000e+01
    endloop
  endfacet
  facet normal -1.000000e+00 0.000000e+00 3.384826e-16
    outer loop
      vertex   2.132372e-01 -3.199556e-02 6.414000e+01
      vertex   2.132372e-01 -4.341996e+00 6.250000e+01
      vertex   2.132372e-01 -4.341996e+00 6.414000e+01
    endloop
  endfacet
  facet normal 0.000000e+00 1.000000e+00 -0.000000e+00
    outer loop
      vertex   4.393237e+00 -3.199556e-02 6.250000e+01
      vertex   2.132372e-01 -3.199556e-02 6.250000e+01
      vertex   4.393237e+00 -3.199556e-02 6.414000e+01
    endloop
  endfacet
  facet normal 0.000000e+00 1.000000e+00 0.000000e+00
    outer loop
      vertex   4.393237e+00 -3.199556e-02 6.414000e+01
      vertex   2.132372e-01 -3.199556e-02 6.250000e+01
      vertex   2.132372e-01 -3.199556e-02 6.414000e+01
    endloop
  endfacet
  facet normal 1.000000e+00 0.000000e+00 0.000000e+00
    outer loop
      vertex   4.393237e+00 -4.341996e+00 6.250000e+01
      vertex   4.393237e+00 -3.199556e-02 6.250000e+01
      vertex   4.393237e+00 -4.341996e+00 6.414000e+01
    endloop
  endfacet
  facet normal 1.000000e+00 -0.000000e+00 0.000000e+00
    outer loop
      vertex   4.393237e+00 -4.341996e+00 6.414000e+01
      vertex   4.393237e+00 -3.199556e-02 6.250000e+01
      vertex   4.393237e+00 -3.199556e-02 6.414000e+01
    endloop
  endfacet
  facet normal 0.000000e+00 -1.000000e+00 0.000000e+00
    outer loop
      vertex   2.132372e-01 -4.341996e+00 6.250000e+01
      vertex   4.393237e+00 -4.341996e+00 6.250000e+01
      vertex   2.132372e-01 -4.341996e+00 6.414000e+01
    endloop
  endfacet
  facet normal 0.000000e+00 -1.000000e+00 0.000000e+00
    outer loop
      vertex   2.132372e-01 -4.341996e+00 6.414000e+01
      vertex   4.393237e+00 -4.341996e+00 6.250000e+01
      vertex   4.393237e+00 -4.341996e+00 6.414000e+01
    endloop
  endfacet
  facet normal 0.000000e+00 0.000000e+00 1.000000e+00
    outer loop
      vertex   2.132372e-01 -4.341996e+00 6.414000e+01
      vertex   4.393237e+00 -4.341996e+00 6.414000e+01
      vertex   2.132372e-01 -3.199556e-02 6.414000e+01
    endloop
  endfacet
  facet normal -0.000000e+00 0.000000e+00 1.000000e+00
    outer loop
      vertex   2.132372e-01 -3.199556e-02 6.414000e+01
      vertex   4.393237e+00 -4.341996e+00 6.414000e+01
      vertex   4.393237e+00 -3.199556e-02 6.414000e+01
    endloop
  endfacet
  facet normal 0.000000e+00 0.000000e+00 -1.000000e+00
    outer loop
      vertex   4.393237e+00 -4.341996e+00 6.250000e+01
      vertex   2.132372e-01 -4.341996e+00 6.250000e+01
      vertex   4.393237e+00 -3.199556e-02 6.250000e+01
    endloop
  endfacet
  facet normal -0.000000e+00 0.000000e+00 -1.000000e+00
    outer loop
      vertex   4.393237e+00 -3.199556e-02 6.250000e+01
      vertex   2.132372e-01 -4.341996e+00 6.250000e+01
      vertex   2.132372e-01 -3.199556e-02 6.250000e+01
    endloop
  endfacet
endsolid
