solid ASCII
  facet normal -0.000000e+00 0.000000e+00 -1.000000e+00
    outer loop
      vertex   1.732051e+01 1.000000e+01 -7.500000e+01
      vertex   -4.232725e-15 -2.000000e+01 -7.500000e+01
      vertex   1.873501e-15 2.000000e+01 -7.500000e+01
    endloop
  endfacet
  facet normal 0.000000e+00 0.000000e+00 -1.000000e+00
    outer loop
      vertex   1.873501e-15 2.000000e+01 -7.500000e+01
      vertex   -4.232725e-15 -2.000000e+01 -7.500000e+01
      vertex   -1.732051e+01 -1.000000e+01 -7.500000e+01
    endloop
  endfacet
  facet normal 0.000000e+00 0.000000e+00 -1.000000e+00
    outer loop
      vertex   1.873501e-15 2.000000e+01 -7.500000e+01
      vertex   -1.732051e+01 -1.000000e+01 -7.500000e+01
      vertex   -1.732051e+01 1.000000e+01 -7.500000e+01
    endloop
  endfacet
  facet normal 0.000000e+00 0.000000e+00 -1.000000e+00
    outer loop
      vertex   1.732051e+01 1.000000e+01 -7.500000e+01
      vertex   1.732051e+01 -1.000000e+01 -7.500000e+01
      vertex   -4.232725e-15 -2.000000e+01 -7.500000e+01
    endloop
  endfacet
  facet normal 1.000000e+00 -7.105427e-16 0.000000e+00
    outer loop
      vertex   1.732051e+01 1.000000e+01 -7.500000e+01
      vertex   1.732051e+01 1.000000e+01 -2.500000e+01
      vertex   1.732051e+01 -1.000000e+01 -7.500000e+01
    endloop
  endfacet
  facet normal 1.000000e+00 -7.105427e-16 0.000000e+00
    outer loop
      vertex   1.732051e+01 -1.000000e+01 -7.500000e+01
      vertex   1.732051e+01 1.000000e+01 -2.500000e+01
      vertex   1.732051e+01 -1.000000e+01 -2.500000e+01
    endloop
  endfacet
  facet normal 1.000000e+00 -7.105427e-16 0.000000e+00
    outer loop
      vertex   1.732051e+01 -1.000000e+01 -2.500000e+01
      vertex   1.732051e+01 1.000000e+01 -2.500000e+01
      vertex   1.732051e+01 1.000000e+01 2.500000e+01
    endloop
  endfacet
  facet normal 1.000000e+00 -7.105427e-16 0.000000e+00
    outer loop
      vertex   1.732051e+01 -1.000000e+01 -2.500000e+01
      vertex   1.732051e+01 1.000000e+01 2.500000e+01
      vertex   1.732051e+01 -1.000000e+01 2.500000e+01
    endloop
  endfacet
  facet normal 1.000000e+00 -7.105427e-16 0.000000e+00
    outer loop
      vertex   1.732051e+01 -1.000000e+01 2.500000e+01
      vertex   1.732051e+01 1.000000e+01 2.500000e+01
      vertex   1.732051e+01 1.000000e+01 7.500000e+01
    endloop
  endfacet
  facet normal 1.000000e+00 -7.105427e-16 0.000000e+00
    outer loop
      vertex   1.732051e+01 -1.000000e+01 2.500000e+01
      vertex   1.732051e+01 1.000000e+01 7.500000e+01
      vertex   1.732051e+01 -1.000000e+01 7.500000e+01
    endloop
  endfacet
  facet normal 5.000000e-01 -8.660254e-01 0.000000e+00
    outer loop
      vertex   1.732051e+01 -1.000000e+01 -7.500000e+01
      vertex   1.732051e+01 -1.000000e+01 -2.500000e+01
      vertex   -4.232725e-15 -2.000000e+01 -7.500000e+01
    endloop
  endfacet
  facet normal 5.000000e-01 -8.660254e-01 0.000000e+00
    outer loop
      vertex   -4.232725e-15 -2.000000e+01 -7.500000e+01
      vertex   1.732051e+01 -1.000000e+01 -2.500000e+01
      vertex   -4.232725e-15 -2.000000e+01 -2.500000e+01
    endloop
  endfacet
  facet normal 5.000000e-01 -8.660254e-01 0.000000e+00
    outer loop
      vertex   -4.232725e-15 -2.000000e+01 -2.500000e+01
      vertex   1.732051e+01 -1.000000e+01 -2.500000e+01
      vertex   1.732051e+01 -1.000000e+01 2.500000e+01
    endloop
  endfacet
  facet normal 5.000000e-01 -8.660254e-01 0.000000e+00
    outer loop
      vertex   -4.232725e-15 -2.000000e+01 -2.500000e+01
      vertex   1.732051e+01 -1.000000e+01 2.500000e+01
      vertex   -4.232725e-15 -2.000000e+01 2.500000e+01
    endloop
  endfacet
  facet normal 5.000000e-01 -8.660254e-01 0.000000e+00
    outer loop
      vertex   -4.232725e-15 -2.000000e+01 2.500000e+01
      vertex   1.732051e+01 -1.000000e+01 2.500000e+01
      vertex   1.732051e+01 -1.000000e+01 7.500000e+01
    endloop
  endfacet
  facet normal 5.000000e-01 -8.660254e-01 0.000000e+00
    outer loop
      vertex   -4.232725e-15 -2.000000e+01 2.500000e+01
      vertex   1.732051e+01 -1.000000e+01 7.500000e+01
      vertex   -4.232725e-15 -2.000000e+01 7.500000e+01
    endloop
  endfacet
  facet normal -5.000000e-01 -8.660254e-01 0.000000e+00
    outer loop
      vertex   -4.232725e-15 -2.000000e+01 -7.500000e+01
      vertex   -4.232725e-15 -2.000000e+01 -2.500000e+01
      vertex   -1.732051e+01 -1.000000e+01 -7.500000e+01
    endloop
  endfacet
  facet normal -5.000000e-01 -8.660254e-01 3.552714e-17
    outer loop
      vertex   -1.732051e+01 -1.000000e+01 -7.500000e+01
      vertex   -4.232725e-15 -2.000000e+01 -2.500000e+01
      vertex   -1.732051e+01 -1.000000e+01 -2.500000e+01
    endloop
  endfacet
  facet normal -5.000000e-01 -8.660254e-01 0.000000e+00
    outer loop
      vertex   -1.732051e+01 -1.000000e+01 -2.500000e+01
      vertex   -4.232725e-15 -2.000000e+01 -2.500000e+01
      vertex   -4.232725e-15 -2.000000e+01 2.500000e+01
    endloop
  endfacet
  facet normal -5.000000e-01 -8.660254e-01 0.000000e+00
    outer loop
      vertex   -1.732051e+01 -1.000000e+01 -2.500000e+01
      vertex   -4.232725e-15 -2.000000e+01 2.500000e+01
      vertex   -1.732051e+01 -1.000000e+01 2.500000e+01
    endloop
  endfacet
  facet normal -5.000000e-01 -8.660254e-01 0.000000e+00
    outer loop
      vertex   -1.732051e+01 -1.000000e+01 2.500000e+01
      vertex   -4.232725e-15 -2.000000e+01 2.500000e+01
      vertex   -4.232725e-15 -2.000000e+01 7.500000e+01
    endloop
  endfacet
  facet normal -5.000000e-01 -8.660254e-01 -3.552714e-17
    outer loop
      vertex   -1.732051e+01 -1.000000e+01 2.500000e+01
      vertex   -4.232725e-15 -2.000000e+01 7.500000e+01
      vertex   -1.732051e+01 -1.000000e+01 7.500000e+01
    endloop
  endfacet
  facet normal -1.000000e+00 1.776357e-16 7.105427e-17
    outer loop
      vertex   -1.732051e+01 -1.000000e+01 -7.500000e+01
      vertex   -1.732051e+01 -1.000000e+01 -2.500000e+01
      vertex   -1.732051e+01 1.000000e+01 -7.500000e+01
    endloop
  endfacet
  facet normal -1.000000e+00 0.000000e+00 0.000000e+00
    outer loop
      vertex   -1.732051e+01 1.000000e+01 -7.500000e+01
      vertex   -1.732051e+01 -1.000000e+01 -2.500000e+01
      vertex   -1.732051e+01 1.000000e+01 -2.500000e+01
    endloop
  endfacet
  facet normal -1.000000e+00 0.000000e+00 0.000000e+00
    outer loop
      vertex   -1.732051e+01 1.000000e+01 -2.500000e+01
      vertex   -1.732051e+01 -1.000000e+01 -2.500000e+01
      vertex   -1.732051e+01 -1.000000e+01 2.500000e+01
    endloop
  endfacet
  facet normal -1.000000e+00 0.000000e+00 0.000000e+00
    outer loop
      vertex   -1.732051e+01 1.000000e+01 -2.500000e+01
      vertex   -1.732051e+01 -1.000000e+01 2.500000e+01
      vertex   -1.732051e+01 1.000000e+01 2.500000e+01
    endloop
  endfacet
  facet normal -1.000000e+00 -0.000000e+00 -7.105427e-17
    outer loop
      vertex   -1.732051e+01 1.000000e+01 2.500000e+01
      vertex   -1.732051e+01 -1.000000e+01 2.500000e+01
      vertex   -1.732051e+01 -1.000000e+01 7.500000e+01
    endloop
  endfacet
  facet normal -1.000000e+00 1.776357e-16 0.000000e+00
    outer loop
      vertex   -1.732051e+01 1.000000e+01 2.500000e+01
      vertex   -1.732051e+01 -1.000000e+01 7.500000e+01
      vertex   -1.732051e+01 1.000000e+01 7.500000e+01
    endloop
  endfacet
  facet normal -5.000000e-01 8.660254e-01 0.000000e+00
    outer loop
      vertex   -1.732051e+01 1.000000e+01 -7.500000e+01
      vertex   -1.732051e+01 1.000000e+01 -2.500000e+01
      vertex   1.873501e-15 2.000000e+01 -7.500000e+01
    endloop
  endfacet
  facet normal -5.000000e-01 8.660254e-01 0.000000e+00
    outer loop
      vertex   1.873501e-15 2.000000e+01 -7.500000e+01
      vertex   -1.732051e+01 1.000000e+01 -2.500000e+01
      vertex   1.873501e-15 2.000000e+01 -2.500000e+01
    endloop
  endfacet
  facet normal -5.000000e-01 8.660254e-01 0.000000e+00
    outer loop
      vertex   1.873501e-15 2.000000e+01 -2.500000e+01
      vertex   -1.732051e+01 1.000000e+01 -2.500000e+01
      vertex   -1.732051e+01 1.000000e+01 2.500000e+01
    endloop
  endfacet
  facet normal -5.000000e-01 8.660254e-01 0.000000e+00
    outer loop
      vertex   1.873501e-15 2.000000e+01 -2.500000e+01
      vertex   -1.732051e+01 1.000000e+01 2.500000e+01
      vertex   1.873501e-15 2.000000e+01 2.500000e+01
    endloop
  endfacet
  facet normal -5.000000e-01 8.660254e-01 0.000000e+00
    outer loop
      vertex   1.873501e-15 2.000000e+01 2.500000e+01
      vertex   -1.732051e+01 1.000000e+01 2.500000e+01
      vertex   -1.732051e+01 1.000000e+01 7.500000e+01
    endloop
  endfacet
  facet normal -5.000000e-01 8.660254e-01 0.000000e+00
    outer loop
      vertex   1.873501e-15 2.000000e+01 2.500000e+01
      vertex   -1.732051e+01 1.000000e+01 7.500000e+01
      vertex   1.873501e-15 2.000000e+01 7.500000e+01
    endloop
  endfacet
  facet normal 5.000000e-01 8.660254e-01 -0.000000e+00
    outer loop
      vertex   1.873501e-15 2.000000e+01 -7.500000e+01
      vertex   1.873501e-15 2.000000e+01 -2.500000e+01
      vertex   1.732051e+01 1.000000e+01 -7.500000e+01
    endloop
  endfacet
  facet normal 5.000000e-01 8.660254e-01 -0.000000e+00
    outer loop
      vertex   1.732051e+01 1.000000e+01 -7.500000e+01
      vertex   1.873501e-15 2.000000e+01 -2.500000e+01
      vertex   1.732051e+01 1.000000e+01 -2.500000e+01
    endloop
  endfacet
  facet normal 5.000000e-01 8.660254e-01 0.000000e+00
    outer loop
      vertex   1.732051e+01 1.000000e+01 -2.500000e+01
      vertex   1.873501e-15 2.000000e+01 -2.500000e+01
      vertex   1.873501e-15 2.000000e+01 2.500000e+01
    endloop
  endfacet
  facet normal 5.000000e-01 8.660254e-01 -0.000000e+00
    outer loop
      vertex   1.732051e+01 1.000000e+01 -2.500000e+01
      vertex   1.873501e-15 2.000000e+01 2.500000e+01
      vertex   1.732051e+01 1.000000e+01 2.500000e+01
    endloop
  endfacet
  facet normal 5.000000e-01 8.660254e-01 0.000000e+00
    outer loop
      vertex   1.732051e+01 1.000000e+01 2.500000e+01
      vertex   1.873501e-15 2.000000e+01 2.500000e+01
      vertex   1.873501e-15 2.000000e+01 7.500000e+01
    endloop
  endfacet
  facet normal 5.000000e-01 8.660254e-01 -0.000000e+00
    outer loop
      vertex   1.732051e+01 1.000000e+01 2.500000e+01
      vertex   1.873501e-15 2.000000e+01 7.500000e+01
      vertex   1.732051e+01 1.000000e+01 7.500000e+01
    endloop
  endfacet
  facet normal 0.000000e+00 0.000000e+00 1.000000e+00
    outer loop
      vertex   1.732051e+01 1.000000e+01 7.500000e+01
      vertex   1.873501e-15 2.000000e+01 7.500000e+01
      vertex   1.732051e+01 -1.000000e+01 7.500000e+01
    endloop
  endfacet
  facet normal 0.000000e+00 0.000000e+00 1.000000e+00
    outer loop
      vertex   1.732051e+01 -1.000000e+01 7.500000e+01
      vertex   1.873501e-15 2.000000e+01 7.500000e+01
      vertex   -4.232725e-15 -2.000000e+01 7.500000e+01
    endloop
  endfacet
  facet normal 0.000000e+00 -0.000000e+00 1.000000e+00
    outer loop
      vertex   -4.232725e-15 -2.000000e+01 7.500000e+01
      vertex   1.873501e-15 2.000000e+01 7.500000e+01
      vertex   -1.732051e+01 1.000000e+01 7.500000e+01
    endloop
  endfacet
  facet normal 0.000000e+00 0.000000e+00 1.000000e+00
    outer loop
      vertex   -4.232725e-15 -2.000000e+01 7.500000e+01
      vertex   -1.732051e+01 1.000000e+01 7.500000e+01
      vertex   -1.732051e+01 -1.000000e+01 7.500000e+01
    endloop
  endfacet
endsolid
