solid 
facet normal 0.5 0.86602545 0
 outer loop
  vertex 0 3.29665 -125
  vertex 0 3.29665 125
  vertex 2.8549826 1.648325 125
 endloop
endfacet
facet normal 0.5 0.86602545 -0
 outer loop
  vertex 0 3.29665 -125
  vertex 2.8549826 1.648325 125
  vertex 2.8549826 1.648325 -125
 endloop
endfacet
facet normal 1 -0 0
 outer loop
  vertex 2.8549826 1.648325 -125
  vertex 2.8549826 1.648325 125
  vertex 2.8549826 -1.648325 125
 endloop
endfacet
facet normal 1 -0 0
 outer loop
  vertex 2.8549826 1.648325 -125
  vertex 2.8549826 -1.648325 125
  vertex 2.8549826 -1.648325 -125
 endloop
endfacet
facet normal 0.5 -0.86602545 0
 outer loop
  vertex 2.8549826 -1.648325 -125
  vertex 2.8549826 -1.648325 125
  vertex 0 -3.29665 125
 endloop
endfacet
facet normal 0.5 -0.86602545 0
 outer loop
  vertex 2.8549826 -1.648325 -125
  vertex 0 -3.29665 125
  vertex 0 -3.29665 -125
 endloop
endfacet
facet normal -0.5 -0.86602545 -0
 outer loop
  vertex 0 -3.29665 -125
  vertex 0 -3.29665 125
  vertex -2.8549826 -1.648325 125
 endloop
endfacet
facet normal -0.5 -0.86602545 0
 outer loop
  vertex 0 -3.29665 -125
  vertex -2.8549826 -1.648325 125
  vertex -2.8549826 -1.648325 -125
 endloop
endfacet
facet normal 0 0 1
 outer loop
  vertex 2.8549826 -1.648325 125
  vertex 2.8549826 1.648325 125
  vertex 0 3.29665 125
 endloop
endfacet
facet normal 0 0 1
 outer loop
  vertex 0 3.29665 125
  vertex -2.8549826 1.648325 125
  vertex -2.8549826 -1.648325 125
 endloop
endfacet
facet normal 0 0 1
 outer loop
  vertex -2.8549826 -1.648325 125
  vertex 0 -3.29665 125
  vertex 2.8549826 -1.648325 125
 endloop
endfacet
facet normal 0 -0 1
 outer loop
  vertex 0 3.29665 125
  vertex -2.8549826 -1.648325 125
  vertex 2.8549826 -1.648325 125
 endloop
endfacet
facet normal -1 -0 -0
 outer loop
  vertex -2.8549826 -1.648325 -125
  vertex -2.8549826 -1.648325 125
  vertex -2.8549826 1.648325 125
 endloop
endfacet
facet normal -1 -0 0
 outer loop
  vertex -2.8549826 -1.648325 -125
  vertex -2.8549826 1.648325 125
  vertex -2.8549826 1.648325 -125
 endloop
endfacet
facet normal -0.5 0.86602545 0
 outer loop
  vertex -2.8549826 1.648325 -125
  vertex -2.8549826 1.648325 125
  vertex 0 3.29665 125
 endloop
endfacet
facet normal -0.5 0.86602545 0
 outer loop
  vertex -2.8549826 1.648325 -125
  vertex 0 3.29665 125
  vertex 0 3.29665 -125
 endloop
endfacet
facet normal -0 0 -1
 outer loop
  vertex -2.8549826 1.648325 -125
  vertex 0 3.29665 -125
  vertex 2.8549826 1.648325 -125
 endloop
endfacet
facet normal 0 0 -1
 outer loop
  vertex 2.8549826 1.648325 -125
  vertex 2.8549826 -1.648325 -125
  vertex 0 -3.29665 -125
 endloop
endfacet
facet normal 0 0 -1
 outer loop
  vertex 0 -3.29665 -125
  vertex -2.8549826 -1.648325 -125
  vertex -2.8549826 1.648325 -125
 endloop
endfacet
facet normal 0 0 -1
 outer loop
  vertex 2.8549826 1.648325 -125
  vertex 0 -3.29665 -125
  vertex -2.8549826 1.648325 -125
 endloop
endfacet
endsolid 
