solid ASCII
  facet normal -0.000000e+00 -1.000000e+00 -0.000000e+00
    outer loop
      vertex   4.453237e+00 -4.401996e+00 7.670000e+01
      vertex   -4.346763e+00 -4.401996e+00 7.670000e+01
      vertex   4.453237e+00 -4.401996e+00 7.506000e+01
    endloop
  endfacet
  facet normal 0.000000e+00 -1.000000e+00 0.000000e+00
    outer loop
      vertex   4.453237e+00 -4.401996e+00 7.506000e+01
      vertex   -4.346763e+00 -4.401996e+00 7.670000e+01
      vertex   -4.346763e+00 -4.401996e+00 7.506000e+01
    endloop
  endfacet
  facet normal 0.000000e+00 0.000000e+00 1.000000e+00
    outer loop
      vertex   -4.346763e+00 -4.401996e+00 7.670000e+01
      vertex   4.453237e+00 -4.401996e+00 7.670000e+01
      vertex   -4.346763e+00 4.528004e+00 7.670000e+01
    endloop
  endfacet
  facet normal -0.000000e+00 0.000000e+00 1.000000e+00
    outer loop
      vertex   -4.346763e+00 4.528004e+00 7.670000e+01
      vertex   4.453237e+00 -4.401996e+00 7.670000e+01
      vertex   4.453237e+00 4.528004e+00 7.670000e+01
    endloop
  endfacet
  facet normal -1.000000e+00 0.000000e+00 0.000000e+00
    outer loop
      vertex   -4.346763e+00 -4.401996e+00 7.670000e+01
      vertex   -4.346763e+00 4.528004e+00 7.670000e+01
      vertex   -4.346763e+00 -4.401996e+00 7.506000e+01
    endloop
  endfacet
  facet normal -1.000000e+00 0.000000e+00 0.000000e+00
    outer loop
      vertex   -4.346763e+00 -4.401996e+00 7.506000e+01
      vertex   -4.346763e+00 4.528004e+00 7.670000e+01
      vertex   -4.346763e+00 4.528004e+00 7.506000e+01
    endloop
  endfacet
  facet normal 1.000000e+00 0.000000e+00 0.000000e+00
    outer loop
      vertex   4.453237e+00 -4.401996e+00 7.506000e+01
      vertex   4.453237e+00 4.528004e+00 7.506000e+01
      vertex   4.453237e+00 -4.401996e+00 7.670000e+01
    endloop
  endfacet
  facet normal 1.000000e+00 -0.000000e+00 0.000000e+00
    outer loop
      vertex   4.453237e+00 -4.401996e+00 7.670000e+01
      vertex   4.453237e+00 4.528004e+00 7.506000e+01
      vertex   4.453237e+00 4.528004e+00 7.670000e+01
    endloop
  endfacet
  facet normal -0.000000e+00 0.000000e+00 -1.000000e+00
    outer loop
      vertex   6.555191e+00 3.784641e+00 -7.506000e+01
      vertex   -2.070826e-15 -7.569282e+00 -7.506000e+01
      vertex   -7.808665e-16 7.569282e+00 -7.506000e+01
    endloop
  endfacet
  facet normal 0.000000e+00 0.000000e+00 -1.000000e+00
    outer loop
      vertex   -7.808665e-16 7.569282e+00 -7.506000e+01
      vertex   -2.070826e-15 -7.569282e+00 -7.506000e+01
      vertex   -6.555191e+00 -3.784641e+00 -7.506000e+01
    endloop
  endfacet
  facet normal 0.000000e+00 0.000000e+00 -1.000000e+00
    outer loop
      vertex   -7.808665e-16 7.569282e+00 -7.506000e+01
      vertex   -6.555191e+00 -3.784641e+00 -7.506000e+01
      vertex   -6.555191e+00 3.784641e+00 -7.506000e+01
    endloop
  endfacet
  facet normal 0.000000e+00 0.000000e+00 -1.000000e+00
    outer loop
      vertex   6.555191e+00 3.784641e+00 -7.506000e+01
      vertex   6.555191e+00 -3.784641e+00 -7.506000e+01
      vertex   -2.070826e-15 -7.569282e+00 -7.506000e+01
    endloop
  endfacet
  facet normal 1.000000e+00 -4.693594e-16 0.000000e+00
    outer loop
      vertex   6.555191e+00 3.784641e+00 7.506000e+01
      vertex   6.555191e+00 -3.784641e+00 7.506000e+01
      vertex   6.555191e+00 3.784641e+00 -7.506000e+01
    endloop
  endfacet
  facet normal 1.000000e+00 -4.693594e-16 0.000000e+00
    outer loop
      vertex   6.555191e+00 3.784641e+00 -7.506000e+01
      vertex   6.555191e+00 -3.784641e+00 7.506000e+01
      vertex   6.555191e+00 -3.784641e+00 -7.506000e+01
    endloop
  endfacet
  facet normal 5.000000e-01 8.660254e-01 9.629649e-21
    outer loop
      vertex   -7.837577e-16 7.569282e+00 7.506000e+01
      vertex   6.555191e+00 3.784641e+00 7.506000e+01
      vertex   -7.808665e-16 7.569282e+00 -7.506000e+01
    endloop
  endfacet
  facet normal 5.000000e-01 8.660254e-01 0.000000e+00
    outer loop
      vertex   -7.808665e-16 7.569282e+00 -7.506000e+01
      vertex   6.555191e+00 3.784641e+00 7.506000e+01
      vertex   6.555191e+00 3.784641e+00 -7.506000e+01
    endloop
  endfacet
  facet normal -5.000000e-01 8.660254e-01 0.000000e+00
    outer loop
      vertex   -6.555191e+00 3.784641e+00 7.506000e+01
      vertex   -7.837577e-16 7.569282e+00 7.506000e+01
      vertex   -6.555191e+00 3.784641e+00 -7.506000e+01
    endloop
  endfacet
  facet normal -5.000000e-01 8.660254e-01 0.000000e+00
    outer loop
      vertex   -6.555191e+00 3.784641e+00 -7.506000e+01
      vertex   -7.837577e-16 7.569282e+00 7.506000e+01
      vertex   -7.808665e-16 7.569282e+00 -7.506000e+01
    endloop
  endfacet
  facet normal 5.000000e-01 -8.660254e-01 0.000000e+00
    outer loop
      vertex   6.555191e+00 -3.784641e+00 7.506000e+01
      vertex   -2.069260e-15 -7.569282e+00 7.506000e+01
      vertex   6.555191e+00 -3.784641e+00 -7.506000e+01
    endloop
  endfacet
  facet normal 5.000000e-01 -8.660254e-01 0.000000e+00
    outer loop
      vertex   6.555191e+00 -3.784641e+00 -7.506000e+01
      vertex   -2.069260e-15 -7.569282e+00 7.506000e+01
      vertex   -2.070826e-15 -7.569282e+00 -7.506000e+01
    endloop
  endfacet
  facet normal -5.000000e-01 -8.660254e-01 5.216060e-21
    outer loop
      vertex   -2.069260e-15 -7.569282e+00 7.506000e+01
      vertex   -6.555191e+00 -3.784641e+00 7.506000e+01
      vertex   -2.070826e-15 -7.569282e+00 -7.506000e+01
    endloop
  endfacet
  facet normal -5.000000e-01 -8.660254e-01 0.000000e+00
    outer loop
      vertex   -2.070826e-15 -7.569282e+00 -7.506000e+01
      vertex   -6.555191e+00 -3.784641e+00 7.506000e+01
      vertex   -6.555191e+00 -3.784641e+00 -7.506000e+01
    endloop
  endfacet
  facet normal -1.000000e+00 0.000000e+00 0.000000e+00
    outer loop
      vertex   -6.555191e+00 -3.784641e+00 7.506000e+01
      vertex   -6.555191e+00 3.784641e+00 7.506000e+01
      vertex   -6.555191e+00 -3.784641e+00 -7.506000e+01
    endloop
  endfacet
  facet normal -1.000000e+00 0.000000e+00 0.000000e+00
    outer loop
      vertex   -6.555191e+00 -3.784641e+00 -7.506000e+01
      vertex   -6.555191e+00 3.784641e+00 7.506000e+01
      vertex   -6.555191e+00 3.784641e+00 -7.506000e+01
    endloop
  endfacet
  facet normal -0.000000e+00 0.000000e+00 1.000000e+00
    outer loop
      vertex   -4.346763e+00 -4.401996e+00 7.506000e+01
      vertex   -2.069260e-15 -7.569282e+00 7.506000e+01
      vertex   4.453237e+00 -4.401996e+00 7.506000e+01
    endloop
  endfacet
  facet normal -0.000000e+00 0.000000e+00 1.000000e+00
    outer loop
      vertex   4.453237e+00 -4.401996e+00 7.506000e+01
      vertex   -2.069260e-15 -7.569282e+00 7.506000e+01
      vertex   6.555191e+00 -3.784641e+00 7.506000e+01
    endloop
  endfacet
  facet normal 0.000000e+00 0.000000e+00 1.000000e+00
    outer loop
      vertex   4.453237e+00 -4.401996e+00 7.506000e+01
      vertex   6.555191e+00 -3.784641e+00 7.506000e+01
      vertex   6.555191e+00 3.784641e+00 7.506000e+01
    endloop
  endfacet
  facet normal 0.000000e+00 0.000000e+00 1.000000e+00
    outer loop
      vertex   -4.346763e+00 4.528004e+00 7.506000e+01
      vertex   -6.555191e+00 3.784641e+00 7.506000e+01
      vertex   -4.346763e+00 -4.401996e+00 7.506000e+01
    endloop
  endfacet
  facet normal 0.000000e+00 0.000000e+00 1.000000e+00
    outer loop
      vertex   -4.346763e+00 -4.401996e+00 7.506000e+01
      vertex   -6.555191e+00 3.784641e+00 7.506000e+01
      vertex   -6.555191e+00 -3.784641e+00 7.506000e+01
    endloop
  endfacet
  facet normal 0.000000e+00 0.000000e+00 1.000000e+00
    outer loop
      vertex   -4.346763e+00 -4.401996e+00 7.506000e+01
      vertex   -6.555191e+00 -3.784641e+00 7.506000e+01
      vertex   -2.069260e-15 -7.569282e+00 7.506000e+01
    endloop
  endfacet
  facet normal 0.000000e+00 0.000000e+00 1.000000e+00
    outer loop
      vertex   -6.555191e+00 3.784641e+00 7.506000e+01
      vertex   -4.346763e+00 4.528004e+00 7.506000e+01
      vertex   -7.837577e-16 7.569282e+00 7.506000e+01
    endloop
  endfacet
  facet normal 0.000000e+00 0.000000e+00 1.000000e+00
    outer loop
      vertex   -7.837577e-16 7.569282e+00 7.506000e+01
      vertex   -4.346763e+00 4.528004e+00 7.506000e+01
      vertex   4.453237e+00 4.528004e+00 7.506000e+01
    endloop
  endfacet
  facet normal 0.000000e+00 0.000000e+00 1.000000e+00
    outer loop
      vertex   -7.837577e-16 7.569282e+00 7.506000e+01
      vertex   4.453237e+00 4.528004e+00 7.506000e+01
      vertex   6.555191e+00 3.784641e+00 7.506000e+01
    endloop
  endfacet
  facet normal 0.000000e+00 0.000000e+00 1.000000e+00
    outer loop
      vertex   6.555191e+00 3.784641e+00 7.506000e+01
      vertex   4.453237e+00 4.528004e+00 7.506000e+01
      vertex   4.453237e+00 -4.401996e+00 7.506000e+01
    endloop
  endfacet
  facet normal 0.000000e+00 1.000000e+00 -0.000000e+00
    outer loop
      vertex   4.453237e+00 4.528004e+00 7.506000e+01
      vertex   -4.346763e+00 4.528004e+00 7.506000e+01
      vertex   4.453237e+00 4.528004e+00 7.670000e+01
    endloop
  endfacet
  facet normal 0.000000e+00 1.000000e+00 0.000000e+00
    outer loop
      vertex   4.453237e+00 4.528004e+00 7.670000e+01
      vertex   -4.346763e+00 4.528004e+00 7.506000e+01
      vertex   -4.346763e+00 4.528004e+00 7.670000e+01
    endloop
  endfacet
  facet normal -0.000000e+00 1.000000e+00 0.000000e+00
    outer loop
      vertex   -4.296763e+00 -4.351996e+00 7.665000e+01
      vertex   4.403237e+00 -4.351996e+00 7.665000e+01
      vertex   -4.296763e+00 -4.351996e+00 7.501000e+01
    endloop
  endfacet
  facet normal 0.000000e+00 1.000000e+00 0.000000e+00
    outer loop
      vertex   -4.296763e+00 -4.351996e+00 7.501000e+01
      vertex   4.403237e+00 -4.351996e+00 7.665000e+01
      vertex   4.403237e+00 -4.351996e+00 7.501000e+01
    endloop
  endfacet
  facet normal 0.000000e+00 0.000000e+00 -1.000000e+00
    outer loop
      vertex   4.403237e+00 -4.351996e+00 7.665000e+01
      vertex   -4.296763e+00 -4.351996e+00 7.665000e+01
      vertex   4.403237e+00 4.478004e+00 7.665000e+01
    endloop
  endfacet
  facet normal -0.000000e+00 0.000000e+00 -1.000000e+00
    outer loop
      vertex   4.403237e+00 4.478004e+00 7.665000e+01
      vertex   -4.296763e+00 -4.351996e+00 7.665000e+01
      vertex   -4.296763e+00 4.478004e+00 7.665000e+01
    endloop
  endfacet
  facet normal 1.000000e+00 0.000000e+00 0.000000e+00
    outer loop
      vertex   -4.296763e+00 4.478004e+00 7.665000e+01
      vertex   -4.296763e+00 -4.351996e+00 7.665000e+01
      vertex   -4.296763e+00 4.478004e+00 7.501000e+01
    endloop
  endfacet
  facet normal 1.000000e+00 0.000000e+00 0.000000e+00
    outer loop
      vertex   -4.296763e+00 4.478004e+00 7.501000e+01
      vertex   -4.296763e+00 -4.351996e+00 7.665000e+01
      vertex   -4.296763e+00 -4.351996e+00 7.501000e+01
    endloop
  endfacet
  facet normal -1.000000e+00 0.000000e+00 0.000000e+00
    outer loop
      vertex   4.403237e+00 4.478004e+00 7.501000e+01
      vertex   4.403237e+00 -4.351996e+00 7.501000e+01
      vertex   4.403237e+00 4.478004e+00 7.665000e+01
    endloop
  endfacet
  facet normal -1.000000e+00 -0.000000e+00 0.000000e+00
    outer loop
      vertex   4.403237e+00 4.478004e+00 7.665000e+01
      vertex   4.403237e+00 -4.351996e+00 7.501000e+01
      vertex   4.403237e+00 -4.351996e+00 7.665000e+01
    endloop
  endfacet
  facet normal 0.000000e+00 0.000000e+00 1.000000e+00
    outer loop
      vertex   6.505191e+00 3.755774e+00 -7.501000e+01
      vertex   -5.514975e-16 7.511547e+00 -7.501000e+01
      vertex   6.505191e+00 -3.755774e+00 -7.501000e+01
    endloop
  endfacet
  facet normal 0.000000e+00 0.000000e+00 1.000000e+00
    outer loop
      vertex   6.505191e+00 -3.755774e+00 -7.501000e+01
      vertex   -5.514975e-16 7.511547e+00 -7.501000e+01
      vertex   -2.040468e-15 -7.511547e+00 -7.501000e+01
    endloop
  endfacet
  facet normal 0.000000e+00 -0.000000e+00 1.000000e+00
    outer loop
      vertex   -2.040468e-15 -7.511547e+00 -7.501000e+01
      vertex   -5.514975e-16 7.511547e+00 -7.501000e+01
      vertex   -6.505191e+00 3.755774e+00 -7.501000e+01
    endloop
  endfacet
  facet normal 0.000000e+00 0.000000e+00 1.000000e+00
    outer loop
      vertex   -2.040468e-15 -7.511547e+00 -7.501000e+01
      vertex   -6.505191e+00 3.755774e+00 -7.501000e+01
      vertex   -6.505191e+00 -3.755774e+00 -7.501000e+01
    endloop
  endfacet
  facet normal -1.000000e+00 3.547252e-16 0.000000e+00
    outer loop
      vertex   6.505191e+00 3.755774e+00 -7.501000e+01
      vertex   6.505191e+00 -3.755774e+00 -7.501000e+01
      vertex   6.505191e+00 3.755774e+00 7.501000e+01
    endloop
  endfacet
  facet normal -1.000000e+00 3.547252e-16 0.000000e+00
    outer loop
      vertex   6.505191e+00 3.755774e+00 7.501000e+01
      vertex   6.505191e+00 -3.755774e+00 -7.501000e+01
      vertex   6.505191e+00 -3.755774e+00 7.501000e+01
    endloop
  endfacet
  facet normal -5.000000e-01 -8.660254e-01 0.000000e+00
    outer loop
      vertex   -5.514975e-16 7.511547e+00 -7.501000e+01
      vertex   6.505191e+00 3.755774e+00 -7.501000e+01
      vertex   -5.514975e-16 7.511547e+00 7.501000e+01
    endloop
  endfacet
  facet normal -5.000000e-01 -8.660254e-01 0.000000e+00
    outer loop
      vertex   -5.514975e-16 7.511547e+00 7.501000e+01
      vertex   6.505191e+00 3.755774e+00 -7.501000e+01
      vertex   6.505191e+00 3.755774e+00 7.501000e+01
    endloop
  endfacet
  facet normal 5.000000e-01 -8.660254e-01 0.000000e+00
    outer loop
      vertex   -6.505191e+00 3.755774e+00 -7.501000e+01
      vertex   -5.514975e-16 7.511547e+00 -7.501000e+01
      vertex   -6.505191e+00 3.755774e+00 7.501000e+01
    endloop
  endfacet
  facet normal 5.000000e-01 -8.660254e-01 0.000000e+00
    outer loop
      vertex   -6.505191e+00 3.755774e+00 7.501000e+01
      vertex   -5.514975e-16 7.511547e+00 -7.501000e+01
      vertex   -5.514975e-16 7.511547e+00 7.501000e+01
    endloop
  endfacet
  facet normal -5.000000e-01 8.660254e-01 0.000000e+00
    outer loop
      vertex   6.505191e+00 -3.755774e+00 -7.501000e+01
      vertex   -2.040468e-15 -7.511547e+00 -7.501000e+01
      vertex   6.505191e+00 -3.755774e+00 7.501000e+01
    endloop
  endfacet
  facet normal -5.000000e-01 8.660254e-01 0.000000e+00
    outer loop
      vertex   6.505191e+00 -3.755774e+00 7.501000e+01
      vertex   -2.040468e-15 -7.511547e+00 -7.501000e+01
      vertex   -2.040107e-15 -7.511547e+00 7.501000e+01
    endloop
  endfacet
  facet normal 5.000000e-01 8.660254e-01 -1.204508e-21
    outer loop
      vertex   -2.040468e-15 -7.511547e+00 -7.501000e+01
      vertex   -6.505191e+00 -3.755774e+00 -7.501000e+01
      vertex   -2.040107e-15 -7.511547e+00 7.501000e+01
    endloop
  endfacet
  facet normal 5.000000e-01 8.660254e-01 0.000000e+00
    outer loop
      vertex   -2.040107e-15 -7.511547e+00 7.501000e+01
      vertex   -6.505191e+00 -3.755774e+00 -7.501000e+01
      vertex   -6.505191e+00 -3.755774e+00 7.501000e+01
    endloop
  endfacet
  facet normal 1.000000e+00 -2.364835e-16 0.000000e+00
    outer loop
      vertex   -6.505191e+00 -3.755774e+00 -7.501000e+01
      vertex   -6.505191e+00 3.755774e+00 -7.501000e+01
      vertex   -6.505191e+00 -3.755774e+00 7.501000e+01
    endloop
  endfacet
  facet normal 1.000000e+00 -2.364835e-16 0.000000e+00
    outer loop
      vertex   -6.505191e+00 -3.755774e+00 7.501000e+01
      vertex   -6.505191e+00 3.755774e+00 -7.501000e+01
      vertex   -6.505191e+00 3.755774e+00 7.501000e+01
    endloop
  endfacet
  facet normal -0.000000e+00 0.000000e+00 -1.000000e+00
    outer loop
      vertex   4.403237e+00 -4.351996e+00 7.501000e+01
      vertex   -2.040107e-15 -7.511547e+00 7.501000e+01
      vertex   -4.296763e+00 -4.351996e+00 7.501000e+01
    endloop
  endfacet
  facet normal -0.000000e+00 -0.000000e+00 -1.000000e+00
    outer loop
      vertex   -4.296763e+00 -4.351996e+00 7.501000e+01
      vertex   -2.040107e-15 -7.511547e+00 7.501000e+01
      vertex   -6.505191e+00 -3.755774e+00 7.501000e+01
    endloop
  endfacet
  facet normal 0.000000e+00 0.000000e+00 -1.000000e+00
    outer loop
      vertex   -4.296763e+00 -4.351996e+00 7.501000e+01
      vertex   -6.505191e+00 -3.755774e+00 7.501000e+01
      vertex   -6.505191e+00 3.755774e+00 7.501000e+01
    endloop
  endfacet
  facet normal 0.000000e+00 0.000000e+00 -1.000000e+00
    outer loop
      vertex   4.403237e+00 4.478004e+00 7.501000e+01
      vertex   6.505191e+00 3.755774e+00 7.501000e+01
      vertex   4.403237e+00 -4.351996e+00 7.501000e+01
    endloop
  endfacet
  facet normal 0.000000e+00 0.000000e+00 -1.000000e+00
    outer loop
      vertex   4.403237e+00 -4.351996e+00 7.501000e+01
      vertex   6.505191e+00 3.755774e+00 7.501000e+01
      vertex   6.505191e+00 -3.755774e+00 7.501000e+01
    endloop
  endfacet
  facet normal 0.000000e+00 -0.000000e+00 -1.000000e+00
    outer loop
      vertex   4.403237e+00 -4.351996e+00 7.501000e+01
      vertex   6.505191e+00 -3.755774e+00 7.501000e+01
      vertex   -2.040107e-15 -7.511547e+00 7.501000e+01
    endloop
  endfacet
  facet normal 0.000000e+00 0.000000e+00 -1.000000e+00
    outer loop
      vertex   6.505191e+00 3.755774e+00 7.501000e+01
      vertex   4.403237e+00 4.478004e+00 7.501000e+01
      vertex   -5.514975e-16 7.511547e+00 7.501000e+01
    endloop
  endfacet
  facet normal 0.000000e+00 -0.000000e+00 -1.000000e+00
    outer loop
      vertex   -5.514975e-16 7.511547e+00 7.501000e+01
      vertex   4.403237e+00 4.478004e+00 7.501000e+01
      vertex   -4.296763e+00 4.478004e+00 7.501000e+01
    endloop
  endfacet
  facet normal 0.000000e+00 0.000000e+00 -1.000000e+00
    outer loop
      vertex   -5.514975e-16 7.511547e+00 7.501000e+01
      vertex   -4.296763e+00 4.478004e+00 7.501000e+01
      vertex   -6.505191e+00 3.755774e+00 7.501000e+01
    endloop
  endfacet
  facet normal 0.000000e+00 0.000000e+00 -1.000000e+00
    outer loop
      vertex   -6.505191e+00 3.755774e+00 7.501000e+01
      vertex   -4.296763e+00 4.478004e+00 7.501000e+01
      vertex   -4.296763e+00 -4.351996e+00 7.501000e+01
    endloop
  endfacet
  facet normal 0.000000e+00 -1.000000e+00 0.000000e+00
    outer loop
      vertex   -4.296763e+00 4.478004e+00 7.501000e+01
      vertex   4.403237e+00 4.478004e+00 7.501000e+01
      vertex   -4.296763e+00 4.478004e+00 7.665000e+01
    endloop
  endfacet
  facet normal 0.000000e+00 -1.000000e+00 0.000000e+00
    outer loop
      vertex   -4.296763e+00 4.478004e+00 7.665000e+01
      vertex   4.403237e+00 4.478004e+00 7.501000e+01
      vertex   4.403237e+00 4.478004e+00 7.665000e+01
    endloop
  endfacet
endsolid
