solid ASCII
  facet normal -0.000000e+00 0.000000e+00 -1.000000e+00
    outer loop
      vertex   6.695191e+00 3.865470e+00 -7.520000e+01
      vertex   -2.473908e-15 -7.730940e+00 -7.520000e+01
      vertex   -1.342483e-15 7.730940e+00 -7.520000e+01
    endloop
  endfacet
  facet normal 0.000000e+00 0.000000e+00 -1.000000e+00
    outer loop
      vertex   -1.342483e-15 7.730940e+00 -7.520000e+01
      vertex   -2.473908e-15 -7.730940e+00 -7.520000e+01
      vertex   -6.695191e+00 -3.865470e+00 -7.520000e+01
    endloop
  endfacet
  facet normal 0.000000e+00 0.000000e+00 -1.000000e+00
    outer loop
      vertex   -1.342483e-15 7.730940e+00 -7.520000e+01
      vertex   -6.695191e+00 -3.865470e+00 -7.520000e+01
      vertex   -6.695191e+00 3.865470e+00 -7.520000e+01
    endloop
  endfacet
  facet normal 0.000000e+00 0.000000e+00 -1.000000e+00
    outer loop
      vertex   6.695191e+00 3.865470e+00 -7.520000e+01
      vertex   6.695191e+00 -3.865470e+00 -7.520000e+01
      vertex   -2.473908e-15 -7.730940e+00 -7.520000e+01
    endloop
  endfacet
  facet normal -5.000000e-01 8.660254e-01 0.000000e+00
    outer loop
      vertex   -6.695191e+00 3.865470e+00 7.520000e+01
      vertex   -1.334773e-15 7.730940e+00 7.520000e+01
      vertex   -6.695191e+00 3.865470e+00 -7.520000e+01
    endloop
  endfacet
  facet normal -5.000000e-01 8.660254e-01 0.000000e+00
    outer loop
      vertex   -6.695191e+00 3.865470e+00 -7.520000e+01
      vertex   -1.334773e-15 7.730940e+00 7.520000e+01
      vertex   -1.342483e-15 7.730940e+00 -7.520000e+01
    endloop
  endfacet
  facet normal 1.000000e+00 -4.595448e-16 0.000000e+00
    outer loop
      vertex   6.695191e+00 3.865470e+00 7.520000e+01
      vertex   6.695191e+00 -3.865470e+00 7.520000e+01
      vertex   6.695191e+00 3.865470e+00 -7.520000e+01
    endloop
  endfacet
  facet normal 1.000000e+00 -4.595448e-16 0.000000e+00
    outer loop
      vertex   6.695191e+00 3.865470e+00 -7.520000e+01
      vertex   6.695191e+00 -3.865470e+00 7.520000e+01
      vertex   6.695191e+00 -3.865470e+00 -7.520000e+01
    endloop
  endfacet
  facet normal 5.000000e-01 8.660254e-01 -2.563126e-20
    outer loop
      vertex   -1.334773e-15 7.730940e+00 7.520000e+01
      vertex   6.695191e+00 3.865470e+00 7.520000e+01
      vertex   -1.342483e-15 7.730940e+00 -7.520000e+01
    endloop
  endfacet
  facet normal 5.000000e-01 8.660254e-01 0.000000e+00
    outer loop
      vertex   -1.342483e-15 7.730940e+00 -7.520000e+01
      vertex   6.695191e+00 3.865470e+00 7.520000e+01
      vertex   6.695191e+00 3.865470e+00 -7.520000e+01
    endloop
  endfacet
  facet normal 5.000000e-01 -8.660254e-01 0.000000e+00
    outer loop
      vertex   6.695191e+00 -3.865470e+00 7.520000e+01
      vertex   -2.473908e-15 -7.730940e+00 7.520000e+01
      vertex   6.695191e+00 -3.865470e+00 -7.520000e+01
    endloop
  endfacet
  facet normal 5.000000e-01 -8.660254e-01 0.000000e+00
    outer loop
      vertex   6.695191e+00 -3.865470e+00 -7.520000e+01
      vertex   -2.473908e-15 -7.730940e+00 7.520000e+01
      vertex   -2.473908e-15 -7.730940e+00 -7.520000e+01
    endloop
  endfacet
  facet normal -5.000000e-01 -8.660254e-01 -0.000000e+00
    outer loop
      vertex   -2.473908e-15 -7.730940e+00 7.520000e+01
      vertex   -6.695191e+00 -3.865470e+00 7.520000e+01
      vertex   -2.473908e-15 -7.730940e+00 -7.520000e+01
    endloop
  endfacet
  facet normal -5.000000e-01 -8.660254e-01 3.055484e-18
    outer loop
      vertex   -2.473908e-15 -7.730940e+00 -7.520000e+01
      vertex   -6.695191e+00 -3.865470e+00 7.520000e+01
      vertex   -6.695191e+00 -3.865470e+00 -7.520000e+01
    endloop
  endfacet
  facet normal -1.000000e+00 1.148862e-16 -3.392269e-34
    outer loop
      vertex   -6.695191e+00 -3.865470e+00 7.520000e+01
      vertex   -6.695191e+00 3.865470e+00 7.520000e+01
      vertex   -6.695191e+00 -3.865470e+00 -7.520000e+01
    endloop
  endfacet
  facet normal -1.000000e+00 1.148862e-16 0.000000e+00
    outer loop
      vertex   -6.695191e+00 -3.865470e+00 -7.520000e+01
      vertex   -6.695191e+00 3.865470e+00 7.520000e+01
      vertex   -6.695191e+00 3.865470e+00 -7.520000e+01
    endloop
  endfacet
  facet normal 0.000000e+00 1.000000e+00 -0.000000e+00
    outer loop
      vertex   4.593237e+00 4.668004e+00 7.520000e+01
      vertex   -4.486763e+00 4.668004e+00 7.520000e+01
      vertex   4.593237e+00 4.668004e+00 7.684000e+01
    endloop
  endfacet
  facet normal 0.000000e+00 1.000000e+00 0.000000e+00
    outer loop
      vertex   4.593237e+00 4.668004e+00 7.684000e+01
      vertex   -4.486763e+00 4.668004e+00 7.520000e+01
      vertex   -4.486763e+00 4.668004e+00 7.684000e+01
    endloop
  endfacet
  facet normal -0.000000e+00 0.000000e+00 1.000000e+00
    outer loop
      vertex   -4.486763e+00 -4.541996e+00 7.520000e+01
      vertex   -2.473908e-15 -7.730940e+00 7.520000e+01
      vertex   4.593237e+00 -4.541996e+00 7.520000e+01
    endloop
  endfacet
  facet normal -0.000000e+00 0.000000e+00 1.000000e+00
    outer loop
      vertex   4.593237e+00 -4.541996e+00 7.520000e+01
      vertex   -2.473908e-15 -7.730940e+00 7.520000e+01
      vertex   6.695191e+00 -3.865470e+00 7.520000e+01
    endloop
  endfacet
  facet normal 0.000000e+00 0.000000e+00 1.000000e+00
    outer loop
      vertex   4.593237e+00 -4.541996e+00 7.520000e+01
      vertex   6.695191e+00 -3.865470e+00 7.520000e+01
      vertex   6.695191e+00 3.865470e+00 7.520000e+01
    endloop
  endfacet
  facet normal 0.000000e+00 0.000000e+00 1.000000e+00
    outer loop
      vertex   -4.486763e+00 4.668004e+00 7.520000e+01
      vertex   -6.695191e+00 3.865470e+00 7.520000e+01
      vertex   -4.486763e+00 -4.541996e+00 7.520000e+01
    endloop
  endfacet
  facet normal 0.000000e+00 0.000000e+00 1.000000e+00
    outer loop
      vertex   -4.486763e+00 -4.541996e+00 7.520000e+01
      vertex   -6.695191e+00 3.865470e+00 7.520000e+01
      vertex   -6.695191e+00 -3.865470e+00 7.520000e+01
    endloop
  endfacet
  facet normal 0.000000e+00 0.000000e+00 1.000000e+00
    outer loop
      vertex   -4.486763e+00 -4.541996e+00 7.520000e+01
      vertex   -6.695191e+00 -3.865470e+00 7.520000e+01
      vertex   -2.473908e-15 -7.730940e+00 7.520000e+01
    endloop
  endfacet
  facet normal 0.000000e+00 0.000000e+00 1.000000e+00
    outer loop
      vertex   -6.695191e+00 3.865470e+00 7.520000e+01
      vertex   -4.486763e+00 4.668004e+00 7.520000e+01
      vertex   -1.334773e-15 7.730940e+00 7.520000e+01
    endloop
  endfacet
  facet normal 0.000000e+00 0.000000e+00 1.000000e+00
    outer loop
      vertex   -1.334773e-15 7.730940e+00 7.520000e+01
      vertex   -4.486763e+00 4.668004e+00 7.520000e+01
      vertex   4.593237e+00 4.668004e+00 7.520000e+01
    endloop
  endfacet
  facet normal 0.000000e+00 0.000000e+00 1.000000e+00
    outer loop
      vertex   -1.334773e-15 7.730940e+00 7.520000e+01
      vertex   4.593237e+00 4.668004e+00 7.520000e+01
      vertex   6.695191e+00 3.865470e+00 7.520000e+01
    endloop
  endfacet
  facet normal 0.000000e+00 0.000000e+00 1.000000e+00
    outer loop
      vertex   6.695191e+00 3.865470e+00 7.520000e+01
      vertex   4.593237e+00 4.668004e+00 7.520000e+01
      vertex   4.593237e+00 -4.541996e+00 7.520000e+01
    endloop
  endfacet
  facet normal 0.000000e+00 0.000000e+00 1.000000e+00
    outer loop
      vertex   -4.486763e+00 -4.541996e+00 7.684000e+01
      vertex   4.593237e+00 -4.541996e+00 7.684000e+01
      vertex   -4.486763e+00 4.668004e+00 7.684000e+01
    endloop
  endfacet
  facet normal -0.000000e+00 0.000000e+00 1.000000e+00
    outer loop
      vertex   -4.486763e+00 4.668004e+00 7.684000e+01
      vertex   4.593237e+00 -4.541996e+00 7.684000e+01
      vertex   4.593237e+00 4.668004e+00 7.684000e+01
    endloop
  endfacet
  facet normal 1.000000e+00 0.000000e+00 0.000000e+00
    outer loop
      vertex   4.593237e+00 -4.541996e+00 7.520000e+01
      vertex   4.593237e+00 4.668004e+00 7.520000e+01
      vertex   4.593237e+00 -4.541996e+00 7.684000e+01
    endloop
  endfacet
  facet normal 1.000000e+00 -0.000000e+00 0.000000e+00
    outer loop
      vertex   4.593237e+00 -4.541996e+00 7.684000e+01
      vertex   4.593237e+00 4.668004e+00 7.520000e+01
      vertex   4.593237e+00 4.668004e+00 7.684000e+01
    endloop
  endfacet
  facet normal -1.000000e+00 0.000000e+00 0.000000e+00
    outer loop
      vertex   -4.486763e+00 -4.541996e+00 7.684000e+01
      vertex   -4.486763e+00 4.668004e+00 7.684000e+01
      vertex   -4.486763e+00 -4.541996e+00 7.520000e+01
    endloop
  endfacet
  facet normal -1.000000e+00 0.000000e+00 0.000000e+00
    outer loop
      vertex   -4.486763e+00 -4.541996e+00 7.520000e+01
      vertex   -4.486763e+00 4.668004e+00 7.684000e+01
      vertex   -4.486763e+00 4.668004e+00 7.520000e+01
    endloop
  endfacet
  facet normal -0.000000e+00 -1.000000e+00 -0.000000e+00
    outer loop
      vertex   4.593237e+00 -4.541996e+00 7.684000e+01
      vertex   -4.486763e+00 -4.541996e+00 7.684000e+01
      vertex   4.593237e+00 -4.541996e+00 7.520000e+01
    endloop
  endfacet
  facet normal 0.000000e+00 -1.000000e+00 0.000000e+00
    outer loop
      vertex   4.593237e+00 -4.541996e+00 7.520000e+01
      vertex   -4.486763e+00 -4.541996e+00 7.684000e+01
      vertex   -4.486763e+00 -4.541996e+00 7.520000e+01
    endloop
  endfacet
  facet normal 0.000000e+00 0.000000e+00 1.000000e+00
    outer loop
      vertex   6.595191e+00 3.807735e+00 -7.510000e+01
      vertex   -7.054542e-16 7.615470e+00 -7.510000e+01
      vertex   6.595191e+00 -3.807735e+00 -7.510000e+01
    endloop
  endfacet
  facet normal 0.000000e+00 0.000000e+00 1.000000e+00
    outer loop
      vertex   6.595191e+00 -3.807735e+00 -7.510000e+01
      vertex   -7.054542e-16 7.615470e+00 -7.510000e+01
      vertex   -1.627749e-15 -7.615470e+00 -7.510000e+01
    endloop
  endfacet
  facet normal 0.000000e+00 -0.000000e+00 1.000000e+00
    outer loop
      vertex   -1.627749e-15 -7.615470e+00 -7.510000e+01
      vertex   -7.054542e-16 7.615470e+00 -7.510000e+01
      vertex   -6.595191e+00 3.807735e+00 -7.510000e+01
    endloop
  endfacet
  facet normal 0.000000e+00 0.000000e+00 1.000000e+00
    outer loop
      vertex   -1.627749e-15 -7.615470e+00 -7.510000e+01
      vertex   -6.595191e+00 3.807735e+00 -7.510000e+01
      vertex   -6.595191e+00 -3.807735e+00 -7.510000e+01
    endloop
  endfacet
  facet normal 5.000000e-01 -8.660254e-01 0.000000e+00
    outer loop
      vertex   -6.595191e+00 3.807735e+00 -7.510000e+01
      vertex   -7.054542e-16 7.615470e+00 -7.510000e+01
      vertex   -6.595191e+00 3.807735e+00 7.510000e+01
    endloop
  endfacet
  facet normal 5.000000e-01 -8.660254e-01 0.000000e+00
    outer loop
      vertex   -6.595191e+00 3.807735e+00 7.510000e+01
      vertex   -7.054542e-16 7.615470e+00 -7.510000e+01
      vertex   -7.083454e-16 7.615470e+00 7.510000e+01
    endloop
  endfacet
  facet normal -1.000000e+00 4.665127e-16 0.000000e+00
    outer loop
      vertex   6.595191e+00 3.807735e+00 -7.510000e+01
      vertex   6.595191e+00 -3.807735e+00 -7.510000e+01
      vertex   6.595191e+00 3.807735e+00 7.510000e+01
    endloop
  endfacet
  facet normal -1.000000e+00 4.665127e-16 0.000000e+00
    outer loop
      vertex   6.595191e+00 3.807735e+00 7.510000e+01
      vertex   6.595191e+00 -3.807735e+00 -7.510000e+01
      vertex   6.595191e+00 -3.807735e+00 7.510000e+01
    endloop
  endfacet
  facet normal -5.000000e-01 -8.660254e-01 -9.624520e-21
    outer loop
      vertex   -7.054542e-16 7.615470e+00 -7.510000e+01
      vertex   6.595191e+00 3.807735e+00 -7.510000e+01
      vertex   -7.083454e-16 7.615470e+00 7.510000e+01
    endloop
  endfacet
  facet normal -5.000000e-01 -8.660254e-01 0.000000e+00
    outer loop
      vertex   -7.083454e-16 7.615470e+00 7.510000e+01
      vertex   6.595191e+00 3.807735e+00 -7.510000e+01
      vertex   6.595191e+00 3.807735e+00 7.510000e+01
    endloop
  endfacet
  facet normal -5.000000e-01 8.660254e-01 0.000000e+00
    outer loop
      vertex   6.595191e+00 -3.807735e+00 -7.510000e+01
      vertex   -1.627749e-15 -7.615470e+00 -7.510000e+01
      vertex   6.595191e+00 -3.807735e+00 7.510000e+01
    endloop
  endfacet
  facet normal -5.000000e-01 8.660254e-01 0.000000e+00
    outer loop
      vertex   6.595191e+00 -3.807735e+00 7.510000e+01
      vertex   -1.627749e-15 -7.615470e+00 -7.510000e+01
      vertex   -1.627749e-15 -7.615470e+00 7.510000e+01
    endloop
  endfacet
  facet normal 5.000000e-01 8.660254e-01 -0.000000e+00
    outer loop
      vertex   -1.627749e-15 -7.615470e+00 -7.510000e+01
      vertex   -6.595191e+00 -3.807735e+00 -7.510000e+01
      vertex   -1.627749e-15 -7.615470e+00 7.510000e+01
    endloop
  endfacet
  facet normal 5.000000e-01 8.660254e-01 0.000000e+00
    outer loop
      vertex   -1.627749e-15 -7.615470e+00 7.510000e+01
      vertex   -6.595191e+00 -3.807735e+00 -7.510000e+01
      vertex   -6.595191e+00 -3.807735e+00 7.510000e+01
    endloop
  endfacet
  facet normal 1.000000e+00 0.000000e+00 0.000000e+00
    outer loop
      vertex   -6.595191e+00 -3.807735e+00 -7.510000e+01
      vertex   -6.595191e+00 3.807735e+00 -7.510000e+01
      vertex   -6.595191e+00 -3.807735e+00 7.510000e+01
    endloop
  endfacet
  facet normal 1.000000e+00 -0.000000e+00 0.000000e+00
    outer loop
      vertex   -6.595191e+00 -3.807735e+00 7.510000e+01
      vertex   -6.595191e+00 3.807735e+00 -7.510000e+01
      vertex   -6.595191e+00 3.807735e+00 7.510000e+01
    endloop
  endfacet
  facet normal 0.000000e+00 -1.000000e+00 0.000000e+00
    outer loop
      vertex   -4.386763e+00 4.568004e+00 7.510000e+01
      vertex   4.493237e+00 4.568004e+00 7.510000e+01
      vertex   -4.386763e+00 4.568004e+00 7.674000e+01
    endloop
  endfacet
  facet normal 0.000000e+00 -1.000000e+00 0.000000e+00
    outer loop
      vertex   -4.386763e+00 4.568004e+00 7.674000e+01
      vertex   4.493237e+00 4.568004e+00 7.510000e+01
      vertex   4.493237e+00 4.568004e+00 7.674000e+01
    endloop
  endfacet
  facet normal -0.000000e+00 0.000000e+00 -1.000000e+00
    outer loop
      vertex   4.493237e+00 -4.441996e+00 7.510000e+01
      vertex   -1.627749e-15 -7.615470e+00 7.510000e+01
      vertex   -4.386763e+00 -4.441996e+00 7.510000e+01
    endloop
  endfacet
  facet normal -0.000000e+00 -0.000000e+00 -1.000000e+00
    outer loop
      vertex   -4.386763e+00 -4.441996e+00 7.510000e+01
      vertex   -1.627749e-15 -7.615470e+00 7.510000e+01
      vertex   -6.595191e+00 -3.807735e+00 7.510000e+01
    endloop
  endfacet
  facet normal 0.000000e+00 0.000000e+00 -1.000000e+00
    outer loop
      vertex   -4.386763e+00 -4.441996e+00 7.510000e+01
      vertex   -6.595191e+00 -3.807735e+00 7.510000e+01
      vertex   -6.595191e+00 3.807735e+00 7.510000e+01
    endloop
  endfacet
  facet normal 0.000000e+00 0.000000e+00 -1.000000e+00
    outer loop
      vertex   4.493237e+00 4.568004e+00 7.510000e+01
      vertex   6.595191e+00 3.807735e+00 7.510000e+01
      vertex   4.493237e+00 -4.441996e+00 7.510000e+01
    endloop
  endfacet
  facet normal 0.000000e+00 0.000000e+00 -1.000000e+00
    outer loop
      vertex   4.493237e+00 -4.441996e+00 7.510000e+01
      vertex   6.595191e+00 3.807735e+00 7.510000e+01
      vertex   6.595191e+00 -3.807735e+00 7.510000e+01
    endloop
  endfacet
  facet normal 0.000000e+00 -0.000000e+00 -1.000000e+00
    outer loop
      vertex   4.493237e+00 -4.441996e+00 7.510000e+01
      vertex   6.595191e+00 -3.807735e+00 7.510000e+01
      vertex   -1.627749e-15 -7.615470e+00 7.510000e+01
    endloop
  endfacet
  facet normal 0.000000e+00 0.000000e+00 -1.000000e+00
    outer loop
      vertex   6.595191e+00 3.807735e+00 7.510000e+01
      vertex   4.493237e+00 4.568004e+00 7.510000e+01
      vertex   -7.083454e-16 7.615470e+00 7.510000e+01
    endloop
  endfacet
  facet normal 0.000000e+00 -0.000000e+00 -1.000000e+00
    outer loop
      vertex   -7.083454e-16 7.615470e+00 7.510000e+01
      vertex   4.493237e+00 4.568004e+00 7.510000e+01
      vertex   -4.386763e+00 4.568004e+00 7.510000e+01
    endloop
  endfacet
  facet normal 0.000000e+00 0.000000e+00 -1.000000e+00
    outer loop
      vertex   -7.083454e-16 7.615470e+00 7.510000e+01
      vertex   -4.386763e+00 4.568004e+00 7.510000e+01
      vertex   -6.595191e+00 3.807735e+00 7.510000e+01
    endloop
  endfacet
  facet normal 0.000000e+00 0.000000e+00 -1.000000e+00
    outer loop
      vertex   -6.595191e+00 3.807735e+00 7.510000e+01
      vertex   -4.386763e+00 4.568004e+00 7.510000e+01
      vertex   -4.386763e+00 -4.441996e+00 7.510000e+01
    endloop
  endfacet
  facet normal 0.000000e+00 0.000000e+00 -1.000000e+00
    outer loop
      vertex   4.493237e+00 -4.441996e+00 7.674000e+01
      vertex   -4.386763e+00 -4.441996e+00 7.674000e+01
      vertex   4.493237e+00 4.568004e+00 7.674000e+01
    endloop
  endfacet
  facet normal -0.000000e+00 0.000000e+00 -1.000000e+00
    outer loop
      vertex   4.493237e+00 4.568004e+00 7.674000e+01
      vertex   -4.386763e+00 -4.441996e+00 7.674000e+01
      vertex   -4.386763e+00 4.568004e+00 7.674000e+01
    endloop
  endfacet
  facet normal -1.000000e+00 0.000000e+00 0.000000e+00
    outer loop
      vertex   4.493237e+00 4.568004e+00 7.510000e+01
      vertex   4.493237e+00 -4.441996e+00 7.510000e+01
      vertex   4.493237e+00 4.568004e+00 7.674000e+01
    endloop
  endfacet
  facet normal -1.000000e+00 -0.000000e+00 0.000000e+00
    outer loop
      vertex   4.493237e+00 4.568004e+00 7.674000e+01
      vertex   4.493237e+00 -4.441996e+00 7.510000e+01
      vertex   4.493237e+00 -4.441996e+00 7.674000e+01
    endloop
  endfacet
  facet normal 1.000000e+00 0.000000e+00 0.000000e+00
    outer loop
      vertex   -4.386763e+00 4.568004e+00 7.674000e+01
      vertex   -4.386763e+00 -4.441996e+00 7.674000e+01
      vertex   -4.386763e+00 4.568004e+00 7.510000e+01
    endloop
  endfacet
  facet normal 1.000000e+00 0.000000e+00 0.000000e+00
    outer loop
      vertex   -4.386763e+00 4.568004e+00 7.510000e+01
      vertex   -4.386763e+00 -4.441996e+00 7.674000e+01
      vertex   -4.386763e+00 -4.441996e+00 7.510000e+01
    endloop
  endfacet
  facet normal -0.000000e+00 1.000000e+00 0.000000e+00
    outer loop
      vertex   -4.386763e+00 -4.441996e+00 7.674000e+01
      vertex   4.493237e+00 -4.441996e+00 7.674000e+01
      vertex   -4.386763e+00 -4.441996e+00 7.510000e+01
    endloop
  endfacet
  facet normal 0.000000e+00 1.000000e+00 0.000000e+00
    outer loop
      vertex   -4.386763e+00 -4.441996e+00 7.510000e+01
      vertex   4.493237e+00 -4.441996e+00 7.674000e+01
      vertex   4.493237e+00 -4.441996e+00 7.510000e+01
    endloop
  endfacet
endsolid
