solid ASCII
  facet normal -1.000000e+00 0.000000e+00 0.000000e+00
    outer loop
      vertex   -4.336763e+00 -4.391996e+00 7.669000e+01
      vertex   -4.336763e+00 4.518004e+00 7.669000e+01
      vertex   -4.336763e+00 -4.391996e+00 7.505000e+01
    endloop
  endfacet
  facet normal -1.000000e+00 0.000000e+00 0.000000e+00
    outer loop
      vertex   -4.336763e+00 -4.391996e+00 7.505000e+01
      vertex   -4.336763e+00 4.518004e+00 7.669000e+01
      vertex   -4.336763e+00 4.518004e+00 7.505000e+01
    endloop
  endfacet
  facet normal 0.000000e+00 1.000000e+00 -0.000000e+00
    outer loop
      vertex   4.443237e+00 4.518004e+00 7.505000e+01
      vertex   -4.336763e+00 4.518004e+00 7.505000e+01
      vertex   4.443237e+00 4.518004e+00 7.669000e+01
    endloop
  endfacet
  facet normal 0.000000e+00 1.000000e+00 0.000000e+00
    outer loop
      vertex   4.443237e+00 4.518004e+00 7.669000e+01
      vertex   -4.336763e+00 4.518004e+00 7.505000e+01
      vertex   -4.336763e+00 4.518004e+00 7.669000e+01
    endloop
  endfacet
  facet normal 0.000000e+00 0.000000e+00 1.000000e+00
    outer loop
      vertex   -4.336763e+00 -4.391996e+00 7.669000e+01
      vertex   4.443237e+00 -4.391996e+00 7.669000e+01
      vertex   -4.336763e+00 4.518004e+00 7.669000e+01
    endloop
  endfacet
  facet normal -0.000000e+00 0.000000e+00 1.000000e+00
    outer loop
      vertex   -4.336763e+00 4.518004e+00 7.669000e+01
      vertex   4.443237e+00 -4.391996e+00 7.669000e+01
      vertex   4.443237e+00 4.518004e+00 7.669000e+01
    endloop
  endfacet
  facet normal -0.000000e+00 -1.000000e+00 -0.000000e+00
    outer loop
      vertex   4.443237e+00 -4.391996e+00 7.669000e+01
      vertex   -4.336763e+00 -4.391996e+00 7.669000e+01
      vertex   4.443237e+00 -4.391996e+00 7.505000e+01
    endloop
  endfacet
  facet normal 0.000000e+00 -1.000000e+00 0.000000e+00
    outer loop
      vertex   4.443237e+00 -4.391996e+00 7.505000e+01
      vertex   -4.336763e+00 -4.391996e+00 7.669000e+01
      vertex   -4.336763e+00 -4.391996e+00 7.505000e+01
    endloop
  endfacet
  facet normal -0.000000e+00 0.000000e+00 1.000000e+00
    outer loop
      vertex   -4.336763e+00 -4.391996e+00 7.505000e+01
      vertex   -2.427167e-15 -7.557735e+00 7.505000e+01
      vertex   4.443237e+00 -4.391996e+00 7.505000e+01
    endloop
  endfacet
  facet normal -0.000000e+00 0.000000e+00 1.000000e+00
    outer loop
      vertex   4.443237e+00 -4.391996e+00 7.505000e+01
      vertex   -2.427167e-15 -7.557735e+00 7.505000e+01
      vertex   6.545191e+00 -3.778868e+00 7.505000e+01
    endloop
  endfacet
  facet normal 0.000000e+00 0.000000e+00 1.000000e+00
    outer loop
      vertex   4.443237e+00 -4.391996e+00 7.505000e+01
      vertex   6.545191e+00 -3.778868e+00 7.505000e+01
      vertex   6.545191e+00 3.778868e+00 7.505000e+01
    endloop
  endfacet
  facet normal 0.000000e+00 0.000000e+00 1.000000e+00
    outer loop
      vertex   -4.336763e+00 4.518004e+00 7.505000e+01
      vertex   -6.545191e+00 3.778868e+00 7.505000e+01
      vertex   -4.336763e+00 -4.391996e+00 7.505000e+01
    endloop
  endfacet
  facet normal 0.000000e+00 0.000000e+00 1.000000e+00
    outer loop
      vertex   -4.336763e+00 -4.391996e+00 7.505000e+01
      vertex   -6.545191e+00 3.778868e+00 7.505000e+01
      vertex   -6.545191e+00 -3.778868e+00 7.505000e+01
    endloop
  endfacet
  facet normal 0.000000e+00 0.000000e+00 1.000000e+00
    outer loop
      vertex   -4.336763e+00 -4.391996e+00 7.505000e+01
      vertex   -6.545191e+00 -3.778868e+00 7.505000e+01
      vertex   -2.427167e-15 -7.557735e+00 7.505000e+01
    endloop
  endfacet
  facet normal 0.000000e+00 0.000000e+00 1.000000e+00
    outer loop
      vertex   -6.545191e+00 3.778868e+00 7.505000e+01
      vertex   -4.336763e+00 4.518004e+00 7.505000e+01
      vertex   -9.078386e-16 7.557735e+00 7.505000e+01
    endloop
  endfacet
  facet normal 0.000000e+00 0.000000e+00 1.000000e+00
    outer loop
      vertex   -9.078386e-16 7.557735e+00 7.505000e+01
      vertex   -4.336763e+00 4.518004e+00 7.505000e+01
      vertex   4.443237e+00 4.518004e+00 7.505000e+01
    endloop
  endfacet
  facet normal 0.000000e+00 0.000000e+00 1.000000e+00
    outer loop
      vertex   -9.078386e-16 7.557735e+00 7.505000e+01
      vertex   4.443237e+00 4.518004e+00 7.505000e+01
      vertex   6.545191e+00 3.778868e+00 7.505000e+01
    endloop
  endfacet
  facet normal 0.000000e+00 0.000000e+00 1.000000e+00
    outer loop
      vertex   6.545191e+00 3.778868e+00 7.505000e+01
      vertex   4.443237e+00 4.518004e+00 7.505000e+01
      vertex   4.443237e+00 -4.391996e+00 7.505000e+01
    endloop
  endfacet
  facet normal 1.000000e+00 0.000000e+00 0.000000e+00
    outer loop
      vertex   4.443237e+00 -4.391996e+00 7.505000e+01
      vertex   4.443237e+00 4.518004e+00 7.505000e+01
      vertex   4.443237e+00 -4.391996e+00 7.669000e+01
    endloop
  endfacet
  facet normal 1.000000e+00 -0.000000e+00 0.000000e+00
    outer loop
      vertex   4.443237e+00 -4.391996e+00 7.669000e+01
      vertex   4.443237e+00 4.518004e+00 7.505000e+01
      vertex   4.443237e+00 4.518004e+00 7.669000e+01
    endloop
  endfacet
  facet normal -1.000000e+00 1.175191e-16 3.550347e-17
    outer loop
      vertex   -6.545191e+00 3.778868e+00 -7.505000e+01
      vertex   -6.545191e+00 -3.778868e+00 -7.505000e+01
      vertex   -6.545191e+00 3.778868e+00 -5.003333e+01
    endloop
  endfacet
  facet normal -1.000000e+00 4.700765e-16 -7.100694e-17
    outer loop
      vertex   -6.545191e+00 3.778868e+00 -5.003333e+01
      vertex   -6.545191e+00 -3.778868e+00 -7.505000e+01
      vertex   -6.545191e+00 -3.778868e+00 -5.003333e+01
    endloop
  endfacet
  facet normal -1.000000e+00 4.700765e-16 0.000000e+00
    outer loop
      vertex   -6.545191e+00 3.778868e+00 -5.003333e+01
      vertex   -6.545191e+00 -3.778868e+00 -5.003333e+01
      vertex   -6.545191e+00 -3.778868e+00 -2.501667e+01
    endloop
  endfacet
  facet normal -1.000000e+00 4.700765e-16 0.000000e+00
    outer loop
      vertex   -6.545191e+00 3.778868e+00 -5.003333e+01
      vertex   -6.545191e+00 -3.778868e+00 -2.501667e+01
      vertex   -6.545191e+00 3.778868e+00 -2.501667e+01
    endloop
  endfacet
  facet normal -1.000000e+00 4.700765e-16 0.000000e+00
    outer loop
      vertex   -6.545191e+00 3.778868e+00 -2.501667e+01
      vertex   -6.545191e+00 -3.778868e+00 -2.501667e+01
      vertex   -6.545191e+00 -3.778868e+00 -8.881784e-15
    endloop
  endfacet
  facet normal -1.000000e+00 4.700765e-16 0.000000e+00
    outer loop
      vertex   -6.545191e+00 3.778868e+00 -2.501667e+01
      vertex   -6.545191e+00 -3.778868e+00 -8.881784e-15
      vertex   -6.545191e+00 3.778868e+00 -8.881784e-15
    endloop
  endfacet
  facet normal -1.000000e+00 4.700765e-16 0.000000e+00
    outer loop
      vertex   -6.545191e+00 3.778868e+00 -8.881784e-15
      vertex   -6.545191e+00 -3.778868e+00 -8.881784e-15
      vertex   -6.545191e+00 -3.778868e+00 2.501667e+01
    endloop
  endfacet
  facet normal -1.000000e+00 4.700765e-16 0.000000e+00
    outer loop
      vertex   -6.545191e+00 3.778868e+00 -8.881784e-15
      vertex   -6.545191e+00 -3.778868e+00 2.501667e+01
      vertex   -6.545191e+00 3.778868e+00 2.501667e+01
    endloop
  endfacet
  facet normal -1.000000e+00 4.700765e-16 0.000000e+00
    outer loop
      vertex   -6.545191e+00 3.778868e+00 2.501667e+01
      vertex   -6.545191e+00 -3.778868e+00 2.501667e+01
      vertex   -6.545191e+00 -3.778868e+00 5.003333e+01
    endloop
  endfacet
  facet normal -1.000000e+00 4.700765e-16 0.000000e+00
    outer loop
      vertex   -6.545191e+00 3.778868e+00 2.501667e+01
      vertex   -6.545191e+00 -3.778868e+00 5.003333e+01
      vertex   -6.545191e+00 3.778868e+00 5.003333e+01
    endloop
  endfacet
  facet normal -1.000000e+00 4.700765e-16 -3.550347e-17
    outer loop
      vertex   -6.545191e+00 3.778868e+00 5.003333e+01
      vertex   -6.545191e+00 -3.778868e+00 5.003333e+01
      vertex   -6.545191e+00 3.778868e+00 7.505000e+01
    endloop
  endfacet
  facet normal -1.000000e+00 1.175191e-16 7.100694e-17
    outer loop
      vertex   -6.545191e+00 3.778868e+00 7.505000e+01
      vertex   -6.545191e+00 -3.778868e+00 5.003333e+01
      vertex   -6.545191e+00 -3.778868e+00 7.505000e+01
    endloop
  endfacet
  facet normal -5.000000e-01 -8.660254e-01 1.061689e-17
    outer loop
      vertex   -6.545191e+00 -3.778868e+00 -7.505000e+01
      vertex   -2.425722e-15 -7.557735e+00 -7.505000e+01
      vertex   -6.545191e+00 -3.778868e+00 -5.003333e+01
    endloop
  endfacet
  facet normal -5.000000e-01 -8.660254e-01 -9.395267e-17
    outer loop
      vertex   -6.545191e+00 -3.778868e+00 -5.003333e+01
      vertex   -2.425722e-15 -7.557735e+00 -7.505000e+01
      vertex   -4.440892e-15 -7.557735e+00 -5.003333e+01
    endloop
  endfacet
  facet normal -5.000000e-01 -8.660254e-01 0.000000e+00
    outer loop
      vertex   -6.545191e+00 -3.778868e+00 -5.003333e+01
      vertex   -4.440892e-15 -7.557735e+00 -5.003333e+01
      vertex   -4.440892e-15 -7.557735e+00 -2.501667e+01
    endloop
  endfacet
  facet normal -5.000000e-01 -8.660254e-01 0.000000e+00
    outer loop
      vertex   -6.545191e+00 -3.778868e+00 -5.003333e+01
      vertex   -4.440892e-15 -7.557735e+00 -2.501667e+01
      vertex   -6.545191e+00 -3.778868e+00 -2.501667e+01
    endloop
  endfacet
  facet normal -5.000000e-01 -8.660254e-01 0.000000e+00
    outer loop
      vertex   -6.545191e+00 -3.778868e+00 -2.501667e+01
      vertex   -4.440892e-15 -7.557735e+00 -2.501667e+01
      vertex   -4.440892e-15 -7.557735e+00 -8.881784e-15
    endloop
  endfacet
  facet normal -5.000000e-01 -8.660254e-01 0.000000e+00
    outer loop
      vertex   -6.545191e+00 -3.778868e+00 -2.501667e+01
      vertex   -4.440892e-15 -7.557735e+00 -8.881784e-15
      vertex   -6.545191e+00 -3.778868e+00 -8.881784e-15
    endloop
  endfacet
  facet normal -5.000000e-01 -8.660254e-01 0.000000e+00
    outer loop
      vertex   -6.545191e+00 -3.778868e+00 -8.881784e-15
      vertex   -4.440892e-15 -7.557735e+00 -8.881784e-15
      vertex   -4.440892e-15 -7.557735e+00 2.501667e+01
    endloop
  endfacet
  facet normal -5.000000e-01 -8.660254e-01 0.000000e+00
    outer loop
      vertex   -6.545191e+00 -3.778868e+00 -8.881784e-15
      vertex   -4.440892e-15 -7.557735e+00 2.501667e+01
      vertex   -6.545191e+00 -3.778868e+00 2.501667e+01
    endloop
  endfacet
  facet normal -5.000000e-01 -8.660254e-01 0.000000e+00
    outer loop
      vertex   -6.545191e+00 -3.778868e+00 2.501667e+01
      vertex   -4.440892e-15 -7.557735e+00 2.501667e+01
      vertex   -4.440892e-15 -7.557735e+00 5.003333e+01
    endloop
  endfacet
  facet normal -5.000000e-01 -8.660254e-01 0.000000e+00
    outer loop
      vertex   -6.545191e+00 -3.778868e+00 2.501667e+01
      vertex   -4.440892e-15 -7.557735e+00 5.003333e+01
      vertex   -6.545191e+00 -3.778868e+00 5.003333e+01
    endloop
  endfacet
  facet normal -5.000000e-01 -8.660254e-01 -1.061689e-17
    outer loop
      vertex   -6.545191e+00 -3.778868e+00 5.003333e+01
      vertex   -4.440892e-15 -7.557735e+00 5.003333e+01
      vertex   -6.545191e+00 -3.778868e+00 7.505000e+01
    endloop
  endfacet
  facet normal -5.000000e-01 -8.660254e-01 9.395267e-17
    outer loop
      vertex   -6.545191e+00 -3.778868e+00 7.505000e+01
      vertex   -4.440892e-15 -7.557735e+00 5.003333e+01
      vertex   -2.427167e-15 -7.557735e+00 7.505000e+01
    endloop
  endfacet
  facet normal 5.000000e-01 -8.660254e-01 -2.121725e-17
    outer loop
      vertex   -2.425722e-15 -7.557735e+00 -7.505000e+01
      vertex   6.545191e+00 -3.778868e+00 -7.505000e+01
      vertex   -4.440892e-15 -7.557735e+00 -5.003333e+01
    endloop
  endfacet
  facet normal 5.000000e-01 -8.660254e-01 0.000000e+00
    outer loop
      vertex   -4.440892e-15 -7.557735e+00 -5.003333e+01
      vertex   6.545191e+00 -3.778868e+00 -7.505000e+01
      vertex   6.545191e+00 -3.778868e+00 -5.003333e+01
    endloop
  endfacet
  facet normal 5.000000e-01 -8.660254e-01 0.000000e+00
    outer loop
      vertex   -4.440892e-15 -7.557735e+00 -5.003333e+01
      vertex   6.545191e+00 -3.778868e+00 -5.003333e+01
      vertex   6.545191e+00 -3.778868e+00 -2.501667e+01
    endloop
  endfacet
  facet normal 5.000000e-01 -8.660254e-01 0.000000e+00
    outer loop
      vertex   -4.440892e-15 -7.557735e+00 -5.003333e+01
      vertex   6.545191e+00 -3.778868e+00 -2.501667e+01
      vertex   -4.440892e-15 -7.557735e+00 -2.501667e+01
    endloop
  endfacet
  facet normal 5.000000e-01 -8.660254e-01 0.000000e+00
    outer loop
      vertex   -4.440892e-15 -7.557735e+00 -2.501667e+01
      vertex   6.545191e+00 -3.778868e+00 -2.501667e+01
      vertex   6.545191e+00 -3.778868e+00 -8.881784e-15
    endloop
  endfacet
  facet normal 5.000000e-01 -8.660254e-01 0.000000e+00
    outer loop
      vertex   -4.440892e-15 -7.557735e+00 -2.501667e+01
      vertex   6.545191e+00 -3.778868e+00 -8.881784e-15
      vertex   -4.440892e-15 -7.557735e+00 -8.881784e-15
    endloop
  endfacet
  facet normal 5.000000e-01 -8.660254e-01 0.000000e+00
    outer loop
      vertex   -4.440892e-15 -7.557735e+00 -8.881784e-15
      vertex   6.545191e+00 -3.778868e+00 -8.881784e-15
      vertex   6.545191e+00 -3.778868e+00 2.501667e+01
    endloop
  endfacet
  facet normal 5.000000e-01 -8.660254e-01 0.000000e+00
    outer loop
      vertex   -4.440892e-15 -7.557735e+00 -8.881784e-15
      vertex   6.545191e+00 -3.778868e+00 2.501667e+01
      vertex   -4.440892e-15 -7.557735e+00 2.501667e+01
    endloop
  endfacet
  facet normal 5.000000e-01 -8.660254e-01 0.000000e+00
    outer loop
      vertex   -4.440892e-15 -7.557735e+00 2.501667e+01
      vertex   6.545191e+00 -3.778868e+00 2.501667e+01
      vertex   6.545191e+00 -3.778868e+00 5.003333e+01
    endloop
  endfacet
  facet normal 5.000000e-01 -8.660254e-01 0.000000e+00
    outer loop
      vertex   -4.440892e-15 -7.557735e+00 2.501667e+01
      vertex   6.545191e+00 -3.778868e+00 5.003333e+01
      vertex   -4.440892e-15 -7.557735e+00 5.003333e+01
    endloop
  endfacet
  facet normal 5.000000e-01 -8.660254e-01 2.124615e-17
    outer loop
      vertex   -4.440892e-15 -7.557735e+00 5.003333e+01
      vertex   6.545191e+00 -3.778868e+00 5.003333e+01
      vertex   -2.427167e-15 -7.557735e+00 7.505000e+01
    endloop
  endfacet
  facet normal 5.000000e-01 -8.660254e-01 0.000000e+00
    outer loop
      vertex   -2.427167e-15 -7.557735e+00 7.505000e+01
      vertex   6.545191e+00 -3.778868e+00 5.003333e+01
      vertex   6.545191e+00 -3.778868e+00 7.505000e+01
    endloop
  endfacet
  facet normal 5.000000e-01 8.660254e-01 -5.087692e-17
    outer loop
      vertex   6.545191e+00 3.778868e+00 -7.505000e+01
      vertex   -9.078386e-16 7.557735e+00 -7.505000e+01
      vertex   6.545191e+00 3.778868e+00 -5.003333e+01
    endloop
  endfacet
  facet normal 5.000000e-01 8.660254e-01 0.000000e+00
    outer loop
      vertex   6.545191e+00 3.778868e+00 -5.003333e+01
      vertex   -9.078386e-16 7.557735e+00 -7.505000e+01
      vertex   -1.110223e-15 7.557735e+00 -5.003333e+01
    endloop
  endfacet
  facet normal 5.000000e-01 8.660254e-01 0.000000e+00
    outer loop
      vertex   6.545191e+00 3.778868e+00 -5.003333e+01
      vertex   -1.110223e-15 7.557735e+00 -5.003333e+01
      vertex   -1.110223e-15 7.557735e+00 -2.501667e+01
    endloop
  endfacet
  facet normal 5.000000e-01 8.660254e-01 -0.000000e+00
    outer loop
      vertex   6.545191e+00 3.778868e+00 -5.003333e+01
      vertex   -1.110223e-15 7.557735e+00 -2.501667e+01
      vertex   6.545191e+00 3.778868e+00 -2.501667e+01
    endloop
  endfacet
  facet normal 5.000000e-01 8.660254e-01 0.000000e+00
    outer loop
      vertex   6.545191e+00 3.778868e+00 -2.501667e+01
      vertex   -1.110223e-15 7.557735e+00 -2.501667e+01
      vertex   -1.110223e-15 7.557735e+00 -8.881784e-15
    endloop
  endfacet
  facet normal 5.000000e-01 8.660254e-01 -0.000000e+00
    outer loop
      vertex   6.545191e+00 3.778868e+00 -2.501667e+01
      vertex   -1.110223e-15 7.557735e+00 -8.881784e-15
      vertex   6.545191e+00 3.778868e+00 8.881784e-15
    endloop
  endfacet
  facet normal 5.000000e-01 8.660254e-01 0.000000e+00
    outer loop
      vertex   6.545191e+00 3.778868e+00 8.881784e-15
      vertex   -1.110223e-15 7.557735e+00 -8.881784e-15
      vertex   -1.110223e-15 7.557735e+00 2.501667e+01
    endloop
  endfacet
  facet normal 5.000000e-01 8.660254e-01 -0.000000e+00
    outer loop
      vertex   6.545191e+00 3.778868e+00 8.881784e-15
      vertex   -1.110223e-15 7.557735e+00 2.501667e+01
      vertex   6.545191e+00 3.778868e+00 2.501667e+01
    endloop
  endfacet
  facet normal 5.000000e-01 8.660254e-01 0.000000e+00
    outer loop
      vertex   6.545191e+00 3.778868e+00 2.501667e+01
      vertex   -1.110223e-15 7.557735e+00 2.501667e+01
      vertex   -1.110223e-15 7.557735e+00 5.003333e+01
    endloop
  endfacet
  facet normal 5.000000e-01 8.660254e-01 -0.000000e+00
    outer loop
      vertex   6.545191e+00 3.778868e+00 2.501667e+01
      vertex   -1.110223e-15 7.557735e+00 5.003333e+01
      vertex   6.545191e+00 3.778868e+00 5.003333e+01
    endloop
  endfacet
  facet normal 5.000000e-01 8.660254e-01 5.087692e-17
    outer loop
      vertex   6.545191e+00 3.778868e+00 5.003333e+01
      vertex   -1.110223e-15 7.557735e+00 5.003333e+01
      vertex   6.545191e+00 3.778868e+00 7.505000e+01
    endloop
  endfacet
  facet normal 5.000000e-01 8.660254e-01 0.000000e+00
    outer loop
      vertex   6.545191e+00 3.778868e+00 7.505000e+01
      vertex   -1.110223e-15 7.557735e+00 5.003333e+01
      vertex   -9.078386e-16 7.557735e+00 7.505000e+01
    endloop
  endfacet
  facet normal 1.000000e+00 -2.350383e-16 0.000000e+00
    outer loop
      vertex   6.545191e+00 -3.778868e+00 -7.505000e+01
      vertex   6.545191e+00 3.778868e+00 -7.505000e+01
      vertex   6.545191e+00 -3.778868e+00 -5.003333e+01
    endloop
  endfacet
  facet normal 1.000000e+00 -4.700765e-16 -7.100694e-17
    outer loop
      vertex   6.545191e+00 -3.778868e+00 -5.003333e+01
      vertex   6.545191e+00 3.778868e+00 -7.505000e+01
      vertex   6.545191e+00 3.778868e+00 -5.003333e+01
    endloop
  endfacet
  facet normal 1.000000e+00 -4.700765e-16 0.000000e+00
    outer loop
      vertex   6.545191e+00 -3.778868e+00 -5.003333e+01
      vertex   6.545191e+00 3.778868e+00 -5.003333e+01
      vertex   6.545191e+00 3.778868e+00 -2.501667e+01
    endloop
  endfacet
  facet normal 1.000000e+00 -4.700765e-16 0.000000e+00
    outer loop
      vertex   6.545191e+00 -3.778868e+00 -5.003333e+01
      vertex   6.545191e+00 3.778868e+00 -2.501667e+01
      vertex   6.545191e+00 -3.778868e+00 -2.501667e+01
    endloop
  endfacet
  facet normal 1.000000e+00 -4.700765e-16 0.000000e+00
    outer loop
      vertex   6.545191e+00 -3.778868e+00 -2.501667e+01
      vertex   6.545191e+00 3.778868e+00 -2.501667e+01
      vertex   6.545191e+00 3.778868e+00 8.881784e-15
    endloop
  endfacet
  facet normal 1.000000e+00 -4.700765e-16 0.000000e+00
    outer loop
      vertex   6.545191e+00 -3.778868e+00 -2.501667e+01
      vertex   6.545191e+00 3.778868e+00 8.881784e-15
      vertex   6.545191e+00 -3.778868e+00 -8.881784e-15
    endloop
  endfacet
  facet normal 1.000000e+00 -4.700765e-16 0.000000e+00
    outer loop
      vertex   6.545191e+00 -3.778868e+00 -8.881784e-15
      vertex   6.545191e+00 3.778868e+00 8.881784e-15
      vertex   6.545191e+00 3.778868e+00 2.501667e+01
    endloop
  endfacet
  facet normal 1.000000e+00 -4.700765e-16 0.000000e+00
    outer loop
      vertex   6.545191e+00 -3.778868e+00 -8.881784e-15
      vertex   6.545191e+00 3.778868e+00 2.501667e+01
      vertex   6.545191e+00 -3.778868e+00 2.501667e+01
    endloop
  endfacet
  facet normal 1.000000e+00 -4.700765e-16 0.000000e+00
    outer loop
      vertex   6.545191e+00 -3.778868e+00 2.501667e+01
      vertex   6.545191e+00 3.778868e+00 2.501667e+01
      vertex   6.545191e+00 3.778868e+00 5.003333e+01
    endloop
  endfacet
  facet normal 1.000000e+00 -4.700765e-16 0.000000e+00
    outer loop
      vertex   6.545191e+00 -3.778868e+00 2.501667e+01
      vertex   6.545191e+00 3.778868e+00 5.003333e+01
      vertex   6.545191e+00 -3.778868e+00 5.003333e+01
    endloop
  endfacet
  facet normal 1.000000e+00 -4.700765e-16 0.000000e+00
    outer loop
      vertex   6.545191e+00 -3.778868e+00 5.003333e+01
      vertex   6.545191e+00 3.778868e+00 5.003333e+01
      vertex   6.545191e+00 -3.778868e+00 7.505000e+01
    endloop
  endfacet
  facet normal 1.000000e+00 -2.350383e-16 7.100694e-17
    outer loop
      vertex   6.545191e+00 -3.778868e+00 7.505000e+01
      vertex   6.545191e+00 3.778868e+00 5.003333e+01
      vertex   6.545191e+00 3.778868e+00 7.505000e+01
    endloop
  endfacet
  facet normal -5.000000e-01 8.660254e-01 -4.044991e-18
    outer loop
      vertex   -9.078386e-16 7.557735e+00 -7.505000e+01
      vertex   -6.545191e+00 3.778868e+00 -7.505000e+01
      vertex   -1.110223e-15 7.557735e+00 -5.003333e+01
    endloop
  endfacet
  facet normal -5.000000e-01 8.660254e-01 -1.879053e-17
    outer loop
      vertex   -1.110223e-15 7.557735e+00 -5.003333e+01
      vertex   -6.545191e+00 3.778868e+00 -7.505000e+01
      vertex   -6.545191e+00 3.778868e+00 -5.003333e+01
    endloop
  endfacet
  facet normal -5.000000e-01 8.660254e-01 0.000000e+00
    outer loop
      vertex   -1.110223e-15 7.557735e+00 -5.003333e+01
      vertex   -6.545191e+00 3.778868e+00 -5.003333e+01
      vertex   -6.545191e+00 3.778868e+00 -2.501667e+01
    endloop
  endfacet
  facet normal -5.000000e-01 8.660254e-01 0.000000e+00
    outer loop
      vertex   -1.110223e-15 7.557735e+00 -5.003333e+01
      vertex   -6.545191e+00 3.778868e+00 -2.501667e+01
      vertex   -1.110223e-15 7.557735e+00 -2.501667e+01
    endloop
  endfacet
  facet normal -5.000000e-01 8.660254e-01 0.000000e+00
    outer loop
      vertex   -1.110223e-15 7.557735e+00 -2.501667e+01
      vertex   -6.545191e+00 3.778868e+00 -2.501667e+01
      vertex   -6.545191e+00 3.778868e+00 -8.881784e-15
    endloop
  endfacet
  facet normal -5.000000e-01 8.660254e-01 0.000000e+00
    outer loop
      vertex   -1.110223e-15 7.557735e+00 -2.501667e+01
      vertex   -6.545191e+00 3.778868e+00 -8.881784e-15
      vertex   -1.110223e-15 7.557735e+00 -8.881784e-15
    endloop
  endfacet
  facet normal -5.000000e-01 8.660254e-01 0.000000e+00
    outer loop
      vertex   -1.110223e-15 7.557735e+00 -8.881784e-15
      vertex   -6.545191e+00 3.778868e+00 -8.881784e-15
      vertex   -6.545191e+00 3.778868e+00 2.501667e+01
    endloop
  endfacet
  facet normal -5.000000e-01 8.660254e-01 0.000000e+00
    outer loop
      vertex   -1.110223e-15 7.557735e+00 -8.881784e-15
      vertex   -6.545191e+00 3.778868e+00 2.501667e+01
      vertex   -1.110223e-15 7.557735e+00 2.501667e+01
    endloop
  endfacet
  facet normal -5.000000e-01 8.660254e-01 0.000000e+00
    outer loop
      vertex   -1.110223e-15 7.557735e+00 2.501667e+01
      vertex   -6.545191e+00 3.778868e+00 2.501667e+01
      vertex   -6.545191e+00 3.778868e+00 5.003333e+01
    endloop
  endfacet
  facet normal -5.000000e-01 8.660254e-01 0.000000e+00
    outer loop
      vertex   -1.110223e-15 7.557735e+00 2.501667e+01
      vertex   -6.545191e+00 3.778868e+00 5.003333e+01
      vertex   -1.110223e-15 7.557735e+00 5.003333e+01
    endloop
  endfacet
  facet normal -5.000000e-01 8.660254e-01 4.044991e-18
    outer loop
      vertex   -1.110223e-15 7.557735e+00 5.003333e+01
      vertex   -6.545191e+00 3.778868e+00 5.003333e+01
      vertex   -9.078386e-16 7.557735e+00 7.505000e+01
    endloop
  endfacet
  facet normal -5.000000e-01 8.660254e-01 1.879053e-17
    outer loop
      vertex   -9.078386e-16 7.557735e+00 7.505000e+01
      vertex   -6.545191e+00 3.778868e+00 5.003333e+01
      vertex   -6.545191e+00 3.778868e+00 7.505000e+01
    endloop
  endfacet
  facet normal -0.000000e+00 0.000000e+00 -1.000000e+00
    outer loop
      vertex   6.545191e+00 3.778868e+00 -7.505000e+01
      vertex   -2.425722e-15 -7.557735e+00 -7.505000e+01
      vertex   -9.078386e-16 7.557735e+00 -7.505000e+01
    endloop
  endfacet
  facet normal 0.000000e+00 0.000000e+00 -1.000000e+00
    outer loop
      vertex   -9.078386e-16 7.557735e+00 -7.505000e+01
      vertex   -2.425722e-15 -7.557735e+00 -7.505000e+01
      vertex   -6.545191e+00 -3.778868e+00 -7.505000e+01
    endloop
  endfacet
  facet normal 0.000000e+00 0.000000e+00 -1.000000e+00
    outer loop
      vertex   -9.078386e-16 7.557735e+00 -7.505000e+01
      vertex   -6.545191e+00 -3.778868e+00 -7.505000e+01
      vertex   -6.545191e+00 3.778868e+00 -7.505000e+01
    endloop
  endfacet
  facet normal 0.000000e+00 0.000000e+00 -1.000000e+00
    outer loop
      vertex   6.545191e+00 3.778868e+00 -7.505000e+01
      vertex   6.545191e+00 -3.778868e+00 -7.505000e+01
      vertex   -2.425722e-15 -7.557735e+00 -7.505000e+01
    endloop
  endfacet
  facet normal 1.000000e+00 -1.008148e-16 -5.415722e-16
    outer loop
      vertex   -4.286763e+00 4.468004e+00 7.664000e+01
      vertex   -4.286763e+00 -4.341996e+00 7.664000e+01
      vertex   -4.286763e+00 4.468004e+00 7.500000e+01
    endloop
  endfacet
  facet normal 1.000000e+00 0.000000e+00 0.000000e+00
    outer loop
      vertex   -4.286763e+00 4.468004e+00 7.500000e+01
      vertex   -4.286763e+00 -4.341996e+00 7.664000e+01
      vertex   -4.286763e+00 -4.341996e+00 7.500000e+01
    endloop
  endfacet
  facet normal 0.000000e+00 -1.000000e+00 0.000000e+00
    outer loop
      vertex   -4.286763e+00 4.468004e+00 7.500000e+01
      vertex   4.393237e+00 4.468004e+00 7.500000e+01
      vertex   -4.286763e+00 4.468004e+00 7.664000e+01
    endloop
  endfacet
  facet normal 0.000000e+00 -1.000000e+00 0.000000e+00
    outer loop
      vertex   -4.286763e+00 4.468004e+00 7.664000e+01
      vertex   4.393237e+00 4.468004e+00 7.500000e+01
      vertex   4.393237e+00 4.468004e+00 7.664000e+01
    endloop
  endfacet
  facet normal 0.000000e+00 0.000000e+00 -1.000000e+00
    outer loop
      vertex   4.393237e+00 -4.341996e+00 7.664000e+01
      vertex   -4.286763e+00 -4.341996e+00 7.664000e+01
      vertex   4.393237e+00 4.468004e+00 7.664000e+01
    endloop
  endfacet
  facet normal -0.000000e+00 0.000000e+00 -1.000000e+00
    outer loop
      vertex   4.393237e+00 4.468004e+00 7.664000e+01
      vertex   -4.286763e+00 -4.341996e+00 7.664000e+01
      vertex   -4.286763e+00 4.468004e+00 7.664000e+01
    endloop
  endfacet
  facet normal -0.000000e+00 1.000000e+00 0.000000e+00
    outer loop
      vertex   -4.286763e+00 -4.341996e+00 7.664000e+01
      vertex   4.393237e+00 -4.341996e+00 7.664000e+01
      vertex   -4.286763e+00 -4.341996e+00 7.500000e+01
    endloop
  endfacet
  facet normal 0.000000e+00 1.000000e+00 0.000000e+00
    outer loop
      vertex   -4.286763e+00 -4.341996e+00 7.500000e+01
      vertex   4.393237e+00 -4.341996e+00 7.664000e+01
      vertex   4.393237e+00 -4.341996e+00 7.500000e+01
    endloop
  endfacet
  facet normal -0.000000e+00 0.000000e+00 -1.000000e+00
    outer loop
      vertex   4.393237e+00 -4.341996e+00 7.500000e+01
      vertex   -2.220446e-15 -7.500000e+00 7.500000e+01
      vertex   -4.286763e+00 -4.341996e+00 7.500000e+01
    endloop
  endfacet
  facet normal -0.000000e+00 -0.000000e+00 -1.000000e+00
    outer loop
      vertex   -4.286763e+00 -4.341996e+00 7.500000e+01
      vertex   -2.220446e-15 -7.500000e+00 7.500000e+01
      vertex   -6.495191e+00 -3.750000e+00 7.500000e+01
    endloop
  endfacet
  facet normal 0.000000e+00 0.000000e+00 -1.000000e+00
    outer loop
      vertex   -4.286763e+00 -4.341996e+00 7.500000e+01
      vertex   -6.495191e+00 -3.750000e+00 7.500000e+01
      vertex   -6.495191e+00 3.750000e+00 7.500000e+01
    endloop
  endfacet
  facet normal 0.000000e+00 0.000000e+00 -1.000000e+00
    outer loop
      vertex   4.393237e+00 4.468004e+00 7.500000e+01
      vertex   6.495191e+00 3.750000e+00 7.500000e+01
      vertex   4.393237e+00 -4.341996e+00 7.500000e+01
    endloop
  endfacet
  facet normal 0.000000e+00 0.000000e+00 -1.000000e+00
    outer loop
      vertex   4.393237e+00 -4.341996e+00 7.500000e+01
      vertex   6.495191e+00 3.750000e+00 7.500000e+01
      vertex   6.495191e+00 -3.750000e+00 7.500000e+01
    endloop
  endfacet
  facet normal 0.000000e+00 -0.000000e+00 -1.000000e+00
    outer loop
      vertex   4.393237e+00 -4.341996e+00 7.500000e+01
      vertex   6.495191e+00 -3.750000e+00 7.500000e+01
      vertex   -2.220446e-15 -7.500000e+00 7.500000e+01
    endloop
  endfacet
  facet normal 0.000000e+00 0.000000e+00 -1.000000e+00
    outer loop
      vertex   6.495191e+00 3.750000e+00 7.500000e+01
      vertex   4.393237e+00 4.468004e+00 7.500000e+01
      vertex   0.000000e+00 7.500000e+00 7.500000e+01
    endloop
  endfacet
  facet normal 0.000000e+00 -0.000000e+00 -1.000000e+00
    outer loop
      vertex   0.000000e+00 7.500000e+00 7.500000e+01
      vertex   4.393237e+00 4.468004e+00 7.500000e+01
      vertex   -4.286763e+00 4.468004e+00 7.500000e+01
    endloop
  endfacet
  facet normal 0.000000e+00 0.000000e+00 -1.000000e+00
    outer loop
      vertex   0.000000e+00 7.500000e+00 7.500000e+01
      vertex   -4.286763e+00 4.468004e+00 7.500000e+01
      vertex   -6.495191e+00 3.750000e+00 7.500000e+01
    endloop
  endfacet
  facet normal 0.000000e+00 0.000000e+00 -1.000000e+00
    outer loop
      vertex   -6.495191e+00 3.750000e+00 7.500000e+01
      vertex   -4.286763e+00 4.468004e+00 7.500000e+01
      vertex   -4.286763e+00 -4.341996e+00 7.500000e+01
    endloop
  endfacet
  facet normal -1.000000e+00 0.000000e+00 0.000000e+00
    outer loop
      vertex   4.393237e+00 4.468004e+00 7.500000e+01
      vertex   4.393237e+00 -4.341996e+00 7.500000e+01
      vertex   4.393237e+00 4.468004e+00 7.664000e+01
    endloop
  endfacet
  facet normal -1.000000e+00 -0.000000e+00 0.000000e+00
    outer loop
      vertex   4.393237e+00 4.468004e+00 7.664000e+01
      vertex   4.393237e+00 -4.341996e+00 7.500000e+01
      vertex   4.393237e+00 -4.341996e+00 7.664000e+01
    endloop
  endfacet
  facet normal 1.000000e+00 -2.368476e-16 0.000000e+00
    outer loop
      vertex   -6.495191e+00 3.750000e+00 7.500000e+01
      vertex   -6.495191e+00 -3.750000e+00 7.500000e+01
      vertex   -6.495191e+00 3.750000e+00 4.500000e+01
    endloop
  endfacet
  facet normal 1.000000e+00 -1.184238e-16 2.960595e-17
    outer loop
      vertex   -6.495191e+00 3.750000e+00 4.500000e+01
      vertex   -6.495191e+00 -3.750000e+00 7.500000e+01
      vertex   -6.495191e+00 -3.750000e+00 4.500000e+01
    endloop
  endfacet
  facet normal 1.000000e+00 -1.184238e-16 0.000000e+00
    outer loop
      vertex   -6.495191e+00 3.750000e+00 4.500000e+01
      vertex   -6.495191e+00 -3.750000e+00 4.500000e+01
      vertex   -6.495191e+00 3.750000e+00 1.500000e+01
    endloop
  endfacet
  facet normal 1.000000e+00 -1.184238e-16 0.000000e+00
    outer loop
      vertex   -6.495191e+00 3.750000e+00 1.500000e+01
      vertex   -6.495191e+00 -3.750000e+00 4.500000e+01
      vertex   -6.495191e+00 -3.750000e+00 1.500000e+01
    endloop
  endfacet
  facet normal 1.000000e+00 -1.184238e-16 0.000000e+00
    outer loop
      vertex   -6.495191e+00 3.750000e+00 1.500000e+01
      vertex   -6.495191e+00 -3.750000e+00 1.500000e+01
      vertex   -6.495191e+00 3.750000e+00 -1.500000e+01
    endloop
  endfacet
  facet normal 1.000000e+00 -1.184238e-16 0.000000e+00
    outer loop
      vertex   -6.495191e+00 3.750000e+00 -1.500000e+01
      vertex   -6.495191e+00 -3.750000e+00 1.500000e+01
      vertex   -6.495191e+00 -3.750000e+00 -1.500000e+01
    endloop
  endfacet
  facet normal 1.000000e+00 -1.184238e-16 0.000000e+00
    outer loop
      vertex   -6.495191e+00 3.750000e+00 -1.500000e+01
      vertex   -6.495191e+00 -3.750000e+00 -1.500000e+01
      vertex   -6.495191e+00 3.750000e+00 -4.500000e+01
    endloop
  endfacet
  facet normal 1.000000e+00 -1.184238e-16 0.000000e+00
    outer loop
      vertex   -6.495191e+00 3.750000e+00 -4.500000e+01
      vertex   -6.495191e+00 -3.750000e+00 -1.500000e+01
      vertex   -6.495191e+00 -3.750000e+00 -4.500000e+01
    endloop
  endfacet
  facet normal 1.000000e+00 -1.184238e-16 0.000000e+00
    outer loop
      vertex   -6.495191e+00 3.750000e+00 -4.500000e+01
      vertex   -6.495191e+00 -3.750000e+00 -4.500000e+01
      vertex   -6.495191e+00 3.750000e+00 -7.500000e+01
    endloop
  endfacet
  facet normal 1.000000e+00 -2.368476e-16 -2.960595e-17
    outer loop
      vertex   -6.495191e+00 3.750000e+00 -7.500000e+01
      vertex   -6.495191e+00 -3.750000e+00 -4.500000e+01
      vertex   -6.495191e+00 -3.750000e+00 -7.500000e+01
    endloop
  endfacet
  facet normal 5.000000e-01 8.660254e-01 1.480297e-17
    outer loop
      vertex   -6.495191e+00 -3.750000e+00 7.500000e+01
      vertex   -2.220446e-15 -7.500000e+00 7.500000e+01
      vertex   -6.495191e+00 -3.750000e+00 4.500000e+01
    endloop
  endfacet
  facet normal 5.000000e-01 8.660254e-01 0.000000e+00
    outer loop
      vertex   -6.495191e+00 -3.750000e+00 4.500000e+01
      vertex   -2.220446e-15 -7.500000e+00 7.500000e+01
      vertex   -2.220446e-15 -7.500000e+00 4.500000e+01
    endloop
  endfacet
  facet normal 5.000000e-01 8.660254e-01 0.000000e+00
    outer loop
      vertex   -6.495191e+00 -3.750000e+00 4.500000e+01
      vertex   -2.220446e-15 -7.500000e+00 4.500000e+01
      vertex   -6.495191e+00 -3.750000e+00 1.500000e+01
    endloop
  endfacet
  facet normal 5.000000e-01 8.660254e-01 0.000000e+00
    outer loop
      vertex   -6.495191e+00 -3.750000e+00 1.500000e+01
      vertex   -2.220446e-15 -7.500000e+00 4.500000e+01
      vertex   -2.220446e-15 -7.500000e+00 1.500000e+01
    endloop
  endfacet
  facet normal 5.000000e-01 8.660254e-01 0.000000e+00
    outer loop
      vertex   -6.495191e+00 -3.750000e+00 1.500000e+01
      vertex   -2.220446e-15 -7.500000e+00 1.500000e+01
      vertex   -6.495191e+00 -3.750000e+00 -1.500000e+01
    endloop
  endfacet
  facet normal 5.000000e-01 8.660254e-01 0.000000e+00
    outer loop
      vertex   -6.495191e+00 -3.750000e+00 -1.500000e+01
      vertex   -2.220446e-15 -7.500000e+00 1.500000e+01
      vertex   -2.220446e-15 -7.500000e+00 -1.500000e+01
    endloop
  endfacet
  facet normal 5.000000e-01 8.660254e-01 0.000000e+00
    outer loop
      vertex   -6.495191e+00 -3.750000e+00 -1.500000e+01
      vertex   -2.220446e-15 -7.500000e+00 -1.500000e+01
      vertex   -6.495191e+00 -3.750000e+00 -4.500000e+01
    endloop
  endfacet
  facet normal 5.000000e-01 8.660254e-01 0.000000e+00
    outer loop
      vertex   -6.495191e+00 -3.750000e+00 -4.500000e+01
      vertex   -2.220446e-15 -7.500000e+00 -1.500000e+01
      vertex   -2.220446e-15 -7.500000e+00 -4.500000e+01
    endloop
  endfacet
  facet normal 5.000000e-01 8.660254e-01 -1.480297e-17
    outer loop
      vertex   -6.495191e+00 -3.750000e+00 -4.500000e+01
      vertex   -2.220446e-15 -7.500000e+00 -4.500000e+01
      vertex   -6.495191e+00 -3.750000e+00 -7.500000e+01
    endloop
  endfacet
  facet normal 5.000000e-01 8.660254e-01 0.000000e+00
    outer loop
      vertex   -6.495191e+00 -3.750000e+00 -7.500000e+01
      vertex   -2.220446e-15 -7.500000e+00 -4.500000e+01
      vertex   -2.220446e-15 -7.500000e+00 -7.500000e+01
    endloop
  endfacet
  facet normal -5.000000e-01 8.660254e-01 0.000000e+00
    outer loop
      vertex   -2.220446e-15 -7.500000e+00 7.500000e+01
      vertex   6.495191e+00 -3.750000e+00 7.500000e+01
      vertex   -2.220446e-15 -7.500000e+00 4.500000e+01
    endloop
  endfacet
  facet normal -5.000000e-01 8.660254e-01 0.000000e+00
    outer loop
      vertex   -2.220446e-15 -7.500000e+00 4.500000e+01
      vertex   6.495191e+00 -3.750000e+00 7.500000e+01
      vertex   6.495191e+00 -3.750000e+00 4.500000e+01
    endloop
  endfacet
  facet normal -5.000000e-01 8.660254e-01 0.000000e+00
    outer loop
      vertex   -2.220446e-15 -7.500000e+00 4.500000e+01
      vertex   6.495191e+00 -3.750000e+00 4.500000e+01
      vertex   -2.220446e-15 -7.500000e+00 1.500000e+01
    endloop
  endfacet
  facet normal -5.000000e-01 8.660254e-01 0.000000e+00
    outer loop
      vertex   -2.220446e-15 -7.500000e+00 1.500000e+01
      vertex   6.495191e+00 -3.750000e+00 4.500000e+01
      vertex   6.495191e+00 -3.750000e+00 1.500000e+01
    endloop
  endfacet
  facet normal -5.000000e-01 8.660254e-01 0.000000e+00
    outer loop
      vertex   -2.220446e-15 -7.500000e+00 1.500000e+01
      vertex   6.495191e+00 -3.750000e+00 1.500000e+01
      vertex   -2.220446e-15 -7.500000e+00 -1.500000e+01
    endloop
  endfacet
  facet normal -5.000000e-01 8.660254e-01 0.000000e+00
    outer loop
      vertex   -2.220446e-15 -7.500000e+00 -1.500000e+01
      vertex   6.495191e+00 -3.750000e+00 1.500000e+01
      vertex   6.495191e+00 -3.750000e+00 -1.500000e+01
    endloop
  endfacet
  facet normal -5.000000e-01 8.660254e-01 0.000000e+00
    outer loop
      vertex   -2.220446e-15 -7.500000e+00 -1.500000e+01
      vertex   6.495191e+00 -3.750000e+00 -1.500000e+01
      vertex   -2.220446e-15 -7.500000e+00 -4.500000e+01
    endloop
  endfacet
  facet normal -5.000000e-01 8.660254e-01 0.000000e+00
    outer loop
      vertex   -2.220446e-15 -7.500000e+00 -4.500000e+01
      vertex   6.495191e+00 -3.750000e+00 -1.500000e+01
      vertex   6.495191e+00 -3.750000e+00 -4.500000e+01
    endloop
  endfacet
  facet normal -5.000000e-01 8.660254e-01 0.000000e+00
    outer loop
      vertex   -2.220446e-15 -7.500000e+00 -4.500000e+01
      vertex   6.495191e+00 -3.750000e+00 -4.500000e+01
      vertex   -2.220446e-15 -7.500000e+00 -7.500000e+01
    endloop
  endfacet
  facet normal -5.000000e-01 8.660254e-01 0.000000e+00
    outer loop
      vertex   -2.220446e-15 -7.500000e+00 -7.500000e+01
      vertex   6.495191e+00 -3.750000e+00 -4.500000e+01
      vertex   6.495191e+00 -3.750000e+00 -7.500000e+01
    endloop
  endfacet
  facet normal -5.000000e-01 -8.660254e-01 -0.000000e+00
    outer loop
      vertex   6.495191e+00 3.750000e+00 7.500000e+01
      vertex   0.000000e+00 7.500000e+00 7.500000e+01
      vertex   6.495191e+00 3.750000e+00 4.500000e+01
    endloop
  endfacet
  facet normal -5.000000e-01 -8.660254e-01 0.000000e+00
    outer loop
      vertex   6.495191e+00 3.750000e+00 4.500000e+01
      vertex   0.000000e+00 7.500000e+00 7.500000e+01
      vertex   0.000000e+00 7.500000e+00 4.500000e+01
    endloop
  endfacet
  facet normal -5.000000e-01 -8.660254e-01 -0.000000e+00
    outer loop
      vertex   6.495191e+00 3.750000e+00 4.500000e+01
      vertex   0.000000e+00 7.500000e+00 4.500000e+01
      vertex   6.495191e+00 3.750000e+00 1.500000e+01
    endloop
  endfacet
  facet normal -5.000000e-01 -8.660254e-01 0.000000e+00
    outer loop
      vertex   6.495191e+00 3.750000e+00 1.500000e+01
      vertex   0.000000e+00 7.500000e+00 4.500000e+01
      vertex   0.000000e+00 7.500000e+00 1.500000e+01
    endloop
  endfacet
  facet normal -5.000000e-01 -8.660254e-01 -0.000000e+00
    outer loop
      vertex   6.495191e+00 3.750000e+00 1.500000e+01
      vertex   0.000000e+00 7.500000e+00 1.500000e+01
      vertex   6.495191e+00 3.750000e+00 -1.500000e+01
    endloop
  endfacet
  facet normal -5.000000e-01 -8.660254e-01 0.000000e+00
    outer loop
      vertex   6.495191e+00 3.750000e+00 -1.500000e+01
      vertex   0.000000e+00 7.500000e+00 1.500000e+01
      vertex   0.000000e+00 7.500000e+00 -1.500000e+01
    endloop
  endfacet
  facet normal -5.000000e-01 -8.660254e-01 -0.000000e+00
    outer loop
      vertex   6.495191e+00 3.750000e+00 -1.500000e+01
      vertex   0.000000e+00 7.500000e+00 -1.500000e+01
      vertex   6.495191e+00 3.750000e+00 -4.500000e+01
    endloop
  endfacet
  facet normal -5.000000e-01 -8.660254e-01 0.000000e+00
    outer loop
      vertex   6.495191e+00 3.750000e+00 -4.500000e+01
      vertex   0.000000e+00 7.500000e+00 -1.500000e+01
      vertex   0.000000e+00 7.500000e+00 -4.500000e+01
    endloop
  endfacet
  facet normal -5.000000e-01 -8.660254e-01 -0.000000e+00
    outer loop
      vertex   6.495191e+00 3.750000e+00 -4.500000e+01
      vertex   0.000000e+00 7.500000e+00 -4.500000e+01
      vertex   6.495191e+00 3.750000e+00 -7.500000e+01
    endloop
  endfacet
  facet normal -5.000000e-01 -8.660254e-01 0.000000e+00
    outer loop
      vertex   6.495191e+00 3.750000e+00 -7.500000e+01
      vertex   0.000000e+00 7.500000e+00 -4.500000e+01
      vertex   0.000000e+00 7.500000e+00 -7.500000e+01
    endloop
  endfacet
  facet normal -1.000000e+00 3.552714e-16 0.000000e+00
    outer loop
      vertex   6.495191e+00 -3.750000e+00 7.500000e+01
      vertex   6.495191e+00 3.750000e+00 7.500000e+01
      vertex   6.495191e+00 -3.750000e+00 4.500000e+01
    endloop
  endfacet
  facet normal -1.000000e+00 3.552714e-16 0.000000e+00
    outer loop
      vertex   6.495191e+00 -3.750000e+00 4.500000e+01
      vertex   6.495191e+00 3.750000e+00 7.500000e+01
      vertex   6.495191e+00 3.750000e+00 4.500000e+01
    endloop
  endfacet
  facet normal -1.000000e+00 3.552714e-16 0.000000e+00
    outer loop
      vertex   6.495191e+00 -3.750000e+00 4.500000e+01
      vertex   6.495191e+00 3.750000e+00 4.500000e+01
      vertex   6.495191e+00 -3.750000e+00 1.500000e+01
    endloop
  endfacet
  facet normal -1.000000e+00 3.552714e-16 0.000000e+00
    outer loop
      vertex   6.495191e+00 -3.750000e+00 1.500000e+01
      vertex   6.495191e+00 3.750000e+00 4.500000e+01
      vertex   6.495191e+00 3.750000e+00 1.500000e+01
    endloop
  endfacet
  facet normal -1.000000e+00 3.552714e-16 0.000000e+00
    outer loop
      vertex   6.495191e+00 -3.750000e+00 1.500000e+01
      vertex   6.495191e+00 3.750000e+00 1.500000e+01
      vertex   6.495191e+00 -3.750000e+00 -1.500000e+01
    endloop
  endfacet
  facet normal -1.000000e+00 3.552714e-16 0.000000e+00
    outer loop
      vertex   6.495191e+00 -3.750000e+00 -1.500000e+01
      vertex   6.495191e+00 3.750000e+00 1.500000e+01
      vertex   6.495191e+00 3.750000e+00 -1.500000e+01
    endloop
  endfacet
  facet normal -1.000000e+00 3.552714e-16 0.000000e+00
    outer loop
      vertex   6.495191e+00 -3.750000e+00 -1.500000e+01
      vertex   6.495191e+00 3.750000e+00 -1.500000e+01
      vertex   6.495191e+00 -3.750000e+00 -4.500000e+01
    endloop
  endfacet
  facet normal -1.000000e+00 3.552714e-16 0.000000e+00
    outer loop
      vertex   6.495191e+00 -3.750000e+00 -4.500000e+01
      vertex   6.495191e+00 3.750000e+00 -1.500000e+01
      vertex   6.495191e+00 3.750000e+00 -4.500000e+01
    endloop
  endfacet
  facet normal -1.000000e+00 3.552714e-16 0.000000e+00
    outer loop
      vertex   6.495191e+00 -3.750000e+00 -4.500000e+01
      vertex   6.495191e+00 3.750000e+00 -4.500000e+01
      vertex   6.495191e+00 -3.750000e+00 -7.500000e+01
    endloop
  endfacet
  facet normal -1.000000e+00 3.552714e-16 0.000000e+00
    outer loop
      vertex   6.495191e+00 -3.750000e+00 -7.500000e+01
      vertex   6.495191e+00 3.750000e+00 -4.500000e+01
      vertex   6.495191e+00 3.750000e+00 -7.500000e+01
    endloop
  endfacet
  facet normal 5.000000e-01 -8.660254e-01 0.000000e+00
    outer loop
      vertex   0.000000e+00 7.500000e+00 7.500000e+01
      vertex   -6.495191e+00 3.750000e+00 7.500000e+01
      vertex   0.000000e+00 7.500000e+00 4.500000e+01
    endloop
  endfacet
  facet normal 5.000000e-01 -8.660254e-01 0.000000e+00
    outer loop
      vertex   0.000000e+00 7.500000e+00 4.500000e+01
      vertex   -6.495191e+00 3.750000e+00 7.500000e+01
      vertex   -6.495191e+00 3.750000e+00 4.500000e+01
    endloop
  endfacet
  facet normal 5.000000e-01 -8.660254e-01 0.000000e+00
    outer loop
      vertex   0.000000e+00 7.500000e+00 4.500000e+01
      vertex   -6.495191e+00 3.750000e+00 4.500000e+01
      vertex   0.000000e+00 7.500000e+00 1.500000e+01
    endloop
  endfacet
  facet normal 5.000000e-01 -8.660254e-01 0.000000e+00
    outer loop
      vertex   0.000000e+00 7.500000e+00 1.500000e+01
      vertex   -6.495191e+00 3.750000e+00 4.500000e+01
      vertex   -6.495191e+00 3.750000e+00 1.500000e+01
    endloop
  endfacet
  facet normal 5.000000e-01 -8.660254e-01 0.000000e+00
    outer loop
      vertex   0.000000e+00 7.500000e+00 1.500000e+01
      vertex   -6.495191e+00 3.750000e+00 1.500000e+01
      vertex   0.000000e+00 7.500000e+00 -1.500000e+01
    endloop
  endfacet
  facet normal 5.000000e-01 -8.660254e-01 0.000000e+00
    outer loop
      vertex   0.000000e+00 7.500000e+00 -1.500000e+01
      vertex   -6.495191e+00 3.750000e+00 1.500000e+01
      vertex   -6.495191e+00 3.750000e+00 -1.500000e+01
    endloop
  endfacet
  facet normal 5.000000e-01 -8.660254e-01 0.000000e+00
    outer loop
      vertex   0.000000e+00 7.500000e+00 -1.500000e+01
      vertex   -6.495191e+00 3.750000e+00 -1.500000e+01
      vertex   0.000000e+00 7.500000e+00 -4.500000e+01
    endloop
  endfacet
  facet normal 5.000000e-01 -8.660254e-01 0.000000e+00
    outer loop
      vertex   0.000000e+00 7.500000e+00 -4.500000e+01
      vertex   -6.495191e+00 3.750000e+00 -1.500000e+01
      vertex   -6.495191e+00 3.750000e+00 -4.500000e+01
    endloop
  endfacet
  facet normal 5.000000e-01 -8.660254e-01 0.000000e+00
    outer loop
      vertex   0.000000e+00 7.500000e+00 -4.500000e+01
      vertex   -6.495191e+00 3.750000e+00 -4.500000e+01
      vertex   0.000000e+00 7.500000e+00 -7.500000e+01
    endloop
  endfacet
  facet normal 5.000000e-01 -8.660254e-01 0.000000e+00
    outer loop
      vertex   0.000000e+00 7.500000e+00 -7.500000e+01
      vertex   -6.495191e+00 3.750000e+00 -4.500000e+01
      vertex   -6.495191e+00 3.750000e+00 -7.500000e+01
    endloop
  endfacet
  facet normal 0.000000e+00 0.000000e+00 1.000000e+00
    outer loop
      vertex   6.495191e+00 3.750000e+00 -7.500000e+01
      vertex   0.000000e+00 7.500000e+00 -7.500000e+01
      vertex   6.495191e+00 -3.750000e+00 -7.500000e+01
    endloop
  endfacet
  facet normal 0.000000e+00 0.000000e+00 1.000000e+00
    outer loop
      vertex   6.495191e+00 -3.750000e+00 -7.500000e+01
      vertex   0.000000e+00 7.500000e+00 -7.500000e+01
      vertex   -2.220446e-15 -7.500000e+00 -7.500000e+01
    endloop
  endfacet
  facet normal 0.000000e+00 -0.000000e+00 1.000000e+00
    outer loop
      vertex   -2.220446e-15 -7.500000e+00 -7.500000e+01
      vertex   0.000000e+00 7.500000e+00 -7.500000e+01
      vertex   -6.495191e+00 3.750000e+00 -7.500000e+01
    endloop
  endfacet
  facet normal 0.000000e+00 0.000000e+00 1.000000e+00
    outer loop
      vertex   -2.220446e-15 -7.500000e+00 -7.500000e+01
      vertex   -6.495191e+00 3.750000e+00 -7.500000e+01
      vertex   -6.495191e+00 -3.750000e+00 -7.500000e+01
    endloop
  endfacet
endsolid
