solid ASCII
  facet normal -0.000000e+00 0.000000e+00 -1.000000e+00
    outer loop
      vertex   6.595191e+00 3.807735e+00 -7.510000e+01
      vertex   -2.920600e-15 -7.615470e+00 -7.510000e+01
      vertex   -9.083205e-16 7.615470e+00 -7.510000e+01
    endloop
  endfacet
  facet normal 0.000000e+00 0.000000e+00 -1.000000e+00
    outer loop
      vertex   -9.083205e-16 7.615470e+00 -7.510000e+01
      vertex   -2.920600e-15 -7.615470e+00 -7.510000e+01
      vertex   -6.595191e+00 -3.807735e+00 -7.510000e+01
    endloop
  endfacet
  facet normal 0.000000e+00 0.000000e+00 -1.000000e+00
    outer loop
      vertex   -9.083205e-16 7.615470e+00 -7.510000e+01
      vertex   -6.595191e+00 -3.807735e+00 -7.510000e+01
      vertex   -6.595191e+00 3.807735e+00 -7.510000e+01
    endloop
  endfacet
  facet normal 0.000000e+00 0.000000e+00 -1.000000e+00
    outer loop
      vertex   6.595191e+00 3.807735e+00 -7.510000e+01
      vertex   6.595191e+00 -3.807735e+00 -7.510000e+01
      vertex   -2.920600e-15 -7.615470e+00 -7.510000e+01
    endloop
  endfacet
  facet normal 5.000000e-01 8.660254e-01 -1.443678e-20
    outer loop
      vertex   -9.039837e-16 7.615470e+00 7.510000e+01
      vertex   6.595191e+00 3.807735e+00 7.510000e+01
      vertex   -9.083205e-16 7.615470e+00 -7.510000e+01
    endloop
  endfacet
  facet normal 5.000000e-01 8.660254e-01 0.000000e+00
    outer loop
      vertex   -9.083205e-16 7.615470e+00 -7.510000e+01
      vertex   6.595191e+00 3.807735e+00 7.510000e+01
      vertex   6.595191e+00 3.807735e+00 -7.510000e+01
    endloop
  endfacet
  facet normal -5.000000e-01 8.660254e-01 0.000000e+00
    outer loop
      vertex   -6.595191e+00 3.807735e+00 7.510000e+01
      vertex   -9.039837e-16 7.615470e+00 7.510000e+01
      vertex   -6.595191e+00 3.807735e+00 -7.510000e+01
    endloop
  endfacet
  facet normal -5.000000e-01 8.660254e-01 0.000000e+00
    outer loop
      vertex   -6.595191e+00 3.807735e+00 -7.510000e+01
      vertex   -9.039837e-16 7.615470e+00 7.510000e+01
      vertex   -9.083205e-16 7.615470e+00 -7.510000e+01
    endloop
  endfacet
  facet normal 1.000000e+00 -4.665127e-16 0.000000e+00
    outer loop
      vertex   6.595191e+00 3.807735e+00 7.510000e+01
      vertex   6.595191e+00 -3.807735e+00 7.510000e+01
      vertex   6.595191e+00 3.807735e+00 -7.510000e+01
    endloop
  endfacet
  facet normal 1.000000e+00 -4.665127e-16 0.000000e+00
    outer loop
      vertex   6.595191e+00 3.807735e+00 -7.510000e+01
      vertex   6.595191e+00 -3.807735e+00 7.510000e+01
      vertex   6.595191e+00 -3.807735e+00 -7.510000e+01
    endloop
  endfacet
  facet normal 5.000000e-01 -8.660254e-01 0.000000e+00
    outer loop
      vertex   6.595191e+00 -3.807735e+00 7.510000e+01
      vertex   -2.920600e-15 -7.615470e+00 7.510000e+01
      vertex   6.595191e+00 -3.807735e+00 -7.510000e+01
    endloop
  endfacet
  facet normal 5.000000e-01 -8.660254e-01 0.000000e+00
    outer loop
      vertex   6.595191e+00 -3.807735e+00 -7.510000e+01
      vertex   -2.920600e-15 -7.615470e+00 7.510000e+01
      vertex   -2.920600e-15 -7.615470e+00 -7.510000e+01
    endloop
  endfacet
  facet normal -5.000000e-01 -8.660254e-01 -0.000000e+00
    outer loop
      vertex   -2.920600e-15 -7.615470e+00 7.510000e+01
      vertex   -6.595191e+00 -3.807735e+00 7.510000e+01
      vertex   -2.920600e-15 -7.615470e+00 -7.510000e+01
    endloop
  endfacet
  facet normal -5.000000e-01 -8.660254e-01 0.000000e+00
    outer loop
      vertex   -2.920600e-15 -7.615470e+00 -7.510000e+01
      vertex   -6.595191e+00 -3.807735e+00 7.510000e+01
      vertex   -6.595191e+00 -3.807735e+00 -7.510000e+01
    endloop
  endfacet
  facet normal -1.000000e+00 0.000000e+00 0.000000e+00
    outer loop
      vertex   -6.595191e+00 -3.807735e+00 7.510000e+01
      vertex   -6.595191e+00 3.807735e+00 7.510000e+01
      vertex   -6.595191e+00 -3.807735e+00 -7.510000e+01
    endloop
  endfacet
  facet normal -1.000000e+00 0.000000e+00 0.000000e+00
    outer loop
      vertex   -6.595191e+00 -3.807735e+00 -7.510000e+01
      vertex   -6.595191e+00 3.807735e+00 7.510000e+01
      vertex   -6.595191e+00 3.807735e+00 -7.510000e+01
    endloop
  endfacet
  facet normal -0.000000e+00 -1.000000e+00 -0.000000e+00
    outer loop
      vertex   4.493237e+00 -4.441996e+00 7.674000e+01
      vertex   -4.386763e+00 -4.441996e+00 7.674000e+01
      vertex   4.493237e+00 -4.441996e+00 7.510000e+01
    endloop
  endfacet
  facet normal 0.000000e+00 -1.000000e+00 0.000000e+00
    outer loop
      vertex   4.493237e+00 -4.441996e+00 7.510000e+01
      vertex   -4.386763e+00 -4.441996e+00 7.674000e+01
      vertex   -4.386763e+00 -4.441996e+00 7.510000e+01
    endloop
  endfacet
  facet normal 0.000000e+00 0.000000e+00 1.000000e+00
    outer loop
      vertex   -4.386763e+00 -4.441996e+00 7.674000e+01
      vertex   4.493237e+00 -4.441996e+00 7.674000e+01
      vertex   -4.386763e+00 4.568004e+00 7.674000e+01
    endloop
  endfacet
  facet normal -0.000000e+00 0.000000e+00 1.000000e+00
    outer loop
      vertex   -4.386763e+00 4.568004e+00 7.674000e+01
      vertex   4.493237e+00 -4.441996e+00 7.674000e+01
      vertex   4.493237e+00 4.568004e+00 7.674000e+01
    endloop
  endfacet
  facet normal -0.000000e+00 0.000000e+00 1.000000e+00
    outer loop
      vertex   -4.386763e+00 -4.441996e+00 7.510000e+01
      vertex   -2.920600e-15 -7.615470e+00 7.510000e+01
      vertex   4.493237e+00 -4.441996e+00 7.510000e+01
    endloop
  endfacet
  facet normal -0.000000e+00 0.000000e+00 1.000000e+00
    outer loop
      vertex   4.493237e+00 -4.441996e+00 7.510000e+01
      vertex   -2.920600e-15 -7.615470e+00 7.510000e+01
      vertex   6.595191e+00 -3.807735e+00 7.510000e+01
    endloop
  endfacet
  facet normal 0.000000e+00 0.000000e+00 1.000000e+00
    outer loop
      vertex   4.493237e+00 -4.441996e+00 7.510000e+01
      vertex   6.595191e+00 -3.807735e+00 7.510000e+01
      vertex   6.595191e+00 3.807735e+00 7.510000e+01
    endloop
  endfacet
  facet normal 0.000000e+00 0.000000e+00 1.000000e+00
    outer loop
      vertex   -4.386763e+00 4.568004e+00 7.510000e+01
      vertex   -6.595191e+00 3.807735e+00 7.510000e+01
      vertex   -4.386763e+00 -4.441996e+00 7.510000e+01
    endloop
  endfacet
  facet normal 0.000000e+00 0.000000e+00 1.000000e+00
    outer loop
      vertex   -4.386763e+00 -4.441996e+00 7.510000e+01
      vertex   -6.595191e+00 3.807735e+00 7.510000e+01
      vertex   -6.595191e+00 -3.807735e+00 7.510000e+01
    endloop
  endfacet
  facet normal 0.000000e+00 0.000000e+00 1.000000e+00
    outer loop
      vertex   -4.386763e+00 -4.441996e+00 7.510000e+01
      vertex   -6.595191e+00 -3.807735e+00 7.510000e+01
      vertex   -2.920600e-15 -7.615470e+00 7.510000e+01
    endloop
  endfacet
  facet normal 0.000000e+00 0.000000e+00 1.000000e+00
    outer loop
      vertex   -6.595191e+00 3.807735e+00 7.510000e+01
      vertex   -4.386763e+00 4.568004e+00 7.510000e+01
      vertex   -9.039837e-16 7.615470e+00 7.510000e+01
    endloop
  endfacet
  facet normal 0.000000e+00 0.000000e+00 1.000000e+00
    outer loop
      vertex   -9.039837e-16 7.615470e+00 7.510000e+01
      vertex   -4.386763e+00 4.568004e+00 7.510000e+01
      vertex   4.493237e+00 4.568004e+00 7.510000e+01
    endloop
  endfacet
  facet normal 0.000000e+00 0.000000e+00 1.000000e+00
    outer loop
      vertex   -9.039837e-16 7.615470e+00 7.510000e+01
      vertex   4.493237e+00 4.568004e+00 7.510000e+01
      vertex   6.595191e+00 3.807735e+00 7.510000e+01
    endloop
  endfacet
  facet normal 0.000000e+00 0.000000e+00 1.000000e+00
    outer loop
      vertex   6.595191e+00 3.807735e+00 7.510000e+01
      vertex   4.493237e+00 4.568004e+00 7.510000e+01
      vertex   4.493237e+00 -4.441996e+00 7.510000e+01
    endloop
  endfacet
  facet normal 1.000000e+00 0.000000e+00 0.000000e+00
    outer loop
      vertex   4.493237e+00 -4.441996e+00 7.510000e+01
      vertex   4.493237e+00 4.568004e+00 7.510000e+01
      vertex   4.493237e+00 -4.441996e+00 7.674000e+01
    endloop
  endfacet
  facet normal 1.000000e+00 -0.000000e+00 0.000000e+00
    outer loop
      vertex   4.493237e+00 -4.441996e+00 7.674000e+01
      vertex   4.493237e+00 4.568004e+00 7.510000e+01
      vertex   4.493237e+00 4.568004e+00 7.674000e+01
    endloop
  endfacet
  facet normal -1.000000e+00 0.000000e+00 0.000000e+00
    outer loop
      vertex   -4.386763e+00 -4.441996e+00 7.674000e+01
      vertex   -4.386763e+00 4.568004e+00 7.674000e+01
      vertex   -4.386763e+00 -4.441996e+00 7.510000e+01
    endloop
  endfacet
  facet normal -1.000000e+00 0.000000e+00 0.000000e+00
    outer loop
      vertex   -4.386763e+00 -4.441996e+00 7.510000e+01
      vertex   -4.386763e+00 4.568004e+00 7.674000e+01
      vertex   -4.386763e+00 4.568004e+00 7.510000e+01
    endloop
  endfacet
  facet normal 0.000000e+00 1.000000e+00 -0.000000e+00
    outer loop
      vertex   4.493237e+00 4.568004e+00 7.510000e+01
      vertex   -4.386763e+00 4.568004e+00 7.510000e+01
      vertex   4.493237e+00 4.568004e+00 7.674000e+01
    endloop
  endfacet
  facet normal 0.000000e+00 1.000000e+00 0.000000e+00
    outer loop
      vertex   4.493237e+00 4.568004e+00 7.674000e+01
      vertex   -4.386763e+00 4.568004e+00 7.510000e+01
      vertex   -4.386763e+00 4.568004e+00 7.674000e+01
    endloop
  endfacet
endsolid
