solid 
facet normal 0.5 0.8660253 0
 outer loop
  vertex 0 3.354395 -125.00037
  vertex 0 3.354395 125
  vertex 2.9049911 1.6771975 125
 endloop
endfacet
facet normal 0.5 0.8660253 -0
 outer loop
  vertex 0 3.354395 -125.00037
  vertex 2.9049911 1.6771975 125
  vertex 2.9049911 1.6771975 -125.00037
 endloop
endfacet
facet normal 1 -0 0
 outer loop
  vertex 2.9049911 1.6771975 -125.00037
  vertex 2.9049911 1.6771975 125
  vertex 2.9049911 -1.6771975 125
 endloop
endfacet
facet normal 1 -0 0
 outer loop
  vertex 2.9049911 1.6771975 -125.00037
  vertex 2.9049911 -1.6771975 125
  vertex 2.9049911 -1.6771975 -125.00037
 endloop
endfacet
facet normal 0.5 -0.8660253 0
 outer loop
  vertex 2.9049911 -1.6771975 -125.00037
  vertex 2.9049911 -1.6771975 125
  vertex 0 -3.354395 125
 endloop
endfacet
facet normal 0.5 -0.8660253 0
 outer loop
  vertex 2.9049911 -1.6771975 -125.00037
  vertex 0 -3.354395 125
  vertex 0 -3.354395 -125.00037
 endloop
endfacet
facet normal -0.5 -0.8660253 -0
 outer loop
  vertex 0 -3.354395 -125.00037
  vertex 0 -3.354395 125
  vertex -2.9049911 -1.6771975 125
 endloop
endfacet
facet normal -0.5 -0.8660253 0
 outer loop
  vertex 0 -3.354395 -125.00037
  vertex -2.9049911 -1.6771975 125
  vertex -2.9049911 -1.6771975 -125.00037
 endloop
endfacet
facet normal -1 -0 -0
 outer loop
  vertex -2.9049911 -1.6771975 -125.00037
  vertex -2.9049911 -1.6771975 125
  vertex -2.9049911 1.6771975 125
 endloop
endfacet
facet normal -1 -0 0
 outer loop
  vertex -2.9049911 -1.6771975 -125.00037
  vertex -2.9049911 1.6771975 125
  vertex -2.9049911 1.6771975 -125.00037
 endloop
endfacet
facet normal -0.5 0.8660253 0
 outer loop
  vertex -2.9049911 1.6771975 -125.00037
  vertex -2.9049911 1.6771975 125
  vertex 0 3.354395 125
 endloop
endfacet
facet normal -0.5 0.8660253 0
 outer loop
  vertex -2.9049911 1.6771975 -125.00037
  vertex 0 3.354395 125
  vertex 0 3.354395 -125.00037
 endloop
endfacet
facet normal 0 -1 0
 outer loop
  vertex 2.1399999 -2.1399999 126.64
  vertex -2.1399999 -2.1399999 126.64
  vertex -2.1399999 -2.1399999 125
 endloop
endfacet
facet normal 0 -1 0
 outer loop
  vertex 2.1399999 -2.1399999 126.64
  vertex -2.1399999 -2.1399999 125
  vertex 2.1399999 -2.1399999 125
 endloop
endfacet
facet normal -1 -0 -0
 outer loop
  vertex -2.1399999 -2.1399999 125
  vertex -2.1399999 -2.1399999 126.64
  vertex -2.1399999 2.1399999 126.64
 endloop
endfacet
facet normal -1 -0 0
 outer loop
  vertex -2.1399999 -2.1399999 125
  vertex -2.1399999 2.1399999 126.64
  vertex -2.1399999 2.1399999 125
 endloop
endfacet
facet normal 0 1 -0
 outer loop
  vertex -2.1399999 2.1399999 126.64
  vertex 2.1399999 2.1399999 126.64
  vertex 2.1399999 2.1399999 125
 endloop
endfacet
facet normal 0 1 -0
 outer loop
  vertex -2.1399999 2.1399999 126.64
  vertex 2.1399999 2.1399999 125
  vertex -2.1399999 2.1399999 125
 endloop
endfacet
facet normal 1 0 0
 outer loop
  vertex 2.1399999 -2.1399999 125
  vertex 2.1399999 2.1399999 125
  vertex 2.1399999 2.1399999 126.64
 endloop
endfacet
facet normal 1 -0 0
 outer loop
  vertex 2.1399999 -2.1399999 125
  vertex 2.1399999 2.1399999 126.64
  vertex 2.1399999 -2.1399999 126.64
 endloop
endfacet
facet normal 0 -0 1
 outer loop
  vertex -2.1399999 2.1399999 126.64
  vertex -2.1399999 -2.1399999 126.64
  vertex -2.09 -2.09 126.64
 endloop
endfacet
facet normal 0 0 1
 outer loop
  vertex -2.1399999 2.1399999 126.64
  vertex -2.09 -2.09 126.64
  vertex -2.09 2.09 126.64
 endloop
endfacet
facet normal -0 -0 -1
 outer loop
  vertex -2.1399999 -2.1399999 125
  vertex -2.1399999 2.1399999 125
  vertex -2.09 2.09 125
 endloop
endfacet
facet normal -0 0 -1
 outer loop
  vertex -2.1399999 -2.1399999 125
  vertex -2.09 2.09 125
  vertex -2.09 -2.09 125
 endloop
endfacet
facet normal 0 0 -1
 outer loop
  vertex 2.1399999 2.1399999 125
  vertex 2.1399999 -2.1399999 125
  vertex 2.09 -2.09 125
 endloop
endfacet
facet normal 0 0 -1
 outer loop
  vertex 2.1399999 2.1399999 125
  vertex 2.09 -2.09 125
  vertex 2.09 2.09 125
 endloop
endfacet
facet normal 0 -0 1
 outer loop
  vertex 2.1399999 2.1399999 126.64
  vertex -2.1399999 2.1399999 126.64
  vertex -2.09 2.09 126.64
 endloop
endfacet
facet normal 0 -0 1
 outer loop
  vertex 2.1399999 2.1399999 126.64
  vertex -2.09 2.09 126.64
  vertex 2.09 2.09 126.64
 endloop
endfacet
facet normal -0 0 1
 outer loop
  vertex 2.1399999 -2.1399999 126.64
  vertex 2.1399999 2.1399999 126.64
  vertex 2.09 2.09 126.64
 endloop
endfacet
facet normal -0 0 1
 outer loop
  vertex 2.1399999 -2.1399999 126.64
  vertex 2.09 2.09 126.64
  vertex 2.09 -2.09 126.64
 endloop
endfacet
facet normal 0 0 1
 outer loop
  vertex -2.1399999 -2.1399999 126.64
  vertex 2.1399999 -2.1399999 126.64
  vertex 2.09 -2.09 126.64
 endloop
endfacet
facet normal -0 0 1
 outer loop
  vertex -2.1399999 -2.1399999 126.64
  vertex 2.09 -2.09 126.64
  vertex -2.09 -2.09 126.64
 endloop
endfacet
facet normal 0 -0 -1
 outer loop
  vertex 2.1399999 -2.1399999 125
  vertex -2.1399999 -2.1399999 125
  vertex -2.09 -2.09 125
 endloop
endfacet
facet normal -0 -0 -1
 outer loop
  vertex 2.1399999 -2.1399999 125
  vertex -2.09 -2.09 125
  vertex 2.09 -2.09 125
 endloop
endfacet
facet normal 0 0 -1
 outer loop
  vertex -2.1399999 2.1399999 125
  vertex 2.1399999 2.1399999 125
  vertex 2.09 2.09 125
 endloop
endfacet
facet normal 0 0 -1
 outer loop
  vertex -2.1399999 2.1399999 125
  vertex 2.09 2.09 125
  vertex -2.09 2.09 125
 endloop
endfacet
facet normal -1 -0 -0
 outer loop
  vertex 2.09 -2.09 125
  vertex 2.09 -2.09 126.64
  vertex 2.09 2.09 126.64
 endloop
endfacet
facet normal -1 -0 0
 outer loop
  vertex 2.09 -2.09 125
  vertex 2.09 2.09 126.64
  vertex 2.09 2.09 125
 endloop
endfacet
facet normal 0 -1 0
 outer loop
  vertex -2.09 2.09 126.64
  vertex -2.09 2.09 125
  vertex 2.09 2.09 125
 endloop
endfacet
facet normal -0 -1 -0
 outer loop
  vertex -2.09 2.09 126.64
  vertex 2.09 2.09 125
  vertex 2.09 2.09 126.64
 endloop
endfacet
facet normal 0 1 0
 outer loop
  vertex 2.09 -2.09 126.64
  vertex 2.09 -2.09 125
  vertex -2.09 -2.09 125
 endloop
endfacet
facet normal -0 1 0
 outer loop
  vertex 2.09 -2.09 126.64
  vertex -2.09 -2.09 125
  vertex -2.09 -2.09 126.64
 endloop
endfacet
facet normal 1 0 0
 outer loop
  vertex -2.09 2.09 126.64
  vertex -2.09 -2.09 126.64
  vertex -2.09 -2.09 125
 endloop
endfacet
facet normal 1 0 -0
 outer loop
  vertex -2.09 2.09 126.64
  vertex -2.09 -2.09 125
  vertex -2.09 2.09 125
 endloop
endfacet
facet normal 0 0 -1
 outer loop
  vertex 0 3.354395 -125.00037
  vertex 2.9049911 1.6771975 -125.00037
  vertex 2.8549912 1.64833 -125.00037
 endloop
endfacet
facet normal 0 0 -1
 outer loop
  vertex 0 3.354395 -125.00037
  vertex 2.8549912 1.64833 -125.00037
  vertex 0 3.29666 -125.00037
 endloop
endfacet
facet normal -0 0 1
 outer loop
  vertex 2.9049911 1.6771975 125
  vertex 0 3.354395 125
  vertex 0 3.29666 125
 endloop
endfacet
facet normal -0 -0 1
 outer loop
  vertex 2.9049911 1.6771975 125
  vertex 0 3.29666 125
  vertex 2.8549912 1.64833 125
 endloop
endfacet
facet normal 0 0 -1
 outer loop
  vertex 2.9049911 1.6771975 -125.00037
  vertex 2.9049911 -1.6771975 -125.00037
  vertex 2.8549912 -1.64833 -125.00037
 endloop
endfacet
facet normal 0 0 -1
 outer loop
  vertex 2.9049911 1.6771975 -125.00037
  vertex 2.8549912 -1.64833 -125.00037
  vertex 2.8549912 1.64833 -125.00037
 endloop
endfacet
facet normal -0 0 1
 outer loop
  vertex 2.9049911 -1.6771975 125
  vertex 2.9049911 1.6771975 125
  vertex 2.8549912 1.64833 125
 endloop
endfacet
facet normal -0 0 1
 outer loop
  vertex 2.9049911 -1.6771975 125
  vertex 2.8549912 1.64833 125
  vertex 2.8549912 -1.64833 125
 endloop
endfacet
facet normal 0 0 -1
 outer loop
  vertex 2.9049911 -1.6771975 -125.00037
  vertex 0 -3.354395 -125.00037
  vertex 0 -3.29666 -125.00037
 endloop
endfacet
facet normal 0 -0 -1
 outer loop
  vertex 2.9049911 -1.6771975 -125.00037
  vertex 0 -3.29666 -125.00037
  vertex 2.8549912 -1.64833 -125.00037
 endloop
endfacet
facet normal 0 0 1
 outer loop
  vertex 0 -3.354395 125
  vertex 2.9049911 -1.6771975 125
  vertex 2.8549912 -1.64833 125
 endloop
endfacet
facet normal -0 0 1
 outer loop
  vertex 0 -3.354395 125
  vertex 2.8549912 -1.64833 125
  vertex 0 -3.29666 125
 endloop
endfacet
facet normal 0 -0 -1
 outer loop
  vertex 0 -3.354395 -125.00037
  vertex -2.9049911 -1.6771975 -125.00037
  vertex -2.8549912 -1.64833 -125.00037
 endloop
endfacet
facet normal -0 -0 -1
 outer loop
  vertex 0 -3.354395 -125.00037
  vertex -2.8549912 -1.64833 -125.00037
  vertex 0 -3.29666 -125.00037
 endloop
endfacet
facet normal 0 0 1
 outer loop
  vertex -2.9049911 -1.6771975 125
  vertex 0 -3.354395 125
  vertex 0 -3.29666 125
 endloop
endfacet
facet normal 0 0 1
 outer loop
  vertex -2.9049911 -1.6771975 125
  vertex 0 -3.29666 125
  vertex -2.8549912 -1.64833 125
 endloop
endfacet
facet normal -0 -0 -1
 outer loop
  vertex -2.9049911 -1.6771975 -125.00037
  vertex -2.9049911 1.6771975 -125.00037
  vertex -2.8549912 1.64833 -125.00037
 endloop
endfacet
facet normal -0 0 -1
 outer loop
  vertex -2.9049911 -1.6771975 -125.00037
  vertex -2.8549912 1.64833 -125.00037
  vertex -2.8549912 -1.64833 -125.00037
 endloop
endfacet
facet normal 0 -0 1
 outer loop
  vertex -2.9049911 1.6771975 125
  vertex -2.9049911 -1.6771975 125
  vertex -2.8549912 -1.64833 125
 endloop
endfacet
facet normal 0 0 1
 outer loop
  vertex -2.9049911 1.6771975 125
  vertex -2.8549912 -1.64833 125
  vertex -2.8549912 1.64833 125
 endloop
endfacet
facet normal -0 0 -1
 outer loop
  vertex -2.9049911 1.6771975 -125.00037
  vertex 0 3.354395 -125.00037
  vertex 0 3.29666 -125.00037
 endloop
endfacet
facet normal -0 0 -1
 outer loop
  vertex -2.9049911 1.6771975 -125.00037
  vertex 0 3.29666 -125.00037
  vertex -2.8549912 1.64833 -125.00037
 endloop
endfacet
facet normal 0 -0 1
 outer loop
  vertex 0 3.354395 125
  vertex -2.9049911 1.6771975 125
  vertex -2.8549912 1.64833 125
 endloop
endfacet
facet normal 0 -0 1
 outer loop
  vertex 0 3.354395 125
  vertex -2.8549912 1.64833 125
  vertex 0 3.29666 125
 endloop
endfacet
facet normal 0 0 1
 outer loop
  vertex 2.1399999 -2.1399999 125.05
  vertex 2.9049911 -1.6771975 125.05
  vertex 2.9049911 1.6771975 125.05
 endloop
endfacet
facet normal 0 0 1
 outer loop
  vertex 2.1399999 -2.1399999 125.05
  vertex 2.9049911 1.6771975 125.05
  vertex 2.1399999 2.1399999 125.05
 endloop
endfacet
facet normal 0 0 1
 outer loop
  vertex -2.1399999 -2.1399999 125.05
  vertex 0 -3.354395 125.05
  vertex 2.1399999 -2.1399999 125.05
 endloop
endfacet
facet normal 0 0 1
 outer loop
  vertex -2.1399999 2.1399999 125.05
  vertex -2.9049911 1.6771975 125.05
  vertex -2.9049911 -1.6771975 125.05
 endloop
endfacet
facet normal 0 -0 1
 outer loop
  vertex -2.1399999 2.1399999 125.05
  vertex -2.9049911 -1.6771975 125.05
  vertex -2.1399999 -2.1399999 125.05
 endloop
endfacet
facet normal -0 0 1
 outer loop
  vertex 2.1399999 2.1399999 125.05
  vertex 0 3.354395 125.05
  vertex -2.1399999 2.1399999 125.05
 endloop
endfacet
facet normal 0 0 -1
 outer loop
  vertex 2.9049911 1.6771975 -125.05037
  vertex 2.9049911 -1.6771975 -125.05037
  vertex -3.2622693e-09 -3.354395 -125.05037
 endloop
endfacet
facet normal 0 0 -1
 outer loop
  vertex -3.2622693e-09 -3.354395 -125.05037
  vertex -2.9049911 -1.6771975 -125.05037
  vertex -2.9049911 1.6771975 -125.05037
 endloop
endfacet
facet normal -0 0 -1
 outer loop
  vertex -2.9049911 1.6771975 -125.05037
  vertex -3.2622693e-09 3.354395 -125.05037
  vertex 2.9049911 1.6771975 -125.05037
 endloop
endfacet
facet normal -0 -0 -1
 outer loop
  vertex -3.2622693e-09 -3.354395 -125.05037
  vertex -2.9049911 1.6771975 -125.05037
  vertex 2.9049911 1.6771975 -125.05037
 endloop
endfacet
facet normal -0.5 -0.8660254 -0
 outer loop
  vertex -3.2622693e-09 3.354395 -125.05037
  vertex 2.9049911 1.6771975 -125.05037
  vertex 2.9049911 1.6771975 -125.00037
 endloop
endfacet
facet normal -0.5 -0.8660254 0
 outer loop
  vertex -3.2622693e-09 3.354395 -125.05037
  vertex 2.9049911 1.6771975 -125.00037
  vertex 0 3.354395 -125.00037
 endloop
endfacet
facet normal -1 0 0
 outer loop
  vertex 2.9049911 1.6771975 -125.05037
  vertex 2.9049911 -1.6771975 -125.05037
  vertex 2.9049911 -1.6771975 -125.00037
 endloop
endfacet
facet normal -1 -0 -0
 outer loop
  vertex 2.9049911 1.6771975 -125.05037
  vertex 2.9049911 -1.6771975 -125.00037
  vertex 2.9049911 1.6771975 -125.00037
 endloop
endfacet
facet normal -0.5 0.8660254 3.26207e-08
 outer loop
  vertex 2.9049911 -1.6771975 -125.05037
  vertex -3.2622693e-09 -3.354395 -125.05037
  vertex 0 -3.354395 -125.00037
 endloop
endfacet
facet normal -0.5 0.8660254 0
 outer loop
  vertex 2.9049911 -1.6771975 -125.05037
  vertex 0 -3.354395 -125.00037
  vertex 2.9049911 -1.6771975 -125.00037
 endloop
endfacet
facet normal 0.5 0.8660254 0
 outer loop
  vertex -3.2622693e-09 -3.354395 -125.05037
  vertex -2.9049911 -1.6771975 -125.05037
  vertex -2.9049911 -1.6771975 -125.00037
 endloop
endfacet
facet normal 0.5 0.8660254 0
 outer loop
  vertex -3.2622693e-09 -3.354395 -125.05037
  vertex -2.9049911 -1.6771975 -125.00037
  vertex 0 -3.354395 -125.00037
 endloop
endfacet
facet normal 1 0 0
 outer loop
  vertex -2.9049911 -1.6771975 -125.05037
  vertex -2.9049911 1.6771975 -125.05037
  vertex -2.9049911 1.6771975 -125.00037
 endloop
endfacet
facet normal 1 -0 0
 outer loop
  vertex -2.9049911 -1.6771975 -125.05037
  vertex -2.9049911 1.6771975 -125.00037
  vertex -2.9049911 -1.6771975 -125.00037
 endloop
endfacet
facet normal 0.5 -0.8660254 -3.26207e-08
 outer loop
  vertex -2.9049911 1.6771975 -125.05037
  vertex -3.2622693e-09 3.354395 -125.05037
  vertex 0 3.354395 -125.00037
 endloop
endfacet
facet normal 0.5 -0.8660254 0
 outer loop
  vertex -2.9049911 1.6771975 -125.05037
  vertex 0 3.354395 -125.00037
  vertex -2.9049911 1.6771975 -125.00037
 endloop
endfacet
facet normal 1 0 -0
 outer loop
  vertex 2.9049911 -1.6771975 125.05
  vertex 2.9049911 -1.6771975 125
  vertex 2.9049911 1.6771975 125
 endloop
endfacet
facet normal 1 0 0
 outer loop
  vertex 2.9049911 -1.6771975 125.05
  vertex 2.9049911 1.6771975 125
  vertex 2.9049911 1.6771975 125.05
 endloop
endfacet
facet normal -1 0 0
 outer loop
  vertex -2.9049911 1.6771975 125.05
  vertex -2.9049911 1.6771975 125
  vertex -2.9049911 -1.6771975 125
 endloop
endfacet
facet normal -1 0 0
 outer loop
  vertex -2.9049911 1.6771975 125.05
  vertex -2.9049911 -1.6771975 125
  vertex -2.9049911 -1.6771975 125.05
 endloop
endfacet
facet normal -1 0 0
 outer loop
  vertex -2.1399999 -2.1399999 125.05
  vertex -2.1399999 2.1399999 125.05
  vertex -2.1399999 2.1399999 125
 endloop
endfacet
facet normal -1 0 0
 outer loop
  vertex -2.1399999 -2.1399999 125.05
  vertex -2.1399999 2.1399999 125
  vertex -2.1399999 -2.1399999 125
 endloop
endfacet
facet normal 1 0 0
 outer loop
  vertex 2.1399999 2.1399999 125.05
  vertex 2.1399999 -2.1399999 125.05
  vertex 2.1399999 -2.1399999 125
 endloop
endfacet
facet normal 1 0 -0
 outer loop
  vertex 2.1399999 2.1399999 125.05
  vertex 2.1399999 -2.1399999 125
  vertex 2.1399999 2.1399999 125
 endloop
endfacet
facet normal 0 -1 0
 outer loop
  vertex 2.1399999 -2.1399999 125.05
  vertex -2.1399999 -2.1399999 125.05
  vertex -2.1399999 -2.1399999 125
 endloop
endfacet
facet normal 0 -1 0
 outer loop
  vertex 2.1399999 -2.1399999 125.05
  vertex -2.1399999 -2.1399999 125
  vertex 2.1399999 -2.1399999 125
 endloop
endfacet
facet normal 0 1 -0
 outer loop
  vertex -2.1399999 2.1399999 125.05
  vertex 2.1399999 2.1399999 125.05
  vertex 2.1399999 2.1399999 125
 endloop
endfacet
facet normal 0 1 -0
 outer loop
  vertex -2.1399999 2.1399999 125.05
  vertex 2.1399999 2.1399999 125
  vertex -2.1399999 2.1399999 125
 endloop
endfacet
facet normal 0.51762366 0.85560834 -0
 outer loop
  vertex 2.9049911 1.6771975 125.05
  vertex 2.9049911 1.6771975 125
  vertex 2.1399999 2.1399999 125
 endloop
endfacet
facet normal 0.51762366 0.85560834 0
 outer loop
  vertex 2.9049911 1.6771975 125.05
  vertex 2.1399999 2.1399999 125
  vertex 2.1399999 2.1399999 125.05
 endloop
endfacet
facet normal 0.51762366 -0.85560834 0
 outer loop
  vertex 2.1399999 -2.1399999 125.05
  vertex 2.1399999 -2.1399999 125
  vertex 2.9049911 -1.6771975 125
 endloop
endfacet
facet normal 0.51762366 -0.85560834 0
 outer loop
  vertex 2.1399999 -2.1399999 125.05
  vertex 2.9049911 -1.6771975 125
  vertex 2.9049911 -1.6771975 125.05
 endloop
endfacet
facet normal -0.4935442 -0.8697207 0
 outer loop
  vertex -2.1399999 -2.1399999 125.05
  vertex -2.1399999 -2.1399999 125
  vertex 0 -3.354395 125
 endloop
endfacet
facet normal -0.4935442 -0.8697207 -0
 outer loop
  vertex -2.1399999 -2.1399999 125.05
  vertex 0 -3.354395 125
  vertex 0 -3.354395 125.05
 endloop
endfacet
facet normal 0.4935442 -0.8697207 0
 outer loop
  vertex 0 -3.354395 125.05
  vertex 0 -3.354395 125
  vertex 2.1399999 -2.1399999 125
 endloop
endfacet
facet normal 0.4935442 -0.8697207 0
 outer loop
  vertex 0 -3.354395 125.05
  vertex 2.1399999 -2.1399999 125
  vertex 2.1399999 -2.1399999 125.05
 endloop
endfacet
facet normal -0.51762366 -0.85560834 0
 outer loop
  vertex -2.9049911 -1.6771975 125.05
  vertex -2.9049911 -1.6771975 125
  vertex -2.1399999 -2.1399999 125
 endloop
endfacet
facet normal -0.51762366 -0.85560834 -0
 outer loop
  vertex -2.9049911 -1.6771975 125.05
  vertex -2.1399999 -2.1399999 125
  vertex -2.1399999 -2.1399999 125.05
 endloop
endfacet
facet normal -0.51762366 0.85560834 0
 outer loop
  vertex -2.1399999 2.1399999 125.05
  vertex -2.1399999 2.1399999 125
  vertex -2.9049911 1.6771975 125
 endloop
endfacet
facet normal -0.51762366 0.85560834 0
 outer loop
  vertex -2.1399999 2.1399999 125.05
  vertex -2.9049911 1.6771975 125
  vertex -2.9049911 1.6771975 125.05
 endloop
endfacet
facet normal -0.4935442 0.8697207 0
 outer loop
  vertex 0 3.354395 125.05
  vertex 0 3.354395 125
  vertex -2.1399999 2.1399999 125
 endloop
endfacet
facet normal -0.4935442 0.8697207 0
 outer loop
  vertex 0 3.354395 125.05
  vertex -2.1399999 2.1399999 125
  vertex -2.1399999 2.1399999 125.05
 endloop
endfacet
facet normal 0.4935442 0.8697207 -0
 outer loop
  vertex 2.1399999 2.1399999 125.05
  vertex 2.1399999 2.1399999 125
  vertex 0 3.354395 125
 endloop
endfacet
facet normal 0.4935442 0.8697207 0
 outer loop
  vertex 2.1399999 2.1399999 125.05
  vertex 0 3.354395 125
  vertex 0 3.354395 125.05
 endloop
endfacet
facet normal -0 0 1
 outer loop
  vertex 2.1399999 -2.1399999 126.69
  vertex 2.1399999 2.1399999 126.69
  vertex -2.1399999 2.1399999 126.69
 endloop
endfacet
facet normal -0 0 1
 outer loop
  vertex 2.1399999 -2.1399999 126.69
  vertex -2.1399999 2.1399999 126.69
  vertex -2.1399999 -2.1399999 126.69
 endloop
endfacet
facet normal -1 0 0
 outer loop
  vertex -2.1399999 2.1399999 126.69
  vertex -2.1399999 2.1399999 126.64
  vertex -2.1399999 -2.1399999 126.64
 endloop
endfacet
facet normal -1 0 0
 outer loop
  vertex -2.1399999 2.1399999 126.69
  vertex -2.1399999 -2.1399999 126.64
  vertex -2.1399999 -2.1399999 126.69
 endloop
endfacet
facet normal 0 1 0
 outer loop
  vertex 2.1399999 2.1399999 126.69
  vertex 2.1399999 2.1399999 126.64
  vertex -2.1399999 2.1399999 126.64
 endloop
endfacet
facet normal -0 1 0
 outer loop
  vertex 2.1399999 2.1399999 126.69
  vertex -2.1399999 2.1399999 126.64
  vertex -2.1399999 2.1399999 126.69
 endloop
endfacet
facet normal 1 0 -0
 outer loop
  vertex 2.1399999 -2.1399999 126.69
  vertex 2.1399999 -2.1399999 126.64
  vertex 2.1399999 2.1399999 126.64
 endloop
endfacet
facet normal 1 0 0
 outer loop
  vertex 2.1399999 -2.1399999 126.69
  vertex 2.1399999 2.1399999 126.64
  vertex 2.1399999 2.1399999 126.69
 endloop
endfacet
facet normal 0 -1 0
 outer loop
  vertex -2.1399999 -2.1399999 126.69
  vertex -2.1399999 -2.1399999 126.64
  vertex 2.1399999 -2.1399999 126.64
 endloop
endfacet
facet normal -0 -1 -0
 outer loop
  vertex -2.1399999 -2.1399999 126.69
  vertex 2.1399999 -2.1399999 126.64
  vertex 2.1399999 -2.1399999 126.69
 endloop
endfacet
facet normal -0.5 -0.8660254 0
 outer loop
  vertex 0 3.29666 125
  vertex 0 3.29666 -125.00037
  vertex 2.8549912 1.64833 -125.00037
 endloop
endfacet
facet normal -0.5 -0.8660254 -0
 outer loop
  vertex 0 3.29666 125
  vertex 2.8549912 1.64833 -125.00037
  vertex 2.8549912 1.64833 125
 endloop
endfacet
facet normal 0 0 -1
 outer loop
  vertex 0 3.29666 -125.00037
  vertex 2.8549912 1.64833 -125.00037
  vertex 2.8549912 -1.64833 -125.00037
 endloop
endfacet
facet normal 0 0 -1
 outer loop
  vertex 2.8549912 -1.64833 -125.00037
  vertex 0 -3.29666 -125.00037
  vertex -2.8549912 -1.64833 -125.00037
 endloop
endfacet
facet normal 0 -0 -1
 outer loop
  vertex -2.8549912 -1.64833 -125.00037
  vertex -2.8549912 1.64833 -125.00037
  vertex 0 3.29666 -125.00037
 endloop
endfacet
facet normal 0 -0 -1
 outer loop
  vertex 2.8549912 -1.64833 -125.00037
  vertex -2.8549912 -1.64833 -125.00037
  vertex 0 3.29666 -125.00037
 endloop
endfacet
facet normal 0.5 -0.8660254 0
 outer loop
  vertex 0 3.29666 -125.00037
  vertex 0 3.29666 125
  vertex -2.8549912 1.64833 125
 endloop
endfacet
facet normal 0.5 -0.8660254 0
 outer loop
  vertex 0 3.29666 -125.00037
  vertex -2.8549912 1.64833 125
  vertex -2.8549912 1.64833 -125.00037
 endloop
endfacet
facet normal 1 -0 0
 outer loop
  vertex -2.8549912 1.64833 -125.00037
  vertex -2.8549912 1.64833 125
  vertex -2.8549912 -1.64833 125
 endloop
endfacet
facet normal 1 -0 0
 outer loop
  vertex -2.8549912 1.64833 -125.00037
  vertex -2.8549912 -1.64833 125
  vertex -2.8549912 -1.64833 -125.00037
 endloop
endfacet
facet normal 0.5 0.8660254 0
 outer loop
  vertex -2.8549912 -1.64833 -125.00037
  vertex -2.8549912 -1.64833 125
  vertex 0 -3.29666 125
 endloop
endfacet
facet normal 0.5 0.8660254 -0
 outer loop
  vertex -2.8549912 -1.64833 -125.00037
  vertex 0 -3.29666 125
  vertex 0 -3.29666 -125.00037
 endloop
endfacet
facet normal -0.5 0.8660254 0
 outer loop
  vertex 0 -3.29666 -125.00037
  vertex 0 -3.29666 125
  vertex 2.8549912 -1.64833 125
 endloop
endfacet
facet normal -0.5 0.8660254 0
 outer loop
  vertex 0 -3.29666 -125.00037
  vertex 2.8549912 -1.64833 125
  vertex 2.8549912 -1.64833 -125.00037
 endloop
endfacet
facet normal -1 -0 -0
 outer loop
  vertex 2.8549912 -1.64833 -125.00037
  vertex 2.8549912 -1.64833 125
  vertex 2.8549912 1.64833 125
 endloop
endfacet
facet normal -1 -0 0
 outer loop
  vertex 2.8549912 -1.64833 -125.00037
  vertex 2.8549912 1.64833 125
  vertex 2.8549912 1.64833 -125.00037
 endloop
endfacet
facet normal 0 0 -1
 outer loop
  vertex -2.09 2.09 125
  vertex -2.09 -2.09 125
  vertex -2.8549912 -1.64833 125
 endloop
endfacet
facet normal 0 0 -1
 outer loop
  vertex -2.09 2.09 125
  vertex -2.8549912 -1.64833 125
  vertex -2.8549912 1.64833 125
 endloop
endfacet
facet normal 0 0 -1
 outer loop
  vertex -2.09 -2.09 125
  vertex 2.09 -2.09 125
  vertex 0 -3.29666 125
 endloop
endfacet
facet normal -0 -0 -1
 outer loop
  vertex 2.09 -2.09 125
  vertex 2.09 2.09 125
  vertex 2.8549912 1.64833 125
 endloop
endfacet
facet normal -0 0 -1
 outer loop
  vertex 2.09 -2.09 125
  vertex 2.8549912 1.64833 125
  vertex 2.8549912 -1.64833 125
 endloop
endfacet
facet normal 0 -0 -1
 outer loop
  vertex 2.09 2.09 125
  vertex -2.09 2.09 125
  vertex 0 3.29666 125
 endloop
endfacet
facet normal 0 0 -1
 outer loop
  vertex 2.09 -2.09 126.64
  vertex -2.09 -2.09 126.64
  vertex -2.09 2.09 126.64
 endloop
endfacet
facet normal -0 -0 -1
 outer loop
  vertex 2.09 -2.09 126.64
  vertex -2.09 2.09 126.64
  vertex 2.09 2.09 126.64
 endloop
endfacet
endsolid 
