solid 
facet normal -1 -0 -0
 outer loop
  vertex -0.004205 2.5000096e-05 0.125
  vertex -0.004205 2.5000096e-05 0.12664
  vertex -0.004205 0.004205 0.12664
 endloop
endfacet
facet normal -1 -0 0
 outer loop
  vertex -0.004205 2.5000096e-05 0.125
  vertex -0.004205 0.004205 0.12664
  vertex -0.004205 0.004205 0.125
 endloop
endfacet
facet normal 0 1 0
 outer loop
  vertex -0.004205 0.004205 0.125
  vertex -0.004205 0.004205 0.12664
  vertex -2.5000096e-05 0.004205 0.12664
 endloop
endfacet
facet normal 0 1 -0
 outer loop
  vertex -0.004205 0.004205 0.125
  vertex -2.5000096e-05 0.004205 0.12664
  vertex -2.5000096e-05 0.004205 0.125
 endloop
endfacet
facet normal 1 -0 0
 outer loop
  vertex -2.5000096e-05 0.004205 0.125
  vertex -2.5000096e-05 0.004205 0.12664
  vertex -2.5000096e-05 2.5000096e-05 0.12664
 endloop
endfacet
facet normal 1 -0 0
 outer loop
  vertex -2.5000096e-05 0.004205 0.125
  vertex -2.5000096e-05 2.5000096e-05 0.12664
  vertex -2.5000096e-05 2.5000096e-05 0.125
 endloop
endfacet
facet normal 0 -1 0
 outer loop
  vertex -2.5000096e-05 2.5000096e-05 0.125
  vertex -2.5000096e-05 2.5000096e-05 0.12664
  vertex -0.004205 2.5000096e-05 0.12664
 endloop
endfacet
facet normal 0 -1 0
 outer loop
  vertex -2.5000096e-05 2.5000096e-05 0.125
  vertex -0.004205 2.5000096e-05 0.12664
  vertex -0.004205 2.5000096e-05 0.125
 endloop
endfacet
facet normal 0 0 -1
 outer loop
  vertex -0.004205 0.004205 0.125
  vertex -2.5000096e-05 0.004205 0.125
  vertex -2.5000096e-05 2.5000096e-05 0.125
 endloop
endfacet
facet normal 0 0 -1
 outer loop
  vertex -0.004205 0.004205 0.125
  vertex -2.5000096e-05 2.5000096e-05 0.125
  vertex -0.004205 2.5000096e-05 0.125
 endloop
endfacet
facet normal 0 0 1
 outer loop
  vertex -2.5000096e-05 0.004205 0.12664
  vertex -0.004205 0.004205 0.12664
  vertex -0.004205 2.5000096e-05 0.12664
 endloop
endfacet
facet normal 0 -0 1
 outer loop
  vertex -2.5000096e-05 0.004205 0.12664
  vertex -0.004205 2.5000096e-05 0.12664
  vertex -2.5000096e-05 2.5000096e-05 0.12664
 endloop
endfacet
endsolid 
