solid 
facet normal 0.5 0.8660254 0
 outer loop
  vertex 0 0.003354395 -0.12500037
  vertex 0 0.003354395 0.125
  vertex 0.0029049914 0.0016771975 0.125
 endloop
endfacet
facet normal 0.5 0.8660254 -0
 outer loop
  vertex 0 0.003354395 -0.12500037
  vertex 0.0029049914 0.0016771975 0.125
  vertex 0.0029049914 0.0016771975 -0.12500037
 endloop
endfacet
facet normal 1 -0 0
 outer loop
  vertex 0.0029049914 0.0016771975 -0.12500037
  vertex 0.0029049914 0.0016771975 0.125
  vertex 0.0029049914 -0.0016771975 0.125
 endloop
endfacet
facet normal 1 -0 0
 outer loop
  vertex 0.0029049914 0.0016771975 -0.12500037
  vertex 0.0029049914 -0.0016771975 0.125
  vertex 0.0029049914 -0.0016771975 -0.12500037
 endloop
endfacet
facet normal 0.5 -0.8660254 0
 outer loop
  vertex 0.0029049914 -0.0016771975 -0.12500037
  vertex 0.0029049914 -0.0016771975 0.125
  vertex 0 -0.003354395 0.125
 endloop
endfacet
facet normal 0.5 -0.8660254 0
 outer loop
  vertex 0.0029049914 -0.0016771975 -0.12500037
  vertex 0 -0.003354395 0.125
  vertex 0 -0.003354395 -0.12500037
 endloop
endfacet
facet normal -0.5 -0.8660254 -0
 outer loop
  vertex 0 -0.003354395 -0.12500037
  vertex 0 -0.003354395 0.125
  vertex -0.0029049914 -0.0016771975 0.125
 endloop
endfacet
facet normal -0.5 -0.8660254 0
 outer loop
  vertex 0 -0.003354395 -0.12500037
  vertex -0.0029049914 -0.0016771975 0.125
  vertex -0.0029049914 -0.0016771975 -0.12500037
 endloop
endfacet
facet normal -1 -0 -0
 outer loop
  vertex -0.0029049914 -0.0016771975 -0.12500037
  vertex -0.0029049914 -0.0016771975 0.125
  vertex -0.0029049914 0.0016771975 0.125
 endloop
endfacet
facet normal -1 -0 0
 outer loop
  vertex -0.0029049914 -0.0016771975 -0.12500037
  vertex -0.0029049914 0.0016771975 0.125
  vertex -0.0029049914 0.0016771975 -0.12500037
 endloop
endfacet
facet normal -0.5 0.8660254 0
 outer loop
  vertex -0.0029049914 0.0016771975 -0.12500037
  vertex -0.0029049914 0.0016771975 0.125
  vertex 0 0.003354395 0.125
 endloop
endfacet
facet normal -0.5 0.8660254 0
 outer loop
  vertex -0.0029049914 0.0016771975 -0.12500037
  vertex 0 0.003354395 0.125
  vertex 0 0.003354395 -0.12500037
 endloop
endfacet
facet normal 0 -1 0
 outer loop
  vertex 0.00214 -0.00214 0.12664
  vertex -0.00214 -0.00214 0.12664
  vertex -0.00214 -0.00214 0.125
 endloop
endfacet
facet normal 0 -1 0
 outer loop
  vertex 0.00214 -0.00214 0.12664
  vertex -0.00214 -0.00214 0.125
  vertex 0.00214 -0.00214 0.125
 endloop
endfacet
facet normal -1 -0 -0
 outer loop
  vertex -0.00214 -0.00214 0.125
  vertex -0.00214 -0.00214 0.12664
  vertex -0.00214 0.00214 0.12664
 endloop
endfacet
facet normal -1 -0 0
 outer loop
  vertex -0.00214 -0.00214 0.125
  vertex -0.00214 0.00214 0.12664
  vertex -0.00214 0.00214 0.125
 endloop
endfacet
facet normal 0 1 -0
 outer loop
  vertex -0.00214 0.00214 0.12664
  vertex 0.00214 0.00214 0.12664
  vertex 0.00214 0.00214 0.125
 endloop
endfacet
facet normal 0 1 -0
 outer loop
  vertex -0.00214 0.00214 0.12664
  vertex 0.00214 0.00214 0.125
  vertex -0.00214 0.00214 0.125
 endloop
endfacet
facet normal 1 0 0
 outer loop
  vertex 0.00214 -0.00214 0.125
  vertex 0.00214 0.00214 0.125
  vertex 0.00214 0.00214 0.12664
 endloop
endfacet
facet normal 1 -0 0
 outer loop
  vertex 0.00214 -0.00214 0.125
  vertex 0.00214 0.00214 0.12664
  vertex 0.00214 -0.00214 0.12664
 endloop
endfacet
facet normal 0 -0 1
 outer loop
  vertex -0.00214 0.00214 0.12664
  vertex -0.00214 -0.00214 0.12664
  vertex -0.00209 -0.00209 0.12664
 endloop
endfacet
facet normal 0 0 1
 outer loop
  vertex -0.00214 0.00214 0.12664
  vertex -0.00209 -0.00209 0.12664
  vertex -0.00209 0.00209 0.12664
 endloop
endfacet
facet normal -0 -0 -1
 outer loop
  vertex -0.00214 -0.00214 0.125
  vertex -0.00214 0.00214 0.125
  vertex -0.00209 0.00209 0.125
 endloop
endfacet
facet normal -0 0 -1
 outer loop
  vertex -0.00214 -0.00214 0.125
  vertex -0.00209 0.00209 0.125
  vertex -0.00209 -0.00209 0.125
 endloop
endfacet
facet normal 0 0 -1
 outer loop
  vertex 0.00214 0.00214 0.125
  vertex 0.00214 -0.00214 0.125
  vertex 0.00209 -0.00209 0.125
 endloop
endfacet
facet normal 0 0 -1
 outer loop
  vertex 0.00214 0.00214 0.125
  vertex 0.00209 -0.00209 0.125
  vertex 0.00209 0.00209 0.125
 endloop
endfacet
facet normal 0 -0 1
 outer loop
  vertex 0.00214 0.00214 0.12664
  vertex -0.00214 0.00214 0.12664
  vertex -0.00209 0.00209 0.12664
 endloop
endfacet
facet normal 0 -0 1
 outer loop
  vertex 0.00214 0.00214 0.12664
  vertex -0.00209 0.00209 0.12664
  vertex 0.00209 0.00209 0.12664
 endloop
endfacet
facet normal -0 0 1
 outer loop
  vertex 0.00214 -0.00214 0.12664
  vertex 0.00214 0.00214 0.12664
  vertex 0.00209 0.00209 0.12664
 endloop
endfacet
facet normal -0 0 1
 outer loop
  vertex 0.00214 -0.00214 0.12664
  vertex 0.00209 0.00209 0.12664
  vertex 0.00209 -0.00209 0.12664
 endloop
endfacet
facet normal 0 0 1
 outer loop
  vertex -0.00214 -0.00214 0.12664
  vertex 0.00214 -0.00214 0.12664
  vertex 0.00209 -0.00209 0.12664
 endloop
endfacet
facet normal -0 0 1
 outer loop
  vertex -0.00214 -0.00214 0.12664
  vertex 0.00209 -0.00209 0.12664
  vertex -0.00209 -0.00209 0.12664
 endloop
endfacet
facet normal 0 -0 -1
 outer loop
  vertex 0.00214 -0.00214 0.125
  vertex -0.00214 -0.00214 0.125
  vertex -0.00209 -0.00209 0.125
 endloop
endfacet
facet normal -0 -0 -1
 outer loop
  vertex 0.00214 -0.00214 0.125
  vertex -0.00209 -0.00209 0.125
  vertex 0.00209 -0.00209 0.125
 endloop
endfacet
facet normal 0 0 -1
 outer loop
  vertex -0.00214 0.00214 0.125
  vertex 0.00214 0.00214 0.125
  vertex 0.00209 0.00209 0.125
 endloop
endfacet
facet normal 0 0 -1
 outer loop
  vertex -0.00214 0.00214 0.125
  vertex 0.00209 0.00209 0.125
  vertex -0.00209 0.00209 0.125
 endloop
endfacet
facet normal -1 -0 -0
 outer loop
  vertex 0.00209 -0.00209 0.125
  vertex 0.00209 -0.00209 0.12664
  vertex 0.00209 0.00209 0.12664
 endloop
endfacet
facet normal -1 -0 0
 outer loop
  vertex 0.00209 -0.00209 0.125
  vertex 0.00209 0.00209 0.12664
  vertex 0.00209 0.00209 0.125
 endloop
endfacet
facet normal 0 -1 0
 outer loop
  vertex -0.00209 0.00209 0.12664
  vertex -0.00209 0.00209 0.125
  vertex 0.00209 0.00209 0.125
 endloop
endfacet
facet normal -0 -1 -0
 outer loop
  vertex -0.00209 0.00209 0.12664
  vertex 0.00209 0.00209 0.125
  vertex 0.00209 0.00209 0.12664
 endloop
endfacet
facet normal 0 1 0
 outer loop
  vertex 0.00209 -0.00209 0.12664
  vertex 0.00209 -0.00209 0.125
  vertex -0.00209 -0.00209 0.125
 endloop
endfacet
facet normal -0 1 0
 outer loop
  vertex 0.00209 -0.00209 0.12664
  vertex -0.00209 -0.00209 0.125
  vertex -0.00209 -0.00209 0.12664
 endloop
endfacet
facet normal 1 0 0
 outer loop
  vertex -0.00209 0.00209 0.12664
  vertex -0.00209 -0.00209 0.12664
  vertex -0.00209 -0.00209 0.125
 endloop
endfacet
facet normal 1 0 -0
 outer loop
  vertex -0.00209 0.00209 0.12664
  vertex -0.00209 -0.00209 0.125
  vertex -0.00209 0.00209 0.125
 endloop
endfacet
facet normal 0 0 -1
 outer loop
  vertex 0 0.003354395 -0.12500037
  vertex 0.0029049914 0.0016771975 -0.12500037
  vertex 0.0028549912 0.00164833 -0.12500037
 endloop
endfacet
facet normal 0 0 -1
 outer loop
  vertex 0 0.003354395 -0.12500037
  vertex 0.0028549912 0.00164833 -0.12500037
  vertex 0 0.00329666 -0.12500037
 endloop
endfacet
facet normal -0 0 1
 outer loop
  vertex 0.0029049914 0.0016771975 0.125
  vertex 0 0.003354395 0.125
  vertex 0 0.00329666 0.125
 endloop
endfacet
facet normal -0 -0 1
 outer loop
  vertex 0.0029049914 0.0016771975 0.125
  vertex 0 0.00329666 0.125
  vertex 0.0028549912 0.00164833 0.125
 endloop
endfacet
facet normal 0 0 -1
 outer loop
  vertex 0.0029049914 0.0016771975 -0.12500037
  vertex 0.0029049914 -0.0016771975 -0.12500037
  vertex 0.0028549912 -0.00164833 -0.12500037
 endloop
endfacet
facet normal 0 0 -1
 outer loop
  vertex 0.0029049914 0.0016771975 -0.12500037
  vertex 0.0028549912 -0.00164833 -0.12500037
  vertex 0.0028549912 0.00164833 -0.12500037
 endloop
endfacet
facet normal -0 0 1
 outer loop
  vertex 0.0029049914 -0.0016771975 0.125
  vertex 0.0029049914 0.0016771975 0.125
  vertex 0.0028549912 0.00164833 0.125
 endloop
endfacet
facet normal -0 0 1
 outer loop
  vertex 0.0029049914 -0.0016771975 0.125
  vertex 0.0028549912 0.00164833 0.125
  vertex 0.0028549912 -0.00164833 0.125
 endloop
endfacet
facet normal 0 0 -1
 outer loop
  vertex 0.0029049914 -0.0016771975 -0.12500037
  vertex 0 -0.003354395 -0.12500037
  vertex 0 -0.00329666 -0.12500037
 endloop
endfacet
facet normal 0 -0 -1
 outer loop
  vertex 0.0029049914 -0.0016771975 -0.12500037
  vertex 0 -0.00329666 -0.12500037
  vertex 0.0028549912 -0.00164833 -0.12500037
 endloop
endfacet
facet normal 0 0 1
 outer loop
  vertex 0 -0.003354395 0.125
  vertex 0.0029049914 -0.0016771975 0.125
  vertex 0.0028549912 -0.00164833 0.125
 endloop
endfacet
facet normal -0 0 1
 outer loop
  vertex 0 -0.003354395 0.125
  vertex 0.0028549912 -0.00164833 0.125
  vertex 0 -0.00329666 0.125
 endloop
endfacet
facet normal 0 -0 -1
 outer loop
  vertex 0 -0.003354395 -0.12500037
  vertex -0.0029049914 -0.0016771975 -0.12500037
  vertex -0.0028549912 -0.00164833 -0.12500037
 endloop
endfacet
facet normal -0 -0 -1
 outer loop
  vertex 0 -0.003354395 -0.12500037
  vertex -0.0028549912 -0.00164833 -0.12500037
  vertex 0 -0.00329666 -0.12500037
 endloop
endfacet
facet normal 0 0 1
 outer loop
  vertex -0.0029049914 -0.0016771975 0.125
  vertex 0 -0.003354395 0.125
  vertex 0 -0.00329666 0.125
 endloop
endfacet
facet normal 0 0 1
 outer loop
  vertex -0.0029049914 -0.0016771975 0.125
  vertex 0 -0.00329666 0.125
  vertex -0.0028549912 -0.00164833 0.125
 endloop
endfacet
facet normal -0 -0 -1
 outer loop
  vertex -0.0029049914 -0.0016771975 -0.12500037
  vertex -0.0029049914 0.0016771975 -0.12500037
  vertex -0.0028549912 0.00164833 -0.12500037
 endloop
endfacet
facet normal -0 0 -1
 outer loop
  vertex -0.0029049914 -0.0016771975 -0.12500037
  vertex -0.0028549912 0.00164833 -0.12500037
  vertex -0.0028549912 -0.00164833 -0.12500037
 endloop
endfacet
facet normal 0 -0 1
 outer loop
  vertex -0.0029049914 0.0016771975 0.125
  vertex -0.0029049914 -0.0016771975 0.125
  vertex -0.0028549912 -0.00164833 0.125
 endloop
endfacet
facet normal 0 0 1
 outer loop
  vertex -0.0029049914 0.0016771975 0.125
  vertex -0.0028549912 -0.00164833 0.125
  vertex -0.0028549912 0.00164833 0.125
 endloop
endfacet
facet normal -0 0 -1
 outer loop
  vertex -0.0029049914 0.0016771975 -0.12500037
  vertex 0 0.003354395 -0.12500037
  vertex 0 0.00329666 -0.12500037
 endloop
endfacet
facet normal -0 0 -1
 outer loop
  vertex -0.0029049914 0.0016771975 -0.12500037
  vertex 0 0.00329666 -0.12500037
  vertex -0.0028549912 0.00164833 -0.12500037
 endloop
endfacet
facet normal 0 -0 1
 outer loop
  vertex 0 0.003354395 0.125
  vertex -0.0029049914 0.0016771975 0.125
  vertex -0.0028549912 0.00164833 0.125
 endloop
endfacet
facet normal 0 -0 1
 outer loop
  vertex 0 0.003354395 0.125
  vertex -0.0028549912 0.00164833 0.125
  vertex 0 0.00329666 0.125
 endloop
endfacet
facet normal 0 0 1
 outer loop
  vertex 0.00214 -0.00214 0.12505001
  vertex 0.0029049914 -0.0016771975 0.12505001
  vertex 0.0029049914 0.0016771975 0.12505001
 endloop
endfacet
facet normal 0 0 1
 outer loop
  vertex 0.00214 -0.00214 0.12505001
  vertex 0.0029049914 0.0016771975 0.12505001
  vertex 0.00214 0.00214 0.12505001
 endloop
endfacet
facet normal 0 0 1
 outer loop
  vertex -0.00214 -0.00214 0.12505001
  vertex 0 -0.003354395 0.12505001
  vertex 0.00214 -0.00214 0.12505001
 endloop
endfacet
facet normal 0 0 1
 outer loop
  vertex -0.00214 0.00214 0.12505001
  vertex -0.0029049914 0.0016771975 0.12505001
  vertex -0.0029049914 -0.0016771975 0.12505001
 endloop
endfacet
facet normal 0 -0 1
 outer loop
  vertex -0.00214 0.00214 0.12505001
  vertex -0.0029049914 -0.0016771975 0.12505001
  vertex -0.00214 -0.00214 0.12505001
 endloop
endfacet
facet normal -0 0 1
 outer loop
  vertex 0.00214 0.00214 0.12505001
  vertex 0 0.003354395 0.12505001
  vertex -0.00214 0.00214 0.12505001
 endloop
endfacet
facet normal 0 0 -1
 outer loop
  vertex 0.0029049914 0.0016771975 -0.12505038
  vertex 0.0029049914 -0.0016771975 -0.12505038
  vertex -3.2622696e-12 -0.003354395 -0.12505038
 endloop
endfacet
facet normal 0 0 -1
 outer loop
  vertex -3.2622696e-12 -0.003354395 -0.12505038
  vertex -0.0029049914 -0.0016771975 -0.12505038
  vertex -0.0029049914 0.0016771975 -0.12505038
 endloop
endfacet
facet normal -0 0 -1
 outer loop
  vertex -0.0029049914 0.0016771975 -0.12505038
  vertex -3.2622696e-12 0.003354395 -0.12505038
  vertex 0.0029049914 0.0016771975 -0.12505038
 endloop
endfacet
facet normal -0 -0 -1
 outer loop
  vertex -3.2622696e-12 -0.003354395 -0.12505038
  vertex -0.0029049914 0.0016771975 -0.12505038
  vertex 0.0029049914 0.0016771975 -0.12505038
 endloop
endfacet
facet normal -0.5 -0.86602545 -0
 outer loop
  vertex -3.2622696e-12 0.003354395 -0.12505038
  vertex 0.0029049914 0.0016771975 -0.12505038
  vertex 0.0029049914 0.0016771975 -0.12500037
 endloop
endfacet
facet normal -0.5 -0.86602545 0
 outer loop
  vertex -3.2622696e-12 0.003354395 -0.12505038
  vertex 0.0029049914 0.0016771975 -0.12500037
  vertex 0 0.003354395 -0.12500037
 endloop
endfacet
facet normal -1 0 0
 outer loop
  vertex 0.0029049914 0.0016771975 -0.12505038
  vertex 0.0029049914 -0.0016771975 -0.12505038
  vertex 0.0029049914 -0.0016771975 -0.12500037
 endloop
endfacet
facet normal -1 -0 -0
 outer loop
  vertex 0.0029049914 0.0016771975 -0.12505038
  vertex 0.0029049914 -0.0016771975 -0.12500037
  vertex 0.0029049914 0.0016771975 -0.12500037
 endloop
endfacet
facet normal -0.5 0.86602545 3.2617283e-08
 outer loop
  vertex 0.0029049914 -0.0016771975 -0.12505038
  vertex -3.2622696e-12 -0.003354395 -0.12505038
  vertex 0 -0.003354395 -0.12500037
 endloop
endfacet
facet normal -0.5 0.86602545 0
 outer loop
  vertex 0.0029049914 -0.0016771975 -0.12505038
  vertex 0 -0.003354395 -0.12500037
  vertex 0.0029049914 -0.0016771975 -0.12500037
 endloop
endfacet
facet normal 0.5 0.86602545 0
 outer loop
  vertex -3.2622696e-12 -0.003354395 -0.12505038
  vertex -0.0029049914 -0.0016771975 -0.12505038
  vertex -0.0029049914 -0.0016771975 -0.12500037
 endloop
endfacet
facet normal 0.5 0.86602545 0
 outer loop
  vertex -3.2622696e-12 -0.003354395 -0.12505038
  vertex -0.0029049914 -0.0016771975 -0.12500037
  vertex 0 -0.003354395 -0.12500037
 endloop
endfacet
facet normal 1 0 0
 outer loop
  vertex -0.0029049914 -0.0016771975 -0.12505038
  vertex -0.0029049914 0.0016771975 -0.12505038
  vertex -0.0029049914 0.0016771975 -0.12500037
 endloop
endfacet
facet normal 1 -0 0
 outer loop
  vertex -0.0029049914 -0.0016771975 -0.12505038
  vertex -0.0029049914 0.0016771975 -0.12500037
  vertex -0.0029049914 -0.0016771975 -0.12500037
 endloop
endfacet
facet normal 0.5 -0.86602545 -3.2617283e-08
 outer loop
  vertex -0.0029049914 0.0016771975 -0.12505038
  vertex -3.2622696e-12 0.003354395 -0.12505038
  vertex 0 0.003354395 -0.12500037
 endloop
endfacet
facet normal 0.5 -0.86602545 0
 outer loop
  vertex -0.0029049914 0.0016771975 -0.12505038
  vertex 0 0.003354395 -0.12500037
  vertex -0.0029049914 0.0016771975 -0.12500037
 endloop
endfacet
facet normal 1 0 -0
 outer loop
  vertex 0.0029049914 -0.0016771975 0.12505001
  vertex 0.0029049914 -0.0016771975 0.125
  vertex 0.0029049914 0.0016771975 0.125
 endloop
endfacet
facet normal 1 0 0
 outer loop
  vertex 0.0029049914 -0.0016771975 0.12505001
  vertex 0.0029049914 0.0016771975 0.125
  vertex 0.0029049914 0.0016771975 0.12505001
 endloop
endfacet
facet normal -1 0 0
 outer loop
  vertex -0.0029049914 0.0016771975 0.12505001
  vertex -0.0029049914 0.0016771975 0.125
  vertex -0.0029049914 -0.0016771975 0.125
 endloop
endfacet
facet normal -1 0 0
 outer loop
  vertex -0.0029049914 0.0016771975 0.12505001
  vertex -0.0029049914 -0.0016771975 0.125
  vertex -0.0029049914 -0.0016771975 0.12505001
 endloop
endfacet
facet normal -1 0 0
 outer loop
  vertex -0.00214 -0.00214 0.12505001
  vertex -0.00214 0.00214 0.12505001
  vertex -0.00214 0.00214 0.125
 endloop
endfacet
facet normal -1 0 0
 outer loop
  vertex -0.00214 -0.00214 0.12505001
  vertex -0.00214 0.00214 0.125
  vertex -0.00214 -0.00214 0.125
 endloop
endfacet
facet normal 1 0 0
 outer loop
  vertex 0.00214 0.00214 0.12505001
  vertex 0.00214 -0.00214 0.12505001
  vertex 0.00214 -0.00214 0.125
 endloop
endfacet
facet normal 1 0 -0
 outer loop
  vertex 0.00214 0.00214 0.12505001
  vertex 0.00214 -0.00214 0.125
  vertex 0.00214 0.00214 0.125
 endloop
endfacet
facet normal 0 -1 0
 outer loop
  vertex 0.00214 -0.00214 0.12505001
  vertex -0.00214 -0.00214 0.12505001
  vertex -0.00214 -0.00214 0.125
 endloop
endfacet
facet normal 0 -1 0
 outer loop
  vertex 0.00214 -0.00214 0.12505001
  vertex -0.00214 -0.00214 0.125
  vertex 0.00214 -0.00214 0.125
 endloop
endfacet
facet normal 0 1 -0
 outer loop
  vertex -0.00214 0.00214 0.12505001
  vertex 0.00214 0.00214 0.12505001
  vertex 0.00214 0.00214 0.125
 endloop
endfacet
facet normal 0 1 -0
 outer loop
  vertex -0.00214 0.00214 0.12505001
  vertex 0.00214 0.00214 0.125
  vertex -0.00214 0.00214 0.125
 endloop
endfacet
facet normal 0.5176237 0.8556084 -0
 outer loop
  vertex 0.0029049914 0.0016771975 0.12505001
  vertex 0.0029049914 0.0016771975 0.125
  vertex 0.00214 0.00214 0.125
 endloop
endfacet
facet normal 0.5176237 0.8556084 0
 outer loop
  vertex 0.0029049914 0.0016771975 0.12505001
  vertex 0.00214 0.00214 0.125
  vertex 0.00214 0.00214 0.12505001
 endloop
endfacet
facet normal 0.5176237 -0.8556084 0
 outer loop
  vertex 0.00214 -0.00214 0.12505001
  vertex 0.00214 -0.00214 0.125
  vertex 0.0029049914 -0.0016771975 0.125
 endloop
endfacet
facet normal 0.5176237 -0.8556084 0
 outer loop
  vertex 0.00214 -0.00214 0.12505001
  vertex 0.0029049914 -0.0016771975 0.125
  vertex 0.0029049914 -0.0016771975 0.12505001
 endloop
endfacet
facet normal -0.49354416 -0.86972076 0
 outer loop
  vertex -0.00214 -0.00214 0.12505001
  vertex -0.00214 -0.00214 0.125
  vertex 0 -0.003354395 0.125
 endloop
endfacet
facet normal -0.49354416 -0.86972076 -0
 outer loop
  vertex -0.00214 -0.00214 0.12505001
  vertex 0 -0.003354395 0.125
  vertex 0 -0.003354395 0.12505001
 endloop
endfacet
facet normal 0.49354416 -0.86972076 0
 outer loop
  vertex 0 -0.003354395 0.12505001
  vertex 0 -0.003354395 0.125
  vertex 0.00214 -0.00214 0.125
 endloop
endfacet
facet normal 0.49354416 -0.86972076 0
 outer loop
  vertex 0 -0.003354395 0.12505001
  vertex 0.00214 -0.00214 0.125
  vertex 0.00214 -0.00214 0.12505001
 endloop
endfacet
facet normal -0.5176237 -0.8556084 0
 outer loop
  vertex -0.0029049914 -0.0016771975 0.12505001
  vertex -0.0029049914 -0.0016771975 0.125
  vertex -0.00214 -0.00214 0.125
 endloop
endfacet
facet normal -0.5176237 -0.8556084 -0
 outer loop
  vertex -0.0029049914 -0.0016771975 0.12505001
  vertex -0.00214 -0.00214 0.125
  vertex -0.00214 -0.00214 0.12505001
 endloop
endfacet
facet normal -0.5176237 0.8556084 0
 outer loop
  vertex -0.00214 0.00214 0.12505001
  vertex -0.00214 0.00214 0.125
  vertex -0.0029049914 0.0016771975 0.125
 endloop
endfacet
facet normal -0.5176237 0.8556084 0
 outer loop
  vertex -0.00214 0.00214 0.12505001
  vertex -0.0029049914 0.0016771975 0.125
  vertex -0.0029049914 0.0016771975 0.12505001
 endloop
endfacet
facet normal -0.49354416 0.86972076 0
 outer loop
  vertex 0 0.003354395 0.12505001
  vertex 0 0.003354395 0.125
  vertex -0.00214 0.00214 0.125
 endloop
endfacet
facet normal -0.49354416 0.86972076 0
 outer loop
  vertex 0 0.003354395 0.12505001
  vertex -0.00214 0.00214 0.125
  vertex -0.00214 0.00214 0.12505001
 endloop
endfacet
facet normal 0.49354416 0.86972076 -0
 outer loop
  vertex 0.00214 0.00214 0.12505001
  vertex 0.00214 0.00214 0.125
  vertex 0 0.003354395 0.125
 endloop
endfacet
facet normal 0.49354416 0.86972076 0
 outer loop
  vertex 0.00214 0.00214 0.12505001
  vertex 0 0.003354395 0.125
  vertex 0 0.003354395 0.12505001
 endloop
endfacet
facet normal -0 0 1
 outer loop
  vertex 0.00214 -0.00214 0.12669002
  vertex 0.00214 0.00214 0.12669002
  vertex -0.00214 0.00214 0.12669002
 endloop
endfacet
facet normal -0 0 1
 outer loop
  vertex 0.00214 -0.00214 0.12669002
  vertex -0.00214 0.00214 0.12669002
  vertex -0.00214 -0.00214 0.12669002
 endloop
endfacet
facet normal -1 0 0
 outer loop
  vertex -0.00214 0.00214 0.12669002
  vertex -0.00214 0.00214 0.12664
  vertex -0.00214 -0.00214 0.12664
 endloop
endfacet
facet normal -1 0 0
 outer loop
  vertex -0.00214 0.00214 0.12669002
  vertex -0.00214 -0.00214 0.12664
  vertex -0.00214 -0.00214 0.12669002
 endloop
endfacet
facet normal 0 1 0
 outer loop
  vertex 0.00214 0.00214 0.12669002
  vertex 0.00214 0.00214 0.12664
  vertex -0.00214 0.00214 0.12664
 endloop
endfacet
facet normal -0 1 0
 outer loop
  vertex 0.00214 0.00214 0.12669002
  vertex -0.00214 0.00214 0.12664
  vertex -0.00214 0.00214 0.12669002
 endloop
endfacet
facet normal 1 0 -0
 outer loop
  vertex 0.00214 -0.00214 0.12669002
  vertex 0.00214 -0.00214 0.12664
  vertex 0.00214 0.00214 0.12664
 endloop
endfacet
facet normal 1 0 0
 outer loop
  vertex 0.00214 -0.00214 0.12669002
  vertex 0.00214 0.00214 0.12664
  vertex 0.00214 0.00214 0.12669002
 endloop
endfacet
facet normal 0 -1 0
 outer loop
  vertex -0.00214 -0.00214 0.12669002
  vertex -0.00214 -0.00214 0.12664
  vertex 0.00214 -0.00214 0.12664
 endloop
endfacet
facet normal -0 -1 -0
 outer loop
  vertex -0.00214 -0.00214 0.12669002
  vertex 0.00214 -0.00214 0.12664
  vertex 0.00214 -0.00214 0.12669002
 endloop
endfacet
facet normal -0.5 -0.86602545 0
 outer loop
  vertex 0 0.00329666 0.125
  vertex 0 0.00329666 -0.12500037
  vertex 0.0028549912 0.00164833 -0.12500037
 endloop
endfacet
facet normal -0.5 -0.86602545 -0
 outer loop
  vertex 0 0.00329666 0.125
  vertex 0.0028549912 0.00164833 -0.12500037
  vertex 0.0028549912 0.00164833 0.125
 endloop
endfacet
facet normal 0 0 -1
 outer loop
  vertex 0 0.00329666 -0.12500037
  vertex 0.0028549912 0.00164833 -0.12500037
  vertex 0.0028549912 -0.00164833 -0.12500037
 endloop
endfacet
facet normal 0 0 -1
 outer loop
  vertex 0.0028549912 -0.00164833 -0.12500037
  vertex 0 -0.00329666 -0.12500037
  vertex -0.0028549912 -0.00164833 -0.12500037
 endloop
endfacet
facet normal 0 -0 -1
 outer loop
  vertex -0.0028549912 -0.00164833 -0.12500037
  vertex -0.0028549912 0.00164833 -0.12500037
  vertex 0 0.00329666 -0.12500037
 endloop
endfacet
facet normal 0 -0 -1
 outer loop
  vertex 0.0028549912 -0.00164833 -0.12500037
  vertex -0.0028549912 -0.00164833 -0.12500037
  vertex 0 0.00329666 -0.12500037
 endloop
endfacet
facet normal 0.5 -0.86602545 0
 outer loop
  vertex 0 0.00329666 -0.12500037
  vertex 0 0.00329666 0.125
  vertex -0.0028549912 0.00164833 0.125
 endloop
endfacet
facet normal 0.5 -0.86602545 0
 outer loop
  vertex 0 0.00329666 -0.12500037
  vertex -0.0028549912 0.00164833 0.125
  vertex -0.0028549912 0.00164833 -0.12500037
 endloop
endfacet
facet normal 1 -0 0
 outer loop
  vertex -0.0028549912 0.00164833 -0.12500037
  vertex -0.0028549912 0.00164833 0.125
  vertex -0.0028549912 -0.00164833 0.125
 endloop
endfacet
facet normal 1 -0 0
 outer loop
  vertex -0.0028549912 0.00164833 -0.12500037
  vertex -0.0028549912 -0.00164833 0.125
  vertex -0.0028549912 -0.00164833 -0.12500037
 endloop
endfacet
facet normal 0.5 0.86602545 0
 outer loop
  vertex -0.0028549912 -0.00164833 -0.12500037
  vertex -0.0028549912 -0.00164833 0.125
  vertex 0 -0.00329666 0.125
 endloop
endfacet
facet normal 0.5 0.86602545 -0
 outer loop
  vertex -0.0028549912 -0.00164833 -0.12500037
  vertex 0 -0.00329666 0.125
  vertex 0 -0.00329666 -0.12500037
 endloop
endfacet
facet normal -0.5 0.86602545 0
 outer loop
  vertex 0 -0.00329666 -0.12500037
  vertex 0 -0.00329666 0.125
  vertex 0.0028549912 -0.00164833 0.125
 endloop
endfacet
facet normal -0.5 0.86602545 0
 outer loop
  vertex 0 -0.00329666 -0.12500037
  vertex 0.0028549912 -0.00164833 0.125
  vertex 0.0028549912 -0.00164833 -0.12500037
 endloop
endfacet
facet normal -1 -0 -0
 outer loop
  vertex 0.0028549912 -0.00164833 -0.12500037
  vertex 0.0028549912 -0.00164833 0.125
  vertex 0.0028549912 0.00164833 0.125
 endloop
endfacet
facet normal -1 -0 0
 outer loop
  vertex 0.0028549912 -0.00164833 -0.12500037
  vertex 0.0028549912 0.00164833 0.125
  vertex 0.0028549912 0.00164833 -0.12500037
 endloop
endfacet
facet normal 0 0 -1
 outer loop
  vertex -0.00209 0.00209 0.125
  vertex -0.00209 -0.00209 0.125
  vertex -0.0028549912 -0.00164833 0.125
 endloop
endfacet
facet normal 0 0 -1
 outer loop
  vertex -0.00209 0.00209 0.125
  vertex -0.0028549912 -0.00164833 0.125
  vertex -0.0028549912 0.00164833 0.125
 endloop
endfacet
facet normal 0 0 -1
 outer loop
  vertex -0.00209 -0.00209 0.125
  vertex 0.00209 -0.00209 0.125
  vertex 0 -0.00329666 0.125
 endloop
endfacet
facet normal -0 -0 -1
 outer loop
  vertex 0.00209 -0.00209 0.125
  vertex 0.00209 0.00209 0.125
  vertex 0.0028549912 0.00164833 0.125
 endloop
endfacet
facet normal -0 0 -1
 outer loop
  vertex 0.00209 -0.00209 0.125
  vertex 0.0028549912 0.00164833 0.125
  vertex 0.0028549912 -0.00164833 0.125
 endloop
endfacet
facet normal 0 -0 -1
 outer loop
  vertex 0.00209 0.00209 0.125
  vertex -0.00209 0.00209 0.125
  vertex 0 0.00329666 0.125
 endloop
endfacet
facet normal 0 0 -1
 outer loop
  vertex 0.00209 -0.00209 0.12664
  vertex -0.00209 -0.00209 0.12664
  vertex -0.00209 0.00209 0.12664
 endloop
endfacet
facet normal -0 -0 -1
 outer loop
  vertex 0.00209 -0.00209 0.12664
  vertex -0.00209 0.00209 0.12664
  vertex 0.00209 0.00209 0.12664
 endloop
endfacet
endsolid 
