solid 
facet normal -1 -0 -0
 outer loop
  vertex -3.5949998 -4.205 125
  vertex -3.5949998 -4.205 126.64
  vertex -3.5949998 -0.025000095 126.64
 endloop
endfacet
facet normal -1 -0 0
 outer loop
  vertex -3.5949998 -4.205 125
  vertex -3.5949998 -0.025000095 126.64
  vertex -3.5949998 -0.025000095 125
 endloop
endfacet
facet normal 0 1 0
 outer loop
  vertex -3.5949998 -0.025000095 125
  vertex -3.5949998 -0.025000095 126.64
  vertex 0.5849999 -0.025000095 126.64
 endloop
endfacet
facet normal 0 1 -0
 outer loop
  vertex -3.5949998 -0.025000095 125
  vertex 0.5849999 -0.025000095 126.64
  vertex 0.5849999 -0.025000095 125
 endloop
endfacet
facet normal 1 -0 0
 outer loop
  vertex 0.5849999 -0.025000095 125
  vertex 0.5849999 -0.025000095 126.64
  vertex 0.5849999 -4.205 126.64
 endloop
endfacet
facet normal 1 -0 0
 outer loop
  vertex 0.5849999 -0.025000095 125
  vertex 0.5849999 -4.205 126.64
  vertex 0.5849999 -4.205 125
 endloop
endfacet
facet normal 0 -1 0
 outer loop
  vertex 0.5849999 -4.205 125
  vertex 0.5849999 -4.205 126.64
  vertex -3.5949998 -4.205 126.64
 endloop
endfacet
facet normal 0 -1 0
 outer loop
  vertex 0.5849999 -4.205 125
  vertex -3.5949998 -4.205 126.64
  vertex -3.5949998 -4.205 125
 endloop
endfacet
facet normal 0 0 -1
 outer loop
  vertex -3.5949998 -0.025000095 125
  vertex 0.5849999 -0.025000095 125
  vertex 0.5849999 -4.205 125
 endloop
endfacet
facet normal 0 0 -1
 outer loop
  vertex -3.5949998 -0.025000095 125
  vertex 0.5849999 -4.205 125
  vertex -3.5949998 -4.205 125
 endloop
endfacet
facet normal 0 0 1
 outer loop
  vertex 0.5849999 -0.025000095 126.64
  vertex -3.5949998 -0.025000095 126.64
  vertex -3.5949998 -4.205 126.64
 endloop
endfacet
facet normal 0 -0 1
 outer loop
  vertex 0.5849999 -0.025000095 126.64
  vertex -3.5949998 -4.205 126.64
  vertex 0.5849999 -4.205 126.64
 endloop
endfacet
endsolid 
