solid 
facet normal -1 0 0
 outer loop
  vertex -0.0042550005 0.0042550005 0.12664
  vertex -0.0042550005 0.0042550005 0.125
  vertex -0.0042550005 -0.0042550005 0.125
 endloop
endfacet
facet normal -1 0 0
 outer loop
  vertex -0.0042550005 0.0042550005 0.12664
  vertex -0.0042550005 -0.0042550005 0.125
  vertex -0.0042550005 -0.0042550005 0.12664
 endloop
endfacet
facet normal 0 -1 0
 outer loop
  vertex 0.0042550005 -0.0042550005 0.12664
  vertex -0.0042550005 -0.0042550005 0.12664
  vertex -0.0042550005 -0.0042550005 0.125
 endloop
endfacet
facet normal 0 -1 0
 outer loop
  vertex 0.0042550005 -0.0042550005 0.12664
  vertex -0.0042550005 -0.0042550005 0.125
  vertex 0.0042550005 -0.0042550005 0.125
 endloop
endfacet
facet normal 1 -0 0
 outer loop
  vertex 0.0042550005 0.0042550005 0.125
  vertex 0.0042550005 0.0042550005 0.12664
  vertex 0.0042550005 -0.0042550005 0.12664
 endloop
endfacet
facet normal 1 -0 0
 outer loop
  vertex 0.0042550005 0.0042550005 0.125
  vertex 0.0042550005 -0.0042550005 0.12664
  vertex 0.0042550005 -0.0042550005 0.125
 endloop
endfacet
facet normal 0 1 0
 outer loop
  vertex 0.0042550005 0.0042550005 0.12664
  vertex 0.0042550005 0.0042550005 0.125
  vertex -0.0042550005 0.0042550005 0.125
 endloop
endfacet
facet normal -0 1 0
 outer loop
  vertex 0.0042550005 0.0042550005 0.12664
  vertex -0.0042550005 0.0042550005 0.125
  vertex -0.0042550005 0.0042550005 0.12664
 endloop
endfacet
facet normal 0 0 -1
 outer loop
  vertex -0.004205 0.004205 0.125
  vertex -0.004205 -0.004205 0.125
  vertex -0.0042550005 -0.0042550005 0.125
 endloop
endfacet
facet normal 0 0 -1
 outer loop
  vertex 0.0042550005 0.0042550005 0.125
  vertex 0.0042550005 -0.0042550005 0.125
  vertex 0.004205 -0.004205 0.125
 endloop
endfacet
facet normal 0 0 -1
 outer loop
  vertex 0.0042550005 0.0042550005 0.125
  vertex 0.004205 -0.004205 0.125
  vertex 0.004205 0.004205 0.125
 endloop
endfacet
facet normal 0 0 -1
 outer loop
  vertex -0.004205 0.004205 0.125
  vertex -0.0042550005 -0.0042550005 0.125
  vertex -0.0042550005 0.0042550005 0.125
 endloop
endfacet
facet normal 0 0 -1
 outer loop
  vertex 0.0042550005 0.0042550005 0.125
  vertex 0.004205 0.004205 0.125
  vertex -0.004205 0.004205 0.125
 endloop
endfacet
facet normal -0 -0 -1
 outer loop
  vertex -0.004205 0.004205 0.125
  vertex -0.0042550005 0.0042550005 0.125
  vertex 0.0042550005 0.0042550005 0.125
 endloop
endfacet
facet normal -0 0 -1
 outer loop
  vertex -0.0042550005 -0.0042550005 0.125
  vertex -0.004205 -0.004205 0.125
  vertex 0.004205 -0.004205 0.125
 endloop
endfacet
facet normal -0 0 -1
 outer loop
  vertex -0.0042550005 -0.0042550005 0.125
  vertex 0.004205 -0.004205 0.125
  vertex 0.0042550005 -0.0042550005 0.125
 endloop
endfacet
facet normal 0 -0 -1
 outer loop
  vertex 0.0042550005 -0.0042550005 0.12664
  vertex -0.0042550005 -0.0042550005 0.12664
  vertex -0.004205 -0.004205 0.12664
 endloop
endfacet
facet normal -0 -0 -1
 outer loop
  vertex 0.0042550005 -0.0042550005 0.12664
  vertex -0.004205 -0.004205 0.12664
  vertex 0.004205 -0.004205 0.12664
 endloop
endfacet
facet normal 0 0 -1
 outer loop
  vertex 0.0042550005 0.0042550005 0.12664
  vertex 0.0042550005 -0.0042550005 0.12664
  vertex 0.004205 -0.004205 0.12664
 endloop
endfacet
facet normal 0 0 -1
 outer loop
  vertex 0.0042550005 0.0042550005 0.12664
  vertex 0.004205 -0.004205 0.12664
  vertex 0.004205 0.004205 0.12664
 endloop
endfacet
facet normal 0 0 -1
 outer loop
  vertex -0.004205 -0.004205 0.12664
  vertex -0.0042550005 -0.0042550005 0.12664
  vertex -0.0042550005 0.0042550005 0.12664
 endloop
endfacet
facet normal 0 0 -1
 outer loop
  vertex 0.0042550005 0.0042550005 0.12664
  vertex 0.004205 0.004205 0.12664
  vertex -0.004205 0.004205 0.12664
 endloop
endfacet
facet normal 0 0 -1
 outer loop
  vertex -0.004205 0.004205 0.12664
  vertex -0.004205 -0.004205 0.12664
  vertex -0.0042550005 0.0042550005 0.12664
 endloop
endfacet
facet normal 0 0 -1
 outer loop
  vertex -0.0042550005 0.0042550005 0.12664
  vertex 0.0042550005 0.0042550005 0.12664
  vertex -0.004205 0.004205 0.12664
 endloop
endfacet
facet normal 0 0 1
 outer loop
  vertex -0.0042550005 -0.0042550005 0.12669002
  vertex 0.0042550005 -0.0042550005 0.12669002
  vertex 0.0042550005 0.0042550005 0.12669002
 endloop
endfacet
facet normal -0 0 1
 outer loop
  vertex -0.0042550005 -0.0042550005 0.12669002
  vertex 0.0042550005 0.0042550005 0.12669002
  vertex -0.0042550005 0.0042550005 0.12669002
 endloop
endfacet
facet normal -1 0 0
 outer loop
  vertex -0.0042550005 -0.0042550005 0.12669002
  vertex -0.0042550005 0.0042550005 0.12669002
  vertex -0.0042550005 0.0042550005 0.12664
 endloop
endfacet
facet normal -1 0 0
 outer loop
  vertex -0.0042550005 -0.0042550005 0.12669002
  vertex -0.0042550005 0.0042550005 0.12664
  vertex -0.0042550005 -0.0042550005 0.12664
 endloop
endfacet
facet normal 0 -1 0
 outer loop
  vertex 0.0042550005 -0.0042550005 0.12669002
  vertex -0.0042550005 -0.0042550005 0.12669002
  vertex -0.0042550005 -0.0042550005 0.12664
 endloop
endfacet
facet normal 0 -1 0
 outer loop
  vertex 0.0042550005 -0.0042550005 0.12669002
  vertex -0.0042550005 -0.0042550005 0.12664
  vertex 0.0042550005 -0.0042550005 0.12664
 endloop
endfacet
facet normal 1 0 0
 outer loop
  vertex 0.0042550005 0.0042550005 0.12669002
  vertex 0.0042550005 -0.0042550005 0.12669002
  vertex 0.0042550005 -0.0042550005 0.12664
 endloop
endfacet
facet normal 1 0 -0
 outer loop
  vertex 0.0042550005 0.0042550005 0.12669002
  vertex 0.0042550005 -0.0042550005 0.12664
  vertex 0.0042550005 0.0042550005 0.12664
 endloop
endfacet
facet normal 0 1 -0
 outer loop
  vertex -0.0042550005 0.0042550005 0.12669002
  vertex 0.0042550005 0.0042550005 0.12669002
  vertex 0.0042550005 0.0042550005 0.12664
 endloop
endfacet
facet normal 0 1 -0
 outer loop
  vertex -0.0042550005 0.0042550005 0.12669002
  vertex 0.0042550005 0.0042550005 0.12664
  vertex -0.0042550005 0.0042550005 0.12664
 endloop
endfacet
facet normal 0.49999997 0.8660254 0
 outer loop
  vertex 0 0.006687735 -0.125
  vertex 0 0.006687735 0.125
  vertex 0.005791749 0.0033438676 0.125
 endloop
endfacet
facet normal 0.49999997 0.8660254 -0
 outer loop
  vertex 0 0.006687735 -0.125
  vertex 0.005791749 0.0033438676 0.125
  vertex 0.005791749 0.0033438676 -0.125
 endloop
endfacet
facet normal 1 -0 0
 outer loop
  vertex 0.005791749 0.0033438676 -0.125
  vertex 0.005791749 0.0033438676 0.125
  vertex 0.005791749 -0.0033438676 0.125
 endloop
endfacet
facet normal 1 -0 0
 outer loop
  vertex 0.005791749 0.0033438676 -0.125
  vertex 0.005791749 -0.0033438676 0.125
  vertex 0.005791749 -0.0033438676 -0.125
 endloop
endfacet
facet normal 0.49999997 -0.8660254 0
 outer loop
  vertex 0.005791749 -0.0033438676 -0.125
  vertex 0.005791749 -0.0033438676 0.125
  vertex 0 -0.006687735 0.125
 endloop
endfacet
facet normal 0.49999997 -0.8660254 0
 outer loop
  vertex 0.005791749 -0.0033438676 -0.125
  vertex 0 -0.006687735 0.125
  vertex 0 -0.006687735 -0.125
 endloop
endfacet
facet normal -0.49999997 -0.8660254 -0
 outer loop
  vertex 0 -0.006687735 -0.125
  vertex 0 -0.006687735 0.125
  vertex -0.005791749 -0.0033438676 0.125
 endloop
endfacet
facet normal -0.49999997 -0.8660254 0
 outer loop
  vertex 0 -0.006687735 -0.125
  vertex -0.005791749 -0.0033438676 0.125
  vertex -0.005791749 -0.0033438676 -0.125
 endloop
endfacet
facet normal -1 -0 -0
 outer loop
  vertex -0.005791749 -0.0033438676 -0.125
  vertex -0.005791749 -0.0033438676 0.125
  vertex -0.005791749 0.0033438676 0.125
 endloop
endfacet
facet normal -1 -0 0
 outer loop
  vertex -0.005791749 -0.0033438676 -0.125
  vertex -0.005791749 0.0033438676 0.125
  vertex -0.005791749 0.0033438676 -0.125
 endloop
endfacet
facet normal -0.49999997 0.8660254 0
 outer loop
  vertex -0.005791749 0.0033438676 -0.125
  vertex -0.005791749 0.0033438676 0.125
  vertex 0 0.006687735 0.125
 endloop
endfacet
facet normal -0.49999997 0.8660254 0
 outer loop
  vertex -0.005791749 0.0033438676 -0.125
  vertex 0 0.006687735 0.125
  vertex 0 0.006687735 -0.125
 endloop
endfacet
facet normal -0 0 -1
 outer loop
  vertex -0.0057417485 0.0033150003 -0.125
  vertex 0 0.0066300007 -0.125
  vertex 0.0057417485 0.0033150003 -0.125
 endloop
endfacet
facet normal 0 0 -1
 outer loop
  vertex 0.0057417485 0.0033150003 -0.125
  vertex 0.0057417485 -0.0033150003 -0.125
  vertex 0 -0.0066300007 -0.125
 endloop
endfacet
facet normal 0 0 -1
 outer loop
  vertex 0 -0.0066300007 -0.125
  vertex -0.0057417485 -0.0033150003 -0.125
  vertex -0.0057417485 0.0033150003 -0.125
 endloop
endfacet
facet normal 0 0 -1
 outer loop
  vertex 0.0057417485 0.0033150003 -0.125
  vertex 0 -0.0066300007 -0.125
  vertex -0.0057417485 0.0033150003 -0.125
 endloop
endfacet
facet normal -0 0 1
 outer loop
  vertex 0.005791749 0.0033438676 0.125
  vertex 0 0.006687735 0.125
  vertex 0 0.0066300007 0.125
 endloop
endfacet
facet normal -0 -0 1
 outer loop
  vertex 0.005791749 0.0033438676 0.125
  vertex 0 0.0066300007 0.125
  vertex 0.0057417485 0.0033150003 0.125
 endloop
endfacet
facet normal 0 -0 1
 outer loop
  vertex 0 -0.0066300007 0.125
  vertex 0 -0.006687735 0.125
  vertex 0.005791749 -0.0033438676 0.125
 endloop
endfacet
facet normal 0 0 1
 outer loop
  vertex 0.005791749 0.0033438676 0.125
  vertex 0.0057417485 0.0033150003 0.125
  vertex 0.0057417485 -0.0033150003 0.125
 endloop
endfacet
facet normal 0 -0 1
 outer loop
  vertex 0.0057417485 -0.0033150003 0.125
  vertex 0 -0.0066300007 0.125
  vertex 0.005791749 -0.0033438676 0.125
 endloop
endfacet
facet normal -0 0 1
 outer loop
  vertex 0.005791749 -0.0033438676 0.125
  vertex 0.005791749 0.0033438676 0.125
  vertex 0.0057417485 -0.0033150003 0.125
 endloop
endfacet
facet normal 0 0 -1
 outer loop
  vertex 0.005791749 -0.0033438676 -0.125
  vertex 0 -0.006687735 -0.125
  vertex 0 -0.0066300007 -0.125
 endloop
endfacet
facet normal 0 -0 -1
 outer loop
  vertex 0.005791749 -0.0033438676 -0.125
  vertex 0 -0.0066300007 -0.125
  vertex 0.0057417485 -0.0033150003 -0.125
 endloop
endfacet
facet normal -0 0 1
 outer loop
  vertex 0 0.0066300007 0.125
  vertex 0 0.006687735 0.125
  vertex -0.005791749 0.0033438676 0.125
 endloop
endfacet
facet normal 0 0 1
 outer loop
  vertex -0.005791749 -0.0033438676 0.125
  vertex 0 -0.006687735 0.125
  vertex 0 -0.0066300007 0.125
 endloop
endfacet
facet normal 0 0 1
 outer loop
  vertex -0.005791749 -0.0033438676 0.125
  vertex 0 -0.0066300007 0.125
  vertex -0.0057417485 -0.0033150003 0.125
 endloop
endfacet
facet normal -0 0 1
 outer loop
  vertex -0.0057417485 0.0033150003 0.125
  vertex 0 0.0066300007 0.125
  vertex -0.005791749 0.0033438676 0.125
 endloop
endfacet
facet normal 0 0 1
 outer loop
  vertex -0.005791749 -0.0033438676 0.125
  vertex -0.0057417485 -0.0033150003 0.125
  vertex -0.0057417485 0.0033150003 0.125
 endloop
endfacet
facet normal 0 -0 1
 outer loop
  vertex -0.005791749 0.0033438676 0.125
  vertex -0.005791749 -0.0033438676 0.125
  vertex -0.0057417485 0.0033150003 0.125
 endloop
endfacet
facet normal 0 0 -1
 outer loop
  vertex 0.005791749 0.0033438676 -0.125
  vertex 0.005791749 -0.0033438676 -0.125
  vertex 0.0057417485 -0.0033150003 -0.125
 endloop
endfacet
facet normal 0 0 -1
 outer loop
  vertex 0.005791749 0.0033438676 -0.125
  vertex 0.0057417485 -0.0033150003 -0.125
  vertex 0.0057417485 0.0033150003 -0.125
 endloop
endfacet
facet normal 0 0 -1
 outer loop
  vertex 0 -0.0066300007 -0.125
  vertex 0 -0.006687735 -0.125
  vertex -0.005791749 -0.0033438676 -0.125
 endloop
endfacet
facet normal 0 0 -1
 outer loop
  vertex -0.0057417485 -0.0033150003 -0.125
  vertex 0 -0.0066300007 -0.125
  vertex -0.005791749 -0.0033438676 -0.125
 endloop
endfacet
facet normal 0 0 -1
 outer loop
  vertex 0 0.006687735 -0.125
  vertex 0.005791749 0.0033438676 -0.125
  vertex 0.0057417485 0.0033150003 -0.125
 endloop
endfacet
facet normal 0 0 -1
 outer loop
  vertex 0 0.006687735 -0.125
  vertex 0.0057417485 0.0033150003 -0.125
  vertex 0 0.0066300007 -0.125
 endloop
endfacet
facet normal 0 0 -1
 outer loop
  vertex -0.0057417485 -0.0033150003 -0.125
  vertex -0.005791749 -0.0033438676 -0.125
  vertex -0.005791749 0.0033438676 -0.125
 endloop
endfacet
facet normal 0 0 -1
 outer loop
  vertex 0 0.006687735 -0.125
  vertex 0 0.0066300007 -0.125
  vertex -0.0057417485 0.0033150003 -0.125
 endloop
endfacet
facet normal 0 0 -1
 outer loop
  vertex -0.0057417485 0.0033150003 -0.125
  vertex -0.0057417485 -0.0033150003 -0.125
  vertex -0.005791749 0.0033438676 -0.125
 endloop
endfacet
facet normal 0 -0 -1
 outer loop
  vertex -0.0057417485 0.0033150003 -0.125
  vertex -0.005791749 0.0033438676 -0.125
  vertex 0 0.006687735 -0.125
 endloop
endfacet
facet normal -0 0 -1
 outer loop
  vertex -0.005791749 0.0033438676 -0.12505001
  vertex 2.6262747e-11 0.006687735 -0.12505001
  vertex 0.005791749 0.0033438676 -0.12505001
 endloop
endfacet
facet normal 0 0 -1
 outer loop
  vertex 0.005791749 0.0033438676 -0.12505001
  vertex 0.005791749 -0.0033438676 -0.12505001
  vertex 2.6262747e-11 -0.006687735 -0.12505001
 endloop
endfacet
facet normal 0 0 -1
 outer loop
  vertex 2.6262747e-11 -0.006687735 -0.12505001
  vertex -0.005791749 -0.0033438676 -0.12505001
  vertex -0.005791749 0.0033438676 -0.12505001
 endloop
endfacet
facet normal 0 0 -1
 outer loop
  vertex 0.005791749 0.0033438676 -0.12505001
  vertex 2.6262747e-11 -0.006687735 -0.12505001
  vertex -0.005791749 0.0033438676 -0.12505001
 endloop
endfacet
facet normal -0.5 -0.8660254 -0
 outer loop
  vertex 2.6262747e-11 0.006687735 -0.12505001
  vertex 0.005791749 0.0033438676 -0.12505001
  vertex 0.005791749 0.0033438676 -0.125
 endloop
endfacet
facet normal -0.5 -0.8660254 0
 outer loop
  vertex 2.6262747e-11 0.006687735 -0.12505001
  vertex 0.005791749 0.0033438676 -0.125
  vertex 0 0.006687735 -0.125
 endloop
endfacet
facet normal -1 0 0
 outer loop
  vertex 0.005791749 0.0033438676 -0.12505001
  vertex 0.005791749 -0.0033438676 -0.12505001
  vertex 0.005791749 -0.0033438676 -0.125
 endloop
endfacet
facet normal -1 -0 -0
 outer loop
  vertex 0.005791749 0.0033438676 -0.12505001
  vertex 0.005791749 -0.0033438676 -0.125
  vertex 0.005791749 0.0033438676 -0.125
 endloop
endfacet
facet normal -0.5 0.8660254 -2.6258388e-07
 outer loop
  vertex 0.005791749 -0.0033438676 -0.12505001
  vertex 2.6262747e-11 -0.006687735 -0.12505001
  vertex 0 -0.006687735 -0.125
 endloop
endfacet
facet normal -0.5 0.8660254 0
 outer loop
  vertex 0.005791749 -0.0033438676 -0.12505001
  vertex 0 -0.006687735 -0.125
  vertex 0.005791749 -0.0033438676 -0.125
 endloop
endfacet
facet normal 0.5 0.8660254 0
 outer loop
  vertex 2.6262747e-11 -0.006687735 -0.12505001
  vertex -0.005791749 -0.0033438676 -0.12505001
  vertex -0.005791749 -0.0033438676 -0.125
 endloop
endfacet
facet normal 0.5 0.8660254 0
 outer loop
  vertex 2.6262747e-11 -0.006687735 -0.12505001
  vertex -0.005791749 -0.0033438676 -0.125
  vertex 0 -0.006687735 -0.125
 endloop
endfacet
facet normal 1 0 0
 outer loop
  vertex -0.005791749 -0.0033438676 -0.12505001
  vertex -0.005791749 0.0033438676 -0.12505001
  vertex -0.005791749 0.0033438676 -0.125
 endloop
endfacet
facet normal 1 -0 0
 outer loop
  vertex -0.005791749 -0.0033438676 -0.12505001
  vertex -0.005791749 0.0033438676 -0.125
  vertex -0.005791749 -0.0033438676 -0.125
 endloop
endfacet
facet normal 0.5 -0.8660254 2.6258388e-07
 outer loop
  vertex -0.005791749 0.0033438676 -0.12505001
  vertex 2.6262747e-11 0.006687735 -0.12505001
  vertex 0 0.006687735 -0.125
 endloop
endfacet
facet normal 0.5 -0.8660254 0
 outer loop
  vertex -0.005791749 0.0033438676 -0.12505001
  vertex 0 0.006687735 -0.125
  vertex -0.005791749 0.0033438676 -0.125
 endloop
endfacet
facet normal 1 0 0
 outer loop
  vertex -0.0057417485 0.0033150003 0.125
  vertex -0.0057417485 -0.0033150003 0.125
  vertex -0.0057417485 -0.0033150003 -0.125
 endloop
endfacet
facet normal 1 0 -0
 outer loop
  vertex -0.0057417485 0.0033150003 0.125
  vertex -0.0057417485 -0.0033150003 -0.125
  vertex -0.0057417485 0.0033150003 -0.125
 endloop
endfacet
facet normal 0.50000006 -0.8660254 0
 outer loop
  vertex -0.0057417485 0.0033150003 0.125
  vertex -0.0057417485 0.0033150003 -0.125
  vertex 0 0.0066300007 -0.125
 endloop
endfacet
facet normal 0.50000006 -0.8660254 0
 outer loop
  vertex -0.0057417485 0.0033150003 0.125
  vertex 0 0.0066300007 -0.125
  vertex 0 0.0066300007 0.125
 endloop
endfacet
facet normal -0.50000006 -0.8660254 0
 outer loop
  vertex 0 0.0066300007 0.125
  vertex 0 0.0066300007 -0.125
  vertex 0.0057417485 0.0033150003 -0.125
 endloop
endfacet
facet normal -0.50000006 -0.8660254 -0
 outer loop
  vertex 0 0.0066300007 0.125
  vertex 0.0057417485 0.0033150003 -0.125
  vertex 0.0057417485 0.0033150003 0.125
 endloop
endfacet
facet normal -1 0 0
 outer loop
  vertex 0.0057417485 0.0033150003 0.125
  vertex 0.0057417485 0.0033150003 -0.125
  vertex 0.0057417485 -0.0033150003 -0.125
 endloop
endfacet
facet normal -1 0 0
 outer loop
  vertex 0.0057417485 0.0033150003 0.125
  vertex 0.0057417485 -0.0033150003 -0.125
  vertex 0.0057417485 -0.0033150003 0.125
 endloop
endfacet
facet normal -0.50000006 0.8660254 0
 outer loop
  vertex 0.0057417485 -0.0033150003 0.125
  vertex 0.0057417485 -0.0033150003 -0.125
  vertex 0 -0.0066300007 -0.125
 endloop
endfacet
facet normal -0.50000006 0.8660254 0
 outer loop
  vertex 0.0057417485 -0.0033150003 0.125
  vertex 0 -0.0066300007 -0.125
  vertex 0 -0.0066300007 0.125
 endloop
endfacet
facet normal 0.50000006 0.8660254 -0
 outer loop
  vertex 0 -0.0066300007 0.125
  vertex 0 -0.0066300007 -0.125
  vertex -0.0057417485 -0.0033150003 -0.125
 endloop
endfacet
facet normal 0.50000006 0.8660254 0
 outer loop
  vertex 0 -0.0066300007 0.125
  vertex -0.0057417485 -0.0033150003 -0.125
  vertex -0.0057417485 -0.0033150003 0.125
 endloop
endfacet
facet normal 0 -0 1
 outer loop
  vertex 0.0042550005 -0.0042550005 0.12505001
  vertex -0.0042550005 -0.0042550005 0.12505001
  vertex 0 -0.006687735 0.12505001
 endloop
endfacet
facet normal 0 -0 1
 outer loop
  vertex 0.0042550005 0.0042550005 0.12505001
  vertex 0.0042550005 -0.0042550005 0.12505001
  vertex 0.005791749 -0.0033438676 0.12505001
 endloop
endfacet
facet normal 0 0 1
 outer loop
  vertex 0.0042550005 0.0042550005 0.12505001
  vertex 0.005791749 -0.0033438676 0.12505001
  vertex 0.005791749 0.0033438676 0.12505001
 endloop
endfacet
facet normal 0 0 1
 outer loop
  vertex -0.0042550005 0.0042550005 0.12505001
  vertex 0.0042550005 0.0042550005 0.12505001
  vertex 0 0.006687735 0.12505001
 endloop
endfacet
facet normal 0 0 1
 outer loop
  vertex -0.0042550005 0.0042550005 0.12505001
  vertex -0.005791749 0.0033438676 0.12505001
  vertex -0.005791749 -0.0033438676 0.12505001
 endloop
endfacet
facet normal 0 -0 1
 outer loop
  vertex -0.0042550005 0.0042550005 0.12505001
  vertex -0.005791749 -0.0033438676 0.12505001
  vertex -0.0042550005 -0.0042550005 0.12505001
 endloop
endfacet
facet normal 0 1 -0
 outer loop
  vertex -0.0042550005 -0.0042550005 0.12505001
  vertex 0.0042550005 -0.0042550005 0.12505001
  vertex 0.0042550005 -0.0042550005 0.125
 endloop
endfacet
facet normal 0 1 -0
 outer loop
  vertex -0.0042550005 -0.0042550005 0.12505001
  vertex 0.0042550005 -0.0042550005 0.125
  vertex -0.0042550005 -0.0042550005 0.125
 endloop
endfacet
facet normal -1 0 0
 outer loop
  vertex 0.0042550005 -0.0042550005 0.12505001
  vertex 0.0042550005 0.0042550005 0.12505001
  vertex 0.0042550005 0.0042550005 0.125
 endloop
endfacet
facet normal -1 0 0
 outer loop
  vertex 0.0042550005 -0.0042550005 0.12505001
  vertex 0.0042550005 0.0042550005 0.125
  vertex 0.0042550005 -0.0042550005 0.125
 endloop
endfacet
facet normal 0 -1 0
 outer loop
  vertex 0.0042550005 0.0042550005 0.12505001
  vertex -0.0042550005 0.0042550005 0.12505001
  vertex -0.0042550005 0.0042550005 0.125
 endloop
endfacet
facet normal 0 -1 0
 outer loop
  vertex 0.0042550005 0.0042550005 0.12505001
  vertex -0.0042550005 0.0042550005 0.125
  vertex 0.0042550005 0.0042550005 0.125
 endloop
endfacet
facet normal 1 0 0
 outer loop
  vertex 0.005791749 0.0033438676 0.12505001
  vertex 0.005791749 -0.0033438676 0.12505001
  vertex 0.005791749 -0.0033438676 0.125
 endloop
endfacet
facet normal 1 0 -0
 outer loop
  vertex 0.005791749 0.0033438676 0.12505001
  vertex 0.005791749 -0.0033438676 0.125
  vertex 0.005791749 0.0033438676 0.125
 endloop
endfacet
facet normal -0.4963398 -0.86812836 0
 outer loop
  vertex 0 -0.006687735 0.12505001
  vertex -0.0042550005 -0.0042550005 0.12505001
  vertex -0.0042550005 -0.0042550005 0.125
 endloop
endfacet
facet normal -0.4963398 -0.86812836 0
 outer loop
  vertex 0 -0.006687735 0.12505001
  vertex -0.0042550005 -0.0042550005 0.125
  vertex 0 -0.006687735 0.125
 endloop
endfacet
facet normal 0.4963398 -0.86812836 0
 outer loop
  vertex 0.0042550005 -0.0042550005 0.12505001
  vertex 0 -0.006687735 0.12505001
  vertex 0 -0.006687735 0.125
 endloop
endfacet
facet normal 0.4963398 -0.86812836 0
 outer loop
  vertex 0.0042550005 -0.0042550005 0.12505001
  vertex 0 -0.006687735 0.125
  vertex 0.0042550005 -0.0042550005 0.125
 endloop
endfacet
facet normal 0.5099959 -0.8601768 0
 outer loop
  vertex 0.005791749 -0.0033438676 0.12505001
  vertex 0.0042550005 -0.0042550005 0.12505001
  vertex 0.0042550005 -0.0042550005 0.125
 endloop
endfacet
facet normal 0.5099959 -0.8601768 0
 outer loop
  vertex 0.005791749 -0.0033438676 0.12505001
  vertex 0.0042550005 -0.0042550005 0.125
  vertex 0.005791749 -0.0033438676 0.125
 endloop
endfacet
facet normal 0.5099959 0.8601768 -0
 outer loop
  vertex 0.0042550005 0.0042550005 0.12505001
  vertex 0.005791749 0.0033438676 0.12505001
  vertex 0.005791749 0.0033438676 0.125
 endloop
endfacet
facet normal 0.5099959 0.8601768 0
 outer loop
  vertex 0.0042550005 0.0042550005 0.12505001
  vertex 0.005791749 0.0033438676 0.125
  vertex 0.0042550005 0.0042550005 0.125
 endloop
endfacet
facet normal 0.4963398 0.86812836 -0
 outer loop
  vertex 0 0.006687735 0.12505001
  vertex 0.0042550005 0.0042550005 0.12505001
  vertex 0.0042550005 0.0042550005 0.125
 endloop
endfacet
facet normal 0.4963398 0.86812836 0
 outer loop
  vertex 0 0.006687735 0.12505001
  vertex 0.0042550005 0.0042550005 0.125
  vertex 0 0.006687735 0.125
 endloop
endfacet
facet normal -0.4963398 0.86812836 0
 outer loop
  vertex -0.0042550005 0.0042550005 0.12505001
  vertex 0 0.006687735 0.12505001
  vertex 0 0.006687735 0.125
 endloop
endfacet
facet normal -0.4963398 0.86812836 0
 outer loop
  vertex -0.0042550005 0.0042550005 0.12505001
  vertex 0 0.006687735 0.125
  vertex -0.0042550005 0.0042550005 0.125
 endloop
endfacet
facet normal 1 0 -0
 outer loop
  vertex -0.0042550005 -0.0042550005 0.12505001
  vertex -0.0042550005 -0.0042550005 0.125
  vertex -0.0042550005 0.0042550005 0.125
 endloop
endfacet
facet normal 1 0 0
 outer loop
  vertex -0.0042550005 -0.0042550005 0.12505001
  vertex -0.0042550005 0.0042550005 0.125
  vertex -0.0042550005 0.0042550005 0.12505001
 endloop
endfacet
facet normal -1 0 0
 outer loop
  vertex -0.005791749 0.0033438676 0.12505001
  vertex -0.005791749 0.0033438676 0.125
  vertex -0.005791749 -0.0033438676 0.125
 endloop
endfacet
facet normal -1 0 0
 outer loop
  vertex -0.005791749 0.0033438676 0.12505001
  vertex -0.005791749 -0.0033438676 0.125
  vertex -0.005791749 -0.0033438676 0.12505001
 endloop
endfacet
facet normal -0.5099959 0.8601768 0
 outer loop
  vertex -0.0042550005 0.0042550005 0.12505001
  vertex -0.0042550005 0.0042550005 0.125
  vertex -0.005791749 0.0033438676 0.125
 endloop
endfacet
facet normal -0.5099959 0.8601768 0
 outer loop
  vertex -0.0042550005 0.0042550005 0.12505001
  vertex -0.005791749 0.0033438676 0.125
  vertex -0.005791749 0.0033438676 0.12505001
 endloop
endfacet
facet normal -0.5099959 -0.8601768 0
 outer loop
  vertex -0.005791749 -0.0033438676 0.12505001
  vertex -0.005791749 -0.0033438676 0.125
  vertex -0.0042550005 -0.0042550005 0.125
 endloop
endfacet
facet normal -0.5099959 -0.8601768 -0
 outer loop
  vertex -0.005791749 -0.0033438676 0.12505001
  vertex -0.0042550005 -0.0042550005 0.125
  vertex -0.0042550005 -0.0042550005 0.12505001
 endloop
endfacet
facet normal -0 -1 -0
 outer loop
  vertex -0.004205 0.004205 0.125
  vertex 0.004205 0.004205 0.125
  vertex 0.004205 0.004205 0.12664
 endloop
endfacet
facet normal 0 -1 -0
 outer loop
  vertex -0.004205 0.004205 0.125
  vertex 0.004205 0.004205 0.12664
  vertex -0.004205 0.004205 0.12664
 endloop
endfacet
facet normal 1 -0 0
 outer loop
  vertex -0.004205 0.004205 0.125
  vertex -0.004205 0.004205 0.12664
  vertex -0.004205 -0.004205 0.12664
 endloop
endfacet
facet normal 1 -0 0
 outer loop
  vertex -0.004205 0.004205 0.125
  vertex -0.004205 -0.004205 0.12664
  vertex -0.004205 -0.004205 0.125
 endloop
endfacet
facet normal 0 1 0
 outer loop
  vertex -0.004205 -0.004205 0.125
  vertex -0.004205 -0.004205 0.12664
  vertex 0.004205 -0.004205 0.12664
 endloop
endfacet
facet normal 0 1 -0
 outer loop
  vertex -0.004205 -0.004205 0.125
  vertex 0.004205 -0.004205 0.12664
  vertex 0.004205 -0.004205 0.125
 endloop
endfacet
facet normal -1 -0 -0
 outer loop
  vertex 0.004205 -0.004205 0.125
  vertex 0.004205 -0.004205 0.12664
  vertex 0.004205 0.004205 0.12664
 endloop
endfacet
facet normal -1 -0 0
 outer loop
  vertex 0.004205 -0.004205 0.125
  vertex 0.004205 0.004205 0.12664
  vertex 0.004205 0.004205 0.125
 endloop
endfacet
facet normal 0 0 -1
 outer loop
  vertex 0.004205 -0.004205 0.12664
  vertex -0.004205 -0.004205 0.12664
  vertex -0.004205 0.004205 0.12664
 endloop
endfacet
facet normal -0 -0 -1
 outer loop
  vertex 0.004205 -0.004205 0.12664
  vertex -0.004205 0.004205 0.12664
  vertex 0.004205 0.004205 0.12664
 endloop
endfacet
facet normal 0 0 -1
 outer loop
  vertex -0.0042550005 -0.0042550005 0.125
  vertex 0.0042550005 -0.0042550005 0.125
  vertex 0 -0.0066300007 0.125
 endloop
endfacet
facet normal 0 0 -1
 outer loop
  vertex -0.0042550005 0.0042550005 0.125
  vertex -0.0042550005 -0.0042550005 0.125
  vertex -0.0057417485 -0.0033150003 0.125
 endloop
endfacet
facet normal 0 0 -1
 outer loop
  vertex -0.0042550005 0.0042550005 0.125
  vertex -0.0057417485 -0.0033150003 0.125
  vertex -0.0057417485 0.0033150003 0.125
 endloop
endfacet
facet normal -0 -0 -1
 outer loop
  vertex 0.0042550005 -0.0042550005 0.125
  vertex 0.0042550005 0.0042550005 0.125
  vertex 0.0057417485 0.0033150003 0.125
 endloop
endfacet
facet normal -0 0 -1
 outer loop
  vertex 0.0042550005 -0.0042550005 0.125
  vertex 0.0057417485 0.0033150003 0.125
  vertex 0.0057417485 -0.0033150003 0.125
 endloop
endfacet
facet normal 0 -0 -1
 outer loop
  vertex 0.0042550005 0.0042550005 0.125
  vertex -0.0042550005 0.0042550005 0.125
  vertex 0 0.0066300007 0.125
 endloop
endfacet
facet normal -0 -0 -1
 outer loop
  vertex -0.0042550005 -0.0042550005 0.125
  vertex -0.005791749 -0.0033438676 0.125
  vertex 0 -0.006687735 0.125
 endloop
endfacet
facet normal -0 0 -1
 outer loop
  vertex -0.0042550005 0.0042550005 0.125
  vertex 0 0.006687735 0.125
  vertex -0.005791749 0.0033438676 0.125
 endloop
endfacet
facet normal 0 0 -1
 outer loop
  vertex 0.0042550005 0.0042550005 0.125
  vertex 0.005791749 0.0033438676 0.125
  vertex 0 0.006687735 0.125
 endloop
endfacet
facet normal 0 -0 -1
 outer loop
  vertex 0.0042550005 -0.0042550005 0.125
  vertex 0 -0.006687735 0.125
  vertex 0.005791749 -0.0033438676 0.125
 endloop
endfacet
endsolid 
