solid 
facet normal 0.86602545 0.5 1.0000875e-05
 outer loop
  vertex 0.0030891786 0.005350614 -0.125
  vertex 0.003087735 0.005348114 0.125
  vertex 0.00617547 -2.384186e-10 0.125
 endloop
endfacet
facet normal 0.86602545 0.49999988 9.998459e-06
 outer loop
  vertex 0.0030891786 0.005350614 -0.125
  vertex 0.00617547 -2.384186e-10 0.125
  vertex 0.0061783562 0 -0.125
 endloop
endfacet
facet normal 0.8660254 -0.50000006 9.997505e-06
 outer loop
  vertex 0.0061783562 0 -0.125
  vertex 0.00617547 -2.384186e-10 0.125
  vertex 0.0030877348 -0.0053481143 0.125
 endloop
endfacet
facet normal 0.86602545 -0.49999997 9.999138e-06
 outer loop
  vertex 0.0061783562 0 -0.125
  vertex 0.0030877348 -0.0053481143 0.125
  vertex 0.0030891781 -0.005350614 -0.125
 endloop
endfacet
facet normal -7.5405e-08 -1 9.998679e-06
 outer loop
  vertex 0.0030891781 -0.005350614 -0.125
  vertex 0.0030877348 -0.0053481143 0.125
  vertex -0.003087735 -0.005348114 0.125
 endloop
endfacet
facet normal 0 -1 1.0000542e-05
 outer loop
  vertex 0.0030891781 -0.005350614 -0.125
  vertex -0.003087735 -0.005348114 0.125
  vertex -0.0030891786 -0.005350614 -0.125
 endloop
endfacet
facet normal -0.86602545 -0.5 1.0000875e-05
 outer loop
  vertex -0.0030891786 -0.005350614 -0.125
  vertex -0.003087735 -0.005348114 0.125
  vertex -0.00617547 2.384186e-10 0.125
 endloop
endfacet
facet normal -0.86602545 -0.49999988 9.998459e-06
 outer loop
  vertex -0.0030891786 -0.005350614 -0.125
  vertex -0.00617547 2.384186e-10 0.125
  vertex -0.0061783562 0 -0.125
 endloop
endfacet
facet normal -0.8660254 0.50000006 9.997505e-06
 outer loop
  vertex -0.0061783562 0 -0.125
  vertex -0.00617547 2.384186e-10 0.125
  vertex -0.0030877348 0.0053481143 0.125
 endloop
endfacet
facet normal -0.86602545 0.49999997 9.999138e-06
 outer loop
  vertex -0.0061783562 0 -0.125
  vertex -0.0030877348 0.0053481143 0.125
  vertex -0.0030891781 0.005350614 -0.125
 endloop
endfacet
facet normal 7.5405e-08 1 9.998679e-06
 outer loop
  vertex -0.0030891781 0.005350614 -0.125
  vertex -0.0030877348 0.0053481143 0.125
  vertex 0.003087735 0.005348114 0.125
 endloop
endfacet
facet normal 0 1 1.0000542e-05
 outer loop
  vertex -0.0030891781 0.005350614 -0.125
  vertex 0.003087735 0.005348114 0.125
  vertex 0.0030891786 0.005350614 -0.125
 endloop
endfacet
facet normal -0 0 -1
 outer loop
  vertex -0.0030603104 0.0053006136 -0.12505001
  vertex 0.003060311 0.005300614 -0.12505001
  vertex 0.006120621 2.384186e-10 -0.12505001
 endloop
endfacet
facet normal 0 0 -1
 outer loop
  vertex 0.006120621 2.384186e-10 -0.12505001
  vertex 0.0030603104 -0.0053006136 -0.12505001
  vertex -0.003060311 -0.005300614 -0.12505001
 endloop
endfacet
facet normal 0 -0 -1
 outer loop
  vertex -0.003060311 -0.005300614 -0.12505001
  vertex -0.006120621 -2.384186e-10 -0.12505001
  vertex -0.0030603104 0.0053006136 -0.12505001
 endloop
endfacet
facet normal 0 -0 -1
 outer loop
  vertex 0.006120621 2.384186e-10 -0.12505001
  vertex -0.003060311 -0.005300614 -0.12505001
  vertex -0.0030603104 0.0053006136 -0.12505001
 endloop
endfacet
facet normal -0 0 1
 outer loop
  vertex 0.006117735 0 0.125
  vertex 0.0030588675 0.005298114 0.125
  vertex 0.00303 0.005248114 0.125
 endloop
endfacet
facet normal -0 -0 1
 outer loop
  vertex 0.006117735 0 0.125
  vertex 0.00303 0.005248114 0.125
  vertex 0.0060599996 0 0.125
 endloop
endfacet
facet normal -0 0 1
 outer loop
  vertex 0.0030588675 -0.005298114 0.125
  vertex 0.006117735 0 0.125
  vertex 0.0060599996 0 0.125
 endloop
endfacet
facet normal -0 0 1
 outer loop
  vertex 0.0030588675 -0.005298114 0.125
  vertex 0.0060599996 0 0.125
  vertex 0.0030299998 -0.005248114 0.125
 endloop
endfacet
facet normal 0 0 1
 outer loop
  vertex -0.0030588675 -0.005298114 0.125
  vertex 0.0030588675 -0.005298114 0.125
  vertex 0.0030299998 -0.005248114 0.125
 endloop
endfacet
facet normal -0 0 1
 outer loop
  vertex -0.0030588675 -0.005298114 0.125
  vertex 0.0030299998 -0.005248114 0.125
  vertex -0.00303 -0.005248114 0.125
 endloop
endfacet
facet normal 0 0 1
 outer loop
  vertex -0.006117735 0 0.125
  vertex -0.0030588675 -0.005298114 0.125
  vertex -0.00303 -0.005248114 0.125
 endloop
endfacet
facet normal 0 0 1
 outer loop
  vertex -0.006117735 0 0.125
  vertex -0.00303 -0.005248114 0.125
  vertex -0.0060599996 0 0.125
 endloop
endfacet
facet normal 0 -0 1
 outer loop
  vertex -0.0030588675 0.005298114 0.125
  vertex -0.006117735 0 0.125
  vertex -0.0060599996 0 0.125
 endloop
endfacet
facet normal 0 -0 1
 outer loop
  vertex -0.0030588675 0.005298114 0.125
  vertex -0.0060599996 0 0.125
  vertex -0.0030299998 0.005248114 0.125
 endloop
endfacet
facet normal 0 0 -1
 outer loop
  vertex 0.0030588675 0.005298114 0.125
  vertex 0.00303 0.005248114 0.125
  vertex -0.0030299998 0.005248114 0.125
 endloop
endfacet
facet normal 0 0 -1
 outer loop
  vertex 0.0030588675 0.005298114 0.125
  vertex -0.0030299998 0.005248114 0.125
  vertex -0.0030588675 0.005298114 0.125
 endloop
endfacet
facet normal 1 -1.0879935e-07 0
 outer loop
  vertex 0.004865 0.0021400005 0.12505001
  vertex 0.004865 0.0021400005 0.12664
  vertex 0.0048649996 -0.00214 0.12664
 endloop
endfacet
facet normal 1 8.697293e-07 2.6340294e-06
 outer loop
  vertex 0.004865 0.0021400005 0.12505001
  vertex 0.0048649996 -0.00214 0.12664
  vertex 0.0048650037 -0.0021399804 0.12504892
 endloop
endfacet
facet normal -0 -1 -1.2292087e-05
 outer loop
  vertex 0.0006350031 -0.0021399804 0.12504892
  vertex 0.0048650037 -0.0021399804 0.12504892
  vertex 0.0048649996 -0.00214 0.12664
 endloop
endfacet
facet normal -5.5042708e-08 -1 -1.2145754e-05
 outer loop
  vertex 0.0006350031 -0.0021399804 0.12504892
  vertex 0.0048649996 -0.00214 0.12664
  vertex 0.0006349999 -0.0021399998 0.12664
 endloop
endfacet
facet normal 1 -0 9.884328e-07
 outer loop
  vertex 0.0006349999 -0.0021399998 0.12664
  vertex 0.0006349999 -0.0042549996 0.12664
  vertex 0.00063500146 -0.00425499 0.12505001
 endloop
endfacet
facet normal 1 -7.695596e-07 2.0120885e-06
 outer loop
  vertex 0.0006349999 -0.0021399998 0.12664
  vertex 0.00063500146 -0.00425499 0.12505001
  vertex 0.0006350031 -0.0021399804 0.12504892
 endloop
endfacet
facet normal 2.3935852e-06 -1 -6.150246e-06
 outer loop
  vertex -0.003645 -0.004255 0.12505001
  vertex 0.00063500146 -0.00425499 0.12505001
  vertex 0.0006349999 -0.0042549996 0.12664
 endloop
endfacet
facet normal 1.0879936e-07 -1 0
 outer loop
  vertex -0.003645 -0.004255 0.12505001
  vertex 0.0006349999 -0.0042549996 0.12664
  vertex -0.003645 -0.004255 0.12664
 endloop
endfacet
facet normal -1 -2.7359652e-08 0
 outer loop
  vertex -0.0036450003 0.004255 0.12664
  vertex -0.0036450003 0.004255 0.125
  vertex -0.003645 -0.004255 0.125
 endloop
endfacet
facet normal -1 -2.7359652e-08 -0
 outer loop
  vertex -0.0036450003 0.004255 0.12664
  vertex -0.003645 -0.004255 0.125
  vertex -0.003645 -0.004255 0.12664
 endloop
endfacet
facet normal -5.5042705e-08 1 0
 outer loop
  vertex 0.000635 0.0021400002 0.12505001
  vertex 0.000635 0.0021400002 0.12664
  vertex 0.004865 0.0021400005 0.12664
 endloop
endfacet
facet normal -5.5042705e-08 1 0
 outer loop
  vertex 0.000635 0.0021400002 0.12505001
  vertex 0.004865 0.0021400005 0.12664
  vertex 0.004865 0.0021400005 0.12505001
 endloop
endfacet
facet normal 0.00026023196 0.0002602356 -0.99999994
 outer loop
  vertex 0.004865001 -0.00214 0.12499891
  vertex 0.0048150006 -0.0020900003 0.12499891
  vertex 0.0048149996 0.0020900003 0.125
 endloop
endfacet
facet normal -0.00025415406 0.00025415522 -0.99999994
 outer loop
  vertex 0.004865001 -0.00214 0.12499891
  vertex 0.0048149996 0.0020900003 0.125
  vertex 0.004865 0.0021400005 0.125
 endloop
endfacet
facet normal 0 0 1
 outer loop
  vertex 0.004865 0.0021400005 0.12664
  vertex 0.0048149996 0.0020900003 0.12664
  vertex 0.0048149996 -0.00209 0.12664
 endloop
endfacet
facet normal 0 -0 1
 outer loop
  vertex 0.004865 0.0021400005 0.12664
  vertex 0.0048149996 -0.00209 0.12664
  vertex 0.0048649996 -0.00214 0.12664
 endloop
endfacet
facet normal 0 0 1
 outer loop
  vertex 0.0048649996 -0.00214 0.12664
  vertex 0.0048149996 -0.00209 0.12664
  vertex 0.00063499995 -0.0020899998 0.12664
 endloop
endfacet
facet normal -0 0 1
 outer loop
  vertex 0.0048649996 -0.00214 0.12664
  vertex 0.00063499995 -0.0020899998 0.12664
  vertex 0.0006349999 -0.0021399998 0.12664
 endloop
endfacet
facet normal -0 0 -1
 outer loop
  vertex 0.00063499995 -0.00214 0.12499891
  vertex 0.000635 -0.0020900003 0.12499891
  vertex 0.0048150006 -0.0020900003 0.12499891
 endloop
endfacet
facet normal -0 0 -1
 outer loop
  vertex 0.00063499995 -0.00214 0.12499891
  vertex 0.0048150006 -0.0020900003 0.12499891
  vertex 0.004865001 -0.00214 0.12499891
 endloop
endfacet
facet normal 0 -0 1
 outer loop
  vertex 0.000635 0.0021400002 0.12664
  vertex 0.00063499995 0.00209 0.12664
  vertex 0.0048149996 0.0020900003 0.12664
 endloop
endfacet
facet normal 0 0 1
 outer loop
  vertex 0.000635 0.0021400002 0.12664
  vertex 0.0048149996 0.0020900003 0.12664
  vertex 0.004865 0.0021400005 0.12664
 endloop
endfacet
facet normal 0 0 -1
 outer loop
  vertex 0.004865 0.0021400005 0.125
  vertex 0.0048149996 0.0020900003 0.125
  vertex 0.00063499995 0.00209 0.125
 endloop
endfacet
facet normal 0 -0 -1
 outer loop
  vertex 0.004865 0.0021400005 0.125
  vertex 0.00063499995 0.00209 0.125
  vertex 0.000635 0.0021400002 0.125
 endloop
endfacet
facet normal 0 0 -1
 outer loop
  vertex 0.0006349999 0.0042550005 0.125
  vertex 0.000585 0.004205 0.125
  vertex -0.0035950001 0.004205 0.125
 endloop
endfacet
facet normal 0 0 -1
 outer loop
  vertex 0.0006349999 0.0042550005 0.125
  vertex -0.0035950001 0.004205 0.125
  vertex -0.0036450003 0.004255 0.125
 endloop
endfacet
facet normal 0 0 -1
 outer loop
  vertex -0.0036450003 0.004255 0.125
  vertex -0.0035950001 0.004205 0.125
  vertex -0.003595 -0.0042049997 0.125
 endloop
endfacet
facet normal 0 0 -1
 outer loop
  vertex -0.0036450003 0.004255 0.125
  vertex -0.003595 -0.0042049997 0.125
  vertex -0.003645 -0.004255 0.125
 endloop
endfacet
facet normal -0 0 -1
 outer loop
  vertex -0.003645 -0.004255 0.125
  vertex -0.003595 -0.0042049997 0.125
  vertex 0.0005850001 -0.0042049997 0.125
 endloop
endfacet
facet normal -0 0 -1
 outer loop
  vertex -0.003645 -0.004255 0.125
  vertex 0.0005850001 -0.0042049997 0.125
  vertex 0.0006349999 -0.0042549996 0.125
 endloop
endfacet
facet normal 1 -1.1641606e-06 3.5468965e-08
 outer loop
  vertex 0.0006349999 -0.0021399998 0.12664
  vertex 0.00063499995 -0.00214 0.12499891
  vertex 0.000635 -0.0020900003 0.12499891
 endloop
endfacet
facet normal 1 -1.1641552e-06 3.546913e-08
 outer loop
  vertex 0.0006349999 -0.0021399998 0.12664
  vertex 0.000635 -0.0020900003 0.12499891
  vertex 0.00063499995 -0.0020899998 0.12664
 endloop
endfacet
facet normal -0 0 1
 outer loop
  vertex 0.0006349999 -0.0042549996 0.12664
  vertex 0.0005850001 -0.0042049997 0.12664
  vertex -0.003595 -0.0042049997 0.12664
 endloop
endfacet
facet normal -0 0 1
 outer loop
  vertex 0.0006349999 -0.0042549996 0.12664
  vertex -0.003595 -0.0042049997 0.12664
  vertex -0.003645 -0.004255 0.12664
 endloop
endfacet
facet normal 0 0 1
 outer loop
  vertex -0.003645 -0.004255 0.12664
  vertex -0.003595 -0.0042049997 0.12664
  vertex -0.0035950001 0.004205 0.12664
 endloop
endfacet
facet normal 0 0 1
 outer loop
  vertex -0.003645 -0.004255 0.12664
  vertex -0.0035950001 0.004205 0.12664
  vertex -0.0036450003 0.004255 0.12664
 endloop
endfacet
facet normal 0 0 1
 outer loop
  vertex -0.0036450003 0.004255 0.12664
  vertex -0.0035950001 0.004205 0.12664
  vertex 0.00058499986 0.004205 0.12664
 endloop
endfacet
facet normal 0 0 1
 outer loop
  vertex -0.0036450003 0.004255 0.12664
  vertex 0.00058499986 0.004205 0.12664
  vertex 0.0006349999 0.0042550005 0.12664
 endloop
endfacet
facet normal 1 -1.1641497e-06 0
 outer loop
  vertex 0.000635 0.0021400002 0.125
  vertex 0.000635 0.0021400002 0.12664
  vertex 0.00063499995 0.00209 0.12664
 endloop
endfacet
facet normal 1 -1.1641497e-06 0
 outer loop
  vertex 0.000635 0.0021400002 0.125
  vertex 0.00063499995 0.00209 0.12664
  vertex 0.00063499995 0.00209 0.125
 endloop
endfacet
facet normal 5.5701115e-08 -1 0
 outer loop
  vertex 0.00063500006 0.00209 0.125
  vertex 0.0048149996 0.0020900003 0.125
  vertex 0.0048149996 0.0020900003 0.12664
 endloop
endfacet
facet normal 5.5701115e-08 -1 0
 outer loop
  vertex 0.00063500006 0.00209 0.125
  vertex 0.0048149996 0.0020900003 0.12664
  vertex 0.00063500006 0.00209 0.12664
 endloop
endfacet
facet normal -1 -2.7521352e-08 -7.0984655e-08
 outer loop
  vertex 0.00058499986 0.004205 0.12664
  vertex 0.000585 0.004205 0.125
  vertex 0.00058500003 0.00209 0.125
 endloop
endfacet
facet normal -0 -1 -0
 outer loop
  vertex 0.00058500003 0.00209 0.125
  vertex 0.00063500006 0.00209 0.125
  vertex 0.00063500006 0.00209 0.12664
 endloop
endfacet
facet normal -1 -8.256406e-08 0
 outer loop
  vertex 0.00058500003 0.00209 0.12664
  vertex 0.00058499986 0.004205 0.12664
  vertex 0.00058500003 0.00209 0.125
 endloop
endfacet
facet normal 0 -1 0
 outer loop
  vertex 0.00063500006 0.00209 0.12664
  vertex 0.00058500003 0.00209 0.12664
  vertex 0.00058500003 0.00209 0.125
 endloop
endfacet
facet normal -0 1 0
 outer loop
  vertex 0.00063499995 -0.00209 0.12499891
  vertex 0.000585 -0.00209 0.12499891
  vertex 0.000585 -0.00209 0.12664
 endloop
endfacet
facet normal 0 1 0
 outer loop
  vertex 0.00063499995 -0.00209 0.12499891
  vertex 0.000585 -0.00209 0.12664
  vertex 0.00063499995 -0.00209 0.12664
 endloop
endfacet
facet normal -0.0005143203 -0.00051431905 -0.9999997
 outer loop
  vertex 0.0006349999 -0.0042549996 0.125
  vertex 0.0005850001 -0.0042049997 0.125
  vertex 0.000585 -0.00209 0.12499891
 endloop
endfacet
facet normal -0 -0.0005024411 -0.99999994
 outer loop
  vertex 0.0006349999 -0.0042549996 0.125
  vertex 0.000585 -0.00209 0.12499891
  vertex 0.00063499995 -0.00209 0.12499891
 endloop
endfacet
facet normal 0 -0 1
 outer loop
  vertex 0.00063499995 -0.00209 0.12664
  vertex 0.000585 -0.00209 0.12664
  vertex 0.0005850001 -0.0042049997 0.12664
 endloop
endfacet
facet normal 0 -0 1
 outer loop
  vertex 0.00063499995 -0.00209 0.12664
  vertex 0.0005850001 -0.0042049997 0.12664
  vertex 0.0006349999 -0.0042549996 0.12664
 endloop
endfacet
facet normal 0 0 -1
 outer loop
  vertex 0.00063500006 0.00209 0.125
  vertex 0.00058500003 0.00209 0.125
  vertex 0.000585 0.004205 0.125
 endloop
endfacet
facet normal 0 -0 -1
 outer loop
  vertex 0.00063500006 0.00209 0.125
  vertex 0.000585 0.004205 0.125
  vertex 0.0006349999 0.0042550005 0.125
 endloop
endfacet
facet normal 0 -0 1
 outer loop
  vertex 0.0006349999 0.0042550005 0.12664
  vertex 0.00058499986 0.004205 0.12664
  vertex 0.00058500003 0.00209 0.12664
 endloop
endfacet
facet normal 0 -0 1
 outer loop
  vertex 0.0006349999 0.0042550005 0.12664
  vertex 0.00058500003 0.00209 0.12664
  vertex 0.00063500006 0.00209 0.12664
 endloop
endfacet
facet normal -0 0 1
 outer loop
  vertex -0.003645 -0.004255 0.12505001
  vertex -0.0036450003 0.004255 0.12505001
  vertex -0.006117735 0 0.12505001
 endloop
endfacet
facet normal 0 0 1
 outer loop
  vertex 0.0030588675 0.005298114 0.12505001
  vertex -0.0030588675 0.005298114 0.12505001
  vertex -0.0036450003 0.004255 0.12505001
 endloop
endfacet
facet normal 0 -0 1
 outer loop
  vertex 0.0030588675 0.005298114 0.12505001
  vertex -0.0036450003 0.004255 0.12505001
  vertex 0.0006349999 0.0042550005 0.12505001
 endloop
endfacet
facet normal -0.0004341641 -0.00025415537 0.99999994
 outer loop
  vertex 0.004864978 0.0021399877 0.12505001
  vertex 0.004864979 -0.0021400128 0.12504892
  vertex 0.006117713 -1.2874604e-08 0.12505001
 endloop
endfacet
facet normal -0 0.0003444401 0.99999994
 outer loop
  vertex 0.0030588694 -0.0052981046 0.12505001
  vertex 0.0048650037 -0.0021399804 0.12504892
  vertex 0.0006350031 -0.0021399804 0.12504892
 endloop
endfacet
facet normal 0.0002213368 0.0005143165 0.9999998
 outer loop
  vertex 0.0030588694 -0.0052981046 0.12505001
  vertex 0.0006350031 -0.0021399804 0.12504892
  vertex 0.00063500146 -0.00425499 0.12505001
 endloop
endfacet
facet normal 0 0 1
 outer loop
  vertex -0.003645 -0.004255 0.12505001
  vertex -0.0030588675 -0.005298114 0.12505001
  vertex 0.0030588694 -0.0052981046 0.12505001
 endloop
endfacet
facet normal 0 0 1
 outer loop
  vertex -0.003645 -0.004255 0.12505001
  vertex 0.0030588694 -0.0052981046 0.12505001
  vertex 0.00063500146 -0.00425499 0.12505001
 endloop
endfacet
facet normal -0 0 1
 outer loop
  vertex 0.0006349999 -0.0042549996 0.12669002
  vertex 0.0006349999 0.0042550005 0.12669002
  vertex -0.0036450003 0.004255 0.12669002
 endloop
endfacet
facet normal -0 -0 1
 outer loop
  vertex 0.0006349999 -0.0042549996 0.12669002
  vertex -0.0036450003 0.004255 0.12669002
  vertex -0.003645 -0.004255 0.12669002
 endloop
endfacet
facet normal 0 0 1
 outer loop
  vertex 0.004865 0.0021400005 0.12669002
  vertex 0.000635 0.0021400002 0.12669002
  vertex 0.0006349999 -0.0021399998 0.12669002
 endloop
endfacet
facet normal 0 -0 1
 outer loop
  vertex 0.004865 0.0021400005 0.12669002
  vertex 0.0006349999 -0.0021399998 0.12669002
  vertex 0.0048649996 -0.00214 0.12669002
 endloop
endfacet
facet normal 1 -1.08799355e-07 0
 outer loop
  vertex 0.004865 0.0021400005 0.12669002
  vertex 0.0048649996 -0.00214 0.12669002
  vertex 0.0048649996 -0.00214 0.12664
 endloop
endfacet
facet normal 1 -1.08799355e-07 0
 outer loop
  vertex 0.004865 0.0021400005 0.12669002
  vertex 0.0048649996 -0.00214 0.12664
  vertex 0.004865 0.0021400005 0.12664
 endloop
endfacet
facet normal -5.5042708e-08 -1 0
 outer loop
  vertex 0.0048649996 -0.00214 0.12669002
  vertex 0.0006349999 -0.0021399998 0.12669002
  vertex 0.0006349999 -0.0021399998 0.12664
 endloop
endfacet
facet normal -5.5042708e-08 -1 0
 outer loop
  vertex 0.0048649996 -0.00214 0.12669002
  vertex 0.0006349999 -0.0021399998 0.12664
  vertex 0.0048649996 -0.00214 0.12664
 endloop
endfacet
facet normal -5.5042705e-08 1 0
 outer loop
  vertex 0.000635 0.0021400002 0.12669002
  vertex 0.004865 0.0021400005 0.12669002
  vertex 0.004865 0.0021400005 0.12664
 endloop
endfacet
facet normal -5.5042705e-08 1 0
 outer loop
  vertex 0.000635 0.0021400002 0.12669002
  vertex 0.004865 0.0021400005 0.12664
  vertex 0.000635 0.0021400002 0.12664
 endloop
endfacet
facet normal 1.0879937e-07 -1 0
 outer loop
  vertex 0.0006349999 -0.0042549996 0.12669002
  vertex -0.003645 -0.004255 0.12669002
  vertex -0.003645 -0.004255 0.12664
 endloop
endfacet
facet normal 1.0879937e-07 -1 0
 outer loop
  vertex 0.0006349999 -0.0042549996 0.12669002
  vertex -0.003645 -0.004255 0.12664
  vertex 0.0006349999 -0.0042549996 0.12664
 endloop
endfacet
facet normal -1 -2.7359652e-08 0
 outer loop
  vertex -0.003645 -0.004255 0.12669002
  vertex -0.0036450003 0.004255 0.12669002
  vertex -0.0036450003 0.004255 0.12664
 endloop
endfacet
facet normal -1 -2.7359652e-08 0
 outer loop
  vertex -0.003645 -0.004255 0.12669002
  vertex -0.0036450003 0.004255 0.12664
  vertex -0.003645 -0.004255 0.12664
 endloop
endfacet
facet normal -1.0879937e-07 1 0
 outer loop
  vertex -0.0036450003 0.004255 0.12669002
  vertex 0.0006349999 0.0042550005 0.12669002
  vertex 0.0006349999 0.0042550005 0.12664
 endloop
endfacet
facet normal -1.0879937e-07 1 0
 outer loop
  vertex -0.0036450003 0.004255 0.12669002
  vertex 0.0006349999 0.0042550005 0.12664
  vertex -0.0036450003 0.004255 0.12664
 endloop
endfacet
facet normal 1 0 0
 outer loop
  vertex 0.0006349999 0.0042550005 0.12669002
  vertex 0.0006349999 -0.0042549996 0.12669002
  vertex 0.0006349999 -0.0042549996 0.12664
 endloop
endfacet
facet normal 1 0 -0
 outer loop
  vertex 0.0006349999 0.0042550005 0.12669002
  vertex 0.0006349999 -0.0042549996 0.12664
  vertex 0.0006349999 0.0042550005 0.12664
 endloop
endfacet
facet normal -1 2.7199842e-08 0
 outer loop
  vertex 0.0006349999 -0.0021399998 0.12669002
  vertex 0.000635 0.0021400002 0.12669002
  vertex 0.000635 0.0021400002 0.12664
 endloop
endfacet
facet normal -1 2.7199842e-08 0
 outer loop
  vertex 0.0006349999 -0.0021399998 0.12669002
  vertex 0.000635 0.0021400002 0.12664
  vertex 0.0006349999 -0.0021399998 0.12664
 endloop
endfacet
facet normal 1.5223318e-06 -1 0
 outer loop
  vertex 0.0030588694 -0.0052981046 0.12505001
  vertex -0.0030588675 -0.005298114 0.12505001
  vertex -0.0030588675 -0.005298114 0.125
 endloop
endfacet
facet normal 0 -1 0.00018623362
 outer loop
  vertex 0.0030588694 -0.0052981046 0.12505001
  vertex -0.0030588675 -0.005298114 0.125
  vertex 0.0030588675 -0.005298114 0.125
 endloop
endfacet
facet normal 0.9999999 1.0636788e-07 0.00043764897
 outer loop
  vertex 0.004864979 -0.0021400128 0.12504892
  vertex 0.004865001 -0.00214 0.12499891
  vertex 0.004865 0.0021400005 0.125
 endloop
endfacet
facet normal 0.9999999 1.06367885e-07 0.00043764894
 outer loop
  vertex 0.004864979 -0.0021400128 0.12504892
  vertex 0.004865 0.0021400005 0.125
  vertex 0.004864978 0.0021399877 0.12505001
 endloop
endfacet
facet normal 0 -0.99999994 0.00039109055
 outer loop
  vertex 0.0006350031 -0.0021399804 0.12504892
  vertex 0.00063499995 -0.00214 0.12499891
  vertex 0.004865001 -0.00214 0.12499891
 endloop
endfacet
facet normal 0 -0.99999994 0.00039109055
 outer loop
  vertex 0.0006350031 -0.0021399804 0.12504892
  vertex 0.004865001 -0.00214 0.12499891
  vertex 0.0048650037 -0.0021399804 0.12504892
 endloop
endfacet
facet normal -1 -2.7359652e-08 0
 outer loop
  vertex -0.0036450003 0.004255 0.12505001
  vertex -0.0036450003 0.004255 0.125
  vertex -0.003645 -0.004255 0.125
 endloop
endfacet
facet normal -1 -2.7359652e-08 -0
 outer loop
  vertex -0.0036450003 0.004255 0.12505001
  vertex -0.003645 -0.004255 0.125
  vertex -0.003645 -0.004255 0.12505001
 endloop
endfacet
facet normal 1.0879937e-07 -1 0
 outer loop
  vertex -0.003645 -0.004255 0.12505001
  vertex -0.003645 -0.004255 0.125
  vertex 0.0006349999 -0.0042549996 0.125
 endloop
endfacet
facet normal 2.3935852e-06 -1 0.0001955452
 outer loop
  vertex -0.003645 -0.004255 0.12505001
  vertex 0.0006349999 -0.0042549996 0.125
  vertex 0.00063500146 -0.00425499 0.12505001
 endloop
endfacet
facet normal -0.8646045 -0.5024531 0
 outer loop
  vertex -0.003645 -0.004255 0.12505001
  vertex -0.006117735 0 0.12505001
  vertex -0.006117735 0 0.125
 endloop
endfacet
facet normal -0.8646045 -0.5024531 0
 outer loop
  vertex -0.003645 -0.004255 0.12505001
  vertex -0.006117735 0 0.125
  vertex -0.003645 -0.004255 0.125
 endloop
endfacet
facet normal -0.8646045 0.502453 0
 outer loop
  vertex -0.006117735 0 0.12505001
  vertex -0.0036450003 0.004255 0.12505001
  vertex -0.0036450003 0.004255 0.125
 endloop
endfacet
facet normal -0.8646045 0.502453 0
 outer loop
  vertex -0.006117735 0 0.12505001
  vertex -0.0036450003 0.004255 0.125
  vertex -0.006117735 0 0.125
 endloop
endfacet
facet normal 0.8630053 0.5051947 0.00050775544
 outer loop
  vertex 0.004864978 0.0021399877 0.12505001
  vertex 0.006117713 -1.2874604e-08 0.12505001
  vertex 0.006117735 0 0.125
 endloop
endfacet
facet normal 0.8630053 0.5051947 0.00050789915
 outer loop
  vertex 0.004864978 0.0021399877 0.12505001
  vertex 0.006117735 0 0.125
  vertex 0.004865 0.0021400005 0.125
 endloop
endfacet
facet normal 0.8630054 -0.5051946 0.00024832762
 outer loop
  vertex 0.006117713 -1.2874604e-08 0.12505001
  vertex 0.004864979 -0.0021400128 0.12504892
  vertex 0.004865001 -0.00214 0.12499891
 endloop
endfacet
facet normal 0.8630054 -0.50519466 0.0002493657
 outer loop
  vertex 0.006117713 -1.2874604e-08 0.12505001
  vertex 0.004865001 -0.00214 0.12499891
  vertex 0.006117735 0 0.125
 endloop
endfacet
facet normal 0.8680665 -0.49644807 6.0122686e-05
 outer loop
  vertex 0.0048650037 -0.0021399804 0.12504892
  vertex 0.0030588694 -0.0052981046 0.12505001
  vertex 0.0030588675 -0.005298114 0.125
 endloop
endfacet
facet normal 0.8680659 -0.49644902 0.00014747043
 outer loop
  vertex 0.0048650037 -0.0021399804 0.12504892
  vertex 0.0030588675 -0.005298114 0.125
  vertex 0.004865001 -0.00214 0.12499891
 endloop
endfacet
facet normal 1 -4.3684825e-08 -3.1426916e-05
 outer loop
  vertex 0.00063500146 -0.00425499 0.12505001
  vertex 0.0006349999 -0.0042549996 0.125
  vertex 0.00063499995 -0.00214 0.12499891
 endloop
endfacet
facet normal 1 -8.029211e-07 -6.285353e-05
 outer loop
  vertex 0.00063500146 -0.00425499 0.12505001
  vertex 0.00063499995 -0.00214 0.12499891
  vertex 0.0006350031 -0.0021399804 0.12504892
 endloop
endfacet
facet normal -0.8717965 -0.48986816 0
 outer loop
  vertex -0.0030588675 -0.005298114 0.12505001
  vertex -0.003645 -0.004255 0.12505001
  vertex -0.003645 -0.004255 0.125
 endloop
endfacet
facet normal -0.8717965 -0.48986816 0
 outer loop
  vertex -0.0030588675 -0.005298114 0.12505001
  vertex -0.003645 -0.004255 0.125
  vertex -0.0030588675 -0.005298114 0.125
 endloop
endfacet
facet normal 0 1 0
 outer loop
  vertex 0.0030588675 0.005298114 0.12505001
  vertex 0.0030588675 0.005298114 0.125
  vertex -0.0030588675 0.005298114 0.125
 endloop
endfacet
facet normal -0 1 0
 outer loop
  vertex 0.0030588675 0.005298114 0.12505001
  vertex -0.0030588675 0.005298114 0.125
  vertex -0.0030588675 0.005298114 0.12505001
 endloop
endfacet
facet normal -5.5042705e-08 1 0
 outer loop
  vertex 0.000635 0.0021400002 0.12505001
  vertex 0.004865 0.0021400005 0.12505001
  vertex 0.004865 0.0021400005 0.125
 endloop
endfacet
facet normal -5.5042705e-08 1 0
 outer loop
  vertex 0.000635 0.0021400002 0.12505001
  vertex 0.004865 0.0021400005 0.125
  vertex 0.000635 0.0021400002 0.125
 endloop
endfacet
facet normal -1.0879937e-07 1 0
 outer loop
  vertex -0.0036450003 0.004255 0.12505001
  vertex 0.0006349999 0.0042550005 0.12505001
  vertex 0.0006349999 0.0042550005 0.125
 endloop
endfacet
facet normal -1.0879937e-07 1 0
 outer loop
  vertex -0.0036450003 0.004255 0.12505001
  vertex 0.0006349999 0.0042550005 0.125
  vertex -0.0036450003 0.004255 0.125
 endloop
endfacet
facet normal -0.8717964 0.4898683 0
 outer loop
  vertex -0.0030588675 0.005298114 0.12505001
  vertex -0.0030588675 0.005298114 0.125
  vertex -0.0036450003 0.004255 0.125
 endloop
endfacet
facet normal -0.8717964 0.4898683 0
 outer loop
  vertex -0.0030588675 0.005298114 0.12505001
  vertex -0.0036450003 0.004255 0.125
  vertex -0.0036450003 0.004255 0.12505001
 endloop
endfacet
facet normal 1 5.5042698e-08 -0
 outer loop
  vertex 0.0006349999 0.0042550005 0.12505001
  vertex 0.000635 0.0021400002 0.12505001
  vertex 0.000635 0.0021400002 0.125
 endloop
endfacet
facet normal 1 5.5042698e-08 0
 outer loop
  vertex 0.0006349999 0.0042550005 0.12505001
  vertex 0.000635 0.0021400002 0.125
  vertex 0.0006349999 0.0042550005 0.125
 endloop
endfacet
facet normal 0.86806595 0.49644896 0
 outer loop
  vertex 0.0030588675 0.005298114 0.125
  vertex 0.0030588675 0.005298114 0.12505001
  vertex 0.004865 0.0021400005 0.12505001
 endloop
endfacet
facet normal 0.86806595 0.49644896 -0
 outer loop
  vertex 0.0030588675 0.005298114 0.125
  vertex 0.004865 0.0021400005 0.12505001
  vertex 0.004865 0.0021400005 0.125
 endloop
endfacet
facet normal -1.0879936e-07 1 0
 outer loop
  vertex -0.0036450003 0.004255 0.12664
  vertex 0.0006349999 0.0042550005 0.12664
  vertex 0.0006349999 0.0042550005 0.12505001
 endloop
endfacet
facet normal -1.0879936e-07 1 0
 outer loop
  vertex -0.0036450003 0.004255 0.12664
  vertex 0.0006349999 0.0042550005 0.12505001
  vertex -0.0036450003 0.004255 0.12505001
 endloop
endfacet
facet normal 1 5.5042698e-08 0
 outer loop
  vertex 0.000635 0.0021400002 0.12505001
  vertex 0.0006349999 0.0042550005 0.12505001
  vertex 0.0006349999 0.0042550005 0.12664
 endloop
endfacet
facet normal 1 5.5042698e-08 0
 outer loop
  vertex 0.000635 0.0021400002 0.12505001
  vertex 0.0006349999 0.0042550005 0.12664
  vertex 0.000635 0.0021400002 0.12664
 endloop
endfacet
facet normal -0 0 1
 outer loop
  vertex 0.004865 0.0021400005 0.12505001
  vertex 0.0030588675 0.005298114 0.12505001
  vertex 0.0006349999 0.0042550005 0.12505001
 endloop
endfacet
facet normal -0 -0 1
 outer loop
  vertex 0.004865 0.0021400005 0.12505001
  vertex 0.0006349999 0.0042550005 0.12505001
  vertex 0.000635 0.0021400002 0.12505001
 endloop
endfacet
facet normal -1 -0 -5.675008e-07
 outer loop
  vertex 0.0048150006 -0.0020900003 0.12499891
  vertex 0.0048149996 -0.00209 0.12664
  vertex 0.0048149996 0.0020900003 0.12664
 endloop
endfacet
facet normal -1 -2.228044e-07 0
 outer loop
  vertex 0.0048150006 -0.0020900003 0.12499891
  vertex 0.0048149996 0.0020900003 0.12664
  vertex 0.0048149996 0.0020900003 0.125
 endloop
endfacet
facet normal 0 -1 0
 outer loop
  vertex 0.00058499986 0.004205 0.12664
  vertex -0.0035950001 0.004205 0.12664
  vertex -0.0035950001 0.004205 0.125
 endloop
endfacet
facet normal 0 -1 0
 outer loop
  vertex 0.00058499986 0.004205 0.12664
  vertex -0.0035950001 0.004205 0.125
  vertex 0.000585 0.004205 0.125
 endloop
endfacet
facet normal 5.5701115e-08 -1 0
 outer loop
  vertex 0.00063500006 0.00209 0.125
  vertex 0.0048149996 0.0020900003 0.125
  vertex 0.0048149996 0.0020900003 0.12664
 endloop
endfacet
facet normal 0 -1 0
 outer loop
  vertex 0.00063500006 0.00209 0.12664
  vertex 0.00058500003 0.00209 0.12664
  vertex 0.00058500003 0.00209 0.125
 endloop
endfacet
facet normal 5.5701115e-08 -1 0
 outer loop
  vertex 0.00063500006 0.00209 0.125
  vertex 0.0048149996 0.0020900003 0.12664
  vertex 0.00063500006 0.00209 0.12664
 endloop
endfacet
facet normal 0 -1 0
 outer loop
  vertex 0.00063500006 0.00209 0.125
  vertex 0.00063500006 0.00209 0.12664
  vertex 0.00058500003 0.00209 0.125
 endloop
endfacet
facet normal 1 2.7684978e-08 0
 outer loop
  vertex -0.0035950001 0.004205 0.125
  vertex -0.0035950001 0.004205 0.12664
  vertex -0.003595 -0.0042049997 0.12664
 endloop
endfacet
facet normal 1 2.7684978e-08 -0
 outer loop
  vertex -0.0035950001 0.004205 0.125
  vertex -0.003595 -0.0042049997 0.12664
  vertex -0.003595 -0.0042049997 0.125
 endloop
endfacet
facet normal 0 1 0
 outer loop
  vertex -0.003595 -0.0042049997 0.125
  vertex -0.003595 -0.0042049997 0.12664
  vertex 0.0005850001 -0.0042049997 0.12664
 endloop
endfacet
facet normal 0 1 -0
 outer loop
  vertex -0.003595 -0.0042049997 0.125
  vertex 0.0005850001 -0.0042049997 0.12664
  vertex 0.0005850001 -0.0042049997 0.125
 endloop
endfacet
facet normal -1 -5.5042715e-08 0
 outer loop
  vertex 0.000585 -0.00209 0.12664
  vertex 0.000585 -0.00209 0.12499891
  vertex 0.0005850001 -0.0042049997 0.125
 endloop
endfacet
facet normal -1 -5.504272e-08 -0
 outer loop
  vertex 0.000585 -0.00209 0.12664
  vertex 0.0005850001 -0.0042049997 0.125
  vertex 0.0005850001 -0.0042049997 0.12664
 endloop
endfacet
facet normal 0 1 -1.418752e-07
 outer loop
  vertex 0.00063499995 -0.00209 0.12664
  vertex 0.0048149996 -0.00209 0.12664
  vertex 0.0048150006 -0.0020900003 0.12499891
 endloop
endfacet
facet normal 5.57011e-08 1 0
 outer loop
  vertex 0.00063499995 -0.00209 0.12664
  vertex 0.0048150006 -0.0020900003 0.12499891
  vertex 0.00063499995 -0.00209 0.12499891
 endloop
endfacet
facet normal -0 0 -1
 outer loop
  vertex 0.00063500006 0.00209 0.12664
  vertex 0.0048149996 0.0020900003 0.12664
  vertex 0.0048149996 -0.00209 0.12664
 endloop
endfacet
facet normal 0 0 -1
 outer loop
  vertex 0.00063500006 0.00209 0.12664
  vertex 0.0048149996 -0.00209 0.12664
  vertex 0.00063499995 -0.00209 0.12664
 endloop
endfacet
facet normal 0 0 -1
 outer loop
  vertex 0.000585 -0.00209 0.12664
  vertex 0.0005850001 -0.0042049997 0.12664
  vertex -0.003595 -0.0042049997 0.12664
 endloop
endfacet
facet normal -0 -0 -1
 outer loop
  vertex -0.003595 -0.0042049997 0.12664
  vertex -0.0035950001 0.004205 0.12664
  vertex 0.00058499986 0.004205 0.12664
 endloop
endfacet
facet normal 0 0 -1
 outer loop
  vertex 0.00058499986 0.004205 0.12664
  vertex 0.00058500003 0.00209 0.12664
  vertex 0.000585 -0.00209 0.12664
 endloop
endfacet
facet normal 0 -0 -1
 outer loop
  vertex 0.000585 -0.00209 0.12664
  vertex -0.003595 -0.0042049997 0.12664
  vertex 0.00058499986 0.004205 0.12664
 endloop
endfacet
facet normal -0 0 -1
 outer loop
  vertex 0.000585 -0.00209 0.12664
  vertex 0.00058500003 0.00209 0.12664
  vertex 0.00063500006 0.00209 0.12664
 endloop
endfacet
facet normal -0 0 -1
 outer loop
  vertex 0.000585 -0.00209 0.12664
  vertex 0.00063500006 0.00209 0.12664
  vertex 0.00063499995 -0.00209 0.12664
 endloop
endfacet
facet normal 0.86602545 0.49999994 0
 outer loop
  vertex 0.006120621 2.384186e-10 -0.12505001
  vertex 0.003060311 0.005300614 -0.12505001
  vertex 0.003060311 0.005300614 -0.125
 endloop
endfacet
facet normal 0.86602545 0.49999994 0
 outer loop
  vertex 0.006120621 2.384186e-10 -0.12505001
  vertex 0.003060311 0.005300614 -0.125
  vertex 0.006120621 2.384186e-10 -0.125
 endloop
endfacet
facet normal 0.86602545 -0.5 0
 outer loop
  vertex 0.0030603104 -0.0053006136 -0.12505001
  vertex 0.006120621 2.384186e-10 -0.12505001
  vertex 0.006120621 2.384186e-10 -0.125
 endloop
endfacet
facet normal 0.86602545 -0.5 0
 outer loop
  vertex 0.0030603104 -0.0053006136 -0.12505001
  vertex 0.006120621 2.384186e-10 -0.125
  vertex 0.0030603104 -0.0053006136 -0.125
 endloop
endfacet
facet normal 7.6080724e-08 -1 0
 outer loop
  vertex -0.003060311 -0.005300614 -0.12505001
  vertex 0.0030603104 -0.0053006136 -0.12505001
  vertex 0.0030603104 -0.0053006136 -0.125
 endloop
endfacet
facet normal 7.6080724e-08 -1 0
 outer loop
  vertex -0.003060311 -0.005300614 -0.12505001
  vertex 0.0030603104 -0.0053006136 -0.125
  vertex -0.003060311 -0.005300614 -0.125
 endloop
endfacet
facet normal -0.86602545 -0.49999994 -0
 outer loop
  vertex -0.006120621 -2.384186e-10 -0.12505001
  vertex -0.003060311 -0.005300614 -0.12505001
  vertex -0.003060311 -0.005300614 -0.125
 endloop
endfacet
facet normal -0.86602545 -0.49999994 0
 outer loop
  vertex -0.006120621 -2.384186e-10 -0.12505001
  vertex -0.003060311 -0.005300614 -0.125
  vertex -0.006120621 -2.384186e-10 -0.125
 endloop
endfacet
facet normal -0.86602545 0.5 0
 outer loop
  vertex -0.0030603104 0.0053006136 -0.12505001
  vertex -0.006120621 -2.384186e-10 -0.12505001
  vertex -0.006120621 -2.384186e-10 -0.125
 endloop
endfacet
facet normal -0.86602545 0.5 0
 outer loop
  vertex -0.0030603104 0.0053006136 -0.12505001
  vertex -0.006120621 -2.384186e-10 -0.125
  vertex -0.0030603104 0.0053006136 -0.125
 endloop
endfacet
facet normal -7.6080724e-08 1 0
 outer loop
  vertex 0.003060311 0.005300614 -0.12505001
  vertex -0.0030603104 0.0053006136 -0.12505001
  vertex -0.0030603104 0.0053006136 -0.125
 endloop
endfacet
facet normal -7.6080724e-08 1 0
 outer loop
  vertex 0.003060311 0.005300614 -0.12505001
  vertex -0.0030603104 0.0053006136 -0.125
  vertex 0.003060311 0.005300614 -0.125
 endloop
endfacet
facet normal 0 0 1
 outer loop
  vertex 0.0030603104 -0.0053006136 -0.125
  vertex 0.006120621 2.384186e-10 -0.125
  vertex 0.003060311 0.005300614 -0.125
 endloop
endfacet
facet normal 0 0 1
 outer loop
  vertex 0.003060311 0.005300614 -0.125
  vertex -0.0030603104 0.0053006136 -0.125
  vertex -0.006120621 -2.384186e-10 -0.125
 endloop
endfacet
facet normal 0 0 1
 outer loop
  vertex -0.006120621 -2.384186e-10 -0.125
  vertex -0.003060311 -0.005300614 -0.125
  vertex 0.0030603104 -0.0053006136 -0.125
 endloop
endfacet
facet normal 0 -0 1
 outer loop
  vertex 0.003060311 0.005300614 -0.125
  vertex -0.006120621 -2.384186e-10 -0.125
  vertex 0.0030603104 -0.0053006136 -0.125
 endloop
endfacet
facet normal 0 0 -1
 outer loop
  vertex 0.0030891786 0.005350614 -0.125
  vertex 0.0061783562 0 -0.125
  vertex 0.006120621 2.384186e-10 -0.125
 endloop
endfacet
facet normal 0 0 -1
 outer loop
  vertex 0.0030891786 0.005350614 -0.125
  vertex 0.006120621 2.384186e-10 -0.125
  vertex 0.003060311 0.005300614 -0.125
 endloop
endfacet
facet normal -0 0 1
 outer loop
  vertex 0.00617547 -2.384186e-10 0.125
  vertex 0.003087735 0.005348114 0.125
  vertex 0.0030588675 0.005298114 0.125
 endloop
endfacet
facet normal -0 -0 1
 outer loop
  vertex 0.00617547 -2.384186e-10 0.125
  vertex 0.0030588675 0.005298114 0.125
  vertex 0.006117735 0 0.125
 endloop
endfacet
facet normal 0 0 -1
 outer loop
  vertex 0.0061783562 0 -0.125
  vertex 0.0030891781 -0.005350614 -0.125
  vertex 0.0030603104 -0.0053006136 -0.125
 endloop
endfacet
facet normal 0 -0 -1
 outer loop
  vertex 0.0061783562 0 -0.125
  vertex 0.0030603104 -0.0053006136 -0.125
  vertex 0.006120621 2.384186e-10 -0.125
 endloop
endfacet
facet normal 0 0 1
 outer loop
  vertex 0.0030877348 -0.0053481143 0.125
  vertex 0.00617547 -2.384186e-10 0.125
  vertex 0.006117735 0 0.125
 endloop
endfacet
facet normal -0 0 1
 outer loop
  vertex 0.0030877348 -0.0053481143 0.125
  vertex 0.006117735 0 0.125
  vertex 0.0030588675 -0.005298114 0.125
 endloop
endfacet
facet normal 0 -0 -1
 outer loop
  vertex 0.0030891781 -0.005350614 -0.125
  vertex -0.0030891786 -0.005350614 -0.125
  vertex -0.003060311 -0.005300614 -0.125
 endloop
endfacet
facet normal 0 -0 -1
 outer loop
  vertex 0.0030891781 -0.005350614 -0.125
  vertex -0.003060311 -0.005300614 -0.125
  vertex 0.0030603104 -0.0053006136 -0.125
 endloop
endfacet
facet normal 0 0 1
 outer loop
  vertex -0.003087735 -0.005348114 0.125
  vertex 0.0030877348 -0.0053481143 0.125
  vertex 0.0030588675 -0.005298114 0.125
 endloop
endfacet
facet normal -0 0 1
 outer loop
  vertex -0.003087735 -0.005348114 0.125
  vertex 0.0030588675 -0.005298114 0.125
  vertex -0.0030588675 -0.005298114 0.125
 endloop
endfacet
facet normal -0 -0 -1
 outer loop
  vertex -0.0030891786 -0.005350614 -0.125
  vertex -0.0061783562 0 -0.125
  vertex -0.006120621 -2.384186e-10 -0.125
 endloop
endfacet
facet normal -0 -0 -1
 outer loop
  vertex -0.0030891786 -0.005350614 -0.125
  vertex -0.006120621 -2.384186e-10 -0.125
  vertex -0.003060311 -0.005300614 -0.125
 endloop
endfacet
facet normal 0 0 1
 outer loop
  vertex -0.00617547 2.384186e-10 0.125
  vertex -0.003087735 -0.005348114 0.125
  vertex -0.0030588675 -0.005298114 0.125
 endloop
endfacet
facet normal 0 0 1
 outer loop
  vertex -0.00617547 2.384186e-10 0.125
  vertex -0.0030588675 -0.005298114 0.125
  vertex -0.006117735 0 0.125
 endloop
endfacet
facet normal -0 0 -1
 outer loop
  vertex -0.0061783562 0 -0.125
  vertex -0.0030891781 0.005350614 -0.125
  vertex -0.0030603104 0.0053006136 -0.125
 endloop
endfacet
facet normal -0 0 -1
 outer loop
  vertex -0.0061783562 0 -0.125
  vertex -0.0030603104 0.0053006136 -0.125
  vertex -0.006120621 -2.384186e-10 -0.125
 endloop
endfacet
facet normal 0 -0 1
 outer loop
  vertex -0.0030877348 0.0053481143 0.125
  vertex -0.00617547 2.384186e-10 0.125
  vertex -0.006117735 0 0.125
 endloop
endfacet
facet normal 0 -0 1
 outer loop
  vertex -0.0030877348 0.0053481143 0.125
  vertex -0.006117735 0 0.125
  vertex -0.0030588675 0.005298114 0.125
 endloop
endfacet
facet normal 0 0 -1
 outer loop
  vertex -0.0030891781 0.005350614 -0.125
  vertex 0.0030891786 0.005350614 -0.125
  vertex 0.003060311 0.005300614 -0.125
 endloop
endfacet
facet normal 0 0 -1
 outer loop
  vertex -0.0030891781 0.005350614 -0.125
  vertex 0.003060311 0.005300614 -0.125
  vertex -0.0030603104 0.0053006136 -0.125
 endloop
endfacet
facet normal -0 -0 1
 outer loop
  vertex 0.003087735 0.005348114 0.125
  vertex -0.0030877348 0.0053481143 0.125
  vertex -0.0030588675 0.005298114 0.125
 endloop
endfacet
facet normal 0 -0 1
 outer loop
  vertex 0.003087735 0.005348114 0.125
  vertex -0.0030588675 0.005298114 0.125
  vertex 0.0030588675 0.005298114 0.125
 endloop
endfacet
facet normal -0.86602545 0.5 -9.997523e-06
 outer loop
  vertex 0.006120621 2.384186e-10 -0.125
  vertex 0.0030603104 -0.0053006136 -0.125
  vertex 0.0030588675 -0.005298114 0.125
 endloop
endfacet
facet normal -0.8660254 0.5 -9.997441e-06
 outer loop
  vertex 0.006120621 2.384186e-10 -0.125
  vertex 0.0030588675 -0.005298114 0.125
  vertex 0.006117735 0 0.125
 endloop
endfacet
facet normal -0.86602545 -0.4999999 -1.0000875e-05
 outer loop
  vertex 0.0030588675 0.005298114 0.125
  vertex 0.003060311 0.005300614 -0.125
  vertex 0.006120621 2.384186e-10 -0.125
 endloop
endfacet
facet normal -0.8660254 -0.5 -9.998458e-06
 outer loop
  vertex 0.0030588675 0.005298114 0.125
  vertex 0.006120621 2.384186e-10 -0.125
  vertex 0.006117735 0 0.125
 endloop
endfacet
facet normal 0.86602545 -0.5 -9.997505e-06
 outer loop
  vertex -0.006117735 0 0.125
  vertex -0.006120621 -2.384186e-10 -0.125
  vertex -0.0030603104 0.0053006136 -0.125
 endloop
endfacet
facet normal 0.8660254 -0.5 -9.997524e-06
 outer loop
  vertex -0.006117735 0 0.125
  vertex -0.0030603104 0.0053006136 -0.125
  vertex -0.0030588675 0.005298114 0.125
 endloop
endfacet
facet normal 0.86602545 0.4999999 -9.998459e-06
 outer loop
  vertex -0.003060311 -0.005300614 -0.125
  vertex -0.006120621 -2.384186e-10 -0.125
  vertex -0.006117735 0 0.125
 endloop
endfacet
facet normal 0.8660254 0.5 -1.0001009e-05
 outer loop
  vertex -0.003060311 -0.005300614 -0.125
  vertex -0.006117735 0 0.125
  vertex -0.0030588675 -0.005298114 0.125
 endloop
endfacet
facet normal -7.6080724e-08 1 -9.998679e-06
 outer loop
  vertex 0.0030588675 -0.005298114 0.125
  vertex 0.0030603104 -0.0053006136 -0.125
  vertex -0.003060311 -0.005300614 -0.125
 endloop
endfacet
facet normal 0 1 -1.0000542e-05
 outer loop
  vertex 0.0030588675 -0.005298114 0.125
  vertex -0.003060311 -0.005300614 -0.125
  vertex -0.0030588675 -0.005298114 0.125
 endloop
endfacet
facet normal 7.6080724e-08 -1 -9.998679e-06
 outer loop
  vertex -0.0030588675 0.005298114 0.125
  vertex -0.0030603104 0.0053006136 -0.125
  vertex 0.003060311 0.005300614 -0.125
 endloop
endfacet
facet normal 0 -1 -1.0000542e-05
 outer loop
  vertex -0.0030588675 0.005298114 0.125
  vertex 0.003060311 0.005300614 -0.125
  vertex 0.0030588675 0.005298114 0.125
 endloop
endfacet
facet normal -0.00022133783 -0.00051431905 -0.9999998
 outer loop
  vertex 0.0030588675 -0.005298114 0.125
  vertex 0.0006349999 -0.0042549996 0.125
  vertex 0.00063499995 -0.00214 0.12499891
 endloop
endfacet
facet normal -0 -0.00034444127 -0.99999994
 outer loop
  vertex 0.0030588675 -0.005298114 0.125
  vertex 0.00063499995 -0.00214 0.12499891
  vertex 0.004865001 -0.00214 0.12499891
 endloop
endfacet
facet normal -0 0 -1
 outer loop
  vertex -0.003645 -0.004255 0.125
  vertex 0.0006349999 -0.0042549996 0.125
  vertex 0.0030588675 -0.005298114 0.125
 endloop
endfacet
facet normal 0 0 -1
 outer loop
  vertex -0.003645 -0.004255 0.125
  vertex 0.0030588675 -0.005298114 0.125
  vertex -0.0030588675 -0.005298114 0.125
 endloop
endfacet
facet normal 0.0004341641 0.00025415537 -0.99999994
 outer loop
  vertex 0.006117735 0 0.125
  vertex 0.004865001 -0.00214 0.12499891
  vertex 0.004865 0.0021400005 0.125
 endloop
endfacet
facet normal 0 0 -1
 outer loop
  vertex 0.004865 0.0021400005 0.125
  vertex 0.000635 0.0021400002 0.125
  vertex 0.0006349999 0.0042550005 0.125
 endloop
endfacet
facet normal 0 -0 -1
 outer loop
  vertex 0.004865 0.0021400005 0.125
  vertex 0.0006349999 0.0042550005 0.125
  vertex 0.00303 0.005248114 0.125
 endloop
endfacet
facet normal 0 -0 -1
 outer loop
  vertex 0.0006349999 0.0042550005 0.125
  vertex -0.0036450003 0.004255 0.125
  vertex -0.0030299998 0.005248114 0.125
 endloop
endfacet
facet normal -0 -0 -1
 outer loop
  vertex 0.0006349999 0.0042550005 0.125
  vertex -0.0030299998 0.005248114 0.125
  vertex 0.00303 0.005248114 0.125
 endloop
endfacet
facet normal 0 -0 -1
 outer loop
  vertex -0.003645 -0.004255 0.125
  vertex -0.0060599996 0 0.125
  vertex -0.0036450003 0.004255 0.125
 endloop
endfacet
endsolid 
