solid 
facet normal 0.49999997 0.8660254 0
 outer loop
  vertex 0 0.0065933 -0.125
  vertex 0 0.0065933 0.125
  vertex 0.0057099657 0.00329665 0.125
 endloop
endfacet
facet normal 0.49999997 0.8660254 -0
 outer loop
  vertex 0 0.0065933 -0.125
  vertex 0.0057099657 0.00329665 0.125
  vertex 0.0057099657 0.00329665 -0.125
 endloop
endfacet
facet normal 1 -0 0
 outer loop
  vertex 0.0057099657 0.00329665 -0.125
  vertex 0.0057099657 0.00329665 0.125
  vertex 0.0057099657 -0.00329665 0.125
 endloop
endfacet
facet normal 1 -0 0
 outer loop
  vertex 0.0057099657 0.00329665 -0.125
  vertex 0.0057099657 -0.00329665 0.125
  vertex 0.0057099657 -0.00329665 -0.125
 endloop
endfacet
facet normal 0.49999997 -0.8660254 0
 outer loop
  vertex 0.0057099657 -0.00329665 -0.125
  vertex 0.0057099657 -0.00329665 0.125
  vertex 0 -0.0065933 0.125
 endloop
endfacet
facet normal 0.49999997 -0.8660254 0
 outer loop
  vertex 0.0057099657 -0.00329665 -0.125
  vertex 0 -0.0065933 0.125
  vertex 0 -0.0065933 -0.125
 endloop
endfacet
facet normal -0.49999997 -0.8660254 -0
 outer loop
  vertex 0 -0.0065933 -0.125
  vertex 0 -0.0065933 0.125
  vertex -0.0057099657 -0.00329665 0.125
 endloop
endfacet
facet normal -0.49999997 -0.8660254 0
 outer loop
  vertex 0 -0.0065933 -0.125
  vertex -0.0057099657 -0.00329665 0.125
  vertex -0.0057099657 -0.00329665 -0.125
 endloop
endfacet
facet normal 0 0 1
 outer loop
  vertex 0.0057099657 -0.00329665 0.125
  vertex 0.0057099657 0.00329665 0.125
  vertex 0 0.0065933 0.125
 endloop
endfacet
facet normal 0 0 1
 outer loop
  vertex 0 0.0065933 0.125
  vertex -0.0057099657 0.00329665 0.125
  vertex -0.0057099657 -0.00329665 0.125
 endloop
endfacet
facet normal 0 0 1
 outer loop
  vertex -0.0057099657 -0.00329665 0.125
  vertex 0 -0.0065933 0.125
  vertex 0.0057099657 -0.00329665 0.125
 endloop
endfacet
facet normal 0 -0 1
 outer loop
  vertex 0 0.0065933 0.125
  vertex -0.0057099657 -0.00329665 0.125
  vertex 0.0057099657 -0.00329665 0.125
 endloop
endfacet
facet normal -1 -0 -0
 outer loop
  vertex -0.0057099657 -0.00329665 -0.125
  vertex -0.0057099657 -0.00329665 0.125
  vertex -0.0057099657 0.00329665 0.125
 endloop
endfacet
facet normal -1 -0 0
 outer loop
  vertex -0.0057099657 -0.00329665 -0.125
  vertex -0.0057099657 0.00329665 0.125
  vertex -0.0057099657 0.00329665 -0.125
 endloop
endfacet
facet normal -0.49999997 0.8660254 0
 outer loop
  vertex -0.0057099657 0.00329665 -0.125
  vertex -0.0057099657 0.00329665 0.125
  vertex 0 0.0065933 0.125
 endloop
endfacet
facet normal -0.49999997 0.8660254 0
 outer loop
  vertex -0.0057099657 0.00329665 -0.125
  vertex 0 0.0065933 0.125
  vertex 0 0.0065933 -0.125
 endloop
endfacet
facet normal -0 0 -1
 outer loop
  vertex -0.0057099657 0.00329665 -0.125
  vertex 0 0.0065933 -0.125
  vertex 0.0057099657 0.00329665 -0.125
 endloop
endfacet
facet normal 0 0 -1
 outer loop
  vertex 0.0057099657 0.00329665 -0.125
  vertex 0.0057099657 -0.00329665 -0.125
  vertex 0 -0.0065933 -0.125
 endloop
endfacet
facet normal 0 0 -1
 outer loop
  vertex 0 -0.0065933 -0.125
  vertex -0.0057099657 -0.00329665 -0.125
  vertex -0.0057099657 0.00329665 -0.125
 endloop
endfacet
facet normal 0 0 -1
 outer loop
  vertex 0.0057099657 0.00329665 -0.125
  vertex 0 -0.0065933 -0.125
  vertex -0.0057099657 0.00329665 -0.125
 endloop
endfacet
endsolid 
