solid 
facet normal 0.86602545 0.49999997 1.000015e-05
 outer loop
  vertex 3.0891783 5.3506136 -124.99999
  vertex 3.087735 5.3481135 125
  vertex 6.17547 -2.3841858e-07 125
 endloop
endfacet
facet normal 0.86602545 0.4999999 9.9988965e-06
 outer loop
  vertex 3.0891783 5.3506136 -124.99999
  vertex 6.17547 -2.3841858e-07 125
  vertex 6.178356 0 -124.99999
 endloop
endfacet
facet normal 0.86602545 -0.5 9.997943e-06
 outer loop
  vertex 6.178356 0 -124.99999
  vertex 6.17547 -2.3841858e-07 125
  vertex 3.0877347 -5.348114 125
 endloop
endfacet
facet normal 0.86602545 -0.5 9.999197e-06
 outer loop
  vertex 6.178356 0 -124.99999
  vertex 3.0877347 -5.348114 125
  vertex 3.089178 -5.3506136 -124.99999
 endloop
endfacet
facet normal -7.721472e-08 -1 9.998321e-06
 outer loop
  vertex 3.089178 -5.3506136 -124.99999
  vertex 3.0877347 -5.348114 125
  vertex -3.087735 -5.3481135 125
 endloop
endfacet
facet normal 0 -1 1.000023e-05
 outer loop
  vertex 3.089178 -5.3506136 -124.99999
  vertex -3.087735 -5.3481135 125
  vertex -3.0891783 -5.3506136 -124.99999
 endloop
endfacet
facet normal -0.86602545 -0.49999997 1.000015e-05
 outer loop
  vertex -3.0891783 -5.3506136 -124.99999
  vertex -3.087735 -5.3481135 125
  vertex -6.17547 2.3841858e-07 125
 endloop
endfacet
facet normal -0.86602545 -0.4999999 9.9988965e-06
 outer loop
  vertex -3.0891783 -5.3506136 -124.99999
  vertex -6.17547 2.3841858e-07 125
  vertex -6.178356 0 -124.99999
 endloop
endfacet
facet normal -0.86602545 0.5 9.997943e-06
 outer loop
  vertex -6.178356 0 -124.99999
  vertex -6.17547 2.3841858e-07 125
  vertex -3.0877347 5.348114 125
 endloop
endfacet
facet normal -0.86602545 0.5 9.999197e-06
 outer loop
  vertex -6.178356 0 -124.99999
  vertex -3.0877347 5.348114 125
  vertex -3.089178 5.3506136 -124.99999
 endloop
endfacet
facet normal 7.721472e-08 1 9.998321e-06
 outer loop
  vertex -3.089178 5.3506136 -124.99999
  vertex -3.0877347 5.348114 125
  vertex 3.087735 5.3481135 125
 endloop
endfacet
facet normal 0 1 1.000023e-05
 outer loop
  vertex -3.089178 5.3506136 -124.99999
  vertex 3.087735 5.3481135 125
  vertex 3.0891783 5.3506136 -124.99999
 endloop
endfacet
facet normal -0 0 -1
 outer loop
  vertex -3.0603101 5.3006134 -125.049995
  vertex 3.0603108 5.300614 -125.049995
  vertex 6.1206207 2.3841858e-07 -125.049995
 endloop
endfacet
facet normal 0 0 -1
 outer loop
  vertex 6.1206207 2.3841858e-07 -125.049995
  vertex 3.0603101 -5.3006134 -125.049995
  vertex -3.0603108 -5.300614 -125.049995
 endloop
endfacet
facet normal 0 -0 -1
 outer loop
  vertex -3.0603108 -5.300614 -125.049995
  vertex -6.1206207 -2.3841858e-07 -125.049995
  vertex -3.0603101 5.3006134 -125.049995
 endloop
endfacet
facet normal 0 -0 -1
 outer loop
  vertex 6.1206207 2.3841858e-07 -125.049995
  vertex -3.0603108 -5.300614 -125.049995
  vertex -3.0603101 5.3006134 -125.049995
 endloop
endfacet
facet normal -0 0 1
 outer loop
  vertex 6.117735 0 125
  vertex 3.0588675 5.298114 125
  vertex 3.03 5.2481136 125
 endloop
endfacet
facet normal -0 -0 1
 outer loop
  vertex 6.117735 0 125
  vertex 3.03 5.2481136 125
  vertex 6.0599995 0 125
 endloop
endfacet
facet normal -0 0 1
 outer loop
  vertex 3.0588675 -5.298114 125
  vertex 6.117735 0 125
  vertex 6.0599995 0 125
 endloop
endfacet
facet normal -0 0 1
 outer loop
  vertex 3.0588675 -5.298114 125
  vertex 6.0599995 0 125
  vertex 3.0299997 -5.2481136 125
 endloop
endfacet
facet normal 0 0 1
 outer loop
  vertex -3.0588675 -5.298114 125
  vertex 3.0588675 -5.298114 125
  vertex 3.0299997 -5.2481136 125
 endloop
endfacet
facet normal -0 0 1
 outer loop
  vertex -3.0588675 -5.298114 125
  vertex 3.0299997 -5.2481136 125
  vertex -3.03 -5.2481136 125
 endloop
endfacet
facet normal 0 0 1
 outer loop
  vertex -6.117735 0 125
  vertex -3.0588675 -5.298114 125
  vertex -3.03 -5.2481136 125
 endloop
endfacet
facet normal 0 0 1
 outer loop
  vertex -6.117735 0 125
  vertex -3.03 -5.2481136 125
  vertex -6.0599995 0 125
 endloop
endfacet
facet normal 0 -0 1
 outer loop
  vertex -3.0588675 5.298114 125
  vertex -6.117735 0 125
  vertex -6.0599995 0 125
 endloop
endfacet
facet normal 0 -0 1
 outer loop
  vertex -3.0588675 5.298114 125
  vertex -6.0599995 0 125
  vertex -3.0299997 5.2481136 125
 endloop
endfacet
facet normal 0 0 -1
 outer loop
  vertex 3.0588675 5.298114 125
  vertex 3.03 5.2481136 125
  vertex -3.0299997 5.2481136 125
 endloop
endfacet
facet normal 0 0 -1
 outer loop
  vertex 3.0588675 5.298114 125
  vertex -3.0299997 5.2481136 125
  vertex -3.0588675 5.298114 125
 endloop
endfacet
facet normal 1 -1.1141054e-07 0
 outer loop
  vertex 4.865 2.1400003 125.05
  vertex 4.865 2.1400003 126.64
  vertex 4.8649993 -2.1399999 126.64
 endloop
endfacet
facet normal 1 8.906009e-07 2.6972446e-06
 outer loop
  vertex 4.865 2.1400003 125.05
  vertex 4.8649993 -2.1399999 126.64
  vertex 4.8650036 -2.1399803 125.04891
 endloop
endfacet
facet normal -0 -1 -1.2287398e-05
 outer loop
  vertex 0.63500303 -2.1399803 125.04891
  vertex 4.8650036 -2.1399803 125.04891
  vertex 4.8649993 -2.1399999 126.64
 endloop
endfacet
facet normal -5.636374e-08 -1 -1.21375515e-05
 outer loop
  vertex 0.63500303 -2.1399803 125.04891
  vertex 4.8649993 -2.1399999 126.64
  vertex 0.6349999 -2.1399996 126.64
 endloop
endfacet
facet normal 1 -0 9.746693e-07
 outer loop
  vertex 0.6349999 -2.1399996 126.64
  vertex 0.6349999 -4.254999 126.64
  vertex 0.6350014 -4.2549896 125.05
 endloop
endfacet
facet normal 1 -7.598828e-07 1.9854544e-06
 outer loop
  vertex 0.6349999 -2.1399996 126.64
  vertex 0.6350014 -4.2549896 125.05
  vertex 0.63500303 -2.1399803 125.04891
 endloop
endfacet
facet normal 2.3396208e-06 -1 -5.997964e-06
 outer loop
  vertex -3.645 -4.2549996 125.05
  vertex 0.6350014 -4.2549896 125.05
  vertex 0.6349999 -4.254999 126.64
 endloop
endfacet
facet normal 1.1141056e-07 -1 0
 outer loop
  vertex -3.645 -4.2549996 125.05
  vertex 0.6349999 -4.254999 126.64
  vertex -3.645 -4.2549996 126.64
 endloop
endfacet
facet normal -1 -2.8016288e-08 0
 outer loop
  vertex -3.6450002 4.2549996 126.64
  vertex -3.6450002 4.2549996 125
  vertex -3.645 -4.2549996 125
 endloop
endfacet
facet normal -1 -2.8016288e-08 -0
 outer loop
  vertex -3.6450002 4.2549996 126.64
  vertex -3.645 -4.2549996 125
  vertex -3.645 -4.2549996 126.64
 endloop
endfacet
facet normal -5.636374e-08 1 0
 outer loop
  vertex 0.635 2.14 125.05
  vertex 0.635 2.14 126.64
  vertex 4.865 2.1400003 126.64
 endloop
endfacet
facet normal -5.636374e-08 1 0
 outer loop
  vertex 0.635 2.14 125.05
  vertex 4.865 2.1400003 126.64
  vertex 4.865 2.1400003 125.05
 endloop
endfacet
facet normal 0.00026100312 0.00026100563 -0.99999994
 outer loop
  vertex 4.8650007 -2.1399999 124.99891
  vertex 4.8150005 -2.0900002 124.99891
  vertex 4.8149996 2.0900002 125
 endloop
endfacet
facet normal -0.00025490724 0.00025490724 -0.99999994
 outer loop
  vertex 4.8650007 -2.1399999 124.99891
  vertex 4.8149996 2.0900002 125
  vertex 4.865 2.1400003 125
 endloop
endfacet
facet normal 0 0 1
 outer loop
  vertex 4.865 2.1400003 126.64
  vertex 4.8149996 2.0900002 126.64
  vertex 4.8149996 -2.09 126.64
 endloop
endfacet
facet normal 0 -0 1
 outer loop
  vertex 4.865 2.1400003 126.64
  vertex 4.8149996 -2.09 126.64
  vertex 4.8649993 -2.1399999 126.64
 endloop
endfacet
facet normal 0 0 1
 outer loop
  vertex 4.8649993 -2.1399999 126.64
  vertex 4.8149996 -2.09 126.64
  vertex 0.63499993 -2.0899997 126.64
 endloop
endfacet
facet normal -0 0 1
 outer loop
  vertex 4.8649993 -2.1399999 126.64
  vertex 0.63499993 -2.0899997 126.64
  vertex 0.6349999 -2.1399996 126.64
 endloop
endfacet
facet normal -0 0 -1
 outer loop
  vertex 0.63499993 -2.1399999 124.99891
  vertex 0.635 -2.0900002 124.99891
  vertex 4.8150005 -2.0900002 124.99891
 endloop
endfacet
facet normal -0 0 -1
 outer loop
  vertex 0.63499993 -2.1399999 124.99891
  vertex 4.8150005 -2.0900002 124.99891
  vertex 4.8650007 -2.1399999 124.99891
 endloop
endfacet
facet normal 0 -0 1
 outer loop
  vertex 0.635 2.14 126.64
  vertex 0.63499993 2.09 126.64
  vertex 4.8149996 2.0900002 126.64
 endloop
endfacet
facet normal 0 0 1
 outer loop
  vertex 0.635 2.14 126.64
  vertex 4.8149996 2.0900002 126.64
  vertex 4.865 2.1400003 126.64
 endloop
endfacet
facet normal 0 0 -1
 outer loop
  vertex 4.865 2.1400003 125
  vertex 4.8149996 2.0900002 125
  vertex 0.63499993 2.09 125
 endloop
endfacet
facet normal 0 -0 -1
 outer loop
  vertex 4.865 2.1400003 125
  vertex 0.63499993 2.09 125
  vertex 0.635 2.14 125
 endloop
endfacet
facet normal 0 0 -1
 outer loop
  vertex 0.6349999 4.255 125
  vertex 0.5849999 4.205 125
  vertex -3.595 4.205 125
 endloop
endfacet
facet normal 0 0 -1
 outer loop
  vertex 0.6349999 4.255 125
  vertex -3.595 4.205 125
  vertex -3.6450002 4.2549996 125
 endloop
endfacet
facet normal 0 0 -1
 outer loop
  vertex -3.6450002 4.2549996 125
  vertex -3.595 4.205 125
  vertex -3.5949998 -4.2049994 125
 endloop
endfacet
facet normal 0 0 -1
 outer loop
  vertex -3.6450002 4.2549996 125
  vertex -3.5949998 -4.2049994 125
  vertex -3.645 -4.2549996 125
 endloop
endfacet
facet normal -0 0 -1
 outer loop
  vertex -3.645 -4.2549996 125
  vertex -3.5949998 -4.2049994 125
  vertex 0.58500004 -4.2049994 125
 endloop
endfacet
facet normal -0 0 -1
 outer loop
  vertex -3.645 -4.2549996 125
  vertex 0.58500004 -4.2049994 125
  vertex 0.6349999 -4.254999 125
 endloop
endfacet
facet normal 1 -1.1920997e-06 3.6320323e-08
 outer loop
  vertex 0.6349999 -2.1399996 126.64
  vertex 0.63499993 -2.1399999 124.99891
  vertex 0.635 -2.0900002 124.99891
 endloop
endfacet
facet normal 1 -1.192094e-06 3.6320493e-08
 outer loop
  vertex 0.6349999 -2.1399996 126.64
  vertex 0.635 -2.0900002 124.99891
  vertex 0.63499993 -2.0899997 126.64
 endloop
endfacet
facet normal -0 0 1
 outer loop
  vertex 0.6349999 -4.254999 126.64
  vertex 0.58500004 -4.2049994 126.64
  vertex -3.5949998 -4.2049994 126.64
 endloop
endfacet
facet normal -0 0 1
 outer loop
  vertex 0.6349999 -4.254999 126.64
  vertex -3.5949998 -4.2049994 126.64
  vertex -3.645 -4.2549996 126.64
 endloop
endfacet
facet normal 0 0 1
 outer loop
  vertex -3.645 -4.2549996 126.64
  vertex -3.5949998 -4.2049994 126.64
  vertex -3.595 4.205 126.64
 endloop
endfacet
facet normal 0 0 1
 outer loop
  vertex -3.645 -4.2549996 126.64
  vertex -3.595 4.205 126.64
  vertex -3.6450002 4.2549996 126.64
 endloop
endfacet
facet normal 0 0 1
 outer loop
  vertex -3.6450002 4.2549996 126.64
  vertex -3.595 4.205 126.64
  vertex 0.5849998 4.205 126.64
 endloop
endfacet
facet normal 0 0 1
 outer loop
  vertex -3.6450002 4.2549996 126.64
  vertex 0.5849998 4.205 126.64
  vertex 0.6349999 4.255 126.64
 endloop
endfacet
facet normal 1 -1.1920883e-06 0
 outer loop
  vertex 0.635 2.14 125
  vertex 0.635 2.14 126.64
  vertex 0.63499993 2.09 126.64
 endloop
endfacet
facet normal 1 -1.1920883e-06 0
 outer loop
  vertex 0.635 2.14 125
  vertex 0.63499993 2.09 126.64
  vertex 0.63499993 2.09 125
 endloop
endfacet
facet normal 5.7037944e-08 -1 0
 outer loop
  vertex 0.63500005 2.09 125
  vertex 4.8149996 2.0900002 125
  vertex 4.8149996 2.0900002 126.64
 endloop
endfacet
facet normal 5.7037944e-08 -1 0
 outer loop
  vertex 0.63500005 2.09 125
  vertex 4.8149996 2.0900002 126.64
  vertex 0.63500005 2.09 126.64
 endloop
endfacet
facet normal -1 -2.8181864e-08 -7.2688614e-08
 outer loop
  vertex 0.5849998 4.205 126.64
  vertex 0.5849999 4.205 125
  vertex 0.585 2.09 125
 endloop
endfacet
facet normal -0 -1 -0
 outer loop
  vertex 0.585 2.09 125
  vertex 0.63500005 2.09 125
  vertex 0.63500005 2.09 126.64
 endloop
endfacet
facet normal -1 -8.454559e-08 0
 outer loop
  vertex 0.585 2.09 126.64
  vertex 0.5849998 4.205 126.64
  vertex 0.585 2.09 125
 endloop
endfacet
facet normal 0 -1 0
 outer loop
  vertex 0.63500005 2.09 126.64
  vertex 0.585 2.09 126.64
  vertex 0.585 2.09 125
 endloop
endfacet
facet normal -0 1 0
 outer loop
  vertex 0.63499993 -2.09 124.99891
  vertex 0.5849999 -2.09 124.99891
  vertex 0.5849999 -2.09 126.64
 endloop
endfacet
facet normal 0 1 0
 outer loop
  vertex 0.63499993 -2.09 124.99891
  vertex 0.5849999 -2.09 126.64
  vertex 0.63499993 -2.09 126.64
 endloop
endfacet
facet normal -0.00051583967 -0.0005158409 -0.99999976
 outer loop
  vertex 0.6349999 -4.254999 125
  vertex 0.58500004 -4.2049994 125
  vertex 0.5849999 -2.09 124.99891
 endloop
endfacet
facet normal -0 -0.00050392776 -0.9999999
 outer loop
  vertex 0.6349999 -4.254999 125
  vertex 0.5849999 -2.09 124.99891
  vertex 0.63499993 -2.09 124.99891
 endloop
endfacet
facet normal 0 -0 1
 outer loop
  vertex 0.63499993 -2.09 126.64
  vertex 0.5849999 -2.09 126.64
  vertex 0.58500004 -4.2049994 126.64
 endloop
endfacet
facet normal 0 -0 1
 outer loop
  vertex 0.63499993 -2.09 126.64
  vertex 0.58500004 -4.2049994 126.64
  vertex 0.6349999 -4.254999 126.64
 endloop
endfacet
facet normal 0 0 -1
 outer loop
  vertex 0.63500005 2.09 125
  vertex 0.585 2.09 125
  vertex 0.5849999 4.205 125
 endloop
endfacet
facet normal 0 -0 -1
 outer loop
  vertex 0.63500005 2.09 125
  vertex 0.5849999 4.205 125
  vertex 0.6349999 4.255 125
 endloop
endfacet
facet normal 0 -0 1
 outer loop
  vertex 0.6349999 4.255 126.64
  vertex 0.5849998 4.205 126.64
  vertex 0.585 2.09 126.64
 endloop
endfacet
facet normal 0 -0 1
 outer loop
  vertex 0.6349999 4.255 126.64
  vertex 0.585 2.09 126.64
  vertex 0.63500005 2.09 126.64
 endloop
endfacet
facet normal -0 0 1
 outer loop
  vertex -3.645 -4.2549996 125.05
  vertex -3.6450002 4.2549996 125.05
  vertex -6.117735 0 125.05
 endloop
endfacet
facet normal 0 0 1
 outer loop
  vertex 3.0588675 5.298114 125.05
  vertex -3.0588675 5.298114 125.05
  vertex -3.6450002 4.2549996 125.05
 endloop
endfacet
facet normal 0 -0 1
 outer loop
  vertex 3.0588675 5.298114 125.05
  vertex -3.6450002 4.2549996 125.05
  vertex 0.6349999 4.255 125.05
 endloop
endfacet
facet normal -0.00043544875 -0.0002549074 0.99999994
 outer loop
  vertex 4.864978 2.1399875 125.05
  vertex 4.864979 -2.1400127 125.04891
  vertex 6.117713 -1.2874603e-05 125.05
 endloop
endfacet
facet normal -0 0.00034545935 1
 outer loop
  vertex 3.0588694 -5.2981043 125.05
  vertex 4.8650036 -2.1399803 125.04891
  vertex 0.63500303 -2.1399803 125.04891
 endloop
endfacet
facet normal 0.00022199172 0.0005158384 0.9999999
 outer loop
  vertex 3.0588694 -5.2981043 125.05
  vertex 0.63500303 -2.1399803 125.04891
  vertex 0.6350014 -4.2549896 125.05
 endloop
endfacet
facet normal 0 0 1
 outer loop
  vertex -3.645 -4.2549996 125.05
  vertex -3.0588675 -5.298114 125.05
  vertex 3.0588694 -5.2981043 125.05
 endloop
endfacet
facet normal 0 0 1
 outer loop
  vertex -3.645 -4.2549996 125.05
  vertex 3.0588694 -5.2981043 125.05
  vertex 0.6350014 -4.2549896 125.05
 endloop
endfacet
facet normal -0 0 1
 outer loop
  vertex 0.6349999 -4.254999 126.69
  vertex 0.6349999 4.255 126.69
  vertex -3.6450002 4.2549996 126.69
 endloop
endfacet
facet normal -0 -0 1
 outer loop
  vertex 0.6349999 -4.254999 126.69
  vertex -3.6450002 4.2549996 126.69
  vertex -3.645 -4.2549996 126.69
 endloop
endfacet
facet normal 0 0 1
 outer loop
  vertex 4.865 2.1400003 126.69
  vertex 0.635 2.14 126.69
  vertex 0.6349999 -2.1399996 126.69
 endloop
endfacet
facet normal 0 -0 1
 outer loop
  vertex 4.865 2.1400003 126.69
  vertex 0.6349999 -2.1399996 126.69
  vertex 4.8649993 -2.1399999 126.69
 endloop
endfacet
facet normal 1 -1.1141055e-07 0
 outer loop
  vertex 4.865 2.1400003 126.69
  vertex 4.8649993 -2.1399999 126.69
  vertex 4.8649993 -2.1399999 126.64
 endloop
endfacet
facet normal 1 -1.1141055e-07 0
 outer loop
  vertex 4.865 2.1400003 126.69
  vertex 4.8649993 -2.1399999 126.64
  vertex 4.865 2.1400003 126.64
 endloop
endfacet
facet normal -5.6363735e-08 -1 0
 outer loop
  vertex 4.8649993 -2.1399999 126.69
  vertex 0.6349999 -2.1399996 126.69
  vertex 0.6349999 -2.1399996 126.64
 endloop
endfacet
facet normal -5.6363735e-08 -1 0
 outer loop
  vertex 4.8649993 -2.1399999 126.69
  vertex 0.6349999 -2.1399996 126.64
  vertex 4.8649993 -2.1399999 126.64
 endloop
endfacet
facet normal -5.6363735e-08 1 0
 outer loop
  vertex 0.635 2.14 126.69
  vertex 4.865 2.1400003 126.69
  vertex 4.865 2.1400003 126.64
 endloop
endfacet
facet normal -5.6363735e-08 1 0
 outer loop
  vertex 0.635 2.14 126.69
  vertex 4.865 2.1400003 126.64
  vertex 0.635 2.14 126.64
 endloop
endfacet
facet normal 1.1141056e-07 -1 0
 outer loop
  vertex 0.6349999 -4.254999 126.69
  vertex -3.645 -4.2549996 126.69
  vertex -3.645 -4.2549996 126.64
 endloop
endfacet
facet normal 1.1141056e-07 -1 0
 outer loop
  vertex 0.6349999 -4.254999 126.69
  vertex -3.645 -4.2549996 126.64
  vertex 0.6349999 -4.254999 126.64
 endloop
endfacet
facet normal -1 -2.8016286e-08 0
 outer loop
  vertex -3.645 -4.2549996 126.69
  vertex -3.6450002 4.2549996 126.69
  vertex -3.6450002 4.2549996 126.64
 endloop
endfacet
facet normal -1 -2.8016286e-08 0
 outer loop
  vertex -3.645 -4.2549996 126.69
  vertex -3.6450002 4.2549996 126.64
  vertex -3.645 -4.2549996 126.64
 endloop
endfacet
facet normal -1.1141055e-07 1 0
 outer loop
  vertex -3.6450002 4.2549996 126.69
  vertex 0.6349999 4.255 126.69
  vertex 0.6349999 4.255 126.64
 endloop
endfacet
facet normal -1.1141055e-07 1 0
 outer loop
  vertex -3.6450002 4.2549996 126.69
  vertex 0.6349999 4.255 126.64
  vertex -3.6450002 4.2549996 126.64
 endloop
endfacet
facet normal 1 0 0
 outer loop
  vertex 0.6349999 4.255 126.69
  vertex 0.6349999 -4.254999 126.69
  vertex 0.6349999 -4.254999 126.64
 endloop
endfacet
facet normal 1 0 -0
 outer loop
  vertex 0.6349999 4.255 126.69
  vertex 0.6349999 -4.254999 126.64
  vertex 0.6349999 4.255 126.64
 endloop
endfacet
facet normal -1 2.785264e-08 0
 outer loop
  vertex 0.6349999 -2.1399996 126.69
  vertex 0.635 2.14 126.69
  vertex 0.635 2.14 126.64
 endloop
endfacet
facet normal -1 2.785264e-08 0
 outer loop
  vertex 0.6349999 -2.1399996 126.69
  vertex 0.635 2.14 126.64
  vertex 0.6349999 -2.1399996 126.64
 endloop
endfacet
facet normal 1.5588678e-06 -1 0
 outer loop
  vertex 3.0588694 -5.2981043 125.05
  vertex -3.0588675 -5.298114 125.05
  vertex -3.0588675 -5.298114 125
 endloop
endfacet
facet normal 0 -1 0.00019072324
 outer loop
  vertex 3.0588694 -5.2981043 125.05
  vertex -3.0588675 -5.298114 125
  vertex 3.0588675 -5.298114 125
 endloop
endfacet
facet normal 0.99999994 1.1100256e-07 0.0004386634
 outer loop
  vertex 4.864979 -2.1400127 125.04891
  vertex 4.8650007 -2.1399999 124.99891
  vertex 4.865 2.1400003 125
 endloop
endfacet
facet normal 0.99999994 1.1100256e-07 0.0004386634
 outer loop
  vertex 4.864979 -2.1400127 125.04891
  vertex 4.865 2.1400003 125
  vertex 4.864978 2.1399875 125.05
 endloop
endfacet
facet normal 0 -0.99999994 0.00039098258
 outer loop
  vertex 0.63500303 -2.1399803 125.04891
  vertex 0.63499993 -2.1399999 124.99891
  vertex 4.8650007 -2.1399999 124.99891
 endloop
endfacet
facet normal 0 -0.99999994 0.00039098258
 outer loop
  vertex 0.63500303 -2.1399803 125.04891
  vertex 4.8650007 -2.1399999 124.99891
  vertex 4.8650036 -2.1399803 125.04891
 endloop
endfacet
facet normal -1 -2.8016286e-08 0
 outer loop
  vertex -3.6450002 4.2549996 125.05
  vertex -3.6450002 4.2549996 125
  vertex -3.645 -4.2549996 125
 endloop
endfacet
facet normal -1 -2.8016286e-08 -0
 outer loop
  vertex -3.6450002 4.2549996 125.05
  vertex -3.645 -4.2549996 125
  vertex -3.645 -4.2549996 125.05
 endloop
endfacet
facet normal 1.1141056e-07 -1 0
 outer loop
  vertex -3.645 -4.2549996 125.05
  vertex -3.645 -4.2549996 125
  vertex 0.6349999 -4.254999 125
 endloop
endfacet
facet normal 2.3396208e-06 -1 0.00019072313
 outer loop
  vertex -3.645 -4.2549996 125.05
  vertex 0.6349999 -4.254999 125
  vertex 0.6350014 -4.2549896 125.05
 endloop
endfacet
facet normal -0.8646045 -0.5024531 0
 outer loop
  vertex -3.645 -4.2549996 125.05
  vertex -6.117735 0 125.05
  vertex -6.117735 0 125
 endloop
endfacet
facet normal -0.8646045 -0.5024531 0
 outer loop
  vertex -3.645 -4.2549996 125.05
  vertex -6.117735 0 125
  vertex -3.645 -4.2549996 125
 endloop
endfacet
facet normal -0.8646045 0.502453 0
 outer loop
  vertex -6.117735 0 125.05
  vertex -3.6450002 4.2549996 125.05
  vertex -3.6450002 4.2549996 125
 endloop
endfacet
facet normal -0.8646045 0.502453 0
 outer loop
  vertex -6.117735 0 125.05
  vertex -3.6450002 4.2549996 125
  vertex -6.117735 0 125
 endloop
endfacet
facet normal 0.8630052 0.5051947 0.0005086445
 outer loop
  vertex 4.864978 2.1399875 125.05
  vertex 6.117713 -1.2874603e-05 125.05
  vertex 6.117735 0 125
 endloop
endfacet
facet normal 0.8630052 0.5051947 0.0005095526
 outer loop
  vertex 4.864978 2.1399875 125.05
  vertex 6.117735 0 125
  vertex 4.865 2.1400003 125
 endloop
endfacet
facet normal 0.86300534 -0.50519466 0.0002484932
 outer loop
  vertex 6.117713 -1.2874603e-05 125.05
  vertex 4.864979 -2.1400127 125.04891
  vertex 4.8650007 -2.1399999 124.99891
 endloop
endfacet
facet normal 0.86300534 -0.5051947 0.00024804645
 outer loop
  vertex 6.117713 -1.2874603e-05 125.05
  vertex 4.8650007 -2.1399999 124.99891
  vertex 6.117735 0 125
 endloop
endfacet
facet normal 0.8680665 -0.49644804 6.1572086e-05
 outer loop
  vertex 4.8650036 -2.1399803 125.04891
  vertex 3.0588694 -5.2981043 125.05
  vertex 3.0588675 -5.298114 125
 endloop
endfacet
facet normal 0.8680659 -0.496449 0.00014416542
 outer loop
  vertex 4.8650036 -2.1399803 125.04891
  vertex 3.0588675 -5.298114 125
  vertex 4.8650007 -2.1399999 124.99891
 endloop
endfacet
facet normal 1 -4.4169088e-08 -3.099252e-05
 outer loop
  vertex 0.6350014 -4.2549896 125.05
  vertex 0.6349999 -4.254999 125
  vertex 0.63499993 -2.1399999 124.99891
 endloop
endfacet
facet normal 1 -7.9288117e-07 -6.198474e-05
 outer loop
  vertex 0.6350014 -4.2549896 125.05
  vertex 0.63499993 -2.1399999 124.99891
  vertex 0.63500303 -2.1399803 125.04891
 endloop
endfacet
facet normal -0.87179655 -0.48986807 0
 outer loop
  vertex -3.0588675 -5.298114 125.05
  vertex -3.645 -4.2549996 125.05
  vertex -3.645 -4.2549996 125
 endloop
endfacet
facet normal -0.87179655 -0.48986807 0
 outer loop
  vertex -3.0588675 -5.298114 125.05
  vertex -3.645 -4.2549996 125
  vertex -3.0588675 -5.298114 125
 endloop
endfacet
facet normal 0 1 0
 outer loop
  vertex 3.0588675 5.298114 125.05
  vertex 3.0588675 5.298114 125
  vertex -3.0588675 5.298114 125
 endloop
endfacet
facet normal -0 1 0
 outer loop
  vertex 3.0588675 5.298114 125.05
  vertex -3.0588675 5.298114 125
  vertex -3.0588675 5.298114 125.05
 endloop
endfacet
facet normal -5.6363735e-08 1 0
 outer loop
  vertex 0.635 2.14 125.05
  vertex 4.865 2.1400003 125.05
  vertex 4.865 2.1400003 125
 endloop
endfacet
facet normal -5.6363735e-08 1 0
 outer loop
  vertex 0.635 2.14 125.05
  vertex 4.865 2.1400003 125
  vertex 0.635 2.14 125
 endloop
endfacet
facet normal -1.1141055e-07 1 0
 outer loop
  vertex -3.6450002 4.2549996 125.05
  vertex 0.6349999 4.255 125.05
  vertex 0.6349999 4.255 125
 endloop
endfacet
facet normal -1.1141055e-07 1 0
 outer loop
  vertex -3.6450002 4.2549996 125.05
  vertex 0.6349999 4.255 125
  vertex -3.6450002 4.2549996 125
 endloop
endfacet
facet normal -0.8717965 0.48986822 0
 outer loop
  vertex -3.0588675 5.298114 125.05
  vertex -3.0588675 5.298114 125
  vertex -3.6450002 4.2549996 125
 endloop
endfacet
facet normal -0.8717965 0.48986822 0
 outer loop
  vertex -3.0588675 5.298114 125.05
  vertex -3.6450002 4.2549996 125
  vertex -3.6450002 4.2549996 125.05
 endloop
endfacet
facet normal 1 5.636373e-08 -0
 outer loop
  vertex 0.6349999 4.255 125.05
  vertex 0.635 2.14 125.05
  vertex 0.635 2.14 125
 endloop
endfacet
facet normal 1 5.636373e-08 0
 outer loop
  vertex 0.6349999 4.255 125.05
  vertex 0.635 2.14 125
  vertex 0.6349999 4.255 125
 endloop
endfacet
facet normal 0.8680659 0.4964489 0
 outer loop
  vertex 3.0588675 5.298114 125
  vertex 3.0588675 5.298114 125.05
  vertex 4.865 2.1400003 125.05
 endloop
endfacet
facet normal 0.8680659 0.4964489 -0
 outer loop
  vertex 3.0588675 5.298114 125
  vertex 4.865 2.1400003 125.05
  vertex 4.865 2.1400003 125
 endloop
endfacet
facet normal -1.1141054e-07 1 0
 outer loop
  vertex -3.6450002 4.2549996 126.64
  vertex 0.6349999 4.255 126.64
  vertex 0.6349999 4.255 125.05
 endloop
endfacet
facet normal -1.1141054e-07 1 0
 outer loop
  vertex -3.6450002 4.2549996 126.64
  vertex 0.6349999 4.255 125.05
  vertex -3.6450002 4.2549996 125.05
 endloop
endfacet
facet normal 1 5.6363728e-08 0
 outer loop
  vertex 0.635 2.14 125.05
  vertex 0.6349999 4.255 125.05
  vertex 0.6349999 4.255 126.64
 endloop
endfacet
facet normal 1 5.6363728e-08 0
 outer loop
  vertex 0.635 2.14 125.05
  vertex 0.6349999 4.255 126.64
  vertex 0.635 2.14 126.64
 endloop
endfacet
facet normal -0 0 1
 outer loop
  vertex 4.865 2.1400003 125.05
  vertex 3.0588675 5.298114 125.05
  vertex 0.6349999 4.255 125.05
 endloop
endfacet
facet normal -0 -0 1
 outer loop
  vertex 4.865 2.1400003 125.05
  vertex 0.6349999 4.255 125.05
  vertex 0.635 2.14 125.05
 endloop
endfacet
facet normal -1 -0 -5.811224e-07
 outer loop
  vertex 4.8150005 -2.0900002 124.99891
  vertex 4.8149996 -2.09 126.64
  vertex 4.8149996 2.0900002 126.64
 endloop
endfacet
facet normal -1 -2.2815173e-07 0
 outer loop
  vertex 4.8150005 -2.0900002 124.99891
  vertex 4.8149996 2.0900002 126.64
  vertex 4.8149996 2.0900002 125
 endloop
endfacet
facet normal 0 -1 0
 outer loop
  vertex 0.5849998 4.205 126.64
  vertex -3.595 4.205 126.64
  vertex -3.595 4.205 125
 endloop
endfacet
facet normal 0 -1 0
 outer loop
  vertex 0.5849998 4.205 126.64
  vertex -3.595 4.205 125
  vertex 0.5849999 4.205 125
 endloop
endfacet
facet normal 5.7037944e-08 -1 0
 outer loop
  vertex 0.63500005 2.09 125
  vertex 4.8149996 2.0900002 125
  vertex 4.8149996 2.0900002 126.64
 endloop
endfacet
facet normal 0 -1 0
 outer loop
  vertex 0.63500005 2.09 126.64
  vertex 0.585 2.09 126.64
  vertex 0.585 2.09 125
 endloop
endfacet
facet normal 5.7037944e-08 -1 0
 outer loop
  vertex 0.63500005 2.09 125
  vertex 4.8149996 2.0900002 126.64
  vertex 0.63500005 2.09 126.64
 endloop
endfacet
facet normal 0 -1 0
 outer loop
  vertex 0.63500005 2.09 125
  vertex 0.63500005 2.09 126.64
  vertex 0.585 2.09 125
 endloop
endfacet
facet normal 1 2.8349415e-08 0
 outer loop
  vertex -3.595 4.205 125
  vertex -3.595 4.205 126.64
  vertex -3.5949998 -4.2049994 126.64
 endloop
endfacet
facet normal 1 2.8349415e-08 -0
 outer loop
  vertex -3.595 4.205 125
  vertex -3.5949998 -4.2049994 126.64
  vertex -3.5949998 -4.2049994 125
 endloop
endfacet
facet normal 0 1 0
 outer loop
  vertex -3.5949998 -4.2049994 125
  vertex -3.5949998 -4.2049994 126.64
  vertex 0.58500004 -4.2049994 126.64
 endloop
endfacet
facet normal 0 1 -0
 outer loop
  vertex -3.5949998 -4.2049994 125
  vertex 0.58500004 -4.2049994 126.64
  vertex 0.58500004 -4.2049994 125
 endloop
endfacet
facet normal -1 -5.6363746e-08 0
 outer loop
  vertex 0.5849999 -2.09 126.64
  vertex 0.5849999 -2.09 124.99891
  vertex 0.58500004 -4.2049994 125
 endloop
endfacet
facet normal -1 -5.6363742e-08 -0
 outer loop
  vertex 0.5849999 -2.09 126.64
  vertex 0.58500004 -4.2049994 125
  vertex 0.58500004 -4.2049994 126.64
 endloop
endfacet
facet normal 0 1 -1.452806e-07
 outer loop
  vertex 0.63499993 -2.09 126.64
  vertex 4.8149996 -2.09 126.64
  vertex 4.8150005 -2.0900002 124.99891
 endloop
endfacet
facet normal 5.7037926e-08 1 0
 outer loop
  vertex 0.63499993 -2.09 126.64
  vertex 4.8150005 -2.0900002 124.99891
  vertex 0.63499993 -2.09 124.99891
 endloop
endfacet
facet normal -0 0 -1
 outer loop
  vertex 0.63500005 2.09 126.64
  vertex 4.8149996 2.0900002 126.64
  vertex 4.8149996 -2.09 126.64
 endloop
endfacet
facet normal 0 0 -1
 outer loop
  vertex 0.63500005 2.09 126.64
  vertex 4.8149996 -2.09 126.64
  vertex 0.63499993 -2.09 126.64
 endloop
endfacet
facet normal 0 0 -1
 outer loop
  vertex 0.5849999 -2.09 126.64
  vertex 0.58500004 -4.2049994 126.64
  vertex -3.5949998 -4.2049994 126.64
 endloop
endfacet
facet normal -0 -0 -1
 outer loop
  vertex -3.5949998 -4.2049994 126.64
  vertex -3.595 4.205 126.64
  vertex 0.5849998 4.205 126.64
 endloop
endfacet
facet normal 0 0 -1
 outer loop
  vertex 0.5849998 4.205 126.64
  vertex 0.585 2.09 126.64
  vertex 0.5849999 -2.09 126.64
 endloop
endfacet
facet normal 0 -0 -1
 outer loop
  vertex 0.5849999 -2.09 126.64
  vertex -3.5949998 -4.2049994 126.64
  vertex 0.5849998 4.205 126.64
 endloop
endfacet
facet normal -0 0 -1
 outer loop
  vertex 0.5849999 -2.09 126.64
  vertex 0.585 2.09 126.64
  vertex 0.63500005 2.09 126.64
 endloop
endfacet
facet normal -0 0 -1
 outer loop
  vertex 0.5849999 -2.09 126.64
  vertex 0.63500005 2.09 126.64
  vertex 0.63499993 -2.09 126.64
 endloop
endfacet
facet normal 0.86602545 0.49999994 0
 outer loop
  vertex 6.1206207 2.3841858e-07 -125.049995
  vertex 3.0603108 5.300614 -125.049995
  vertex 3.0603108 5.300614 -124.99999
 endloop
endfacet
facet normal 0.86602545 0.49999994 0
 outer loop
  vertex 6.1206207 2.3841858e-07 -125.049995
  vertex 3.0603108 5.300614 -124.99999
  vertex 6.1206207 2.3841858e-07 -124.99999
 endloop
endfacet
facet normal 0.8660254 -0.5 0
 outer loop
  vertex 3.0603101 -5.3006134 -125.049995
  vertex 6.1206207 2.3841858e-07 -125.049995
  vertex 6.1206207 2.3841858e-07 -124.99999
 endloop
endfacet
facet normal 0.8660254 -0.5 0
 outer loop
  vertex 3.0603101 -5.3006134 -125.049995
  vertex 6.1206207 2.3841858e-07 -124.99999
  vertex 3.0603101 -5.3006134 -124.99999
 endloop
endfacet
facet normal 7.790667e-08 -1 0
 outer loop
  vertex -3.0603108 -5.300614 -125.049995
  vertex 3.0603101 -5.3006134 -125.049995
  vertex 3.0603101 -5.3006134 -124.99999
 endloop
endfacet
facet normal 7.790667e-08 -1 0
 outer loop
  vertex -3.0603108 -5.300614 -125.049995
  vertex 3.0603101 -5.3006134 -124.99999
  vertex -3.0603108 -5.300614 -124.99999
 endloop
endfacet
facet normal -0.86602545 -0.49999994 -0
 outer loop
  vertex -6.1206207 -2.3841858e-07 -125.049995
  vertex -3.0603108 -5.300614 -125.049995
  vertex -3.0603108 -5.300614 -124.99999
 endloop
endfacet
facet normal -0.86602545 -0.49999994 0
 outer loop
  vertex -6.1206207 -2.3841858e-07 -125.049995
  vertex -3.0603108 -5.300614 -124.99999
  vertex -6.1206207 -2.3841858e-07 -124.99999
 endloop
endfacet
facet normal -0.8660254 0.5 0
 outer loop
  vertex -3.0603101 5.3006134 -125.049995
  vertex -6.1206207 -2.3841858e-07 -125.049995
  vertex -6.1206207 -2.3841858e-07 -124.99999
 endloop
endfacet
facet normal -0.8660254 0.5 0
 outer loop
  vertex -3.0603101 5.3006134 -125.049995
  vertex -6.1206207 -2.3841858e-07 -124.99999
  vertex -3.0603101 5.3006134 -124.99999
 endloop
endfacet
facet normal -7.790667e-08 1 0
 outer loop
  vertex 3.0603108 5.300614 -125.049995
  vertex -3.0603101 5.3006134 -125.049995
  vertex -3.0603101 5.3006134 -124.99999
 endloop
endfacet
facet normal -7.790667e-08 1 0
 outer loop
  vertex 3.0603108 5.300614 -125.049995
  vertex -3.0603101 5.3006134 -124.99999
  vertex 3.0603108 5.300614 -124.99999
 endloop
endfacet
facet normal 0 0 1
 outer loop
  vertex 3.0603101 -5.3006134 -124.99999
  vertex 6.1206207 2.3841858e-07 -124.99999
  vertex 3.0603108 5.300614 -124.99999
 endloop
endfacet
facet normal 0 0 1
 outer loop
  vertex 3.0603108 5.300614 -124.99999
  vertex -3.0603101 5.3006134 -124.99999
  vertex -6.1206207 -2.3841858e-07 -124.99999
 endloop
endfacet
facet normal 0 0 1
 outer loop
  vertex -6.1206207 -2.3841858e-07 -124.99999
  vertex -3.0603108 -5.300614 -124.99999
  vertex 3.0603101 -5.3006134 -124.99999
 endloop
endfacet
facet normal 0 -0 1
 outer loop
  vertex 3.0603108 5.300614 -124.99999
  vertex -6.1206207 -2.3841858e-07 -124.99999
  vertex 3.0603101 -5.3006134 -124.99999
 endloop
endfacet
facet normal 0 0 -1
 outer loop
  vertex 3.0891783 5.3506136 -124.99999
  vertex 6.178356 0 -124.99999
  vertex 6.1206207 2.3841858e-07 -124.99999
 endloop
endfacet
facet normal 0 0 -1
 outer loop
  vertex 3.0891783 5.3506136 -124.99999
  vertex 6.1206207 2.3841858e-07 -124.99999
  vertex 3.0603108 5.300614 -124.99999
 endloop
endfacet
facet normal -0 0 1
 outer loop
  vertex 6.17547 -2.3841858e-07 125
  vertex 3.087735 5.3481135 125
  vertex 3.0588675 5.298114 125
 endloop
endfacet
facet normal -0 -0 1
 outer loop
  vertex 6.17547 -2.3841858e-07 125
  vertex 3.0588675 5.298114 125
  vertex 6.117735 0 125
 endloop
endfacet
facet normal 0 0 -1
 outer loop
  vertex 6.178356 0 -124.99999
  vertex 3.089178 -5.3506136 -124.99999
  vertex 3.0603101 -5.3006134 -124.99999
 endloop
endfacet
facet normal 0 -0 -1
 outer loop
  vertex 6.178356 0 -124.99999
  vertex 3.0603101 -5.3006134 -124.99999
  vertex 6.1206207 2.3841858e-07 -124.99999
 endloop
endfacet
facet normal 0 0 1
 outer loop
  vertex 3.0877347 -5.348114 125
  vertex 6.17547 -2.3841858e-07 125
  vertex 6.117735 0 125
 endloop
endfacet
facet normal -0 0 1
 outer loop
  vertex 3.0877347 -5.348114 125
  vertex 6.117735 0 125
  vertex 3.0588675 -5.298114 125
 endloop
endfacet
facet normal 0 -0 -1
 outer loop
  vertex 3.089178 -5.3506136 -124.99999
  vertex -3.0891783 -5.3506136 -124.99999
  vertex -3.0603108 -5.300614 -124.99999
 endloop
endfacet
facet normal 0 -0 -1
 outer loop
  vertex 3.089178 -5.3506136 -124.99999
  vertex -3.0603108 -5.300614 -124.99999
  vertex 3.0603101 -5.3006134 -124.99999
 endloop
endfacet
facet normal 0 0 1
 outer loop
  vertex -3.087735 -5.3481135 125
  vertex 3.0877347 -5.348114 125
  vertex 3.0588675 -5.298114 125
 endloop
endfacet
facet normal -0 0 1
 outer loop
  vertex -3.087735 -5.3481135 125
  vertex 3.0588675 -5.298114 125
  vertex -3.0588675 -5.298114 125
 endloop
endfacet
facet normal -0 -0 -1
 outer loop
  vertex -3.0891783 -5.3506136 -124.99999
  vertex -6.178356 0 -124.99999
  vertex -6.1206207 -2.3841858e-07 -124.99999
 endloop
endfacet
facet normal -0 -0 -1
 outer loop
  vertex -3.0891783 -5.3506136 -124.99999
  vertex -6.1206207 -2.3841858e-07 -124.99999
  vertex -3.0603108 -5.300614 -124.99999
 endloop
endfacet
facet normal 0 0 1
 outer loop
  vertex -6.17547 2.3841858e-07 125
  vertex -3.087735 -5.3481135 125
  vertex -3.0588675 -5.298114 125
 endloop
endfacet
facet normal 0 0 1
 outer loop
  vertex -6.17547 2.3841858e-07 125
  vertex -3.0588675 -5.298114 125
  vertex -6.117735 0 125
 endloop
endfacet
facet normal -0 0 -1
 outer loop
  vertex -6.178356 0 -124.99999
  vertex -3.089178 5.3506136 -124.99999
  vertex -3.0603101 5.3006134 -124.99999
 endloop
endfacet
facet normal -0 0 -1
 outer loop
  vertex -6.178356 0 -124.99999
  vertex -3.0603101 5.3006134 -124.99999
  vertex -6.1206207 -2.3841858e-07 -124.99999
 endloop
endfacet
facet normal 0 -0 1
 outer loop
  vertex -3.0877347 5.348114 125
  vertex -6.17547 2.3841858e-07 125
  vertex -6.117735 0 125
 endloop
endfacet
facet normal 0 -0 1
 outer loop
  vertex -3.0877347 5.348114 125
  vertex -6.117735 0 125
  vertex -3.0588675 5.298114 125
 endloop
endfacet
facet normal 0 0 -1
 outer loop
  vertex -3.089178 5.3506136 -124.99999
  vertex 3.0891783 5.3506136 -124.99999
  vertex 3.0603108 5.300614 -124.99999
 endloop
endfacet
facet normal 0 0 -1
 outer loop
  vertex -3.089178 5.3506136 -124.99999
  vertex 3.0603108 5.300614 -124.99999
  vertex -3.0603101 5.3006134 -124.99999
 endloop
endfacet
facet normal -0 -0 1
 outer loop
  vertex 3.087735 5.3481135 125
  vertex -3.0877347 5.348114 125
  vertex -3.0588675 5.298114 125
 endloop
endfacet
facet normal 0 -0 1
 outer loop
  vertex 3.087735 5.3481135 125
  vertex -3.0588675 5.298114 125
  vertex 3.0588675 5.298114 125
 endloop
endfacet
facet normal -0.8660254 0.5 -9.996719e-06
 outer loop
  vertex 6.1206207 2.3841858e-07 -124.99999
  vertex 3.0603101 -5.3006134 -124.99999
  vertex 3.0588675 -5.298114 125
 endloop
endfacet
facet normal -0.8660254 0.5 -9.996711e-06
 outer loop
  vertex 6.1206207 2.3841858e-07 -124.99999
  vertex 3.0588675 -5.298114 125
  vertex 6.117735 0 125
 endloop
endfacet
facet normal -0.8660254 -0.49999988 -1.000015e-05
 outer loop
  vertex 3.0588675 5.298114 125
  vertex 3.0603108 5.300614 -124.99999
  vertex 6.1206207 2.3841858e-07 -124.99999
 endloop
endfacet
facet normal -0.8660254 -0.5 -9.997246e-06
 outer loop
  vertex 3.0588675 5.298114 125
  vertex 6.1206207 2.3841858e-07 -124.99999
  vertex 6.117735 0 125
 endloop
endfacet
facet normal 0.8660254 -0.5 -9.996292e-06
 outer loop
  vertex -6.117735 0 125
  vertex -6.1206207 -2.3841858e-07 -124.99999
  vertex -3.0603101 5.3006134 -124.99999
 endloop
endfacet
facet normal 0.8660254 -0.5 -9.996719e-06
 outer loop
  vertex -6.117735 0 125
  vertex -3.0603101 5.3006134 -124.99999
  vertex -3.0588675 5.298114 125
 endloop
endfacet
facet normal 0.8660254 0.49999988 -9.997245e-06
 outer loop
  vertex -3.0603108 -5.300614 -124.99999
  vertex -6.1206207 -2.3841858e-07 -124.99999
  vertex -6.117735 0 125
 endloop
endfacet
facet normal 0.8660254 0.5 -1.0000452e-05
 outer loop
  vertex -3.0603108 -5.300614 -124.99999
  vertex -6.117735 0 125
  vertex -3.0588675 -5.298114 125
 endloop
endfacet
facet normal -7.790667e-08 1 -9.998322e-06
 outer loop
  vertex 3.0588675 -5.298114 125
  vertex 3.0603101 -5.3006134 -124.99999
  vertex -3.0603108 -5.300614 -124.99999
 endloop
endfacet
facet normal 0 1 -1.0000229e-05
 outer loop
  vertex 3.0588675 -5.298114 125
  vertex -3.0603108 -5.300614 -124.99999
  vertex -3.0588675 -5.298114 125
 endloop
endfacet
facet normal 7.790667e-08 -1 -9.998322e-06
 outer loop
  vertex -3.0588675 5.298114 125
  vertex -3.0603101 5.3006134 -124.99999
  vertex 3.0603108 5.300614 -124.99999
 endloop
endfacet
facet normal 0 -1 -1.0000229e-05
 outer loop
  vertex -3.0588675 5.298114 125
  vertex 3.0603108 5.300614 -124.99999
  vertex 3.0588675 5.298114 125
 endloop
endfacet
facet normal -0.00022199283 -0.00051584095 -0.9999999
 outer loop
  vertex 3.0588675 -5.298114 125
  vertex 0.6349999 -4.254999 125
  vertex 0.63499993 -2.1399999 124.99891
 endloop
endfacet
facet normal -0 -0.00034546043 -1
 outer loop
  vertex 3.0588675 -5.298114 125
  vertex 0.63499993 -2.1399999 124.99891
  vertex 4.8650007 -2.1399999 124.99891
 endloop
endfacet
facet normal -0 0 -1
 outer loop
  vertex -3.645 -4.2549996 125
  vertex 0.6349999 -4.254999 125
  vertex 3.0588675 -5.298114 125
 endloop
endfacet
facet normal 0 0 -1
 outer loop
  vertex -3.645 -4.2549996 125
  vertex 3.0588675 -5.298114 125
  vertex -3.0588675 -5.298114 125
 endloop
endfacet
facet normal 0.00043544875 0.0002549074 -0.99999994
 outer loop
  vertex 6.117735 0 125
  vertex 4.8650007 -2.1399999 124.99891
  vertex 4.865 2.1400003 125
 endloop
endfacet
facet normal 0 0 -1
 outer loop
  vertex 4.865 2.1400003 125
  vertex 0.635 2.14 125
  vertex 0.6349999 4.255 125
 endloop
endfacet
facet normal 0 -0 -1
 outer loop
  vertex 4.865 2.1400003 125
  vertex 0.6349999 4.255 125
  vertex 3.03 5.2481136 125
 endloop
endfacet
facet normal 0 -0 -1
 outer loop
  vertex 0.6349999 4.255 125
  vertex -3.6450002 4.2549996 125
  vertex -3.0299997 5.2481136 125
 endloop
endfacet
facet normal -0 -0 -1
 outer loop
  vertex 0.6349999 4.255 125
  vertex -3.0299997 5.2481136 125
  vertex 3.03 5.2481136 125
 endloop
endfacet
facet normal 0 -0 -1
 outer loop
  vertex -3.645 -4.2549996 125
  vertex -6.0599995 0 125
  vertex -3.6450002 4.2549996 125
 endloop
endfacet
endsolid 
