solid 
facet normal -1 0 0
 outer loop
  vertex -4.255 4.255 125.05
  vertex -4.255 -4.255 125.05
  vertex -4.255 -4.255 126.69
 endloop
endfacet
facet normal -1 -0 -0
 outer loop
  vertex -4.255 4.255 125.05
  vertex -4.255 -4.255 126.69
  vertex -4.255 4.255 126.69
 endloop
endfacet
facet normal 0 -1 0
 outer loop
  vertex -4.255 -4.255 126.69
  vertex -4.255 -4.255 125.05
  vertex 4.255 -4.255 125.05
 endloop
endfacet
facet normal -0 -1 -0
 outer loop
  vertex -4.255 -4.255 126.69
  vertex 4.255 -4.255 125.05
  vertex 4.255 -4.255 126.69
 endloop
endfacet
facet normal 0 1 -0
 outer loop
  vertex -4.255 4.255 126.69
  vertex 4.255 4.255 126.69
  vertex 4.255 4.255 125.05
 endloop
endfacet
facet normal 0 1 -0
 outer loop
  vertex -4.255 4.255 126.69
  vertex 4.255 4.255 125.05
  vertex -4.255 4.255 125.05
 endloop
endfacet
facet normal 1 0 0
 outer loop
  vertex 4.255 -4.255 125.05
  vertex 4.255 4.255 125.05
  vertex 4.255 4.255 126.69
 endloop
endfacet
facet normal 1 -0 0
 outer loop
  vertex 4.255 -4.255 125.05
  vertex 4.255 4.255 126.69
  vertex 4.255 -4.255 126.69
 endloop
endfacet
facet normal 0.5 0.8660254 0
 outer loop
  vertex 0 6.7600193 -125.044876
  vertex 0 6.7600193 125.044876
  vertex 5.854348 3.38001 125.044876
 endloop
endfacet
facet normal 0.5 0.8660254 -0
 outer loop
  vertex 0 6.7600193 -125.044876
  vertex 5.854348 3.38001 125.044876
  vertex 5.854348 3.38001 -125.044876
 endloop
endfacet
facet normal 0.99999994 0.00037616707 0
 outer loop
  vertex 5.854348 3.38001 -125.044876
  vertex 5.854348 3.38001 125.044876
  vertex 5.8568916 -3.3814778 125.04707
 endloop
endfacet
facet normal 1 0 -1.0170057e-05
 outer loop
  vertex 5.854348 3.38001 -125.044876
  vertex 5.8568916 -3.3814778 125.04707
  vertex 5.854348 -3.3800097 -125.044876
 endloop
endfacet
facet normal 0.49967426 -0.8662134 -1.0166879e-05
 outer loop
  vertex 5.854348 -3.3800097 -125.044876
  vertex 5.8568916 -3.3814778 125.04707
  vertex 0 -6.7600193 125.044876
 endloop
endfacet
facet normal 0.50000006 -0.8660254 0
 outer loop
  vertex 5.854348 -3.3800097 -125.044876
  vertex 0 -6.7600193 125.044876
  vertex 0 -6.7600193 -125.044876
 endloop
endfacet
facet normal -0.50000006 -0.8660254 -0
 outer loop
  vertex 0 -6.7600193 -125.044876
  vertex 0 -6.7600193 125.044876
  vertex -5.854348 -3.3800097 125.044876
 endloop
endfacet
facet normal -0.50000006 -0.8660254 0
 outer loop
  vertex 0 -6.7600193 -125.044876
  vertex -5.854348 -3.3800097 125.044876
  vertex -5.854348 -3.3800097 -125.044876
 endloop
endfacet
facet normal -0.99999994 -0.00037616707 -0
 outer loop
  vertex -5.854348 -3.3800097 -125.044876
  vertex -5.854348 -3.3800097 125.044876
  vertex -5.8568916 3.381478 125.04707
 endloop
endfacet
facet normal -1 0 -1.0170057e-05
 outer loop
  vertex -5.854348 -3.3800097 -125.044876
  vertex -5.8568916 3.381478 125.04707
  vertex -5.854348 3.38001 -125.044876
 endloop
endfacet
facet normal -0.4996742 0.8662134 -1.0166879e-05
 outer loop
  vertex -5.854348 3.38001 -125.044876
  vertex -5.8568916 3.381478 125.04707
  vertex 0 6.7600193 125.044876
 endloop
endfacet
facet normal -0.5 0.8660254 0
 outer loop
  vertex -5.854348 3.38001 -125.044876
  vertex 0 6.7600193 125.044876
  vertex 0 6.7600193 -125.044876
 endloop
endfacet
facet normal -0 0 -1
 outer loop
  vertex -5.854348 3.38001 -125.044876
  vertex 0 6.7600193 -125.044876
  vertex 5.854348 3.38001 -125.044876
 endloop
endfacet
facet normal 0 0 -1
 outer loop
  vertex 5.854348 3.38001 -125.044876
  vertex 5.854348 -3.3800097 -125.044876
  vertex 0 -6.7600193 -125.044876
 endloop
endfacet
facet normal 0 0 -1
 outer loop
  vertex 0 -6.7600193 -125.044876
  vertex -5.854348 -3.3800097 -125.044876
  vertex -5.854348 3.38001 -125.044876
 endloop
endfacet
facet normal 0 0 -1
 outer loop
  vertex 5.854348 3.38001 -125.044876
  vertex 0 -6.7600193 -125.044876
  vertex -5.854348 3.38001 -125.044876
 endloop
endfacet
facet normal 0.0018288895 -0 0.99999833
 outer loop
  vertex 4.255 4.255 125.05
  vertex 4.255 -4.255 125.05
  vertex 5.8568916 -3.3814778 125.04707
 endloop
endfacet
facet normal -0.039804183 0.06965105 0.99677706
 outer loop
  vertex 0 6.7600193 125.044876
  vertex -5.8568916 3.381478 125.04707
  vertex -4.255 4.255 125.05
 endloop
endfacet
facet normal 0.0033841159 0.0003262389 0.9999943
 outer loop
  vertex 4.255 4.255 125.05
  vertex 5.8568916 -3.3814778 125.04707
  vertex 5.854348 3.38001 125.044876
 endloop
endfacet
facet normal 0 0.002046668 0.9999979
 outer loop
  vertex 0 6.7600193 125.044876
  vertex -4.255 4.255 125.05
  vertex 4.255 4.255 125.05
 endloop
endfacet
facet normal 0.06071333 0.105158575 0.99260044
 outer loop
  vertex 4.255 4.255 125.05
  vertex 5.854348 3.38001 125.044876
  vertex 0 6.7600193 125.044876
 endloop
endfacet
facet normal -0.0018288895 0 0.99999833
 outer loop
  vertex -4.255 -4.255 125.05
  vertex -4.255 4.255 125.05
  vertex -5.8568916 3.381478 125.04707
 endloop
endfacet
facet normal 0.03980425 -0.069651164 0.99677706
 outer loop
  vertex 0 -6.7600193 125.044876
  vertex 5.8568916 -3.3814778 125.04707
  vertex 4.255 -4.255 125.05
 endloop
endfacet
facet normal -0.0033841159 -0.0003262389 0.9999943
 outer loop
  vertex -4.255 -4.255 125.05
  vertex -5.8568916 3.381478 125.04707
  vertex -5.854348 -3.3800097 125.044876
 endloop
endfacet
facet normal 0 -0.002046668 0.9999979
 outer loop
  vertex 0 -6.7600193 125.044876
  vertex 4.255 -4.255 125.05
  vertex -4.255 -4.255 125.05
 endloop
endfacet
facet normal -0.060713537 -0.10515893 0.9926004
 outer loop
  vertex -4.255 -4.255 125.05
  vertex -5.854348 -3.3800097 125.044876
  vertex 0 -6.7600193 125.044876
 endloop
endfacet
facet normal 0 -0 1
 outer loop
  vertex -4.255 4.255 126.69
  vertex -4.255 -4.255 126.69
  vertex 4.255 -4.255 126.69
 endloop
endfacet
facet normal 0 0 1
 outer loop
  vertex -4.255 4.255 126.69
  vertex 4.255 -4.255 126.69
  vertex 4.255 4.255 126.69
 endloop
endfacet
facet normal 1 -0 0
 outer loop
  vertex -4.205 4.205 125
  vertex -4.205 4.205 126.64
  vertex -4.205 -4.205 126.64
 endloop
endfacet
facet normal 1 -0 0
 outer loop
  vertex -4.205 4.205 125
  vertex -4.205 -4.205 126.64
  vertex -4.205 -4.205 125
 endloop
endfacet
facet normal 0 1 -0
 outer loop
  vertex -4.205 -4.205 126.64
  vertex 4.205 -4.205 126.64
  vertex 4.205 -4.205 125
 endloop
endfacet
facet normal 0 1 -0
 outer loop
  vertex -4.205 -4.205 126.64
  vertex 4.205 -4.205 125
  vertex -4.205 -4.205 125
 endloop
endfacet
facet normal 0 -1 0
 outer loop
  vertex -4.205 4.205 126.64
  vertex -4.205 4.205 125
  vertex 4.205 4.205 125
 endloop
endfacet
facet normal -0 -1 -0
 outer loop
  vertex -4.205 4.205 126.64
  vertex 4.205 4.205 125
  vertex 4.205 4.205 126.64
 endloop
endfacet
facet normal -1 -0 -0
 outer loop
  vertex 4.205 -4.205 125
  vertex 4.205 -4.205 126.64
  vertex 4.205 4.205 126.64
 endloop
endfacet
facet normal -1 -0 0
 outer loop
  vertex 4.205 -4.205 125
  vertex 4.205 4.205 126.64
  vertex 4.205 4.205 125
 endloop
endfacet
facet normal -0.49999997 -0.8660254 -0
 outer loop
  vertex 0 6.7 -125
  vertex 5.80237 3.3500001 -125
  vertex 5.80237 3.3500001 125
 endloop
endfacet
facet normal -0.49999997 -0.8660254 0
 outer loop
  vertex 0 6.7 -125
  vertex 5.80237 3.3500001 125
  vertex 0 6.7 125
 endloop
endfacet
facet normal -1 0 0
 outer loop
  vertex 5.80237 3.3500001 -125
  vertex 5.80237 -3.35 -125
  vertex 5.80237 -3.35 125
 endloop
endfacet
facet normal -1 -0 -0
 outer loop
  vertex 5.80237 3.3500001 -125
  vertex 5.80237 -3.35 125
  vertex 5.80237 3.3500001 125
 endloop
endfacet
facet normal -0.5 0.8660254 0
 outer loop
  vertex 5.80237 -3.35 -125
  vertex 0 -6.7 -125
  vertex 0 -6.7 125
 endloop
endfacet
facet normal -0.5 0.8660254 0
 outer loop
  vertex 5.80237 -3.35 -125
  vertex 0 -6.7 125
  vertex 5.80237 -3.35 125
 endloop
endfacet
facet normal 0.5 0.8660254 0
 outer loop
  vertex 0 -6.7 -125
  vertex -5.80237 -3.35 -125
  vertex -5.80237 -3.35 125
 endloop
endfacet
facet normal 0.5 0.8660254 0
 outer loop
  vertex 0 -6.7 -125
  vertex -5.80237 -3.35 125
  vertex 0 -6.7 125
 endloop
endfacet
facet normal 1 0 0
 outer loop
  vertex -5.80237 -3.35 -125
  vertex -5.80237 3.3500001 -125
  vertex -5.80237 3.3500001 125
 endloop
endfacet
facet normal 1 -0 0
 outer loop
  vertex -5.80237 -3.35 -125
  vertex -5.80237 3.3500001 125
  vertex -5.80237 -3.35 125
 endloop
endfacet
facet normal 0.49999997 -0.8660254 0
 outer loop
  vertex -5.80237 3.3500001 -125
  vertex 0 6.7 -125
  vertex 0 6.7 125
 endloop
endfacet
facet normal 0.49999997 -0.8660254 0
 outer loop
  vertex -5.80237 3.3500001 -125
  vertex 0 6.7 125
  vertex -5.80237 3.3500001 125
 endloop
endfacet
facet normal -0 0 1
 outer loop
  vertex 5.80237 3.3500001 -125
  vertex 0 6.7 -125
  vertex -5.80237 3.3500001 -125
 endloop
endfacet
facet normal 0 -0 1
 outer loop
  vertex -5.80237 3.3500001 -125
  vertex -5.80237 -3.35 -125
  vertex 0 -6.7 -125
 endloop
endfacet
facet normal 0 0 1
 outer loop
  vertex 0 -6.7 -125
  vertex 5.80237 -3.35 -125
  vertex 5.80237 3.3500001 -125
 endloop
endfacet
facet normal 0 0 1
 outer loop
  vertex -5.80237 3.3500001 -125
  vertex 0 -6.7 -125
  vertex 5.80237 3.3500001 -125
 endloop
endfacet
facet normal 0 -0 -1
 outer loop
  vertex -4.205 4.205 125
  vertex -5.80237 3.3500001 125
  vertex 0 6.7 125
 endloop
endfacet
facet normal 0 0 -1
 outer loop
  vertex 5.80237 3.3500001 125
  vertex 5.80237 -3.35 125
  vertex 4.205 -4.205 125
 endloop
endfacet
facet normal 0 -0 -1
 outer loop
  vertex 4.205 4.205 125
  vertex -4.205 4.205 125
  vertex 0 6.7 125
 endloop
endfacet
facet normal 0 0 -1
 outer loop
  vertex 5.80237 3.3500001 125
  vertex 4.205 -4.205 125
  vertex 4.205 4.205 125
 endloop
endfacet
facet normal 0 0 -1
 outer loop
  vertex 0 6.7 125
  vertex 5.80237 3.3500001 125
  vertex 4.205 4.205 125
 endloop
endfacet
facet normal -0 0 -1
 outer loop
  vertex 4.205 -4.205 125
  vertex 5.80237 -3.35 125
  vertex 0 -6.7 125
 endloop
endfacet
facet normal 0 -0 -1
 outer loop
  vertex -5.80237 -3.35 125
  vertex -5.80237 3.3500001 125
  vertex -4.205 4.205 125
 endloop
endfacet
facet normal 0 0 -1
 outer loop
  vertex -4.205 -4.205 125
  vertex 4.205 -4.205 125
  vertex 0 -6.7 125
 endloop
endfacet
facet normal -0 0 -1
 outer loop
  vertex -5.80237 -3.35 125
  vertex -4.205 4.205 125
  vertex -4.205 -4.205 125
 endloop
endfacet
facet normal -0 -0 -1
 outer loop
  vertex 0 -6.7 125
  vertex -5.80237 -3.35 125
  vertex -4.205 -4.205 125
 endloop
endfacet
facet normal 0 0 -1
 outer loop
  vertex -4.205 4.205 126.64
  vertex 4.205 4.205 126.64
  vertex 4.205 -4.205 126.64
 endloop
endfacet
facet normal 0 0 -1
 outer loop
  vertex -4.205 4.205 126.64
  vertex 4.205 -4.205 126.64
  vertex -4.205 -4.205 126.64
 endloop
endfacet
endsolid 
