solid 
facet normal -0.00041279793 0.99999994 0
 outer loop
  vertex -3.0800095 5.334733 -125.044876
  vertex -3.0800095 5.334733 125.044876
  vertex 3.0814776 5.3372765 125.04707
 endloop
endfacet
facet normal 0 1 -1.0170056e-05
 outer loop
  vertex -3.0800095 5.334733 -125.044876
  vertex 3.0814776 5.3372765 125.04707
  vertex 3.0800095 5.334733 -125.044876
 endloop
endfacet
facet normal 0.86623174 0.49964252 -1.0166665e-05
 outer loop
  vertex 3.0800095 5.334733 -125.044876
  vertex 3.0814776 5.3372765 125.04707
  vertex 6.160019 0 125.044876
 endloop
endfacet
facet normal 0.8660254 0.49999997 -0
 outer loop
  vertex 3.0800095 5.334733 -125.044876
  vertex 6.160019 0 125.044876
  vertex 6.160019 0 -125.044876
 endloop
endfacet
facet normal 0.8662317 -0.4996425 0
 outer loop
  vertex 6.160019 0 -125.044876
  vertex 6.160019 0 125.044876
  vertex 3.0814779 -5.337276 125.04707
 endloop
endfacet
facet normal 0.86602545 -0.5 -1.0168961e-05
 outer loop
  vertex 6.160019 0 -125.044876
  vertex 3.0814779 -5.337276 125.04707
  vertex 3.0800095 -5.334733 -125.044876
 endloop
endfacet
facet normal -0.00041271685 -0.9999998 -1.0165725e-05
 outer loop
  vertex 3.0800095 -5.334733 -125.044876
  vertex 3.0814779 -5.337276 125.04707
  vertex -3.0800095 -5.334733 125.044876
 endloop
endfacet
facet normal 0 -1 0
 outer loop
  vertex 3.0800095 -5.334733 -125.044876
  vertex -3.0800095 -5.334733 125.044876
  vertex -3.0800095 -5.334733 -125.044876
 endloop
endfacet
facet normal -0.8660254 -0.49999997 -0
 outer loop
  vertex -3.0800095 -5.334733 -125.044876
  vertex -3.0800095 -5.334733 125.044876
  vertex -6.160019 0 125.044876
 endloop
endfacet
facet normal -0.8660254 -0.49999997 0
 outer loop
  vertex -3.0800095 -5.334733 -125.044876
  vertex -6.160019 0 125.044876
  vertex -6.160019 0 -125.044876
 endloop
endfacet
facet normal -0.8660254 0.49999997 0
 outer loop
  vertex -6.160019 0 -125.044876
  vertex -6.160019 0 125.044876
  vertex -3.0800095 5.334733 125.044876
 endloop
endfacet
facet normal -0.8660254 0.49999997 0
 outer loop
  vertex -6.160019 0 -125.044876
  vertex -3.0800095 5.334733 125.044876
  vertex -3.0800095 5.334733 -125.044876
 endloop
endfacet
facet normal -0 0 -1
 outer loop
  vertex -6.160019 0 -125.044876
  vertex -3.0800095 5.334733 -125.044876
  vertex 3.0800095 5.334733 -125.044876
 endloop
endfacet
facet normal 0 0 -1
 outer loop
  vertex 3.0800095 5.334733 -125.044876
  vertex 6.160019 0 -125.044876
  vertex 3.0800095 -5.334733 -125.044876
 endloop
endfacet
facet normal 0 0 -1
 outer loop
  vertex 3.0800095 -5.334733 -125.044876
  vertex -3.0800095 -5.334733 -125.044876
  vertex -6.160019 0 -125.044876
 endloop
endfacet
facet normal 0 0 -1
 outer loop
  vertex 3.0800095 5.334733 -125.044876
  vertex 3.0800095 -5.334733 -125.044876
  vertex -6.160019 0 -125.044876
 endloop
endfacet
facet normal -1.1141057e-07 1 0
 outer loop
  vertex -3.6449997 4.2549996 125.05
  vertex -3.6449997 4.2549996 126.69
  vertex 0.63499963 4.255 126.69
 endloop
endfacet
facet normal -1.11410564e-07 1 -1.619656e-14
 outer loop
  vertex -3.6449997 4.2549996 125.05
  vertex 0.63499963 4.255 126.69
  vertex 0.6349999 4.255 125.05
 endloop
endfacet
facet normal -1 2.8016284e-08 0
 outer loop
  vertex -3.645 -4.255 126.69
  vertex -3.6449997 4.2549996 126.69
  vertex -3.6449997 4.2549996 125.05
 endloop
endfacet
facet normal -1 2.8016284e-08 0
 outer loop
  vertex -3.645 -4.255 126.69
  vertex -3.6449997 4.2549996 125.05
  vertex -3.645 -4.255 125.05
 endloop
endfacet
facet normal 1 -0 0
 outer loop
  vertex 0.6349999 -2.1399996 125.05
  vertex 0.6349999 -2.1399996 126.69
  vertex 0.6349999 -4.254999 126.69
 endloop
endfacet
facet normal 1 -5.636373e-08 -7.268861e-08
 outer loop
  vertex 0.6349999 -2.1399996 125.05
  vertex 0.6349999 -4.254999 126.69
  vertex 0.63499975 -4.2549996 125.05
 endloop
endfacet
facet normal 0 1 0
 outer loop
  vertex 0.63500005 2.1399999 125.05
  vertex 0.63500005 2.1399999 126.69
  vertex 4.8649993 2.1399999 126.69
 endloop
endfacet
facet normal 0 1 -0
 outer loop
  vertex 0.63500005 2.1399999 125.05
  vertex 4.8649993 2.1399999 126.69
  vertex 4.8649993 2.1399999 125.05
 endloop
endfacet
facet normal 1 1.1141056e-07 0
 outer loop
  vertex 4.8649993 2.1399999 125.05
  vertex 4.8649993 2.1399999 126.69
  vertex 4.865 -2.1399999 126.69
 endloop
endfacet
facet normal 1 1.1141056e-07 -0
 outer loop
  vertex 4.8649993 2.1399999 125.05
  vertex 4.865 -2.1399999 126.69
  vertex 4.865 -2.1399999 125.05
 endloop
endfacet
facet normal -5.6363728e-08 -1 -0
 outer loop
  vertex 4.865 -2.1399999 125.05
  vertex 4.865 -2.1399999 126.69
  vertex 0.6349999 -2.1399996 126.69
 endloop
endfacet
facet normal -5.6363728e-08 -1 0
 outer loop
  vertex 4.865 -2.1399999 125.05
  vertex 0.6349999 -2.1399996 126.69
  vertex 0.6349999 -2.1399996 125.05
 endloop
endfacet
facet normal 2.2282111e-07 -1 2.9075449e-07
 outer loop
  vertex 0.63499975 -4.2549996 125.05
  vertex 0.6349999 -4.254999 126.69
  vertex -3.645 -4.255 126.69
 endloop
endfacet
facet normal 1.1141056e-07 -1 0
 outer loop
  vertex 0.63499975 -4.2549996 125.05
  vertex -3.645 -4.255 126.69
  vertex -3.645 -4.255 125.05
 endloop
endfacet
facet normal 1 1.9727304e-07 1.4537724e-07
 outer loop
  vertex 0.6349999 4.255 125.05
  vertex 0.63499963 4.255 126.69
  vertex 0.63500005 2.1399999 126.69
 endloop
endfacet
facet normal 1 8.454558e-08 -0
 outer loop
  vertex 0.6349999 4.255 125.05
  vertex 0.63500005 2.1399999 126.69
  vertex 0.63500005 2.1399999 125.05
 endloop
endfacet
facet normal -0.0003580619 -0.0035163476 0.9999938
 outer loop
  vertex -3.0800095 -5.334733 125.044876
  vertex 3.0814779 -5.337276 125.04707
  vertex 0.63499975 -4.2549996 125.05
 endloop
endfacet
facet normal 5.2901067e-10 -0.0047482997 0.99998873
 outer loop
  vertex -3.0800095 -5.334733 125.044876
  vertex 0.63499975 -4.2549996 125.05
  vertex -3.645 -4.255 125.05
 endloop
endfacet
facet normal -0.0003580622 0.0035163483 0.9999938
 outer loop
  vertex 0.6349999 4.255 125.05
  vertex 3.0814776 5.3372765 125.04707
  vertex -3.0800095 5.334733 125.044876
 endloop
endfacet
facet normal -5.290105e-10 0.0047482983 0.99998873
 outer loop
  vertex -3.6449997 4.2549996 125.05
  vertex 0.6349999 4.255 125.05
  vertex -3.0800095 5.334733 125.044876
 endloop
endfacet
facet normal -0.08735224 -0.050432835 0.9949
 outer loop
  vertex -6.160019 0 125.044876
  vertex -3.0800095 -5.334733 125.044876
  vertex -3.645 -4.255 125.05
 endloop
endfacet
facet normal -0.087351516 0.050432418 0.9949001
 outer loop
  vertex -3.6449997 4.2549996 125.05
  vertex -3.0800095 5.334733 125.044876
  vertex -6.160019 0 125.044876
 endloop
endfacet
facet normal -0.0020385303 5.7112044e-11 0.999998
 outer loop
  vertex -6.160019 0 125.044876
  vertex -3.645 -4.255 125.05
  vertex -3.6449997 4.2549996 125.05
 endloop
endfacet
facet normal 0.0011975116 1.0124431e-10 0.9999993
 outer loop
  vertex 3.0814776 5.3372765 125.04707
  vertex 0.6349999 4.255 125.05
  vertex 0.63500005 2.1399999 125.05
 endloop
endfacet
facet normal 0 0.00091630674 0.9999996
 outer loop
  vertex 3.0814776 5.3372765 125.04707
  vertex 0.63500005 2.1399999 125.05
  vertex 4.8649993 2.1399999 125.05
 endloop
endfacet
facet normal 0.0011975114 -6.749621e-11 0.9999993
 outer loop
  vertex 0.6349999 -2.1399996 125.05
  vertex 0.63499975 -4.2549996 125.05
  vertex 3.0814779 -5.337276 125.04707
 endloop
endfacet
facet normal -5.1646475e-11 -0.000916307 0.9999996
 outer loop
  vertex 4.865 -2.1399999 125.05
  vertex 0.6349999 -2.1399996 125.05
  vertex 3.0814779 -5.337276 125.04707
 endloop
endfacet
facet normal 0.06976089 0.039827734 0.9967683
 outer loop
  vertex 6.160019 0 125.044876
  vertex 3.0814776 5.3372765 125.04707
  vertex 4.8649993 2.1399999 125.05
 endloop
endfacet
facet normal 0.0697615 -0.03982808 0.9967683
 outer loop
  vertex 4.865 -2.1399999 125.05
  vertex 3.0814779 -5.337276 125.04707
  vertex 6.160019 0 125.044876
 endloop
endfacet
facet normal 0.003958947 4.410685e-10 0.9999922
 outer loop
  vertex 6.160019 0 125.044876
  vertex 4.8649993 2.1399999 125.05
  vertex 4.865 -2.1399999 125.05
 endloop
endfacet
facet normal 0 0 1
 outer loop
  vertex 0.63499963 4.255 126.69
  vertex -3.6449997 4.2549996 126.69
  vertex -3.645 -4.255 126.69
 endloop
endfacet
facet normal 0 0 1
 outer loop
  vertex -3.645 -4.255 126.69
  vertex 0.6349999 -4.254999 126.69
  vertex 0.6349999 -2.1399996 126.69
 endloop
endfacet
facet normal 0 0 1
 outer loop
  vertex 0.6349999 -2.1399996 126.69
  vertex 4.865 -2.1399999 126.69
  vertex 4.8649993 2.1399999 126.69
 endloop
endfacet
facet normal -0 0 1
 outer loop
  vertex 0.63500005 2.1399999 126.69
  vertex 0.63499963 4.255 126.69
  vertex -3.645 -4.255 126.69
 endloop
endfacet
facet normal -0 0 1
 outer loop
  vertex 0.6349999 -2.1399996 126.69
  vertex 4.8649993 2.1399999 126.69
  vertex 0.63500005 2.1399999 126.69
 endloop
endfacet
facet normal 0 0 1
 outer loop
  vertex -3.645 -4.255 126.69
  vertex 0.6349999 -2.1399996 126.69
  vertex 0.63500005 2.1399999 126.69
 endloop
endfacet
facet normal -0 -1 -0
 outer loop
  vertex -3.05 5.282755 -125
  vertex 3.0499997 5.282755 -125
  vertex 3.0499997 5.282755 125
 endloop
endfacet
facet normal 0 -1 -0
 outer loop
  vertex -3.05 5.282755 -125
  vertex 3.0499997 5.282755 125
  vertex -3.05 5.282755 125
 endloop
endfacet
facet normal -0.8660254 -0.50000006 -0
 outer loop
  vertex 3.0499997 5.282755 -125
  vertex 6.1 0 -125
  vertex 6.1 0 125
 endloop
endfacet
facet normal -0.8660254 -0.50000006 0
 outer loop
  vertex 3.0499997 5.282755 -125
  vertex 6.1 0 125
  vertex 3.0499997 5.282755 125
 endloop
endfacet
facet normal -0.8660254 0.5 0
 outer loop
  vertex 6.1 0 -125
  vertex 3.05 -5.282755 -125
  vertex 3.05 -5.282755 125
 endloop
endfacet
facet normal -0.8660254 0.5 0
 outer loop
  vertex 6.1 0 -125
  vertex 3.05 -5.282755 125
  vertex 6.1 0 125
 endloop
endfacet
facet normal -0 1 0
 outer loop
  vertex 3.05 -5.282755 -125
  vertex -3.0499997 -5.282755 -125
  vertex -3.0499997 -5.282755 125
 endloop
endfacet
facet normal 0 1 0
 outer loop
  vertex 3.05 -5.282755 -125
  vertex -3.0499997 -5.282755 125
  vertex 3.05 -5.282755 125
 endloop
endfacet
facet normal 0.8660254 0.50000006 0
 outer loop
  vertex -3.0499997 -5.282755 -125
  vertex -6.1 0 -125
  vertex -6.1 0 125
 endloop
endfacet
facet normal 0.8660254 0.50000006 0
 outer loop
  vertex -3.0499997 -5.282755 -125
  vertex -6.1 0 125
  vertex -3.0499997 -5.282755 125
 endloop
endfacet
facet normal 0.8660254 -0.5 0
 outer loop
  vertex -6.1 0 -125
  vertex -3.05 5.282755 -125
  vertex -3.05 5.282755 125
 endloop
endfacet
facet normal 0.8660254 -0.5 0
 outer loop
  vertex -6.1 0 -125
  vertex -3.05 5.282755 125
  vertex -6.1 0 125
 endloop
endfacet
facet normal 0 0 1
 outer loop
  vertex 3.0499997 5.282755 -125
  vertex -3.05 5.282755 -125
  vertex -6.1 0 -125
 endloop
endfacet
facet normal 0 0 1
 outer loop
  vertex -6.1 0 -125
  vertex -3.0499997 -5.282755 -125
  vertex 3.05 -5.282755 -125
 endloop
endfacet
facet normal 0 0 1
 outer loop
  vertex 3.05 -5.282755 -125
  vertex 6.1 0 -125
  vertex 3.0499997 5.282755 -125
 endloop
endfacet
facet normal 0 0 1
 outer loop
  vertex -6.1 0 -125
  vertex 3.05 -5.282755 -125
  vertex 3.0499997 5.282755 -125
 endloop
endfacet
facet normal 1.1407589e-07 -1 0
 outer loop
  vertex -3.5949998 4.2049994 125
  vertex 0.5849998 4.205 125
  vertex 0.5849998 4.205 126.64
 endloop
endfacet
facet normal 1.1407589e-07 -1 0
 outer loop
  vertex -3.5949998 4.2049994 125
  vertex 0.5849998 4.205 126.64
  vertex -3.5949998 4.2049994 126.64
 endloop
endfacet
facet normal 1 -2.8349415e-08 0
 outer loop
  vertex -3.595 -4.205 126.64
  vertex -3.595 -4.205 125
  vertex -3.5949998 4.2049994 125
 endloop
endfacet
facet normal 1 -2.8349415e-08 0
 outer loop
  vertex -3.595 -4.205 126.64
  vertex -3.5949998 4.2049994 125
  vertex -3.5949998 4.2049994 126.64
 endloop
endfacet
facet normal -1 0 0
 outer loop
  vertex 0.5849999 -2.0899997 125
  vertex 0.5849999 -4.205 125
  vertex 0.5849999 -4.205 126.64
 endloop
endfacet
facet normal -1 -0 -0
 outer loop
  vertex 0.5849999 -2.0899997 125
  vertex 0.5849999 -4.205 126.64
  vertex 0.5849999 -2.0899997 126.64
 endloop
endfacet
facet normal 5.6363735e-08 -1 0
 outer loop
  vertex 0.585 2.0899997 125
  vertex 4.8149996 2.09 125
  vertex 4.8149996 2.09 126.64
 endloop
endfacet
facet normal 5.6363735e-08 -1 0
 outer loop
  vertex 0.585 2.0899997 125
  vertex 4.8149996 2.09 126.64
  vertex 0.585 2.0899997 126.64
 endloop
endfacet
facet normal -1 0 0
 outer loop
  vertex 4.8149996 2.09 125
  vertex 4.8149996 -2.09 125
  vertex 4.8149996 -2.09 126.64
 endloop
endfacet
facet normal -1 -0 -0
 outer loop
  vertex 4.8149996 2.09 125
  vertex 4.8149996 -2.09 126.64
  vertex 4.8149996 2.09 126.64
 endloop
endfacet
facet normal 5.6363735e-08 1 0
 outer loop
  vertex 4.8149996 -2.09 125
  vertex 0.5849999 -2.0899997 125
  vertex 0.5849999 -2.0899997 126.64
 endloop
endfacet
facet normal 5.6363735e-08 1 0
 outer loop
  vertex 4.8149996 -2.09 125
  vertex 0.5849999 -2.0899997 126.64
  vertex 4.8149996 -2.09 126.64
 endloop
endfacet
facet normal -0 1 0
 outer loop
  vertex 0.5849999 -4.205 125
  vertex -3.595 -4.205 125
  vertex -3.595 -4.205 126.64
 endloop
endfacet
facet normal 0 1 0
 outer loop
  vertex 0.5849999 -4.205 125
  vertex -3.595 -4.205 126.64
  vertex 0.5849999 -4.205 126.64
 endloop
endfacet
facet normal -1 -8.454558e-08 -0
 outer loop
  vertex 0.5849998 4.205 125
  vertex 0.585 2.0899997 125
  vertex 0.585 2.0899997 126.64
 endloop
endfacet
facet normal -1 -8.454558e-08 0
 outer loop
  vertex 0.5849998 4.205 125
  vertex 0.585 2.0899997 126.64
  vertex 0.5849998 4.205 126.64
 endloop
endfacet
facet normal 0 0 -1
 outer loop
  vertex -3.05 5.282755 125
  vertex 3.0499997 5.282755 125
  vertex 0.5849998 4.205 125
 endloop
endfacet
facet normal 0 0 -1
 outer loop
  vertex -3.05 5.282755 125
  vertex 0.5849998 4.205 125
  vertex -3.5949998 4.2049994 125
 endloop
endfacet
facet normal 0 0 -1
 outer loop
  vertex 0.5849999 -4.205 125
  vertex 3.05 -5.282755 125
  vertex -3.0499997 -5.282755 125
 endloop
endfacet
facet normal 0 0 -1
 outer loop
  vertex -3.595 -4.205 125
  vertex 0.5849999 -4.205 125
  vertex -3.0499997 -5.282755 125
 endloop
endfacet
facet normal -0 0 -1
 outer loop
  vertex -6.1 0 125
  vertex -3.05 5.282755 125
  vertex -3.5949998 4.2049994 125
 endloop
endfacet
facet normal 0 0 -1
 outer loop
  vertex -3.595 -4.205 125
  vertex -3.0499997 -5.282755 125
  vertex -6.1 0 125
 endloop
endfacet
facet normal -0 0 -1
 outer loop
  vertex -6.1 0 125
  vertex -3.5949998 4.2049994 125
  vertex -3.595 -4.205 125
 endloop
endfacet
facet normal 0 0 -1
 outer loop
  vertex 3.05 -5.282755 125
  vertex 0.5849999 -4.205 125
  vertex 0.5849999 -2.0899997 125
 endloop
endfacet
facet normal -0 -0 -1
 outer loop
  vertex 3.05 -5.282755 125
  vertex 0.5849999 -2.0899997 125
  vertex 4.8149996 -2.09 125
 endloop
endfacet
facet normal 0 -0 -1
 outer loop
  vertex 0.585 2.0899997 125
  vertex 0.5849998 4.205 125
  vertex 3.0499997 5.282755 125
 endloop
endfacet
facet normal 0 -0 -1
 outer loop
  vertex 4.8149996 2.09 125
  vertex 0.585 2.0899997 125
  vertex 3.0499997 5.282755 125
 endloop
endfacet
facet normal 0 -0 -1
 outer loop
  vertex 6.1 0 125
  vertex 3.05 -5.282755 125
  vertex 4.8149996 -2.09 125
 endloop
endfacet
facet normal -0 -0 -1
 outer loop
  vertex 4.8149996 2.09 125
  vertex 3.0499997 5.282755 125
  vertex 6.1 0 125
 endloop
endfacet
facet normal 0 0 -1
 outer loop
  vertex 6.1 0 125
  vertex 4.8149996 -2.09 125
  vertex 4.8149996 2.09 125
 endloop
endfacet
facet normal 0 0 -1
 outer loop
  vertex -3.595 -4.205 126.64
  vertex -3.5949998 4.2049994 126.64
  vertex 0.5849998 4.205 126.64
 endloop
endfacet
facet normal -0 0 -1
 outer loop
  vertex 0.585 2.0899997 126.64
  vertex 4.8149996 2.09 126.64
  vertex 4.8149996 -2.09 126.64
 endloop
endfacet
facet normal -0 0 -1
 outer loop
  vertex -3.595 -4.205 126.64
  vertex 0.5849998 4.205 126.64
  vertex 0.585 2.0899997 126.64
 endloop
endfacet
facet normal 0 0 -1
 outer loop
  vertex 0.5849999 -2.0899997 126.64
  vertex 0.5849999 -4.205 126.64
  vertex -3.595 -4.205 126.64
 endloop
endfacet
facet normal 0 0 -1
 outer loop
  vertex 0.585 2.0899997 126.64
  vertex 4.8149996 -2.09 126.64
  vertex 0.5849999 -2.0899997 126.64
 endloop
endfacet
facet normal 0 0 -1
 outer loop
  vertex 0.585 2.0899997 126.64
  vertex 0.5849999 -2.0899997 126.64
  vertex -3.595 -4.205 126.64
 endloop
endfacet
endsolid 
