solid 
facet normal -1 -0 -0
 outer loop
  vertex 0.000635 -0.00209 0.125
  vertex 0.000635 -0.00209 0.12664
  vertex 0.000635 0.00209 0.12664
 endloop
endfacet
facet normal -1 -0 0
 outer loop
  vertex 0.000635 -0.00209 0.125
  vertex 0.000635 0.00209 0.12664
  vertex 0.000635 0.00209 0.125
 endloop
endfacet
facet normal 0 1 0
 outer loop
  vertex 0.000635 0.00209 0.125
  vertex 0.000635 0.00209 0.12664
  vertex 0.0048149996 0.00209 0.12664
 endloop
endfacet
facet normal 0 1 -0
 outer loop
  vertex 0.000635 0.00209 0.125
  vertex 0.0048149996 0.00209 0.12664
  vertex 0.0048149996 0.00209 0.125
 endloop
endfacet
facet normal 1 -0 0
 outer loop
  vertex 0.0048149996 0.00209 0.125
  vertex 0.0048149996 0.00209 0.12664
  vertex 0.0048149996 -0.00209 0.12664
 endloop
endfacet
facet normal 1 -0 0
 outer loop
  vertex 0.0048149996 0.00209 0.125
  vertex 0.0048149996 -0.00209 0.12664
  vertex 0.0048149996 -0.00209 0.125
 endloop
endfacet
facet normal 0 -1 0
 outer loop
  vertex 0.0048149996 -0.00209 0.125
  vertex 0.0048149996 -0.00209 0.12664
  vertex 0.000635 -0.00209 0.12664
 endloop
endfacet
facet normal 0 -1 0
 outer loop
  vertex 0.0048149996 -0.00209 0.125
  vertex 0.000635 -0.00209 0.12664
  vertex 0.000635 -0.00209 0.125
 endloop
endfacet
facet normal 0 0 -1
 outer loop
  vertex 0.000635 0.00209 0.125
  vertex 0.0048149996 0.00209 0.125
  vertex 0.0048149996 -0.00209 0.125
 endloop
endfacet
facet normal 0 0 -1
 outer loop
  vertex 0.000635 0.00209 0.125
  vertex 0.0048149996 -0.00209 0.125
  vertex 0.000635 -0.00209 0.125
 endloop
endfacet
facet normal 0 0 1
 outer loop
  vertex 0.0048149996 0.00209 0.12664
  vertex 0.000635 0.00209 0.12664
  vertex 0.000635 -0.00209 0.12664
 endloop
endfacet
facet normal 0 -0 1
 outer loop
  vertex 0.0048149996 0.00209 0.12664
  vertex 0.000635 -0.00209 0.12664
  vertex 0.0048149996 -0.00209 0.12664
 endloop
endfacet
endsolid 
