solid 
facet normal -1 0 0
 outer loop
  vertex -4.255 4.255 126.64
  vertex -4.255 4.255 125
  vertex -4.255 -4.255 125
 endloop
endfacet
facet normal -1 0 0
 outer loop
  vertex -4.255 4.255 126.64
  vertex -4.255 -4.255 125
  vertex -4.255 -4.255 126.64
 endloop
endfacet
facet normal 0 -1 0
 outer loop
  vertex 4.255 -4.255 126.64
  vertex -4.255 -4.255 126.64
  vertex -4.255 -4.255 125
 endloop
endfacet
facet normal 0 -1 0
 outer loop
  vertex 4.255 -4.255 126.64
  vertex -4.255 -4.255 125
  vertex 4.255 -4.255 125
 endloop
endfacet
facet normal 1 -0 0
 outer loop
  vertex 4.255 4.255 125
  vertex 4.255 4.255 126.64
  vertex 4.255 -4.255 126.64
 endloop
endfacet
facet normal 1 -0 0
 outer loop
  vertex 4.255 4.255 125
  vertex 4.255 -4.255 126.64
  vertex 4.255 -4.255 125
 endloop
endfacet
facet normal 0 1 0
 outer loop
  vertex 4.255 4.255 126.64
  vertex 4.255 4.255 125
  vertex -4.255 4.255 125
 endloop
endfacet
facet normal -0 1 0
 outer loop
  vertex 4.255 4.255 126.64
  vertex -4.255 4.255 125
  vertex -4.255 4.255 126.64
 endloop
endfacet
facet normal 0 0 -1
 outer loop
  vertex -4.205 4.205 125
  vertex -4.205 -4.205 125
  vertex -4.255 -4.255 125
 endloop
endfacet
facet normal 0 0 -1
 outer loop
  vertex 4.255 4.255 125
  vertex 4.255 -4.255 125
  vertex 4.205 -4.205 125
 endloop
endfacet
facet normal 0 0 -1
 outer loop
  vertex 4.255 4.255 125
  vertex 4.205 -4.205 125
  vertex 4.205 4.205 125
 endloop
endfacet
facet normal 0 0 -1
 outer loop
  vertex -4.205 4.205 125
  vertex -4.255 -4.255 125
  vertex -4.255 4.255 125
 endloop
endfacet
facet normal 0 0 -1
 outer loop
  vertex 4.255 4.255 125
  vertex 4.205 4.205 125
  vertex -4.205 4.205 125
 endloop
endfacet
facet normal -0 -0 -1
 outer loop
  vertex -4.205 4.205 125
  vertex -4.255 4.255 125
  vertex 4.255 4.255 125
 endloop
endfacet
facet normal -0 0 -1
 outer loop
  vertex -4.255 -4.255 125
  vertex -4.205 -4.205 125
  vertex 4.205 -4.205 125
 endloop
endfacet
facet normal -0 0 -1
 outer loop
  vertex -4.255 -4.255 125
  vertex 4.205 -4.205 125
  vertex 4.255 -4.255 125
 endloop
endfacet
facet normal 0 -0 -1
 outer loop
  vertex 4.255 -4.255 126.64
  vertex -4.255 -4.255 126.64
  vertex -4.205 -4.205 126.64
 endloop
endfacet
facet normal -0 -0 -1
 outer loop
  vertex 4.255 -4.255 126.64
  vertex -4.205 -4.205 126.64
  vertex 4.205 -4.205 126.64
 endloop
endfacet
facet normal 0 0 -1
 outer loop
  vertex 4.255 4.255 126.64
  vertex 4.255 -4.255 126.64
  vertex 4.205 -4.205 126.64
 endloop
endfacet
facet normal 0 0 -1
 outer loop
  vertex 4.255 4.255 126.64
  vertex 4.205 -4.205 126.64
  vertex 4.205 4.205 126.64
 endloop
endfacet
facet normal 0 0 -1
 outer loop
  vertex -4.205 -4.205 126.64
  vertex -4.255 -4.255 126.64
  vertex -4.255 4.255 126.64
 endloop
endfacet
facet normal 0 0 -1
 outer loop
  vertex 4.255 4.255 126.64
  vertex 4.205 4.205 126.64
  vertex -4.205 4.205 126.64
 endloop
endfacet
facet normal 0 0 -1
 outer loop
  vertex -4.205 4.205 126.64
  vertex -4.205 -4.205 126.64
  vertex -4.255 4.255 126.64
 endloop
endfacet
facet normal 0 0 -1
 outer loop
  vertex -4.255 4.255 126.64
  vertex 4.255 4.255 126.64
  vertex -4.205 4.205 126.64
 endloop
endfacet
facet normal 0 0 1
 outer loop
  vertex -4.255 -4.255 126.69
  vertex 4.255 -4.255 126.69
  vertex 4.255 4.255 126.69
 endloop
endfacet
facet normal -0 0 1
 outer loop
  vertex -4.255 -4.255 126.69
  vertex 4.255 4.255 126.69
  vertex -4.255 4.255 126.69
 endloop
endfacet
facet normal -1 0 0
 outer loop
  vertex -4.255 -4.255 126.69
  vertex -4.255 4.255 126.69
  vertex -4.255 4.255 126.64
 endloop
endfacet
facet normal -1 0 0
 outer loop
  vertex -4.255 -4.255 126.69
  vertex -4.255 4.255 126.64
  vertex -4.255 -4.255 126.64
 endloop
endfacet
facet normal 0 -1 0
 outer loop
  vertex 4.255 -4.255 126.69
  vertex -4.255 -4.255 126.69
  vertex -4.255 -4.255 126.64
 endloop
endfacet
facet normal 0 -1 0
 outer loop
  vertex 4.255 -4.255 126.69
  vertex -4.255 -4.255 126.64
  vertex 4.255 -4.255 126.64
 endloop
endfacet
facet normal 1 0 0
 outer loop
  vertex 4.255 4.255 126.69
  vertex 4.255 -4.255 126.69
  vertex 4.255 -4.255 126.64
 endloop
endfacet
facet normal 1 0 -0
 outer loop
  vertex 4.255 4.255 126.69
  vertex 4.255 -4.255 126.64
  vertex 4.255 4.255 126.64
 endloop
endfacet
facet normal 0 1 -0
 outer loop
  vertex -4.255 4.255 126.69
  vertex 4.255 4.255 126.69
  vertex 4.255 4.255 126.64
 endloop
endfacet
facet normal 0 1 -0
 outer loop
  vertex -4.255 4.255 126.69
  vertex 4.255 4.255 126.64
  vertex -4.255 4.255 126.64
 endloop
endfacet
facet normal 0.5 0.86602545 0
 outer loop
  vertex 0 6.687735 -125
  vertex 0 6.687735 125
  vertex 5.7917485 3.3438675 125
 endloop
endfacet
facet normal 0.5 0.86602545 -0
 outer loop
  vertex 0 6.687735 -125
  vertex 5.7917485 3.3438675 125
  vertex 5.7917485 3.3438675 -125
 endloop
endfacet
facet normal 1 -0 0
 outer loop
  vertex 5.7917485 3.3438675 -125
  vertex 5.7917485 3.3438675 125
  vertex 5.7917485 -3.3438675 125
 endloop
endfacet
facet normal 1 -0 0
 outer loop
  vertex 5.7917485 3.3438675 -125
  vertex 5.7917485 -3.3438675 125
  vertex 5.7917485 -3.3438675 -125
 endloop
endfacet
facet normal 0.5 -0.86602545 0
 outer loop
  vertex 5.7917485 -3.3438675 -125
  vertex 5.7917485 -3.3438675 125
  vertex 0 -6.687735 125
 endloop
endfacet
facet normal 0.5 -0.86602545 0
 outer loop
  vertex 5.7917485 -3.3438675 -125
  vertex 0 -6.687735 125
  vertex 0 -6.687735 -125
 endloop
endfacet
facet normal -0.5 -0.86602545 -0
 outer loop
  vertex 0 -6.687735 -125
  vertex 0 -6.687735 125
  vertex -5.7917485 -3.3438675 125
 endloop
endfacet
facet normal -0.5 -0.86602545 0
 outer loop
  vertex 0 -6.687735 -125
  vertex -5.7917485 -3.3438675 125
  vertex -5.7917485 -3.3438675 -125
 endloop
endfacet
facet normal -1 -0 -0
 outer loop
  vertex -5.7917485 -3.3438675 -125
  vertex -5.7917485 -3.3438675 125
  vertex -5.7917485 3.3438675 125
 endloop
endfacet
facet normal -1 -0 0
 outer loop
  vertex -5.7917485 -3.3438675 -125
  vertex -5.7917485 3.3438675 125
  vertex -5.7917485 3.3438675 -125
 endloop
endfacet
facet normal -0.5 0.86602545 0
 outer loop
  vertex -5.7917485 3.3438675 -125
  vertex -5.7917485 3.3438675 125
  vertex 0 6.687735 125
 endloop
endfacet
facet normal -0.5 0.86602545 0
 outer loop
  vertex -5.7917485 3.3438675 -125
  vertex 0 6.687735 125
  vertex 0 6.687735 -125
 endloop
endfacet
facet normal -0 0 -1
 outer loop
  vertex -5.7417483 3.315 -125
  vertex 0 6.63 -125
  vertex 5.7417483 3.315 -125
 endloop
endfacet
facet normal 0 0 -1
 outer loop
  vertex 5.7417483 3.315 -125
  vertex 5.7417483 -3.315 -125
  vertex 0 -6.63 -125
 endloop
endfacet
facet normal 0 0 -1
 outer loop
  vertex 0 -6.63 -125
  vertex -5.7417483 -3.315 -125
  vertex -5.7417483 3.315 -125
 endloop
endfacet
facet normal 0 0 -1
 outer loop
  vertex 5.7417483 3.315 -125
  vertex 0 -6.63 -125
  vertex -5.7417483 3.315 -125
 endloop
endfacet
facet normal -0 0 1
 outer loop
  vertex 5.7917485 3.3438675 125
  vertex 0 6.687735 125
  vertex 0 6.63 125
 endloop
endfacet
facet normal -0 -0 1
 outer loop
  vertex 5.7917485 3.3438675 125
  vertex 0 6.63 125
  vertex 5.7417483 3.315 125
 endloop
endfacet
facet normal 0 -0 1
 outer loop
  vertex 0 -6.63 125
  vertex 0 -6.687735 125
  vertex 5.7917485 -3.3438675 125
 endloop
endfacet
facet normal 0 0 1
 outer loop
  vertex 5.7917485 3.3438675 125
  vertex 5.7417483 3.315 125
  vertex 5.7417483 -3.315 125
 endloop
endfacet
facet normal 0 -0 1
 outer loop
  vertex 5.7417483 -3.315 125
  vertex 0 -6.63 125
  vertex 5.7917485 -3.3438675 125
 endloop
endfacet
facet normal -0 0 1
 outer loop
  vertex 5.7917485 -3.3438675 125
  vertex 5.7917485 3.3438675 125
  vertex 5.7417483 -3.315 125
 endloop
endfacet
facet normal 0 0 -1
 outer loop
  vertex 5.7917485 -3.3438675 -125
  vertex 0 -6.687735 -125
  vertex 0 -6.63 -125
 endloop
endfacet
facet normal 0 -0 -1
 outer loop
  vertex 5.7917485 -3.3438675 -125
  vertex 0 -6.63 -125
  vertex 5.7417483 -3.315 -125
 endloop
endfacet
facet normal -0 0 1
 outer loop
  vertex 0 6.63 125
  vertex 0 6.687735 125
  vertex -5.7917485 3.3438675 125
 endloop
endfacet
facet normal 0 0 1
 outer loop
  vertex -5.7917485 -3.3438675 125
  vertex 0 -6.687735 125
  vertex 0 -6.63 125
 endloop
endfacet
facet normal 0 0 1
 outer loop
  vertex -5.7917485 -3.3438675 125
  vertex 0 -6.63 125
  vertex -5.7417483 -3.315 125
 endloop
endfacet
facet normal -0 0 1
 outer loop
  vertex -5.7417483 3.315 125
  vertex 0 6.63 125
  vertex -5.7917485 3.3438675 125
 endloop
endfacet
facet normal 0 0 1
 outer loop
  vertex -5.7917485 -3.3438675 125
  vertex -5.7417483 -3.315 125
  vertex -5.7417483 3.315 125
 endloop
endfacet
facet normal 0 -0 1
 outer loop
  vertex -5.7917485 3.3438675 125
  vertex -5.7917485 -3.3438675 125
  vertex -5.7417483 3.315 125
 endloop
endfacet
facet normal 0 0 -1
 outer loop
  vertex 5.7917485 3.3438675 -125
  vertex 5.7917485 -3.3438675 -125
  vertex 5.7417483 -3.315 -125
 endloop
endfacet
facet normal 0 0 -1
 outer loop
  vertex 5.7917485 3.3438675 -125
  vertex 5.7417483 -3.315 -125
  vertex 5.7417483 3.315 -125
 endloop
endfacet
facet normal 0 0 -1
 outer loop
  vertex 0 -6.63 -125
  vertex 0 -6.687735 -125
  vertex -5.7917485 -3.3438675 -125
 endloop
endfacet
facet normal 0 0 -1
 outer loop
  vertex -5.7417483 -3.315 -125
  vertex 0 -6.63 -125
  vertex -5.7917485 -3.3438675 -125
 endloop
endfacet
facet normal 0 0 -1
 outer loop
  vertex 0 6.687735 -125
  vertex 5.7917485 3.3438675 -125
  vertex 5.7417483 3.315 -125
 endloop
endfacet
facet normal 0 0 -1
 outer loop
  vertex 0 6.687735 -125
  vertex 5.7417483 3.315 -125
  vertex 0 6.63 -125
 endloop
endfacet
facet normal 0 0 -1
 outer loop
  vertex -5.7417483 -3.315 -125
  vertex -5.7917485 -3.3438675 -125
  vertex -5.7917485 3.3438675 -125
 endloop
endfacet
facet normal 0 0 -1
 outer loop
  vertex 0 6.687735 -125
  vertex 0 6.63 -125
  vertex -5.7417483 3.315 -125
 endloop
endfacet
facet normal 0 0 -1
 outer loop
  vertex -5.7417483 3.315 -125
  vertex -5.7417483 -3.315 -125
  vertex -5.7917485 3.3438675 -125
 endloop
endfacet
facet normal 0 -0 -1
 outer loop
  vertex -5.7417483 3.315 -125
  vertex -5.7917485 3.3438675 -125
  vertex 0 6.687735 -125
 endloop
endfacet
facet normal -0 0 -1
 outer loop
  vertex -5.7917485 3.3438675 -125.05
  vertex 2.6262747e-08 6.687735 -125.05
  vertex 5.7917485 3.3438675 -125.05
 endloop
endfacet
facet normal 0 0 -1
 outer loop
  vertex 5.7917485 3.3438675 -125.05
  vertex 5.7917485 -3.3438675 -125.05
  vertex 2.6262747e-08 -6.687735 -125.05
 endloop
endfacet
facet normal 0 0 -1
 outer loop
  vertex 2.6262747e-08 -6.687735 -125.05
  vertex -5.7917485 -3.3438675 -125.05
  vertex -5.7917485 3.3438675 -125.05
 endloop
endfacet
facet normal 0 0 -1
 outer loop
  vertex 5.7917485 3.3438675 -125.05
  vertex 2.6262747e-08 -6.687735 -125.05
  vertex -5.7917485 3.3438675 -125.05
 endloop
endfacet
facet normal -0.49999997 -0.8660254 -0
 outer loop
  vertex 2.6262747e-08 6.687735 -125.05
  vertex 5.7917485 3.3438675 -125.05
  vertex 5.7917485 3.3438675 -125
 endloop
endfacet
facet normal -0.49999997 -0.8660254 0
 outer loop
  vertex 2.6262747e-08 6.687735 -125.05
  vertex 5.7917485 3.3438675 -125
  vertex 0 6.687735 -125
 endloop
endfacet
facet normal -1 0 0
 outer loop
  vertex 5.7917485 3.3438675 -125.05
  vertex 5.7917485 -3.3438675 -125.05
  vertex 5.7917485 -3.3438675 -125
 endloop
endfacet
facet normal -1 -0 -0
 outer loop
  vertex 5.7917485 3.3438675 -125.05
  vertex 5.7917485 -3.3438675 -125
  vertex 5.7917485 3.3438675 -125
 endloop
endfacet
facet normal -0.49999997 0.8660254 -2.6261142e-07
 outer loop
  vertex 5.7917485 -3.3438675 -125.05
  vertex 2.6262747e-08 -6.687735 -125.05
  vertex 0 -6.687735 -125
 endloop
endfacet
facet normal -0.49999997 0.8660254 0
 outer loop
  vertex 5.7917485 -3.3438675 -125.05
  vertex 0 -6.687735 -125
  vertex 5.7917485 -3.3438675 -125
 endloop
endfacet
facet normal 0.49999997 0.8660254 0
 outer loop
  vertex 2.6262747e-08 -6.687735 -125.05
  vertex -5.7917485 -3.3438675 -125.05
  vertex -5.7917485 -3.3438675 -125
 endloop
endfacet
facet normal 0.49999997 0.8660254 0
 outer loop
  vertex 2.6262747e-08 -6.687735 -125.05
  vertex -5.7917485 -3.3438675 -125
  vertex 0 -6.687735 -125
 endloop
endfacet
facet normal 1 0 0
 outer loop
  vertex -5.7917485 -3.3438675 -125.05
  vertex -5.7917485 3.3438675 -125.05
  vertex -5.7917485 3.3438675 -125
 endloop
endfacet
facet normal 1 -0 0
 outer loop
  vertex -5.7917485 -3.3438675 -125.05
  vertex -5.7917485 3.3438675 -125
  vertex -5.7917485 -3.3438675 -125
 endloop
endfacet
facet normal 0.49999997 -0.8660254 2.6261142e-07
 outer loop
  vertex -5.7917485 3.3438675 -125.05
  vertex 2.6262747e-08 6.687735 -125.05
  vertex 0 6.687735 -125
 endloop
endfacet
facet normal 0.49999997 -0.8660254 0
 outer loop
  vertex -5.7917485 3.3438675 -125.05
  vertex 0 6.687735 -125
  vertex -5.7917485 3.3438675 -125
 endloop
endfacet
facet normal 1 0 0
 outer loop
  vertex -5.7417483 3.315 125
  vertex -5.7417483 -3.315 125
  vertex -5.7417483 -3.315 -125
 endloop
endfacet
facet normal 1 0 -0
 outer loop
  vertex -5.7417483 3.315 125
  vertex -5.7417483 -3.315 -125
  vertex -5.7417483 3.315 -125
 endloop
endfacet
facet normal 0.5 -0.86602545 0
 outer loop
  vertex -5.7417483 3.315 125
  vertex -5.7417483 3.315 -125
  vertex 0 6.63 -125
 endloop
endfacet
facet normal 0.5 -0.86602545 0
 outer loop
  vertex -5.7417483 3.315 125
  vertex 0 6.63 -125
  vertex 0 6.63 125
 endloop
endfacet
facet normal -0.5 -0.86602545 0
 outer loop
  vertex 0 6.63 125
  vertex 0 6.63 -125
  vertex 5.7417483 3.315 -125
 endloop
endfacet
facet normal -0.5 -0.86602545 -0
 outer loop
  vertex 0 6.63 125
  vertex 5.7417483 3.315 -125
  vertex 5.7417483 3.315 125
 endloop
endfacet
facet normal -1 0 0
 outer loop
  vertex 5.7417483 3.315 125
  vertex 5.7417483 3.315 -125
  vertex 5.7417483 -3.315 -125
 endloop
endfacet
facet normal -1 0 0
 outer loop
  vertex 5.7417483 3.315 125
  vertex 5.7417483 -3.315 -125
  vertex 5.7417483 -3.315 125
 endloop
endfacet
facet normal -0.5 0.86602545 0
 outer loop
  vertex 5.7417483 -3.315 125
  vertex 5.7417483 -3.315 -125
  vertex 0 -6.63 -125
 endloop
endfacet
facet normal -0.5 0.86602545 0
 outer loop
  vertex 5.7417483 -3.315 125
  vertex 0 -6.63 -125
  vertex 0 -6.63 125
 endloop
endfacet
facet normal 0.5 0.86602545 -0
 outer loop
  vertex 0 -6.63 125
  vertex 0 -6.63 -125
  vertex -5.7417483 -3.315 -125
 endloop
endfacet
facet normal 0.5 0.86602545 0
 outer loop
  vertex 0 -6.63 125
  vertex -5.7417483 -3.315 -125
  vertex -5.7417483 -3.315 125
 endloop
endfacet
facet normal 0 -0 1
 outer loop
  vertex 4.255 -4.255 125.05
  vertex -4.255 -4.255 125.05
  vertex 0 -6.687735 125.05
 endloop
endfacet
facet normal 0 -0 1
 outer loop
  vertex 4.255 4.255 125.05
  vertex 4.255 -4.255 125.05
  vertex 5.7917485 -3.3438675 125.05
 endloop
endfacet
facet normal 0 0 1
 outer loop
  vertex 4.255 4.255 125.05
  vertex 5.7917485 -3.3438675 125.05
  vertex 5.7917485 3.3438675 125.05
 endloop
endfacet
facet normal 0 0 1
 outer loop
  vertex -4.255 4.255 125.05
  vertex 4.255 4.255 125.05
  vertex 0 6.687735 125.05
 endloop
endfacet
facet normal 0 0 1
 outer loop
  vertex -4.255 4.255 125.05
  vertex -5.7917485 3.3438675 125.05
  vertex -5.7917485 -3.3438675 125.05
 endloop
endfacet
facet normal 0 -0 1
 outer loop
  vertex -4.255 4.255 125.05
  vertex -5.7917485 -3.3438675 125.05
  vertex -4.255 -4.255 125.05
 endloop
endfacet
facet normal 0 1 -0
 outer loop
  vertex -4.255 -4.255 125.05
  vertex 4.255 -4.255 125.05
  vertex 4.255 -4.255 125
 endloop
endfacet
facet normal 0 1 -0
 outer loop
  vertex -4.255 -4.255 125.05
  vertex 4.255 -4.255 125
  vertex -4.255 -4.255 125
 endloop
endfacet
facet normal -1 0 0
 outer loop
  vertex 4.255 -4.255 125.05
  vertex 4.255 4.255 125.05
  vertex 4.255 4.255 125
 endloop
endfacet
facet normal -1 0 0
 outer loop
  vertex 4.255 -4.255 125.05
  vertex 4.255 4.255 125
  vertex 4.255 -4.255 125
 endloop
endfacet
facet normal 0 -1 0
 outer loop
  vertex 4.255 4.255 125.05
  vertex -4.255 4.255 125.05
  vertex -4.255 4.255 125
 endloop
endfacet
facet normal 0 -1 0
 outer loop
  vertex 4.255 4.255 125.05
  vertex -4.255 4.255 125
  vertex 4.255 4.255 125
 endloop
endfacet
facet normal 1 0 0
 outer loop
  vertex 5.7917485 3.3438675 125.05
  vertex 5.7917485 -3.3438675 125.05
  vertex 5.7917485 -3.3438675 125
 endloop
endfacet
facet normal 1 0 -0
 outer loop
  vertex 5.7917485 3.3438675 125.05
  vertex 5.7917485 -3.3438675 125
  vertex 5.7917485 3.3438675 125
 endloop
endfacet
facet normal -0.49633983 -0.86812836 0
 outer loop
  vertex 0 -6.687735 125.05
  vertex -4.255 -4.255 125.05
  vertex -4.255 -4.255 125
 endloop
endfacet
facet normal -0.49633983 -0.86812836 0
 outer loop
  vertex 0 -6.687735 125.05
  vertex -4.255 -4.255 125
  vertex 0 -6.687735 125
 endloop
endfacet
facet normal 0.49633983 -0.86812836 0
 outer loop
  vertex 4.255 -4.255 125.05
  vertex 0 -6.687735 125.05
  vertex 0 -6.687735 125
 endloop
endfacet
facet normal 0.49633983 -0.86812836 0
 outer loop
  vertex 4.255 -4.255 125.05
  vertex 0 -6.687735 125
  vertex 4.255 -4.255 125
 endloop
endfacet
facet normal 0.5099958 -0.8601769 0
 outer loop
  vertex 5.7917485 -3.3438675 125.05
  vertex 4.255 -4.255 125.05
  vertex 4.255 -4.255 125
 endloop
endfacet
facet normal 0.5099958 -0.8601769 0
 outer loop
  vertex 5.7917485 -3.3438675 125.05
  vertex 4.255 -4.255 125
  vertex 5.7917485 -3.3438675 125
 endloop
endfacet
facet normal 0.5099958 0.8601769 -0
 outer loop
  vertex 4.255 4.255 125.05
  vertex 5.7917485 3.3438675 125.05
  vertex 5.7917485 3.3438675 125
 endloop
endfacet
facet normal 0.5099958 0.8601769 0
 outer loop
  vertex 4.255 4.255 125.05
  vertex 5.7917485 3.3438675 125
  vertex 4.255 4.255 125
 endloop
endfacet
facet normal 0.49633983 0.86812836 -0
 outer loop
  vertex 0 6.687735 125.05
  vertex 4.255 4.255 125.05
  vertex 4.255 4.255 125
 endloop
endfacet
facet normal 0.49633983 0.86812836 0
 outer loop
  vertex 0 6.687735 125.05
  vertex 4.255 4.255 125
  vertex 0 6.687735 125
 endloop
endfacet
facet normal -0.49633983 0.86812836 0
 outer loop
  vertex -4.255 4.255 125.05
  vertex 0 6.687735 125.05
  vertex 0 6.687735 125
 endloop
endfacet
facet normal -0.49633983 0.86812836 0
 outer loop
  vertex -4.255 4.255 125.05
  vertex 0 6.687735 125
  vertex -4.255 4.255 125
 endloop
endfacet
facet normal 1 0 -0
 outer loop
  vertex -4.255 -4.255 125.05
  vertex -4.255 -4.255 125
  vertex -4.255 4.255 125
 endloop
endfacet
facet normal 1 0 0
 outer loop
  vertex -4.255 -4.255 125.05
  vertex -4.255 4.255 125
  vertex -4.255 4.255 125.05
 endloop
endfacet
facet normal -1 0 0
 outer loop
  vertex -5.7917485 3.3438675 125.05
  vertex -5.7917485 3.3438675 125
  vertex -5.7917485 -3.3438675 125
 endloop
endfacet
facet normal -1 0 0
 outer loop
  vertex -5.7917485 3.3438675 125.05
  vertex -5.7917485 -3.3438675 125
  vertex -5.7917485 -3.3438675 125.05
 endloop
endfacet
facet normal -0.5099958 0.8601769 0
 outer loop
  vertex -4.255 4.255 125.05
  vertex -4.255 4.255 125
  vertex -5.7917485 3.3438675 125
 endloop
endfacet
facet normal -0.5099958 0.8601769 0
 outer loop
  vertex -4.255 4.255 125.05
  vertex -5.7917485 3.3438675 125
  vertex -5.7917485 3.3438675 125.05
 endloop
endfacet
facet normal -0.5099958 -0.8601769 0
 outer loop
  vertex -5.7917485 -3.3438675 125.05
  vertex -5.7917485 -3.3438675 125
  vertex -4.255 -4.255 125
 endloop
endfacet
facet normal -0.5099958 -0.8601769 -0
 outer loop
  vertex -5.7917485 -3.3438675 125.05
  vertex -4.255 -4.255 125
  vertex -4.255 -4.255 125.05
 endloop
endfacet
facet normal -0 -1 -0
 outer loop
  vertex -4.205 4.205 125
  vertex 4.205 4.205 125
  vertex 4.205 4.205 126.64
 endloop
endfacet
facet normal 0 -1 -0
 outer loop
  vertex -4.205 4.205 125
  vertex 4.205 4.205 126.64
  vertex -4.205 4.205 126.64
 endloop
endfacet
facet normal 1 -0 0
 outer loop
  vertex -4.205 4.205 125
  vertex -4.205 4.205 126.64
  vertex -4.205 -4.205 126.64
 endloop
endfacet
facet normal 1 -0 0
 outer loop
  vertex -4.205 4.205 125
  vertex -4.205 -4.205 126.64
  vertex -4.205 -4.205 125
 endloop
endfacet
facet normal 0 1 0
 outer loop
  vertex -4.205 -4.205 125
  vertex -4.205 -4.205 126.64
  vertex 4.205 -4.205 126.64
 endloop
endfacet
facet normal 0 1 -0
 outer loop
  vertex -4.205 -4.205 125
  vertex 4.205 -4.205 126.64
  vertex 4.205 -4.205 125
 endloop
endfacet
facet normal -1 -0 -0
 outer loop
  vertex 4.205 -4.205 125
  vertex 4.205 -4.205 126.64
  vertex 4.205 4.205 126.64
 endloop
endfacet
facet normal -1 -0 0
 outer loop
  vertex 4.205 -4.205 125
  vertex 4.205 4.205 126.64
  vertex 4.205 4.205 125
 endloop
endfacet
facet normal 0 0 -1
 outer loop
  vertex 4.205 -4.205 126.64
  vertex -4.205 -4.205 126.64
  vertex -4.205 4.205 126.64
 endloop
endfacet
facet normal -0 -0 -1
 outer loop
  vertex 4.205 -4.205 126.64
  vertex -4.205 4.205 126.64
  vertex 4.205 4.205 126.64
 endloop
endfacet
facet normal 0 0 -1
 outer loop
  vertex -4.255 -4.255 125
  vertex 4.255 -4.255 125
  vertex 0 -6.63 125
 endloop
endfacet
facet normal 0 0 -1
 outer loop
  vertex -4.255 4.255 125
  vertex -4.255 -4.255 125
  vertex -5.7417483 -3.315 125
 endloop
endfacet
facet normal 0 0 -1
 outer loop
  vertex -4.255 4.255 125
  vertex -5.7417483 -3.315 125
  vertex -5.7417483 3.315 125
 endloop
endfacet
facet normal -0 -0 -1
 outer loop
  vertex 4.255 -4.255 125
  vertex 4.255 4.255 125
  vertex 5.7417483 3.315 125
 endloop
endfacet
facet normal -0 0 -1
 outer loop
  vertex 4.255 -4.255 125
  vertex 5.7417483 3.315 125
  vertex 5.7417483 -3.315 125
 endloop
endfacet
facet normal 0 -0 -1
 outer loop
  vertex 4.255 4.255 125
  vertex -4.255 4.255 125
  vertex 0 6.63 125
 endloop
endfacet
facet normal -0 -0 -1
 outer loop
  vertex -4.255 -4.255 125
  vertex -5.7917485 -3.3438675 125
  vertex 0 -6.687735 125
 endloop
endfacet
facet normal -0 0 -1
 outer loop
  vertex -4.255 4.255 125
  vertex 0 6.687735 125
  vertex -5.7917485 3.3438675 125
 endloop
endfacet
facet normal 0 0 -1
 outer loop
  vertex 4.255 4.255 125
  vertex 5.7917485 3.3438675 125
  vertex 0 6.687735 125
 endloop
endfacet
facet normal 0 -0 -1
 outer loop
  vertex 4.255 -4.255 125
  vertex 0 -6.687735 125
  vertex 5.7917485 -3.3438675 125
 endloop
endfacet
endsolid 
