solid ASCII
  facet normal -0.000000e+00 1.000000e+00 0.000000e+00
    outer loop
      vertex   -6.250000e+00 -6.250000e+00 2.600000e+01
      vertex   6.250000e+00 -6.250000e+00 2.600000e+01
      vertex   -6.250000e+00 -6.250000e+00 2.500000e+01
    endloop
  endfacet
  facet normal 0.000000e+00 1.000000e+00 0.000000e+00
    outer loop
      vertex   -6.250000e+00 -6.250000e+00 2.500000e+01
      vertex   6.250000e+00 -6.250000e+00 2.600000e+01
      vertex   6.250000e+00 -6.250000e+00 2.500000e+01
    endloop
  endfacet
  facet normal 1.000000e+00 0.000000e+00 0.000000e+00
    outer loop
      vertex   -6.250000e+00 6.250000e+00 2.600000e+01
      vertex   -6.250000e+00 -6.250000e+00 2.600000e+01
      vertex   -6.250000e+00 6.250000e+00 2.500000e+01
    endloop
  endfacet
  facet normal 1.000000e+00 0.000000e+00 0.000000e+00
    outer loop
      vertex   -6.250000e+00 6.250000e+00 2.500000e+01
      vertex   -6.250000e+00 -6.250000e+00 2.600000e+01
      vertex   -6.250000e+00 -6.250000e+00 2.500000e+01
    endloop
  endfacet
  facet normal -0.000000e+00 -1.000000e+00 -0.000000e+00
    outer loop
      vertex   6.250000e+00 6.250000e+00 2.600000e+01
      vertex   -6.250000e+00 6.250000e+00 2.600000e+01
      vertex   6.250000e+00 6.250000e+00 2.500000e+01
    endloop
  endfacet
  facet normal 0.000000e+00 -1.000000e+00 0.000000e+00
    outer loop
      vertex   6.250000e+00 6.250000e+00 2.500000e+01
      vertex   -6.250000e+00 6.250000e+00 2.600000e+01
      vertex   -6.250000e+00 6.250000e+00 2.500000e+01
    endloop
  endfacet
  facet normal -1.000000e+00 0.000000e+00 0.000000e+00
    outer loop
      vertex   6.250000e+00 -6.250000e+00 2.600000e+01
      vertex   6.250000e+00 6.250000e+00 2.600000e+01
      vertex   6.250000e+00 -6.250000e+00 2.500000e+01
    endloop
  endfacet
  facet normal -1.000000e+00 0.000000e+00 0.000000e+00
    outer loop
      vertex   6.250000e+00 -6.250000e+00 2.500000e+01
      vertex   6.250000e+00 6.250000e+00 2.600000e+01
      vertex   6.250000e+00 6.250000e+00 2.500000e+01
    endloop
  endfacet
  facet normal -1.000000e+00 2.220446e-16 0.000000e+00
    outer loop
      vertex   -1.200000e+01 1.200000e+01 2.500000e+01
      vertex   -1.200000e+01 -1.200000e+01 2.500000e+01
      vertex   -1.200000e+01 1.200000e+01 2.600000e+01
    endloop
  endfacet
  facet normal -1.000000e+00 2.220446e-16 -2.629536e-31
    outer loop
      vertex   -1.200000e+01 1.200000e+01 2.600000e+01
      vertex   -1.200000e+01 -1.200000e+01 2.500000e+01
      vertex   -1.200000e+01 -1.200000e+01 2.600000e+01
    endloop
  endfacet
  facet normal 1.480297e-16 1.000000e+00 -0.000000e+00
    outer loop
      vertex   1.200000e+01 1.200000e+01 2.500000e+01
      vertex   -1.200000e+01 1.200000e+01 2.500000e+01
      vertex   1.200000e+01 1.200000e+01 2.600000e+01
    endloop
  endfacet
  facet normal 1.480297e-16 1.000000e+00 0.000000e+00
    outer loop
      vertex   1.200000e+01 1.200000e+01 2.600000e+01
      vertex   -1.200000e+01 1.200000e+01 2.500000e+01
      vertex   -1.200000e+01 1.200000e+01 2.600000e+01
    endloop
  endfacet
  facet normal 1.000000e+00 0.000000e+00 0.000000e+00
    outer loop
      vertex   1.200000e+01 -1.200000e+01 2.500000e+01
      vertex   1.200000e+01 1.200000e+01 2.500000e+01
      vertex   1.200000e+01 -1.200000e+01 2.600000e+01
    endloop
  endfacet
  facet normal 1.000000e+00 -0.000000e+00 0.000000e+00
    outer loop
      vertex   1.200000e+01 -1.200000e+01 2.600000e+01
      vertex   1.200000e+01 1.200000e+01 2.500000e+01
      vertex   1.200000e+01 1.200000e+01 2.600000e+01
    endloop
  endfacet
  facet normal 0.000000e+00 -1.000000e+00 0.000000e+00
    outer loop
      vertex   -1.200000e+01 -1.200000e+01 2.500000e+01
      vertex   1.200000e+01 -1.200000e+01 2.500000e+01
      vertex   -1.200000e+01 -1.200000e+01 2.600000e+01
    endloop
  endfacet
  facet normal 0.000000e+00 -1.000000e+00 0.000000e+00
    outer loop
      vertex   -1.200000e+01 -1.200000e+01 2.600000e+01
      vertex   1.200000e+01 -1.200000e+01 2.500000e+01
      vertex   1.200000e+01 -1.200000e+01 2.600000e+01
    endloop
  endfacet
  facet normal 0.000000e+00 0.000000e+00 1.000000e+00
    outer loop
      vertex   6.250000e+00 6.250000e+00 2.600000e+01
      vertex   -1.200000e+01 1.200000e+01 2.600000e+01
      vertex   -6.250000e+00 6.250000e+00 2.600000e+01
    endloop
  endfacet
  facet normal 0.000000e+00 0.000000e+00 1.000000e+00
    outer loop
      vertex   -6.250000e+00 6.250000e+00 2.600000e+01
      vertex   -1.200000e+01 1.200000e+01 2.600000e+01
      vertex   -1.200000e+01 -1.200000e+01 2.600000e+01
    endloop
  endfacet
  facet normal 0.000000e+00 0.000000e+00 1.000000e+00
    outer loop
      vertex   -6.250000e+00 6.250000e+00 2.600000e+01
      vertex   -1.200000e+01 -1.200000e+01 2.600000e+01
      vertex   -6.250000e+00 -6.250000e+00 2.600000e+01
    endloop
  endfacet
  facet normal 0.000000e+00 0.000000e+00 1.000000e+00
    outer loop
      vertex   -6.250000e+00 -6.250000e+00 2.600000e+01
      vertex   -1.200000e+01 -1.200000e+01 2.600000e+01
      vertex   1.200000e+01 -1.200000e+01 2.600000e+01
    endloop
  endfacet
  facet normal -0.000000e+00 0.000000e+00 1.000000e+00
    outer loop
      vertex   -6.250000e+00 -6.250000e+00 2.600000e+01
      vertex   1.200000e+01 -1.200000e+01 2.600000e+01
      vertex   6.250000e+00 -6.250000e+00 2.600000e+01
    endloop
  endfacet
  facet normal -0.000000e+00 0.000000e+00 1.000000e+00
    outer loop
      vertex   6.250000e+00 -6.250000e+00 2.600000e+01
      vertex   1.200000e+01 -1.200000e+01 2.600000e+01
      vertex   6.250000e+00 6.250000e+00 2.600000e+01
    endloop
  endfacet
  facet normal -0.000000e+00 0.000000e+00 1.000000e+00
    outer loop
      vertex   6.250000e+00 6.250000e+00 2.600000e+01
      vertex   1.200000e+01 -1.200000e+01 2.600000e+01
      vertex   1.200000e+01 1.200000e+01 2.600000e+01
    endloop
  endfacet
  facet normal 0.000000e+00 -0.000000e+00 1.000000e+00
    outer loop
      vertex   6.250000e+00 6.250000e+00 2.600000e+01
      vertex   1.200000e+01 1.200000e+01 2.600000e+01
      vertex   -1.200000e+01 1.200000e+01 2.600000e+01
    endloop
  endfacet
  facet normal 0.000000e+00 0.000000e+00 -1.000000e+00
    outer loop
      vertex   6.250000e+00 -6.250000e+00 2.500000e+01
      vertex   6.250000e+00 6.250000e+00 2.500000e+01
      vertex   1.200000e+01 1.200000e+01 2.500000e+01
    endloop
  endfacet
  facet normal 0.000000e+00 0.000000e+00 -1.000000e+00
    outer loop
      vertex   1.200000e+01 1.200000e+01 2.500000e+01
      vertex   6.250000e+00 6.250000e+00 2.500000e+01
      vertex   -6.250000e+00 6.250000e+00 2.500000e+01
    endloop
  endfacet
  facet normal -0.000000e+00 0.000000e+00 -1.000000e+00
    outer loop
      vertex   1.200000e+01 1.200000e+01 2.500000e+01
      vertex   -6.250000e+00 6.250000e+00 2.500000e+01
      vertex   -1.200000e+01 1.200000e+01 2.500000e+01
    endloop
  endfacet
  facet normal 0.000000e+00 0.000000e+00 -1.000000e+00
    outer loop
      vertex   -1.200000e+01 1.200000e+01 2.500000e+01
      vertex   -6.250000e+00 6.250000e+00 2.500000e+01
      vertex   -6.250000e+00 -6.250000e+00 2.500000e+01
    endloop
  endfacet
  facet normal 0.000000e+00 -0.000000e+00 -1.000000e+00
    outer loop
      vertex   -1.200000e+01 1.200000e+01 2.500000e+01
      vertex   -6.250000e+00 -6.250000e+00 2.500000e+01
      vertex   -1.200000e+01 -1.200000e+01 2.500000e+01
    endloop
  endfacet
  facet normal 0.000000e+00 0.000000e+00 -1.000000e+00
    outer loop
      vertex   -1.200000e+01 -1.200000e+01 2.500000e+01
      vertex   -6.250000e+00 -6.250000e+00 2.500000e+01
      vertex   6.250000e+00 -6.250000e+00 2.500000e+01
    endloop
  endfacet
  facet normal 0.000000e+00 0.000000e+00 -1.000000e+00
    outer loop
      vertex   -1.200000e+01 -1.200000e+01 2.500000e+01
      vertex   6.250000e+00 -6.250000e+00 2.500000e+01
      vertex   1.200000e+01 -1.200000e+01 2.500000e+01
    endloop
  endfacet
  facet normal 0.000000e+00 0.000000e+00 -1.000000e+00
    outer loop
      vertex   1.200000e+01 -1.200000e+01 2.500000e+01
      vertex   6.250000e+00 -6.250000e+00 2.500000e+01
      vertex   1.200000e+01 1.200000e+01 2.500000e+01
    endloop
  endfacet
endsolid
