solid ASCII
  facet normal 0.000000e+00 0.000000e+00 1.000000e+00
    outer loop
      vertex   5.303227e+00 5.625000e+00 2.500000e+00
      vertex   -5.303227e+00 5.625000e+00 2.500000e+00
      vertex   5.303227e+00 -5.625000e+00 2.500000e+00
    endloop
  endfacet
  facet normal 0.000000e+00 0.000000e+00 1.000000e+00
    outer loop
      vertex   5.303227e+00 -5.625000e+00 2.500000e+00
      vertex   -5.303227e+00 5.625000e+00 2.500000e+00
      vertex   -5.303227e+00 -5.625000e+00 2.500000e+00
    endloop
  endfacet
  facet normal 0.000000e+00 1.000000e+00 -0.000000e+00
    outer loop
      vertex   5.303227e+00 -5.625000e+00 2.500000e+00
      vertex   -5.303227e+00 -5.625000e+00 2.500000e+00
      vertex   5.303227e+00 -5.625000e+00 4.625000e+01
    endloop
  endfacet
  facet normal 0.000000e+00 1.000000e+00 0.000000e+00
    outer loop
      vertex   5.303227e+00 -5.625000e+00 4.625000e+01
      vertex   -5.303227e+00 -5.625000e+00 2.500000e+00
      vertex   -5.303227e+00 -5.625000e+00 4.625000e+01
    endloop
  endfacet
  facet normal 1.000000e+00 0.000000e+00 0.000000e+00
    outer loop
      vertex   -5.303227e+00 -5.625000e+00 2.500000e+00
      vertex   -5.303227e+00 5.625000e+00 2.500000e+00
      vertex   -5.303227e+00 -5.625000e+00 4.625000e+01
    endloop
  endfacet
  facet normal 1.000000e+00 -0.000000e+00 0.000000e+00
    outer loop
      vertex   -5.303227e+00 -5.625000e+00 4.625000e+01
      vertex   -5.303227e+00 5.625000e+00 2.500000e+00
      vertex   -5.303227e+00 5.625000e+00 4.625000e+01
    endloop
  endfacet
  facet normal -1.000000e+00 0.000000e+00 0.000000e+00
    outer loop
      vertex   5.303227e+00 5.625000e+00 2.500000e+00
      vertex   5.303227e+00 -5.625000e+00 2.500000e+00
      vertex   5.303227e+00 5.625000e+00 4.625000e+01
    endloop
  endfacet
  facet normal -1.000000e+00 -0.000000e+00 0.000000e+00
    outer loop
      vertex   5.303227e+00 5.625000e+00 4.625000e+01
      vertex   5.303227e+00 -5.625000e+00 2.500000e+00
      vertex   5.303227e+00 -5.625000e+00 4.625000e+01
    endloop
  endfacet
  facet normal 0.000000e+00 -1.000000e+00 0.000000e+00
    outer loop
      vertex   -5.303227e+00 5.625000e+00 2.500000e+00
      vertex   5.303227e+00 5.625000e+00 2.500000e+00
      vertex   -5.303227e+00 5.625000e+00 4.625000e+01
    endloop
  endfacet
  facet normal 0.000000e+00 -1.000000e+00 0.000000e+00
    outer loop
      vertex   -5.303227e+00 5.625000e+00 4.625000e+01
      vertex   5.303227e+00 5.625000e+00 2.500000e+00
      vertex   5.303227e+00 5.625000e+00 4.625000e+01
    endloop
  endfacet
  facet normal 0.000000e+00 -1.000000e+00 0.000000e+00
    outer loop
      vertex   -6.250000e+00 -6.250000e+00 1.250000e+00
      vertex   6.250000e+00 -6.250000e+00 1.250000e+00
      vertex   -6.250000e+00 -6.250000e+00 4.625000e+01
    endloop
  endfacet
  facet normal 0.000000e+00 -1.000000e+00 0.000000e+00
    outer loop
      vertex   -6.250000e+00 -6.250000e+00 4.625000e+01
      vertex   6.250000e+00 -6.250000e+00 1.250000e+00
      vertex   6.250000e+00 -6.250000e+00 4.625000e+01
    endloop
  endfacet
  facet normal -1.000000e+00 0.000000e+00 0.000000e+00
    outer loop
      vertex   -6.250000e+00 6.250000e+00 1.250000e+00
      vertex   -6.250000e+00 -6.250000e+00 1.250000e+00
      vertex   -6.250000e+00 6.250000e+00 4.625000e+01
    endloop
  endfacet
  facet normal -1.000000e+00 -0.000000e+00 0.000000e+00
    outer loop
      vertex   -6.250000e+00 6.250000e+00 4.625000e+01
      vertex   -6.250000e+00 -6.250000e+00 1.250000e+00
      vertex   -6.250000e+00 -6.250000e+00 4.625000e+01
    endloop
  endfacet
  facet normal 0.000000e+00 1.000000e+00 -0.000000e+00
    outer loop
      vertex   6.250000e+00 6.250000e+00 1.250000e+00
      vertex   -6.250000e+00 6.250000e+00 1.250000e+00
      vertex   6.250000e+00 6.250000e+00 4.625000e+01
    endloop
  endfacet
  facet normal 0.000000e+00 1.000000e+00 0.000000e+00
    outer loop
      vertex   6.250000e+00 6.250000e+00 4.625000e+01
      vertex   -6.250000e+00 6.250000e+00 1.250000e+00
      vertex   -6.250000e+00 6.250000e+00 4.625000e+01
    endloop
  endfacet
  facet normal 1.000000e+00 0.000000e+00 0.000000e+00
    outer loop
      vertex   6.250000e+00 -6.250000e+00 1.250000e+00
      vertex   6.250000e+00 6.250000e+00 1.250000e+00
      vertex   6.250000e+00 -6.250000e+00 4.625000e+01
    endloop
  endfacet
  facet normal 1.000000e+00 -0.000000e+00 0.000000e+00
    outer loop
      vertex   6.250000e+00 -6.250000e+00 4.625000e+01
      vertex   6.250000e+00 6.250000e+00 1.250000e+00
      vertex   6.250000e+00 6.250000e+00 4.625000e+01
    endloop
  endfacet
  facet normal 0.000000e+00 0.000000e+00 1.000000e+00
    outer loop
      vertex   5.303227e+00 5.625000e+00 4.625000e+01
      vertex   -6.250000e+00 6.250000e+00 4.625000e+01
      vertex   -5.303227e+00 5.625000e+00 4.625000e+01
    endloop
  endfacet
  facet normal 0.000000e+00 0.000000e+00 1.000000e+00
    outer loop
      vertex   -5.303227e+00 5.625000e+00 4.625000e+01
      vertex   -6.250000e+00 6.250000e+00 4.625000e+01
      vertex   -6.250000e+00 -6.250000e+00 4.625000e+01
    endloop
  endfacet
  facet normal 0.000000e+00 0.000000e+00 1.000000e+00
    outer loop
      vertex   -5.303227e+00 5.625000e+00 4.625000e+01
      vertex   -6.250000e+00 -6.250000e+00 4.625000e+01
      vertex   -5.303227e+00 -5.625000e+00 4.625000e+01
    endloop
  endfacet
  facet normal 0.000000e+00 0.000000e+00 1.000000e+00
    outer loop
      vertex   -5.303227e+00 -5.625000e+00 4.625000e+01
      vertex   -6.250000e+00 -6.250000e+00 4.625000e+01
      vertex   6.250000e+00 -6.250000e+00 4.625000e+01
    endloop
  endfacet
  facet normal -0.000000e+00 0.000000e+00 1.000000e+00
    outer loop
      vertex   -5.303227e+00 -5.625000e+00 4.625000e+01
      vertex   6.250000e+00 -6.250000e+00 4.625000e+01
      vertex   5.303227e+00 -5.625000e+00 4.625000e+01
    endloop
  endfacet
  facet normal -0.000000e+00 0.000000e+00 1.000000e+00
    outer loop
      vertex   5.303227e+00 -5.625000e+00 4.625000e+01
      vertex   6.250000e+00 -6.250000e+00 4.625000e+01
      vertex   5.303227e+00 5.625000e+00 4.625000e+01
    endloop
  endfacet
  facet normal -0.000000e+00 0.000000e+00 1.000000e+00
    outer loop
      vertex   5.303227e+00 5.625000e+00 4.625000e+01
      vertex   6.250000e+00 -6.250000e+00 4.625000e+01
      vertex   6.250000e+00 6.250000e+00 4.625000e+01
    endloop
  endfacet
  facet normal 0.000000e+00 -0.000000e+00 1.000000e+00
    outer loop
      vertex   5.303227e+00 5.625000e+00 4.625000e+01
      vertex   6.250000e+00 6.250000e+00 4.625000e+01
      vertex   -6.250000e+00 6.250000e+00 4.625000e+01
    endloop
  endfacet
  facet normal 0.000000e+00 0.000000e+00 -1.000000e+00
    outer loop
      vertex   6.250000e+00 -6.250000e+00 1.250000e+00
      vertex   -6.250000e+00 -6.250000e+00 1.250000e+00
      vertex   6.250000e+00 6.250000e+00 1.250000e+00
    endloop
  endfacet
  facet normal -0.000000e+00 0.000000e+00 -1.000000e+00
    outer loop
      vertex   6.250000e+00 6.250000e+00 1.250000e+00
      vertex   -6.250000e+00 -6.250000e+00 1.250000e+00
      vertex   -6.250000e+00 6.250000e+00 1.250000e+00
    endloop
  endfacet
endsolid
