solid ASCII
  facet normal 2.018587e-16 1.000000e+00 0.000000e+00
    outer loop
      vertex   -2.200000e+00 2.200000e+00 2.449714e+01
      vertex   2.200000e+00 2.200000e+00 2.449714e+01
      vertex   -2.200000e+00 2.200000e+00 2.349714e+01
    endloop
  endfacet
  facet normal 1.009294e-16 1.000000e+00 4.440892e-16
    outer loop
      vertex   -2.200000e+00 2.200000e+00 2.349714e+01
      vertex   2.200000e+00 2.200000e+00 2.449714e+01
      vertex   2.200000e+00 2.200000e+00 2.349714e+01
    endloop
  endfacet
  facet normal -1.000000e+00 1.009294e-16 0.000000e+00
    outer loop
      vertex   -2.200000e+00 -2.200000e+00 2.449714e+01
      vertex   -2.200000e+00 2.200000e+00 2.449714e+01
      vertex   -2.200000e+00 -2.200000e+00 2.349714e+01
    endloop
  endfacet
  facet normal -1.000000e+00 1.009294e-16 0.000000e+00
    outer loop
      vertex   -2.200000e+00 -2.200000e+00 2.349714e+01
      vertex   -2.200000e+00 2.200000e+00 2.449714e+01
      vertex   -2.200000e+00 2.200000e+00 2.349714e+01
    endloop
  endfacet
  facet normal -2.018587e-16 -1.000000e+00 -4.440892e-16
    outer loop
      vertex   2.200000e+00 -2.200000e+00 2.449714e+01
      vertex   -2.200000e+00 -2.200000e+00 2.449714e+01
      vertex   2.200000e+00 -2.200000e+00 2.349714e+01
    endloop
  endfacet
  facet normal -1.009294e-16 -1.000000e+00 0.000000e+00
    outer loop
      vertex   2.200000e+00 -2.200000e+00 2.349714e+01
      vertex   -2.200000e+00 -2.200000e+00 2.449714e+01
      vertex   -2.200000e+00 -2.200000e+00 2.349714e+01
    endloop
  endfacet
  facet normal 1.000000e+00 -1.009294e-16 -4.482164e-32
    outer loop
      vertex   2.200000e+00 2.200000e+00 2.449714e+01
      vertex   2.200000e+00 -2.200000e+00 2.449714e+01
      vertex   2.200000e+00 2.200000e+00 2.349714e+01
    endloop
  endfacet
  facet normal 1.000000e+00 -1.009294e-16 0.000000e+00
    outer loop
      vertex   2.200000e+00 2.200000e+00 2.349714e+01
      vertex   2.200000e+00 -2.200000e+00 2.449714e+01
      vertex   2.200000e+00 -2.200000e+00 2.349714e+01
    endloop
  endfacet
  facet normal 0.000000e+00 0.000000e+00 -1.000000e+00
    outer loop
      vertex   2.200000e+00 -2.200000e+00 2.349714e+01
      vertex   -2.200000e+00 -2.200000e+00 2.349714e+01
      vertex   2.200000e+00 2.200000e+00 2.349714e+01
    endloop
  endfacet
  facet normal -0.000000e+00 0.000000e+00 -1.000000e+00
    outer loop
      vertex   2.200000e+00 2.200000e+00 2.349714e+01
      vertex   -2.200000e+00 -2.200000e+00 2.349714e+01
      vertex   -2.200000e+00 2.200000e+00 2.349714e+01
    endloop
  endfacet
  facet normal 0.000000e+00 0.000000e+00 1.000000e+00
    outer loop
      vertex   2.200000e+00 2.200000e+00 2.449714e+01
      vertex   -2.200000e+00 2.200000e+00 2.449714e+01
      vertex   2.200000e+00 -2.200000e+00 2.449714e+01
    endloop
  endfacet
  facet normal 0.000000e+00 0.000000e+00 1.000000e+00
    outer loop
      vertex   2.200000e+00 -2.200000e+00 2.449714e+01
      vertex   -2.200000e+00 2.200000e+00 2.449714e+01
      vertex   -2.200000e+00 -2.200000e+00 2.449714e+01
    endloop
  endfacet
  facet normal -1.776357e-15 4.037175e-16 1.000000e+00
    outer loop
      vertex   4.089100e+00 2.341929e+00 8.029921e+00
      vertex   4.089100e+00 -2.058071e+00 8.029921e+00
      vertex   5.089100e+00 2.341929e+00 8.029921e+00
    endloop
  endfacet
  facet normal -1.776357e-15 4.037175e-16 1.000000e+00
    outer loop
      vertex   5.089100e+00 2.341929e+00 8.029921e+00
      vertex   4.089100e+00 -2.058071e+00 8.029921e+00
      vertex   5.089100e+00 -2.058071e+00 8.029921e+00
    endloop
  endfacet
  facet normal 1.332268e-15 1.000000e+00 -2.018587e-16
    outer loop
      vertex   4.089100e+00 2.341929e+00 3.629921e+00
      vertex   4.089100e+00 2.341929e+00 8.029921e+00
      vertex   5.089100e+00 2.341929e+00 3.629921e+00
    endloop
  endfacet
  facet normal 8.881784e-16 1.000000e+00 -3.027881e-16
    outer loop
      vertex   5.089100e+00 2.341929e+00 3.629921e+00
      vertex   4.089100e+00 2.341929e+00 8.029921e+00
      vertex   5.089100e+00 2.341929e+00 8.029921e+00
    endloop
  endfacet
  facet normal 1.776357e-15 -2.018587e-16 -1.000000e+00
    outer loop
      vertex   4.089100e+00 -2.058071e+00 3.629921e+00
      vertex   4.089100e+00 2.341929e+00 3.629921e+00
      vertex   5.089100e+00 -2.058071e+00 3.629921e+00
    endloop
  endfacet
  facet normal 1.776357e-15 -2.018587e-16 -1.000000e+00
    outer loop
      vertex   5.089100e+00 -2.058071e+00 3.629921e+00
      vertex   4.089100e+00 2.341929e+00 3.629921e+00
      vertex   5.089100e+00 2.341929e+00 3.629921e+00
    endloop
  endfacet
  facet normal -8.881784e-16 -1.000000e+00 2.018587e-16
    outer loop
      vertex   4.089100e+00 -2.058071e+00 8.029921e+00
      vertex   4.089100e+00 -2.058071e+00 3.629921e+00
      vertex   5.089100e+00 -2.058071e+00 8.029921e+00
    endloop
  endfacet
  facet normal -1.332268e-15 -1.000000e+00 3.027881e-16
    outer loop
      vertex   5.089100e+00 -2.058071e+00 8.029921e+00
      vertex   4.089100e+00 -2.058071e+00 3.629921e+00
      vertex   5.089100e+00 -2.058071e+00 3.629921e+00
    endloop
  endfacet
  facet normal 1.000000e+00 -1.211152e-15 1.614870e-15
    outer loop
      vertex   5.089100e+00 -2.058071e+00 3.629921e+00
      vertex   5.089100e+00 2.341929e+00 3.629921e+00
      vertex   5.089100e+00 -2.058071e+00 8.029921e+00
    endloop
  endfacet
  facet normal 1.000000e+00 -1.211152e-15 1.614870e-15
    outer loop
      vertex   5.089100e+00 -2.058071e+00 8.029921e+00
      vertex   5.089100e+00 2.341929e+00 3.629921e+00
      vertex   5.089100e+00 2.341929e+00 8.029921e+00
    endloop
  endfacet
  facet normal -1.000000e+00 1.211152e-15 -1.614870e-15
    outer loop
      vertex   4.089100e+00 -2.058071e+00 8.029921e+00
      vertex   4.089100e+00 2.341929e+00 8.029921e+00
      vertex   4.089100e+00 -2.058071e+00 3.629921e+00
    endloop
  endfacet
  facet normal -1.000000e+00 1.211152e-15 -1.614870e-15
    outer loop
      vertex   4.089100e+00 -2.058071e+00 3.629921e+00
      vertex   4.089100e+00 2.341929e+00 8.029921e+00
      vertex   4.089100e+00 2.341929e+00 3.629921e+00
    endloop
  endfacet
  facet normal -0.000000e+00 -1.000000e+00 0.000000e+00
    outer loop
      vertex   -4.000000e+00 -2.200000e+00 3.800000e+00
      vertex   -4.000000e+00 -2.200000e+00 8.200000e+00
      vertex   -5.000000e+00 -2.200000e+00 3.800000e+00
    endloop
  endfacet
  facet normal 0.000000e+00 -1.000000e+00 0.000000e+00
    outer loop
      vertex   -5.000000e+00 -2.200000e+00 3.800000e+00
      vertex   -4.000000e+00 -2.200000e+00 8.200000e+00
      vertex   -5.000000e+00 -2.200000e+00 8.200000e+00
    endloop
  endfacet
  facet normal 4.440892e-16 0.000000e+00 -1.000000e+00
    outer loop
      vertex   -4.000000e+00 2.200000e+00 3.800000e+00
      vertex   -4.000000e+00 -2.200000e+00 3.800000e+00
      vertex   -5.000000e+00 2.200000e+00 3.800000e+00
    endloop
  endfacet
  facet normal 4.440892e-16 0.000000e+00 -1.000000e+00
    outer loop
      vertex   -5.000000e+00 2.200000e+00 3.800000e+00
      vertex   -4.000000e+00 -2.200000e+00 3.800000e+00
      vertex   -5.000000e+00 -2.200000e+00 3.800000e+00
    endloop
  endfacet
  facet normal 0.000000e+00 1.000000e+00 0.000000e+00
    outer loop
      vertex   -4.000000e+00 2.200000e+00 8.200000e+00
      vertex   -4.000000e+00 2.200000e+00 3.800000e+00
      vertex   -5.000000e+00 2.200000e+00 8.200000e+00
    endloop
  endfacet
  facet normal 0.000000e+00 1.000000e+00 0.000000e+00
    outer loop
      vertex   -5.000000e+00 2.200000e+00 8.200000e+00
      vertex   -4.000000e+00 2.200000e+00 3.800000e+00
      vertex   -5.000000e+00 2.200000e+00 3.800000e+00
    endloop
  endfacet
  facet normal 0.000000e+00 -0.000000e+00 1.000000e+00
    outer loop
      vertex   -4.000000e+00 -2.200000e+00 8.200000e+00
      vertex   -4.000000e+00 2.200000e+00 8.200000e+00
      vertex   -5.000000e+00 -2.200000e+00 8.200000e+00
    endloop
  endfacet
  facet normal 0.000000e+00 0.000000e+00 1.000000e+00
    outer loop
      vertex   -5.000000e+00 -2.200000e+00 8.200000e+00
      vertex   -4.000000e+00 2.200000e+00 8.200000e+00
      vertex   -5.000000e+00 2.200000e+00 8.200000e+00
    endloop
  endfacet
  facet normal -1.000000e+00 -0.000000e+00 -2.018587e-16
    outer loop
      vertex   -5.000000e+00 2.200000e+00 8.200000e+00
      vertex   -5.000000e+00 2.200000e+00 3.800000e+00
      vertex   -5.000000e+00 -2.200000e+00 8.200000e+00
    endloop
  endfacet
  facet normal -1.000000e+00 0.000000e+00 -2.018587e-16
    outer loop
      vertex   -5.000000e+00 -2.200000e+00 8.200000e+00
      vertex   -5.000000e+00 2.200000e+00 3.800000e+00
      vertex   -5.000000e+00 -2.200000e+00 3.800000e+00
    endloop
  endfacet
  facet normal 1.000000e+00 -0.000000e+00 2.018587e-16
    outer loop
      vertex   -4.000000e+00 -2.200000e+00 8.200000e+00
      vertex   -4.000000e+00 -2.200000e+00 3.800000e+00
      vertex   -4.000000e+00 2.200000e+00 8.200000e+00
    endloop
  endfacet
  facet normal 1.000000e+00 0.000000e+00 2.018587e-16
    outer loop
      vertex   -4.000000e+00 2.200000e+00 8.200000e+00
      vertex   -4.000000e+00 -2.200000e+00 3.800000e+00
      vertex   -4.000000e+00 2.200000e+00 3.800000e+00
    endloop
  endfacet
endsolid
