solid ASCII
  facet normal 2.018587e-16 1.000000e+00 0.000000e+00
    outer loop
      vertex   -2.200000e+00 2.000000e+00 2.349714e+01
      vertex   2.200000e+00 2.000000e+00 2.349714e+01
      vertex   -2.200000e+00 2.000000e+00 2.342714e+01
    endloop
  endfacet
  facet normal 2.018587e-16 1.000000e+00 0.000000e+00
    outer loop
      vertex   -2.200000e+00 2.000000e+00 2.342714e+01
      vertex   2.200000e+00 2.000000e+00 2.349714e+01
      vertex   2.200000e+00 2.000000e+00 2.342714e+01
    endloop
  endfacet
  facet normal -1.000000e+00 1.110223e-16 0.000000e+00
    outer loop
      vertex   -2.200000e+00 -2.000000e+00 2.349714e+01
      vertex   -2.200000e+00 2.000000e+00 2.349714e+01
      vertex   -2.200000e+00 -2.000000e+00 2.342714e+01
    endloop
  endfacet
  facet normal -1.000000e+00 1.110223e-16 0.000000e+00
    outer loop
      vertex   -2.200000e+00 -2.000000e+00 2.342714e+01
      vertex   -2.200000e+00 2.000000e+00 2.349714e+01
      vertex   -2.200000e+00 2.000000e+00 2.342714e+01
    endloop
  endfacet
  facet normal -2.018587e-16 -1.000000e+00 -0.000000e+00
    outer loop
      vertex   2.200000e+00 -2.000000e+00 2.349714e+01
      vertex   -2.200000e+00 -2.000000e+00 2.349714e+01
      vertex   2.200000e+00 -2.000000e+00 2.342714e+01
    endloop
  endfacet
  facet normal -2.018587e-16 -1.000000e+00 0.000000e+00
    outer loop
      vertex   2.200000e+00 -2.000000e+00 2.342714e+01
      vertex   -2.200000e+00 -2.000000e+00 2.349714e+01
      vertex   -2.200000e+00 -2.000000e+00 2.342714e+01
    endloop
  endfacet
  facet normal 1.000000e+00 -1.110223e-16 0.000000e+00
    outer loop
      vertex   2.200000e+00 2.000000e+00 2.349714e+01
      vertex   2.200000e+00 -2.000000e+00 2.349714e+01
      vertex   2.200000e+00 2.000000e+00 2.342714e+01
    endloop
  endfacet
  facet normal 1.000000e+00 -1.110223e-16 0.000000e+00
    outer loop
      vertex   2.200000e+00 2.000000e+00 2.342714e+01
      vertex   2.200000e+00 -2.000000e+00 2.349714e+01
      vertex   2.200000e+00 -2.000000e+00 2.342714e+01
    endloop
  endfacet
  facet normal 0.000000e+00 0.000000e+00 -1.000000e+00
    outer loop
      vertex   2.200000e+00 -2.000000e+00 2.342714e+01
      vertex   -2.200000e+00 -2.000000e+00 2.342714e+01
      vertex   2.200000e+00 2.000000e+00 2.342714e+01
    endloop
  endfacet
  facet normal -0.000000e+00 0.000000e+00 -1.000000e+00
    outer loop
      vertex   2.200000e+00 2.000000e+00 2.342714e+01
      vertex   -2.200000e+00 -2.000000e+00 2.342714e+01
      vertex   -2.200000e+00 2.000000e+00 2.342714e+01
    endloop
  endfacet
  facet normal 0.000000e+00 0.000000e+00 1.000000e+00
    outer loop
      vertex   2.200000e+00 2.000000e+00 2.349714e+01
      vertex   -2.200000e+00 2.000000e+00 2.349714e+01
      vertex   2.200000e+00 -2.000000e+00 2.349714e+01
    endloop
  endfacet
  facet normal 0.000000e+00 0.000000e+00 1.000000e+00
    outer loop
      vertex   2.200000e+00 -2.000000e+00 2.349714e+01
      vertex   -2.200000e+00 2.000000e+00 2.349714e+01
      vertex   -2.200000e+00 -2.000000e+00 2.349714e+01
    endloop
  endfacet
  facet normal -0.000000e+00 4.037175e-16 1.000000e+00
    outer loop
      vertex   5.089100e+00 2.341929e+00 7.829921e+00
      vertex   5.089100e+00 -2.058071e+00 7.829921e+00
      vertex   5.159100e+00 2.341929e+00 7.829921e+00
    endloop
  endfacet
  facet normal 0.000000e+00 4.037175e-16 1.000000e+00
    outer loop
      vertex   5.159100e+00 2.341929e+00 7.829921e+00
      vertex   5.089100e+00 -2.058071e+00 7.829921e+00
      vertex   5.159100e+00 -2.058071e+00 7.829921e+00
    endloop
  endfacet
  facet normal 0.000000e+00 1.000000e+00 -2.220446e-16
    outer loop
      vertex   5.089100e+00 2.341929e+00 3.829921e+00
      vertex   5.089100e+00 2.341929e+00 7.829921e+00
      vertex   5.159100e+00 2.341929e+00 3.829921e+00
    endloop
  endfacet
  facet normal 0.000000e+00 1.000000e+00 -2.220446e-16
    outer loop
      vertex   5.159100e+00 2.341929e+00 3.829921e+00
      vertex   5.089100e+00 2.341929e+00 7.829921e+00
      vertex   5.159100e+00 2.341929e+00 7.829921e+00
    endloop
  endfacet
  facet normal 0.000000e+00 -2.018587e-16 -1.000000e+00
    outer loop
      vertex   5.089100e+00 -2.058071e+00 3.829921e+00
      vertex   5.089100e+00 2.341929e+00 3.829921e+00
      vertex   5.159100e+00 -2.058071e+00 3.829921e+00
    endloop
  endfacet
  facet normal 0.000000e+00 -2.018587e-16 -1.000000e+00
    outer loop
      vertex   5.159100e+00 -2.058071e+00 3.829921e+00
      vertex   5.089100e+00 2.341929e+00 3.829921e+00
      vertex   5.159100e+00 2.341929e+00 3.829921e+00
    endloop
  endfacet
  facet normal 0.000000e+00 -1.000000e+00 2.220446e-16
    outer loop
      vertex   5.089100e+00 -2.058071e+00 7.829921e+00
      vertex   5.089100e+00 -2.058071e+00 3.829921e+00
      vertex   5.159100e+00 -2.058071e+00 7.829921e+00
    endloop
  endfacet
  facet normal 0.000000e+00 -1.000000e+00 2.220446e-16
    outer loop
      vertex   5.159100e+00 -2.058071e+00 7.829921e+00
      vertex   5.089100e+00 -2.058071e+00 3.829921e+00
      vertex   5.159100e+00 -2.058071e+00 3.829921e+00
    endloop
  endfacet
  facet normal 1.000000e+00 -1.211152e-15 1.776357e-15
    outer loop
      vertex   5.159100e+00 -2.058071e+00 3.829921e+00
      vertex   5.159100e+00 2.341929e+00 3.829921e+00
      vertex   5.159100e+00 -2.058071e+00 7.829921e+00
    endloop
  endfacet
  facet normal 1.000000e+00 -1.211152e-15 1.776357e-15
    outer loop
      vertex   5.159100e+00 -2.058071e+00 7.829921e+00
      vertex   5.159100e+00 2.341929e+00 3.829921e+00
      vertex   5.159100e+00 2.341929e+00 7.829921e+00
    endloop
  endfacet
  facet normal -1.000000e+00 1.211152e-15 -1.776357e-15
    outer loop
      vertex   5.089100e+00 -2.058071e+00 7.829921e+00
      vertex   5.089100e+00 2.341929e+00 7.829921e+00
      vertex   5.089100e+00 -2.058071e+00 3.829921e+00
    endloop
  endfacet
  facet normal -1.000000e+00 1.211152e-15 -1.776357e-15
    outer loop
      vertex   5.089100e+00 -2.058071e+00 3.829921e+00
      vertex   5.089100e+00 2.341929e+00 7.829921e+00
      vertex   5.089100e+00 2.341929e+00 3.829921e+00
    endloop
  endfacet
  facet normal 0.000000e+00 -1.000000e+00 0.000000e+00
    outer loop
      vertex   -5.000000e+00 -2.000000e+00 3.800000e+00
      vertex   -5.000000e+00 -2.000000e+00 8.200000e+00
      vertex   -5.070000e+00 -2.000000e+00 3.800000e+00
    endloop
  endfacet
  facet normal 0.000000e+00 -1.000000e+00 0.000000e+00
    outer loop
      vertex   -5.070000e+00 -2.000000e+00 3.800000e+00
      vertex   -5.000000e+00 -2.000000e+00 8.200000e+00
      vertex   -5.070000e+00 -2.000000e+00 8.200000e+00
    endloop
  endfacet
  facet normal -0.000000e+00 -0.000000e+00 -1.000000e+00
    outer loop
      vertex   -5.000000e+00 2.000000e+00 3.800000e+00
      vertex   -5.000000e+00 -2.000000e+00 3.800000e+00
      vertex   -5.070000e+00 2.000000e+00 3.800000e+00
    endloop
  endfacet
  facet normal 0.000000e+00 0.000000e+00 -1.000000e+00
    outer loop
      vertex   -5.070000e+00 2.000000e+00 3.800000e+00
      vertex   -5.000000e+00 -2.000000e+00 3.800000e+00
      vertex   -5.070000e+00 -2.000000e+00 3.800000e+00
    endloop
  endfacet
  facet normal 0.000000e+00 1.000000e+00 0.000000e+00
    outer loop
      vertex   -5.000000e+00 2.000000e+00 8.200000e+00
      vertex   -5.000000e+00 2.000000e+00 3.800000e+00
      vertex   -5.070000e+00 2.000000e+00 8.200000e+00
    endloop
  endfacet
  facet normal 0.000000e+00 1.000000e+00 0.000000e+00
    outer loop
      vertex   -5.070000e+00 2.000000e+00 8.200000e+00
      vertex   -5.000000e+00 2.000000e+00 3.800000e+00
      vertex   -5.070000e+00 2.000000e+00 3.800000e+00
    endloop
  endfacet
  facet normal 0.000000e+00 -0.000000e+00 1.000000e+00
    outer loop
      vertex   -5.000000e+00 -2.000000e+00 8.200000e+00
      vertex   -5.000000e+00 2.000000e+00 8.200000e+00
      vertex   -5.070000e+00 -2.000000e+00 8.200000e+00
    endloop
  endfacet
  facet normal 0.000000e+00 0.000000e+00 1.000000e+00
    outer loop
      vertex   -5.070000e+00 -2.000000e+00 8.200000e+00
      vertex   -5.000000e+00 2.000000e+00 8.200000e+00
      vertex   -5.070000e+00 2.000000e+00 8.200000e+00
    endloop
  endfacet
  facet normal -1.000000e+00 -0.000000e+00 -2.018587e-16
    outer loop
      vertex   -5.070000e+00 2.000000e+00 8.200000e+00
      vertex   -5.070000e+00 2.000000e+00 3.800000e+00
      vertex   -5.070000e+00 -2.000000e+00 8.200000e+00
    endloop
  endfacet
  facet normal -1.000000e+00 0.000000e+00 -2.018587e-16
    outer loop
      vertex   -5.070000e+00 -2.000000e+00 8.200000e+00
      vertex   -5.070000e+00 2.000000e+00 3.800000e+00
      vertex   -5.070000e+00 -2.000000e+00 3.800000e+00
    endloop
  endfacet
  facet normal 1.000000e+00 -0.000000e+00 4.037175e-16
    outer loop
      vertex   -5.000000e+00 -2.000000e+00 8.200000e+00
      vertex   -5.000000e+00 -2.000000e+00 3.800000e+00
      vertex   -5.000000e+00 2.000000e+00 8.200000e+00
    endloop
  endfacet
  facet normal 1.000000e+00 0.000000e+00 4.037175e-16
    outer loop
      vertex   -5.000000e+00 2.000000e+00 8.200000e+00
      vertex   -5.000000e+00 -2.000000e+00 3.800000e+00
      vertex   -5.000000e+00 2.000000e+00 3.800000e+00
    endloop
  endfacet
endsolid
