solid ASCII
  facet normal -1.000000e+00 0.000000e+00 0.000000e+00
    outer loop
      vertex   6.329904e+00 6.286477e+00 1.250000e+00
      vertex   6.329904e+00 -6.264109e+00 1.250000e+00
      vertex   6.329904e+00 6.286477e+00 7.250000e+00
    endloop
  endfacet
  facet normal -1.000000e+00 -0.000000e+00 0.000000e+00
    outer loop
      vertex   6.329904e+00 6.286477e+00 7.250000e+00
      vertex   6.329904e+00 -6.264109e+00 1.250000e+00
      vertex   6.329904e+00 -6.264109e+00 7.250000e+00
    endloop
  endfacet
  facet normal 0.000000e+00 -1.000000e+00 0.000000e+00
    outer loop
      vertex   -6.220683e+00 6.286477e+00 1.250000e+00
      vertex   6.329904e+00 6.286477e+00 1.250000e+00
      vertex   -6.220683e+00 6.286477e+00 7.250000e+00
    endloop
  endfacet
  facet normal 0.000000e+00 -1.000000e+00 0.000000e+00
    outer loop
      vertex   -6.220683e+00 6.286477e+00 7.250000e+00
      vertex   6.329904e+00 6.286477e+00 1.250000e+00
      vertex   6.329904e+00 6.286477e+00 7.250000e+00
    endloop
  endfacet
  facet normal 1.000000e+00 0.000000e+00 0.000000e+00
    outer loop
      vertex   -6.220683e+00 -6.264109e+00 1.250000e+00
      vertex   -6.220683e+00 6.286477e+00 1.250000e+00
      vertex   -6.220683e+00 -6.264109e+00 7.250000e+00
    endloop
  endfacet
  facet normal 1.000000e+00 -0.000000e+00 0.000000e+00
    outer loop
      vertex   -6.220683e+00 -6.264109e+00 7.250000e+00
      vertex   -6.220683e+00 6.286477e+00 1.250000e+00
      vertex   -6.220683e+00 6.286477e+00 7.250000e+00
    endloop
  endfacet
  facet normal 0.000000e+00 1.000000e+00 -0.000000e+00
    outer loop
      vertex   6.329904e+00 -6.264109e+00 1.250000e+00
      vertex   -6.220683e+00 -6.264109e+00 1.250000e+00
      vertex   6.329904e+00 -6.264109e+00 7.250000e+00
    endloop
  endfacet
  facet normal 0.000000e+00 1.000000e+00 0.000000e+00
    outer loop
      vertex   6.329904e+00 -6.264109e+00 7.250000e+00
      vertex   -6.220683e+00 -6.264109e+00 1.250000e+00
      vertex   -6.220683e+00 -6.264109e+00 7.250000e+00
    endloop
  endfacet
  facet normal -1.000000e+00 0.000000e+00 1.184238e-15
    outer loop
      vertex   -2.137500e+01 2.137500e+01 1.250000e+00
      vertex   -2.137500e+01 -2.137500e+01 1.250000e+00
      vertex   -2.137500e+01 2.137500e+01 7.250000e+00
    endloop
  endfacet
  facet normal -1.000000e+00 0.000000e+00 1.184238e-15
    outer loop
      vertex   -2.137500e+01 2.137500e+01 7.250000e+00
      vertex   -2.137500e+01 -2.137500e+01 1.250000e+00
      vertex   -2.137500e+01 -2.137500e+01 7.250000e+00
    endloop
  endfacet
  facet normal 0.000000e+00 1.000000e+00 1.184238e-15
    outer loop
      vertex   2.137500e+01 2.137500e+01 1.250000e+00
      vertex   -2.137500e+01 2.137500e+01 1.250000e+00
      vertex   2.137500e+01 2.137500e+01 7.250000e+00
    endloop
  endfacet
  facet normal 0.000000e+00 1.000000e+00 1.184238e-15
    outer loop
      vertex   2.137500e+01 2.137500e+01 7.250000e+00
      vertex   -2.137500e+01 2.137500e+01 1.250000e+00
      vertex   -2.137500e+01 2.137500e+01 7.250000e+00
    endloop
  endfacet
  facet normal 1.000000e+00 8.310441e-17 -0.000000e+00
    outer loop
      vertex   2.137500e+01 -2.137500e+01 1.250000e+00
      vertex   2.137500e+01 2.137500e+01 1.250000e+00
      vertex   2.137500e+01 -2.137500e+01 7.250000e+00
    endloop
  endfacet
  facet normal 1.000000e+00 8.310441e-17 0.000000e+00
    outer loop
      vertex   2.137500e+01 -2.137500e+01 7.250000e+00
      vertex   2.137500e+01 2.137500e+01 1.250000e+00
      vertex   2.137500e+01 2.137500e+01 7.250000e+00
    endloop
  endfacet
  facet normal 0.000000e+00 -1.000000e+00 0.000000e+00
    outer loop
      vertex   -2.137500e+01 -2.137500e+01 1.250000e+00
      vertex   2.137500e+01 -2.137500e+01 1.250000e+00
      vertex   -2.137500e+01 -2.137500e+01 7.250000e+00
    endloop
  endfacet
  facet normal 0.000000e+00 -1.000000e+00 0.000000e+00
    outer loop
      vertex   -2.137500e+01 -2.137500e+01 7.250000e+00
      vertex   2.137500e+01 -2.137500e+01 1.250000e+00
      vertex   2.137500e+01 -2.137500e+01 7.250000e+00
    endloop
  endfacet
  facet normal -0.000000e+00 0.000000e+00 1.000000e+00
    outer loop
      vertex   -6.220683e+00 -6.264109e+00 7.250000e+00
      vertex   2.137500e+01 -2.137500e+01 7.250000e+00
      vertex   6.329904e+00 -6.264109e+00 7.250000e+00
    endloop
  endfacet
  facet normal -0.000000e+00 0.000000e+00 1.000000e+00
    outer loop
      vertex   6.329904e+00 -6.264109e+00 7.250000e+00
      vertex   2.137500e+01 -2.137500e+01 7.250000e+00
      vertex   2.137500e+01 2.137500e+01 7.250000e+00
    endloop
  endfacet
  facet normal 0.000000e+00 0.000000e+00 1.000000e+00
    outer loop
      vertex   6.329904e+00 -6.264109e+00 7.250000e+00
      vertex   2.137500e+01 2.137500e+01 7.250000e+00
      vertex   6.329904e+00 6.286477e+00 7.250000e+00
    endloop
  endfacet
  facet normal 0.000000e+00 -0.000000e+00 1.000000e+00
    outer loop
      vertex   6.329904e+00 6.286477e+00 7.250000e+00
      vertex   2.137500e+01 2.137500e+01 7.250000e+00
      vertex   -6.220683e+00 6.286477e+00 7.250000e+00
    endloop
  endfacet
  facet normal 0.000000e+00 -0.000000e+00 1.000000e+00
    outer loop
      vertex   -6.220683e+00 6.286477e+00 7.250000e+00
      vertex   2.137500e+01 2.137500e+01 7.250000e+00
      vertex   -2.137500e+01 2.137500e+01 7.250000e+00
    endloop
  endfacet
  facet normal 0.000000e+00 0.000000e+00 1.000000e+00
    outer loop
      vertex   -6.220683e+00 6.286477e+00 7.250000e+00
      vertex   -2.137500e+01 2.137500e+01 7.250000e+00
      vertex   -6.220683e+00 -6.264109e+00 7.250000e+00
    endloop
  endfacet
  facet normal 0.000000e+00 0.000000e+00 1.000000e+00
    outer loop
      vertex   -6.220683e+00 -6.264109e+00 7.250000e+00
      vertex   -2.137500e+01 2.137500e+01 7.250000e+00
      vertex   -2.137500e+01 -2.137500e+01 7.250000e+00
    endloop
  endfacet
  facet normal 0.000000e+00 0.000000e+00 1.000000e+00
    outer loop
      vertex   -6.220683e+00 -6.264109e+00 7.250000e+00
      vertex   -2.137500e+01 -2.137500e+01 7.250000e+00
      vertex   2.137500e+01 -2.137500e+01 7.250000e+00
    endloop
  endfacet
  facet normal -0.000000e+00 -0.000000e+00 -1.000000e+00
    outer loop
      vertex   6.329904e+00 -6.264109e+00 1.250000e+00
      vertex   2.137500e+01 -2.137500e+01 1.250000e+00
      vertex   -6.220683e+00 -6.264109e+00 1.250000e+00
    endloop
  endfacet
  facet normal 0.000000e+00 -0.000000e+00 -1.000000e+00
    outer loop
      vertex   -6.220683e+00 -6.264109e+00 1.250000e+00
      vertex   2.137500e+01 -2.137500e+01 1.250000e+00
      vertex   -2.137500e+01 -2.137500e+01 1.250000e+00
    endloop
  endfacet
  facet normal -0.000000e+00 0.000000e+00 -1.000000e+00
    outer loop
      vertex   -6.220683e+00 -6.264109e+00 1.250000e+00
      vertex   -2.137500e+01 -2.137500e+01 1.250000e+00
      vertex   -2.137500e+01 2.137500e+01 1.250000e+00
    endloop
  endfacet
  facet normal 0.000000e+00 0.000000e+00 -1.000000e+00
    outer loop
      vertex   2.137500e+01 -2.137500e+01 1.250000e+00
      vertex   6.329904e+00 -6.264109e+00 1.250000e+00
      vertex   2.137500e+01 2.137500e+01 1.250000e+00
    endloop
  endfacet
  facet normal 0.000000e+00 0.000000e+00 -1.000000e+00
    outer loop
      vertex   2.137500e+01 2.137500e+01 1.250000e+00
      vertex   6.329904e+00 -6.264109e+00 1.250000e+00
      vertex   6.329904e+00 6.286477e+00 1.250000e+00
    endloop
  endfacet
  facet normal 0.000000e+00 0.000000e+00 -1.000000e+00
    outer loop
      vertex   2.137500e+01 2.137500e+01 1.250000e+00
      vertex   6.329904e+00 6.286477e+00 1.250000e+00
      vertex   -6.220683e+00 6.286477e+00 1.250000e+00
    endloop
  endfacet
  facet normal -0.000000e+00 0.000000e+00 -1.000000e+00
    outer loop
      vertex   2.137500e+01 2.137500e+01 1.250000e+00
      vertex   -6.220683e+00 6.286477e+00 1.250000e+00
      vertex   -2.137500e+01 2.137500e+01 1.250000e+00
    endloop
  endfacet
  facet normal 0.000000e+00 0.000000e+00 -1.000000e+00
    outer loop
      vertex   -2.137500e+01 2.137500e+01 1.250000e+00
      vertex   -6.220683e+00 6.286477e+00 1.250000e+00
      vertex   -6.220683e+00 -6.264109e+00 1.250000e+00
    endloop
  endfacet
endsolid
