solid ASCII
  facet normal -1.000000e+00 0.000000e+00 0.000000e+00
    outer loop
      vertex   6.250000e+00 6.250000e+00 1.250000e+00
      vertex   6.250000e+00 -6.250000e+00 1.250000e+00
      vertex   6.250000e+00 6.250000e+00 1.125000e+01
    endloop
  endfacet
  facet normal -1.000000e+00 -0.000000e+00 0.000000e+00
    outer loop
      vertex   6.250000e+00 6.250000e+00 1.125000e+01
      vertex   6.250000e+00 -6.250000e+00 1.250000e+00
      vertex   6.250000e+00 -6.250000e+00 1.125000e+01
    endloop
  endfacet
  facet normal 0.000000e+00 -1.000000e+00 0.000000e+00
    outer loop
      vertex   -6.250000e+00 6.250000e+00 1.250000e+00
      vertex   6.250000e+00 6.250000e+00 1.250000e+00
      vertex   -6.250000e+00 6.250000e+00 1.125000e+01
    endloop
  endfacet
  facet normal 0.000000e+00 -1.000000e+00 0.000000e+00
    outer loop
      vertex   -6.250000e+00 6.250000e+00 1.125000e+01
      vertex   6.250000e+00 6.250000e+00 1.250000e+00
      vertex   6.250000e+00 6.250000e+00 1.125000e+01
    endloop
  endfacet
  facet normal 1.000000e+00 0.000000e+00 0.000000e+00
    outer loop
      vertex   -6.250000e+00 -6.250000e+00 1.250000e+00
      vertex   -6.250000e+00 6.250000e+00 1.250000e+00
      vertex   -6.250000e+00 -6.250000e+00 1.125000e+01
    endloop
  endfacet
  facet normal 1.000000e+00 -0.000000e+00 0.000000e+00
    outer loop
      vertex   -6.250000e+00 -6.250000e+00 1.125000e+01
      vertex   -6.250000e+00 6.250000e+00 1.250000e+00
      vertex   -6.250000e+00 6.250000e+00 1.125000e+01
    endloop
  endfacet
  facet normal 0.000000e+00 1.000000e+00 -0.000000e+00
    outer loop
      vertex   6.250000e+00 -6.250000e+00 1.250000e+00
      vertex   -6.250000e+00 -6.250000e+00 1.250000e+00
      vertex   6.250000e+00 -6.250000e+00 1.125000e+01
    endloop
  endfacet
  facet normal 0.000000e+00 1.000000e+00 0.000000e+00
    outer loop
      vertex   6.250000e+00 -6.250000e+00 1.125000e+01
      vertex   -6.250000e+00 -6.250000e+00 1.250000e+00
      vertex   -6.250000e+00 -6.250000e+00 1.125000e+01
    endloop
  endfacet
  facet normal -1.000000e+00 0.000000e+00 0.000000e+00
    outer loop
      vertex   -1.637500e+01 1.637500e+01 1.250000e+00
      vertex   -1.637500e+01 -1.637500e+01 1.250000e+00
      vertex   -1.637500e+01 1.637500e+01 1.125000e+01
    endloop
  endfacet
  facet normal -1.000000e+00 -0.000000e+00 0.000000e+00
    outer loop
      vertex   -1.637500e+01 1.637500e+01 1.125000e+01
      vertex   -1.637500e+01 -1.637500e+01 1.250000e+00
      vertex   -1.637500e+01 -1.637500e+01 1.125000e+01
    endloop
  endfacet
  facet normal 0.000000e+00 1.000000e+00 -0.000000e+00
    outer loop
      vertex   1.637500e+01 1.637500e+01 1.250000e+00
      vertex   -1.637500e+01 1.637500e+01 1.250000e+00
      vertex   1.637500e+01 1.637500e+01 1.125000e+01
    endloop
  endfacet
  facet normal 0.000000e+00 1.000000e+00 0.000000e+00
    outer loop
      vertex   1.637500e+01 1.637500e+01 1.125000e+01
      vertex   -1.637500e+01 1.637500e+01 1.250000e+00
      vertex   -1.637500e+01 1.637500e+01 1.125000e+01
    endloop
  endfacet
  facet normal 1.000000e+00 0.000000e+00 0.000000e+00
    outer loop
      vertex   1.637500e+01 -1.637500e+01 1.250000e+00
      vertex   1.637500e+01 1.637500e+01 1.250000e+00
      vertex   1.637500e+01 -1.637500e+01 1.125000e+01
    endloop
  endfacet
  facet normal 1.000000e+00 -0.000000e+00 0.000000e+00
    outer loop
      vertex   1.637500e+01 -1.637500e+01 1.125000e+01
      vertex   1.637500e+01 1.637500e+01 1.250000e+00
      vertex   1.637500e+01 1.637500e+01 1.125000e+01
    endloop
  endfacet
  facet normal 0.000000e+00 -1.000000e+00 0.000000e+00
    outer loop
      vertex   -1.637500e+01 -1.637500e+01 1.250000e+00
      vertex   1.637500e+01 -1.637500e+01 1.250000e+00
      vertex   -1.637500e+01 -1.637500e+01 1.125000e+01
    endloop
  endfacet
  facet normal 0.000000e+00 -1.000000e+00 0.000000e+00
    outer loop
      vertex   -1.637500e+01 -1.637500e+01 1.125000e+01
      vertex   1.637500e+01 -1.637500e+01 1.250000e+00
      vertex   1.637500e+01 -1.637500e+01 1.125000e+01
    endloop
  endfacet
  facet normal 0.000000e+00 0.000000e+00 1.000000e+00
    outer loop
      vertex   6.250000e+00 6.250000e+00 1.125000e+01
      vertex   6.250000e+00 -6.250000e+00 1.125000e+01
      vertex   1.637500e+01 -1.637500e+01 1.125000e+01
    endloop
  endfacet
  facet normal 0.000000e+00 0.000000e+00 1.000000e+00
    outer loop
      vertex   1.637500e+01 -1.637500e+01 1.125000e+01
      vertex   6.250000e+00 -6.250000e+00 1.125000e+01
      vertex   -6.250000e+00 -6.250000e+00 1.125000e+01
    endloop
  endfacet
  facet normal 0.000000e+00 0.000000e+00 1.000000e+00
    outer loop
      vertex   1.637500e+01 -1.637500e+01 1.125000e+01
      vertex   -6.250000e+00 -6.250000e+00 1.125000e+01
      vertex   -1.637500e+01 -1.637500e+01 1.125000e+01
    endloop
  endfacet
  facet normal 0.000000e+00 0.000000e+00 1.000000e+00
    outer loop
      vertex   -1.637500e+01 -1.637500e+01 1.125000e+01
      vertex   -6.250000e+00 -6.250000e+00 1.125000e+01
      vertex   -6.250000e+00 6.250000e+00 1.125000e+01
    endloop
  endfacet
  facet normal 0.000000e+00 0.000000e+00 1.000000e+00
    outer loop
      vertex   -1.637500e+01 -1.637500e+01 1.125000e+01
      vertex   -6.250000e+00 6.250000e+00 1.125000e+01
      vertex   -1.637500e+01 1.637500e+01 1.125000e+01
    endloop
  endfacet
  facet normal 0.000000e+00 0.000000e+00 1.000000e+00
    outer loop
      vertex   -1.637500e+01 1.637500e+01 1.125000e+01
      vertex   -6.250000e+00 6.250000e+00 1.125000e+01
      vertex   6.250000e+00 6.250000e+00 1.125000e+01
    endloop
  endfacet
  facet normal -0.000000e+00 0.000000e+00 1.000000e+00
    outer loop
      vertex   -1.637500e+01 1.637500e+01 1.125000e+01
      vertex   6.250000e+00 6.250000e+00 1.125000e+01
      vertex   1.637500e+01 1.637500e+01 1.125000e+01
    endloop
  endfacet
  facet normal 0.000000e+00 0.000000e+00 1.000000e+00
    outer loop
      vertex   1.637500e+01 1.637500e+01 1.125000e+01
      vertex   6.250000e+00 6.250000e+00 1.125000e+01
      vertex   1.637500e+01 -1.637500e+01 1.125000e+01
    endloop
  endfacet
  facet normal -0.000000e+00 0.000000e+00 -1.000000e+00
    outer loop
      vertex   6.250000e+00 -6.250000e+00 1.250000e+00
      vertex   -1.637500e+01 -1.637500e+01 1.250000e+00
      vertex   -6.250000e+00 -6.250000e+00 1.250000e+00
    endloop
  endfacet
  facet normal -0.000000e+00 0.000000e+00 -1.000000e+00
    outer loop
      vertex   -6.250000e+00 -6.250000e+00 1.250000e+00
      vertex   -1.637500e+01 -1.637500e+01 1.250000e+00
      vertex   -1.637500e+01 1.637500e+01 1.250000e+00
    endloop
  endfacet
  facet normal 0.000000e+00 0.000000e+00 -1.000000e+00
    outer loop
      vertex   -6.250000e+00 -6.250000e+00 1.250000e+00
      vertex   -1.637500e+01 1.637500e+01 1.250000e+00
      vertex   -6.250000e+00 6.250000e+00 1.250000e+00
    endloop
  endfacet
  facet normal 0.000000e+00 0.000000e+00 -1.000000e+00
    outer loop
      vertex   -6.250000e+00 6.250000e+00 1.250000e+00
      vertex   -1.637500e+01 1.637500e+01 1.250000e+00
      vertex   1.637500e+01 1.637500e+01 1.250000e+00
    endloop
  endfacet
  facet normal 0.000000e+00 0.000000e+00 -1.000000e+00
    outer loop
      vertex   -6.250000e+00 6.250000e+00 1.250000e+00
      vertex   1.637500e+01 1.637500e+01 1.250000e+00
      vertex   6.250000e+00 6.250000e+00 1.250000e+00
    endloop
  endfacet
  facet normal 0.000000e+00 0.000000e+00 -1.000000e+00
    outer loop
      vertex   6.250000e+00 6.250000e+00 1.250000e+00
      vertex   1.637500e+01 1.637500e+01 1.250000e+00
      vertex   6.250000e+00 -6.250000e+00 1.250000e+00
    endloop
  endfacet
  facet normal 0.000000e+00 0.000000e+00 -1.000000e+00
    outer loop
      vertex   6.250000e+00 -6.250000e+00 1.250000e+00
      vertex   1.637500e+01 1.637500e+01 1.250000e+00
      vertex   1.637500e+01 -1.637500e+01 1.250000e+00
    endloop
  endfacet
  facet normal 0.000000e+00 -0.000000e+00 -1.000000e+00
    outer loop
      vertex   6.250000e+00 -6.250000e+00 1.250000e+00
      vertex   1.637500e+01 -1.637500e+01 1.250000e+00
      vertex   -1.637500e+01 -1.637500e+01 1.250000e+00
    endloop
  endfacet
endsolid
