solid ASCII
  facet normal -0.000000e+00 1.000000e+00 0.000000e+00
    outer loop
      vertex   -6.250000e+00 -6.250000e+00 4.300000e+01
      vertex   6.250000e+00 -6.250000e+00 4.300000e+01
      vertex   -6.250000e+00 -6.250000e+00 4.200000e+01
    endloop
  endfacet
  facet normal 0.000000e+00 1.000000e+00 0.000000e+00
    outer loop
      vertex   -6.250000e+00 -6.250000e+00 4.200000e+01
      vertex   6.250000e+00 -6.250000e+00 4.300000e+01
      vertex   6.250000e+00 -6.250000e+00 4.200000e+01
    endloop
  endfacet
  facet normal 1.000000e+00 0.000000e+00 0.000000e+00
    outer loop
      vertex   -6.250000e+00 6.250000e+00 4.300000e+01
      vertex   -6.250000e+00 -6.250000e+00 4.300000e+01
      vertex   -6.250000e+00 6.250000e+00 4.200000e+01
    endloop
  endfacet
  facet normal 1.000000e+00 0.000000e+00 0.000000e+00
    outer loop
      vertex   -6.250000e+00 6.250000e+00 4.200000e+01
      vertex   -6.250000e+00 -6.250000e+00 4.300000e+01
      vertex   -6.250000e+00 -6.250000e+00 4.200000e+01
    endloop
  endfacet
  facet normal -0.000000e+00 -1.000000e+00 -0.000000e+00
    outer loop
      vertex   6.250000e+00 6.250000e+00 4.300000e+01
      vertex   -6.250000e+00 6.250000e+00 4.300000e+01
      vertex   6.250000e+00 6.250000e+00 4.200000e+01
    endloop
  endfacet
  facet normal 0.000000e+00 -1.000000e+00 0.000000e+00
    outer loop
      vertex   6.250000e+00 6.250000e+00 4.200000e+01
      vertex   -6.250000e+00 6.250000e+00 4.300000e+01
      vertex   -6.250000e+00 6.250000e+00 4.200000e+01
    endloop
  endfacet
  facet normal -1.000000e+00 0.000000e+00 0.000000e+00
    outer loop
      vertex   6.250000e+00 -6.250000e+00 4.300000e+01
      vertex   6.250000e+00 6.250000e+00 4.300000e+01
      vertex   6.250000e+00 -6.250000e+00 4.200000e+01
    endloop
  endfacet
  facet normal -1.000000e+00 0.000000e+00 0.000000e+00
    outer loop
      vertex   6.250000e+00 -6.250000e+00 4.200000e+01
      vertex   6.250000e+00 6.250000e+00 4.300000e+01
      vertex   6.250000e+00 6.250000e+00 4.200000e+01
    endloop
  endfacet
  facet normal -1.000000e+00 8.074349e-17 0.000000e+00
    outer loop
      vertex   -2.200000e+01 2.200000e+01 4.200000e+01
      vertex   -2.200000e+01 -2.200000e+01 4.200000e+01
      vertex   -2.200000e+01 2.200000e+01 4.300000e+01
    endloop
  endfacet
  facet normal -1.000000e+00 0.000000e+00 3.552714e-15
    outer loop
      vertex   -2.200000e+01 2.200000e+01 4.300000e+01
      vertex   -2.200000e+01 -2.200000e+01 4.200000e+01
      vertex   -2.200000e+01 -2.200000e+01 4.300000e+01
    endloop
  endfacet
  facet normal 1.614870e-16 1.000000e+00 -0.000000e+00
    outer loop
      vertex   2.200000e+01 2.200000e+01 4.200000e+01
      vertex   -2.200000e+01 2.200000e+01 4.200000e+01
      vertex   2.200000e+01 2.200000e+01 4.300000e+01
    endloop
  endfacet
  facet normal 1.614870e-16 1.000000e+00 0.000000e+00
    outer loop
      vertex   2.200000e+01 2.200000e+01 4.300000e+01
      vertex   -2.200000e+01 2.200000e+01 4.200000e+01
      vertex   -2.200000e+01 2.200000e+01 4.300000e+01
    endloop
  endfacet
  facet normal 1.000000e+00 0.000000e+00 0.000000e+00
    outer loop
      vertex   2.200000e+01 -2.200000e+01 4.200000e+01
      vertex   2.200000e+01 2.200000e+01 4.200000e+01
      vertex   2.200000e+01 -2.200000e+01 4.300000e+01
    endloop
  endfacet
  facet normal 1.000000e+00 -0.000000e+00 0.000000e+00
    outer loop
      vertex   2.200000e+01 -2.200000e+01 4.300000e+01
      vertex   2.200000e+01 2.200000e+01 4.200000e+01
      vertex   2.200000e+01 2.200000e+01 4.300000e+01
    endloop
  endfacet
  facet normal 0.000000e+00 -1.000000e+00 0.000000e+00
    outer loop
      vertex   -2.200000e+01 -2.200000e+01 4.200000e+01
      vertex   2.200000e+01 -2.200000e+01 4.200000e+01
      vertex   -2.200000e+01 -2.200000e+01 4.300000e+01
    endloop
  endfacet
  facet normal 0.000000e+00 -1.000000e+00 0.000000e+00
    outer loop
      vertex   -2.200000e+01 -2.200000e+01 4.300000e+01
      vertex   2.200000e+01 -2.200000e+01 4.200000e+01
      vertex   2.200000e+01 -2.200000e+01 4.300000e+01
    endloop
  endfacet
  facet normal 0.000000e+00 0.000000e+00 1.000000e+00
    outer loop
      vertex   6.250000e+00 6.250000e+00 4.300000e+01
      vertex   -2.200000e+01 2.200000e+01 4.300000e+01
      vertex   -6.250000e+00 6.250000e+00 4.300000e+01
    endloop
  endfacet
  facet normal 0.000000e+00 0.000000e+00 1.000000e+00
    outer loop
      vertex   -6.250000e+00 6.250000e+00 4.300000e+01
      vertex   -2.200000e+01 2.200000e+01 4.300000e+01
      vertex   -2.200000e+01 -2.200000e+01 4.300000e+01
    endloop
  endfacet
  facet normal 0.000000e+00 0.000000e+00 1.000000e+00
    outer loop
      vertex   -6.250000e+00 6.250000e+00 4.300000e+01
      vertex   -2.200000e+01 -2.200000e+01 4.300000e+01
      vertex   -6.250000e+00 -6.250000e+00 4.300000e+01
    endloop
  endfacet
  facet normal 0.000000e+00 0.000000e+00 1.000000e+00
    outer loop
      vertex   -6.250000e+00 -6.250000e+00 4.300000e+01
      vertex   -2.200000e+01 -2.200000e+01 4.300000e+01
      vertex   2.200000e+01 -2.200000e+01 4.300000e+01
    endloop
  endfacet
  facet normal -0.000000e+00 0.000000e+00 1.000000e+00
    outer loop
      vertex   -6.250000e+00 -6.250000e+00 4.300000e+01
      vertex   2.200000e+01 -2.200000e+01 4.300000e+01
      vertex   6.250000e+00 -6.250000e+00 4.300000e+01
    endloop
  endfacet
  facet normal -0.000000e+00 0.000000e+00 1.000000e+00
    outer loop
      vertex   6.250000e+00 -6.250000e+00 4.300000e+01
      vertex   2.200000e+01 -2.200000e+01 4.300000e+01
      vertex   6.250000e+00 6.250000e+00 4.300000e+01
    endloop
  endfacet
  facet normal -0.000000e+00 0.000000e+00 1.000000e+00
    outer loop
      vertex   6.250000e+00 6.250000e+00 4.300000e+01
      vertex   2.200000e+01 -2.200000e+01 4.300000e+01
      vertex   2.200000e+01 2.200000e+01 4.300000e+01
    endloop
  endfacet
  facet normal 0.000000e+00 -0.000000e+00 1.000000e+00
    outer loop
      vertex   6.250000e+00 6.250000e+00 4.300000e+01
      vertex   2.200000e+01 2.200000e+01 4.300000e+01
      vertex   -2.200000e+01 2.200000e+01 4.300000e+01
    endloop
  endfacet
  facet normal 0.000000e+00 0.000000e+00 -1.000000e+00
    outer loop
      vertex   6.250000e+00 -6.250000e+00 4.200000e+01
      vertex   6.250000e+00 6.250000e+00 4.200000e+01
      vertex   2.200000e+01 2.200000e+01 4.200000e+01
    endloop
  endfacet
  facet normal 0.000000e+00 0.000000e+00 -1.000000e+00
    outer loop
      vertex   2.200000e+01 2.200000e+01 4.200000e+01
      vertex   6.250000e+00 6.250000e+00 4.200000e+01
      vertex   -6.250000e+00 6.250000e+00 4.200000e+01
    endloop
  endfacet
  facet normal -0.000000e+00 0.000000e+00 -1.000000e+00
    outer loop
      vertex   2.200000e+01 2.200000e+01 4.200000e+01
      vertex   -6.250000e+00 6.250000e+00 4.200000e+01
      vertex   -2.200000e+01 2.200000e+01 4.200000e+01
    endloop
  endfacet
  facet normal 0.000000e+00 0.000000e+00 -1.000000e+00
    outer loop
      vertex   -2.200000e+01 2.200000e+01 4.200000e+01
      vertex   -6.250000e+00 6.250000e+00 4.200000e+01
      vertex   -6.250000e+00 -6.250000e+00 4.200000e+01
    endloop
  endfacet
  facet normal 0.000000e+00 -0.000000e+00 -1.000000e+00
    outer loop
      vertex   -2.200000e+01 2.200000e+01 4.200000e+01
      vertex   -6.250000e+00 -6.250000e+00 4.200000e+01
      vertex   -2.200000e+01 -2.200000e+01 4.200000e+01
    endloop
  endfacet
  facet normal 0.000000e+00 0.000000e+00 -1.000000e+00
    outer loop
      vertex   -2.200000e+01 -2.200000e+01 4.200000e+01
      vertex   -6.250000e+00 -6.250000e+00 4.200000e+01
      vertex   6.250000e+00 -6.250000e+00 4.200000e+01
    endloop
  endfacet
  facet normal 0.000000e+00 0.000000e+00 -1.000000e+00
    outer loop
      vertex   -2.200000e+01 -2.200000e+01 4.200000e+01
      vertex   6.250000e+00 -6.250000e+00 4.200000e+01
      vertex   2.200000e+01 -2.200000e+01 4.200000e+01
    endloop
  endfacet
  facet normal 0.000000e+00 0.000000e+00 -1.000000e+00
    outer loop
      vertex   2.200000e+01 -2.200000e+01 4.200000e+01
      vertex   6.250000e+00 -6.250000e+00 4.200000e+01
      vertex   2.200000e+01 2.200000e+01 4.200000e+01
    endloop
  endfacet
endsolid
