solid ASCII
  facet normal -1.000000e+00 7.826001e-33 -2.114711e-17
    outer loop
      vertex   -3.000000e+00 -3.000000e+00 2.427143e+00
      vertex   -3.000000e+00 -3.000000e+00 2.342714e+01
      vertex   -3.000000e+00 3.000000e+00 2.427143e+00
    endloop
  endfacet
  facet normal -1.000000e+00 0.000000e+00 -2.114711e-17
    outer loop
      vertex   -3.000000e+00 3.000000e+00 2.427143e+00
      vertex   -3.000000e+00 -3.000000e+00 2.342714e+01
      vertex   -3.000000e+00 3.000000e+00 2.342714e+01
    endloop
  endfacet
  facet normal 1.000000e+00 0.000000e+00 -0.000000e+00
    outer loop
      vertex   -2.000000e+00 -2.000000e+00 3.427143e+00
      vertex   -2.000000e+00 2.000000e+00 3.427143e+00
      vertex   -2.000000e+00 -2.000000e+00 2.342714e+01
    endloop
  endfacet
  facet normal 1.000000e+00 -0.000000e+00 0.000000e+00
    outer loop
      vertex   -2.000000e+00 -2.000000e+00 2.342714e+01
      vertex   -2.000000e+00 2.000000e+00 3.427143e+00
      vertex   -2.000000e+00 2.000000e+00 2.342714e+01
    endloop
  endfacet
  facet normal 0.000000e+00 3.700743e-16 -1.000000e+00
    outer loop
      vertex   3.000000e+00 3.000000e+00 2.427143e+00
      vertex   3.000000e+00 -3.000000e+00 2.427143e+00
      vertex   -3.000000e+00 3.000000e+00 2.427143e+00
    endloop
  endfacet
  facet normal 0.000000e+00 3.700743e-16 -1.000000e+00
    outer loop
      vertex   -3.000000e+00 3.000000e+00 2.427143e+00
      vertex   3.000000e+00 -3.000000e+00 2.427143e+00
      vertex   -3.000000e+00 -3.000000e+00 2.427143e+00
    endloop
  endfacet
  facet normal 0.000000e+00 -4.440892e-16 1.000000e+00
    outer loop
      vertex   2.000000e+00 -2.000000e+00 3.427143e+00
      vertex   2.000000e+00 2.000000e+00 3.427143e+00
      vertex   -2.000000e+00 -2.000000e+00 3.427143e+00
    endloop
  endfacet
  facet normal 0.000000e+00 -4.440892e-16 1.000000e+00
    outer loop
      vertex   -2.000000e+00 -2.000000e+00 3.427143e+00
      vertex   2.000000e+00 2.000000e+00 3.427143e+00
      vertex   -2.000000e+00 2.000000e+00 3.427143e+00
    endloop
  endfacet
  facet normal -0.000000e+00 -1.000000e+00 -3.806479e-16
    outer loop
      vertex   3.000000e+00 -3.000000e+00 2.427143e+00
      vertex   3.000000e+00 -3.000000e+00 2.342714e+01
      vertex   -3.000000e+00 -3.000000e+00 2.427143e+00
    endloop
  endfacet
  facet normal -1.001728e-31 -1.000000e+00 -3.806479e-16
    outer loop
      vertex   -3.000000e+00 -3.000000e+00 2.427143e+00
      vertex   3.000000e+00 -3.000000e+00 2.342714e+01
      vertex   -3.000000e+00 -3.000000e+00 2.342714e+01
    endloop
  endfacet
  facet normal 0.000000e+00 1.000000e+00 3.552714e-16
    outer loop
      vertex   2.000000e+00 -2.000000e+00 3.427143e+00
      vertex   -2.000000e+00 -2.000000e+00 3.427143e+00
      vertex   2.000000e+00 -2.000000e+00 2.342714e+01
    endloop
  endfacet
  facet normal 0.000000e+00 1.000000e+00 3.552714e-16
    outer loop
      vertex   2.000000e+00 -2.000000e+00 2.342714e+01
      vertex   -2.000000e+00 -2.000000e+00 3.427143e+00
      vertex   -2.000000e+00 -2.000000e+00 2.342714e+01
    endloop
  endfacet
  facet normal 1.000000e+00 0.000000e+00 0.000000e+00
    outer loop
      vertex   3.000000e+00 3.000000e+00 2.427143e+00
      vertex   3.000000e+00 3.000000e+00 2.342714e+01
      vertex   3.000000e+00 -3.000000e+00 2.427143e+00
    endloop
  endfacet
  facet normal 1.000000e+00 0.000000e+00 -0.000000e+00
    outer loop
      vertex   3.000000e+00 -3.000000e+00 2.427143e+00
      vertex   3.000000e+00 3.000000e+00 2.342714e+01
      vertex   3.000000e+00 -3.000000e+00 2.342714e+01
    endloop
  endfacet
  facet normal -1.000000e+00 -0.000000e+00 0.000000e+00
    outer loop
      vertex   2.000000e+00 2.000000e+00 3.427143e+00
      vertex   2.000000e+00 -2.000000e+00 3.427143e+00
      vertex   2.000000e+00 2.000000e+00 2.342714e+01
    endloop
  endfacet
  facet normal -1.000000e+00 -0.000000e+00 0.000000e+00
    outer loop
      vertex   2.000000e+00 2.000000e+00 2.342714e+01
      vertex   2.000000e+00 -2.000000e+00 3.427143e+00
      vertex   2.000000e+00 -2.000000e+00 2.342714e+01
    endloop
  endfacet
  facet normal 0.000000e+00 -0.000000e+00 1.000000e+00
    outer loop
      vertex   3.000000e+00 -3.000000e+00 2.342714e+01
      vertex   3.000000e+00 3.000000e+00 2.342714e+01
      vertex   2.000000e+00 2.000000e+00 2.342714e+01
    endloop
  endfacet
  facet normal 0.000000e+00 -0.000000e+00 1.000000e+00
    outer loop
      vertex   2.000000e+00 2.000000e+00 2.342714e+01
      vertex   3.000000e+00 3.000000e+00 2.342714e+01
      vertex   -3.000000e+00 3.000000e+00 2.342714e+01
    endloop
  endfacet
  facet normal 0.000000e+00 0.000000e+00 1.000000e+00
    outer loop
      vertex   2.000000e+00 2.000000e+00 2.342714e+01
      vertex   -3.000000e+00 3.000000e+00 2.342714e+01
      vertex   -2.000000e+00 2.000000e+00 2.342714e+01
    endloop
  endfacet
  facet normal 0.000000e+00 0.000000e+00 1.000000e+00
    outer loop
      vertex   -2.000000e+00 2.000000e+00 2.342714e+01
      vertex   -3.000000e+00 3.000000e+00 2.342714e+01
      vertex   -3.000000e+00 -3.000000e+00 2.342714e+01
    endloop
  endfacet
  facet normal 0.000000e+00 0.000000e+00 1.000000e+00
    outer loop
      vertex   -2.000000e+00 2.000000e+00 2.342714e+01
      vertex   -3.000000e+00 -3.000000e+00 2.342714e+01
      vertex   -2.000000e+00 -2.000000e+00 2.342714e+01
    endloop
  endfacet
  facet normal 0.000000e+00 0.000000e+00 1.000000e+00
    outer loop
      vertex   -2.000000e+00 -2.000000e+00 2.342714e+01
      vertex   -3.000000e+00 -3.000000e+00 2.342714e+01
      vertex   3.000000e+00 -3.000000e+00 2.342714e+01
    endloop
  endfacet
  facet normal -0.000000e+00 0.000000e+00 1.000000e+00
    outer loop
      vertex   -2.000000e+00 -2.000000e+00 2.342714e+01
      vertex   3.000000e+00 -3.000000e+00 2.342714e+01
      vertex   2.000000e+00 -2.000000e+00 2.342714e+01
    endloop
  endfacet
  facet normal -0.000000e+00 0.000000e+00 1.000000e+00
    outer loop
      vertex   2.000000e+00 -2.000000e+00 2.342714e+01
      vertex   3.000000e+00 -3.000000e+00 2.342714e+01
      vertex   2.000000e+00 2.000000e+00 2.342714e+01
    endloop
  endfacet
  facet normal -0.000000e+00 1.000000e+00 3.383537e-16
    outer loop
      vertex   -3.000000e+00 3.000000e+00 2.427143e+00
      vertex   -3.000000e+00 3.000000e+00 2.342714e+01
      vertex   3.000000e+00 3.000000e+00 2.427143e+00
    endloop
  endfacet
  facet normal 0.000000e+00 1.000000e+00 3.383537e-16
    outer loop
      vertex   3.000000e+00 3.000000e+00 2.427143e+00
      vertex   -3.000000e+00 3.000000e+00 2.342714e+01
      vertex   3.000000e+00 3.000000e+00 2.342714e+01
    endloop
  endfacet
  facet normal 0.000000e+00 -1.000000e+00 -3.552714e-16
    outer loop
      vertex   -2.000000e+00 2.000000e+00 3.427143e+00
      vertex   2.000000e+00 2.000000e+00 3.427143e+00
      vertex   -2.000000e+00 2.000000e+00 2.342714e+01
    endloop
  endfacet
  facet normal 0.000000e+00 -1.000000e+00 -3.552714e-16
    outer loop
      vertex   -2.000000e+00 2.000000e+00 2.342714e+01
      vertex   2.000000e+00 2.000000e+00 3.427143e+00
      vertex   2.000000e+00 2.000000e+00 2.342714e+01
    endloop
  endfacet
endsolid
