solid 
facet normal -0 -0 -1
 outer loop
  vertex -0.2 -0.2 0.5
  vertex -0.2 0.2 0.5
  vertex 0.2 0.2 0.5
 endloop
endfacet
facet normal -0 0 -1
 outer loop
  vertex -0.2 -0.2 0.5
  vertex 0.2 0.2 0.5
  vertex 0.2 -0.2 0.5
 endloop
endfacet
facet normal 0 0 1
 outer loop
  vertex -0.2 -0.2 0.6
  vertex 0.2 -0.2 0.6
  vertex 0.2 0.2 0.6
 endloop
endfacet
facet normal -0 0 1
 outer loop
  vertex -0.2 -0.2 0.6
  vertex 0.2 0.2 0.6
  vertex -0.2 0.2 0.6
 endloop
endfacet
facet normal 1 0 0
 outer loop
  vertex 0.2 -0.2 0.5
  vertex 0.2 0.2 0.5
  vertex 0.2 0.2 0.6
 endloop
endfacet
facet normal 1 -0 0
 outer loop
  vertex 0.2 -0.2 0.5
  vertex 0.2 0.2 0.6
  vertex 0.2 -0.2 0.6
 endloop
endfacet
facet normal -1 0 0
 outer loop
  vertex -0.2 0.2 0.5
  vertex -0.2 -0.2 0.5
  vertex -0.2 -0.2 0.6
 endloop
endfacet
facet normal -1 -0 -0
 outer loop
  vertex -0.2 0.2 0.5
  vertex -0.2 -0.2 0.6
  vertex -0.2 0.2 0.6
 endloop
endfacet
facet normal -0 1 0
 outer loop
  vertex 0.2 0.2 0.5
  vertex -0.2 0.2 0.5
  vertex -0.2 0.2 0.6
 endloop
endfacet
facet normal 0 1 0
 outer loop
  vertex 0.2 0.2 0.5
  vertex -0.2 0.2 0.6
  vertex 0.2 0.2 0.6
 endloop
endfacet
facet normal -0 -1 -0
 outer loop
  vertex -0.2 -0.2 0.5
  vertex 0.2 -0.2 0.5
  vertex 0.2 -0.2 0.6
 endloop
endfacet
facet normal 0 -1 -0
 outer loop
  vertex -0.2 -0.2 0.5
  vertex 0.2 -0.2 0.6
  vertex -0.2 -0.2 0.6
 endloop
endfacet
endsolid 
